G04 DipTrace 3.2.0.1*
G04 BottomSilk.gbr*
%MOIN*%
G04 #@! TF.FileFunction,Legend,Bot*
G04 #@! TF.Part,Single*
%ADD10C,0.009843*%
%ADD13C,0.002625*%
%ADD14C,0.001969*%
%ADD92C,0.004632*%
%ADD94C,0.006176*%
%FSLAX26Y26*%
G04*
G70*
G90*
G75*
G01*
G04 BotSilk*
%LPD*%
X-296086Y-1563215D2*
D10*
X-402381D1*
X-296086Y-1555825D2*
X-402381D1*
X-296086D2*
Y-1640285D1*
X-402381Y-1555825D2*
Y-1640285D1*
X124672Y-440190D2*
Y-566285D1*
X117160Y-440190D2*
Y-566285D1*
Y-440190D2*
X164496Y-440244D1*
X117160Y-566285D2*
X164496Y-566231D1*
X-417241Y-1102375D2*
X-416172Y-1071756D1*
X-412969Y-1041287D1*
X-407648Y-1011114D1*
X-400235Y-981387D1*
X-390766Y-952249D1*
X-379288Y-923842D1*
X-365855Y-896305D1*
X-350534Y-869772D1*
X-333400Y-844372D1*
X-314535Y-820229D1*
X-294031Y-797461D1*
X-271989Y-776179D1*
X-248516Y-756485D1*
X-223726Y-738477D1*
X-197740Y-722241D1*
X-170685Y-707858D1*
X-142693Y-695396D1*
X-113899Y-684918D1*
X-84444Y-676473D1*
X-54471Y-670103D1*
X-24128Y-665839D1*
X6440Y-663702D1*
X37081D1*
X67649Y-665839D1*
X97992Y-670103D1*
X127965Y-676473D1*
X157420Y-684918D1*
X186214Y-695396D1*
X214206Y-707858D1*
X241261Y-722241D1*
X267247Y-738477D1*
X292037Y-756485D1*
X315510Y-776179D1*
X337552Y-797461D1*
X358055Y-820229D1*
X376921Y-844372D1*
X394055Y-869772D1*
X409376Y-896305D1*
X422809Y-923842D1*
X434287Y-952249D1*
X443756Y-981387D1*
X451169Y-1011114D1*
X456490Y-1041287D1*
X459693Y-1071756D1*
X460762Y-1102375D1*
X459693Y-1132994D1*
X456490Y-1163464D1*
X451169Y-1193636D1*
X443756Y-1223364D1*
X434287Y-1252502D1*
X422809Y-1280909D1*
X409376Y-1308446D1*
X394055Y-1334979D1*
X376921Y-1360378D1*
X358055Y-1384521D1*
X337552Y-1407289D1*
X315510Y-1428572D1*
X292037Y-1448266D1*
X267247Y-1466274D1*
X241261Y-1482509D1*
X214206Y-1496893D1*
X186214Y-1509354D1*
X157420Y-1519833D1*
X127965Y-1528278D1*
X97992Y-1534648D1*
X67649Y-1538912D1*
X37081Y-1541049D1*
X6440D1*
X-24128Y-1538912D1*
X-54471Y-1534648D1*
X-84444Y-1528278D1*
X-113899Y-1519833D1*
X-142693Y-1509354D1*
X-170685Y-1496893D1*
X-197740Y-1482509D1*
X-223726Y-1466274D1*
X-248516Y-1448266D1*
X-271989Y-1428572D1*
X-294031Y-1407289D1*
X-314535Y-1384521D1*
X-333400Y-1360378D1*
X-350534Y-1334979D1*
X-365855Y-1308446D1*
X-379288Y-1280909D1*
X-390766Y-1252502D1*
X-400235Y-1223364D1*
X-407648Y-1193636D1*
X-412969Y-1163464D1*
X-416172Y-1132994D1*
X-417241Y-1102375D1*
X91973Y-1533860D2*
X453290Y-1032214D1*
X-409587Y-1172441D2*
X-48361Y-670890D1*
X494024Y-884434D2*
X350317Y-781008D1*
X222467Y-688956D2*
X78578Y-585434D1*
X494024Y-884434D2*
X436523Y-964346D1*
X78578Y-585434D2*
X21168Y-665251D1*
X-141173Y-1588887D2*
X173795D1*
Y-1777871D1*
X-141173D1*
Y-1588887D1*
X-436832Y-1567543D2*
D14*
X-426990D1*
X-439061Y-1568528D2*
X-424608D1*
X-440904Y-1569512D2*
X-422525D1*
X-442357Y-1570496D2*
X-420848D1*
X-443530Y-1571480D2*
X-438755D1*
X-424230D2*
X-419597D1*
X-444480Y-1572465D2*
X-440525D1*
X-422674D2*
X-418697D1*
X-445227Y-1573449D2*
X-441964D1*
X-421399D2*
X-418016D1*
X-445809Y-1574433D2*
X-443006D1*
X-420415D2*
X-417446D1*
X-446227Y-1575417D2*
X-443735D1*
X-419726D2*
X-416958D1*
X-446470Y-1576402D2*
X-444217D1*
X-419245D2*
X-416582D1*
X-446589Y-1577386D2*
X-444486D1*
X-418873D2*
X-416361D1*
X-446641Y-1578370D2*
X-444611D1*
X-418585D2*
X-416283D1*
X-446658Y-1579354D2*
X-444633D1*
X-418690D2*
X-416359D1*
X-446632Y-1580339D2*
X-444522D1*
X-418895D2*
X-416578D1*
X-446505Y-1581323D2*
X-444217D1*
X-419193D2*
X-416861D1*
X-446232Y-1582307D2*
X-443759D1*
X-419601D2*
X-417194D1*
X-445816Y-1583291D2*
X-442700D1*
X-420597D2*
X-417684D1*
X-445241Y-1584276D2*
X-441285D1*
X-422030D2*
X-418381D1*
X-444461Y-1585260D2*
X-439604D1*
X-423752D2*
X-419259D1*
X-443443Y-1586244D2*
X-437816D1*
X-425253D2*
X-420333D1*
X-442177Y-1587228D2*
X-438339D1*
X-426255D2*
X-421628D1*
X-440769Y-1588213D2*
X-438801D1*
X-426990D2*
X-423052D1*
X-438801Y-1595102D2*
X-436832D1*
X-439670Y-1596087D2*
X-437324D1*
X-440540Y-1597071D2*
X-437900D1*
X-441540Y-1598055D2*
X-438505D1*
X-442726Y-1599039D2*
X-439171D1*
X-443989Y-1600024D2*
X-439942D1*
X-445126Y-1601008D2*
X-416163D1*
X-445986Y-1601992D2*
X-416163D1*
X-446675Y-1602976D2*
X-416163D1*
X-433879Y-1611835D2*
X-428958D1*
X-438078Y-1612819D2*
X-425029D1*
X-441292Y-1613803D2*
X-422049D1*
X-443537Y-1614787D2*
X-420011D1*
X-445224Y-1615772D2*
X-440572D1*
X-423477D2*
X-418646D1*
X-446043Y-1616756D2*
X-442093D1*
X-421471D2*
X-417721D1*
X-446372Y-1617740D2*
X-443243D1*
X-420106D2*
X-417069D1*
X-446547Y-1618724D2*
X-444117D1*
X-419110D2*
X-416628D1*
X-446621Y-1619709D2*
X-444380D1*
X-418701D2*
X-416411D1*
X-446618Y-1620693D2*
X-444487D1*
X-418818D2*
X-416418D1*
X-446497Y-1621677D2*
X-444133D1*
X-419529D2*
X-416638D1*
X-446192Y-1622661D2*
X-443060D1*
X-420651D2*
X-417037D1*
X-445644Y-1623646D2*
X-441425D1*
X-422342D2*
X-417643D1*
X-444762Y-1624630D2*
X-439250D1*
X-424550D2*
X-418584D1*
X-443461Y-1625614D2*
X-419997D1*
X-441742Y-1626598D2*
X-421892D1*
X-439785Y-1627583D2*
X-424037D1*
X-9189Y-462324D2*
X654D1*
X-11418Y-463308D2*
X3035D1*
X-13261Y-464293D2*
X5118D1*
X-14714Y-465277D2*
X6795D1*
X-15887Y-466261D2*
X-11112D1*
X3413D2*
X8046D1*
X-16837Y-467245D2*
X-12882D1*
X4969D2*
X8946D1*
X-17584Y-468230D2*
X-14321D1*
X6244D2*
X9628D1*
X-18166Y-469214D2*
X-15363D1*
X7228D2*
X10197D1*
X-18584Y-470198D2*
X-16092D1*
X7917D2*
X10685D1*
X-18827Y-471182D2*
X-16574D1*
X8398D2*
X11061D1*
X-18946Y-472167D2*
X-16843D1*
X8770D2*
X11282D1*
X-18998Y-473151D2*
X-16968D1*
X9058D2*
X11360D1*
X-19015Y-474135D2*
X-16989D1*
X8953D2*
X11284D1*
X-18989Y-475119D2*
X-16879D1*
X8748D2*
X11065D1*
X-18862Y-476104D2*
X-16574D1*
X8450D2*
X10782D1*
X-18589Y-477088D2*
X-16116D1*
X8042D2*
X10449D1*
X-18173Y-478072D2*
X-15057D1*
X7046D2*
X9959D1*
X-17598Y-479056D2*
X-13642D1*
X5613D2*
X9262D1*
X-16818Y-480041D2*
X-11961D1*
X3891D2*
X8384D1*
X-15800Y-481025D2*
X-10173D1*
X2390D2*
X7310D1*
X-14534Y-482009D2*
X-10696D1*
X1389D2*
X6015D1*
X-13126Y-482993D2*
X-11157D1*
X654D2*
X4591D1*
X-11157Y-489883D2*
X-9189D1*
X-12027Y-490867D2*
X-9681D1*
X-12897Y-491852D2*
X-10257D1*
X-13897Y-492836D2*
X-10862D1*
X-15083Y-493820D2*
X-11528D1*
X-16346Y-494804D2*
X-12299D1*
X-17483Y-495789D2*
X11480D1*
X-18343Y-496773D2*
X11480D1*
X-19031Y-497757D2*
X11480D1*
X-11157Y-509568D2*
X-9189D1*
X-12027Y-510552D2*
X-9681D1*
X-12897Y-511537D2*
X-10257D1*
X-13897Y-512521D2*
X-10862D1*
X-15083Y-513505D2*
X-11528D1*
X-16346Y-514490D2*
X-12299D1*
X-17483Y-515474D2*
X11480D1*
X-18343Y-516458D2*
X11480D1*
X-19031Y-517442D2*
X11480D1*
X-14270Y145202D2*
X-9349D1*
X4430D2*
X6399D1*
X34942D2*
X39864D1*
X-15553Y144218D2*
X-8402D1*
X4430D2*
X6777D1*
X33660D2*
X40810D1*
X-16541Y143234D2*
X-7548D1*
X4430D2*
X7234D1*
X32671D2*
X41665D1*
X-17284Y142249D2*
X-14233D1*
X-9505D2*
X-6838D1*
X4430D2*
X7821D1*
X31928D2*
X34980D1*
X39708D2*
X42374D1*
X-17886Y141265D2*
X-15087D1*
X-8803D2*
X-6266D1*
X4430D2*
X8569D1*
X31327D2*
X34125D1*
X40409D2*
X42946D1*
X-18388Y140281D2*
X-15797D1*
X-8234D2*
X-5819D1*
X4430D2*
X9436D1*
X30825D2*
X33416D1*
X40979D2*
X43394D1*
X-18769Y139297D2*
X-16365D1*
X-7787D2*
X-5452D1*
X4430D2*
X10365D1*
X30444D2*
X32848D1*
X41426D2*
X43760D1*
X-18996Y138312D2*
X-16778D1*
X-7421D2*
X-5098D1*
X4430D2*
X11291D1*
X30217D2*
X32435D1*
X41792D2*
X44115D1*
X-19113Y137328D2*
X-17019D1*
X-7066D2*
X-4793D1*
X4430D2*
X7383D1*
X9352D2*
X12115D1*
X30099D2*
X32194D1*
X42146D2*
X44419D1*
X-19198Y136344D2*
X-17138D1*
X-6762D2*
X-4601D1*
X4430D2*
X7383D1*
X10336D2*
X12760D1*
X30015D2*
X32075D1*
X42451D2*
X44612D1*
X-19344Y135360D2*
X-17190D1*
X-6569D2*
X-4501D1*
X4430D2*
X7383D1*
X11320D2*
X13289D1*
X29869D2*
X32023D1*
X42643D2*
X44711D1*
X-19587Y134375D2*
X-17211D1*
X-6470D2*
X-4457D1*
X4430D2*
X7383D1*
X29626D2*
X32002D1*
X42743D2*
X44756D1*
X-19842Y133391D2*
X-17219D1*
X-6425D2*
X-4439D1*
X4430D2*
X7383D1*
X29370D2*
X31994D1*
X42787D2*
X44774D1*
X-20015Y132407D2*
X-17222D1*
X-6407D2*
X-4432D1*
X4430D2*
X7383D1*
X29198D2*
X31991D1*
X42805D2*
X44781D1*
X-20106Y131423D2*
X-17223D1*
X-6400D2*
X-4429D1*
X4430D2*
X7383D1*
X29106D2*
X31990D1*
X42812D2*
X44783D1*
X-20148Y130438D2*
X-17223D1*
X-6398D2*
X-4428D1*
X4430D2*
X7383D1*
X29064D2*
X31990D1*
X42815D2*
X44784D1*
X-20162Y129454D2*
X-17223D1*
X-6397D2*
X-4428D1*
X4430D2*
X7383D1*
X29051D2*
X31990D1*
X42816D2*
X44785D1*
X-20134Y128470D2*
X-17223D1*
X-6396D2*
X-4428D1*
X4430D2*
X7383D1*
X29079D2*
X31990D1*
X42816D2*
X44785D1*
X-20011Y127486D2*
X-17223D1*
X-6396D2*
X-4428D1*
X4430D2*
X7383D1*
X29202D2*
X31990D1*
X42816D2*
X44785D1*
X-19776Y126501D2*
X-17223D1*
X-6400D2*
X-4428D1*
X4430D2*
X7383D1*
X29437D2*
X31990D1*
X42812D2*
X44785D1*
X-19524Y125517D2*
X-17223D1*
X-6435D2*
X-4428D1*
X4430D2*
X7383D1*
X29689D2*
X31990D1*
X42778D2*
X44785D1*
X-19352Y124533D2*
X-17219D1*
X-6560D2*
X-4432D1*
X4430D2*
X7383D1*
X29860D2*
X31993D1*
X42652D2*
X44781D1*
X-19257Y123549D2*
X-17185D1*
X-6800D2*
X-4466D1*
X4430D2*
X7383D1*
X29956D2*
X32028D1*
X42413D2*
X44746D1*
X-19181Y122564D2*
X-17055D1*
X-7087D2*
X-4596D1*
X4430D2*
X7383D1*
X30032D2*
X32157D1*
X42126D2*
X44617D1*
X-19034Y121580D2*
X-16781D1*
X-7388D2*
X-4866D1*
X4430D2*
X7383D1*
X30178D2*
X32431D1*
X41825D2*
X44347D1*
X-18757Y120596D2*
X-16350D1*
X-7769D2*
X-5248D1*
X4430D2*
X7383D1*
X30455D2*
X32863D1*
X41444D2*
X43965D1*
X-18373Y119612D2*
X-15794D1*
X-8236D2*
X-5693D1*
X4430D2*
X7383D1*
X30839D2*
X33418D1*
X40976D2*
X43519D1*
X-17923Y118627D2*
X-14319D1*
X-9264D2*
X-6205D1*
X4430D2*
X7383D1*
X31290D2*
X34894D1*
X39949D2*
X43008D1*
X-17378Y117643D2*
X-12083D1*
X-11572D2*
X-6855D1*
X4430D2*
X7383D1*
X21163D2*
X23131D1*
X31835D2*
X37130D1*
X37640D2*
X42357D1*
X-16615Y116659D2*
X-7767D1*
X4430D2*
X7383D1*
X21163D2*
X23131D1*
X32598D2*
X41446D1*
X-15535Y115675D2*
X-8970D1*
X4430D2*
X7383D1*
X21163D2*
X23131D1*
X33678D2*
X40243D1*
X-14270Y114690D2*
X-10333D1*
X4430D2*
X7383D1*
X21163D2*
X23131D1*
X34942D2*
X38879D1*
X-13625Y97983D2*
X-7719D1*
X1139D2*
X17871D1*
X24761D2*
X26730D1*
X40509D2*
X43462D1*
X-14605Y96999D2*
X-6318D1*
X1139D2*
X17871D1*
X24761D2*
X26730D1*
X40131D2*
X43462D1*
X-15551Y96014D2*
X-5181D1*
X1139D2*
X17871D1*
X24761D2*
X26730D1*
X39678D2*
X43462D1*
X-16375Y95030D2*
X-12291D1*
X-7723D2*
X-4328D1*
X14919D2*
X17871D1*
X24761D2*
X26730D1*
X39126D2*
X43462D1*
X-16994Y94046D2*
X-13568D1*
X-6777D2*
X-3697D1*
X14919D2*
X17871D1*
X24761D2*
X26730D1*
X38507D2*
X43462D1*
X-17452Y93062D2*
X-14464D1*
X-5957D2*
X-3258D1*
X14919D2*
X17871D1*
X24761D2*
X26730D1*
X37910D2*
X43462D1*
X-17848Y92077D2*
X-15134D1*
X-5368D2*
X-3007D1*
X14919D2*
X17871D1*
X24761D2*
X26730D1*
X37359D2*
X43462D1*
X-18166Y91093D2*
X-15370D1*
X-5014D2*
X-2878D1*
X14919D2*
X17871D1*
X24761D2*
X26730D1*
X36837D2*
X43462D1*
X-18331Y90109D2*
X-15494D1*
X-4766D2*
X-2798D1*
X14919D2*
X17871D1*
X24761D2*
X26730D1*
X36334D2*
X39681D1*
X41493D2*
X43462D1*
X-18307Y89125D2*
X-15518D1*
X14919D2*
X17871D1*
X24761D2*
X26730D1*
X35836D2*
X38975D1*
X41493D2*
X43462D1*
X-18113Y88140D2*
X-15412D1*
X14919D2*
X17871D1*
X24761D2*
X26730D1*
X35343D2*
X38375D1*
X41493D2*
X43462D1*
X-17845Y87156D2*
X-15150D1*
X14919D2*
X17871D1*
X24761D2*
X26730D1*
X34850D2*
X37834D1*
X41493D2*
X43462D1*
X-17551Y86172D2*
X-14772D1*
X14919D2*
X17871D1*
X24761D2*
X26730D1*
X34358D2*
X37322D1*
X41493D2*
X43462D1*
X-17188Y85188D2*
X-14327D1*
X14919D2*
X17871D1*
X24761D2*
X26730D1*
X33865D2*
X36822D1*
X41493D2*
X43462D1*
X-16735Y84203D2*
X-13820D1*
X3108D2*
X17871D1*
X24761D2*
X26730D1*
X33374D2*
X36328D1*
X41493D2*
X43462D1*
X-16181Y83219D2*
X-13207D1*
X3108D2*
X17871D1*
X24761D2*
X26730D1*
X32881D2*
X35834D1*
X41493D2*
X43462D1*
X-15557Y82235D2*
X-12447D1*
X3108D2*
X17871D1*
X24761D2*
X26730D1*
X32386D2*
X35342D1*
X41493D2*
X43462D1*
X-14925Y81251D2*
X-11575D1*
X14919D2*
X17871D1*
X24761D2*
X26730D1*
X31862D2*
X34849D1*
X41493D2*
X43462D1*
X-14244Y80266D2*
X-10640D1*
X14919D2*
X17871D1*
X24761D2*
X26730D1*
X31276D2*
X34354D1*
X41493D2*
X43462D1*
X-13452Y79282D2*
X-9676D1*
X14919D2*
X17871D1*
X24761D2*
X26730D1*
X30642D2*
X33830D1*
X41493D2*
X43462D1*
X-12567Y78298D2*
X-8699D1*
X14919D2*
X17871D1*
X24761D2*
X26734D1*
X30039D2*
X33244D1*
X41493D2*
X43462D1*
X-11627Y77314D2*
X-7722D1*
X14919D2*
X17871D1*
X24761D2*
X26771D1*
X29483D2*
X32611D1*
X41493D2*
X43462D1*
X-10661Y76329D2*
X-6773D1*
X14919D2*
X17871D1*
X24761D2*
X26923D1*
X28935D2*
X32008D1*
X41493D2*
X43462D1*
X-9688Y75345D2*
X-5914D1*
X14919D2*
X17871D1*
X24761D2*
X27260D1*
X28348D2*
X31455D1*
X41493D2*
X43462D1*
X-8741Y74361D2*
X-5170D1*
X14919D2*
X17871D1*
X24761D2*
X30932D1*
X41493D2*
X43462D1*
X-7883Y73377D2*
X-4476D1*
X14919D2*
X17871D1*
X24761D2*
X30429D1*
X41493D2*
X43462D1*
X-7135Y72392D2*
X-3824D1*
X14919D2*
X17871D1*
X24761D2*
X29931D1*
X41493D2*
X43462D1*
X-6405Y71408D2*
X-3296D1*
X14919D2*
X17871D1*
X24761D2*
X29438D1*
X41493D2*
X43462D1*
X-5608Y70424D2*
X-2879D1*
X14919D2*
X17871D1*
X24761D2*
X28947D1*
X41493D2*
X43462D1*
X-18546Y69440D2*
X-2492D1*
X14919D2*
X17871D1*
X24761D2*
X28481D1*
X41493D2*
X43462D1*
X-18546Y68455D2*
X-2134D1*
X14919D2*
X17871D1*
X24761D2*
X28071D1*
X41493D2*
X43462D1*
X-18546Y67471D2*
X-1814D1*
X14919D2*
X17871D1*
X24761D2*
X27714D1*
X41493D2*
X43462D1*
X-205812Y145467D2*
X-201875D1*
X-187112D2*
X-182190D1*
X-157584D2*
X-152663D1*
X-207247Y144483D2*
X-200474D1*
X-188394D2*
X-181244D1*
X-158867D2*
X-151716D1*
X-208479Y143499D2*
X-199337D1*
X-189382D2*
X-180389D1*
X-159855D2*
X-150862D1*
X-209477Y142514D2*
X-206759D1*
X-201913D2*
X-198484D1*
X-190126D2*
X-187074D1*
X-182346D2*
X-179679D1*
X-160598D2*
X-157547D1*
X-152819D2*
X-150152D1*
X-210251Y141530D2*
X-207613D1*
X-201059D2*
X-197853D1*
X-190727D2*
X-187928D1*
X-181644D2*
X-179108D1*
X-161199D2*
X-158401D1*
X-152117D2*
X-149580D1*
X-210845Y140546D2*
X-208323D1*
X-200349D2*
X-197414D1*
X-191229D2*
X-188638D1*
X-181075D2*
X-178660D1*
X-161701D2*
X-159111D1*
X-151548D2*
X-149132D1*
X-211267Y139562D2*
X-208891D1*
X-199781D2*
X-197164D1*
X-191610D2*
X-189206D1*
X-180628D2*
X-178294D1*
X-162082D2*
X-159679D1*
X-151101D2*
X-148766D1*
X-211516Y138577D2*
X-209304D1*
X-199368D2*
X-197041D1*
X-191837D2*
X-189619D1*
X-180262D2*
X-177939D1*
X-162310D2*
X-160092D1*
X-150734D2*
X-148411D1*
X-211670Y137593D2*
X-209545D1*
X-199127D2*
X-196988D1*
X-191954D2*
X-189860D1*
X-179907D2*
X-177635D1*
X-162427D2*
X-160333D1*
X-150380D2*
X-148107D1*
X-211848Y136609D2*
X-209660D1*
X-199012D2*
X-196966D1*
X-192039D2*
X-189979D1*
X-179603D2*
X-177442D1*
X-162512D2*
X-160451D1*
X-150075D2*
X-147914D1*
X-212105Y135625D2*
X-209678D1*
X-198994D2*
X-196958D1*
X-192185D2*
X-190031D1*
X-179410D2*
X-177343D1*
X-162657D2*
X-160504D1*
X-149883D2*
X-147815D1*
X-212365Y134640D2*
X-209569D1*
X-199103D2*
X-196959D1*
X-192428D2*
X-190052D1*
X-179311D2*
X-177298D1*
X-162901D2*
X-160525D1*
X-149784D2*
X-147771D1*
X-212540Y133656D2*
X-209303D1*
X-199369D2*
X-196993D1*
X-192683D2*
X-190060D1*
X-179267D2*
X-177280D1*
X-163156D2*
X-160532D1*
X-149739D2*
X-147752D1*
X-212632Y132672D2*
X-208874D1*
X-199798D2*
X-197122D1*
X-192856D2*
X-190063D1*
X-179248D2*
X-177273D1*
X-163328D2*
X-160535D1*
X-149721D2*
X-147745D1*
X-212674Y131688D2*
X-208320D1*
X-200352D2*
X-197396D1*
X-192948D2*
X-190064D1*
X-179241D2*
X-177270D1*
X-163420D2*
X-160536D1*
X-149714D2*
X-147743D1*
X-212692Y130703D2*
X-206845D1*
X-201827D2*
X-197816D1*
X-192989D2*
X-190064D1*
X-179239D2*
X-177269D1*
X-163462D2*
X-160537D1*
X-149711D2*
X-147742D1*
X-212695Y129719D2*
X-204609D1*
X-204063D2*
X-198425D1*
X-193003D2*
X-190064D1*
X-179238D2*
X-177269D1*
X-163475D2*
X-160537D1*
X-149710D2*
X-147742D1*
X-212662Y128735D2*
X-199319D1*
X-192975D2*
X-190064D1*
X-179238D2*
X-177269D1*
X-163447D2*
X-160537D1*
X-149710D2*
X-147742D1*
X-212538Y127751D2*
X-209749D1*
X-207781D2*
X-200515D1*
X-192852D2*
X-190064D1*
X-179238D2*
X-177269D1*
X-163324D2*
X-160537D1*
X-149710D2*
X-147741D1*
X-212302Y126766D2*
X-209749D1*
X-205812D2*
X-201875D1*
X-192617D2*
X-190064D1*
X-179241D2*
X-177269D1*
X-163089D2*
X-160537D1*
X-149714D2*
X-147741D1*
X-212050Y125782D2*
X-209745D1*
X-192365D2*
X-190064D1*
X-179276D2*
X-177269D1*
X-162837D2*
X-160537D1*
X-149748D2*
X-147741D1*
X-211875Y124798D2*
X-209711D1*
X-192193D2*
X-190060D1*
X-179401D2*
X-177273D1*
X-162666D2*
X-160533D1*
X-149874D2*
X-147745D1*
X-211749Y123814D2*
X-209582D1*
X-192098D2*
X-190026D1*
X-179641D2*
X-177307D1*
X-162571D2*
X-160498D1*
X-150113D2*
X-147780D1*
X-211578Y122829D2*
X-209311D1*
X-192022D2*
X-189897D1*
X-179928D2*
X-177437D1*
X-162494D2*
X-160369D1*
X-150400D2*
X-147909D1*
X-211290Y121845D2*
X-208926D1*
X-199907D2*
X-196954D1*
X-191875D2*
X-189622D1*
X-180229D2*
X-177707D1*
X-162348D2*
X-160095D1*
X-150701D2*
X-148180D1*
X-210902Y120861D2*
X-208430D1*
X-200112D2*
X-197294D1*
X-191598D2*
X-189191D1*
X-180610D2*
X-178089D1*
X-162071D2*
X-159663D1*
X-151082D2*
X-148561D1*
X-210454Y119877D2*
X-207822D1*
X-200465D2*
X-197626D1*
X-191214D2*
X-188636D1*
X-181077D2*
X-178535D1*
X-161687D2*
X-159108D1*
X-151550D2*
X-149007D1*
X-209941Y118892D2*
X-206228D1*
X-201701D2*
X-197980D1*
X-190764D2*
X-187160D1*
X-182105D2*
X-179046D1*
X-161236D2*
X-157633D1*
X-152578D2*
X-149518D1*
X-209291Y117908D2*
X-203812D1*
X-203558D2*
X-198514D1*
X-190219D2*
X-184924D1*
X-184414D2*
X-179696D1*
X-171364D2*
X-169395D1*
X-160691D2*
X-155396D1*
X-154886D2*
X-150169D1*
X-208379Y116924D2*
X-199360D1*
X-189456D2*
X-180608D1*
X-171364D2*
X-169395D1*
X-159929D2*
X-151081D1*
X-207176Y115940D2*
X-200531D1*
X-188376D2*
X-181811D1*
X-171364D2*
X-169395D1*
X-158849D2*
X-152283D1*
X-205812Y114955D2*
X-201875D1*
X-187112D2*
X-183175D1*
X-171364D2*
X-169395D1*
X-157584D2*
X-153647D1*
X-206377Y95381D2*
X-204408D1*
X-191613D2*
X-174881D1*
X-167991D2*
X-166022D1*
X-152243D2*
X-149290D1*
X-206377Y94396D2*
X-204030D1*
X-191613D2*
X-174881D1*
X-167991D2*
X-166022D1*
X-152621D2*
X-149290D1*
X-206377Y93412D2*
X-203573D1*
X-191613D2*
X-174881D1*
X-167991D2*
X-166022D1*
X-153074D2*
X-149290D1*
X-206377Y92428D2*
X-202986D1*
X-177833D2*
X-174881D1*
X-167991D2*
X-166022D1*
X-153626D2*
X-149290D1*
X-206377Y91444D2*
X-202238D1*
X-177833D2*
X-174881D1*
X-167991D2*
X-166022D1*
X-154245D2*
X-149290D1*
X-206377Y90459D2*
X-201371D1*
X-177833D2*
X-174881D1*
X-167991D2*
X-166022D1*
X-154842D2*
X-149290D1*
X-206377Y89475D2*
X-200442D1*
X-177833D2*
X-174881D1*
X-167991D2*
X-166022D1*
X-155393D2*
X-149290D1*
X-206377Y88491D2*
X-199516D1*
X-177833D2*
X-174881D1*
X-167991D2*
X-166022D1*
X-155915D2*
X-149290D1*
X-206377Y87507D2*
X-203424D1*
X-201455D2*
X-198692D1*
X-177833D2*
X-174881D1*
X-167991D2*
X-166022D1*
X-156418D2*
X-153071D1*
X-151259D2*
X-149290D1*
X-206377Y86522D2*
X-203424D1*
X-200471D2*
X-198047D1*
X-177833D2*
X-174881D1*
X-167991D2*
X-166022D1*
X-156916D2*
X-153777D1*
X-151259D2*
X-149290D1*
X-206377Y85538D2*
X-203424D1*
X-199487D2*
X-197518D1*
X-177833D2*
X-174881D1*
X-167991D2*
X-166022D1*
X-157409D2*
X-154377D1*
X-151259D2*
X-149290D1*
X-206377Y84554D2*
X-203424D1*
X-177833D2*
X-174881D1*
X-167991D2*
X-166022D1*
X-157902D2*
X-154918D1*
X-151259D2*
X-149290D1*
X-206377Y83570D2*
X-203424D1*
X-177833D2*
X-174881D1*
X-167991D2*
X-166022D1*
X-158394D2*
X-155430D1*
X-151259D2*
X-149290D1*
X-206377Y82585D2*
X-203424D1*
X-177833D2*
X-174881D1*
X-167991D2*
X-166022D1*
X-158887D2*
X-155930D1*
X-151259D2*
X-149290D1*
X-206377Y81601D2*
X-203424D1*
X-189644D2*
X-174881D1*
X-167991D2*
X-166022D1*
X-159378D2*
X-156424D1*
X-151259D2*
X-149290D1*
X-206377Y80617D2*
X-203424D1*
X-189644D2*
X-174881D1*
X-167991D2*
X-166022D1*
X-159871D2*
X-156918D1*
X-151259D2*
X-149290D1*
X-206377Y79633D2*
X-203424D1*
X-189644D2*
X-174881D1*
X-167991D2*
X-166022D1*
X-160366D2*
X-157410D1*
X-151259D2*
X-149290D1*
X-206377Y78648D2*
X-203424D1*
X-177833D2*
X-174881D1*
X-167991D2*
X-166022D1*
X-160890D2*
X-157903D1*
X-151259D2*
X-149290D1*
X-206377Y77664D2*
X-203424D1*
X-177833D2*
X-174881D1*
X-167991D2*
X-166022D1*
X-161476D2*
X-158398D1*
X-151259D2*
X-149290D1*
X-206377Y76680D2*
X-203424D1*
X-177833D2*
X-174881D1*
X-167991D2*
X-166022D1*
X-162110D2*
X-158921D1*
X-151259D2*
X-149290D1*
X-206377Y75696D2*
X-203424D1*
X-177833D2*
X-174881D1*
X-167991D2*
X-166018D1*
X-162713D2*
X-159507D1*
X-151259D2*
X-149290D1*
X-206377Y74711D2*
X-203424D1*
X-177833D2*
X-174881D1*
X-167991D2*
X-165981D1*
X-163269D2*
X-160141D1*
X-151259D2*
X-149290D1*
X-206377Y73727D2*
X-203424D1*
X-177833D2*
X-174881D1*
X-167991D2*
X-165829D1*
X-163817D2*
X-160744D1*
X-151259D2*
X-149290D1*
X-206377Y72743D2*
X-203424D1*
X-177833D2*
X-174881D1*
X-167991D2*
X-165492D1*
X-164404D2*
X-161297D1*
X-151259D2*
X-149290D1*
X-206377Y71759D2*
X-203424D1*
X-177833D2*
X-174881D1*
X-167991D2*
X-161820D1*
X-151259D2*
X-149290D1*
X-206377Y70774D2*
X-203424D1*
X-177833D2*
X-174881D1*
X-167991D2*
X-162323D1*
X-151259D2*
X-149290D1*
X-206377Y69790D2*
X-203424D1*
X-177833D2*
X-174881D1*
X-167991D2*
X-162821D1*
X-151259D2*
X-149290D1*
X-206377Y68806D2*
X-203424D1*
X-177833D2*
X-174881D1*
X-167991D2*
X-163314D1*
X-151259D2*
X-149290D1*
X-206377Y67822D2*
X-203424D1*
X-177833D2*
X-174881D1*
X-167991D2*
X-163805D1*
X-151259D2*
X-149290D1*
X-206377Y66837D2*
X-203424D1*
X-177833D2*
X-174881D1*
X-167991D2*
X-164271D1*
X-151259D2*
X-149290D1*
X-206377Y65853D2*
X-203424D1*
X-177833D2*
X-174881D1*
X-167991D2*
X-164681D1*
X-151259D2*
X-149290D1*
X-206377Y64869D2*
X-203424D1*
X-177833D2*
X-174881D1*
X-167991D2*
X-165038D1*
X-151259D2*
X-149290D1*
X-9772Y27306D2*
X-3866D1*
X10898D2*
X15819D1*
X39441D2*
X41409D1*
X-10752Y26322D2*
X-2465D1*
X9615D2*
X16766D1*
X39441D2*
X41787D1*
X-11698Y25337D2*
X-1328D1*
X8627D2*
X17620D1*
X39441D2*
X42245D1*
X-12522Y24353D2*
X-8438D1*
X-3870D2*
X-475D1*
X7884D2*
X10935D1*
X15663D2*
X18330D1*
X39441D2*
X42831D1*
X-13141Y23369D2*
X-9715D1*
X-2924D2*
X156D1*
X7282D2*
X10081D1*
X16365D2*
X18902D1*
X39441D2*
X43580D1*
X-13599Y22385D2*
X-10611D1*
X-2104D2*
X595D1*
X6780D2*
X9371D1*
X16934D2*
X19349D1*
X39441D2*
X44447D1*
X-13995Y21400D2*
X-11281D1*
X-1515D2*
X846D1*
X6399D2*
X8803D1*
X17381D2*
X19716D1*
X39441D2*
X45376D1*
X-14313Y20416D2*
X-11517D1*
X-1161D2*
X975D1*
X6172D2*
X8390D1*
X17747D2*
X20070D1*
X39441D2*
X46302D1*
X-14478Y19432D2*
X-11641D1*
X-913D2*
X1055D1*
X6055D2*
X8149D1*
X18102D2*
X20375D1*
X39441D2*
X42394D1*
X44362D2*
X47126D1*
X-14454Y18448D2*
X-11664D1*
X5970D2*
X8030D1*
X18406D2*
X20567D1*
X39441D2*
X42394D1*
X45346D2*
X47771D1*
X-14260Y17463D2*
X-11559D1*
X5824D2*
X7978D1*
X18599D2*
X20666D1*
X39441D2*
X42394D1*
X46331D2*
X48299D1*
X-13992Y16479D2*
X-11297D1*
X5581D2*
X7957D1*
X18698D2*
X20711D1*
X39441D2*
X42394D1*
X-13698Y15495D2*
X-10919D1*
X5326D2*
X7949D1*
X18743D2*
X20729D1*
X39441D2*
X42394D1*
X-13335Y14510D2*
X-10474D1*
X5153D2*
X7946D1*
X18761D2*
X20736D1*
X39441D2*
X42394D1*
X-12882Y13526D2*
X-9967D1*
X5062D2*
X7945D1*
X18768D2*
X20739D1*
X39441D2*
X42394D1*
X-12328Y12542D2*
X-9354D1*
X5020D2*
X7945D1*
X18770D2*
X20740D1*
X39441D2*
X42394D1*
X-11704Y11558D2*
X-8594D1*
X5006D2*
X7945D1*
X18771D2*
X20740D1*
X39441D2*
X42394D1*
X-11071Y10573D2*
X-7722D1*
X5034D2*
X7945D1*
X18772D2*
X20740D1*
X39441D2*
X42394D1*
X-10391Y9589D2*
X-6787D1*
X5157D2*
X7945D1*
X18772D2*
X20740D1*
X39441D2*
X42394D1*
X-9599Y8605D2*
X-5823D1*
X5392D2*
X7945D1*
X18768D2*
X20740D1*
X39441D2*
X42394D1*
X-8714Y7621D2*
X-4846D1*
X5644D2*
X7945D1*
X18733D2*
X20740D1*
X39441D2*
X42394D1*
X-7774Y6636D2*
X-3869D1*
X5816D2*
X7949D1*
X18608D2*
X20736D1*
X39441D2*
X42394D1*
X-6808Y5652D2*
X-2920D1*
X5911D2*
X7983D1*
X18368D2*
X20702D1*
X39441D2*
X42394D1*
X-5835Y4668D2*
X-2061D1*
X5987D2*
X8113D1*
X18081D2*
X20572D1*
X39441D2*
X42394D1*
X-4888Y3684D2*
X-1317D1*
X6134D2*
X8387D1*
X17780D2*
X20302D1*
X39441D2*
X42394D1*
X-4030Y2699D2*
X-623D1*
X6411D2*
X8818D1*
X17399D2*
X19920D1*
X39441D2*
X42394D1*
X-3282Y1715D2*
X29D1*
X6795D2*
X9374D1*
X16932D2*
X19475D1*
X39441D2*
X42394D1*
X-2552Y731D2*
X557D1*
X7245D2*
X10849D1*
X15904D2*
X18963D1*
X39441D2*
X42394D1*
X-1755Y-253D2*
X974D1*
X7790D2*
X13085D1*
X13596D2*
X18313D1*
X26646D2*
X28614D1*
X39441D2*
X42394D1*
X-14693Y-1238D2*
X1361D1*
X8553D2*
X17401D1*
X26646D2*
X28614D1*
X39441D2*
X42394D1*
X-14693Y-2222D2*
X1719D1*
X9633D2*
X16198D1*
X26646D2*
X28614D1*
X39441D2*
X42394D1*
X-14693Y-3206D2*
X2039D1*
X10898D2*
X14835D1*
X26646D2*
X28614D1*
X39441D2*
X42394D1*
X-204412Y27219D2*
X-202444D1*
X-182759D2*
X-177837D1*
X-154215D2*
X-152247D1*
X-204412Y26235D2*
X-201833D1*
X-184041D2*
X-176891D1*
X-154215D2*
X-151869D1*
X-204412Y25251D2*
X-201272D1*
X-185029D2*
X-176036D1*
X-154215D2*
X-151411D1*
X-204412Y24266D2*
X-200745D1*
X-185773D2*
X-182721D1*
X-177993D2*
X-175326D1*
X-154215D2*
X-150825D1*
X-204412Y23282D2*
X-200235D1*
X-186374D2*
X-183575D1*
X-177291D2*
X-174755D1*
X-154215D2*
X-150077D1*
X-204412Y22298D2*
X-199705D1*
X-186876D2*
X-184285D1*
X-176722D2*
X-174307D1*
X-154215D2*
X-149209D1*
X-204412Y21314D2*
X-199117D1*
X-187257D2*
X-184853D1*
X-176275D2*
X-173941D1*
X-154215D2*
X-148281D1*
X-204412Y20329D2*
X-198482D1*
X-187484D2*
X-185266D1*
X-175909D2*
X-173586D1*
X-154215D2*
X-147355D1*
X-204412Y19345D2*
X-202444D1*
X-200631D2*
X-197879D1*
X-187601D2*
X-185507D1*
X-175554D2*
X-173281D1*
X-154215D2*
X-151262D1*
X-149294D2*
X-146530D1*
X-204412Y18361D2*
X-202444D1*
X-199925D2*
X-197326D1*
X-187686D2*
X-185626D1*
X-175250D2*
X-173089D1*
X-154215D2*
X-151262D1*
X-148310D2*
X-145885D1*
X-204412Y17377D2*
X-202444D1*
X-199325D2*
X-196804D1*
X-187832D2*
X-185678D1*
X-175057D2*
X-172990D1*
X-154215D2*
X-151262D1*
X-147325D2*
X-145357D1*
X-204412Y16392D2*
X-202444D1*
X-198784D2*
X-196300D1*
X-188075D2*
X-185699D1*
X-174958D2*
X-172945D1*
X-154215D2*
X-151262D1*
X-204412Y15408D2*
X-202444D1*
X-198273D2*
X-195802D1*
X-188330D2*
X-185707D1*
X-174914D2*
X-172927D1*
X-154215D2*
X-151262D1*
X-204412Y14424D2*
X-202444D1*
X-197772D2*
X-195309D1*
X-188503D2*
X-185710D1*
X-174895D2*
X-172920D1*
X-154215D2*
X-151262D1*
X-204412Y13440D2*
X-202444D1*
X-197274D2*
X-194816D1*
X-188595D2*
X-185711D1*
X-174888D2*
X-172917D1*
X-154215D2*
X-151262D1*
X-204412Y12455D2*
X-202444D1*
X-196750D2*
X-194320D1*
X-188636D2*
X-185711D1*
X-174886D2*
X-172916D1*
X-154215D2*
X-151262D1*
X-204412Y11471D2*
X-202444D1*
X-196163D2*
X-193796D1*
X-188650D2*
X-185711D1*
X-174885D2*
X-172916D1*
X-154215D2*
X-151262D1*
X-204412Y10487D2*
X-202444D1*
X-195526D2*
X-193214D1*
X-188622D2*
X-185711D1*
X-174885D2*
X-172916D1*
X-154215D2*
X-151262D1*
X-204412Y9503D2*
X-202444D1*
X-194897D2*
X-192615D1*
X-188499D2*
X-185711D1*
X-174885D2*
X-172916D1*
X-154215D2*
X-151262D1*
X-204412Y8518D2*
X-202444D1*
X-194257D2*
X-192141D1*
X-188264D2*
X-185711D1*
X-174888D2*
X-172916D1*
X-154215D2*
X-151262D1*
X-204412Y7534D2*
X-202444D1*
X-193585D2*
X-191859D1*
X-188012D2*
X-185711D1*
X-174923D2*
X-172916D1*
X-154215D2*
X-151262D1*
X-208349Y6550D2*
X-191718D1*
X-187840D2*
X-185707D1*
X-175048D2*
X-172920D1*
X-154215D2*
X-151262D1*
X-208349Y5566D2*
X-191656D1*
X-187745D2*
X-185673D1*
X-175288D2*
X-172954D1*
X-154215D2*
X-151262D1*
X-208349Y4581D2*
X-191630D1*
X-187669D2*
X-185544D1*
X-175575D2*
X-173084D1*
X-154215D2*
X-151262D1*
X-204412Y3597D2*
X-202444D1*
X-187522D2*
X-185269D1*
X-175876D2*
X-173354D1*
X-154215D2*
X-151262D1*
X-204412Y2613D2*
X-202444D1*
X-187245D2*
X-184838D1*
X-176257D2*
X-173736D1*
X-154215D2*
X-151262D1*
X-204412Y1629D2*
X-202444D1*
X-186861D2*
X-184283D1*
X-176724D2*
X-174182D1*
X-154215D2*
X-151262D1*
X-204412Y644D2*
X-202444D1*
X-186411D2*
X-182807D1*
X-177752D2*
X-174693D1*
X-154215D2*
X-151262D1*
X-204412Y-340D2*
X-202444D1*
X-185866D2*
X-180571D1*
X-180061D2*
X-175343D1*
X-167010D2*
X-165042D1*
X-154215D2*
X-151262D1*
X-204412Y-1324D2*
X-202444D1*
X-185103D2*
X-176255D1*
X-167010D2*
X-165042D1*
X-154215D2*
X-151262D1*
X-204412Y-2308D2*
X-202444D1*
X-184023D2*
X-177458D1*
X-167010D2*
X-165042D1*
X-154215D2*
X-151262D1*
X-204412Y-3293D2*
X-202444D1*
X-182759D2*
X-178822D1*
X-167010D2*
X-165042D1*
X-154215D2*
X-151262D1*
X-8398Y-63034D2*
X-3476D1*
X11287D2*
X16209D1*
X39831D2*
X41799D1*
X-9680Y-64018D2*
X-2530D1*
X10005D2*
X17155D1*
X39831D2*
X42177D1*
X-10669Y-65003D2*
X-1675D1*
X9016D2*
X18010D1*
X39831D2*
X42635D1*
X-11412Y-65987D2*
X-8360D1*
X-3632D2*
X-965D1*
X8273D2*
X11325D1*
X16053D2*
X18720D1*
X39831D2*
X43221D1*
X-12013Y-66971D2*
X-9214D1*
X-2931D2*
X-394D1*
X7672D2*
X10471D1*
X16754D2*
X19291D1*
X39831D2*
X43969D1*
X-12515Y-67955D2*
X-9924D1*
X-2361D2*
X54D1*
X7170D2*
X9761D1*
X17324D2*
X19739D1*
X39831D2*
X44836D1*
X-12896Y-68940D2*
X-10492D1*
X-1914D2*
X420D1*
X6789D2*
X9193D1*
X17771D2*
X20105D1*
X39831D2*
X45765D1*
X-13123Y-69924D2*
X-10905D1*
X-1548D2*
X775D1*
X6562D2*
X8780D1*
X18137D2*
X20460D1*
X39831D2*
X46691D1*
X-13241Y-70908D2*
X-11146D1*
X-1194D2*
X1079D1*
X6444D2*
X8539D1*
X18492D2*
X20764D1*
X39831D2*
X42783D1*
X44752D2*
X47516D1*
X-13325Y-71892D2*
X-11265D1*
X-889D2*
X1272D1*
X6360D2*
X8420D1*
X18796D2*
X20957D1*
X39831D2*
X42783D1*
X45736D2*
X48160D1*
X-13471Y-72877D2*
X-11317D1*
X-696D2*
X1371D1*
X6214D2*
X8368D1*
X18989D2*
X21056D1*
X39831D2*
X42783D1*
X46720D2*
X48689D1*
X-13714Y-73861D2*
X-11338D1*
X-597D2*
X1416D1*
X5971D2*
X8347D1*
X19088D2*
X21101D1*
X39831D2*
X42783D1*
X-13969Y-74845D2*
X-11346D1*
X-553D2*
X1434D1*
X5716D2*
X8339D1*
X19132D2*
X21119D1*
X39831D2*
X42783D1*
X-14142Y-75829D2*
X-11349D1*
X-534D2*
X1441D1*
X5543D2*
X8336D1*
X19151D2*
X21126D1*
X39831D2*
X42783D1*
X-14234Y-76814D2*
X-11350D1*
X-527D2*
X1444D1*
X5451D2*
X8335D1*
X19158D2*
X21129D1*
X39831D2*
X42783D1*
X-14275Y-77798D2*
X-11350D1*
X-525D2*
X1444D1*
X5410D2*
X8335D1*
X19160D2*
X21129D1*
X39831D2*
X42783D1*
X-14289Y-78782D2*
X-11350D1*
X-524D2*
X1445D1*
X5396D2*
X8335D1*
X19161D2*
X21130D1*
X39831D2*
X42783D1*
X-14261Y-79766D2*
X-11350D1*
X-524D2*
X1445D1*
X5424D2*
X8335D1*
X19161D2*
X21130D1*
X39831D2*
X42783D1*
X-14138Y-80751D2*
X-11350D1*
X-524D2*
X1445D1*
X5547D2*
X8335D1*
X19161D2*
X21130D1*
X39831D2*
X42783D1*
X-13903Y-81735D2*
X-11350D1*
X-527D2*
X1445D1*
X5782D2*
X8335D1*
X19158D2*
X21130D1*
X39831D2*
X42783D1*
X-13651Y-82719D2*
X-11350D1*
X-562D2*
X1445D1*
X6034D2*
X8335D1*
X19123D2*
X21130D1*
X39831D2*
X42783D1*
X-13479Y-83703D2*
X-11347D1*
X-688D2*
X1441D1*
X6206D2*
X8338D1*
X18998D2*
X21126D1*
X39831D2*
X42783D1*
X-13384Y-84688D2*
X-11312D1*
X-927D2*
X1406D1*
X6301D2*
X8373D1*
X18758D2*
X21091D1*
X39831D2*
X42783D1*
X-13308Y-85672D2*
X-11183D1*
X-1214D2*
X1277D1*
X6377D2*
X8502D1*
X18471D2*
X20962D1*
X39831D2*
X42783D1*
X-13162Y-86656D2*
X-10908D1*
X-1515D2*
X1007D1*
X6524D2*
X8777D1*
X18170D2*
X20692D1*
X39831D2*
X42783D1*
X-12885Y-87640D2*
X-10477D1*
X-1896D2*
X625D1*
X6801D2*
X9208D1*
X17789D2*
X20310D1*
X39831D2*
X42783D1*
X-12500Y-88625D2*
X-9922D1*
X-2364D2*
X179D1*
X7185D2*
X9763D1*
X17322D2*
X19864D1*
X39831D2*
X42783D1*
X-12050Y-89609D2*
X-8446D1*
X-3391D2*
X-332D1*
X7635D2*
X11239D1*
X16294D2*
X19353D1*
X39831D2*
X42783D1*
X-11505Y-90593D2*
X-6210D1*
X-5700D2*
X-982D1*
X8180D2*
X13475D1*
X13985D2*
X18703D1*
X27035D2*
X29004D1*
X39831D2*
X42783D1*
X-10742Y-91577D2*
X-1894D1*
X8943D2*
X17791D1*
X27035D2*
X29004D1*
X39831D2*
X42783D1*
X-9662Y-92562D2*
X-3097D1*
X10023D2*
X16588D1*
X27035D2*
X29004D1*
X39831D2*
X42783D1*
X-8398Y-93546D2*
X-4461D1*
X11287D2*
X15224D1*
X27035D2*
X29004D1*
X39831D2*
X42783D1*
X-212598Y-60041D2*
X-200787D1*
X-187992D2*
X-183071D1*
X-158465D2*
X-153543D1*
X-212598Y-61025D2*
X-200333D1*
X-189275D2*
X-182124D1*
X-159747D2*
X-152597D1*
X-212598Y-62009D2*
X-200050D1*
X-190263D2*
X-181270D1*
X-160736D2*
X-151742D1*
X-201772Y-62993D2*
X-199907D1*
X-191006D2*
X-187955D1*
X-183227D2*
X-180560D1*
X-161479D2*
X-158427D1*
X-153699D2*
X-151032D1*
X-201772Y-63978D2*
X-199840D1*
X-191607D2*
X-188809D1*
X-182525D2*
X-179988D1*
X-162080D2*
X-159281D1*
X-152997D2*
X-150461D1*
X-201768Y-64962D2*
X-199780D1*
X-192110D2*
X-189519D1*
X-181956D2*
X-179541D1*
X-162582D2*
X-159991D1*
X-152428D2*
X-150013D1*
X-201733Y-65946D2*
X-199645D1*
X-192491D2*
X-190087D1*
X-181509D2*
X-179174D1*
X-162963D2*
X-160559D1*
X-151981D2*
X-149647D1*
X-201615Y-66930D2*
X-199405D1*
X-192718D2*
X-190500D1*
X-181143D2*
X-178820D1*
X-163190D2*
X-160972D1*
X-151615D2*
X-149292D1*
X-201455Y-67915D2*
X-199152D1*
X-192835D2*
X-190741D1*
X-180788D2*
X-178515D1*
X-163307D2*
X-161213D1*
X-151260D2*
X-148988D1*
X-201355Y-68899D2*
X-198980D1*
X-192920D2*
X-190860D1*
X-180484D2*
X-178322D1*
X-163392D2*
X-161332D1*
X-150956D2*
X-148795D1*
X-207677Y-69883D2*
X-203740D1*
X-201953D2*
X-198884D1*
X-193065D2*
X-190912D1*
X-180291D2*
X-178223D1*
X-163538D2*
X-161384D1*
X-150763D2*
X-148696D1*
X-209078Y-70867D2*
X-198808D1*
X-193309D2*
X-190933D1*
X-180192D2*
X-178179D1*
X-163781D2*
X-161405D1*
X-150664D2*
X-148651D1*
X-210215Y-71852D2*
X-198673D1*
X-193564D2*
X-190941D1*
X-180147D2*
X-178160D1*
X-164036D2*
X-161413D1*
X-150620D2*
X-148633D1*
X-211068Y-72836D2*
X-207673D1*
X-202796D2*
X-198505D1*
X-193737D2*
X-190943D1*
X-180129D2*
X-178153D1*
X-164209D2*
X-161416D1*
X-150601D2*
X-148626D1*
X-211703Y-73820D2*
X-208619D1*
X-201965D2*
X-198403D1*
X-193828D2*
X-190944D1*
X-180122D2*
X-178151D1*
X-164301D2*
X-161417D1*
X-150594D2*
X-148623D1*
X-212177Y-74804D2*
X-209439D1*
X-201317D2*
X-199001D1*
X-193870D2*
X-190945D1*
X-180119D2*
X-178150D1*
X-164342D2*
X-161417D1*
X-150592D2*
X-148622D1*
X-212553Y-75789D2*
X-210024D1*
X-200787D2*
X-199803D1*
X-193883D2*
X-190945D1*
X-180119D2*
X-178150D1*
X-164356D2*
X-161417D1*
X-150591D2*
X-148622D1*
X-212911Y-76773D2*
X-210356D1*
X-193855D2*
X-190945D1*
X-180118D2*
X-178150D1*
X-164328D2*
X-161417D1*
X-150591D2*
X-148622D1*
X-213217Y-77757D2*
X-210517D1*
X-193732D2*
X-190945D1*
X-180118D2*
X-178150D1*
X-164205D2*
X-161417D1*
X-150591D2*
X-148622D1*
X-213406Y-78741D2*
X-210586D1*
X-193498D2*
X-190945D1*
X-180122D2*
X-178150D1*
X-163970D2*
X-161417D1*
X-150594D2*
X-148622D1*
X-213470Y-79726D2*
X-210614D1*
X-193246D2*
X-190945D1*
X-180157D2*
X-178150D1*
X-163718D2*
X-161417D1*
X-150629D2*
X-148622D1*
X-213390Y-80710D2*
X-210620D1*
X-193074D2*
X-190941D1*
X-180282D2*
X-178153D1*
X-163546D2*
X-161413D1*
X-150754D2*
X-148626D1*
X-213172Y-81694D2*
X-210590D1*
X-192979D2*
X-190906D1*
X-180522D2*
X-178188D1*
X-163451D2*
X-161379D1*
X-150994D2*
X-148660D1*
X-212923Y-82678D2*
X-210462D1*
X-199803D2*
X-197835D1*
X-192903D2*
X-190777D1*
X-180809D2*
X-178317D1*
X-163375D2*
X-161250D1*
X-151281D2*
X-148790D1*
X-212715Y-83663D2*
X-210188D1*
X-200181D2*
X-197872D1*
X-192756D2*
X-190503D1*
X-181109D2*
X-178588D1*
X-163228D2*
X-160975D1*
X-151582D2*
X-149060D1*
X-212465Y-84647D2*
X-209756D1*
X-200654D2*
X-198002D1*
X-192479D2*
X-190071D1*
X-181490D2*
X-178969D1*
X-162951D2*
X-160544D1*
X-151963D2*
X-149442D1*
X-212059Y-85631D2*
X-209201D1*
X-201228D2*
X-198276D1*
X-192095D2*
X-189516D1*
X-181958D2*
X-179415D1*
X-162567D2*
X-159989D1*
X-152430D2*
X-149888D1*
X-211511Y-86615D2*
X-207726D1*
X-202706D2*
X-198697D1*
X-191644D2*
X-188041D1*
X-182986D2*
X-179926D1*
X-162117D2*
X-158513D1*
X-153458D2*
X-150399D1*
X-210879Y-87600D2*
X-205489D1*
X-204943D2*
X-199305D1*
X-191099D2*
X-185804D1*
X-185294D2*
X-180577D1*
X-172244D2*
X-170276D1*
X-161572D2*
X-156277D1*
X-155767D2*
X-151049D1*
X-210065Y-88584D2*
X-200200D1*
X-190337D2*
X-181489D1*
X-172244D2*
X-170276D1*
X-160809D2*
X-151961D1*
X-208958Y-89568D2*
X-201396D1*
X-189257D2*
X-182692D1*
X-172244D2*
X-170276D1*
X-159729D2*
X-153164D1*
X-207677Y-90552D2*
X-202756D1*
X-187992D2*
X-184055D1*
X-172244D2*
X-170276D1*
X-158465D2*
X-154528D1*
X-16008Y-155768D2*
X-260D1*
X9583D2*
X14504D1*
X39110D2*
X44031D1*
X-15852Y-156752D2*
X-260D1*
X8300D2*
X15451D1*
X37828D2*
X44978D1*
X-15569Y-157736D2*
X-260D1*
X7312D2*
X16305D1*
X36839D2*
X45833D1*
X-15155Y-158720D2*
X-12227D1*
X6569D2*
X9620D1*
X14348D2*
X17015D1*
X36096D2*
X39148D1*
X43876D2*
X46542D1*
X-14617Y-159705D2*
X-11521D1*
X5967D2*
X8766D1*
X15050D2*
X17587D1*
X35495D2*
X38293D1*
X44577D2*
X47114D1*
X-14003Y-160689D2*
X-10921D1*
X5465D2*
X8056D1*
X15619D2*
X18034D1*
X34993D2*
X37584D1*
X45147D2*
X47562D1*
X-13408Y-161673D2*
X-10380D1*
X5084D2*
X7488D1*
X16066D2*
X18401D1*
X34612D2*
X37016D1*
X45594D2*
X47928D1*
X-12857Y-162657D2*
X-9868D1*
X4857D2*
X7075D1*
X16432D2*
X18755D1*
X34385D2*
X36603D1*
X45960D2*
X48283D1*
X-12336Y-163642D2*
X-9368D1*
X4740D2*
X6834D1*
X16787D2*
X19060D1*
X34267D2*
X36362D1*
X46314D2*
X48587D1*
X-11833Y-164626D2*
X-8874D1*
X4655D2*
X6715D1*
X17091D2*
X19252D1*
X34183D2*
X36243D1*
X46619D2*
X48780D1*
X-11339Y-165610D2*
X-8384D1*
X4509D2*
X6663D1*
X17284D2*
X19352D1*
X34037D2*
X36191D1*
X46811D2*
X48879D1*
X-10876Y-166594D2*
X-7923D1*
X4266D2*
X6642D1*
X17383D2*
X19396D1*
X33794D2*
X36170D1*
X46911D2*
X48924D1*
X-10478Y-167579D2*
X-7525D1*
X4011D2*
X6634D1*
X17428D2*
X19414D1*
X33538D2*
X36162D1*
X46955D2*
X48942D1*
X-10127Y-168563D2*
X-7178D1*
X3838D2*
X6631D1*
X17446D2*
X19421D1*
X33366D2*
X36159D1*
X46973D2*
X48949D1*
X-9745Y-169547D2*
X-6827D1*
X3747D2*
X6630D1*
X17453D2*
X19424D1*
X33274D2*
X36158D1*
X46980D2*
X48951D1*
X-9318Y-170531D2*
X-6491D1*
X3705D2*
X6630D1*
X17455D2*
X19425D1*
X33232D2*
X36158D1*
X46983D2*
X48952D1*
X-8887Y-171516D2*
X-6174D1*
X3691D2*
X6630D1*
X17456D2*
X19425D1*
X33219D2*
X36158D1*
X46984D2*
X48953D1*
X-8501Y-172500D2*
X-5839D1*
X3719D2*
X6630D1*
X17457D2*
X19425D1*
X33247D2*
X36157D1*
X46984D2*
X48953D1*
X-8160Y-173484D2*
X-5539D1*
X3842D2*
X6630D1*
X17457D2*
X19425D1*
X33370D2*
X36157D1*
X46984D2*
X48953D1*
X-7814Y-174469D2*
X-5314D1*
X4077D2*
X6630D1*
X17453D2*
X19425D1*
X33605D2*
X36157D1*
X46980D2*
X48953D1*
X-7513Y-175453D2*
X-5090D1*
X4329D2*
X6630D1*
X17418D2*
X19425D1*
X33857D2*
X36157D1*
X46946D2*
X48953D1*
X-7318Y-176437D2*
X-4810D1*
X4501D2*
X6634D1*
X17293D2*
X19421D1*
X34028D2*
X36161D1*
X46820D2*
X48949D1*
X-7185Y-177421D2*
X-4540D1*
X4596D2*
X6668D1*
X17053D2*
X19387D1*
X34123D2*
X36196D1*
X46581D2*
X48914D1*
X-7015Y-178406D2*
X-4361D1*
X4672D2*
X6798D1*
X16766D2*
X19257D1*
X34200D2*
X36325D1*
X46294D2*
X48785D1*
X-6761Y-179390D2*
X-4264D1*
X4819D2*
X7072D1*
X16465D2*
X18987D1*
X34346D2*
X36599D1*
X45993D2*
X48515D1*
X-6501Y-180374D2*
X-4186D1*
X5096D2*
X7503D1*
X16085D2*
X18606D1*
X34623D2*
X37031D1*
X45612D2*
X48133D1*
X-6327Y-181358D2*
X-4043D1*
X5480D2*
X8059D1*
X15617D2*
X18160D1*
X35007D2*
X37586D1*
X45144D2*
X47687D1*
X-6235Y-182343D2*
X-3801D1*
X5930D2*
X9534D1*
X14589D2*
X17648D1*
X35458D2*
X39062D1*
X44117D2*
X47176D1*
X-6193Y-183327D2*
X-3546D1*
X6475D2*
X11770D1*
X12281D2*
X16998D1*
X25331D2*
X27299D1*
X36003D2*
X41298D1*
X41808D2*
X46525D1*
X-6176Y-184311D2*
X-3373D1*
X7238D2*
X16086D1*
X25331D2*
X27299D1*
X36766D2*
X45614D1*
X-6169Y-185295D2*
X-3276D1*
X8318D2*
X14883D1*
X25331D2*
X27299D1*
X37846D2*
X44411D1*
X-6165Y-186280D2*
X-3213D1*
X9583D2*
X13520D1*
X25331D2*
X27299D1*
X39110D2*
X43047D1*
X-209646Y-150592D2*
X-207677D1*
X-187992D2*
X-183071D1*
X-158465D2*
X-153543D1*
X-209646Y-151576D2*
X-207067D1*
X-189275D2*
X-182124D1*
X-159747D2*
X-152597D1*
X-209646Y-152560D2*
X-206506D1*
X-190263D2*
X-181270D1*
X-160736D2*
X-151742D1*
X-209646Y-153545D2*
X-205978D1*
X-191006D2*
X-187955D1*
X-183227D2*
X-180560D1*
X-161479D2*
X-158427D1*
X-153699D2*
X-151032D1*
X-209646Y-154529D2*
X-205468D1*
X-191607D2*
X-188809D1*
X-182525D2*
X-179988D1*
X-162080D2*
X-159281D1*
X-152997D2*
X-150461D1*
X-209646Y-155513D2*
X-204939D1*
X-192110D2*
X-189519D1*
X-181956D2*
X-179541D1*
X-162582D2*
X-159991D1*
X-152428D2*
X-150013D1*
X-209646Y-156497D2*
X-204351D1*
X-192491D2*
X-190087D1*
X-181509D2*
X-179174D1*
X-162963D2*
X-160559D1*
X-151981D2*
X-149647D1*
X-209646Y-157482D2*
X-203716D1*
X-192718D2*
X-190500D1*
X-181143D2*
X-178820D1*
X-163190D2*
X-160972D1*
X-151615D2*
X-149292D1*
X-209646Y-158466D2*
X-207677D1*
X-205865D2*
X-203113D1*
X-192835D2*
X-190741D1*
X-180788D2*
X-178515D1*
X-163307D2*
X-161213D1*
X-151260D2*
X-148988D1*
X-209646Y-159450D2*
X-207677D1*
X-205159D2*
X-202560D1*
X-192920D2*
X-190860D1*
X-180484D2*
X-178322D1*
X-163392D2*
X-161332D1*
X-150956D2*
X-148795D1*
X-209646Y-160434D2*
X-207677D1*
X-204559D2*
X-202037D1*
X-193065D2*
X-190912D1*
X-180291D2*
X-178223D1*
X-163538D2*
X-161384D1*
X-150763D2*
X-148696D1*
X-209646Y-161419D2*
X-207677D1*
X-204017D2*
X-201534D1*
X-193309D2*
X-190933D1*
X-180192D2*
X-178179D1*
X-163781D2*
X-161405D1*
X-150664D2*
X-148651D1*
X-209646Y-162403D2*
X-207677D1*
X-203506D2*
X-201036D1*
X-193564D2*
X-190941D1*
X-180147D2*
X-178160D1*
X-164036D2*
X-161413D1*
X-150620D2*
X-148633D1*
X-209646Y-163387D2*
X-207677D1*
X-203006D2*
X-200543D1*
X-193737D2*
X-190943D1*
X-180129D2*
X-178153D1*
X-164209D2*
X-161416D1*
X-150601D2*
X-148626D1*
X-209646Y-164371D2*
X-207677D1*
X-202508D2*
X-200049D1*
X-193828D2*
X-190944D1*
X-180122D2*
X-178151D1*
X-164301D2*
X-161417D1*
X-150594D2*
X-148623D1*
X-209646Y-165356D2*
X-207677D1*
X-201983D2*
X-199554D1*
X-193870D2*
X-190945D1*
X-180119D2*
X-178150D1*
X-164342D2*
X-161417D1*
X-150592D2*
X-148622D1*
X-209646Y-166340D2*
X-207677D1*
X-201397D2*
X-199030D1*
X-193883D2*
X-190945D1*
X-180119D2*
X-178150D1*
X-164356D2*
X-161417D1*
X-150591D2*
X-148622D1*
X-209646Y-167324D2*
X-207677D1*
X-200760D2*
X-198448D1*
X-193855D2*
X-190945D1*
X-180118D2*
X-178150D1*
X-164328D2*
X-161417D1*
X-150591D2*
X-148622D1*
X-209646Y-168308D2*
X-207677D1*
X-200131D2*
X-197848D1*
X-193732D2*
X-190945D1*
X-180118D2*
X-178150D1*
X-164205D2*
X-161417D1*
X-150591D2*
X-148622D1*
X-209646Y-169293D2*
X-207677D1*
X-199491D2*
X-197375D1*
X-193498D2*
X-190945D1*
X-180122D2*
X-178150D1*
X-163970D2*
X-161417D1*
X-150594D2*
X-148622D1*
X-209646Y-170277D2*
X-207677D1*
X-198819D2*
X-197092D1*
X-193246D2*
X-190945D1*
X-180157D2*
X-178150D1*
X-163718D2*
X-161417D1*
X-150629D2*
X-148622D1*
X-213583Y-171261D2*
X-196952D1*
X-193074D2*
X-190941D1*
X-180282D2*
X-178153D1*
X-163546D2*
X-161413D1*
X-150754D2*
X-148626D1*
X-213583Y-172245D2*
X-196890D1*
X-192979D2*
X-190906D1*
X-180522D2*
X-178188D1*
X-163451D2*
X-161379D1*
X-150994D2*
X-148660D1*
X-213583Y-173230D2*
X-196864D1*
X-192903D2*
X-190777D1*
X-180809D2*
X-178317D1*
X-163375D2*
X-161250D1*
X-151281D2*
X-148790D1*
X-209646Y-174214D2*
X-207677D1*
X-192756D2*
X-190503D1*
X-181109D2*
X-178588D1*
X-163228D2*
X-160975D1*
X-151582D2*
X-149060D1*
X-209646Y-175198D2*
X-207677D1*
X-192479D2*
X-190071D1*
X-181490D2*
X-178969D1*
X-162951D2*
X-160544D1*
X-151963D2*
X-149442D1*
X-209646Y-176182D2*
X-207677D1*
X-192095D2*
X-189516D1*
X-181958D2*
X-179415D1*
X-162567D2*
X-159989D1*
X-152430D2*
X-149888D1*
X-209646Y-177167D2*
X-207677D1*
X-191644D2*
X-188041D1*
X-182986D2*
X-179926D1*
X-162117D2*
X-158513D1*
X-153458D2*
X-150399D1*
X-209646Y-178151D2*
X-207677D1*
X-191099D2*
X-185804D1*
X-185294D2*
X-180577D1*
X-172244D2*
X-170276D1*
X-161572D2*
X-156277D1*
X-155767D2*
X-151049D1*
X-209646Y-179135D2*
X-207677D1*
X-190337D2*
X-181489D1*
X-172244D2*
X-170276D1*
X-160809D2*
X-151961D1*
X-209646Y-180119D2*
X-207677D1*
X-189257D2*
X-182692D1*
X-172244D2*
X-170276D1*
X-159729D2*
X-153164D1*
X-209646Y-181104D2*
X-207677D1*
X-187992D2*
X-184055D1*
X-172244D2*
X-170276D1*
X-158465D2*
X-154528D1*
X-15236Y-1048930D2*
X-9331D1*
X5433D2*
X10354D1*
X25118D2*
X30039D1*
X43819D2*
X49724D1*
X64488D2*
X79252D1*
X91063D2*
X96969D1*
X-16217Y-1049915D2*
X-7930D1*
X4268D2*
X11637D1*
X23835D2*
X30986D1*
X42838D2*
X51126D1*
X63206D2*
X79252D1*
X89628D2*
X98740D1*
X-17162Y-1050899D2*
X-6793D1*
X3274D2*
X12625D1*
X22847D2*
X31840D1*
X41893D2*
X52262D1*
X62217D2*
X79252D1*
X88396D2*
X100265D1*
X-17987Y-1051883D2*
X-13903D1*
X-9335D2*
X-5940D1*
X2521D2*
X5474D1*
X10313D2*
X13368D1*
X22104D2*
X25156D1*
X29883D2*
X32550D1*
X41068D2*
X45153D1*
X49721D2*
X53115D1*
X61474D2*
X65822D1*
X77283D2*
X79252D1*
X87398D2*
X91409D1*
X96771D2*
X101450D1*
X-18606Y-1052867D2*
X-15180D1*
X-8389D2*
X-5308D1*
X2013D2*
X4655D1*
X11133D2*
X13970D1*
X21503D2*
X24301D1*
X30585D2*
X33122D1*
X40449D2*
X43875D1*
X50666D2*
X53747D1*
X60873D2*
X64544D1*
X77283D2*
X79252D1*
X86621D2*
X90097D1*
X98296D2*
X102323D1*
X-19064Y-1053852D2*
X-16075D1*
X-7568D2*
X-4870D1*
X1729D2*
X4070D1*
X11721D2*
X14482D1*
X21001D2*
X23591D1*
X31155D2*
X33570D1*
X39992D2*
X42980D1*
X51487D2*
X54186D1*
X60371D2*
X63649D1*
X77283D2*
X79252D1*
X85989D2*
X89076D1*
X99481D2*
X102995D1*
X-19460Y-1054836D2*
X-16746D1*
X-6980D2*
X-4618D1*
X1592D2*
X3738D1*
X12076D2*
X14909D1*
X20620D2*
X23023D1*
X31601D2*
X33936D1*
X39595D2*
X42309D1*
X52075D2*
X54437D1*
X59990D2*
X62978D1*
X77283D2*
X79252D1*
X85412D2*
X88268D1*
X100355D2*
X103561D1*
X-19778Y-1055820D2*
X-16982D1*
X-6625D2*
X-4490D1*
X1533D2*
X3581D1*
X12323D2*
X15276D1*
X20392D2*
X22611D1*
X31968D2*
X34291D1*
X39277D2*
X42073D1*
X52430D2*
X54565D1*
X59766D2*
X62743D1*
X77283D2*
X79252D1*
X84813D2*
X87702D1*
X101027D2*
X104048D1*
X-19942Y-1056804D2*
X-17106D1*
X-6378D2*
X-4409D1*
X1513D2*
X3554D1*
X20275D2*
X22370D1*
X32322D2*
X34595D1*
X39113D2*
X41949D1*
X52677D2*
X54646D1*
X59688D2*
X62619D1*
X77283D2*
X79252D1*
X84173D2*
X87363D1*
X101593D2*
X104427D1*
X-19919Y-1057789D2*
X-17129D1*
X1543D2*
X3623D1*
X20191D2*
X22251D1*
X32627D2*
X34788D1*
X39136D2*
X41926D1*
X59763D2*
X62599D1*
X77283D2*
X79252D1*
X86142D2*
X87126D1*
X102080D2*
X104687D1*
X-19725Y-1058773D2*
X-17023D1*
X1700D2*
X4131D1*
X20045D2*
X22199D1*
X32819D2*
X34887D1*
X39331D2*
X42032D1*
X59982D2*
X62740D1*
X77283D2*
X79252D1*
X102455D2*
X104925D1*
X-19456Y-1059757D2*
X-16762D1*
X2056D2*
X5364D1*
X19801D2*
X22178D1*
X32918D2*
X34932D1*
X39599D2*
X42293D1*
X60265D2*
X63035D1*
X77283D2*
X79252D1*
X102680D2*
X105210D1*
X-19162Y-1060741D2*
X-16383D1*
X2506D2*
X6781D1*
X19546D2*
X22170D1*
X32963D2*
X34950D1*
X39893D2*
X42672D1*
X60598D2*
X63880D1*
X77283D2*
X79252D1*
X102792D2*
X105483D1*
X-18799Y-1061726D2*
X-15939D1*
X2893D2*
X7990D1*
X19374D2*
X22167D1*
X32981D2*
X34957D1*
X40256D2*
X43116D1*
X61096D2*
X66641D1*
X77283D2*
X79252D1*
X102842D2*
X105662D1*
X-18346Y-1062710D2*
X-15432D1*
X2771D2*
X8788D1*
X19282D2*
X22166D1*
X32988D2*
X34959D1*
X40709D2*
X43624D1*
X61864D2*
X71320D1*
X77283D2*
X79252D1*
X102862D2*
X105756D1*
X-17792Y-1063694D2*
X-14819D1*
X2187D2*
X9370D1*
X19240D2*
X22166D1*
X32991D2*
X34960D1*
X41263D2*
X44237D1*
X63009D2*
X79252D1*
X102870D2*
X105799D1*
X-17168Y-1064678D2*
X-14058D1*
X1556D2*
X6842D1*
X19227D2*
X22165D1*
X32992D2*
X34960D1*
X41887D2*
X44997D1*
X64601D2*
X79252D1*
X102873D2*
X105812D1*
X-16536Y-1065663D2*
X-13186D1*
X1024D2*
X5000D1*
X19255D2*
X22165D1*
X32992D2*
X34961D1*
X42519D2*
X45869D1*
X66457D2*
X79252D1*
X102874D2*
X105785D1*
X-15855Y-1066647D2*
X-12252D1*
X601D2*
X3642D1*
X19378D2*
X22165D1*
X32992D2*
X34961D1*
X43200D2*
X46804D1*
X65510D2*
X69413D1*
X77283D2*
X79252D1*
X102870D2*
X105662D1*
X-15064Y-1067631D2*
X-11287D1*
X218D2*
X3075D1*
X19613D2*
X22165D1*
X32988D2*
X34961D1*
X43992D2*
X47768D1*
X64656D2*
X68464D1*
X77283D2*
X79252D1*
X102836D2*
X105427D1*
X-14178Y-1068615D2*
X-10311D1*
X-95D2*
X2747D1*
X19865D2*
X22165D1*
X32954D2*
X34961D1*
X44877D2*
X48744D1*
X63942D2*
X67609D1*
X77283D2*
X79252D1*
X85157D2*
X86142D1*
X102706D2*
X105171D1*
X-13239Y-1069600D2*
X-9333D1*
X-258D2*
X2589D1*
X20036D2*
X22169D1*
X32828D2*
X34957D1*
X45816D2*
X49722D1*
X63339D2*
X66895D1*
X77283D2*
X79252D1*
X84741D2*
X86482D1*
X102436D2*
X104965D1*
X-12273Y-1070584D2*
X-8384D1*
X-234D2*
X2526D1*
X20131D2*
X22204D1*
X32589D2*
X34922D1*
X46782D2*
X50671D1*
X62797D2*
X66288D1*
X77283D2*
X79252D1*
X84486D2*
X86813D1*
X102054D2*
X104744D1*
X-11299Y-1071568D2*
X-7526D1*
X-40D2*
X2538D1*
X13307D2*
X15276D1*
X20208D2*
X22333D1*
X32302D2*
X34793D1*
X47756D2*
X51529D1*
X62282D2*
X65715D1*
X77283D2*
X79252D1*
X84690D2*
X87164D1*
X101608D2*
X104432D1*
X-10352Y-1072552D2*
X-6781D1*
X229D2*
X2692D1*
X12929D2*
X15238D1*
X20354D2*
X22607D1*
X32001D2*
X34523D1*
X48703D2*
X52274D1*
X61751D2*
X65109D1*
X77283D2*
X79252D1*
X85027D2*
X87660D1*
X101097D2*
X104033D1*
X-9494Y-1073537D2*
X-6088D1*
X523D2*
X2994D1*
X12456D2*
X15108D1*
X20631D2*
X23039D1*
X31620D2*
X34141D1*
X49561D2*
X52967D1*
X61162D2*
X64468D1*
X77283D2*
X79252D1*
X85452D2*
X88375D1*
X100426D2*
X103581D1*
X-8746Y-1074521D2*
X-5435D1*
X886D2*
X3877D1*
X11882D2*
X14834D1*
X21015D2*
X23594D1*
X31152D2*
X33695D1*
X50309D2*
X53620D1*
X60527D2*
X63862D1*
X77283D2*
X79252D1*
X85951D2*
X89403D1*
X99559D2*
X103071D1*
X-8017Y-1075505D2*
X-4907D1*
X1347D2*
X5329D1*
X10404D2*
X14414D1*
X21466D2*
X25069D1*
X30124D2*
X33184D1*
X51038D2*
X54148D1*
X59924D2*
X63308D1*
X77283D2*
X79252D1*
X86565D2*
X91086D1*
X97347D2*
X102453D1*
X-7219Y-1076490D2*
X-4491D1*
X1972D2*
X7592D1*
X8167D2*
X13805D1*
X22011D2*
X27306D1*
X27816D2*
X32533D1*
X51836D2*
X54564D1*
X59368D2*
X62789D1*
X77283D2*
X79252D1*
X87362D2*
X93726D1*
X94057D2*
X101655D1*
X-20157Y-1077474D2*
X-4103D1*
X2873D2*
X12910D1*
X22773D2*
X31621D1*
X38898D2*
X54952D1*
X58820D2*
X62310D1*
X77283D2*
X79252D1*
X88385D2*
X100631D1*
X-20157Y-1078458D2*
X-3745D1*
X4072D2*
X11714D1*
X23854D2*
X30419D1*
X38898D2*
X55310D1*
X58233D2*
X61895D1*
X77283D2*
X79252D1*
X89654D2*
X99362D1*
X-20157Y-1079442D2*
X-3425D1*
X5433D2*
X10354D1*
X25118D2*
X29055D1*
X38898D2*
X55630D1*
X57598D2*
X61535D1*
X77283D2*
X79252D1*
X91063D2*
X97953D1*
X-2744Y-1670480D2*
X2177D1*
X13004D2*
X14972D1*
X29736D2*
X31705D1*
X-4027Y-1671465D2*
X3158D1*
X13004D2*
X14972D1*
X29736D2*
X31705D1*
X-5011Y-1672449D2*
X4103D1*
X13004D2*
X14972D1*
X29736D2*
X31705D1*
X-5724Y-1673433D2*
X-2703D1*
X2021D2*
X4924D1*
X13004D2*
X14972D1*
X29736D2*
X31705D1*
X-6234Y-1674417D2*
X-3522D1*
X2723D2*
X5508D1*
X13004D2*
X14972D1*
X29736D2*
X31705D1*
X-6626Y-1675402D2*
X-4107D1*
X3289D2*
X5841D1*
X13004D2*
X14972D1*
X29736D2*
X31705D1*
X-6986Y-1676386D2*
X-4439D1*
X3697D2*
X6001D1*
X13004D2*
X14972D1*
X29736D2*
X31705D1*
X-7260Y-1677370D2*
X-4596D1*
X3903D2*
X6071D1*
X13004D2*
X14972D1*
X29736D2*
X31705D1*
X-7409Y-1678354D2*
X-4627D1*
X3893D2*
X6094D1*
X13004D2*
X14972D1*
X29736D2*
X31705D1*
X-7171Y-1679339D2*
X-4569D1*
X3655D2*
X6066D1*
X13004D2*
X14972D1*
X29736D2*
X31705D1*
X-6783Y-1680323D2*
X-4135D1*
X3266D2*
X5906D1*
X13004D2*
X14972D1*
X29736D2*
X31705D1*
X-6226Y-1681307D2*
X-2730D1*
X2254D2*
X5508D1*
X13004D2*
X14972D1*
X29736D2*
X31705D1*
X-5490Y-1682291D2*
X-532D1*
X-49D2*
X4857D1*
X13004D2*
X14972D1*
X29736D2*
X31705D1*
X-4633Y-1683276D2*
X4041D1*
X13004D2*
X14972D1*
X29736D2*
X31705D1*
X-3728Y-1684260D2*
X3161D1*
X13004D2*
X14972D1*
X29736D2*
X31705D1*
X-5126Y-1685244D2*
X4444D1*
X13004D2*
X14972D1*
X29736D2*
X31705D1*
X-6232Y-1686228D2*
X-2740D1*
X2140D2*
X5429D1*
X13004D2*
X14972D1*
X29736D2*
X31705D1*
X-6994Y-1687213D2*
X-3686D1*
X2994D2*
X6137D1*
X13004D2*
X14972D1*
X29736D2*
X31705D1*
X-7515Y-1688197D2*
X-4506D1*
X3704D2*
X6613D1*
X13004D2*
X14972D1*
X29732D2*
X31705D1*
X-7937Y-1689181D2*
X-5091D1*
X4272D2*
X6879D1*
X13004D2*
X14976D1*
X29698D2*
X31705D1*
X-8268Y-1690165D2*
X-5423D1*
X4685D2*
X7008D1*
X13004D2*
X15011D1*
X29572D2*
X31701D1*
X-8467Y-1691150D2*
X-5584D1*
X4922D2*
X7063D1*
X13008D2*
X15136D1*
X29337D2*
X31666D1*
X-8536Y-1692134D2*
X-5649D1*
X5006D2*
X7086D1*
X13042D2*
X15376D1*
X29080D2*
X31541D1*
X-8456Y-1693118D2*
X-5642D1*
X4929D2*
X7090D1*
X13168D2*
X15663D1*
X28870D2*
X31301D1*
X-8235Y-1694102D2*
X-5520D1*
X4676D2*
X7058D1*
X13407D2*
X15968D1*
X28615D2*
X31014D1*
X-7951Y-1695087D2*
X-5195D1*
X4252D2*
X6930D1*
X13698D2*
X16395D1*
X28256D2*
X30713D1*
X-7618Y-1696071D2*
X-4689D1*
X3701D2*
X6656D1*
X14034D2*
X16978D1*
X27475D2*
X30348D1*
X-7125Y-1697055D2*
X-2950D1*
X2226D2*
X6236D1*
X14528D2*
X19070D1*
X25569D2*
X29886D1*
X-6394Y-1698039D2*
X-207D1*
X-11D2*
X5628D1*
X15260D2*
X22500D1*
X22594D2*
X29260D1*
X-5401Y-1699024D2*
X4733D1*
X16252D2*
X28359D1*
X-4145Y-1700008D2*
X3537D1*
X17508D2*
X27161D1*
X-2744Y-1700992D2*
X2177D1*
X18909D2*
X25799D1*
X-113409Y-323812D2*
D13*
X-104223D1*
X-63541D2*
X-54354D1*
X-8423D2*
X764D1*
X21761D2*
X30948D1*
X69005D2*
X72942D1*
X-113409Y-325125D2*
X-104223D1*
X-63541D2*
X-54354D1*
X-8423D2*
X764D1*
X21761D2*
X30948D1*
X69005D2*
X75013D1*
X-113409Y-326437D2*
X-104223D1*
X-63541D2*
X-54354D1*
X-8423D2*
X764D1*
X21761D2*
X30948D1*
X69005D2*
X76860D1*
X-113409Y-327749D2*
X-104223D1*
X-63541D2*
X-54354D1*
X-8423D2*
X764D1*
X21761D2*
X30948D1*
X69005D2*
X78383D1*
X-113409Y-329062D2*
X-104223D1*
X-63541D2*
X-54354D1*
X-8423D2*
X764D1*
X21761D2*
X30948D1*
X69016D2*
X79622D1*
X-113409Y-330374D2*
X-104223D1*
X-63541D2*
X-54354D1*
X-8423D2*
X764D1*
X21761D2*
X30948D1*
X69113D2*
X80643D1*
X-113409Y-331686D2*
X-104223D1*
X-63541D2*
X-54354D1*
X-8423D2*
X764D1*
X21761D2*
X30948D1*
X69344D2*
X81369D1*
X-113409Y-332999D2*
X-104223D1*
X-63541D2*
X-54354D1*
X-8423D2*
X764D1*
X21761D2*
X30948D1*
X70252D2*
X81785D1*
X-256454Y-334311D2*
X-249892D1*
X-239394D2*
X-232832D1*
X-210522D2*
X-201336D1*
X-176402D2*
X-168528D1*
X-122596D2*
X-116034D1*
X-113409D2*
X-104223D1*
X-88475D2*
X-79289D1*
X-63541D2*
X-54354D1*
X-37294D2*
X-28108D1*
X-13672D2*
X764D1*
X6013D2*
X16512D1*
X21761D2*
X30948D1*
X45383D2*
X54570D1*
X71267D2*
X81986D1*
X96564D2*
X105751D1*
X143808D2*
X152995D1*
X158244D2*
X167430D1*
X171367D2*
X180554D1*
X188428D2*
X197614D1*
X202864D2*
X212050D1*
X215987D2*
X225173D1*
X233047D2*
X242234D1*
X247483D2*
X256669D1*
X260606D2*
X269793D1*
X-258322Y-335623D2*
X-245422D1*
X-243864D2*
X-230919D1*
X-212440D2*
X-198974D1*
X-178925D2*
X-166166D1*
X-124913D2*
X-116034D1*
X-113409D2*
X-104223D1*
X-90792D2*
X-76927D1*
X-63541D2*
X-54354D1*
X-39611D2*
X-25746D1*
X-13672D2*
X764D1*
X6827D2*
X17010D1*
X21761D2*
X30948D1*
X43465D2*
X56931D1*
X72069D2*
X82074D1*
X94646D2*
X108112D1*
X143808D2*
X152995D1*
X158244D2*
X167430D1*
X171367D2*
X180554D1*
X188428D2*
X197614D1*
X202864D2*
X212050D1*
X215987D2*
X225173D1*
X233047D2*
X242234D1*
X247483D2*
X256669D1*
X260606D2*
X269793D1*
X-259838Y-336936D2*
X-229281D1*
X-214125D2*
X-196941D1*
X-180987D2*
X-164132D1*
X-126824D2*
X-116034D1*
X-113409D2*
X-104223D1*
X-92698D2*
X-74893D1*
X-63541D2*
X-54354D1*
X-41517D2*
X-23712D1*
X-13672D2*
X764D1*
X7575D2*
X17574D1*
X21756D2*
X30948D1*
X41781D2*
X58965D1*
X72543D2*
X82108D1*
X92962D2*
X110146D1*
X143808D2*
X152995D1*
X158244D2*
X167430D1*
X171367D2*
X180554D1*
X188428D2*
X197614D1*
X202864D2*
X212050D1*
X215987D2*
X225173D1*
X233047D2*
X242234D1*
X247483D2*
X256669D1*
X260606D2*
X269793D1*
X-260975Y-338248D2*
X-227996D1*
X-215581D2*
X-195361D1*
X-182629D2*
X-162553D1*
X-128256D2*
X-116034D1*
X-113409D2*
X-104223D1*
X-94089D2*
X-73314D1*
X-63541D2*
X-54354D1*
X-42908D2*
X-22133D1*
X-13672D2*
X764D1*
X8278D2*
X18188D1*
X21706D2*
X30948D1*
X40329D2*
X60544D1*
X72776D2*
X82122D1*
X91510D2*
X111725D1*
X143808D2*
X152995D1*
X158244D2*
X167430D1*
X171367D2*
X180554D1*
X188428D2*
X197614D1*
X202864D2*
X212050D1*
X215987D2*
X225173D1*
X233047D2*
X242234D1*
X247483D2*
X256669D1*
X260606D2*
X269793D1*
X-261817Y-339560D2*
X-226988D1*
X-216806D2*
X-194201D1*
X-183882D2*
X-161393D1*
X-129394D2*
X-116055D1*
X-113409D2*
X-104223D1*
X-95106D2*
X-72154D1*
X-63541D2*
X-54354D1*
X-43925D2*
X-20973D1*
X-13672D2*
X764D1*
X8957D2*
X18859D1*
X21503D2*
X30948D1*
X39146D2*
X61704D1*
X72882D2*
X82126D1*
X90327D2*
X112885D1*
X143808D2*
X152995D1*
X158244D2*
X167430D1*
X171367D2*
X180554D1*
X188428D2*
X197614D1*
X202864D2*
X212050D1*
X215987D2*
X225173D1*
X233047D2*
X242234D1*
X247483D2*
X256669D1*
X260606D2*
X269793D1*
X-262402Y-340873D2*
X-226619D1*
X-217787D2*
X-193347D1*
X-184840D2*
X-160543D1*
X-130351D2*
X-116116D1*
X-113409D2*
X-104223D1*
X-95916D2*
X-71304D1*
X-63541D2*
X-54354D1*
X-44735D2*
X-20123D1*
X-13672D2*
X764D1*
X9656D2*
X19617D1*
X21055D2*
X30948D1*
X38286D2*
X62559D1*
X69005D2*
X82128D1*
X89467D2*
X113740D1*
X143808D2*
X152995D1*
X158244D2*
X167430D1*
X171367D2*
X180554D1*
X188428D2*
X197614D1*
X202864D2*
X212050D1*
X215987D2*
X225173D1*
X233047D2*
X242234D1*
X247483D2*
X256669D1*
X260606D2*
X269793D1*
X-262736Y-342185D2*
X-226419D1*
X-218557D2*
X-192713D1*
X-185242D2*
X-159956D1*
X-131046D2*
X-116690D1*
X-113409D2*
X-104223D1*
X-96588D2*
X-70712D1*
X-63541D2*
X-54354D1*
X-45407D2*
X-19531D1*
X-13672D2*
X764D1*
X10425D2*
X30948D1*
X37662D2*
X46696D1*
X52999D2*
X63192D1*
X69005D2*
X82128D1*
X88844D2*
X97877D1*
X104180D2*
X114374D1*
X143808D2*
X152995D1*
X158244D2*
X167430D1*
X171367D2*
X180554D1*
X188428D2*
X197614D1*
X202864D2*
X212050D1*
X215987D2*
X225173D1*
X233047D2*
X242234D1*
X247483D2*
X256669D1*
X260606D2*
X269793D1*
X-262900Y-343497D2*
X-226329D1*
X-219113D2*
X-192211D1*
X-184204D2*
X-159621D1*
X-131447D2*
X-118317D1*
X-113415D2*
X-104223D1*
X-97097D2*
X-70327D1*
X-63541D2*
X-54354D1*
X-45916D2*
X-19146D1*
X-13672D2*
X764D1*
X11262D2*
X30948D1*
X37129D2*
X45383D1*
X53767D2*
X63695D1*
X69005D2*
X82129D1*
X88310D2*
X96564D1*
X104948D2*
X114876D1*
X143808D2*
X152995D1*
X158244D2*
X167430D1*
X171367D2*
X180554D1*
X188428D2*
X197614D1*
X202864D2*
X212050D1*
X215987D2*
X225173D1*
X233047D2*
X242234D1*
X247483D2*
X256669D1*
X260606D2*
X269793D1*
X-262971Y-344810D2*
X-253829D1*
X-250150D2*
X-239394D1*
X-235457D2*
X-226292D1*
X-219436D2*
X-208947D1*
X-202911D2*
X-191738D1*
X-182963D2*
X-176402D1*
X-170103D2*
X-159457D1*
X-131643D2*
X-120022D1*
X-113461D2*
X-104223D1*
X-97400D2*
X-86905D1*
X-80864D2*
X-69960D1*
X-63541D2*
X-54354D1*
X-46219D2*
X-35724D1*
X-29683D2*
X-18779D1*
X-8423D2*
X764D1*
X10607D2*
X30948D1*
X36699D2*
X51945D1*
X54206D2*
X64167D1*
X69005D2*
X82129D1*
X87880D2*
X103126D1*
X105387D2*
X115348D1*
X143808D2*
X152995D1*
X158239D2*
X167430D1*
X171367D2*
X180554D1*
X188428D2*
X197614D1*
X202858D2*
X212050D1*
X215987D2*
X225173D1*
X233047D2*
X242234D1*
X247478D2*
X256669D1*
X260606D2*
X269793D1*
X-262999Y-346122D2*
X-253829D1*
X-249383D2*
X-239394D1*
X-235457D2*
X-226278D1*
X-219595D2*
X-209819D1*
X-202040D2*
X-191377D1*
X-169231D2*
X-159386D1*
X-131728D2*
X-121299D1*
X-113648D2*
X-104228D1*
X-97552D2*
X-87672D1*
X-79992D2*
X-69438D1*
X-63541D2*
X-54354D1*
X-46371D2*
X-36491D1*
X-28811D2*
X-18257D1*
X-8730D2*
X764D1*
X10056D2*
X19087D1*
X21761D2*
X30948D1*
X36431D2*
X51945D1*
X54414D2*
X64529D1*
X69005D2*
X82129D1*
X87613D2*
X103126D1*
X105595D2*
X115710D1*
X143808D2*
X153005D1*
X158177D2*
X167441D1*
X171357D2*
X180554D1*
X188428D2*
X197624D1*
X202797D2*
X212060D1*
X215977D2*
X225173D1*
X233047D2*
X242244D1*
X247416D2*
X256680D1*
X260596D2*
X269793D1*
X-263010Y-347434D2*
X-253829D1*
X-248943D2*
X-239394D1*
X-235457D2*
X-226273D1*
X-219659D2*
X-209986D1*
X-201872D2*
X-191179D1*
X-169064D2*
X-159358D1*
X-131762D2*
X-122233D1*
X-113996D2*
X-104274D1*
X-97619D2*
X-88112D1*
X-79804D2*
X-68790D1*
X-63541D2*
X-54354D1*
X-46437D2*
X-36931D1*
X-28623D2*
X-17609D1*
X-9265D2*
X759D1*
X9505D2*
X18913D1*
X21761D2*
X30948D1*
X36289D2*
X51945D1*
X54435D2*
X64726D1*
X69005D2*
X82129D1*
X87470D2*
X103126D1*
X105616D2*
X115908D1*
X143808D2*
X153105D1*
X158024D2*
X167541D1*
X171257D2*
X180554D1*
X188428D2*
X197724D1*
X202643D2*
X212160D1*
X215877D2*
X225173D1*
X233047D2*
X242344D1*
X247263D2*
X256780D1*
X260496D2*
X269793D1*
X-263014Y-348747D2*
X-253829D1*
X-248730D2*
X-239394D1*
X-235457D2*
X-226271D1*
X-219641D2*
X-209605D1*
X-202254D2*
X-191447D1*
X-186900D2*
X-177714D1*
X-169445D2*
X-159352D1*
X-147530D2*
X-142281D1*
X-131770D2*
X-121140D1*
X-115010D2*
X-104442D1*
X-97646D2*
X-88325D1*
X-80530D2*
X-69401D1*
X-63541D2*
X-54354D1*
X-46464D2*
X-37144D1*
X-29349D2*
X-18220D1*
X-10531D2*
X713D1*
X8912D2*
X18552D1*
X21761D2*
X30948D1*
X36197D2*
X51945D1*
X54297D2*
X64459D1*
X69005D2*
X82129D1*
X87378D2*
X103126D1*
X105478D2*
X115640D1*
X126748D2*
X131997D1*
X143808D2*
X153343D1*
X157212D2*
X167779D1*
X171019D2*
X180554D1*
X188428D2*
X197963D1*
X201832D2*
X212398D1*
X215638D2*
X225173D1*
X233047D2*
X242582D1*
X246451D2*
X257018D1*
X260258D2*
X269793D1*
X-263015Y-350059D2*
X-253829D1*
X-248638D2*
X-239394D1*
X-235457D2*
X-226271D1*
X-219479D2*
X-206337D1*
X-205521D2*
X-191790D1*
X-186447D2*
X-173941D1*
X-172713D2*
X-159400D1*
X-148945D2*
X-141226D1*
X-131723D2*
X-118206D1*
X-117281D2*
X-104761D1*
X-97656D2*
X-88417D1*
X-82268D2*
X-69824D1*
X-63541D2*
X-54354D1*
X-46475D2*
X-37236D1*
X-31087D2*
X-18643D1*
X-11781D2*
X540D1*
X8288D2*
X18049D1*
X21761D2*
X30948D1*
X53246D2*
X64116D1*
X69005D2*
X82129D1*
X104427D2*
X115297D1*
X125334D2*
X133052D1*
X143814D2*
X154366D1*
X155261D2*
X168802D1*
X169996D2*
X180554D1*
X188433D2*
X198985D1*
X199880D2*
X213421D1*
X214616D2*
X225173D1*
X233052D2*
X243605D1*
X244500D2*
X258041D1*
X259235D2*
X269793D1*
X-263016Y-351371D2*
X-253829D1*
X-248601D2*
X-239394D1*
X-235457D2*
X-226270D1*
X-219117D2*
X-192172D1*
X-186005D2*
X-159612D1*
X-150024D2*
X-140459D1*
X-131512D2*
X-105149D1*
X-97660D2*
X-88454D1*
X-83866D2*
X-70187D1*
X-63541D2*
X-54354D1*
X-46478D2*
X-37273D1*
X-32684D2*
X-19006D1*
X-12849D2*
X175D1*
X7650D2*
X17500D1*
X21761D2*
X30948D1*
X50850D2*
X63734D1*
X72942D2*
X82129D1*
X102031D2*
X114915D1*
X124254D2*
X133819D1*
X143860D2*
X180549D1*
X188479D2*
X225168D1*
X233099D2*
X269788D1*
X-263016Y-352684D2*
X-253829D1*
X-248587D2*
X-239394D1*
X-235457D2*
X-226270D1*
X-218564D2*
X-192651D1*
X-185537D2*
X-160098D1*
X-150740D2*
X-140019D1*
X-131020D2*
X-105596D1*
X-97661D2*
X-88468D1*
X-85093D2*
X-70637D1*
X-63541D2*
X-54354D1*
X-46480D2*
X-37287D1*
X-33912D2*
X-19456D1*
X-13271D2*
X-380D1*
X7041D2*
X16996D1*
X21761D2*
X30948D1*
X48344D2*
X63254D1*
X72942D2*
X82129D1*
X99525D2*
X114436D1*
X123538D2*
X134259D1*
X144032D2*
X180497D1*
X188651D2*
X225117D1*
X233271D2*
X269736D1*
X-263016Y-353996D2*
X-253829D1*
X-248583D2*
X-239394D1*
X-235457D2*
X-226270D1*
X-217803D2*
X-193264D1*
X-184876D2*
X-160805D1*
X-151206D2*
X-139811D1*
X-130272D2*
X-106251D1*
X-97661D2*
X-88473D1*
X-85492D2*
X-71232D1*
X-63541D2*
X-54354D1*
X-46480D2*
X-37291D1*
X-34311D2*
X-20050D1*
X-13501D2*
X-1142D1*
X6512D2*
X16544D1*
X21761D2*
X30948D1*
X46244D2*
X62642D1*
X72942D2*
X82129D1*
X97425D2*
X113823D1*
X123073D2*
X134467D1*
X144398D2*
X180279D1*
X189017D2*
X224898D1*
X233636D2*
X269518D1*
X-263016Y-355308D2*
X-253829D1*
X-248581D2*
X-239394D1*
X-235457D2*
X-226270D1*
X-216807D2*
X-194099D1*
X-183939D2*
X-161640D1*
X-151134D2*
X-139770D1*
X-129316D2*
X-107186D1*
X-97661D2*
X-88474D1*
X-85702D2*
X-72058D1*
X-63541D2*
X-54354D1*
X-46480D2*
X-37293D1*
X-34521D2*
X-20876D1*
X-13605D2*
X-2138D1*
X6046D2*
X16080D1*
X21761D2*
X30948D1*
X44706D2*
X61807D1*
X72942D2*
X82129D1*
X95887D2*
X112988D1*
X123144D2*
X134508D1*
X144958D2*
X179741D1*
X189577D2*
X224360D1*
X234197D2*
X268980D1*
X-263016Y-356621D2*
X-253829D1*
X-248580D2*
X-239394D1*
X-235457D2*
X-226270D1*
X-215603D2*
X-195316D1*
X-182717D2*
X-162741D1*
X-150780D2*
X-139952D1*
X-128068D2*
X-108407D1*
X-97661D2*
X-88475D1*
X-85793D2*
X-73271D1*
X-63541D2*
X-54354D1*
X-46480D2*
X-37294D1*
X-34612D2*
X-22090D1*
X-13647D2*
X-3342D1*
X5533D2*
X15629D1*
X21761D2*
X30948D1*
X43574D2*
X60589D1*
X72942D2*
X82129D1*
X94755D2*
X111770D1*
X123498D2*
X134326D1*
X145769D2*
X178822D1*
X190389D2*
X223441D1*
X235008D2*
X268061D1*
X-263016Y-357933D2*
X-253829D1*
X-248580D2*
X-239394D1*
X-235457D2*
X-226270D1*
X-214157D2*
X-197001D1*
X-181082D2*
X-164315D1*
X-150062D2*
X-140466D1*
X-126480D2*
X-110041D1*
X-97661D2*
X-88475D1*
X-85830D2*
X-74955D1*
X-63541D2*
X-54354D1*
X-46480D2*
X-37294D1*
X-34649D2*
X-23774D1*
X-13663D2*
X-4788D1*
X4925D2*
X15170D1*
X21761D2*
X30948D1*
X43116D2*
X58904D1*
X72942D2*
X82129D1*
X94297D2*
X110086D1*
X124217D2*
X133812D1*
X146962D2*
X177521D1*
X191581D2*
X222141D1*
X236201D2*
X266760D1*
X-263016Y-359245D2*
X-253829D1*
X-248580D2*
X-239394D1*
X-235457D2*
X-226270D1*
X-212425D2*
X-199082D1*
X-178907D2*
X-166324D1*
X-148927D2*
X-141301D1*
X-124613D2*
X-112216D1*
X-97661D2*
X-88475D1*
X-85844D2*
X-77035D1*
X-63541D2*
X-54354D1*
X-46480D2*
X-37294D1*
X-34662D2*
X-25854D1*
X-13669D2*
X-6520D1*
X4200D2*
X14583D1*
X21761D2*
X30948D1*
X44148D2*
X56824D1*
X72942D2*
X82129D1*
X95329D2*
X108005D1*
X125352D2*
X132978D1*
X148557D2*
X160869D1*
X164806D2*
X175856D1*
X193176D2*
X205488D1*
X209425D2*
X220475D1*
X237795D2*
X250108D1*
X254045D2*
X265095D1*
X-263016Y-360558D2*
X-253829D1*
X-248580D2*
X-239394D1*
X-235457D2*
X-226270D1*
X-210522D2*
X-201336D1*
X-176402D2*
X-168528D1*
X-147530D2*
X-142281D1*
X-122596D2*
X-114722D1*
X-97661D2*
X-88475D1*
X-85850D2*
X-79289D1*
X-63541D2*
X-54354D1*
X-46480D2*
X-37294D1*
X-34669D2*
X-28108D1*
X-13672D2*
X-8423D1*
X3388D2*
X13887D1*
X21761D2*
X30948D1*
X45383D2*
X54570D1*
X72942D2*
X82129D1*
X96564D2*
X105751D1*
X126748D2*
X131997D1*
X150370D2*
X158244D1*
X167430D2*
X173992D1*
X194990D2*
X202864D1*
X212050D2*
X218612D1*
X239609D2*
X247483D1*
X256669D2*
X263231D1*
X-436832Y-1567543D2*
D14*
X-439061Y-1568528D1*
X-440904Y-1569512D1*
X-442357Y-1570496D1*
X-443530Y-1571480D1*
X-444480Y-1572465D1*
X-445227Y-1573449D1*
X-445809Y-1574433D1*
X-446227Y-1575417D1*
X-446470Y-1576402D1*
X-446589Y-1577386D1*
X-446641Y-1578370D1*
X-446658Y-1579354D1*
X-446632Y-1580339D1*
X-446505Y-1581323D1*
X-446232Y-1582307D1*
X-445816Y-1583291D1*
X-445241Y-1584276D1*
X-444461Y-1585260D1*
X-443443Y-1586244D1*
X-442177Y-1587228D1*
X-440769Y-1588213D1*
X-426990Y-1567543D2*
X-424608Y-1568528D1*
X-422525Y-1569512D1*
X-420848Y-1570496D1*
X-419597Y-1571480D1*
X-418697Y-1572465D1*
X-418016Y-1573449D1*
X-417446Y-1574433D1*
X-416958Y-1575417D1*
X-416582Y-1576402D1*
X-416361Y-1577386D1*
X-416283Y-1578370D1*
X-416359Y-1579354D1*
X-416578Y-1580339D1*
X-416861Y-1581323D1*
X-417194Y-1582307D1*
X-417684Y-1583291D1*
X-418381Y-1584276D1*
X-419259Y-1585260D1*
X-420333Y-1586244D1*
X-421628Y-1587228D1*
X-423052Y-1588213D1*
X-436832Y-1570496D2*
X-438755Y-1571480D1*
X-440525Y-1572465D1*
X-441964Y-1573449D1*
X-443006Y-1574433D1*
X-443735Y-1575417D1*
X-444217Y-1576402D1*
X-444486Y-1577386D1*
X-444611Y-1578370D1*
X-444633Y-1579354D1*
X-444522Y-1580339D1*
X-444217Y-1581323D1*
X-443759Y-1582307D1*
X-442700Y-1583291D1*
X-441285Y-1584276D1*
X-439604Y-1585260D1*
X-437816Y-1586244D1*
X-438339Y-1587228D1*
X-438801Y-1588213D1*
X-426005Y-1570496D2*
X-424230Y-1571480D1*
X-422674Y-1572465D1*
X-421399Y-1573449D1*
X-420415Y-1574433D1*
X-419726Y-1575417D1*
X-419245Y-1576402D1*
X-418873Y-1577386D1*
X-418585Y-1578370D1*
X-418690Y-1579354D1*
X-418895Y-1580339D1*
X-419193Y-1581323D1*
X-419601Y-1582307D1*
X-420597Y-1583291D1*
X-422030Y-1584276D1*
X-423752Y-1585260D1*
X-425253Y-1586244D1*
X-426255Y-1587228D1*
X-426990Y-1588213D1*
X-438801Y-1595102D2*
X-439670Y-1596087D1*
X-440540Y-1597071D1*
X-441540Y-1598055D1*
X-442726Y-1599039D1*
X-443989Y-1600024D1*
X-445126Y-1601008D1*
X-445986Y-1601992D1*
X-446675Y-1602976D1*
X-436832Y-1595102D2*
X-437324Y-1596087D1*
X-437900Y-1597071D1*
X-438505Y-1598055D1*
X-439171Y-1599039D1*
X-439942Y-1600024D1*
X-440769Y-1601008D1*
X-416163D2*
Y-1601992D1*
Y-1602976D1*
X-433879Y-1611835D2*
X-438078Y-1612819D1*
X-441292Y-1613803D1*
X-443537Y-1614787D1*
X-445224Y-1615772D1*
X-446043Y-1616756D1*
X-446372Y-1617740D1*
X-446547Y-1618724D1*
X-446621Y-1619709D1*
X-446618Y-1620693D1*
X-446497Y-1621677D1*
X-446192Y-1622661D1*
X-445644Y-1623646D1*
X-444762Y-1624630D1*
X-443461Y-1625614D1*
X-441742Y-1626598D1*
X-439785Y-1627583D1*
X-428958Y-1611835D2*
X-425029Y-1612819D1*
X-422049Y-1613803D1*
X-420011Y-1614787D1*
X-418646Y-1615772D1*
X-417721Y-1616756D1*
X-417069Y-1617740D1*
X-416628Y-1618724D1*
X-416411Y-1619709D1*
X-416418Y-1620693D1*
X-416638Y-1621677D1*
X-417037Y-1622661D1*
X-417643Y-1623646D1*
X-418584Y-1624630D1*
X-419997Y-1625614D1*
X-421892Y-1626598D1*
X-424037Y-1627583D1*
X-438801Y-1614787D2*
X-440572Y-1615772D1*
X-442093Y-1616756D1*
X-443243Y-1617740D1*
X-444117Y-1618724D1*
X-444380Y-1619709D1*
X-444487Y-1620693D1*
X-444133Y-1621677D1*
X-443060Y-1622661D1*
X-441425Y-1623646D1*
X-439250Y-1624630D1*
X-436832Y-1625614D1*
X-426005Y-1614787D2*
X-423477Y-1615772D1*
X-421471Y-1616756D1*
X-420106Y-1617740D1*
X-419110Y-1618724D1*
X-418701Y-1619709D1*
X-418818Y-1620693D1*
X-419529Y-1621677D1*
X-420651Y-1622661D1*
X-422342Y-1623646D1*
X-424550Y-1624630D1*
X-426990Y-1625614D1*
X-9189Y-462324D2*
X-11418Y-463308D1*
X-13261Y-464293D1*
X-14714Y-465277D1*
X-15887Y-466261D1*
X-16837Y-467245D1*
X-17584Y-468230D1*
X-18166Y-469214D1*
X-18584Y-470198D1*
X-18827Y-471182D1*
X-18946Y-472167D1*
X-18998Y-473151D1*
X-19015Y-474135D1*
X-18989Y-475119D1*
X-18862Y-476104D1*
X-18589Y-477088D1*
X-18173Y-478072D1*
X-17598Y-479056D1*
X-16818Y-480041D1*
X-15800Y-481025D1*
X-14534Y-482009D1*
X-13126Y-482993D1*
X654Y-462324D2*
X3035Y-463308D1*
X5118Y-464293D1*
X6795Y-465277D1*
X8046Y-466261D1*
X8946Y-467245D1*
X9628Y-468230D1*
X10197Y-469214D1*
X10685Y-470198D1*
X11061Y-471182D1*
X11282Y-472167D1*
X11360Y-473151D1*
X11284Y-474135D1*
X11065Y-475119D1*
X10782Y-476104D1*
X10449Y-477088D1*
X9959Y-478072D1*
X9262Y-479056D1*
X8384Y-480041D1*
X7310Y-481025D1*
X6015Y-482009D1*
X4591Y-482993D1*
X-9189Y-465277D2*
X-11112Y-466261D1*
X-12882Y-467245D1*
X-14321Y-468230D1*
X-15363Y-469214D1*
X-16092Y-470198D1*
X-16574Y-471182D1*
X-16843Y-472167D1*
X-16968Y-473151D1*
X-16989Y-474135D1*
X-16879Y-475119D1*
X-16574Y-476104D1*
X-16116Y-477088D1*
X-15057Y-478072D1*
X-13642Y-479056D1*
X-11961Y-480041D1*
X-10173Y-481025D1*
X-10696Y-482009D1*
X-11157Y-482993D1*
X1638Y-465277D2*
X3413Y-466261D1*
X4969Y-467245D1*
X6244Y-468230D1*
X7228Y-469214D1*
X7917Y-470198D1*
X8398Y-471182D1*
X8770Y-472167D1*
X9058Y-473151D1*
X8953Y-474135D1*
X8748Y-475119D1*
X8450Y-476104D1*
X8042Y-477088D1*
X7046Y-478072D1*
X5613Y-479056D1*
X3891Y-480041D1*
X2390Y-481025D1*
X1389Y-482009D1*
X654Y-482993D1*
X-11157Y-489883D2*
X-12027Y-490867D1*
X-12897Y-491852D1*
X-13897Y-492836D1*
X-15083Y-493820D1*
X-16346Y-494804D1*
X-17483Y-495789D1*
X-18343Y-496773D1*
X-19031Y-497757D1*
X-9189Y-489883D2*
X-9681Y-490867D1*
X-10257Y-491852D1*
X-10862Y-492836D1*
X-11528Y-493820D1*
X-12299Y-494804D1*
X-13126Y-495789D1*
X11480D2*
Y-496773D1*
Y-497757D1*
X-11157Y-509568D2*
X-12027Y-510552D1*
X-12897Y-511537D1*
X-13897Y-512521D1*
X-15083Y-513505D1*
X-16346Y-514490D1*
X-17483Y-515474D1*
X-18343Y-516458D1*
X-19031Y-517442D1*
X-9189Y-509568D2*
X-9681Y-510552D1*
X-10257Y-511537D1*
X-10862Y-512521D1*
X-11528Y-513505D1*
X-12299Y-514490D1*
X-13126Y-515474D1*
X11480D2*
Y-516458D1*
Y-517442D1*
X-14270Y145202D2*
X-15553Y144218D1*
X-16541Y143234D1*
X-17284Y142249D1*
X-17886Y141265D1*
X-18388Y140281D1*
X-18769Y139297D1*
X-18996Y138312D1*
X-19113Y137328D1*
X-19198Y136344D1*
X-19344Y135360D1*
X-19587Y134375D1*
X-19842Y133391D1*
X-20015Y132407D1*
X-20106Y131423D1*
X-20148Y130438D1*
X-20162Y129454D1*
X-20134Y128470D1*
X-20011Y127486D1*
X-19776Y126501D1*
X-19524Y125517D1*
X-19352Y124533D1*
X-19257Y123549D1*
X-19181Y122564D1*
X-19034Y121580D1*
X-18757Y120596D1*
X-18373Y119612D1*
X-17923Y118627D1*
X-17378Y117643D1*
X-16615Y116659D1*
X-15535Y115675D1*
X-14270Y114690D1*
X-9349Y145202D2*
X-8402Y144218D1*
X-7548Y143234D1*
X-6838Y142249D1*
X-6266Y141265D1*
X-5819Y140281D1*
X-5452Y139297D1*
X-5098Y138312D1*
X-4793Y137328D1*
X-4601Y136344D1*
X-4501Y135360D1*
X-4457Y134375D1*
X-4439Y133391D1*
X-4432Y132407D1*
X-4429Y131423D1*
X-4428Y130438D1*
Y129454D1*
Y128470D1*
Y127486D1*
Y126501D1*
Y125517D1*
X-4432Y124533D1*
X-4466Y123549D1*
X-4596Y122564D1*
X-4866Y121580D1*
X-5248Y120596D1*
X-5693Y119612D1*
X-6205Y118627D1*
X-6855Y117643D1*
X-7767Y116659D1*
X-8970Y115675D1*
X-10333Y114690D1*
X4430Y145202D2*
Y144218D1*
Y143234D1*
Y142249D1*
Y141265D1*
Y140281D1*
Y139297D1*
Y138312D1*
Y137328D1*
Y136344D1*
Y135360D1*
Y134375D1*
Y133391D1*
Y132407D1*
Y131423D1*
Y130438D1*
Y129454D1*
Y128470D1*
Y127486D1*
Y126501D1*
Y125517D1*
Y124533D1*
Y123549D1*
Y122564D1*
Y121580D1*
Y120596D1*
Y119612D1*
Y118627D1*
Y117643D1*
Y116659D1*
Y115675D1*
Y114690D1*
X6399Y145202D2*
X6777Y144218D1*
X7234Y143234D1*
X7821Y142249D1*
X8569Y141265D1*
X9436Y140281D1*
X10365Y139297D1*
X11291Y138312D1*
X12115Y137328D1*
X12760Y136344D1*
X13289Y135360D1*
X34942Y145202D2*
X33660Y144218D1*
X32671Y143234D1*
X31928Y142249D1*
X31327Y141265D1*
X30825Y140281D1*
X30444Y139297D1*
X30217Y138312D1*
X30099Y137328D1*
X30015Y136344D1*
X29869Y135360D1*
X29626Y134375D1*
X29370Y133391D1*
X29198Y132407D1*
X29106Y131423D1*
X29064Y130438D1*
X29051Y129454D1*
X29079Y128470D1*
X29202Y127486D1*
X29437Y126501D1*
X29689Y125517D1*
X29860Y124533D1*
X29956Y123549D1*
X30032Y122564D1*
X30178Y121580D1*
X30455Y120596D1*
X30839Y119612D1*
X31290Y118627D1*
X31835Y117643D1*
X32598Y116659D1*
X33678Y115675D1*
X34942Y114690D1*
X39864Y145202D2*
X40810Y144218D1*
X41665Y143234D1*
X42374Y142249D1*
X42946Y141265D1*
X43394Y140281D1*
X43760Y139297D1*
X44115Y138312D1*
X44419Y137328D1*
X44612Y136344D1*
X44711Y135360D1*
X44756Y134375D1*
X44774Y133391D1*
X44781Y132407D1*
X44783Y131423D1*
X44784Y130438D1*
X44785Y129454D1*
Y128470D1*
Y127486D1*
Y126501D1*
Y125517D1*
X44781Y124533D1*
X44746Y123549D1*
X44617Y122564D1*
X44347Y121580D1*
X43965Y120596D1*
X43519Y119612D1*
X43008Y118627D1*
X42357Y117643D1*
X41446Y116659D1*
X40243Y115675D1*
X38879Y114690D1*
X-13286Y143234D2*
X-14233Y142249D1*
X-15087Y141265D1*
X-15797Y140281D1*
X-16365Y139297D1*
X-16778Y138312D1*
X-17019Y137328D1*
X-17138Y136344D1*
X-17190Y135360D1*
X-17211Y134375D1*
X-17219Y133391D1*
X-17222Y132407D1*
X-17223Y131423D1*
Y130438D1*
Y129454D1*
Y128470D1*
Y127486D1*
Y126501D1*
Y125517D1*
X-17219Y124533D1*
X-17185Y123549D1*
X-17055Y122564D1*
X-16781Y121580D1*
X-16350Y120596D1*
X-15794Y119612D1*
X-14319Y118627D1*
X-12083Y117643D1*
X-9349Y116659D1*
X-10333Y143234D2*
X-9505Y142249D1*
X-8803Y141265D1*
X-8234Y140281D1*
X-7787Y139297D1*
X-7421Y138312D1*
X-7066Y137328D1*
X-6762Y136344D1*
X-6569Y135360D1*
X-6470Y134375D1*
X-6425Y133391D1*
X-6407Y132407D1*
X-6400Y131423D1*
X-6398Y130438D1*
X-6397Y129454D1*
X-6396Y128470D1*
Y127486D1*
X-6400Y126501D1*
X-6435Y125517D1*
X-6560Y124533D1*
X-6800Y123549D1*
X-7087Y122564D1*
X-7388Y121580D1*
X-7769Y120596D1*
X-8236Y119612D1*
X-9264Y118627D1*
X-11572Y117643D1*
X-14270Y116659D1*
X35927Y143234D2*
X34980Y142249D1*
X34125Y141265D1*
X33416Y140281D1*
X32848Y139297D1*
X32435Y138312D1*
X32194Y137328D1*
X32075Y136344D1*
X32023Y135360D1*
X32002Y134375D1*
X31994Y133391D1*
X31991Y132407D1*
X31990Y131423D1*
Y130438D1*
Y129454D1*
Y128470D1*
Y127486D1*
Y126501D1*
Y125517D1*
X31993Y124533D1*
X32028Y123549D1*
X32157Y122564D1*
X32431Y121580D1*
X32863Y120596D1*
X33418Y119612D1*
X34894Y118627D1*
X37130Y117643D1*
X39864Y116659D1*
X38879Y143234D2*
X39708Y142249D1*
X40409Y141265D1*
X40979Y140281D1*
X41426Y139297D1*
X41792Y138312D1*
X42146Y137328D1*
X42451Y136344D1*
X42643Y135360D1*
X42743Y134375D1*
X42787Y133391D1*
X42805Y132407D1*
X42812Y131423D1*
X42815Y130438D1*
X42816Y129454D1*
Y128470D1*
Y127486D1*
X42812Y126501D1*
X42778Y125517D1*
X42652Y124533D1*
X42413Y123549D1*
X42126Y122564D1*
X41825Y121580D1*
X41444Y120596D1*
X40976Y119612D1*
X39949Y118627D1*
X37640Y117643D1*
X34942Y116659D1*
X7383Y138312D2*
Y137328D1*
Y136344D1*
Y135360D1*
Y134375D1*
Y133391D1*
Y132407D1*
Y131423D1*
Y130438D1*
Y129454D1*
Y128470D1*
Y127486D1*
Y126501D1*
Y125517D1*
Y124533D1*
Y123549D1*
Y122564D1*
Y121580D1*
Y120596D1*
Y119612D1*
Y118627D1*
Y117643D1*
Y116659D1*
Y115675D1*
Y114690D1*
X8367Y138312D2*
X9352Y137328D1*
X10336Y136344D1*
X11320Y135360D1*
X21163Y117643D2*
Y116659D1*
Y115675D1*
Y114690D1*
X23131Y117643D2*
Y116659D1*
Y115675D1*
Y114690D1*
X-13625Y97983D2*
X-14605Y96999D1*
X-15551Y96014D1*
X-16375Y95030D1*
X-16994Y94046D1*
X-17452Y93062D1*
X-17848Y92077D1*
X-18166Y91093D1*
X-18331Y90109D1*
X-18307Y89125D1*
X-18113Y88140D1*
X-17845Y87156D1*
X-17551Y86172D1*
X-17188Y85188D1*
X-16735Y84203D1*
X-16181Y83219D1*
X-15557Y82235D1*
X-14925Y81251D1*
X-14244Y80266D1*
X-13452Y79282D1*
X-12567Y78298D1*
X-11627Y77314D1*
X-10661Y76329D1*
X-9688Y75345D1*
X-8741Y74361D1*
X-7883Y73377D1*
X-7135Y72392D1*
X-6405Y71408D1*
X-5608Y70424D1*
X-4766Y69440D1*
X-7719Y97983D2*
X-6318Y96999D1*
X-5181Y96014D1*
X-4328Y95030D1*
X-3697Y94046D1*
X-3258Y93062D1*
X-3007Y92077D1*
X-2878Y91093D1*
X-2798Y90109D1*
X1139Y97983D2*
Y96999D1*
Y96014D1*
X17871Y97983D2*
Y96999D1*
Y96014D1*
Y95030D1*
Y94046D1*
Y93062D1*
Y92077D1*
Y91093D1*
Y90109D1*
Y89125D1*
Y88140D1*
Y87156D1*
Y86172D1*
Y85188D1*
Y84203D1*
Y83219D1*
Y82235D1*
Y81251D1*
Y80266D1*
Y79282D1*
Y78298D1*
Y77314D1*
Y76329D1*
Y75345D1*
Y74361D1*
Y73377D1*
Y72392D1*
Y71408D1*
Y70424D1*
Y69440D1*
Y68455D1*
Y67471D1*
X24761Y97983D2*
Y96999D1*
Y96014D1*
Y95030D1*
Y94046D1*
Y93062D1*
Y92077D1*
Y91093D1*
Y90109D1*
Y89125D1*
Y88140D1*
Y87156D1*
Y86172D1*
Y85188D1*
Y84203D1*
Y83219D1*
Y82235D1*
Y81251D1*
Y80266D1*
Y79282D1*
Y78298D1*
Y77314D1*
Y76329D1*
Y75345D1*
Y74361D1*
Y73377D1*
Y72392D1*
Y71408D1*
Y70424D1*
Y69440D1*
Y68455D1*
Y67471D1*
X26730Y97983D2*
Y96999D1*
Y96014D1*
Y95030D1*
Y94046D1*
Y93062D1*
Y92077D1*
Y91093D1*
Y90109D1*
Y89125D1*
Y88140D1*
Y87156D1*
Y86172D1*
Y85188D1*
Y84203D1*
Y83219D1*
Y82235D1*
Y81251D1*
Y80266D1*
Y79282D1*
X26734Y78298D1*
X26771Y77314D1*
X26923Y76329D1*
X27260Y75345D1*
X27714Y74361D1*
X40509Y97983D2*
X40131Y96999D1*
X39678Y96014D1*
X39126Y95030D1*
X38507Y94046D1*
X37910Y93062D1*
X37359Y92077D1*
X36837Y91093D1*
X36334Y90109D1*
X35836Y89125D1*
X35343Y88140D1*
X34850Y87156D1*
X34358Y86172D1*
X33865Y85188D1*
X33374Y84203D1*
X32881Y83219D1*
X32386Y82235D1*
X31862Y81251D1*
X31276Y80266D1*
X30642Y79282D1*
X30039Y78298D1*
X29483Y77314D1*
X28935Y76329D1*
X28348Y75345D1*
X27714Y74361D1*
X43462Y97983D2*
Y96999D1*
Y96014D1*
Y95030D1*
Y94046D1*
Y93062D1*
Y92077D1*
Y91093D1*
Y90109D1*
Y89125D1*
Y88140D1*
Y87156D1*
Y86172D1*
Y85188D1*
Y84203D1*
Y83219D1*
Y82235D1*
Y81251D1*
Y80266D1*
Y79282D1*
Y78298D1*
Y77314D1*
Y76329D1*
Y75345D1*
Y74361D1*
Y73377D1*
Y72392D1*
Y71408D1*
Y70424D1*
Y69440D1*
Y68455D1*
Y67471D1*
X-10672Y96014D2*
X-12291Y95030D1*
X-13568Y94046D1*
X-14464Y93062D1*
X-15134Y92077D1*
X-15370Y91093D1*
X-15494Y90109D1*
X-15518Y89125D1*
X-15412Y88140D1*
X-15150Y87156D1*
X-14772Y86172D1*
X-14327Y85188D1*
X-13820Y84203D1*
X-13207Y83219D1*
X-12447Y82235D1*
X-11575Y81251D1*
X-10640Y80266D1*
X-9676Y79282D1*
X-8699Y78298D1*
X-7722Y77314D1*
X-6773Y76329D1*
X-5914Y75345D1*
X-5170Y74361D1*
X-4476Y73377D1*
X-3824Y72392D1*
X-3296Y71408D1*
X-2879Y70424D1*
X-2492Y69440D1*
X-2134Y68455D1*
X-1814Y67471D1*
X-8703Y96014D2*
X-7723Y95030D1*
X-6777Y94046D1*
X-5957Y93062D1*
X-5368Y92077D1*
X-5014Y91093D1*
X-4766Y90109D1*
X14919Y96014D2*
Y95030D1*
Y94046D1*
Y93062D1*
Y92077D1*
Y91093D1*
Y90109D1*
Y89125D1*
Y88140D1*
Y87156D1*
Y86172D1*
Y85188D1*
Y84203D1*
X40509Y91093D2*
X39681Y90109D1*
X38975Y89125D1*
X38375Y88140D1*
X37834Y87156D1*
X37322Y86172D1*
X36822Y85188D1*
X36328Y84203D1*
X35834Y83219D1*
X35342Y82235D1*
X34849Y81251D1*
X34354Y80266D1*
X33830Y79282D1*
X33244Y78298D1*
X32611Y77314D1*
X32008Y76329D1*
X31455Y75345D1*
X30932Y74361D1*
X30429Y73377D1*
X29931Y72392D1*
X29438Y71408D1*
X28947Y70424D1*
X28481Y69440D1*
X28071Y68455D1*
X27714Y67471D1*
X41493Y91093D2*
Y90109D1*
Y89125D1*
Y88140D1*
Y87156D1*
Y86172D1*
Y85188D1*
Y84203D1*
Y83219D1*
Y82235D1*
Y81251D1*
Y80266D1*
Y79282D1*
Y78298D1*
Y77314D1*
Y76329D1*
Y75345D1*
Y74361D1*
Y73377D1*
Y72392D1*
Y71408D1*
Y70424D1*
Y69440D1*
Y68455D1*
Y67471D1*
X3108Y84203D2*
Y83219D1*
Y82235D1*
X14919D2*
Y81251D1*
Y80266D1*
Y79282D1*
Y78298D1*
Y77314D1*
Y76329D1*
Y75345D1*
Y74361D1*
Y73377D1*
Y72392D1*
Y71408D1*
Y70424D1*
Y69440D1*
Y68455D1*
Y67471D1*
X-18546Y69440D2*
Y68455D1*
Y67471D1*
X-205812Y145467D2*
X-207247Y144483D1*
X-208479Y143499D1*
X-209477Y142514D1*
X-210251Y141530D1*
X-210845Y140546D1*
X-211267Y139562D1*
X-211516Y138577D1*
X-211670Y137593D1*
X-211848Y136609D1*
X-212105Y135625D1*
X-212365Y134640D1*
X-212540Y133656D1*
X-212632Y132672D1*
X-212674Y131688D1*
X-212692Y130703D1*
X-212695Y129719D1*
X-212662Y128735D1*
X-212538Y127751D1*
X-212302Y126766D1*
X-212050Y125782D1*
X-211875Y124798D1*
X-211749Y123814D1*
X-211578Y122829D1*
X-211290Y121845D1*
X-210902Y120861D1*
X-210454Y119877D1*
X-209941Y118892D1*
X-209291Y117908D1*
X-208379Y116924D1*
X-207176Y115940D1*
X-205812Y114955D1*
X-201875Y145467D2*
X-200474Y144483D1*
X-199337Y143499D1*
X-198484Y142514D1*
X-197853Y141530D1*
X-197414Y140546D1*
X-197164Y139562D1*
X-197041Y138577D1*
X-196988Y137593D1*
X-196966Y136609D1*
X-196958Y135625D1*
X-196959Y134640D1*
X-196993Y133656D1*
X-197122Y132672D1*
X-197396Y131688D1*
X-197816Y130703D1*
X-198425Y129719D1*
X-199319Y128735D1*
X-200515Y127751D1*
X-201875Y126766D1*
X-187112Y145467D2*
X-188394Y144483D1*
X-189382Y143499D1*
X-190126Y142514D1*
X-190727Y141530D1*
X-191229Y140546D1*
X-191610Y139562D1*
X-191837Y138577D1*
X-191954Y137593D1*
X-192039Y136609D1*
X-192185Y135625D1*
X-192428Y134640D1*
X-192683Y133656D1*
X-192856Y132672D1*
X-192948Y131688D1*
X-192989Y130703D1*
X-193003Y129719D1*
X-192975Y128735D1*
X-192852Y127751D1*
X-192617Y126766D1*
X-192365Y125782D1*
X-192193Y124798D1*
X-192098Y123814D1*
X-192022Y122829D1*
X-191875Y121845D1*
X-191598Y120861D1*
X-191214Y119877D1*
X-190764Y118892D1*
X-190219Y117908D1*
X-189456Y116924D1*
X-188376Y115940D1*
X-187112Y114955D1*
X-182190Y145467D2*
X-181244Y144483D1*
X-180389Y143499D1*
X-179679Y142514D1*
X-179108Y141530D1*
X-178660Y140546D1*
X-178294Y139562D1*
X-177939Y138577D1*
X-177635Y137593D1*
X-177442Y136609D1*
X-177343Y135625D1*
X-177298Y134640D1*
X-177280Y133656D1*
X-177273Y132672D1*
X-177270Y131688D1*
X-177269Y130703D1*
Y129719D1*
Y128735D1*
Y127751D1*
Y126766D1*
Y125782D1*
X-177273Y124798D1*
X-177307Y123814D1*
X-177437Y122829D1*
X-177707Y121845D1*
X-178089Y120861D1*
X-178535Y119877D1*
X-179046Y118892D1*
X-179696Y117908D1*
X-180608Y116924D1*
X-181811Y115940D1*
X-183175Y114955D1*
X-157584Y145467D2*
X-158867Y144483D1*
X-159855Y143499D1*
X-160598Y142514D1*
X-161199Y141530D1*
X-161701Y140546D1*
X-162082Y139562D1*
X-162310Y138577D1*
X-162427Y137593D1*
X-162512Y136609D1*
X-162657Y135625D1*
X-162901Y134640D1*
X-163156Y133656D1*
X-163328Y132672D1*
X-163420Y131688D1*
X-163462Y130703D1*
X-163475Y129719D1*
X-163447Y128735D1*
X-163324Y127751D1*
X-163089Y126766D1*
X-162837Y125782D1*
X-162666Y124798D1*
X-162571Y123814D1*
X-162494Y122829D1*
X-162348Y121845D1*
X-162071Y120861D1*
X-161687Y119877D1*
X-161236Y118892D1*
X-160691Y117908D1*
X-159929Y116924D1*
X-158849Y115940D1*
X-157584Y114955D1*
X-152663Y145467D2*
X-151716Y144483D1*
X-150862Y143499D1*
X-150152Y142514D1*
X-149580Y141530D1*
X-149132Y140546D1*
X-148766Y139562D1*
X-148411Y138577D1*
X-148107Y137593D1*
X-147914Y136609D1*
X-147815Y135625D1*
X-147771Y134640D1*
X-147752Y133656D1*
X-147745Y132672D1*
X-147743Y131688D1*
X-147742Y130703D1*
Y129719D1*
Y128735D1*
X-147741Y127751D1*
Y126766D1*
Y125782D1*
X-147745Y124798D1*
X-147780Y123814D1*
X-147909Y122829D1*
X-148180Y121845D1*
X-148561Y120861D1*
X-149007Y119877D1*
X-149518Y118892D1*
X-150169Y117908D1*
X-151081Y116924D1*
X-152283Y115940D1*
X-153647Y114955D1*
X-205812Y143499D2*
X-206759Y142514D1*
X-207613Y141530D1*
X-208323Y140546D1*
X-208891Y139562D1*
X-209304Y138577D1*
X-209545Y137593D1*
X-209660Y136609D1*
X-209678Y135625D1*
X-209569Y134640D1*
X-209303Y133656D1*
X-208874Y132672D1*
X-208320Y131688D1*
X-206845Y130703D1*
X-204609Y129719D1*
X-201875Y128735D1*
X-202860Y143499D2*
X-201913Y142514D1*
X-201059Y141530D1*
X-200349Y140546D1*
X-199781Y139562D1*
X-199368Y138577D1*
X-199127Y137593D1*
X-199012Y136609D1*
X-198994Y135625D1*
X-199103Y134640D1*
X-199369Y133656D1*
X-199798Y132672D1*
X-200352Y131688D1*
X-201827Y130703D1*
X-204063Y129719D1*
X-206797Y128735D1*
X-186127Y143499D2*
X-187074Y142514D1*
X-187928Y141530D1*
X-188638Y140546D1*
X-189206Y139562D1*
X-189619Y138577D1*
X-189860Y137593D1*
X-189979Y136609D1*
X-190031Y135625D1*
X-190052Y134640D1*
X-190060Y133656D1*
X-190063Y132672D1*
X-190064Y131688D1*
Y130703D1*
Y129719D1*
Y128735D1*
Y127751D1*
Y126766D1*
Y125782D1*
X-190060Y124798D1*
X-190026Y123814D1*
X-189897Y122829D1*
X-189622Y121845D1*
X-189191Y120861D1*
X-188636Y119877D1*
X-187160Y118892D1*
X-184924Y117908D1*
X-182190Y116924D1*
X-183175Y143499D2*
X-182346Y142514D1*
X-181644Y141530D1*
X-181075Y140546D1*
X-180628Y139562D1*
X-180262Y138577D1*
X-179907Y137593D1*
X-179603Y136609D1*
X-179410Y135625D1*
X-179311Y134640D1*
X-179267Y133656D1*
X-179248Y132672D1*
X-179241Y131688D1*
X-179239Y130703D1*
X-179238Y129719D1*
Y128735D1*
Y127751D1*
X-179241Y126766D1*
X-179276Y125782D1*
X-179401Y124798D1*
X-179641Y123814D1*
X-179928Y122829D1*
X-180229Y121845D1*
X-180610Y120861D1*
X-181077Y119877D1*
X-182105Y118892D1*
X-184414Y117908D1*
X-187112Y116924D1*
X-156600Y143499D2*
X-157547Y142514D1*
X-158401Y141530D1*
X-159111Y140546D1*
X-159679Y139562D1*
X-160092Y138577D1*
X-160333Y137593D1*
X-160451Y136609D1*
X-160504Y135625D1*
X-160525Y134640D1*
X-160532Y133656D1*
X-160535Y132672D1*
X-160536Y131688D1*
X-160537Y130703D1*
Y129719D1*
Y128735D1*
Y127751D1*
Y126766D1*
Y125782D1*
X-160533Y124798D1*
X-160498Y123814D1*
X-160369Y122829D1*
X-160095Y121845D1*
X-159663Y120861D1*
X-159108Y119877D1*
X-157633Y118892D1*
X-155396Y117908D1*
X-152663Y116924D1*
X-153647Y143499D2*
X-152819Y142514D1*
X-152117Y141530D1*
X-151548Y140546D1*
X-151101Y139562D1*
X-150734Y138577D1*
X-150380Y137593D1*
X-150075Y136609D1*
X-149883Y135625D1*
X-149784Y134640D1*
X-149739Y133656D1*
X-149721Y132672D1*
X-149714Y131688D1*
X-149711Y130703D1*
X-149710Y129719D1*
Y128735D1*
Y127751D1*
X-149714Y126766D1*
X-149748Y125782D1*
X-149874Y124798D1*
X-150113Y123814D1*
X-150400Y122829D1*
X-150701Y121845D1*
X-151082Y120861D1*
X-151550Y119877D1*
X-152578Y118892D1*
X-154886Y117908D1*
X-157584Y116924D1*
X-209749Y128735D2*
Y127751D1*
Y126766D1*
X-209745Y125782D1*
X-209711Y124798D1*
X-209582Y123814D1*
X-209311Y122829D1*
X-208926Y121845D1*
X-208430Y120861D1*
X-207822Y119877D1*
X-206228Y118892D1*
X-203812Y117908D1*
X-200891Y116924D1*
X-209749Y128735D2*
X-207781Y127751D1*
X-205812Y126766D1*
X-199907Y121845D2*
X-200112Y120861D1*
X-200465Y119877D1*
X-201701Y118892D1*
X-203558Y117908D1*
X-205812Y116924D1*
X-196954Y121845D2*
X-197294Y120861D1*
X-197626Y119877D1*
X-197980Y118892D1*
X-198514Y117908D1*
X-199360Y116924D1*
X-200531Y115940D1*
X-201875Y114955D1*
X-171364Y117908D2*
Y116924D1*
Y115940D1*
Y114955D1*
X-169395Y117908D2*
Y116924D1*
Y115940D1*
Y114955D1*
X-206377Y95381D2*
Y94396D1*
Y93412D1*
Y92428D1*
Y91444D1*
Y90459D1*
Y89475D1*
Y88491D1*
Y87507D1*
Y86522D1*
Y85538D1*
Y84554D1*
Y83570D1*
Y82585D1*
Y81601D1*
Y80617D1*
Y79633D1*
Y78648D1*
Y77664D1*
Y76680D1*
Y75696D1*
Y74711D1*
Y73727D1*
Y72743D1*
Y71759D1*
Y70774D1*
Y69790D1*
Y68806D1*
Y67822D1*
Y66837D1*
Y65853D1*
Y64869D1*
X-204408Y95381D2*
X-204030Y94396D1*
X-203573Y93412D1*
X-202986Y92428D1*
X-202238Y91444D1*
X-201371Y90459D1*
X-200442Y89475D1*
X-199516Y88491D1*
X-198692Y87507D1*
X-198047Y86522D1*
X-197518Y85538D1*
X-191613Y95381D2*
Y94396D1*
Y93412D1*
X-174881Y95381D2*
Y94396D1*
Y93412D1*
Y92428D1*
Y91444D1*
Y90459D1*
Y89475D1*
Y88491D1*
Y87507D1*
Y86522D1*
Y85538D1*
Y84554D1*
Y83570D1*
Y82585D1*
Y81601D1*
Y80617D1*
Y79633D1*
Y78648D1*
Y77664D1*
Y76680D1*
Y75696D1*
Y74711D1*
Y73727D1*
Y72743D1*
Y71759D1*
Y70774D1*
Y69790D1*
Y68806D1*
Y67822D1*
Y66837D1*
Y65853D1*
Y64869D1*
X-167991Y95381D2*
Y94396D1*
Y93412D1*
Y92428D1*
Y91444D1*
Y90459D1*
Y89475D1*
Y88491D1*
Y87507D1*
Y86522D1*
Y85538D1*
Y84554D1*
Y83570D1*
Y82585D1*
Y81601D1*
Y80617D1*
Y79633D1*
Y78648D1*
Y77664D1*
Y76680D1*
Y75696D1*
Y74711D1*
Y73727D1*
Y72743D1*
Y71759D1*
Y70774D1*
Y69790D1*
Y68806D1*
Y67822D1*
Y66837D1*
Y65853D1*
Y64869D1*
X-166022Y95381D2*
Y94396D1*
Y93412D1*
Y92428D1*
Y91444D1*
Y90459D1*
Y89475D1*
Y88491D1*
Y87507D1*
Y86522D1*
Y85538D1*
Y84554D1*
Y83570D1*
Y82585D1*
Y81601D1*
Y80617D1*
Y79633D1*
Y78648D1*
Y77664D1*
Y76680D1*
X-166018Y75696D1*
X-165981Y74711D1*
X-165829Y73727D1*
X-165492Y72743D1*
X-165038Y71759D1*
X-152243Y95381D2*
X-152621Y94396D1*
X-153074Y93412D1*
X-153626Y92428D1*
X-154245Y91444D1*
X-154842Y90459D1*
X-155393Y89475D1*
X-155915Y88491D1*
X-156418Y87507D1*
X-156916Y86522D1*
X-157409Y85538D1*
X-157902Y84554D1*
X-158394Y83570D1*
X-158887Y82585D1*
X-159378Y81601D1*
X-159871Y80617D1*
X-160366Y79633D1*
X-160890Y78648D1*
X-161476Y77664D1*
X-162110Y76680D1*
X-162713Y75696D1*
X-163269Y74711D1*
X-163817Y73727D1*
X-164404Y72743D1*
X-165038Y71759D1*
X-149290Y95381D2*
Y94396D1*
Y93412D1*
Y92428D1*
Y91444D1*
Y90459D1*
Y89475D1*
Y88491D1*
Y87507D1*
Y86522D1*
Y85538D1*
Y84554D1*
Y83570D1*
Y82585D1*
Y81601D1*
Y80617D1*
Y79633D1*
Y78648D1*
Y77664D1*
Y76680D1*
Y75696D1*
Y74711D1*
Y73727D1*
Y72743D1*
Y71759D1*
Y70774D1*
Y69790D1*
Y68806D1*
Y67822D1*
Y66837D1*
Y65853D1*
Y64869D1*
X-177833Y93412D2*
Y92428D1*
Y91444D1*
Y90459D1*
Y89475D1*
Y88491D1*
Y87507D1*
Y86522D1*
Y85538D1*
Y84554D1*
Y83570D1*
Y82585D1*
Y81601D1*
X-203424Y88491D2*
Y87507D1*
Y86522D1*
Y85538D1*
Y84554D1*
Y83570D1*
Y82585D1*
Y81601D1*
Y80617D1*
Y79633D1*
Y78648D1*
Y77664D1*
Y76680D1*
Y75696D1*
Y74711D1*
Y73727D1*
Y72743D1*
Y71759D1*
Y70774D1*
Y69790D1*
Y68806D1*
Y67822D1*
Y66837D1*
Y65853D1*
Y64869D1*
X-202440Y88491D2*
X-201455Y87507D1*
X-200471Y86522D1*
X-199487Y85538D1*
X-152243Y88491D2*
X-153071Y87507D1*
X-153777Y86522D1*
X-154377Y85538D1*
X-154918Y84554D1*
X-155430Y83570D1*
X-155930Y82585D1*
X-156424Y81601D1*
X-156918Y80617D1*
X-157410Y79633D1*
X-157903Y78648D1*
X-158398Y77664D1*
X-158921Y76680D1*
X-159507Y75696D1*
X-160141Y74711D1*
X-160744Y73727D1*
X-161297Y72743D1*
X-161820Y71759D1*
X-162323Y70774D1*
X-162821Y69790D1*
X-163314Y68806D1*
X-163805Y67822D1*
X-164271Y66837D1*
X-164681Y65853D1*
X-165038Y64869D1*
X-151259Y88491D2*
Y87507D1*
Y86522D1*
Y85538D1*
Y84554D1*
Y83570D1*
Y82585D1*
Y81601D1*
Y80617D1*
Y79633D1*
Y78648D1*
Y77664D1*
Y76680D1*
Y75696D1*
Y74711D1*
Y73727D1*
Y72743D1*
Y71759D1*
Y70774D1*
Y69790D1*
Y68806D1*
Y67822D1*
Y66837D1*
Y65853D1*
Y64869D1*
X-189644Y81601D2*
Y80617D1*
Y79633D1*
X-177833D2*
Y78648D1*
Y77664D1*
Y76680D1*
Y75696D1*
Y74711D1*
Y73727D1*
Y72743D1*
Y71759D1*
Y70774D1*
Y69790D1*
Y68806D1*
Y67822D1*
Y66837D1*
Y65853D1*
Y64869D1*
X-9772Y27306D2*
X-10752Y26322D1*
X-11698Y25337D1*
X-12522Y24353D1*
X-13141Y23369D1*
X-13599Y22385D1*
X-13995Y21400D1*
X-14313Y20416D1*
X-14478Y19432D1*
X-14454Y18448D1*
X-14260Y17463D1*
X-13992Y16479D1*
X-13698Y15495D1*
X-13335Y14510D1*
X-12882Y13526D1*
X-12328Y12542D1*
X-11704Y11558D1*
X-11071Y10573D1*
X-10391Y9589D1*
X-9599Y8605D1*
X-8714Y7621D1*
X-7774Y6636D1*
X-6808Y5652D1*
X-5835Y4668D1*
X-4888Y3684D1*
X-4030Y2699D1*
X-3282Y1715D1*
X-2552Y731D1*
X-1755Y-253D1*
X-913Y-1238D1*
X-3866Y27306D2*
X-2465Y26322D1*
X-1328Y25337D1*
X-475Y24353D1*
X156Y23369D1*
X595Y22385D1*
X846Y21400D1*
X975Y20416D1*
X1055Y19432D1*
X10898Y27306D2*
X9615Y26322D1*
X8627Y25337D1*
X7884Y24353D1*
X7282Y23369D1*
X6780Y22385D1*
X6399Y21400D1*
X6172Y20416D1*
X6055Y19432D1*
X5970Y18448D1*
X5824Y17463D1*
X5581Y16479D1*
X5326Y15495D1*
X5153Y14510D1*
X5062Y13526D1*
X5020Y12542D1*
X5006Y11558D1*
X5034Y10573D1*
X5157Y9589D1*
X5392Y8605D1*
X5644Y7621D1*
X5816Y6636D1*
X5911Y5652D1*
X5987Y4668D1*
X6134Y3684D1*
X6411Y2699D1*
X6795Y1715D1*
X7245Y731D1*
X7790Y-253D1*
X8553Y-1238D1*
X9633Y-2222D1*
X10898Y-3206D1*
X15819Y27306D2*
X16766Y26322D1*
X17620Y25337D1*
X18330Y24353D1*
X18902Y23369D1*
X19349Y22385D1*
X19716Y21400D1*
X20070Y20416D1*
X20375Y19432D1*
X20567Y18448D1*
X20666Y17463D1*
X20711Y16479D1*
X20729Y15495D1*
X20736Y14510D1*
X20739Y13526D1*
X20740Y12542D1*
Y11558D1*
Y10573D1*
Y9589D1*
Y8605D1*
Y7621D1*
X20736Y6636D1*
X20702Y5652D1*
X20572Y4668D1*
X20302Y3684D1*
X19920Y2699D1*
X19475Y1715D1*
X18963Y731D1*
X18313Y-253D1*
X17401Y-1238D1*
X16198Y-2222D1*
X14835Y-3206D1*
X39441Y27306D2*
Y26322D1*
Y25337D1*
Y24353D1*
Y23369D1*
Y22385D1*
Y21400D1*
Y20416D1*
Y19432D1*
Y18448D1*
Y17463D1*
Y16479D1*
Y15495D1*
Y14510D1*
Y13526D1*
Y12542D1*
Y11558D1*
Y10573D1*
Y9589D1*
Y8605D1*
Y7621D1*
Y6636D1*
Y5652D1*
Y4668D1*
Y3684D1*
Y2699D1*
Y1715D1*
Y731D1*
Y-253D1*
Y-1238D1*
Y-2222D1*
Y-3206D1*
X41409Y27306D2*
X41787Y26322D1*
X42245Y25337D1*
X42831Y24353D1*
X43580Y23369D1*
X44447Y22385D1*
X45376Y21400D1*
X46302Y20416D1*
X47126Y19432D1*
X47771Y18448D1*
X48299Y17463D1*
X-6819Y25337D2*
X-8438Y24353D1*
X-9715Y23369D1*
X-10611Y22385D1*
X-11281Y21400D1*
X-11517Y20416D1*
X-11641Y19432D1*
X-11664Y18448D1*
X-11559Y17463D1*
X-11297Y16479D1*
X-10919Y15495D1*
X-10474Y14510D1*
X-9967Y13526D1*
X-9354Y12542D1*
X-8594Y11558D1*
X-7722Y10573D1*
X-6787Y9589D1*
X-5823Y8605D1*
X-4846Y7621D1*
X-3869Y6636D1*
X-2920Y5652D1*
X-2061Y4668D1*
X-1317Y3684D1*
X-623Y2699D1*
X29Y1715D1*
X557Y731D1*
X974Y-253D1*
X1361Y-1238D1*
X1719Y-2222D1*
X2039Y-3206D1*
X-4850Y25337D2*
X-3870Y24353D1*
X-2924Y23369D1*
X-2104Y22385D1*
X-1515Y21400D1*
X-1161Y20416D1*
X-913Y19432D1*
X11882Y25337D2*
X10935Y24353D1*
X10081Y23369D1*
X9371Y22385D1*
X8803Y21400D1*
X8390Y20416D1*
X8149Y19432D1*
X8030Y18448D1*
X7978Y17463D1*
X7957Y16479D1*
X7949Y15495D1*
X7946Y14510D1*
X7945Y13526D1*
Y12542D1*
Y11558D1*
Y10573D1*
Y9589D1*
Y8605D1*
Y7621D1*
X7949Y6636D1*
X7983Y5652D1*
X8113Y4668D1*
X8387Y3684D1*
X8818Y2699D1*
X9374Y1715D1*
X10849Y731D1*
X13085Y-253D1*
X15819Y-1238D1*
X14835Y25337D2*
X15663Y24353D1*
X16365Y23369D1*
X16934Y22385D1*
X17381Y21400D1*
X17747Y20416D1*
X18102Y19432D1*
X18406Y18448D1*
X18599Y17463D1*
X18698Y16479D1*
X18743Y15495D1*
X18761Y14510D1*
X18768Y13526D1*
X18770Y12542D1*
X18771Y11558D1*
X18772Y10573D1*
Y9589D1*
X18768Y8605D1*
X18733Y7621D1*
X18608Y6636D1*
X18368Y5652D1*
X18081Y4668D1*
X17780Y3684D1*
X17399Y2699D1*
X16932Y1715D1*
X15904Y731D1*
X13596Y-253D1*
X10898Y-1238D1*
X42394Y20416D2*
Y19432D1*
Y18448D1*
Y17463D1*
Y16479D1*
Y15495D1*
Y14510D1*
Y13526D1*
Y12542D1*
Y11558D1*
Y10573D1*
Y9589D1*
Y8605D1*
Y7621D1*
Y6636D1*
Y5652D1*
Y4668D1*
Y3684D1*
Y2699D1*
Y1715D1*
Y731D1*
Y-253D1*
Y-1238D1*
Y-2222D1*
Y-3206D1*
X43378Y20416D2*
X44362Y19432D1*
X45346Y18448D1*
X46331Y17463D1*
X26646Y-253D2*
Y-1238D1*
Y-2222D1*
Y-3206D1*
X28614Y-253D2*
Y-1238D1*
Y-2222D1*
Y-3206D1*
X-14693Y-1238D2*
Y-2222D1*
Y-3206D1*
X-204412Y27219D2*
Y26235D1*
Y25251D1*
Y24266D1*
Y23282D1*
Y22298D1*
Y21314D1*
Y20329D1*
Y19345D1*
Y18361D1*
Y17377D1*
Y16392D1*
Y15408D1*
Y14424D1*
Y13440D1*
Y12455D1*
Y11471D1*
Y10487D1*
Y9503D1*
Y8518D1*
Y7534D1*
Y6550D1*
X-208349D1*
Y5566D1*
Y4581D1*
Y3597D1*
X-204412D1*
Y2613D1*
Y1629D1*
Y644D1*
Y-340D1*
Y-1324D1*
Y-2308D1*
Y-3293D1*
X-202444Y27219D2*
X-201833Y26235D1*
X-201272Y25251D1*
X-200745Y24266D1*
X-200235Y23282D1*
X-199705Y22298D1*
X-199117Y21314D1*
X-198482Y20329D1*
X-197879Y19345D1*
X-197326Y18361D1*
X-196804Y17377D1*
X-196300Y16392D1*
X-195802Y15408D1*
X-195309Y14424D1*
X-194816Y13440D1*
X-194320Y12455D1*
X-193796Y11471D1*
X-193214Y10487D1*
X-192615Y9503D1*
X-192141Y8518D1*
X-191859Y7534D1*
X-191718Y6550D1*
X-191656Y5566D1*
X-191630Y4581D1*
X-191617Y3597D1*
X-202444D1*
Y2613D1*
Y1629D1*
Y644D1*
Y-340D1*
Y-1324D1*
Y-2308D1*
Y-3293D1*
X-182759Y27219D2*
X-184041Y26235D1*
X-185029Y25251D1*
X-185773Y24266D1*
X-186374Y23282D1*
X-186876Y22298D1*
X-187257Y21314D1*
X-187484Y20329D1*
X-187601Y19345D1*
X-187686Y18361D1*
X-187832Y17377D1*
X-188075Y16392D1*
X-188330Y15408D1*
X-188503Y14424D1*
X-188595Y13440D1*
X-188636Y12455D1*
X-188650Y11471D1*
X-188622Y10487D1*
X-188499Y9503D1*
X-188264Y8518D1*
X-188012Y7534D1*
X-187840Y6550D1*
X-187745Y5566D1*
X-187669Y4581D1*
X-187522Y3597D1*
X-187245Y2613D1*
X-186861Y1629D1*
X-186411Y644D1*
X-185866Y-340D1*
X-185103Y-1324D1*
X-184023Y-2308D1*
X-182759Y-3293D1*
X-177837Y27219D2*
X-176891Y26235D1*
X-176036Y25251D1*
X-175326Y24266D1*
X-174755Y23282D1*
X-174307Y22298D1*
X-173941Y21314D1*
X-173586Y20329D1*
X-173281Y19345D1*
X-173089Y18361D1*
X-172990Y17377D1*
X-172945Y16392D1*
X-172927Y15408D1*
X-172920Y14424D1*
X-172917Y13440D1*
X-172916Y12455D1*
Y11471D1*
Y10487D1*
Y9503D1*
Y8518D1*
Y7534D1*
X-172920Y6550D1*
X-172954Y5566D1*
X-173084Y4581D1*
X-173354Y3597D1*
X-173736Y2613D1*
X-174182Y1629D1*
X-174693Y644D1*
X-175343Y-340D1*
X-176255Y-1324D1*
X-177458Y-2308D1*
X-178822Y-3293D1*
X-154215Y27219D2*
Y26235D1*
Y25251D1*
Y24266D1*
Y23282D1*
Y22298D1*
Y21314D1*
Y20329D1*
Y19345D1*
Y18361D1*
Y17377D1*
Y16392D1*
Y15408D1*
Y14424D1*
Y13440D1*
Y12455D1*
Y11471D1*
Y10487D1*
Y9503D1*
Y8518D1*
Y7534D1*
Y6550D1*
Y5566D1*
Y4581D1*
Y3597D1*
Y2613D1*
Y1629D1*
Y644D1*
Y-340D1*
Y-1324D1*
Y-2308D1*
Y-3293D1*
X-152247Y27219D2*
X-151869Y26235D1*
X-151411Y25251D1*
X-150825Y24266D1*
X-150077Y23282D1*
X-149209Y22298D1*
X-148281Y21314D1*
X-147355Y20329D1*
X-146530Y19345D1*
X-145885Y18361D1*
X-145357Y17377D1*
X-181774Y25251D2*
X-182721Y24266D1*
X-183575Y23282D1*
X-184285Y22298D1*
X-184853Y21314D1*
X-185266Y20329D1*
X-185507Y19345D1*
X-185626Y18361D1*
X-185678Y17377D1*
X-185699Y16392D1*
X-185707Y15408D1*
X-185710Y14424D1*
X-185711Y13440D1*
Y12455D1*
Y11471D1*
Y10487D1*
Y9503D1*
Y8518D1*
Y7534D1*
X-185707Y6550D1*
X-185673Y5566D1*
X-185544Y4581D1*
X-185269Y3597D1*
X-184838Y2613D1*
X-184283Y1629D1*
X-182807Y644D1*
X-180571Y-340D1*
X-177837Y-1324D1*
X-178822Y25251D2*
X-177993Y24266D1*
X-177291Y23282D1*
X-176722Y22298D1*
X-176275Y21314D1*
X-175909Y20329D1*
X-175554Y19345D1*
X-175250Y18361D1*
X-175057Y17377D1*
X-174958Y16392D1*
X-174914Y15408D1*
X-174895Y14424D1*
X-174888Y13440D1*
X-174886Y12455D1*
X-174885Y11471D1*
Y10487D1*
Y9503D1*
X-174888Y8518D1*
X-174923Y7534D1*
X-175048Y6550D1*
X-175288Y5566D1*
X-175575Y4581D1*
X-175876Y3597D1*
X-176257Y2613D1*
X-176724Y1629D1*
X-177752Y644D1*
X-180061Y-340D1*
X-182759Y-1324D1*
X-202444Y20329D2*
Y19345D1*
Y18361D1*
Y17377D1*
Y16392D1*
Y15408D1*
Y14424D1*
Y13440D1*
Y12455D1*
Y11471D1*
Y10487D1*
Y9503D1*
Y8518D1*
Y7534D1*
X-194570Y6550D1*
X-201459Y20329D2*
X-200631Y19345D1*
X-199925Y18361D1*
X-199325Y17377D1*
X-198784Y16392D1*
X-198273Y15408D1*
X-197772Y14424D1*
X-197274Y13440D1*
X-196750Y12455D1*
X-196163Y11471D1*
X-195526Y10487D1*
X-194897Y9503D1*
X-194257Y8518D1*
X-193585Y7534D1*
X-200475Y6550D1*
X-151262Y20329D2*
Y19345D1*
Y18361D1*
Y17377D1*
Y16392D1*
Y15408D1*
Y14424D1*
Y13440D1*
Y12455D1*
Y11471D1*
Y10487D1*
Y9503D1*
Y8518D1*
Y7534D1*
Y6550D1*
Y5566D1*
Y4581D1*
Y3597D1*
Y2613D1*
Y1629D1*
Y644D1*
Y-340D1*
Y-1324D1*
Y-2308D1*
Y-3293D1*
X-150278Y20329D2*
X-149294Y19345D1*
X-148310Y18361D1*
X-147325Y17377D1*
X-167010Y-340D2*
Y-1324D1*
Y-2308D1*
Y-3293D1*
X-165042Y-340D2*
Y-1324D1*
Y-2308D1*
Y-3293D1*
X-8398Y-63034D2*
X-9680Y-64018D1*
X-10669Y-65003D1*
X-11412Y-65987D1*
X-12013Y-66971D1*
X-12515Y-67955D1*
X-12896Y-68940D1*
X-13123Y-69924D1*
X-13241Y-70908D1*
X-13325Y-71892D1*
X-13471Y-72877D1*
X-13714Y-73861D1*
X-13969Y-74845D1*
X-14142Y-75829D1*
X-14234Y-76814D1*
X-14275Y-77798D1*
X-14289Y-78782D1*
X-14261Y-79766D1*
X-14138Y-80751D1*
X-13903Y-81735D1*
X-13651Y-82719D1*
X-13479Y-83703D1*
X-13384Y-84688D1*
X-13308Y-85672D1*
X-13162Y-86656D1*
X-12885Y-87640D1*
X-12500Y-88625D1*
X-12050Y-89609D1*
X-11505Y-90593D1*
X-10742Y-91577D1*
X-9662Y-92562D1*
X-8398Y-93546D1*
X-3476Y-63034D2*
X-2530Y-64018D1*
X-1675Y-65003D1*
X-965Y-65987D1*
X-394Y-66971D1*
X54Y-67955D1*
X420Y-68940D1*
X775Y-69924D1*
X1079Y-70908D1*
X1272Y-71892D1*
X1371Y-72877D1*
X1416Y-73861D1*
X1434Y-74845D1*
X1441Y-75829D1*
X1444Y-76814D1*
Y-77798D1*
X1445Y-78782D1*
Y-79766D1*
Y-80751D1*
Y-81735D1*
Y-82719D1*
X1441Y-83703D1*
X1406Y-84688D1*
X1277Y-85672D1*
X1007Y-86656D1*
X625Y-87640D1*
X179Y-88625D1*
X-332Y-89609D1*
X-982Y-90593D1*
X-1894Y-91577D1*
X-3097Y-92562D1*
X-4461Y-93546D1*
X11287Y-63034D2*
X10005Y-64018D1*
X9016Y-65003D1*
X8273Y-65987D1*
X7672Y-66971D1*
X7170Y-67955D1*
X6789Y-68940D1*
X6562Y-69924D1*
X6444Y-70908D1*
X6360Y-71892D1*
X6214Y-72877D1*
X5971Y-73861D1*
X5716Y-74845D1*
X5543Y-75829D1*
X5451Y-76814D1*
X5410Y-77798D1*
X5396Y-78782D1*
X5424Y-79766D1*
X5547Y-80751D1*
X5782Y-81735D1*
X6034Y-82719D1*
X6206Y-83703D1*
X6301Y-84688D1*
X6377Y-85672D1*
X6524Y-86656D1*
X6801Y-87640D1*
X7185Y-88625D1*
X7635Y-89609D1*
X8180Y-90593D1*
X8943Y-91577D1*
X10023Y-92562D1*
X11287Y-93546D1*
X16209Y-63034D2*
X17155Y-64018D1*
X18010Y-65003D1*
X18720Y-65987D1*
X19291Y-66971D1*
X19739Y-67955D1*
X20105Y-68940D1*
X20460Y-69924D1*
X20764Y-70908D1*
X20957Y-71892D1*
X21056Y-72877D1*
X21101Y-73861D1*
X21119Y-74845D1*
X21126Y-75829D1*
X21129Y-76814D1*
Y-77798D1*
X21130Y-78782D1*
Y-79766D1*
Y-80751D1*
Y-81735D1*
Y-82719D1*
X21126Y-83703D1*
X21091Y-84688D1*
X20962Y-85672D1*
X20692Y-86656D1*
X20310Y-87640D1*
X19864Y-88625D1*
X19353Y-89609D1*
X18703Y-90593D1*
X17791Y-91577D1*
X16588Y-92562D1*
X15224Y-93546D1*
X39831Y-63034D2*
Y-64018D1*
Y-65003D1*
Y-65987D1*
Y-66971D1*
Y-67955D1*
Y-68940D1*
Y-69924D1*
Y-70908D1*
Y-71892D1*
Y-72877D1*
Y-73861D1*
Y-74845D1*
Y-75829D1*
Y-76814D1*
Y-77798D1*
Y-78782D1*
Y-79766D1*
Y-80751D1*
Y-81735D1*
Y-82719D1*
Y-83703D1*
Y-84688D1*
Y-85672D1*
Y-86656D1*
Y-87640D1*
Y-88625D1*
Y-89609D1*
Y-90593D1*
Y-91577D1*
Y-92562D1*
Y-93546D1*
X41799Y-63034D2*
X42177Y-64018D1*
X42635Y-65003D1*
X43221Y-65987D1*
X43969Y-66971D1*
X44836Y-67955D1*
X45765Y-68940D1*
X46691Y-69924D1*
X47516Y-70908D1*
X48160Y-71892D1*
X48689Y-72877D1*
X-7413Y-65003D2*
X-8360Y-65987D1*
X-9214Y-66971D1*
X-9924Y-67955D1*
X-10492Y-68940D1*
X-10905Y-69924D1*
X-11146Y-70908D1*
X-11265Y-71892D1*
X-11317Y-72877D1*
X-11338Y-73861D1*
X-11346Y-74845D1*
X-11349Y-75829D1*
X-11350Y-76814D1*
Y-77798D1*
Y-78782D1*
Y-79766D1*
Y-80751D1*
Y-81735D1*
Y-82719D1*
X-11347Y-83703D1*
X-11312Y-84688D1*
X-11183Y-85672D1*
X-10908Y-86656D1*
X-10477Y-87640D1*
X-9922Y-88625D1*
X-8446Y-89609D1*
X-6210Y-90593D1*
X-3476Y-91577D1*
X-4461Y-65003D2*
X-3632Y-65987D1*
X-2931Y-66971D1*
X-2361Y-67955D1*
X-1914Y-68940D1*
X-1548Y-69924D1*
X-1194Y-70908D1*
X-889Y-71892D1*
X-696Y-72877D1*
X-597Y-73861D1*
X-553Y-74845D1*
X-534Y-75829D1*
X-527Y-76814D1*
X-525Y-77798D1*
X-524Y-78782D1*
Y-79766D1*
Y-80751D1*
X-527Y-81735D1*
X-562Y-82719D1*
X-688Y-83703D1*
X-927Y-84688D1*
X-1214Y-85672D1*
X-1515Y-86656D1*
X-1896Y-87640D1*
X-2364Y-88625D1*
X-3391Y-89609D1*
X-5700Y-90593D1*
X-8398Y-91577D1*
X12272Y-65003D2*
X11325Y-65987D1*
X10471Y-66971D1*
X9761Y-67955D1*
X9193Y-68940D1*
X8780Y-69924D1*
X8539Y-70908D1*
X8420Y-71892D1*
X8368Y-72877D1*
X8347Y-73861D1*
X8339Y-74845D1*
X8336Y-75829D1*
X8335Y-76814D1*
Y-77798D1*
Y-78782D1*
Y-79766D1*
Y-80751D1*
Y-81735D1*
Y-82719D1*
X8338Y-83703D1*
X8373Y-84688D1*
X8502Y-85672D1*
X8777Y-86656D1*
X9208Y-87640D1*
X9763Y-88625D1*
X11239Y-89609D1*
X13475Y-90593D1*
X16209Y-91577D1*
X15224Y-65003D2*
X16053Y-65987D1*
X16754Y-66971D1*
X17324Y-67955D1*
X17771Y-68940D1*
X18137Y-69924D1*
X18492Y-70908D1*
X18796Y-71892D1*
X18989Y-72877D1*
X19088Y-73861D1*
X19132Y-74845D1*
X19151Y-75829D1*
X19158Y-76814D1*
X19160Y-77798D1*
X19161Y-78782D1*
Y-79766D1*
Y-80751D1*
X19158Y-81735D1*
X19123Y-82719D1*
X18998Y-83703D1*
X18758Y-84688D1*
X18471Y-85672D1*
X18170Y-86656D1*
X17789Y-87640D1*
X17322Y-88625D1*
X16294Y-89609D1*
X13985Y-90593D1*
X11287Y-91577D1*
X42783Y-69924D2*
Y-70908D1*
Y-71892D1*
Y-72877D1*
Y-73861D1*
Y-74845D1*
Y-75829D1*
Y-76814D1*
Y-77798D1*
Y-78782D1*
Y-79766D1*
Y-80751D1*
Y-81735D1*
Y-82719D1*
Y-83703D1*
Y-84688D1*
Y-85672D1*
Y-86656D1*
Y-87640D1*
Y-88625D1*
Y-89609D1*
Y-90593D1*
Y-91577D1*
Y-92562D1*
Y-93546D1*
X43768Y-69924D2*
X44752Y-70908D1*
X45736Y-71892D1*
X46720Y-72877D1*
X27035Y-90593D2*
Y-91577D1*
Y-92562D1*
Y-93546D1*
X29004Y-90593D2*
Y-91577D1*
Y-92562D1*
Y-93546D1*
X-212598Y-60041D2*
Y-61025D1*
Y-62009D1*
Y-62993D1*
X-201772D1*
Y-63978D1*
X-201768Y-64962D1*
X-201733Y-65946D1*
X-201615Y-66930D1*
X-201455Y-67915D1*
X-201355Y-68899D1*
X-201953Y-69883D1*
X-202756Y-70867D1*
X-200787Y-60041D2*
X-200333Y-61025D1*
X-200050Y-62009D1*
X-199907Y-62993D1*
X-199840Y-63978D1*
X-199780Y-64962D1*
X-199645Y-65946D1*
X-199405Y-66930D1*
X-199152Y-67915D1*
X-198980Y-68899D1*
X-198884Y-69883D1*
X-198808Y-70867D1*
X-198673Y-71852D1*
X-198505Y-72836D1*
X-198403Y-73820D1*
X-199001Y-74804D1*
X-199803Y-75789D1*
X-187992Y-60041D2*
X-189275Y-61025D1*
X-190263Y-62009D1*
X-191006Y-62993D1*
X-191607Y-63978D1*
X-192110Y-64962D1*
X-192491Y-65946D1*
X-192718Y-66930D1*
X-192835Y-67915D1*
X-192920Y-68899D1*
X-193065Y-69883D1*
X-193309Y-70867D1*
X-193564Y-71852D1*
X-193737Y-72836D1*
X-193828Y-73820D1*
X-193870Y-74804D1*
X-193883Y-75789D1*
X-193855Y-76773D1*
X-193732Y-77757D1*
X-193498Y-78741D1*
X-193246Y-79726D1*
X-193074Y-80710D1*
X-192979Y-81694D1*
X-192903Y-82678D1*
X-192756Y-83663D1*
X-192479Y-84647D1*
X-192095Y-85631D1*
X-191644Y-86615D1*
X-191099Y-87600D1*
X-190337Y-88584D1*
X-189257Y-89568D1*
X-187992Y-90552D1*
X-183071Y-60041D2*
X-182124Y-61025D1*
X-181270Y-62009D1*
X-180560Y-62993D1*
X-179988Y-63978D1*
X-179541Y-64962D1*
X-179174Y-65946D1*
X-178820Y-66930D1*
X-178515Y-67915D1*
X-178322Y-68899D1*
X-178223Y-69883D1*
X-178179Y-70867D1*
X-178160Y-71852D1*
X-178153Y-72836D1*
X-178151Y-73820D1*
X-178150Y-74804D1*
Y-75789D1*
Y-76773D1*
Y-77757D1*
Y-78741D1*
Y-79726D1*
X-178153Y-80710D1*
X-178188Y-81694D1*
X-178317Y-82678D1*
X-178588Y-83663D1*
X-178969Y-84647D1*
X-179415Y-85631D1*
X-179926Y-86615D1*
X-180577Y-87600D1*
X-181489Y-88584D1*
X-182692Y-89568D1*
X-184055Y-90552D1*
X-158465Y-60041D2*
X-159747Y-61025D1*
X-160736Y-62009D1*
X-161479Y-62993D1*
X-162080Y-63978D1*
X-162582Y-64962D1*
X-162963Y-65946D1*
X-163190Y-66930D1*
X-163307Y-67915D1*
X-163392Y-68899D1*
X-163538Y-69883D1*
X-163781Y-70867D1*
X-164036Y-71852D1*
X-164209Y-72836D1*
X-164301Y-73820D1*
X-164342Y-74804D1*
X-164356Y-75789D1*
X-164328Y-76773D1*
X-164205Y-77757D1*
X-163970Y-78741D1*
X-163718Y-79726D1*
X-163546Y-80710D1*
X-163451Y-81694D1*
X-163375Y-82678D1*
X-163228Y-83663D1*
X-162951Y-84647D1*
X-162567Y-85631D1*
X-162117Y-86615D1*
X-161572Y-87600D1*
X-160809Y-88584D1*
X-159729Y-89568D1*
X-158465Y-90552D1*
X-153543Y-60041D2*
X-152597Y-61025D1*
X-151742Y-62009D1*
X-151032Y-62993D1*
X-150461Y-63978D1*
X-150013Y-64962D1*
X-149647Y-65946D1*
X-149292Y-66930D1*
X-148988Y-67915D1*
X-148795Y-68899D1*
X-148696Y-69883D1*
X-148651Y-70867D1*
X-148633Y-71852D1*
X-148626Y-72836D1*
X-148623Y-73820D1*
X-148622Y-74804D1*
Y-75789D1*
Y-76773D1*
Y-77757D1*
Y-78741D1*
Y-79726D1*
X-148626Y-80710D1*
X-148660Y-81694D1*
X-148790Y-82678D1*
X-149060Y-83663D1*
X-149442Y-84647D1*
X-149888Y-85631D1*
X-150399Y-86615D1*
X-151049Y-87600D1*
X-151961Y-88584D1*
X-153164Y-89568D1*
X-154528Y-90552D1*
X-187008Y-62009D2*
X-187955Y-62993D1*
X-188809Y-63978D1*
X-189519Y-64962D1*
X-190087Y-65946D1*
X-190500Y-66930D1*
X-190741Y-67915D1*
X-190860Y-68899D1*
X-190912Y-69883D1*
X-190933Y-70867D1*
X-190941Y-71852D1*
X-190943Y-72836D1*
X-190944Y-73820D1*
X-190945Y-74804D1*
Y-75789D1*
Y-76773D1*
Y-77757D1*
Y-78741D1*
Y-79726D1*
X-190941Y-80710D1*
X-190906Y-81694D1*
X-190777Y-82678D1*
X-190503Y-83663D1*
X-190071Y-84647D1*
X-189516Y-85631D1*
X-188041Y-86615D1*
X-185804Y-87600D1*
X-183071Y-88584D1*
X-184055Y-62009D2*
X-183227Y-62993D1*
X-182525Y-63978D1*
X-181956Y-64962D1*
X-181509Y-65946D1*
X-181143Y-66930D1*
X-180788Y-67915D1*
X-180484Y-68899D1*
X-180291Y-69883D1*
X-180192Y-70867D1*
X-180147Y-71852D1*
X-180129Y-72836D1*
X-180122Y-73820D1*
X-180119Y-74804D1*
Y-75789D1*
X-180118Y-76773D1*
Y-77757D1*
X-180122Y-78741D1*
X-180157Y-79726D1*
X-180282Y-80710D1*
X-180522Y-81694D1*
X-180809Y-82678D1*
X-181109Y-83663D1*
X-181490Y-84647D1*
X-181958Y-85631D1*
X-182986Y-86615D1*
X-185294Y-87600D1*
X-187992Y-88584D1*
X-157480Y-62009D2*
X-158427Y-62993D1*
X-159281Y-63978D1*
X-159991Y-64962D1*
X-160559Y-65946D1*
X-160972Y-66930D1*
X-161213Y-67915D1*
X-161332Y-68899D1*
X-161384Y-69883D1*
X-161405Y-70867D1*
X-161413Y-71852D1*
X-161416Y-72836D1*
X-161417Y-73820D1*
Y-74804D1*
Y-75789D1*
Y-76773D1*
Y-77757D1*
Y-78741D1*
Y-79726D1*
X-161413Y-80710D1*
X-161379Y-81694D1*
X-161250Y-82678D1*
X-160975Y-83663D1*
X-160544Y-84647D1*
X-159989Y-85631D1*
X-158513Y-86615D1*
X-156277Y-87600D1*
X-153543Y-88584D1*
X-154528Y-62009D2*
X-153699Y-62993D1*
X-152997Y-63978D1*
X-152428Y-64962D1*
X-151981Y-65946D1*
X-151615Y-66930D1*
X-151260Y-67915D1*
X-150956Y-68899D1*
X-150763Y-69883D1*
X-150664Y-70867D1*
X-150620Y-71852D1*
X-150601Y-72836D1*
X-150594Y-73820D1*
X-150592Y-74804D1*
X-150591Y-75789D1*
Y-76773D1*
Y-77757D1*
X-150594Y-78741D1*
X-150629Y-79726D1*
X-150754Y-80710D1*
X-150994Y-81694D1*
X-151281Y-82678D1*
X-151582Y-83663D1*
X-151963Y-84647D1*
X-152430Y-85631D1*
X-153458Y-86615D1*
X-155767Y-87600D1*
X-158465Y-88584D1*
X-207677Y-69883D2*
X-209078Y-70867D1*
X-210215Y-71852D1*
X-211068Y-72836D1*
X-211703Y-73820D1*
X-212177Y-74804D1*
X-212553Y-75789D1*
X-212911Y-76773D1*
X-213217Y-77757D1*
X-213406Y-78741D1*
X-213470Y-79726D1*
X-213390Y-80710D1*
X-213172Y-81694D1*
X-212923Y-82678D1*
X-212715Y-83663D1*
X-212465Y-84647D1*
X-212059Y-85631D1*
X-211511Y-86615D1*
X-210879Y-87600D1*
X-210065Y-88584D1*
X-208958Y-89568D1*
X-207677Y-90552D1*
X-203740Y-69883D2*
X-202756Y-70867D1*
X-206693Y-71852D2*
X-207673Y-72836D1*
X-208619Y-73820D1*
X-209439Y-74804D1*
X-210024Y-75789D1*
X-210356Y-76773D1*
X-210517Y-77757D1*
X-210586Y-78741D1*
X-210614Y-79726D1*
X-210620Y-80710D1*
X-210590Y-81694D1*
X-210462Y-82678D1*
X-210188Y-83663D1*
X-209756Y-84647D1*
X-209201Y-85631D1*
X-207726Y-86615D1*
X-205489Y-87600D1*
X-202756Y-88584D1*
X-203740Y-71852D2*
X-202796Y-72836D1*
X-201965Y-73820D1*
X-201317Y-74804D1*
X-200787Y-75789D1*
X-199803Y-82678D2*
X-200181Y-83663D1*
X-200654Y-84647D1*
X-201228Y-85631D1*
X-202706Y-86615D1*
X-204943Y-87600D1*
X-207677Y-88584D1*
X-197835Y-82678D2*
X-197872Y-83663D1*
X-198002Y-84647D1*
X-198276Y-85631D1*
X-198697Y-86615D1*
X-199305Y-87600D1*
X-200200Y-88584D1*
X-201396Y-89568D1*
X-202756Y-90552D1*
X-172244Y-87600D2*
Y-88584D1*
Y-89568D1*
Y-90552D1*
X-170276Y-87600D2*
Y-88584D1*
Y-89568D1*
Y-90552D1*
X-16008Y-155768D2*
X-15852Y-156752D1*
X-15569Y-157736D1*
X-15155Y-158720D1*
X-14617Y-159705D1*
X-14003Y-160689D1*
X-13408Y-161673D1*
X-12857Y-162657D1*
X-12336Y-163642D1*
X-11833Y-164626D1*
X-11339Y-165610D1*
X-10876Y-166594D1*
X-10478Y-167579D1*
X-10127Y-168563D1*
X-9745Y-169547D1*
X-9318Y-170531D1*
X-8887Y-171516D1*
X-8501Y-172500D1*
X-8160Y-173484D1*
X-7814Y-174469D1*
X-7513Y-175453D1*
X-7318Y-176437D1*
X-7185Y-177421D1*
X-7015Y-178406D1*
X-6761Y-179390D1*
X-6501Y-180374D1*
X-6327Y-181358D1*
X-6235Y-182343D1*
X-6193Y-183327D1*
X-6176Y-184311D1*
X-6169Y-185295D1*
X-6165Y-186280D1*
X-260Y-155768D2*
Y-156752D1*
Y-157736D1*
X9583Y-155768D2*
X8300Y-156752D1*
X7312Y-157736D1*
X6569Y-158720D1*
X5967Y-159705D1*
X5465Y-160689D1*
X5084Y-161673D1*
X4857Y-162657D1*
X4740Y-163642D1*
X4655Y-164626D1*
X4509Y-165610D1*
X4266Y-166594D1*
X4011Y-167579D1*
X3838Y-168563D1*
X3747Y-169547D1*
X3705Y-170531D1*
X3691Y-171516D1*
X3719Y-172500D1*
X3842Y-173484D1*
X4077Y-174469D1*
X4329Y-175453D1*
X4501Y-176437D1*
X4596Y-177421D1*
X4672Y-178406D1*
X4819Y-179390D1*
X5096Y-180374D1*
X5480Y-181358D1*
X5930Y-182343D1*
X6475Y-183327D1*
X7238Y-184311D1*
X8318Y-185295D1*
X9583Y-186280D1*
X14504Y-155768D2*
X15451Y-156752D1*
X16305Y-157736D1*
X17015Y-158720D1*
X17587Y-159705D1*
X18034Y-160689D1*
X18401Y-161673D1*
X18755Y-162657D1*
X19060Y-163642D1*
X19252Y-164626D1*
X19352Y-165610D1*
X19396Y-166594D1*
X19414Y-167579D1*
X19421Y-168563D1*
X19424Y-169547D1*
X19425Y-170531D1*
Y-171516D1*
Y-172500D1*
Y-173484D1*
Y-174469D1*
Y-175453D1*
X19421Y-176437D1*
X19387Y-177421D1*
X19257Y-178406D1*
X18987Y-179390D1*
X18606Y-180374D1*
X18160Y-181358D1*
X17648Y-182343D1*
X16998Y-183327D1*
X16086Y-184311D1*
X14883Y-185295D1*
X13520Y-186280D1*
X39110Y-155768D2*
X37828Y-156752D1*
X36839Y-157736D1*
X36096Y-158720D1*
X35495Y-159705D1*
X34993Y-160689D1*
X34612Y-161673D1*
X34385Y-162657D1*
X34267Y-163642D1*
X34183Y-164626D1*
X34037Y-165610D1*
X33794Y-166594D1*
X33538Y-167579D1*
X33366Y-168563D1*
X33274Y-169547D1*
X33232Y-170531D1*
X33219Y-171516D1*
X33247Y-172500D1*
X33370Y-173484D1*
X33605Y-174469D1*
X33857Y-175453D1*
X34028Y-176437D1*
X34123Y-177421D1*
X34200Y-178406D1*
X34346Y-179390D1*
X34623Y-180374D1*
X35007Y-181358D1*
X35458Y-182343D1*
X36003Y-183327D1*
X36766Y-184311D1*
X37846Y-185295D1*
X39110Y-186280D1*
X44031Y-155768D2*
X44978Y-156752D1*
X45833Y-157736D1*
X46542Y-158720D1*
X47114Y-159705D1*
X47562Y-160689D1*
X47928Y-161673D1*
X48283Y-162657D1*
X48587Y-163642D1*
X48780Y-164626D1*
X48879Y-165610D1*
X48924Y-166594D1*
X48942Y-167579D1*
X48949Y-168563D1*
X48951Y-169547D1*
X48952Y-170531D1*
X48953Y-171516D1*
Y-172500D1*
Y-173484D1*
Y-174469D1*
Y-175453D1*
X48949Y-176437D1*
X48914Y-177421D1*
X48785Y-178406D1*
X48515Y-179390D1*
X48133Y-180374D1*
X47687Y-181358D1*
X47176Y-182343D1*
X46525Y-183327D1*
X45614Y-184311D1*
X44411Y-185295D1*
X43047Y-186280D1*
X-13055Y-157736D2*
X-12227Y-158720D1*
X-11521Y-159705D1*
X-10921Y-160689D1*
X-10380Y-161673D1*
X-9868Y-162657D1*
X-9368Y-163642D1*
X-8874Y-164626D1*
X-8384Y-165610D1*
X-7923Y-166594D1*
X-7525Y-167579D1*
X-7178Y-168563D1*
X-6827Y-169547D1*
X-6491Y-170531D1*
X-6174Y-171516D1*
X-5839Y-172500D1*
X-5539Y-173484D1*
X-5314Y-174469D1*
X-5090Y-175453D1*
X-4810Y-176437D1*
X-4540Y-177421D1*
X-4361Y-178406D1*
X-4264Y-179390D1*
X-4186Y-180374D1*
X-4043Y-181358D1*
X-3801Y-182343D1*
X-3546Y-183327D1*
X-3373Y-184311D1*
X-3276Y-185295D1*
X-3213Y-186280D1*
X10567Y-157736D2*
X9620Y-158720D1*
X8766Y-159705D1*
X8056Y-160689D1*
X7488Y-161673D1*
X7075Y-162657D1*
X6834Y-163642D1*
X6715Y-164626D1*
X6663Y-165610D1*
X6642Y-166594D1*
X6634Y-167579D1*
X6631Y-168563D1*
X6630Y-169547D1*
Y-170531D1*
Y-171516D1*
Y-172500D1*
Y-173484D1*
Y-174469D1*
Y-175453D1*
X6634Y-176437D1*
X6668Y-177421D1*
X6798Y-178406D1*
X7072Y-179390D1*
X7503Y-180374D1*
X8059Y-181358D1*
X9534Y-182343D1*
X11770Y-183327D1*
X14504Y-184311D1*
X13520Y-157736D2*
X14348Y-158720D1*
X15050Y-159705D1*
X15619Y-160689D1*
X16066Y-161673D1*
X16432Y-162657D1*
X16787Y-163642D1*
X17091Y-164626D1*
X17284Y-165610D1*
X17383Y-166594D1*
X17428Y-167579D1*
X17446Y-168563D1*
X17453Y-169547D1*
X17455Y-170531D1*
X17456Y-171516D1*
X17457Y-172500D1*
Y-173484D1*
X17453Y-174469D1*
X17418Y-175453D1*
X17293Y-176437D1*
X17053Y-177421D1*
X16766Y-178406D1*
X16465Y-179390D1*
X16085Y-180374D1*
X15617Y-181358D1*
X14589Y-182343D1*
X12281Y-183327D1*
X9583Y-184311D1*
X40094Y-157736D2*
X39148Y-158720D1*
X38293Y-159705D1*
X37584Y-160689D1*
X37016Y-161673D1*
X36603Y-162657D1*
X36362Y-163642D1*
X36243Y-164626D1*
X36191Y-165610D1*
X36170Y-166594D1*
X36162Y-167579D1*
X36159Y-168563D1*
X36158Y-169547D1*
Y-170531D1*
Y-171516D1*
X36157Y-172500D1*
Y-173484D1*
Y-174469D1*
Y-175453D1*
X36161Y-176437D1*
X36196Y-177421D1*
X36325Y-178406D1*
X36599Y-179390D1*
X37031Y-180374D1*
X37586Y-181358D1*
X39062Y-182343D1*
X41298Y-183327D1*
X44031Y-184311D1*
X43047Y-157736D2*
X43876Y-158720D1*
X44577Y-159705D1*
X45147Y-160689D1*
X45594Y-161673D1*
X45960Y-162657D1*
X46314Y-163642D1*
X46619Y-164626D1*
X46811Y-165610D1*
X46911Y-166594D1*
X46955Y-167579D1*
X46973Y-168563D1*
X46980Y-169547D1*
X46983Y-170531D1*
X46984Y-171516D1*
Y-172500D1*
Y-173484D1*
X46980Y-174469D1*
X46946Y-175453D1*
X46820Y-176437D1*
X46581Y-177421D1*
X46294Y-178406D1*
X45993Y-179390D1*
X45612Y-180374D1*
X45144Y-181358D1*
X44117Y-182343D1*
X41808Y-183327D1*
X39110Y-184311D1*
X25331Y-183327D2*
Y-184311D1*
Y-185295D1*
Y-186280D1*
X27299Y-183327D2*
Y-184311D1*
Y-185295D1*
Y-186280D1*
X-209646Y-150592D2*
Y-151576D1*
Y-152560D1*
Y-153545D1*
Y-154529D1*
Y-155513D1*
Y-156497D1*
Y-157482D1*
Y-158466D1*
Y-159450D1*
Y-160434D1*
Y-161419D1*
Y-162403D1*
Y-163387D1*
Y-164371D1*
Y-165356D1*
Y-166340D1*
Y-167324D1*
Y-168308D1*
Y-169293D1*
Y-170277D1*
Y-171261D1*
X-213583D1*
Y-172245D1*
Y-173230D1*
Y-174214D1*
X-209646D1*
Y-175198D1*
Y-176182D1*
Y-177167D1*
Y-178151D1*
Y-179135D1*
Y-180119D1*
Y-181104D1*
X-207677Y-150592D2*
X-207067Y-151576D1*
X-206506Y-152560D1*
X-205978Y-153545D1*
X-205468Y-154529D1*
X-204939Y-155513D1*
X-204351Y-156497D1*
X-203716Y-157482D1*
X-203113Y-158466D1*
X-202560Y-159450D1*
X-202037Y-160434D1*
X-201534Y-161419D1*
X-201036Y-162403D1*
X-200543Y-163387D1*
X-200049Y-164371D1*
X-199554Y-165356D1*
X-199030Y-166340D1*
X-198448Y-167324D1*
X-197848Y-168308D1*
X-197375Y-169293D1*
X-197092Y-170277D1*
X-196952Y-171261D1*
X-196890Y-172245D1*
X-196864Y-173230D1*
X-196850Y-174214D1*
X-207677D1*
Y-175198D1*
Y-176182D1*
Y-177167D1*
Y-178151D1*
Y-179135D1*
Y-180119D1*
Y-181104D1*
X-187992Y-150592D2*
X-189275Y-151576D1*
X-190263Y-152560D1*
X-191006Y-153545D1*
X-191607Y-154529D1*
X-192110Y-155513D1*
X-192491Y-156497D1*
X-192718Y-157482D1*
X-192835Y-158466D1*
X-192920Y-159450D1*
X-193065Y-160434D1*
X-193309Y-161419D1*
X-193564Y-162403D1*
X-193737Y-163387D1*
X-193828Y-164371D1*
X-193870Y-165356D1*
X-193883Y-166340D1*
X-193855Y-167324D1*
X-193732Y-168308D1*
X-193498Y-169293D1*
X-193246Y-170277D1*
X-193074Y-171261D1*
X-192979Y-172245D1*
X-192903Y-173230D1*
X-192756Y-174214D1*
X-192479Y-175198D1*
X-192095Y-176182D1*
X-191644Y-177167D1*
X-191099Y-178151D1*
X-190337Y-179135D1*
X-189257Y-180119D1*
X-187992Y-181104D1*
X-183071Y-150592D2*
X-182124Y-151576D1*
X-181270Y-152560D1*
X-180560Y-153545D1*
X-179988Y-154529D1*
X-179541Y-155513D1*
X-179174Y-156497D1*
X-178820Y-157482D1*
X-178515Y-158466D1*
X-178322Y-159450D1*
X-178223Y-160434D1*
X-178179Y-161419D1*
X-178160Y-162403D1*
X-178153Y-163387D1*
X-178151Y-164371D1*
X-178150Y-165356D1*
Y-166340D1*
Y-167324D1*
Y-168308D1*
Y-169293D1*
Y-170277D1*
X-178153Y-171261D1*
X-178188Y-172245D1*
X-178317Y-173230D1*
X-178588Y-174214D1*
X-178969Y-175198D1*
X-179415Y-176182D1*
X-179926Y-177167D1*
X-180577Y-178151D1*
X-181489Y-179135D1*
X-182692Y-180119D1*
X-184055Y-181104D1*
X-158465Y-150592D2*
X-159747Y-151576D1*
X-160736Y-152560D1*
X-161479Y-153545D1*
X-162080Y-154529D1*
X-162582Y-155513D1*
X-162963Y-156497D1*
X-163190Y-157482D1*
X-163307Y-158466D1*
X-163392Y-159450D1*
X-163538Y-160434D1*
X-163781Y-161419D1*
X-164036Y-162403D1*
X-164209Y-163387D1*
X-164301Y-164371D1*
X-164342Y-165356D1*
X-164356Y-166340D1*
X-164328Y-167324D1*
X-164205Y-168308D1*
X-163970Y-169293D1*
X-163718Y-170277D1*
X-163546Y-171261D1*
X-163451Y-172245D1*
X-163375Y-173230D1*
X-163228Y-174214D1*
X-162951Y-175198D1*
X-162567Y-176182D1*
X-162117Y-177167D1*
X-161572Y-178151D1*
X-160809Y-179135D1*
X-159729Y-180119D1*
X-158465Y-181104D1*
X-153543Y-150592D2*
X-152597Y-151576D1*
X-151742Y-152560D1*
X-151032Y-153545D1*
X-150461Y-154529D1*
X-150013Y-155513D1*
X-149647Y-156497D1*
X-149292Y-157482D1*
X-148988Y-158466D1*
X-148795Y-159450D1*
X-148696Y-160434D1*
X-148651Y-161419D1*
X-148633Y-162403D1*
X-148626Y-163387D1*
X-148623Y-164371D1*
X-148622Y-165356D1*
Y-166340D1*
Y-167324D1*
Y-168308D1*
Y-169293D1*
Y-170277D1*
X-148626Y-171261D1*
X-148660Y-172245D1*
X-148790Y-173230D1*
X-149060Y-174214D1*
X-149442Y-175198D1*
X-149888Y-176182D1*
X-150399Y-177167D1*
X-151049Y-178151D1*
X-151961Y-179135D1*
X-153164Y-180119D1*
X-154528Y-181104D1*
X-187008Y-152560D2*
X-187955Y-153545D1*
X-188809Y-154529D1*
X-189519Y-155513D1*
X-190087Y-156497D1*
X-190500Y-157482D1*
X-190741Y-158466D1*
X-190860Y-159450D1*
X-190912Y-160434D1*
X-190933Y-161419D1*
X-190941Y-162403D1*
X-190943Y-163387D1*
X-190944Y-164371D1*
X-190945Y-165356D1*
Y-166340D1*
Y-167324D1*
Y-168308D1*
Y-169293D1*
Y-170277D1*
X-190941Y-171261D1*
X-190906Y-172245D1*
X-190777Y-173230D1*
X-190503Y-174214D1*
X-190071Y-175198D1*
X-189516Y-176182D1*
X-188041Y-177167D1*
X-185804Y-178151D1*
X-183071Y-179135D1*
X-184055Y-152560D2*
X-183227Y-153545D1*
X-182525Y-154529D1*
X-181956Y-155513D1*
X-181509Y-156497D1*
X-181143Y-157482D1*
X-180788Y-158466D1*
X-180484Y-159450D1*
X-180291Y-160434D1*
X-180192Y-161419D1*
X-180147Y-162403D1*
X-180129Y-163387D1*
X-180122Y-164371D1*
X-180119Y-165356D1*
Y-166340D1*
X-180118Y-167324D1*
Y-168308D1*
X-180122Y-169293D1*
X-180157Y-170277D1*
X-180282Y-171261D1*
X-180522Y-172245D1*
X-180809Y-173230D1*
X-181109Y-174214D1*
X-181490Y-175198D1*
X-181958Y-176182D1*
X-182986Y-177167D1*
X-185294Y-178151D1*
X-187992Y-179135D1*
X-157480Y-152560D2*
X-158427Y-153545D1*
X-159281Y-154529D1*
X-159991Y-155513D1*
X-160559Y-156497D1*
X-160972Y-157482D1*
X-161213Y-158466D1*
X-161332Y-159450D1*
X-161384Y-160434D1*
X-161405Y-161419D1*
X-161413Y-162403D1*
X-161416Y-163387D1*
X-161417Y-164371D1*
Y-165356D1*
Y-166340D1*
Y-167324D1*
Y-168308D1*
Y-169293D1*
Y-170277D1*
X-161413Y-171261D1*
X-161379Y-172245D1*
X-161250Y-173230D1*
X-160975Y-174214D1*
X-160544Y-175198D1*
X-159989Y-176182D1*
X-158513Y-177167D1*
X-156277Y-178151D1*
X-153543Y-179135D1*
X-154528Y-152560D2*
X-153699Y-153545D1*
X-152997Y-154529D1*
X-152428Y-155513D1*
X-151981Y-156497D1*
X-151615Y-157482D1*
X-151260Y-158466D1*
X-150956Y-159450D1*
X-150763Y-160434D1*
X-150664Y-161419D1*
X-150620Y-162403D1*
X-150601Y-163387D1*
X-150594Y-164371D1*
X-150592Y-165356D1*
X-150591Y-166340D1*
Y-167324D1*
Y-168308D1*
X-150594Y-169293D1*
X-150629Y-170277D1*
X-150754Y-171261D1*
X-150994Y-172245D1*
X-151281Y-173230D1*
X-151582Y-174214D1*
X-151963Y-175198D1*
X-152430Y-176182D1*
X-153458Y-177167D1*
X-155767Y-178151D1*
X-158465Y-179135D1*
X-207677Y-157482D2*
Y-158466D1*
Y-159450D1*
Y-160434D1*
Y-161419D1*
Y-162403D1*
Y-163387D1*
Y-164371D1*
Y-165356D1*
Y-166340D1*
Y-167324D1*
Y-168308D1*
Y-169293D1*
Y-170277D1*
X-199803Y-171261D1*
X-206693Y-157482D2*
X-205865Y-158466D1*
X-205159Y-159450D1*
X-204559Y-160434D1*
X-204017Y-161419D1*
X-203506Y-162403D1*
X-203006Y-163387D1*
X-202508Y-164371D1*
X-201983Y-165356D1*
X-201397Y-166340D1*
X-200760Y-167324D1*
X-200131Y-168308D1*
X-199491Y-169293D1*
X-198819Y-170277D1*
X-205709Y-171261D1*
X-172244Y-178151D2*
Y-179135D1*
Y-180119D1*
Y-181104D1*
X-170276Y-178151D2*
Y-179135D1*
Y-180119D1*
Y-181104D1*
X-15236Y-1048930D2*
X-16217Y-1049915D1*
X-17162Y-1050899D1*
X-17987Y-1051883D1*
X-18606Y-1052867D1*
X-19064Y-1053852D1*
X-19460Y-1054836D1*
X-19778Y-1055820D1*
X-19942Y-1056804D1*
X-19919Y-1057789D1*
X-19725Y-1058773D1*
X-19456Y-1059757D1*
X-19162Y-1060741D1*
X-18799Y-1061726D1*
X-18346Y-1062710D1*
X-17792Y-1063694D1*
X-17168Y-1064678D1*
X-16536Y-1065663D1*
X-15855Y-1066647D1*
X-15064Y-1067631D1*
X-14178Y-1068615D1*
X-13239Y-1069600D1*
X-12273Y-1070584D1*
X-11299Y-1071568D1*
X-10352Y-1072552D1*
X-9494Y-1073537D1*
X-8746Y-1074521D1*
X-8017Y-1075505D1*
X-7219Y-1076490D1*
X-6378Y-1077474D1*
X-9331Y-1048930D2*
X-7930Y-1049915D1*
X-6793Y-1050899D1*
X-5940Y-1051883D1*
X-5308Y-1052867D1*
X-4870Y-1053852D1*
X-4618Y-1054836D1*
X-4490Y-1055820D1*
X-4409Y-1056804D1*
X5433Y-1048930D2*
X4268Y-1049915D1*
X3274Y-1050899D1*
X2521Y-1051883D1*
X2013Y-1052867D1*
X1729Y-1053852D1*
X1592Y-1054836D1*
X1533Y-1055820D1*
X1513Y-1056804D1*
X1543Y-1057789D1*
X1700Y-1058773D1*
X2056Y-1059757D1*
X2506Y-1060741D1*
X2893Y-1061726D1*
X2771Y-1062710D1*
X2187Y-1063694D1*
X1556Y-1064678D1*
X1024Y-1065663D1*
X601Y-1066647D1*
X218Y-1067631D1*
X-95Y-1068615D1*
X-258Y-1069600D1*
X-234Y-1070584D1*
X-40Y-1071568D1*
X229Y-1072552D1*
X523Y-1073537D1*
X886Y-1074521D1*
X1347Y-1075505D1*
X1972Y-1076490D1*
X2873Y-1077474D1*
X4072Y-1078458D1*
X5433Y-1079442D1*
X10354Y-1048930D2*
X11637Y-1049915D1*
X12625Y-1050899D1*
X13368Y-1051883D1*
X13970Y-1052867D1*
X14482Y-1053852D1*
X14909Y-1054836D1*
X15276Y-1055820D1*
X25118Y-1048930D2*
X23835Y-1049915D1*
X22847Y-1050899D1*
X22104Y-1051883D1*
X21503Y-1052867D1*
X21001Y-1053852D1*
X20620Y-1054836D1*
X20392Y-1055820D1*
X20275Y-1056804D1*
X20191Y-1057789D1*
X20045Y-1058773D1*
X19801Y-1059757D1*
X19546Y-1060741D1*
X19374Y-1061726D1*
X19282Y-1062710D1*
X19240Y-1063694D1*
X19227Y-1064678D1*
X19255Y-1065663D1*
X19378Y-1066647D1*
X19613Y-1067631D1*
X19865Y-1068615D1*
X20036Y-1069600D1*
X20131Y-1070584D1*
X20208Y-1071568D1*
X20354Y-1072552D1*
X20631Y-1073537D1*
X21015Y-1074521D1*
X21466Y-1075505D1*
X22011Y-1076490D1*
X22773Y-1077474D1*
X23854Y-1078458D1*
X25118Y-1079442D1*
X30039Y-1048930D2*
X30986Y-1049915D1*
X31840Y-1050899D1*
X32550Y-1051883D1*
X33122Y-1052867D1*
X33570Y-1053852D1*
X33936Y-1054836D1*
X34291Y-1055820D1*
X34595Y-1056804D1*
X34788Y-1057789D1*
X34887Y-1058773D1*
X34932Y-1059757D1*
X34950Y-1060741D1*
X34957Y-1061726D1*
X34959Y-1062710D1*
X34960Y-1063694D1*
Y-1064678D1*
X34961Y-1065663D1*
Y-1066647D1*
Y-1067631D1*
Y-1068615D1*
X34957Y-1069600D1*
X34922Y-1070584D1*
X34793Y-1071568D1*
X34523Y-1072552D1*
X34141Y-1073537D1*
X33695Y-1074521D1*
X33184Y-1075505D1*
X32533Y-1076490D1*
X31621Y-1077474D1*
X30419Y-1078458D1*
X29055Y-1079442D1*
X43819Y-1048930D2*
X42838Y-1049915D1*
X41893Y-1050899D1*
X41068Y-1051883D1*
X40449Y-1052867D1*
X39992Y-1053852D1*
X39595Y-1054836D1*
X39277Y-1055820D1*
X39113Y-1056804D1*
X39136Y-1057789D1*
X39331Y-1058773D1*
X39599Y-1059757D1*
X39893Y-1060741D1*
X40256Y-1061726D1*
X40709Y-1062710D1*
X41263Y-1063694D1*
X41887Y-1064678D1*
X42519Y-1065663D1*
X43200Y-1066647D1*
X43992Y-1067631D1*
X44877Y-1068615D1*
X45816Y-1069600D1*
X46782Y-1070584D1*
X47756Y-1071568D1*
X48703Y-1072552D1*
X49561Y-1073537D1*
X50309Y-1074521D1*
X51038Y-1075505D1*
X51836Y-1076490D1*
X52677Y-1077474D1*
X49724Y-1048930D2*
X51126Y-1049915D1*
X52262Y-1050899D1*
X53115Y-1051883D1*
X53747Y-1052867D1*
X54186Y-1053852D1*
X54437Y-1054836D1*
X54565Y-1055820D1*
X54646Y-1056804D1*
X64488Y-1048930D2*
X63206Y-1049915D1*
X62217Y-1050899D1*
X61474Y-1051883D1*
X60873Y-1052867D1*
X60371Y-1053852D1*
X59990Y-1054836D1*
X59766Y-1055820D1*
X59688Y-1056804D1*
X59763Y-1057789D1*
X59982Y-1058773D1*
X60265Y-1059757D1*
X60598Y-1060741D1*
X61096Y-1061726D1*
X61864Y-1062710D1*
X63009Y-1063694D1*
X64601Y-1064678D1*
X66457Y-1065663D1*
X65510Y-1066647D1*
X64656Y-1067631D1*
X63942Y-1068615D1*
X63339Y-1069600D1*
X62797Y-1070584D1*
X62282Y-1071568D1*
X61751Y-1072552D1*
X61162Y-1073537D1*
X60527Y-1074521D1*
X59924Y-1075505D1*
X59368Y-1076490D1*
X58820Y-1077474D1*
X58233Y-1078458D1*
X57598Y-1079442D1*
X79252Y-1048930D2*
Y-1049915D1*
Y-1050899D1*
Y-1051883D1*
Y-1052867D1*
Y-1053852D1*
Y-1054836D1*
Y-1055820D1*
Y-1056804D1*
Y-1057789D1*
Y-1058773D1*
Y-1059757D1*
Y-1060741D1*
Y-1061726D1*
Y-1062710D1*
Y-1063694D1*
Y-1064678D1*
Y-1065663D1*
Y-1066647D1*
Y-1067631D1*
Y-1068615D1*
Y-1069600D1*
Y-1070584D1*
Y-1071568D1*
Y-1072552D1*
Y-1073537D1*
Y-1074521D1*
Y-1075505D1*
Y-1076490D1*
Y-1077474D1*
Y-1078458D1*
Y-1079442D1*
X91063Y-1048930D2*
X89628Y-1049915D1*
X88396Y-1050899D1*
X87398Y-1051883D1*
X86621Y-1052867D1*
X85989Y-1053852D1*
X85412Y-1054836D1*
X84813Y-1055820D1*
X84173Y-1056804D1*
X86142Y-1057789D1*
X96969Y-1048930D2*
X98740Y-1049915D1*
X100265Y-1050899D1*
X101450Y-1051883D1*
X102323Y-1052867D1*
X102995Y-1053852D1*
X103561Y-1054836D1*
X104048Y-1055820D1*
X104427Y-1056804D1*
X104687Y-1057789D1*
X104925Y-1058773D1*
X105210Y-1059757D1*
X105483Y-1060741D1*
X105662Y-1061726D1*
X105756Y-1062710D1*
X105799Y-1063694D1*
X105812Y-1064678D1*
X105785Y-1065663D1*
X105662Y-1066647D1*
X105427Y-1067631D1*
X105171Y-1068615D1*
X104965Y-1069600D1*
X104744Y-1070584D1*
X104432Y-1071568D1*
X104033Y-1072552D1*
X103581Y-1073537D1*
X103071Y-1074521D1*
X102453Y-1075505D1*
X101655Y-1076490D1*
X100631Y-1077474D1*
X99362Y-1078458D1*
X97953Y-1079442D1*
X-12283Y-1050899D2*
X-13903Y-1051883D1*
X-15180Y-1052867D1*
X-16075Y-1053852D1*
X-16746Y-1054836D1*
X-16982Y-1055820D1*
X-17106Y-1056804D1*
X-17129Y-1057789D1*
X-17023Y-1058773D1*
X-16762Y-1059757D1*
X-16383Y-1060741D1*
X-15939Y-1061726D1*
X-15432Y-1062710D1*
X-14819Y-1063694D1*
X-14058Y-1064678D1*
X-13186Y-1065663D1*
X-12252Y-1066647D1*
X-11287Y-1067631D1*
X-10311Y-1068615D1*
X-9333Y-1069600D1*
X-8384Y-1070584D1*
X-7526Y-1071568D1*
X-6781Y-1072552D1*
X-6088Y-1073537D1*
X-5435Y-1074521D1*
X-4907Y-1075505D1*
X-4491Y-1076490D1*
X-4103Y-1077474D1*
X-3745Y-1078458D1*
X-3425Y-1079442D1*
X-10315Y-1050899D2*
X-9335Y-1051883D1*
X-8389Y-1052867D1*
X-7568Y-1053852D1*
X-6980Y-1054836D1*
X-6625Y-1055820D1*
X-6378Y-1056804D1*
X6417Y-1050899D2*
X5474Y-1051883D1*
X4655Y-1052867D1*
X4070Y-1053852D1*
X3738Y-1054836D1*
X3581Y-1055820D1*
X3554Y-1056804D1*
X3623Y-1057789D1*
X4131Y-1058773D1*
X5364Y-1059757D1*
X6781Y-1060741D1*
X7990Y-1061726D1*
X8788Y-1062710D1*
X9370Y-1063694D1*
X6842Y-1064678D1*
X5000Y-1065663D1*
X3642Y-1066647D1*
X3075Y-1067631D1*
X2747Y-1068615D1*
X2589Y-1069600D1*
X2526Y-1070584D1*
X2538Y-1071568D1*
X2692Y-1072552D1*
X2994Y-1073537D1*
X3877Y-1074521D1*
X5329Y-1075505D1*
X7592Y-1076490D1*
X10354Y-1077474D1*
X9370Y-1050899D2*
X10313Y-1051883D1*
X11133Y-1052867D1*
X11721Y-1053852D1*
X12076Y-1054836D1*
X12323Y-1055820D1*
X26102Y-1050899D2*
X25156Y-1051883D1*
X24301Y-1052867D1*
X23591Y-1053852D1*
X23023Y-1054836D1*
X22611Y-1055820D1*
X22370Y-1056804D1*
X22251Y-1057789D1*
X22199Y-1058773D1*
X22178Y-1059757D1*
X22170Y-1060741D1*
X22167Y-1061726D1*
X22166Y-1062710D1*
Y-1063694D1*
X22165Y-1064678D1*
Y-1065663D1*
Y-1066647D1*
Y-1067631D1*
Y-1068615D1*
X22169Y-1069600D1*
X22204Y-1070584D1*
X22333Y-1071568D1*
X22607Y-1072552D1*
X23039Y-1073537D1*
X23594Y-1074521D1*
X25069Y-1075505D1*
X27306Y-1076490D1*
X30039Y-1077474D1*
X29055Y-1050899D2*
X29883Y-1051883D1*
X30585Y-1052867D1*
X31155Y-1053852D1*
X31601Y-1054836D1*
X31968Y-1055820D1*
X32322Y-1056804D1*
X32627Y-1057789D1*
X32819Y-1058773D1*
X32918Y-1059757D1*
X32963Y-1060741D1*
X32981Y-1061726D1*
X32988Y-1062710D1*
X32991Y-1063694D1*
X32992Y-1064678D1*
Y-1065663D1*
Y-1066647D1*
X32988Y-1067631D1*
X32954Y-1068615D1*
X32828Y-1069600D1*
X32589Y-1070584D1*
X32302Y-1071568D1*
X32001Y-1072552D1*
X31620Y-1073537D1*
X31152Y-1074521D1*
X30124Y-1075505D1*
X27816Y-1076490D1*
X25118Y-1077474D1*
X46772Y-1050899D2*
X45153Y-1051883D1*
X43875Y-1052867D1*
X42980Y-1053852D1*
X42309Y-1054836D1*
X42073Y-1055820D1*
X41949Y-1056804D1*
X41926Y-1057789D1*
X42032Y-1058773D1*
X42293Y-1059757D1*
X42672Y-1060741D1*
X43116Y-1061726D1*
X43624Y-1062710D1*
X44237Y-1063694D1*
X44997Y-1064678D1*
X45869Y-1065663D1*
X46804Y-1066647D1*
X47768Y-1067631D1*
X48744Y-1068615D1*
X49722Y-1069600D1*
X50671Y-1070584D1*
X51529Y-1071568D1*
X52274Y-1072552D1*
X52967Y-1073537D1*
X53620Y-1074521D1*
X54148Y-1075505D1*
X54564Y-1076490D1*
X54952Y-1077474D1*
X55310Y-1078458D1*
X55630Y-1079442D1*
X48740Y-1050899D2*
X49721Y-1051883D1*
X50666Y-1052867D1*
X51487Y-1053852D1*
X52075Y-1054836D1*
X52430Y-1055820D1*
X52677Y-1056804D1*
X67441Y-1050899D2*
X65822Y-1051883D1*
X64544Y-1052867D1*
X63649Y-1053852D1*
X62978Y-1054836D1*
X62743Y-1055820D1*
X62619Y-1056804D1*
X62599Y-1057789D1*
X62740Y-1058773D1*
X63035Y-1059757D1*
X63880Y-1060741D1*
X66641Y-1061726D1*
X71320Y-1062710D1*
X77283Y-1063694D1*
Y-1050899D2*
Y-1051883D1*
Y-1052867D1*
Y-1053852D1*
Y-1054836D1*
Y-1055820D1*
Y-1056804D1*
Y-1057789D1*
Y-1058773D1*
Y-1059757D1*
Y-1060741D1*
Y-1061726D1*
Y-1062710D1*
X66457Y-1063694D1*
X93031Y-1050899D2*
X91409Y-1051883D1*
X90097Y-1052867D1*
X89076Y-1053852D1*
X88268Y-1054836D1*
X87702Y-1055820D1*
X87363Y-1056804D1*
X87126Y-1057789D1*
X95000Y-1050899D2*
X96771Y-1051883D1*
X98296Y-1052867D1*
X99481Y-1053852D1*
X100355Y-1054836D1*
X101027Y-1055820D1*
X101593Y-1056804D1*
X102080Y-1057789D1*
X102455Y-1058773D1*
X102680Y-1059757D1*
X102792Y-1060741D1*
X102842Y-1061726D1*
X102862Y-1062710D1*
X102870Y-1063694D1*
X102873Y-1064678D1*
X102874Y-1065663D1*
X102870Y-1066647D1*
X102836Y-1067631D1*
X102706Y-1068615D1*
X102436Y-1069600D1*
X102054Y-1070584D1*
X101608Y-1071568D1*
X101097Y-1072552D1*
X100426Y-1073537D1*
X99559Y-1074521D1*
X97347Y-1075505D1*
X94057Y-1076490D1*
X90079Y-1077474D1*
X70394Y-1065663D2*
X69413Y-1066647D1*
X68464Y-1067631D1*
X67609Y-1068615D1*
X66895Y-1069600D1*
X66288Y-1070584D1*
X65715Y-1071568D1*
X65109Y-1072552D1*
X64468Y-1073537D1*
X63862Y-1074521D1*
X63308Y-1075505D1*
X62789Y-1076490D1*
X62310Y-1077474D1*
X61895Y-1078458D1*
X61535Y-1079442D1*
X77283Y-1065663D2*
Y-1066647D1*
Y-1067631D1*
Y-1068615D1*
Y-1069600D1*
Y-1070584D1*
Y-1071568D1*
Y-1072552D1*
Y-1073537D1*
Y-1074521D1*
Y-1075505D1*
Y-1076490D1*
Y-1077474D1*
Y-1078458D1*
Y-1079442D1*
X85157Y-1068615D2*
X84741Y-1069600D1*
X84486Y-1070584D1*
X84690Y-1071568D1*
X85027Y-1072552D1*
X85452Y-1073537D1*
X85951Y-1074521D1*
X86565Y-1075505D1*
X87362Y-1076490D1*
X88385Y-1077474D1*
X89654Y-1078458D1*
X91063Y-1079442D1*
X86142Y-1068615D2*
X86482Y-1069600D1*
X86813Y-1070584D1*
X87164Y-1071568D1*
X87660Y-1072552D1*
X88375Y-1073537D1*
X89403Y-1074521D1*
X91086Y-1075505D1*
X93726Y-1076490D1*
X96969Y-1077474D1*
X13307Y-1071568D2*
X12929Y-1072552D1*
X12456Y-1073537D1*
X11882Y-1074521D1*
X10404Y-1075505D1*
X8167Y-1076490D1*
X5433Y-1077474D1*
X15276Y-1071568D2*
X15238Y-1072552D1*
X15108Y-1073537D1*
X14834Y-1074521D1*
X14414Y-1075505D1*
X13805Y-1076490D1*
X12910Y-1077474D1*
X11714Y-1078458D1*
X10354Y-1079442D1*
X-20157Y-1077474D2*
Y-1078458D1*
Y-1079442D1*
X38898Y-1077474D2*
Y-1078458D1*
Y-1079442D1*
X-2744Y-1670480D2*
X-4027Y-1671465D1*
X-5011Y-1672449D1*
X-5724Y-1673433D1*
X-6234Y-1674417D1*
X-6626Y-1675402D1*
X-6986Y-1676386D1*
X-7260Y-1677370D1*
X-7409Y-1678354D1*
X-7171Y-1679339D1*
X-6783Y-1680323D1*
X-6226Y-1681307D1*
X-5490Y-1682291D1*
X-4633Y-1683276D1*
X-3728Y-1684260D1*
X-5126Y-1685244D1*
X-6232Y-1686228D1*
X-6994Y-1687213D1*
X-7515Y-1688197D1*
X-7937Y-1689181D1*
X-8268Y-1690165D1*
X-8467Y-1691150D1*
X-8536Y-1692134D1*
X-8456Y-1693118D1*
X-8235Y-1694102D1*
X-7951Y-1695087D1*
X-7618Y-1696071D1*
X-7125Y-1697055D1*
X-6394Y-1698039D1*
X-5401Y-1699024D1*
X-4145Y-1700008D1*
X-2744Y-1700992D1*
X2177Y-1670480D2*
X3158Y-1671465D1*
X4103Y-1672449D1*
X4924Y-1673433D1*
X5508Y-1674417D1*
X5841Y-1675402D1*
X6001Y-1676386D1*
X6071Y-1677370D1*
X6094Y-1678354D1*
X6066Y-1679339D1*
X5906Y-1680323D1*
X5508Y-1681307D1*
X4857Y-1682291D1*
X4041Y-1683276D1*
X3161Y-1684260D1*
X4444Y-1685244D1*
X5429Y-1686228D1*
X6137Y-1687213D1*
X6613Y-1688197D1*
X6879Y-1689181D1*
X7008Y-1690165D1*
X7063Y-1691150D1*
X7086Y-1692134D1*
X7090Y-1693118D1*
X7058Y-1694102D1*
X6930Y-1695087D1*
X6656Y-1696071D1*
X6236Y-1697055D1*
X5628Y-1698039D1*
X4733Y-1699024D1*
X3537Y-1700008D1*
X2177Y-1700992D1*
X13004Y-1670480D2*
Y-1671465D1*
Y-1672449D1*
Y-1673433D1*
Y-1674417D1*
Y-1675402D1*
Y-1676386D1*
Y-1677370D1*
Y-1678354D1*
Y-1679339D1*
Y-1680323D1*
Y-1681307D1*
Y-1682291D1*
Y-1683276D1*
Y-1684260D1*
Y-1685244D1*
Y-1686228D1*
Y-1687213D1*
Y-1688197D1*
Y-1689181D1*
Y-1690165D1*
X13008Y-1691150D1*
X13042Y-1692134D1*
X13168Y-1693118D1*
X13407Y-1694102D1*
X13698Y-1695087D1*
X14034Y-1696071D1*
X14528Y-1697055D1*
X15260Y-1698039D1*
X16252Y-1699024D1*
X17508Y-1700008D1*
X18909Y-1700992D1*
X14972Y-1670480D2*
Y-1671465D1*
Y-1672449D1*
Y-1673433D1*
Y-1674417D1*
Y-1675402D1*
Y-1676386D1*
Y-1677370D1*
Y-1678354D1*
Y-1679339D1*
Y-1680323D1*
Y-1681307D1*
Y-1682291D1*
Y-1683276D1*
Y-1684260D1*
Y-1685244D1*
Y-1686228D1*
Y-1687213D1*
Y-1688197D1*
X14976Y-1689181D1*
X15011Y-1690165D1*
X15136Y-1691150D1*
X15376Y-1692134D1*
X15663Y-1693118D1*
X15968Y-1694102D1*
X16395Y-1695087D1*
X16978Y-1696071D1*
X19070Y-1697055D1*
X22500Y-1698039D1*
X26783Y-1699024D1*
X29736Y-1670480D2*
Y-1671465D1*
Y-1672449D1*
Y-1673433D1*
Y-1674417D1*
Y-1675402D1*
Y-1676386D1*
Y-1677370D1*
Y-1678354D1*
Y-1679339D1*
Y-1680323D1*
Y-1681307D1*
Y-1682291D1*
Y-1683276D1*
Y-1684260D1*
Y-1685244D1*
Y-1686228D1*
Y-1687213D1*
X29732Y-1688197D1*
X29698Y-1689181D1*
X29572Y-1690165D1*
X29337Y-1691150D1*
X29080Y-1692134D1*
X28870Y-1693118D1*
X28615Y-1694102D1*
X28256Y-1695087D1*
X27475Y-1696071D1*
X25569Y-1697055D1*
X22594Y-1698039D1*
X18909Y-1699024D1*
X31705Y-1670480D2*
Y-1671465D1*
Y-1672449D1*
Y-1673433D1*
Y-1674417D1*
Y-1675402D1*
Y-1676386D1*
Y-1677370D1*
Y-1678354D1*
Y-1679339D1*
Y-1680323D1*
Y-1681307D1*
Y-1682291D1*
Y-1683276D1*
Y-1684260D1*
Y-1685244D1*
Y-1686228D1*
Y-1687213D1*
Y-1688197D1*
Y-1689181D1*
X31701Y-1690165D1*
X31666Y-1691150D1*
X31541Y-1692134D1*
X31301Y-1693118D1*
X31014Y-1694102D1*
X30713Y-1695087D1*
X30348Y-1696071D1*
X29886Y-1697055D1*
X29260Y-1698039D1*
X28359Y-1699024D1*
X27161Y-1700008D1*
X25799Y-1700992D1*
X-1760Y-1672449D2*
X-2703Y-1673433D1*
X-3522Y-1674417D1*
X-4107Y-1675402D1*
X-4439Y-1676386D1*
X-4596Y-1677370D1*
X-4627Y-1678354D1*
X-4569Y-1679339D1*
X-4135Y-1680323D1*
X-2730Y-1681307D1*
X-532Y-1682291D1*
X2177Y-1683276D1*
X1193Y-1672449D2*
X2021Y-1673433D1*
X2723Y-1674417D1*
X3289Y-1675402D1*
X3697Y-1676386D1*
X3903Y-1677370D1*
X3893Y-1678354D1*
X3655Y-1679339D1*
X3266Y-1680323D1*
X2254Y-1681307D1*
X-49Y-1682291D1*
X-2744Y-1683276D1*
X-1760Y-1685244D2*
X-2740Y-1686228D1*
X-3686Y-1687213D1*
X-4506Y-1688197D1*
X-5091Y-1689181D1*
X-5423Y-1690165D1*
X-5584Y-1691150D1*
X-5649Y-1692134D1*
X-5642Y-1693118D1*
X-5520Y-1694102D1*
X-5195Y-1695087D1*
X-4689Y-1696071D1*
X-2950Y-1697055D1*
X-207Y-1698039D1*
X3161Y-1699024D1*
X1193Y-1685244D2*
X2140Y-1686228D1*
X2994Y-1687213D1*
X3704Y-1688197D1*
X4272Y-1689181D1*
X4685Y-1690165D1*
X4922Y-1691150D1*
X5006Y-1692134D1*
X4929Y-1693118D1*
X4676Y-1694102D1*
X4252Y-1695087D1*
X3701Y-1696071D1*
X2226Y-1697055D1*
X-11Y-1698039D1*
X-2744Y-1699024D1*
X-113409Y-323812D2*
D13*
Y-325125D1*
Y-326437D1*
Y-327749D1*
Y-329062D1*
Y-330374D1*
Y-331686D1*
Y-332999D1*
Y-334311D1*
Y-335623D1*
Y-336936D1*
Y-338248D1*
Y-339560D1*
Y-340873D1*
Y-342185D1*
X-113415Y-343497D1*
X-113461Y-344810D1*
X-113648Y-346122D1*
X-113996Y-347434D1*
X-115010Y-348747D1*
X-117281Y-350059D1*
X-119971Y-351371D1*
X-104223Y-323812D2*
Y-325125D1*
Y-326437D1*
Y-327749D1*
Y-329062D1*
Y-330374D1*
Y-331686D1*
Y-332999D1*
Y-334311D1*
Y-335623D1*
Y-336936D1*
Y-338248D1*
Y-339560D1*
Y-340873D1*
Y-342185D1*
Y-343497D1*
Y-344810D1*
X-104228Y-346122D1*
X-104274Y-347434D1*
X-104442Y-348747D1*
X-104761Y-350059D1*
X-105149Y-351371D1*
X-105596Y-352684D1*
X-106251Y-353996D1*
X-107186Y-355308D1*
X-108407Y-356621D1*
X-110041Y-357933D1*
X-112216Y-359245D1*
X-114722Y-360558D1*
X-63541Y-323812D2*
Y-325125D1*
Y-326437D1*
Y-327749D1*
Y-329062D1*
Y-330374D1*
Y-331686D1*
Y-332999D1*
Y-334311D1*
Y-335623D1*
Y-336936D1*
Y-338248D1*
Y-339560D1*
Y-340873D1*
Y-342185D1*
Y-343497D1*
Y-344810D1*
Y-346122D1*
Y-347434D1*
Y-348747D1*
Y-350059D1*
Y-351371D1*
Y-352684D1*
Y-353996D1*
Y-355308D1*
Y-356621D1*
Y-357933D1*
Y-359245D1*
Y-360558D1*
X-54354Y-323812D2*
Y-325125D1*
Y-326437D1*
Y-327749D1*
Y-329062D1*
Y-330374D1*
Y-331686D1*
Y-332999D1*
Y-334311D1*
Y-335623D1*
Y-336936D1*
Y-338248D1*
Y-339560D1*
Y-340873D1*
Y-342185D1*
Y-343497D1*
Y-344810D1*
Y-346122D1*
Y-347434D1*
Y-348747D1*
Y-350059D1*
Y-351371D1*
Y-352684D1*
Y-353996D1*
Y-355308D1*
Y-356621D1*
Y-357933D1*
Y-359245D1*
Y-360558D1*
X-8423Y-323812D2*
Y-325125D1*
Y-326437D1*
Y-327749D1*
Y-329062D1*
Y-330374D1*
Y-331686D1*
Y-332999D1*
Y-334311D1*
X-13672D1*
Y-335623D1*
Y-336936D1*
Y-338248D1*
Y-339560D1*
Y-340873D1*
Y-342185D1*
Y-343497D1*
Y-344810D1*
X-8423D1*
X-8730Y-346122D1*
X-9265Y-347434D1*
X-10531Y-348747D1*
X-11781Y-350059D1*
X-12849Y-351371D1*
X-13271Y-352684D1*
X-13501Y-353996D1*
X-13605Y-355308D1*
X-13647Y-356621D1*
X-13663Y-357933D1*
X-13669Y-359245D1*
X-13672Y-360558D1*
X764Y-323812D2*
Y-325125D1*
Y-326437D1*
Y-327749D1*
Y-329062D1*
Y-330374D1*
Y-331686D1*
Y-332999D1*
Y-334311D1*
Y-335623D1*
Y-336936D1*
Y-338248D1*
Y-339560D1*
Y-340873D1*
Y-342185D1*
Y-343497D1*
Y-344810D1*
Y-346122D1*
X759Y-347434D1*
X713Y-348747D1*
X540Y-350059D1*
X175Y-351371D1*
X-380Y-352684D1*
X-1142Y-353996D1*
X-2138Y-355308D1*
X-3342Y-356621D1*
X-4788Y-357933D1*
X-6520Y-359245D1*
X-8423Y-360558D1*
X21761Y-323812D2*
Y-325125D1*
Y-326437D1*
Y-327749D1*
Y-329062D1*
Y-330374D1*
Y-331686D1*
Y-332999D1*
Y-334311D1*
Y-335623D1*
X21756Y-336936D1*
X21706Y-338248D1*
X21503Y-339560D1*
X21055Y-340873D1*
X20449Y-342185D1*
X30948Y-323812D2*
Y-325125D1*
Y-326437D1*
Y-327749D1*
Y-329062D1*
Y-330374D1*
Y-331686D1*
Y-332999D1*
Y-334311D1*
Y-335623D1*
Y-336936D1*
Y-338248D1*
Y-339560D1*
Y-340873D1*
Y-342185D1*
Y-343497D1*
Y-344810D1*
Y-346122D1*
Y-347434D1*
Y-348747D1*
Y-350059D1*
Y-351371D1*
Y-352684D1*
Y-353996D1*
Y-355308D1*
Y-356621D1*
Y-357933D1*
Y-359245D1*
Y-360558D1*
X69005Y-323812D2*
Y-325125D1*
Y-326437D1*
Y-327749D1*
X69016Y-329062D1*
X69113Y-330374D1*
X69344Y-331686D1*
X70252Y-332999D1*
X71267Y-334311D1*
X72069Y-335623D1*
X72543Y-336936D1*
X72776Y-338248D1*
X72882Y-339560D1*
X72942Y-340873D1*
X69005D1*
Y-342185D1*
Y-343497D1*
Y-344810D1*
Y-346122D1*
Y-347434D1*
Y-348747D1*
Y-350059D1*
Y-351371D1*
X72942D1*
Y-352684D1*
Y-353996D1*
Y-355308D1*
Y-356621D1*
Y-357933D1*
Y-359245D1*
Y-360558D1*
Y-323812D2*
X75013Y-325125D1*
X76860Y-326437D1*
X78383Y-327749D1*
X79622Y-329062D1*
X80643Y-330374D1*
X81369Y-331686D1*
X81785Y-332999D1*
X81986Y-334311D1*
X82074Y-335623D1*
X82108Y-336936D1*
X82122Y-338248D1*
X82126Y-339560D1*
X82128Y-340873D1*
Y-342185D1*
X82129Y-343497D1*
Y-344810D1*
Y-346122D1*
Y-347434D1*
Y-348747D1*
Y-350059D1*
Y-351371D1*
Y-352684D1*
Y-353996D1*
Y-355308D1*
Y-356621D1*
Y-357933D1*
Y-359245D1*
Y-360558D1*
X-256454Y-334311D2*
X-258322Y-335623D1*
X-259838Y-336936D1*
X-260975Y-338248D1*
X-261817Y-339560D1*
X-262402Y-340873D1*
X-262736Y-342185D1*
X-262900Y-343497D1*
X-262971Y-344810D1*
X-262999Y-346122D1*
X-263010Y-347434D1*
X-263014Y-348747D1*
X-263015Y-350059D1*
X-263016Y-351371D1*
Y-352684D1*
Y-353996D1*
Y-355308D1*
Y-356621D1*
Y-357933D1*
Y-359245D1*
Y-360558D1*
X-249892Y-334311D2*
X-245422Y-335623D1*
X-240706Y-336936D1*
X-239394Y-334311D2*
X-243864Y-335623D1*
X-248580Y-336936D1*
X-232832Y-334311D2*
X-230919Y-335623D1*
X-229281Y-336936D1*
X-227996Y-338248D1*
X-226988Y-339560D1*
X-226619Y-340873D1*
X-226419Y-342185D1*
X-226329Y-343497D1*
X-226292Y-344810D1*
X-226278Y-346122D1*
X-226273Y-347434D1*
X-226271Y-348747D1*
Y-350059D1*
X-226270Y-351371D1*
Y-352684D1*
Y-353996D1*
Y-355308D1*
Y-356621D1*
Y-357933D1*
Y-359245D1*
Y-360558D1*
X-210522Y-334311D2*
X-212440Y-335623D1*
X-214125Y-336936D1*
X-215581Y-338248D1*
X-216806Y-339560D1*
X-217787Y-340873D1*
X-218557Y-342185D1*
X-219113Y-343497D1*
X-219436Y-344810D1*
X-219595Y-346122D1*
X-219659Y-347434D1*
X-219641Y-348747D1*
X-219479Y-350059D1*
X-219117Y-351371D1*
X-218564Y-352684D1*
X-217803Y-353996D1*
X-216807Y-355308D1*
X-215603Y-356621D1*
X-214157Y-357933D1*
X-212425Y-359245D1*
X-210522Y-360558D1*
X-201336Y-334311D2*
X-198974Y-335623D1*
X-196941Y-336936D1*
X-195361Y-338248D1*
X-194201Y-339560D1*
X-193347Y-340873D1*
X-192713Y-342185D1*
X-192211Y-343497D1*
X-191738Y-344810D1*
X-191377Y-346122D1*
X-191179Y-347434D1*
X-191447Y-348747D1*
X-191790Y-350059D1*
X-192172Y-351371D1*
X-192651Y-352684D1*
X-193264Y-353996D1*
X-194099Y-355308D1*
X-195316Y-356621D1*
X-197001Y-357933D1*
X-199082Y-359245D1*
X-201336Y-360558D1*
X-176402Y-334311D2*
X-178925Y-335623D1*
X-180987Y-336936D1*
X-182629Y-338248D1*
X-183882Y-339560D1*
X-184840Y-340873D1*
X-185242Y-342185D1*
X-184204Y-343497D1*
X-182963Y-344810D1*
X-168528Y-334311D2*
X-166166Y-335623D1*
X-164132Y-336936D1*
X-162553Y-338248D1*
X-161393Y-339560D1*
X-160543Y-340873D1*
X-159956Y-342185D1*
X-159621Y-343497D1*
X-159457Y-344810D1*
X-159386Y-346122D1*
X-159358Y-347434D1*
X-159352Y-348747D1*
X-159400Y-350059D1*
X-159612Y-351371D1*
X-160098Y-352684D1*
X-160805Y-353996D1*
X-161640Y-355308D1*
X-162741Y-356621D1*
X-164315Y-357933D1*
X-166324Y-359245D1*
X-168528Y-360558D1*
X-122596Y-334311D2*
X-124913Y-335623D1*
X-126824Y-336936D1*
X-128256Y-338248D1*
X-129394Y-339560D1*
X-130351Y-340873D1*
X-131046Y-342185D1*
X-131447Y-343497D1*
X-131643Y-344810D1*
X-131728Y-346122D1*
X-131762Y-347434D1*
X-131770Y-348747D1*
X-131723Y-350059D1*
X-131512Y-351371D1*
X-131020Y-352684D1*
X-130272Y-353996D1*
X-129316Y-355308D1*
X-128068Y-356621D1*
X-126480Y-357933D1*
X-124613Y-359245D1*
X-122596Y-360558D1*
X-116034Y-334311D2*
Y-335623D1*
Y-336936D1*
Y-338248D1*
X-116055Y-339560D1*
X-116116Y-340873D1*
X-116690Y-342185D1*
X-118317Y-343497D1*
X-120022Y-344810D1*
X-121299Y-346122D1*
X-122233Y-347434D1*
X-121140Y-348747D1*
X-118206Y-350059D1*
X-114722Y-351371D1*
X-88475Y-334311D2*
X-90792Y-335623D1*
X-92698Y-336936D1*
X-94089Y-338248D1*
X-95106Y-339560D1*
X-95916Y-340873D1*
X-96588Y-342185D1*
X-97097Y-343497D1*
X-97400Y-344810D1*
X-97552Y-346122D1*
X-97619Y-347434D1*
X-97646Y-348747D1*
X-97656Y-350059D1*
X-97660Y-351371D1*
X-97661Y-352684D1*
Y-353996D1*
Y-355308D1*
Y-356621D1*
Y-357933D1*
Y-359245D1*
Y-360558D1*
X-79289Y-334311D2*
X-76927Y-335623D1*
X-74893Y-336936D1*
X-73314Y-338248D1*
X-72154Y-339560D1*
X-71304Y-340873D1*
X-70712Y-342185D1*
X-70327Y-343497D1*
X-69960Y-344810D1*
X-69438Y-346122D1*
X-68790Y-347434D1*
X-69401Y-348747D1*
X-69824Y-350059D1*
X-70187Y-351371D1*
X-70637Y-352684D1*
X-71232Y-353996D1*
X-72058Y-355308D1*
X-73271Y-356621D1*
X-74955Y-357933D1*
X-77035Y-359245D1*
X-79289Y-360558D1*
X-37294Y-334311D2*
X-39611Y-335623D1*
X-41517Y-336936D1*
X-42908Y-338248D1*
X-43925Y-339560D1*
X-44735Y-340873D1*
X-45407Y-342185D1*
X-45916Y-343497D1*
X-46219Y-344810D1*
X-46371Y-346122D1*
X-46437Y-347434D1*
X-46464Y-348747D1*
X-46475Y-350059D1*
X-46478Y-351371D1*
X-46480Y-352684D1*
Y-353996D1*
Y-355308D1*
Y-356621D1*
Y-357933D1*
Y-359245D1*
Y-360558D1*
X-28108Y-334311D2*
X-25746Y-335623D1*
X-23712Y-336936D1*
X-22133Y-338248D1*
X-20973Y-339560D1*
X-20123Y-340873D1*
X-19531Y-342185D1*
X-19146Y-343497D1*
X-18779Y-344810D1*
X-18257Y-346122D1*
X-17609Y-347434D1*
X-18220Y-348747D1*
X-18643Y-350059D1*
X-19006Y-351371D1*
X-19456Y-352684D1*
X-20050Y-353996D1*
X-20876Y-355308D1*
X-22090Y-356621D1*
X-23774Y-357933D1*
X-25854Y-359245D1*
X-28108Y-360558D1*
X6013Y-334311D2*
X6827Y-335623D1*
X7575Y-336936D1*
X8278Y-338248D1*
X8957Y-339560D1*
X9656Y-340873D1*
X10425Y-342185D1*
X11262Y-343497D1*
X10607Y-344810D1*
X10056Y-346122D1*
X9505Y-347434D1*
X8912Y-348747D1*
X8288Y-350059D1*
X7650Y-351371D1*
X7041Y-352684D1*
X6512Y-353996D1*
X6046Y-355308D1*
X5533Y-356621D1*
X4925Y-357933D1*
X4200Y-359245D1*
X3388Y-360558D1*
X16512Y-334311D2*
X17010Y-335623D1*
X17574Y-336936D1*
X18188Y-338248D1*
X18859Y-339560D1*
X19617Y-340873D1*
X20449Y-342185D1*
X45383Y-334311D2*
X43465Y-335623D1*
X41781Y-336936D1*
X40329Y-338248D1*
X39146Y-339560D1*
X38286Y-340873D1*
X37662Y-342185D1*
X37129Y-343497D1*
X36699Y-344810D1*
X36431Y-346122D1*
X36289Y-347434D1*
X36197Y-348747D1*
X54570Y-334311D2*
X56931Y-335623D1*
X58965Y-336936D1*
X60544Y-338248D1*
X61704Y-339560D1*
X62559Y-340873D1*
X63192Y-342185D1*
X63695Y-343497D1*
X64167Y-344810D1*
X64529Y-346122D1*
X64726Y-347434D1*
X64459Y-348747D1*
X64116Y-350059D1*
X63734Y-351371D1*
X63254Y-352684D1*
X62642Y-353996D1*
X61807Y-355308D1*
X60589Y-356621D1*
X58904Y-357933D1*
X56824Y-359245D1*
X54570Y-360558D1*
X96564Y-334311D2*
X94646Y-335623D1*
X92962Y-336936D1*
X91510Y-338248D1*
X90327Y-339560D1*
X89467Y-340873D1*
X88844Y-342185D1*
X88310Y-343497D1*
X87880Y-344810D1*
X87613Y-346122D1*
X87470Y-347434D1*
X87378Y-348747D1*
X105751Y-334311D2*
X108112Y-335623D1*
X110146Y-336936D1*
X111725Y-338248D1*
X112885Y-339560D1*
X113740Y-340873D1*
X114374Y-342185D1*
X114876Y-343497D1*
X115348Y-344810D1*
X115710Y-346122D1*
X115908Y-347434D1*
X115640Y-348747D1*
X115297Y-350059D1*
X114915Y-351371D1*
X114436Y-352684D1*
X113823Y-353996D1*
X112988Y-355308D1*
X111770Y-356621D1*
X110086Y-357933D1*
X108005Y-359245D1*
X105751Y-360558D1*
X143808Y-334311D2*
Y-335623D1*
Y-336936D1*
Y-338248D1*
Y-339560D1*
Y-340873D1*
Y-342185D1*
Y-343497D1*
Y-344810D1*
Y-346122D1*
Y-347434D1*
Y-348747D1*
X143814Y-350059D1*
X143860Y-351371D1*
X144032Y-352684D1*
X144398Y-353996D1*
X144958Y-355308D1*
X145769Y-356621D1*
X146962Y-357933D1*
X148557Y-359245D1*
X150370Y-360558D1*
X152995Y-334311D2*
Y-335623D1*
Y-336936D1*
Y-338248D1*
Y-339560D1*
Y-340873D1*
Y-342185D1*
Y-343497D1*
Y-344810D1*
X153005Y-346122D1*
X153105Y-347434D1*
X153343Y-348747D1*
X154366Y-350059D1*
X155619Y-351371D1*
X158244Y-334311D2*
Y-335623D1*
Y-336936D1*
Y-338248D1*
Y-339560D1*
Y-340873D1*
Y-342185D1*
Y-343497D1*
X158239Y-344810D1*
X158177Y-346122D1*
X158024Y-347434D1*
X157212Y-348747D1*
X155261Y-350059D1*
X152995Y-351371D1*
X167430Y-334311D2*
Y-335623D1*
Y-336936D1*
Y-338248D1*
Y-339560D1*
Y-340873D1*
Y-342185D1*
Y-343497D1*
Y-344810D1*
X167441Y-346122D1*
X167541Y-347434D1*
X167779Y-348747D1*
X168802Y-350059D1*
X170055Y-351371D1*
X171367Y-334311D2*
Y-335623D1*
Y-336936D1*
Y-338248D1*
Y-339560D1*
Y-340873D1*
Y-342185D1*
Y-343497D1*
Y-344810D1*
X171357Y-346122D1*
X171257Y-347434D1*
X171019Y-348747D1*
X169996Y-350059D1*
X168743Y-351371D1*
X180554Y-334311D2*
Y-335623D1*
Y-336936D1*
Y-338248D1*
Y-339560D1*
Y-340873D1*
Y-342185D1*
Y-343497D1*
Y-344810D1*
Y-346122D1*
Y-347434D1*
Y-348747D1*
Y-350059D1*
X180549Y-351371D1*
X180497Y-352684D1*
X180279Y-353996D1*
X179741Y-355308D1*
X178822Y-356621D1*
X177521Y-357933D1*
X175856Y-359245D1*
X173992Y-360558D1*
X188428Y-334311D2*
Y-335623D1*
Y-336936D1*
Y-338248D1*
Y-339560D1*
Y-340873D1*
Y-342185D1*
Y-343497D1*
Y-344810D1*
Y-346122D1*
Y-347434D1*
Y-348747D1*
X188433Y-350059D1*
X188479Y-351371D1*
X188651Y-352684D1*
X189017Y-353996D1*
X189577Y-355308D1*
X190389Y-356621D1*
X191581Y-357933D1*
X193176Y-359245D1*
X194990Y-360558D1*
X197614Y-334311D2*
Y-335623D1*
Y-336936D1*
Y-338248D1*
Y-339560D1*
Y-340873D1*
Y-342185D1*
Y-343497D1*
Y-344810D1*
X197624Y-346122D1*
X197724Y-347434D1*
X197963Y-348747D1*
X198985Y-350059D1*
X200239Y-351371D1*
X202864Y-334311D2*
Y-335623D1*
Y-336936D1*
Y-338248D1*
Y-339560D1*
Y-340873D1*
Y-342185D1*
Y-343497D1*
X202858Y-344810D1*
X202797Y-346122D1*
X202643Y-347434D1*
X201832Y-348747D1*
X199880Y-350059D1*
X197614Y-351371D1*
X212050Y-334311D2*
Y-335623D1*
Y-336936D1*
Y-338248D1*
Y-339560D1*
Y-340873D1*
Y-342185D1*
Y-343497D1*
Y-344810D1*
X212060Y-346122D1*
X212160Y-347434D1*
X212398Y-348747D1*
X213421Y-350059D1*
X214675Y-351371D1*
X215987Y-334311D2*
Y-335623D1*
Y-336936D1*
Y-338248D1*
Y-339560D1*
Y-340873D1*
Y-342185D1*
Y-343497D1*
Y-344810D1*
X215977Y-346122D1*
X215877Y-347434D1*
X215638Y-348747D1*
X214616Y-350059D1*
X213362Y-351371D1*
X225173Y-334311D2*
Y-335623D1*
Y-336936D1*
Y-338248D1*
Y-339560D1*
Y-340873D1*
Y-342185D1*
Y-343497D1*
Y-344810D1*
Y-346122D1*
Y-347434D1*
Y-348747D1*
Y-350059D1*
X225168Y-351371D1*
X225117Y-352684D1*
X224898Y-353996D1*
X224360Y-355308D1*
X223441Y-356621D1*
X222141Y-357933D1*
X220475Y-359245D1*
X218612Y-360558D1*
X233047Y-334311D2*
Y-335623D1*
Y-336936D1*
Y-338248D1*
Y-339560D1*
Y-340873D1*
Y-342185D1*
Y-343497D1*
Y-344810D1*
Y-346122D1*
Y-347434D1*
Y-348747D1*
X233052Y-350059D1*
X233099Y-351371D1*
X233271Y-352684D1*
X233636Y-353996D1*
X234197Y-355308D1*
X235008Y-356621D1*
X236201Y-357933D1*
X237795Y-359245D1*
X239609Y-360558D1*
X242234Y-334311D2*
Y-335623D1*
Y-336936D1*
Y-338248D1*
Y-339560D1*
Y-340873D1*
Y-342185D1*
Y-343497D1*
Y-344810D1*
X242244Y-346122D1*
X242344Y-347434D1*
X242582Y-348747D1*
X243605Y-350059D1*
X244858Y-351371D1*
X247483Y-334311D2*
Y-335623D1*
Y-336936D1*
Y-338248D1*
Y-339560D1*
Y-340873D1*
Y-342185D1*
Y-343497D1*
X247478Y-344810D1*
X247416Y-346122D1*
X247263Y-347434D1*
X246451Y-348747D1*
X244500Y-350059D1*
X242234Y-351371D1*
X256669Y-334311D2*
Y-335623D1*
Y-336936D1*
Y-338248D1*
Y-339560D1*
Y-340873D1*
Y-342185D1*
Y-343497D1*
Y-344810D1*
X256680Y-346122D1*
X256780Y-347434D1*
X257018Y-348747D1*
X258041Y-350059D1*
X259294Y-351371D1*
X260606Y-334311D2*
Y-335623D1*
Y-336936D1*
Y-338248D1*
Y-339560D1*
Y-340873D1*
Y-342185D1*
Y-343497D1*
Y-344810D1*
X260596Y-346122D1*
X260496Y-347434D1*
X260258Y-348747D1*
X259235Y-350059D1*
X257982Y-351371D1*
X269793Y-334311D2*
Y-335623D1*
Y-336936D1*
Y-338248D1*
Y-339560D1*
Y-340873D1*
Y-342185D1*
Y-343497D1*
Y-344810D1*
Y-346122D1*
Y-347434D1*
Y-348747D1*
Y-350059D1*
X269788Y-351371D1*
X269736Y-352684D1*
X269518Y-353996D1*
X268980Y-355308D1*
X268061Y-356621D1*
X266760Y-357933D1*
X265095Y-359245D1*
X263231Y-360558D1*
X48008Y-340873D2*
X46696Y-342185D1*
X45383Y-343497D1*
X51945Y-344810D1*
Y-346122D1*
Y-347434D1*
Y-348747D1*
Y-340873D2*
X52999Y-342185D1*
X53767Y-343497D1*
X54206Y-344810D1*
X54414Y-346122D1*
X54435Y-347434D1*
X54297Y-348747D1*
X53246Y-350059D1*
X50850Y-351371D1*
X48344Y-352684D1*
X46244Y-353996D1*
X44706Y-355308D1*
X43574Y-356621D1*
X43116Y-357933D1*
X44148Y-359245D1*
X45383Y-360558D1*
X99189Y-340873D2*
X97877Y-342185D1*
X96564Y-343497D1*
X103126Y-344810D1*
Y-346122D1*
Y-347434D1*
Y-348747D1*
Y-340873D2*
X104180Y-342185D1*
X104948Y-343497D1*
X105387Y-344810D1*
X105595Y-346122D1*
X105616Y-347434D1*
X105478Y-348747D1*
X104427Y-350059D1*
X102031Y-351371D1*
X99525Y-352684D1*
X97425Y-353996D1*
X95887Y-355308D1*
X94755Y-356621D1*
X94297Y-357933D1*
X95329Y-359245D1*
X96564Y-360558D1*
X-253829Y-343497D2*
Y-344810D1*
Y-346122D1*
Y-347434D1*
Y-348747D1*
Y-350059D1*
Y-351371D1*
Y-352684D1*
Y-353996D1*
Y-355308D1*
Y-356621D1*
Y-357933D1*
Y-359245D1*
Y-360558D1*
X-251205Y-343497D2*
X-250150Y-344810D1*
X-249383Y-346122D1*
X-248943Y-347434D1*
X-248730Y-348747D1*
X-248638Y-350059D1*
X-248601Y-351371D1*
X-248587Y-352684D1*
X-248583Y-353996D1*
X-248581Y-355308D1*
X-248580Y-356621D1*
Y-357933D1*
Y-359245D1*
Y-360558D1*
X-239394Y-343497D2*
Y-344810D1*
Y-346122D1*
Y-347434D1*
Y-348747D1*
Y-350059D1*
Y-351371D1*
Y-352684D1*
Y-353996D1*
Y-355308D1*
Y-356621D1*
Y-357933D1*
Y-359245D1*
Y-360558D1*
X-235457Y-343497D2*
Y-344810D1*
Y-346122D1*
Y-347434D1*
Y-348747D1*
Y-350059D1*
Y-351371D1*
Y-352684D1*
Y-353996D1*
Y-355308D1*
Y-356621D1*
Y-357933D1*
Y-359245D1*
Y-360558D1*
X-207898Y-343497D2*
X-208947Y-344810D1*
X-209819Y-346122D1*
X-209986Y-347434D1*
X-209605Y-348747D1*
X-206337Y-350059D1*
X-202648Y-351371D1*
X-203961Y-343497D2*
X-202911Y-344810D1*
X-202040Y-346122D1*
X-201872Y-347434D1*
X-202254Y-348747D1*
X-205521Y-350059D1*
X-209210Y-351371D1*
X-175089Y-343497D2*
X-176402Y-344810D1*
X-171152Y-343497D2*
X-170103Y-344810D1*
X-169231Y-346122D1*
X-169064Y-347434D1*
X-169445Y-348747D1*
X-172713Y-350059D1*
X-176402Y-351371D1*
X-85850Y-343497D2*
X-86905Y-344810D1*
X-87672Y-346122D1*
X-88112Y-347434D1*
X-88325Y-348747D1*
X-88417Y-350059D1*
X-88454Y-351371D1*
X-88468Y-352684D1*
X-88473Y-353996D1*
X-88474Y-355308D1*
X-88475Y-356621D1*
Y-357933D1*
Y-359245D1*
Y-360558D1*
X-81913Y-343497D2*
X-80864Y-344810D1*
X-79992Y-346122D1*
X-79804Y-347434D1*
X-80530Y-348747D1*
X-82268Y-350059D1*
X-83866Y-351371D1*
X-85093Y-352684D1*
X-85492Y-353996D1*
X-85702Y-355308D1*
X-85793Y-356621D1*
X-85830Y-357933D1*
X-85844Y-359245D1*
X-85850Y-360558D1*
X-34669Y-343497D2*
X-35724Y-344810D1*
X-36491Y-346122D1*
X-36931Y-347434D1*
X-37144Y-348747D1*
X-37236Y-350059D1*
X-37273Y-351371D1*
X-37287Y-352684D1*
X-37291Y-353996D1*
X-37293Y-355308D1*
X-37294Y-356621D1*
Y-357933D1*
Y-359245D1*
Y-360558D1*
X-30732Y-343497D2*
X-29683Y-344810D1*
X-28811Y-346122D1*
X-28623Y-347434D1*
X-29349Y-348747D1*
X-31087Y-350059D1*
X-32684Y-351371D1*
X-33912Y-352684D1*
X-34311Y-353996D1*
X-34521Y-355308D1*
X-34612Y-356621D1*
X-34649Y-357933D1*
X-34662Y-359245D1*
X-34669Y-360558D1*
X19136Y-344810D2*
X19087Y-346122D1*
X18913Y-347434D1*
X18552Y-348747D1*
X18049Y-350059D1*
X17500Y-351371D1*
X16996Y-352684D1*
X16544Y-353996D1*
X16080Y-355308D1*
X15629Y-356621D1*
X15170Y-357933D1*
X14583Y-359245D1*
X13887Y-360558D1*
X21761Y-344810D2*
Y-346122D1*
Y-347434D1*
Y-348747D1*
Y-350059D1*
Y-351371D1*
Y-352684D1*
Y-353996D1*
Y-355308D1*
Y-356621D1*
Y-357933D1*
Y-359245D1*
Y-360558D1*
X-186900Y-348747D2*
X-186447Y-350059D1*
X-186005Y-351371D1*
X-185537Y-352684D1*
X-184876Y-353996D1*
X-183939Y-355308D1*
X-182717Y-356621D1*
X-181082Y-357933D1*
X-178907Y-359245D1*
X-176402Y-360558D1*
X-177714Y-348747D2*
X-173941Y-350059D1*
X-169840Y-351371D1*
X-147530Y-348747D2*
X-148945Y-350059D1*
X-150024Y-351371D1*
X-150740Y-352684D1*
X-151206Y-353996D1*
X-151134Y-355308D1*
X-150780Y-356621D1*
X-150062Y-357933D1*
X-148927Y-359245D1*
X-147530Y-360558D1*
X-142281Y-348747D2*
X-141226Y-350059D1*
X-140459Y-351371D1*
X-140019Y-352684D1*
X-139811Y-353996D1*
X-139770Y-355308D1*
X-139952Y-356621D1*
X-140466Y-357933D1*
X-141301Y-359245D1*
X-142281Y-360558D1*
X126748Y-348747D2*
X125334Y-350059D1*
X124254Y-351371D1*
X123538Y-352684D1*
X123073Y-353996D1*
X123144Y-355308D1*
X123498Y-356621D1*
X124217Y-357933D1*
X125352Y-359245D1*
X126748Y-360558D1*
X131997Y-348747D2*
X133052Y-350059D1*
X133819Y-351371D1*
X134259Y-352684D1*
X134467Y-353996D1*
X134508Y-355308D1*
X134326Y-356621D1*
X133812Y-357933D1*
X132978Y-359245D1*
X131997Y-360558D1*
X163493Y-357933D2*
X160869Y-359245D1*
X158244Y-360558D1*
X162181Y-357933D2*
X164806Y-359245D1*
X167430Y-360558D1*
X208113Y-357933D2*
X205488Y-359245D1*
X202864Y-360558D1*
X206801Y-357933D2*
X209425Y-359245D1*
X212050Y-360558D1*
X252732Y-357933D2*
X250108Y-359245D1*
X247483Y-360558D1*
X251420Y-357933D2*
X254045Y-359245D1*
X256669Y-360558D1*
X503411Y-948617D2*
D92*
X523507D1*
X509148D2*
X504837Y-952928D1*
X503411Y-955813D1*
Y-960091D1*
X504837Y-962976D1*
X509148Y-964402D1*
X523507D1*
X507722Y-973665D2*
Y-986565D1*
X506263Y-990876D1*
X504837Y-992335D1*
X501985Y-993761D1*
X499100D1*
X496248Y-992335D1*
X494789Y-990876D1*
X493363Y-986565D1*
Y-973665D1*
X523507D1*
X507722Y-983713D2*
X523507Y-993761D1*
X493363Y-1021695D2*
Y-1003025D1*
X523507D1*
X507722D2*
Y-1014499D1*
X493363Y-1030958D2*
X523507D1*
Y-1041006D1*
X522048Y-1045317D1*
X519196Y-1048203D1*
X516311Y-1049628D1*
X512033Y-1051054D1*
X504837D1*
X500526Y-1049628D1*
X497674Y-1048203D1*
X494789Y-1045317D1*
X493363Y-1041006D1*
Y-1030958D1*
Y-1060318D2*
X523507D1*
Y-1073251D1*
X522048Y-1077562D1*
X520622Y-1078988D1*
X517770Y-1080414D1*
X513459D1*
X510574Y-1078988D1*
X509148Y-1077562D1*
X507722Y-1073251D1*
X506263Y-1077562D1*
X504837Y-1078988D1*
X501985Y-1080414D1*
X499100D1*
X496248Y-1078988D1*
X494789Y-1077562D1*
X493363Y-1073251D1*
Y-1060318D1*
X507722D2*
Y-1073251D1*
X523507Y-1112625D2*
X493363D1*
X523507Y-1101151D1*
X493363Y-1089678D1*
X523507D1*
X528481Y-1121889D2*
Y-1149148D1*
X493363Y-1158411D2*
X523507Y-1169885D1*
X493363Y-1181359D1*
X500559Y-1192082D2*
X499133D1*
X496248Y-1193508D1*
X494822Y-1194934D1*
X493396Y-1197819D1*
Y-1203556D1*
X494822Y-1206408D1*
X496248Y-1207834D1*
X499133Y-1209293D1*
X501985D1*
X504870Y-1207834D1*
X509148Y-1204982D1*
X523507Y-1190623D1*
Y-1210719D1*
X520622Y-1221408D2*
X522081Y-1219982D1*
X523507Y-1221408D1*
X522081Y-1222868D1*
X520622Y-1221408D1*
X493396Y-1240753D2*
X494822Y-1236442D1*
X499133Y-1233557D1*
X506296Y-1232131D1*
X510607D1*
X517770Y-1233557D1*
X522081Y-1236442D1*
X523507Y-1240753D1*
Y-1243605D1*
X522081Y-1247916D1*
X517770Y-1250768D1*
X510607Y-1252227D1*
X506296D1*
X499133Y-1250768D1*
X494822Y-1247916D1*
X493396Y-1243605D1*
Y-1240753D1*
X499133Y-1250768D2*
X517770Y-1233557D1*
X493396Y-1268654D2*
X494822Y-1264376D1*
X497674Y-1262917D1*
X500559D1*
X503411Y-1264376D1*
X504870Y-1267228D1*
X506296Y-1272965D1*
X507722Y-1277276D1*
X510607Y-1280128D1*
X513459Y-1281553D1*
X517770D1*
X520622Y-1280128D1*
X522081Y-1278702D1*
X523507Y-1274391D1*
Y-1268654D1*
X522081Y-1264376D1*
X520622Y-1262917D1*
X517770Y-1261491D1*
X513459D1*
X510607Y-1262917D1*
X507722Y-1265802D1*
X506296Y-1270080D1*
X504870Y-1275817D1*
X503411Y-1278702D1*
X500559Y-1280128D1*
X497674D1*
X494822Y-1278702D1*
X493396Y-1274391D1*
Y-1268654D1*
X485504Y-1319978D2*
X531399D1*
X493396Y-1367024D2*
X494822Y-1362713D1*
X499133Y-1359828D1*
X506296Y-1358402D1*
X510607D1*
X517770Y-1359828D1*
X522081Y-1362713D1*
X523507Y-1367024D1*
Y-1369876D1*
X522081Y-1374187D1*
X517770Y-1377039D1*
X510607Y-1378498D1*
X506296D1*
X499133Y-1377039D1*
X494822Y-1374187D1*
X493396Y-1369876D1*
Y-1367024D1*
X499133Y-1377039D2*
X517770Y-1359828D1*
X500559Y-1389220D2*
X499133D1*
X496248Y-1390646D1*
X494822Y-1392072D1*
X493396Y-1394957D1*
Y-1400694D1*
X494822Y-1403546D1*
X496248Y-1404972D1*
X499133Y-1406431D1*
X501985D1*
X504870Y-1404972D1*
X509148Y-1402120D1*
X523507Y-1387761D1*
Y-1407857D1*
X528481Y-1417121D2*
Y-1444380D1*
X500559Y-1455102D2*
X499133D1*
X496248Y-1456528D1*
X494822Y-1457954D1*
X493396Y-1460839D1*
Y-1466576D1*
X494822Y-1469428D1*
X496248Y-1470854D1*
X499133Y-1472313D1*
X501985D1*
X504870Y-1470854D1*
X509148Y-1468002D1*
X523507Y-1453643D1*
Y-1473739D1*
X493396Y-1491625D2*
X494822Y-1487314D1*
X499133Y-1484429D1*
X506296Y-1483003D1*
X510607D1*
X517770Y-1484429D1*
X522081Y-1487314D1*
X523507Y-1491625D1*
Y-1494477D1*
X522081Y-1498788D1*
X517770Y-1501640D1*
X510607Y-1503099D1*
X506296D1*
X499133Y-1501640D1*
X494822Y-1498788D1*
X493396Y-1494477D1*
Y-1491625D1*
X499133Y-1501640D2*
X517770Y-1484429D1*
X500559Y-1513821D2*
X499133D1*
X496248Y-1515247D1*
X494822Y-1516673D1*
X493396Y-1519558D1*
Y-1525295D1*
X494822Y-1528147D1*
X496248Y-1529573D1*
X499133Y-1531032D1*
X501985D1*
X504870Y-1529573D1*
X509148Y-1526721D1*
X523507Y-1512362D1*
Y-1532458D1*
X493396Y-1550344D2*
X494822Y-1546033D1*
X499133Y-1543148D1*
X506296Y-1541722D1*
X510607D1*
X517770Y-1543148D1*
X522081Y-1546033D1*
X523507Y-1550344D1*
Y-1553196D1*
X522081Y-1557507D1*
X517770Y-1560359D1*
X510607Y-1561818D1*
X506296D1*
X499133Y-1560359D1*
X494822Y-1557507D1*
X493396Y-1553196D1*
Y-1550344D1*
X499133Y-1560359D2*
X517770Y-1543148D1*
X-331230Y176934D2*
X-342704Y146790D1*
X-354178Y176934D1*
X-363441D2*
Y146790D1*
X-373489D1*
X-377800Y148249D1*
X-380685Y151101D1*
X-382111Y153986D1*
X-383537Y158264D1*
Y165460D1*
X-382111Y169771D1*
X-380685Y172623D1*
X-377800Y175508D1*
X-373489Y176934D1*
X-363441D1*
X-392801D2*
Y146790D1*
X-402849D1*
X-407160Y148249D1*
X-410045Y151101D1*
X-411471Y153986D1*
X-412897Y158264D1*
Y165460D1*
X-411471Y169771D1*
X-410045Y172623D1*
X-407160Y175508D1*
X-402849Y176934D1*
X-392801D1*
X-357767Y66554D2*
X-356341Y69406D1*
X-353456Y72291D1*
X-350604Y73717D1*
X-344867D1*
X-341982Y72291D1*
X-339130Y69406D1*
X-337671Y66554D1*
X-336245Y62243D1*
Y55047D1*
X-337671Y50769D1*
X-339130Y47884D1*
X-341982Y45032D1*
X-344867Y43573D1*
X-350604D1*
X-353456Y45032D1*
X-356341Y47884D1*
X-357767Y50769D1*
Y55047D1*
X-350604D1*
X-387126Y73717D2*
Y43573D1*
X-367030Y73717D1*
Y43573D1*
X-396390Y73717D2*
Y43573D1*
X-406438D1*
X-410749Y45032D1*
X-413634Y47884D1*
X-415060Y50769D1*
X-416486Y55047D1*
Y62243D1*
X-415060Y66554D1*
X-413634Y69406D1*
X-410749Y72291D1*
X-406438Y73717D1*
X-396390D1*
X-339328Y-24808D2*
X-335017Y-26234D1*
X-332132Y-30545D1*
X-330706Y-37708D1*
Y-42019D1*
X-332132Y-49182D1*
X-335017Y-53493D1*
X-339328Y-54919D1*
X-342180D1*
X-346491Y-53493D1*
X-349343Y-49182D1*
X-350802Y-42019D1*
Y-37708D1*
X-349343Y-30545D1*
X-346491Y-26234D1*
X-342180Y-24808D1*
X-339328D1*
X-349343Y-30545D2*
X-332132Y-49182D1*
X-361491Y-52034D2*
X-360066Y-53493D1*
X-361491Y-54919D1*
X-362951Y-53493D1*
X-361491Y-52034D1*
X-380836Y-24808D2*
X-376525Y-26234D1*
X-373640Y-30545D1*
X-372214Y-37708D1*
Y-42019D1*
X-373640Y-49182D1*
X-376525Y-53493D1*
X-380836Y-54919D1*
X-383688D1*
X-387999Y-53493D1*
X-390851Y-49182D1*
X-392310Y-42019D1*
Y-37708D1*
X-390851Y-30545D1*
X-387999Y-26234D1*
X-383688Y-24808D1*
X-380836D1*
X-390851Y-30545D2*
X-373640Y-49182D1*
X-404459Y-24808D2*
X-420211D1*
X-411622Y-36282D1*
X-415933D1*
X-418785Y-37708D1*
X-420211Y-39134D1*
X-421670Y-43445D1*
Y-46297D1*
X-420211Y-50608D1*
X-417359Y-53493D1*
X-413048Y-54919D1*
X-408737D1*
X-404459Y-53493D1*
X-403033Y-52034D1*
X-401574Y-49182D1*
X-339328Y-123302D2*
X-335017Y-124728D1*
X-332132Y-129039D1*
X-330706Y-136201D1*
Y-140512D1*
X-332132Y-147675D1*
X-335017Y-151986D1*
X-339328Y-153412D1*
X-342180D1*
X-346491Y-151986D1*
X-349343Y-147675D1*
X-350802Y-140512D1*
Y-136201D1*
X-349343Y-129039D1*
X-346491Y-124728D1*
X-342180Y-123302D1*
X-339328D1*
X-349343Y-129039D2*
X-332132Y-147675D1*
X-361491Y-150527D2*
X-360066Y-151986D1*
X-361491Y-153412D1*
X-362951Y-151986D1*
X-361491Y-150527D1*
X-380836Y-123302D2*
X-376525Y-124728D1*
X-373640Y-129039D1*
X-372214Y-136201D1*
Y-140512D1*
X-373640Y-147675D1*
X-376525Y-151986D1*
X-380836Y-153412D1*
X-383688D1*
X-387999Y-151986D1*
X-390851Y-147675D1*
X-392310Y-140512D1*
Y-136201D1*
X-390851Y-129039D1*
X-387999Y-124728D1*
X-383688Y-123302D1*
X-380836D1*
X-390851Y-129039D2*
X-373640Y-147675D1*
X-403033Y-130464D2*
Y-129039D1*
X-404459Y-126153D1*
X-405885Y-124728D1*
X-408770Y-123302D1*
X-414507D1*
X-417359Y-124728D1*
X-418785Y-126153D1*
X-420244Y-129039D1*
Y-131890D1*
X-418785Y-134776D1*
X-415933Y-139053D1*
X-401574Y-153412D1*
X-421670D1*
X-337153Y-223868D2*
X-332841Y-225294D1*
X-329956Y-229605D1*
X-328530Y-236768D1*
Y-241079D1*
X-329956Y-248242D1*
X-332841Y-252553D1*
X-337153Y-253979D1*
X-340004D1*
X-344315Y-252553D1*
X-347167Y-248242D1*
X-348626Y-241079D1*
Y-236768D1*
X-347167Y-229605D1*
X-344315Y-225294D1*
X-340004Y-223868D1*
X-337153D1*
X-347167Y-229605D2*
X-329956Y-248242D1*
X-359316Y-251094D2*
X-357890Y-252553D1*
X-359316Y-253979D1*
X-360775Y-252553D1*
X-359316Y-251094D1*
X-371498Y-231031D2*
Y-229605D1*
X-372924Y-226720D1*
X-374350Y-225294D1*
X-377235Y-223868D1*
X-382972D1*
X-385824Y-225294D1*
X-387250Y-226720D1*
X-388709Y-229605D1*
Y-232457D1*
X-387250Y-235342D1*
X-384398Y-239620D1*
X-370039Y-253979D1*
X-390135D1*
X-406561Y-223868D2*
X-402283Y-225294D1*
X-400824Y-228146D1*
Y-231031D1*
X-402283Y-233883D1*
X-405135Y-235342D1*
X-410872Y-236768D1*
X-415183Y-238194D1*
X-418035Y-241079D1*
X-419461Y-243931D1*
Y-248242D1*
X-418035Y-251094D1*
X-416609Y-252553D1*
X-412298Y-253979D1*
X-406561D1*
X-402283Y-252553D1*
X-400824Y-251094D1*
X-399398Y-248242D1*
Y-243931D1*
X-400824Y-241079D1*
X-403709Y-238194D1*
X-407987Y-236768D1*
X-413724Y-235342D1*
X-416609Y-233883D1*
X-418035Y-231031D1*
Y-228146D1*
X-416609Y-225294D1*
X-412298Y-223868D1*
X-406561D1*
X-419287Y-349496D2*
X-416402Y-350955D1*
X-412091Y-355233D1*
Y-325122D1*
X-401401Y-328007D2*
X-402827Y-326548D1*
X-401401Y-325122D1*
X-399942Y-326548D1*
X-401401Y-328007D1*
X-390679Y-349496D2*
X-387794Y-350955D1*
X-383483Y-355233D1*
Y-325122D1*
X-371334Y-355233D2*
X-355582D1*
X-364171Y-343759D1*
X-359860D1*
X-357008Y-342333D1*
X-355582Y-340907D1*
X-354123Y-336596D1*
Y-333744D1*
X-355582Y-329433D1*
X-358434Y-326548D1*
X-362745Y-325122D1*
X-367056D1*
X-371334Y-326548D1*
X-372760Y-328007D1*
X-374219Y-330859D1*
X-418944Y-452421D2*
X-416059Y-453880D1*
X-411748Y-458158D1*
Y-428047D1*
X-401059Y-430932D2*
X-402485Y-429473D1*
X-401059Y-428047D1*
X-399600Y-429473D1*
X-401059Y-430932D1*
X-390336Y-452421D2*
X-387451Y-453880D1*
X-383140Y-458158D1*
Y-428047D1*
X-365255Y-458158D2*
X-369566Y-456732D1*
X-372451Y-452421D1*
X-373877Y-445258D1*
Y-440947D1*
X-372451Y-433784D1*
X-369565Y-429473D1*
X-365254Y-428047D1*
X-362403D1*
X-358092Y-429473D1*
X-355240Y-433784D1*
X-353781Y-440947D1*
Y-445258D1*
X-355240Y-452421D1*
X-358092Y-456732D1*
X-362403Y-458158D1*
X-365255D1*
X-355240Y-452421D2*
X-372451Y-433784D1*
X-352540Y-529734D2*
X-355425Y-528275D1*
X-359736Y-523997D1*
Y-554108D1*
X-370425Y-551223D2*
X-368999Y-552682D1*
X-370425Y-554108D1*
X-371884Y-552682D1*
X-370425Y-551223D1*
X-381148Y-529734D2*
X-384033Y-528275D1*
X-388344Y-523997D1*
Y-554108D1*
X-397607Y-529734D2*
X-400493Y-528275D1*
X-404804Y-523997D1*
Y-554108D1*
X-341799Y-625924D2*
X-337488Y-627350D1*
X-334603Y-631661D1*
X-333177Y-638824D1*
Y-643135D1*
X-334603Y-650297D1*
X-337488Y-654608D1*
X-341799Y-656034D1*
X-344651D1*
X-348962Y-654608D1*
X-351814Y-650297D1*
X-353273Y-643135D1*
Y-638824D1*
X-351814Y-631661D1*
X-348962Y-627350D1*
X-344651Y-625924D1*
X-341799D1*
X-351814Y-631661D2*
X-334603Y-650297D1*
X-363962Y-653149D2*
X-362536Y-654608D1*
X-363962Y-656034D1*
X-365421Y-654608D1*
X-363962Y-653149D1*
X-377570Y-625924D2*
X-393322D1*
X-384733Y-637398D1*
X-389044D1*
X-391896Y-638824D1*
X-393322Y-640249D1*
X-394781Y-644560D1*
Y-647412D1*
X-393322Y-651723D1*
X-390470Y-654608D1*
X-386159Y-656034D1*
X-381848D1*
X-377570Y-654608D1*
X-376144Y-653149D1*
X-374685Y-650297D1*
X-404044Y-631661D2*
X-406930Y-630201D1*
X-411241Y-625924D1*
Y-656034D1*
X-337483Y-721413D2*
X-333172Y-722839D1*
X-330287Y-727150D1*
X-328861Y-734313D1*
Y-738624D1*
X-330287Y-745787D1*
X-333172Y-750098D1*
X-337483Y-751524D1*
X-340335D1*
X-344646Y-750098D1*
X-347498Y-745787D1*
X-348957Y-738624D1*
Y-734313D1*
X-347498Y-727150D1*
X-344646Y-722839D1*
X-340335Y-721413D1*
X-337483D1*
X-347498Y-727150D2*
X-330287Y-745787D1*
X-359646Y-748639D2*
X-358220Y-750098D1*
X-359646Y-751524D1*
X-361105Y-750098D1*
X-359646Y-748639D1*
X-373254Y-721413D2*
X-389006D1*
X-380417Y-732887D1*
X-384728D1*
X-387580Y-734313D1*
X-389006Y-735739D1*
X-390465Y-740050D1*
Y-742902D1*
X-389006Y-747213D1*
X-386154Y-750098D1*
X-381843Y-751524D1*
X-377532D1*
X-373254Y-750098D1*
X-371828Y-748639D1*
X-370369Y-745787D1*
X-408351Y-721413D2*
X-404040Y-722839D1*
X-401154Y-727150D1*
X-399729Y-734313D1*
Y-738624D1*
X-401154Y-745787D1*
X-404040Y-750098D1*
X-408351Y-751524D1*
X-411202D1*
X-415514Y-750098D1*
X-418365Y-745787D1*
X-419825Y-738624D1*
Y-734313D1*
X-418365Y-727150D1*
X-415514Y-722839D1*
X-411202Y-721413D1*
X-408351D1*
X-418365Y-727150D2*
X-401154Y-745787D1*
X-340779Y-821202D2*
X-336468Y-822628D1*
X-333583Y-826939D1*
X-332157Y-834102D1*
Y-838413D1*
X-333583Y-845576D1*
X-336468Y-849887D1*
X-340779Y-851313D1*
X-343631D1*
X-347942Y-849887D1*
X-350794Y-845576D1*
X-352253Y-838413D1*
Y-834102D1*
X-350794Y-826939D1*
X-347942Y-822628D1*
X-343631Y-821202D1*
X-340779D1*
X-350794Y-826939D2*
X-333583Y-845576D1*
X-362942Y-848428D2*
X-361516Y-849887D1*
X-362942Y-851313D1*
X-364401Y-849887D1*
X-362942Y-848428D1*
X-375124Y-828365D2*
Y-826939D1*
X-376550Y-824054D1*
X-377976Y-822628D1*
X-380861Y-821202D1*
X-386598D1*
X-389450Y-822628D1*
X-390876Y-824054D1*
X-392335Y-826939D1*
Y-829791D1*
X-390876Y-832676D1*
X-388024Y-836954D1*
X-373665Y-851313D1*
X-393761D1*
X-421695Y-831217D2*
X-420235Y-835528D1*
X-417384Y-838413D1*
X-413073Y-839839D1*
X-411647D1*
X-407336Y-838413D1*
X-404484Y-835528D1*
X-403025Y-831217D1*
Y-829791D1*
X-404484Y-825480D1*
X-407336Y-822628D1*
X-411647Y-821202D1*
X-413073D1*
X-417384Y-822628D1*
X-420235Y-825480D1*
X-421695Y-831217D1*
Y-838413D1*
X-420235Y-845576D1*
X-417384Y-849887D1*
X-413073Y-851313D1*
X-410221D1*
X-405910Y-849887D1*
X-404484Y-847002D1*
X-439235Y-904025D2*
X-437809Y-899714D1*
X-433498Y-896829D1*
X-426335Y-895403D1*
X-422024D1*
X-414861Y-896829D1*
X-410550Y-899714D1*
X-409124Y-904025D1*
Y-906877D1*
X-410550Y-911188D1*
X-414861Y-914039D1*
X-422024Y-915499D1*
X-426335D1*
X-433498Y-914039D1*
X-437809Y-911188D1*
X-439235Y-906877D1*
Y-904025D1*
X-433498Y-914039D2*
X-414861Y-896829D1*
X-412009Y-926188D2*
X-410550Y-924762D1*
X-409124Y-926188D1*
X-410550Y-927647D1*
X-412009Y-926188D1*
X-432072Y-938370D2*
X-433498D1*
X-436383Y-939796D1*
X-437809Y-941222D1*
X-439235Y-944107D1*
Y-949844D1*
X-437809Y-952696D1*
X-436383Y-954122D1*
X-433498Y-955581D1*
X-430646D1*
X-427761Y-954122D1*
X-423483Y-951270D1*
X-409124Y-936911D1*
Y-957007D1*
X-434957Y-983481D2*
X-437809Y-982055D1*
X-439235Y-977744D1*
Y-974892D1*
X-437809Y-970581D1*
X-433498Y-967696D1*
X-426335Y-966270D1*
X-419172D1*
X-413435Y-967696D1*
X-410550Y-970581D1*
X-409124Y-974892D1*
Y-976318D1*
X-410550Y-980596D1*
X-413435Y-983481D1*
X-417746Y-984907D1*
X-419172D1*
X-423483Y-983481D1*
X-426335Y-980596D1*
X-427761Y-976318D1*
Y-974892D1*
X-426335Y-970581D1*
X-423483Y-967696D1*
X-419172Y-966270D1*
X415469Y167332D2*
X416895Y170184D1*
X419780Y173069D1*
X422632Y174495D1*
X428369D1*
X431254Y173069D1*
X434106Y170184D1*
X435565Y167332D1*
X436991Y163021D1*
Y155825D1*
X435565Y151547D1*
X434106Y148662D1*
X431254Y145811D1*
X428369Y144351D1*
X422632D1*
X419780Y145811D1*
X416895Y148662D1*
X415469Y151547D1*
X406205Y174495D2*
Y144351D1*
X388994D1*
X379731Y174495D2*
Y144351D1*
X359635Y174495D2*
X379731Y154399D1*
X372568Y161595D2*
X359635Y144351D1*
X435101Y75212D2*
Y45068D1*
X425053D1*
X420742Y46527D1*
X417857Y49379D1*
X416431Y52264D1*
X415005Y56542D1*
Y63738D1*
X416431Y68049D1*
X417857Y70901D1*
X420742Y73786D1*
X425053Y75212D1*
X435101D1*
X405741D2*
Y45068D1*
X387856Y75212D2*
X390741Y73786D1*
X393593Y70901D1*
X395052Y68049D1*
X396478Y63738D1*
Y56542D1*
X395052Y52264D1*
X393593Y49379D1*
X390741Y46527D1*
X387856Y45068D1*
X382119D1*
X379267Y46527D1*
X376382Y49379D1*
X374956Y52264D1*
X373530Y56542D1*
Y63738D1*
X374956Y68049D1*
X376382Y70901D1*
X379267Y73786D1*
X382119Y75212D1*
X387856D1*
X414147Y-28337D2*
X415572Y-25485D1*
X418458Y-22600D1*
X421309Y-21174D1*
X427046D1*
X429932Y-22600D1*
X432783Y-25485D1*
X434243Y-28337D1*
X435668Y-32648D1*
Y-39844D1*
X434243Y-44122D1*
X432783Y-47007D1*
X429932Y-49859D1*
X427046Y-51318D1*
X421309D1*
X418458Y-49859D1*
X415572Y-47007D1*
X414147Y-44122D1*
Y-39844D1*
X421309D1*
X384787Y-21174D2*
Y-51318D1*
X404883Y-21174D1*
Y-51318D1*
X375523Y-21174D2*
Y-51318D1*
X365475D1*
X361164Y-49859D1*
X358279Y-47007D1*
X356853Y-44122D1*
X355427Y-39844D1*
Y-32648D1*
X356853Y-28337D1*
X358279Y-25485D1*
X361164Y-22600D1*
X365475Y-21174D1*
X375523D1*
X437713Y-123481D2*
X426239Y-153625D1*
X414765Y-123481D1*
X405501D2*
Y-153625D1*
X395453D1*
X391142Y-152166D1*
X388257Y-149314D1*
X386831Y-146429D1*
X385405Y-142151D1*
Y-134955D1*
X386831Y-130644D1*
X388257Y-127792D1*
X391142Y-124907D1*
X395453Y-123481D1*
X405501D1*
X376142D2*
Y-153625D1*
X366094D1*
X361783Y-152166D1*
X358897Y-149314D1*
X357471Y-146429D1*
X356046Y-142151D1*
Y-134955D1*
X357471Y-130644D1*
X358897Y-127792D1*
X361783Y-124907D1*
X366094Y-123481D1*
X376142D1*
X427588Y-222479D2*
X431899Y-223905D1*
X434784Y-228216D1*
X436210Y-235379D1*
Y-239690D1*
X434784Y-246853D1*
X431899Y-251164D1*
X427588Y-252590D1*
X424736D1*
X420425Y-251164D1*
X417573Y-246853D1*
X416114Y-239690D1*
Y-235379D1*
X417573Y-228216D1*
X420425Y-223905D1*
X424736Y-222479D1*
X427588D1*
X417573Y-228216D2*
X434784Y-246853D1*
X405425Y-249704D2*
X406851Y-251164D1*
X405425Y-252590D1*
X403965Y-251164D1*
X405425Y-249704D1*
X393243Y-229642D2*
Y-228216D1*
X391817Y-225331D1*
X390391Y-223905D1*
X387506Y-222479D1*
X381769D1*
X378917Y-223905D1*
X377491Y-225331D1*
X376032Y-228216D1*
Y-231068D1*
X377491Y-233953D1*
X380343Y-238231D1*
X394702Y-252590D1*
X374606D1*
X363883Y-229642D2*
Y-228216D1*
X362457Y-225331D1*
X361031Y-223905D1*
X358146Y-222479D1*
X352409D1*
X349557Y-223905D1*
X348131Y-225331D1*
X346672Y-228216D1*
Y-231068D1*
X348131Y-233953D1*
X350983Y-238231D1*
X365342Y-252590D1*
X345246D1*
X355470Y-355276D2*
X351159Y-353850D1*
X348274Y-349539D1*
X346848Y-342376D1*
Y-338065D1*
X348274Y-330902D1*
X351159Y-326591D1*
X355470Y-325165D1*
X358322D1*
X362633Y-326591D1*
X365485Y-330902D1*
X366944Y-338065D1*
Y-342376D1*
X365485Y-349539D1*
X362633Y-353850D1*
X358322Y-355276D1*
X355470D1*
X365485Y-349539D2*
X348274Y-330902D1*
X377633Y-328050D2*
X376207Y-326591D1*
X377633Y-325165D1*
X379092Y-326591D1*
X377633Y-328050D1*
X389815Y-348113D2*
Y-349539D1*
X391241Y-352424D1*
X392667Y-353850D1*
X395552Y-355276D1*
X401289D1*
X404141Y-353850D1*
X405567Y-352424D1*
X407026Y-349539D1*
Y-346687D1*
X405567Y-343802D1*
X402715Y-339524D1*
X388356Y-325165D1*
X408452D1*
X426337Y-355276D2*
X422026Y-353850D1*
X419141Y-349539D1*
X417715Y-342376D1*
Y-338065D1*
X419141Y-330902D1*
X422026Y-326591D1*
X426337Y-325165D1*
X429189D1*
X433500Y-326591D1*
X436352Y-330902D1*
X437811Y-338065D1*
Y-342376D1*
X436352Y-349539D1*
X433500Y-353850D1*
X429189Y-355276D1*
X426337D1*
X436352Y-349539D2*
X419141Y-330902D1*
X366280Y-453234D2*
X361969Y-451808D1*
X359084Y-447497D1*
X357658Y-440334D1*
Y-436023D1*
X359084Y-428860D1*
X361969Y-424549D1*
X366280Y-423123D1*
X369132D1*
X373443Y-424549D1*
X376295Y-428860D1*
X377754Y-436023D1*
Y-440334D1*
X376295Y-447497D1*
X373443Y-451808D1*
X369132Y-453234D1*
X366280D1*
X376295Y-447497D2*
X359084Y-428860D1*
X388444Y-426008D2*
X387018Y-424549D1*
X388444Y-423123D1*
X389903Y-424549D1*
X388444Y-426008D1*
X399166Y-447497D2*
X402052Y-448956D1*
X406363Y-453234D1*
Y-423123D1*
X421363D2*
X435722Y-453234D1*
X415626D1*
X426167Y-519166D2*
X430478Y-520592D1*
X433363Y-524903D1*
X434789Y-532066D1*
Y-536377D1*
X433363Y-543540D1*
X430478Y-547851D1*
X426167Y-549277D1*
X423315D1*
X419004Y-547851D1*
X416152Y-543540D1*
X414693Y-536377D1*
Y-532066D1*
X416152Y-524903D1*
X419004Y-520592D1*
X423315Y-519166D1*
X426167D1*
X416152Y-524903D2*
X433363Y-543540D1*
X404004Y-546392D2*
X405430Y-547851D1*
X404004Y-549277D1*
X402545Y-547851D1*
X404004Y-546392D1*
X393281Y-524903D2*
X390396Y-523444D1*
X386085Y-519166D1*
Y-549277D1*
X359610Y-519166D2*
X373936D1*
X375362Y-532066D1*
X373936Y-530640D1*
X369625Y-529181D1*
X365347D1*
X361036Y-530640D1*
X358151Y-533492D1*
X356725Y-537803D1*
Y-540655D1*
X358151Y-544966D1*
X361036Y-547851D1*
X365347Y-549277D1*
X369625D1*
X373936Y-547851D1*
X375362Y-546392D1*
X376821Y-543540D1*
X-443685Y-1673867D2*
D94*
Y-1708311D1*
X-426485Y-1691111D2*
X-460929D1*
X431022Y-604947D2*
D92*
X435333Y-606373D1*
X438218Y-610684D1*
X439644Y-617847D1*
Y-622158D1*
X438218Y-629321D1*
X435333Y-633632D1*
X431022Y-635058D1*
X428170D1*
X423859Y-633632D1*
X421007Y-629321D1*
X419548Y-622158D1*
Y-617847D1*
X421007Y-610684D1*
X423859Y-606373D1*
X428170Y-604947D1*
X431022D1*
X421007Y-610684D2*
X438218Y-629321D1*
X408858Y-632173D2*
X410284Y-633632D1*
X408858Y-635058D1*
X407399Y-633632D1*
X408858Y-632173D1*
X396677Y-612110D2*
Y-610684D1*
X395251Y-607799D1*
X393825Y-606373D1*
X390940Y-604947D1*
X385203D1*
X382351Y-606373D1*
X380925Y-607799D1*
X379466Y-610684D1*
Y-613536D1*
X380925Y-616421D1*
X383777Y-620699D1*
X398136Y-635058D1*
X378040D1*
X354417D2*
Y-604947D1*
X368776Y-625010D1*
X347254D1*
X439306Y-758405D2*
X443617Y-759831D1*
X446502Y-764142D1*
X447928Y-771305D1*
Y-775616D1*
X446502Y-782779D1*
X443617Y-787090D1*
X439306Y-788516D1*
X436454D1*
X432143Y-787090D1*
X429291Y-782779D1*
X427832Y-775616D1*
Y-771305D1*
X429291Y-764142D1*
X432143Y-759831D1*
X436454Y-758405D1*
X439306D1*
X429291Y-764142D2*
X446502Y-782779D1*
X417143Y-785631D2*
X418569Y-787090D1*
X417143Y-788516D1*
X415684Y-787090D1*
X417143Y-785631D1*
X406420Y-764142D2*
X403535Y-762683D1*
X399224Y-758405D1*
Y-788516D1*
X387075Y-758405D2*
X371324D1*
X379912Y-769879D1*
X375601D1*
X372750Y-771305D1*
X371324Y-772731D1*
X369864Y-777042D1*
Y-779894D1*
X371324Y-784205D1*
X374175Y-787090D1*
X378486Y-788516D1*
X382798D1*
X387075Y-787090D1*
X388501Y-785631D1*
X389960Y-782779D1*
X288741Y-488501D2*
D94*
Y-522945D1*
X305941Y-505745D2*
X271497D1*
M02*
