M48
INCH
T01C0.0118
T02C0.0157
T03C0.0197
T04C0.0236
T05C0.0276
T06C0.0394
T07C0.0551
%
T01
X+003079Y-011312
X+002088Y-011559
X+001688Y-011559
X+002059Y-011052
X+001308Y-010927
X+002584Y-012617
X+002606Y-014196
X+001911Y-014295
X+001212Y-014441
X+000949Y-014757
X+000178Y-014758
X-000448Y-013779
X-000453Y-013481
X-001222Y-014856
X-001216Y-016317
X+000164Y-016486
X+003826Y-017366
X+004908Y-016604
X+005067Y-016276
X+004526Y-015203
X+004518Y-014688
X+004509Y-014156
X+004509Y-013607
X+004770Y-008762
X+004789Y-008293
X+003688Y-008021
X+003916Y-005417
X+003658Y-005191
X+002292Y-004238
X+002952Y-003342
X+000901Y-004191
X+000414Y-004123
X-000225Y-004443
X-000770Y-004555
X-001065Y-004771
X-002298Y-003784
X-003003Y-002520
X-003101Y-002040
X-003237Y-001661
X-002989Y-001006
X-003573Y-000436
X-003563Y-000064
X-002959Y-000022
X-004225Y+000081
X-004195Y+000863
X-004207Y+001138
X-003635Y+001263
X-003879Y+002164
X-003747Y+002412
X-004109Y+002418
X-004203Y+002156
X-004473Y+002413
X-003376Y+002417
X-002978Y+002417
X-000980Y+001019
X-000981Y+000121
X-000980Y-000786
X-000979Y-001693
X+000989Y-001689
X+000988Y-000782
X+000979Y+000124
X+000989Y+001020
X+003878Y+000031
X+004281Y+000031
X+004305Y-000767
X+003998Y+002018
X+004140Y+002423
X+004462Y+002418
X+004768Y+002405
X+005044Y+002298
X+003816Y+002429
X+000921Y-006254
X+001035Y-006964
X+000415Y-006965
X-000199Y-007446
X-000197Y-007748
X-000184Y-008631
X-001124Y-008785
X-001600Y-009220
X-002318Y-009303
X-002427Y-008429
X-003726Y-009128
X-004223Y-007806
X-003788Y-006091
X-004188Y-004914
X-003899Y-003977
X-003894Y-003634
X-002416Y-006534
X-000788Y-007005
X-001274Y-010453
X-002479Y-011371
X-002056Y-012553
X-003836Y-013317
X-003824Y-013933
X-004115Y-012691
X-004416Y-015423
T02
X+002633Y-003869
X+004116Y-010040
X+003709Y-012601
X-002552Y-010012
T03
X+001976Y-001744
X+001976Y-001240
X+001976Y-000744
X+001976Y-000240
X+001976Y+000260
X+001976Y+000760
X+001976Y+001260
X+001976Y+001760
X+001665Y-002795
X+001161Y-002795
X+000665Y-002795
X+000165Y-002795
X-000335Y-002795
X-000835Y-002795
X-001335Y-002795
T04
X-002267Y-005263
X-002267Y-004436
T05
X+001590Y-017050G85X+001590Y-016893
X+001118Y-015928
X-000792Y-015928
X-001264Y-017050G85X-001264Y-016893
T06
X-004843Y-001402
X-004843Y-002398
X-004843Y-003398
X-004843Y-004398
X-004843Y-005398
X-004858Y-006394
X-004843Y-007394
X-004858Y-008394
X-004843Y-009394
X-004858Y-010374
X-004843Y-011374
X-004858Y-013452
X-004843Y-014452
X-002138Y-016909G85X-002138Y-016319
X+002469Y-016909G85X+002469Y-016319
X+005008Y-007394
X+004992Y-006394
X+005008Y-005402
X+005008Y-004402
X+005008Y-003402
X+005008Y-002402
X+005008Y-001402
X+005008Y-000402
X+005008Y+000598
X+005008Y+001598
X-004843Y+001598
X-004843Y+000598
X-004843Y-000402
T07
X-000720Y-016614
X+001051Y-016614
T00
M30
