G04 DipTrace 3.2.0.1*
G04 Верхний.gbr*
%MOIN*%
G04 #@! TF.FileFunction,Copper,L1,Top*
G04 #@! TF.Part,Single*
%AMOUTLINE0*
4,1,4,
-0.029636,0.013543,
0.029416,0.014016,
0.029636,-0.013543,
-0.029416,-0.014016,
-0.029636,0.013543,
0*%
%AMOUTLINE9*
4,1,5,
-0.035433,0.015748,
-0.035433,-0.03937,
0.035433,-0.03937,
0.035433,0.03937,
-0.011811,0.03937,
-0.035433,0.015748,
0*%
%AMOUTLINE12*
4,1,5,
-0.035433,-0.03937,
0.035433,-0.03937,
0.035433,0.015748,
0.011811,0.03937,
-0.035433,0.03937,
-0.035433,-0.03937,
0*%
%ADD15C,0.019685*%
%ADD16C,0.011811*%
%ADD17C,0.023622*%
%ADD18C,0.015748*%
%ADD48C,0.027559*%
%ADD49C,0.03937*%
G04 #@! TA.AperFunction,CopperBalancing*
%ADD10C,0.009843*%
G04 #@! TA.AperFunction,Conductor*
%ADD19C,0.003937*%
%ADD20C,0.007874*%
%ADD21C,0.017717*%
%ADD22C,0.01378*%
%ADD23R,0.059055X0.051181*%
%ADD24R,0.051181X0.059055*%
G04 #@! TA.AperFunction,ComponentPad*
%ADD27C,0.070866*%
%ADD28C,0.070866*%
%ADD30R,0.070866X0.062992*%
%ADD32R,0.031496X0.070866*%
%ADD33R,0.074803X0.031496*%
%ADD34R,0.031496X0.074803*%
G04 #@! TA.AperFunction,ComponentPad*
%ADD35R,0.043307X0.029528*%
%ADD36R,0.029528X0.043307*%
%ADD37R,0.249606X0.040157*%
%ADD38R,0.124803X0.040157*%
%ADD40R,0.03937X0.03937*%
%ADD41R,0.023622X0.03937*%
G04 #@! TA.AperFunction,ComponentPad*
%ADD42O,0.055118X0.149606*%
%ADD43R,0.03937X0.106299*%
G04 #@! TA.AperFunction,ComponentPad*
%ADD45C,0.047244*%
G04 #@! TA.AperFunction,ViaPad*
%ADD46C,0.031496*%
%ADD95OUTLINE0*%
G04 #@! TA.AperFunction,ComponentPad*
%ADD104OUTLINE9*%
%ADD107OUTLINE12*%
%FSLAX26Y26*%
G04*
G70*
G90*
G75*
G01*
G04 Top*
%LPD*%
X92122Y-625416D2*
D15*
Y-593701D1*
D16*
X38976D1*
D15*
X141583D1*
D16*
X143945Y-591339D1*
X90127Y-419081D2*
D15*
X91535Y-362205D1*
X-378811Y-609085D2*
X-261841D1*
D16*
X-253937Y-601181D1*
X-378811Y-609085D2*
D15*
X-328797D1*
Y-513979D1*
D16*
X-330407Y-512369D1*
X-247244Y-1969D2*
D17*
X-295945D1*
Y-2185D1*
X-378811Y-609085D2*
D15*
X-411811Y-642085D1*
Y-780580D1*
Y-962333D1*
X-345808D1*
X-410793D2*
Y-1137402D1*
Y-1135353D1*
Y-1221602D1*
Y-1269148D1*
Y-1401325D1*
X-383236D1*
X-333762D1*
X-410793Y-1135353D2*
D17*
Y-1501042D1*
X-371541D1*
X-484252Y-1137402D2*
D15*
X-410793D1*
X166535Y-279528D2*
D18*
Y-254874D1*
X122385Y-210723D1*
X91133D1*
X71455D1*
X63318Y-202585D1*
Y-187093D1*
X-84661Y-39114D1*
X-142959D1*
X-180105Y-1969D1*
X-247244D1*
X-411522Y-1269148D2*
D16*
X-410793D1*
X-362455Y-1221602D2*
D15*
X-410793D1*
X-362409Y-1135353D2*
X-410793D1*
X296732Y-1325835D2*
X302261D1*
Y-1138430D1*
X314545Y-1126147D1*
X362344D1*
Y-1045542D1*
X263332Y-386940D2*
Y-551567D1*
X369866Y-658101D1*
Y-802106D1*
Y-876324D1*
X294903Y-951287D1*
Y-1039276D1*
X301169Y-1045542D1*
X362344D1*
X371535Y-1516535D2*
D18*
X414163D1*
X435786Y-1494912D1*
Y-1255281D1*
X364770Y-1184265D1*
Y-1045542D1*
X362344D1*
X-420681Y113808D2*
D15*
X-420310Y215560D1*
X91535Y-362205D2*
D16*
X91133D1*
D19*
Y-210723D1*
X307903Y-1131230D2*
D15*
X302261Y-1138430D1*
X130756Y-1092671D2*
D18*
X90308D1*
D16*
X72835Y-1075197D1*
X-422256Y-780580D2*
D15*
X-411811D1*
X-382429Y-1393289D2*
X-383236Y-1401325D1*
X368829Y-802106D2*
X369866D1*
X280315Y-51969D2*
D20*
X319597D1*
X365395Y-97766D1*
Y-124366D1*
X426579Y-185550D1*
Y-599707D1*
X447364Y-620492D1*
Y-685946D1*
X500787Y-739370D1*
X280315Y48031D2*
D16*
Y49382D1*
X490327D1*
X500787Y59843D1*
X280315Y98031D2*
X298029D1*
X302465Y93596D1*
X434541D1*
X500787Y159843D1*
X280315Y-1969D2*
D20*
X315062D1*
X340264Y-27171D1*
X351990D1*
X379104Y-54285D1*
Y-105581D1*
X445058Y-171535D1*
Y-585215D1*
X499213Y-639370D1*
X-77010Y-455451D2*
D16*
Y-435067D1*
X-60820Y-418878D1*
Y-362205D1*
X-58465D1*
X-226690Y-443598D2*
X-192811D1*
X-161417Y-412205D1*
Y-365157D1*
X-158465Y-362205D1*
X-330407Y-437566D2*
X-321516Y-446457D1*
X-229549D1*
X-226690Y-443598D1*
Y-526276D2*
X-176915D1*
X-152756Y-502117D1*
Y-456693D1*
X-108465Y-412402D1*
Y-362205D1*
X-179134Y-601181D2*
X-176915D1*
Y-526276D1*
X41412Y-412310D2*
D17*
X41535Y-362205D1*
X41412Y-412310D2*
X42033D1*
Y-515841D1*
D16*
X38976Y-518898D1*
X229247Y-423810D2*
Y-607077D1*
X265748Y-643579D1*
Y-700787D1*
X-242711Y-842913D2*
D15*
X-295276D1*
Y-822835D1*
D16*
Y-811537D1*
X-265751Y-841062D1*
Y-981857D1*
Y-991517D1*
X-253696Y-1003572D1*
X-116112D1*
X-98071Y-1021613D1*
Y-1064538D1*
X-88593Y-1074016D1*
X-46457D1*
X-255184Y-1001177D2*
X-265751Y-981857D1*
X-255184Y-1001177D2*
D15*
Y-1054122D1*
X-154832Y-1154474D1*
X62402D1*
X141535Y-362205D2*
Y-514126D1*
X143945Y-516535D1*
X0Y-1254474D2*
D21*
X194315D1*
X254594Y-1194194D1*
Y-939176D1*
X236917Y-921499D1*
X-112546D1*
X-154676Y-879369D1*
Y-715390D1*
X-98499Y-659213D1*
X188681D1*
X198307Y-649587D1*
Y-553322D1*
X161521Y-516535D1*
X143945D1*
X-106470Y-477094D2*
D16*
Y-516929D1*
X-82283D1*
X-22455Y-444276D2*
X-20689D1*
X-6730Y-430316D1*
Y-362205D1*
X-8465D1*
X-78827Y-700486D2*
X-79528Y-701186D1*
Y-743701D1*
X-295276Y-712598D2*
Y-704034D1*
X-290009Y-698768D1*
X-184899D1*
X-80073Y-593942D1*
X-82283Y-591732D1*
X143937Y-747638D2*
Y-714051D1*
X126301Y-696415D1*
X103486D1*
X143937Y-822441D2*
D10*
X191487D1*
X246098Y-767829D1*
X318647D1*
X326663Y-759814D1*
Y-702647D1*
X324803Y-700787D1*
X42126Y-818898D2*
Y-859843D1*
X52999Y-870715D1*
X249042D1*
X265748Y-854009D1*
Y-834646D1*
X-79528Y-818504D2*
Y-879921D1*
X-66970Y-892479D1*
X306194D1*
X324803Y-873870D1*
Y-834646D1*
X41479Y-696530D2*
D16*
X42126Y-744094D1*
X-300318Y-251969D2*
X-247244D1*
X-484252Y-140157D2*
X-456379D1*
X-359822Y-43600D1*
X-357264D1*
X-298944Y-100614D2*
X-248598D1*
X-247244Y-101969D1*
Y198031D2*
X-323388D1*
X-364660Y156760D1*
Y125206D1*
X-363542Y126324D1*
X-323738Y-166147D2*
X-309559Y-151969D1*
X-247244D1*
X-310075Y-203970D2*
X-249245D1*
X-247244Y-201969D1*
X-133465Y-279528D2*
Y-288682D1*
X-176829D1*
X-229774Y-341627D1*
Y-378373D1*
X-127421Y-1045345D2*
X-166003D1*
Y-1045542D1*
X295240Y-334184D2*
X261723D1*
X209777Y-282238D1*
Y-255942D1*
X144971Y-191136D1*
Y163445D1*
X155549Y174022D1*
X195676D1*
X197638Y175984D1*
X361667Y-960899D2*
X376627D1*
X397913Y-939613D1*
Y-646576D1*
X304052Y-552715D1*
Y-380738D1*
X325556Y-359235D1*
Y-270487D1*
X307038Y-251969D1*
X280315D1*
X72835Y-1000394D2*
X124188D1*
X162249Y-962332D1*
X182538D1*
X-46457Y-999213D2*
X72835D1*
Y-1000394D1*
X154331Y-1555118D2*
D15*
Y-1521949D1*
X254232Y-1422047D1*
X282283D1*
X296732D1*
Y-1516535D1*
X260601Y-1419625D2*
X282283Y-1422047D1*
X62402Y-1354474D2*
X195450D1*
X260601Y-1419625D1*
X-247948Y-1137148D2*
D18*
X-285811D1*
D16*
X-287606Y-1135353D1*
D18*
X-287652Y-1221602D1*
X-341636Y-1310774D2*
D16*
Y-1301374D1*
D22*
X-299667Y-1259404D1*
Y-1233617D1*
D16*
X-287652Y-1221602D1*
X370883Y-1260071D2*
D15*
Y-1409358D1*
X358194Y-1422047D1*
X371535D1*
Y-1325835D2*
D18*
Y-1422047D1*
X411601Y-1003993D2*
X423247Y-992348D1*
Y-629768D1*
X335365Y-541886D1*
Y-391138D1*
X352814Y-373689D1*
Y-225088D1*
X329694Y-201969D1*
X280315D1*
X17762Y-1475770D2*
D16*
X55906Y-1475675D1*
X94866D1*
X365837Y-519068D2*
D10*
Y-418576D1*
X381349Y-403064D1*
Y-209655D1*
X325238Y-153543D1*
X281890D1*
X280315Y-151969D1*
X94866Y-1475675D2*
D16*
X140316D1*
X153755Y-1462236D1*
Y-1427049D1*
X141325Y-1414619D1*
X-139274D1*
X-238898Y-1314996D1*
X-262612D1*
X-266833Y-1310774D1*
X55906Y-1555118D2*
Y-1475675D1*
X391622Y-541669D2*
D10*
Y-452213D1*
X404009Y-439825D1*
Y-198198D1*
X348031Y-142220D1*
Y-115864D1*
X332955Y-100787D1*
X281496D1*
X280315Y-101969D1*
X-22835Y-1555118D2*
D16*
Y-1628487D1*
X-2745Y-1648576D1*
X16365D1*
X-22835Y-1555118D2*
Y-1488361D1*
X-48283Y-1462912D1*
X-69392Y-1441803D1*
X-226356D1*
X-266833Y-1401325D1*
X121188Y-1444146D2*
X-29517D1*
X-48283Y-1462912D1*
X-121260Y-1555118D2*
D17*
Y-1514886D1*
X-217962D1*
X-231806Y-1501042D1*
X-296738D1*
X-122186Y-1485601D2*
Y-1554192D1*
D16*
X-121260Y-1555118D1*
X280315Y198031D2*
X259049D1*
X237539Y219541D1*
X141774D1*
X98925Y176692D1*
Y101970D1*
X280315Y148031D2*
X333394D1*
X343579Y158217D1*
Y226367D1*
X323997Y245949D1*
X46026D1*
X-98031Y101891D1*
X-484252Y-40157D2*
X-429533D1*
X-365353Y24022D1*
Y42487D1*
X-308782Y99058D1*
X-248270D1*
X-247244Y98031D1*
Y148031D2*
X-309656D1*
X-321424Y136264D1*
Y134798D1*
X-421087Y35135D1*
Y9518D1*
X-422549Y8056D1*
X-484252Y-239764D2*
X-433534D1*
X-416400Y-222630D1*
Y-169759D1*
X-397812Y-151171D1*
Y-122482D1*
X-328752Y-53421D1*
Y26194D1*
X-306403Y48543D1*
X-247756D1*
X-247244Y48031D1*
Y-51969D2*
Y-57256D1*
X-299003D1*
X-373698Y-131951D1*
Y-157337D1*
X-389664Y-173303D1*
Y-312762D1*
X-420066Y-343164D1*
X-480852D1*
X-484252Y-339764D1*
D17*
X307903Y-1131230D3*
X-420681Y113808D3*
X-420310Y215560D3*
X307903Y-1131230D3*
X-363542Y126324D3*
X98925Y101970D3*
X-98031Y101891D3*
X97883Y12411D3*
X-98055Y12081D3*
X-422549Y8056D3*
X-295945Y-2185D3*
X130756Y-1092671D3*
X-357264Y-43600D3*
X98843Y-78161D3*
X-97978Y-78601D3*
X-298944Y-100614D3*
X-323738Y-166147D3*
X98894Y-168870D3*
X-97858Y-169295D3*
X-310075Y-203970D3*
X-300318Y-251969D3*
X-229774Y-378373D3*
X41412Y-412310D3*
X-77010Y-455451D3*
X90127Y-419081D3*
X229247Y-423810D3*
X-22455Y-444276D3*
X-106470Y-477094D3*
X295240Y-334184D3*
X391622Y-541669D3*
X365837Y-519068D3*
D46*
X263332Y-386940D3*
D17*
X-378811Y-609085D3*
X92122Y-625416D3*
X41479Y-696530D3*
X103486Y-696415D3*
X-78827Y-700486D3*
X-242711Y-842913D3*
D46*
X-255184Y-1001177D3*
D17*
X-127421Y-1045345D3*
X-247948Y-1137148D3*
D46*
X370883Y-1260071D3*
D17*
X-411522Y-1269148D3*
X260601Y-1419625D3*
X121188Y-1444146D3*
X94866Y-1475675D3*
X17762Y-1475770D3*
X-122186Y-1485601D3*
X16365Y-1648576D3*
D46*
X411601Y-1003993D3*
D17*
X-297829Y241739D3*
X-337552Y241701D3*
X-374743Y241236D3*
X-410917Y241827D3*
X-447299Y241277D3*
X-387862Y216367D3*
X-419457Y86319D3*
X-356348Y-6391D3*
X-389375Y-363428D3*
X-389869Y-397696D3*
X-241577Y-653434D3*
X-422256Y-780580D3*
X-418774Y-491370D3*
X-372635Y-912843D3*
X-159986Y-922034D3*
X-19941Y-744612D3*
X-19686Y-774849D3*
X-112424Y-878450D3*
X-231766Y-930311D3*
X-18428Y-863051D3*
X-383605Y-1331692D3*
X-441568Y-1542265D3*
X-382429Y-1393289D3*
X-45344Y-1348064D3*
X-44832Y-1377881D3*
X-205609Y-1255349D3*
X-121638Y-1631667D3*
X490773Y-1660370D3*
X506735Y-1627562D3*
X382594Y-1736627D3*
X452644Y-1520269D3*
X451759Y-1468840D3*
X450871Y-1415636D3*
Y-1360660D3*
X191140Y-1429488D3*
X205867Y-1105224D3*
X208794Y-1155944D3*
X168803D3*
X368829Y-802106D3*
X478921Y-829346D3*
X476970Y-876165D3*
X258421Y-1261699D3*
X428064Y3055D3*
X387760D3*
X430483Y-76749D3*
X381646Y242906D3*
X414050Y242261D3*
X446240Y241777D3*
X476764Y240541D3*
X504440Y229848D3*
X399761Y201835D3*
X-488159Y244449D2*
D10*
X-255945D1*
X356260D2*
X502487D1*
X-497866Y234738D2*
X-255925D1*
X363892D2*
X513425D1*
X-507575Y225026D2*
X-300793D1*
X365622D2*
X524383D1*
X-512765Y215315D2*
X-336415D1*
X365622D2*
X528285D1*
X-515706Y205604D2*
X-506814D1*
X-461688D2*
X-346584D1*
X365622D2*
X478227D1*
X523353D2*
X531938D1*
X-447769Y195892D2*
X-356291D1*
X365622D2*
X464308D1*
X-440080Y186181D2*
X-366020D1*
X365622D2*
X456600D1*
X-435486Y176470D2*
X-375727D1*
X-314184D2*
X-300793D1*
X365622D2*
X452025D1*
X-433160Y166759D2*
X-384185D1*
X-323892D2*
X-320273D1*
X365622D2*
X449680D1*
X-432756Y157047D2*
X-386703D1*
X365604D2*
X449295D1*
X-434256Y147336D2*
X-386703D1*
X362604D2*
X450776D1*
X-437812Y137625D2*
X-389010D1*
X353761D2*
X447795D1*
X-444021Y127913D2*
X-391451D1*
X340613D2*
X438088D1*
X-519243Y118202D2*
X-513962D1*
X-454537D2*
X-390241D1*
X333865D2*
X428379D1*
X530504D2*
X536568D1*
X-519243Y108491D2*
X-499123D1*
X-469377D2*
X-384762D1*
X480215D2*
X485900D1*
X515663D2*
X536551D1*
X-450961Y98780D2*
X-388222D1*
X-441965Y89068D2*
X-397930D1*
X-436601Y79357D2*
X-407638D1*
X-433640Y69646D2*
X-417346D1*
X-307417D2*
X-300795D1*
X-432678Y59934D2*
X-427054D1*
X-394655Y30801D2*
X-389335D1*
X-450749Y21089D2*
X-447143D1*
X333865D2*
X467289D1*
X-519167Y11378D2*
X-499739D1*
X-468762D2*
X-450295D1*
X-306706D2*
X-300791D1*
X333865D2*
X485302D1*
X516278D2*
X536493D1*
X-519167Y1667D2*
X-513714D1*
X-454806D2*
X-449719D1*
X-356938D2*
X-350794D1*
X-306706D2*
X-300791D1*
X339420D2*
X471345D1*
X530235D2*
X536493D1*
X-366646Y-8045D2*
X-350794D1*
X-306706D2*
X-300791D1*
X349129D2*
X460714D1*
X-376354Y-17756D2*
X-365962D1*
X-306706D2*
X-300791D1*
X370563D2*
X454448D1*
X-386062Y-27467D2*
X-379858D1*
X-306706D2*
X-300791D1*
X380270D2*
X450833D1*
X-395789Y-37178D2*
X-384436D1*
X389979D2*
X449295D1*
X-405497Y-46890D2*
X-393894D1*
X397688D2*
X449660D1*
X-415378Y-56601D2*
X-403601D1*
X399186D2*
X451967D1*
X-439965Y-66312D2*
X-413310D1*
X399186D2*
X456504D1*
X-447597Y-76024D2*
X-423017D1*
X399186D2*
X464117D1*
X-519109Y-85735D2*
X-507198D1*
X-461303D2*
X-432726D1*
X399186D2*
X477843D1*
X523718D2*
X536417D1*
X-519109Y-95446D2*
X-508908D1*
X-459592D2*
X-442433D1*
X399186D2*
X476131D1*
X525448D2*
X536417D1*
X406665Y-105157D2*
X463270D1*
X-325853Y-114869D2*
X-322825D1*
X416373D2*
X455986D1*
X-335562Y-124580D2*
X-312289D1*
X426100D2*
X451678D1*
X-345269Y-134291D2*
X-321997D1*
X435808D2*
X449545D1*
X-429450Y-144003D2*
X-421421D1*
X-351651D2*
X-340105D1*
X445516D2*
X449343D1*
X-434525Y-153714D2*
X-431118D1*
X-351651D2*
X-348652D1*
X-444906Y-173136D2*
X-438450D1*
X-358726D2*
X-350774D1*
X-519051Y-182848D2*
X-512374D1*
X-456113D2*
X-438454D1*
X-367626D2*
X-345892D1*
X465143D2*
X472665D1*
X528908D2*
X536360D1*
X-519031Y-192559D2*
X-503430D1*
X-465071D2*
X-438454D1*
X-367626D2*
X-335492D1*
X465143D2*
X482668D1*
X518912D2*
X536360D1*
X-449307Y-202270D2*
X-438454D1*
X-367626D2*
X-337971D1*
X-367626Y-211982D2*
X-336819D1*
X-367626Y-221693D2*
X-331378D1*
X-367626Y-231404D2*
X-318748D1*
X-367626Y-241115D2*
X-325995D1*
X-367626Y-250827D2*
X-328244D1*
X-429084Y-260538D2*
X-411714D1*
X-367626D2*
X-326879D1*
X-442887Y-270249D2*
X-411714D1*
X-367626D2*
X-321131D1*
X-518974Y-279961D2*
X-515938D1*
X-452556D2*
X-411714D1*
X-367626D2*
X-300793D1*
X465143D2*
X468589D1*
X533003D2*
X536303D1*
X-518974Y-289672D2*
X-493510D1*
X-474991D2*
X-411714D1*
X-367626D2*
X-255483D1*
X289573D2*
X303503D1*
X465143D2*
X489434D1*
X512146D2*
X536282D1*
X-518974Y-299383D2*
X-515715D1*
X-452787D2*
X-411714D1*
X-367626D2*
X-255483D1*
X289573D2*
X303503D1*
X465143D2*
X469873D1*
X531715D2*
X536273D1*
X-443041Y-309094D2*
X-416769D1*
X-367626D2*
X-255463D1*
X-437215Y-318806D2*
X-426478D1*
X-368510D2*
X-255463D1*
X-374643Y-328517D2*
X-255463D1*
X-384350Y-338228D2*
X-255445D1*
X-394077Y-347940D2*
X-251831D1*
X-205320D2*
X-190353D1*
X223425D2*
X244717D1*
X-403786Y-357651D2*
X-251831D1*
X-207723D2*
X-190353D1*
X223425D2*
X280972D1*
X-440869Y-367362D2*
X-255387D1*
X-204167D2*
X-190353D1*
X223425D2*
X286798D1*
X-449096Y-377073D2*
X-257694D1*
X-201861D2*
X-190353D1*
X223425D2*
X282319D1*
X-518916Y-386785D2*
X-503911D1*
X-464610D2*
X-256387D1*
X-203168D2*
X-190353D1*
X223425D2*
X282010D1*
X465143D2*
X480168D1*
X521391D2*
X536224D1*
X-518898Y-396496D2*
X-511436D1*
X-457055D2*
X-250735D1*
X-208819D2*
X-190353D1*
X223425D2*
X282010D1*
X465143D2*
X474248D1*
X527332D2*
X536224D1*
X-445406Y-406207D2*
X-376073D1*
X-284734D2*
X-237951D1*
X-215413D2*
X-190353D1*
X250665D2*
X282010D1*
X-438657Y-415919D2*
X-376073D1*
X-284734D2*
X-254829D1*
X-38766D2*
X-28778D1*
X69982D2*
X115552D1*
X167522D2*
X202483D1*
X256028D2*
X282010D1*
X-434698Y-425630D2*
X-376073D1*
X69982D2*
X115552D1*
X167522D2*
X201348D1*
X257143D2*
X282010D1*
X-432871Y-435341D2*
X-376073D1*
X69982D2*
X115552D1*
X167522D2*
X203886D1*
X254605D2*
X282010D1*
X-432949Y-445052D2*
X-376073D1*
X-110336D2*
X-102886D1*
X9311D2*
X14073D1*
X69982D2*
X115552D1*
X167522D2*
X207193D1*
X251299D2*
X282010D1*
X-434948Y-454764D2*
X-376073D1*
X3371D2*
X14071D1*
X69982D2*
X115552D1*
X167522D2*
X207193D1*
X251299D2*
X282010D1*
X-439119Y-464475D2*
X-376073D1*
X-189038D2*
X-174802D1*
X-50609D2*
X-41312D1*
X-3606D2*
X14071D1*
X69982D2*
X115552D1*
X167522D2*
X207193D1*
X251299D2*
X282010D1*
X-446193Y-474186D2*
X-376073D1*
X-284734D2*
X-251504D1*
X-201861D2*
X-174802D1*
X-56626D2*
X14071D1*
X69982D2*
X115552D1*
X167522D2*
X207193D1*
X251299D2*
X282010D1*
X-518840Y-483898D2*
X-509966D1*
X-458535D2*
X-376073D1*
X-284734D2*
X-174802D1*
X-36614D2*
X-6690D1*
X84650D2*
X98272D1*
X189610D2*
X207193D1*
X251299D2*
X282010D1*
X465143D2*
X474382D1*
X527197D2*
X536167D1*
X-518840Y-493609D2*
X-505949D1*
X-462552D2*
X-376073D1*
X-284734D2*
X-248581D1*
X-204802D2*
X-175013D1*
X-36614D2*
X-6690D1*
X84650D2*
X98272D1*
X189610D2*
X207193D1*
X251299D2*
X282010D1*
X465143D2*
X479996D1*
X521584D2*
X536148D1*
X-448173Y-503320D2*
X-376073D1*
X-284734D2*
X-258924D1*
X-194459D2*
X-184740D1*
X-36614D2*
X-6690D1*
X84650D2*
X98272D1*
X189610D2*
X207193D1*
X251299D2*
X282010D1*
X-440311Y-513031D2*
X-376073D1*
X-284734D2*
X-264114D1*
X-133751D2*
X-128531D1*
X-36614D2*
X-6690D1*
X84650D2*
X98272D1*
X192975D2*
X207193D1*
X251299D2*
X282010D1*
X-435621Y-522743D2*
X-376073D1*
X-284734D2*
X-266286D1*
X-142613D2*
X-127953D1*
X-36614D2*
X-6690D1*
X84650D2*
X98272D1*
X202682D2*
X207193D1*
X251299D2*
X282010D1*
X-433218Y-532454D2*
X-376073D1*
X-284734D2*
X-265959D1*
X-152322D2*
X-127953D1*
X-36614D2*
X-6690D1*
X84650D2*
X98272D1*
X251299D2*
X282010D1*
X-432736Y-542165D2*
X-376073D1*
X-284734D2*
X-263058D1*
X-154858D2*
X-127953D1*
X-36614D2*
X-6690D1*
X84650D2*
X98272D1*
X251299D2*
X282010D1*
X-434140Y-551877D2*
X-376073D1*
X-284734D2*
X-256810D1*
X-154858D2*
X-127953D1*
X-36614D2*
X-6690D1*
X84650D2*
X98272D1*
X251299D2*
X282010D1*
X-437619Y-561588D2*
X-295660D1*
X-137403D2*
X-127953D1*
X-36614D2*
X-6690D1*
X84650D2*
X98272D1*
X251299D2*
X283971D1*
X-443714Y-571299D2*
X-295660D1*
X-137403D2*
X-127953D1*
X-36614D2*
X-6690D1*
X84650D2*
X98272D1*
X251299D2*
X291873D1*
X398341D2*
X406504D1*
X-518782Y-581010D2*
X-514534D1*
X-453979D2*
X-295660D1*
X-137403D2*
X-127953D1*
X-36614D2*
X-6690D1*
X84650D2*
X98272D1*
X251299D2*
X301580D1*
X531618D2*
X536097D1*
X-518782Y-590722D2*
X-500699D1*
X-470954D2*
X-295660D1*
X-137403D2*
X-127953D1*
X-36614D2*
X-6690D1*
X84650D2*
X98272D1*
X251299D2*
X311289D1*
X478562D2*
X484340D1*
X514087D2*
X536091D1*
X-452537Y-600433D2*
X-295660D1*
X-137403D2*
X-127953D1*
X-36614D2*
X-6690D1*
X84650D2*
X98272D1*
X253375D2*
X320996D1*
X532503D2*
X536088D1*
X-443541Y-610144D2*
X-295660D1*
X-137403D2*
X-127953D1*
X-36614D2*
X-6690D1*
X84650D2*
X98272D1*
X263083D2*
X330705D1*
X-438157Y-619856D2*
X-295660D1*
X-36614D2*
X-6690D1*
X84650D2*
X98272D1*
X272791D2*
X340412D1*
X-435217Y-629567D2*
X-295660D1*
X-36614D2*
X-6690D1*
X84650D2*
X98272D1*
X282461D2*
X350139D1*
X-434256Y-639278D2*
X-295660D1*
X223310D2*
X230684D1*
X287344D2*
X359848D1*
X-435178Y-648990D2*
X-165900D1*
X223310D2*
X240391D1*
X287786D2*
X369555D1*
X-438100Y-658701D2*
X-175609D1*
X221503D2*
X233856D1*
X356702D2*
X375861D1*
X-443425Y-668412D2*
X-346853D1*
X-243692D2*
X-185316D1*
X214428D2*
X233856D1*
X356702D2*
X375861D1*
X-452325Y-678123D2*
X-346853D1*
X204470D2*
X233856D1*
X356702D2*
X375861D1*
X532714D2*
X536017D1*
X-518705Y-687835D2*
X-501315D1*
X-470339D2*
X-346853D1*
X-54030D2*
X14975D1*
X67982D2*
X76933D1*
X148491D2*
X233856D1*
X356702D2*
X375861D1*
X477235D2*
X483724D1*
X514702D2*
X536013D1*
X-518705Y-697546D2*
X-513714D1*
X-454806D2*
X-346853D1*
X-51031D2*
X13552D1*
X69404D2*
X75549D1*
X158199D2*
X233856D1*
X356702D2*
X375861D1*
X530235D2*
X536026D1*
X-444175Y-707257D2*
X-346853D1*
X-33865D2*
X-3538D1*
X189610D2*
X233856D1*
X356702D2*
X375861D1*
X-437908Y-716969D2*
X-346853D1*
X-33865D2*
X-3538D1*
X189610D2*
X233856D1*
X356702D2*
X375861D1*
X447265D2*
X450404D1*
X-434294Y-726680D2*
X-346853D1*
X-243692D2*
X-179684D1*
X-129676D2*
X-125189D1*
X-33865D2*
X-3538D1*
X87802D2*
X98272D1*
X189610D2*
X233856D1*
X356702D2*
X375861D1*
X447265D2*
X450833D1*
X-432756Y-736391D2*
X-346853D1*
X-243692D2*
X-179684D1*
X-129676D2*
X-125189D1*
X-33865D2*
X-3538D1*
X87802D2*
X98272D1*
X189610D2*
X233856D1*
X356702D2*
X375861D1*
X-433121Y-746102D2*
X-346853D1*
X-243692D2*
X-179684D1*
X-129676D2*
X-125189D1*
X-33865D2*
X-3538D1*
X87802D2*
X98272D1*
X189610D2*
X233856D1*
X356702D2*
X375861D1*
X-435428Y-755814D2*
X-346853D1*
X-243692D2*
X-179684D1*
X-129676D2*
X-125189D1*
X-33865D2*
X-3538D1*
X87802D2*
X98272D1*
X189610D2*
X228741D1*
X347726D2*
X375861D1*
X447265D2*
X451969D1*
X-439965Y-765525D2*
X-179684D1*
X-129676D2*
X-125189D1*
X-33865D2*
X-3538D1*
X87802D2*
X98272D1*
X189610D2*
X219014D1*
X346899D2*
X375861D1*
X447265D2*
X456504D1*
X-447597Y-775236D2*
X-179684D1*
X-129676D2*
X-125189D1*
X-33865D2*
X-3538D1*
X87802D2*
X98272D1*
X189610D2*
X209307D1*
X340613D2*
X375861D1*
X447265D2*
X464117D1*
X-518647Y-784948D2*
X-507198D1*
X-461303D2*
X-346853D1*
X-243692D2*
X-179684D1*
X-129676D2*
X-125189D1*
X-33865D2*
X-3538D1*
X87802D2*
X98272D1*
X189610D2*
X199598D1*
X356702D2*
X375861D1*
X447265D2*
X477843D1*
X523718D2*
X535955D1*
X-518647Y-794659D2*
X-510486D1*
X-461168D2*
X-346853D1*
X-243692D2*
X-179684D1*
X-129676D2*
X-125189D1*
X-33865D2*
X-3538D1*
X87802D2*
X98272D1*
X356702D2*
X375861D1*
X447265D2*
X535955D1*
X-448308Y-804370D2*
X-346853D1*
X-243692D2*
X-179684D1*
X-129676D2*
X-125189D1*
X-33865D2*
X-3538D1*
X87802D2*
X98272D1*
X356702D2*
X375861D1*
X447265D2*
X535936D1*
X-441022Y-814081D2*
X-346853D1*
X-243692D2*
X-179684D1*
X-129676D2*
X-125189D1*
X-33865D2*
X-3538D1*
X87802D2*
X98272D1*
X229231D2*
X233856D1*
X356702D2*
X375861D1*
X447265D2*
X535936D1*
X-436717Y-823793D2*
X-346853D1*
X-222699D2*
X-179684D1*
X-129676D2*
X-125189D1*
X-33865D2*
X-3538D1*
X87802D2*
X98272D1*
X219522D2*
X233856D1*
X356702D2*
X375861D1*
X447265D2*
X535936D1*
X-434601Y-833504D2*
X-346853D1*
X-216451D2*
X-179684D1*
X-129676D2*
X-125189D1*
X-33865D2*
X-3538D1*
X87802D2*
X98272D1*
X209795D2*
X233856D1*
X356702D2*
X375861D1*
X447265D2*
X535917D1*
X-434390Y-843215D2*
X-346853D1*
X-214760D2*
X-179684D1*
X-129676D2*
X-125189D1*
X-33865D2*
X-3538D1*
X87802D2*
X98272D1*
X189610D2*
X233856D1*
X356702D2*
X375861D1*
X447265D2*
X535917D1*
X-436101Y-852927D2*
X-346853D1*
X-216682D2*
X-179684D1*
X-129676D2*
X-125189D1*
X-33865D2*
X-3538D1*
X356702D2*
X375861D1*
X447265D2*
X535917D1*
X-439927Y-862638D2*
X-346853D1*
X-223333D2*
X-179684D1*
X-129676D2*
X-100598D1*
X-58471D2*
X21261D1*
X356702D2*
X375861D1*
X447265D2*
X535898D1*
X-446482Y-872349D2*
X-287798D1*
X-243710D2*
X-179684D1*
X-126753D2*
X-100598D1*
X-57722D2*
X25433D1*
X356702D2*
X375861D1*
X447265D2*
X535898D1*
X-518589Y-882060D2*
X-513970D1*
X-457689D2*
X-287798D1*
X-243710D2*
X-179530D1*
X-117046D2*
X-100483D1*
X356702D2*
X375861D1*
X447265D2*
X535898D1*
X-518571Y-891772D2*
X-502373D1*
X-466129D2*
X-287798D1*
X-243710D2*
X-176224D1*
X-107319D2*
X-96715D1*
X336287D2*
X375861D1*
X447265D2*
X535879D1*
X-449749Y-901483D2*
X-287798D1*
X-243710D2*
X-167516D1*
X326579D2*
X375861D1*
X447265D2*
X535879D1*
X-441253Y-911194D2*
X-287798D1*
X-243710D2*
X-157789D1*
X314449D2*
X375861D1*
X447265D2*
X535879D1*
X-436159Y-920906D2*
X-287798D1*
X-243710D2*
X-148080D1*
X271273D2*
X375861D1*
X447265D2*
X535860D1*
X-433448Y-930617D2*
X-287798D1*
X-243710D2*
X-138373D1*
X278020D2*
X375861D1*
X447265D2*
X535860D1*
X-432678Y-940328D2*
X-389010D1*
X-302535D2*
X-287798D1*
X-243710D2*
X-210730D1*
X279596D2*
X317613D1*
X447265D2*
X535860D1*
X-433814Y-950039D2*
X-391587D1*
X-300228D2*
X-287798D1*
X-243710D2*
X-212441D1*
X-121102D2*
X136776D1*
X279596D2*
X315902D1*
X447265D2*
X535840D1*
X-436966Y-959751D2*
X-391491D1*
X-300151D2*
X-287798D1*
X-243710D2*
X-212365D1*
X-121025D2*
X-92121D1*
X-781D2*
X27163D1*
X118503D2*
X134066D1*
X279596D2*
X315979D1*
X447265D2*
X535840D1*
X-442598Y-969462D2*
X-391413D1*
X-300075D2*
X-287798D1*
X-243710D2*
X-212287D1*
X-120948D2*
X-92121D1*
X-781D2*
X27163D1*
X118503D2*
X124339D1*
X279596D2*
X316056D1*
X447265D2*
X535840D1*
X-452037Y-979173D2*
X-391106D1*
X-300402D2*
X-287798D1*
X-232503D2*
X-211634D1*
X-121659D2*
X-92121D1*
X279596D2*
X316728D1*
X447265D2*
X535822D1*
X-518513Y-988885D2*
X-501142D1*
X-470512D2*
X-384723D1*
X-307399D2*
X-287798D1*
X-100033D2*
X-92121D1*
X220945D2*
X229588D1*
X279596D2*
X325379D1*
X447265D2*
X535822D1*
X-452383Y-998596D2*
X-286971D1*
X156757D2*
X229588D1*
X279596D2*
X380186D1*
X446400D2*
X535822D1*
X-443463Y-1008307D2*
X-286241D1*
X147049D2*
X229588D1*
X279596D2*
X380013D1*
X443190D2*
X535802D1*
X-438119Y-1018018D2*
X-343739D1*
X-312185D2*
X-282088D1*
X136707D2*
X184605D1*
X216159D2*
X229588D1*
X279596D2*
X325860D1*
X440134D2*
X535802D1*
X-435178Y-1027730D2*
X-389799D1*
X-300497D2*
X-281165D1*
X-229197D2*
X-211172D1*
X-781D2*
X27163D1*
X118503D2*
X138545D1*
X279596D2*
X317171D1*
X432386D2*
X535802D1*
X-434256Y-1037441D2*
X-390875D1*
X-299535D2*
X-281165D1*
X-229197D2*
X-211730D1*
X-781D2*
X27163D1*
X118503D2*
X137469D1*
X279596D2*
X316613D1*
X407953D2*
X535782D1*
X-435197Y-1047152D2*
X-390798D1*
X-299459D2*
X-281165D1*
X-225814D2*
X-211654D1*
X-781D2*
X27163D1*
X118503D2*
X137545D1*
X279596D2*
X316690D1*
X408030D2*
X535782D1*
X-438139Y-1056864D2*
X-390722D1*
X-299382D2*
X-281012D1*
X-216105D2*
X-211581D1*
X-781D2*
X27163D1*
X118503D2*
X137622D1*
X279596D2*
X316768D1*
X408106D2*
X535782D1*
X-443503Y-1066575D2*
X-389626D1*
X-300613D2*
X-277840D1*
X-781D2*
X27163D1*
X118503D2*
X138718D1*
X279596D2*
X318517D1*
X406146D2*
X535764D1*
X-452479Y-1076286D2*
X-269362D1*
X-196671D2*
X-116534D1*
X-781D2*
X27163D1*
X118503D2*
X229588D1*
X279596D2*
X535764D1*
X-518455Y-1085997D2*
X-500873D1*
X-470781D2*
X-259655D1*
X-186962D2*
X-107383D1*
X-781D2*
X27163D1*
X118503D2*
X229588D1*
X279596D2*
X535764D1*
X-518436Y-1095709D2*
X-513892D1*
X-454613D2*
X-404139D1*
X-177255D2*
X-92121D1*
X-781D2*
X27163D1*
X118503D2*
X229588D1*
X279596D2*
X535744D1*
X-444059Y-1105420D2*
X-404139D1*
X-245883D2*
X-240219D1*
X-167546D2*
X-92121D1*
X-781D2*
X27163D1*
X118503D2*
X229588D1*
X279596D2*
X535744D1*
X-437850Y-1115131D2*
X-404139D1*
X-157839D2*
X27163D1*
X118503D2*
X229588D1*
X279596D2*
X535744D1*
X-434256Y-1124843D2*
X-404139D1*
X-148130D2*
X-16148D1*
X140936D2*
X229588D1*
X279596D2*
X535724D1*
X-432756Y-1134554D2*
X-404139D1*
X-220123D2*
X-211096D1*
X140936D2*
X229588D1*
X279596D2*
X535724D1*
X-433140Y-1144265D2*
X-404139D1*
X-220950D2*
X-201387D1*
X140936D2*
X229588D1*
X279596D2*
X535724D1*
X-435466Y-1153976D2*
X-404139D1*
X-225890D2*
X-191660D1*
X140936D2*
X229588D1*
X279596D2*
X535706D1*
X-440042Y-1163688D2*
X-404139D1*
X-242172D2*
X-181953D1*
X140936D2*
X229588D1*
X279596D2*
X535706D1*
X-447713Y-1173399D2*
X-404139D1*
X-245883D2*
X-172148D1*
X140936D2*
X229588D1*
X279596D2*
X535706D1*
X-518378Y-1183110D2*
X-506909D1*
X-461592D2*
X-404178D1*
X-245921D2*
X-16148D1*
X140936D2*
X229588D1*
X279596D2*
X535686D1*
X-518378Y-1192822D2*
X-404178D1*
X-245921D2*
X221014D1*
X279596D2*
X535686D1*
X-518378Y-1202533D2*
X-404178D1*
X-245921D2*
X211306D1*
X278097D2*
X535667D1*
X-518360Y-1212244D2*
X-404178D1*
X-245921D2*
X201598D1*
X271484D2*
X535667D1*
X-518360Y-1221955D2*
X-404178D1*
X-245921D2*
X-140949D1*
X140936D2*
X191890D1*
X261776D2*
X535667D1*
X-518360Y-1231667D2*
X-404178D1*
X-245921D2*
X-140949D1*
X252068D2*
X357714D1*
X384058D2*
X535648D1*
X-518340Y-1241378D2*
X-404178D1*
X-245921D2*
X-140949D1*
X242360D2*
X345295D1*
X396476D2*
X535648D1*
X-518340Y-1251089D2*
X-404178D1*
X-245921D2*
X-140949D1*
X232652D2*
X340336D1*
X401436D2*
X535648D1*
X-518340Y-1260801D2*
X-404178D1*
X-245921D2*
X-140949D1*
X222944D2*
X339009D1*
X402762D2*
X535629D1*
X-518320Y-1270512D2*
X-342932D1*
X-279639D2*
X-140949D1*
X213217D2*
X340816D1*
X400955D2*
X535629D1*
X-518320Y-1280223D2*
X-369594D1*
X-238886D2*
X-140949D1*
X140936D2*
X344891D1*
X396861D2*
X535629D1*
X-518320Y-1289934D2*
X-369594D1*
X-298037D2*
X-294795D1*
X-238886D2*
X255001D1*
X413259D2*
X535609D1*
X-518302Y-1299646D2*
X-508736D1*
X-462917D2*
X-369594D1*
X-307744D2*
X-294795D1*
X-223487D2*
X255001D1*
X413259D2*
X535609D1*
X-449173Y-1309357D2*
X-369594D1*
X-313685D2*
X-294795D1*
X-213760D2*
X255001D1*
X413259D2*
X535609D1*
X-441541Y-1319068D2*
X-369594D1*
X-313685D2*
X-294795D1*
X-204052D2*
X255001D1*
X413259D2*
X535591D1*
X-437004Y-1328780D2*
X-369594D1*
X-313685D2*
X-294795D1*
X-194344D2*
X-16148D1*
X140936D2*
X255001D1*
X413259D2*
X535591D1*
X-434698Y-1338491D2*
X-369594D1*
X-313685D2*
X-294795D1*
X-184636D2*
X-16148D1*
X215812D2*
X255001D1*
X413259D2*
X535591D1*
X-434332Y-1348202D2*
X-236471D1*
X-174928D2*
X-16148D1*
X225520D2*
X255001D1*
X413259D2*
X535571D1*
X-435870Y-1357913D2*
X-226744D1*
X-165201D2*
X-16148D1*
X235228D2*
X255001D1*
X413259D2*
X535571D1*
X-439484Y-1367625D2*
X-369594D1*
X-297941D2*
X-294795D1*
X-238886D2*
X-217035D1*
X-155493D2*
X-16148D1*
X244936D2*
X255001D1*
X413259D2*
X535571D1*
X-445732Y-1377336D2*
X-369594D1*
X-297941D2*
X-294795D1*
X-238886D2*
X-207328D1*
X-145785D2*
X-16148D1*
X254644D2*
X344891D1*
X396861D2*
X535552D1*
X-518244Y-1387047D2*
X-515282D1*
X-456362D2*
X-369594D1*
X-297941D2*
X-294795D1*
X-238886D2*
X-197619D1*
X-136077D2*
X-16148D1*
X140936D2*
X191678D1*
X413259D2*
X535552D1*
X-518244Y-1396759D2*
X-499701D1*
X-468801D2*
X-369594D1*
X-297941D2*
X-294795D1*
X-238886D2*
X-187912D1*
X153470D2*
X201387D1*
X413259D2*
X535552D1*
X-450769Y-1406470D2*
X-369594D1*
X-297941D2*
X-294795D1*
X-230907D2*
X-178203D1*
X163946D2*
X211114D1*
X413259D2*
X535533D1*
X-441849Y-1416181D2*
X-369594D1*
X-297941D2*
X-294795D1*
X-221199D2*
X-168476D1*
X172790D2*
X220822D1*
X413259D2*
X535533D1*
X-436524Y-1425892D2*
X-369594D1*
X-297941D2*
X-294795D1*
X175769D2*
X214055D1*
X413259D2*
X535533D1*
X-433602Y-1435604D2*
X-369594D1*
X-297941D2*
X-294795D1*
X175808D2*
X204328D1*
X413259D2*
X535513D1*
X-432678Y-1445315D2*
X-253618D1*
X175808D2*
X194619D1*
X413259D2*
X535513D1*
X-433640Y-1455026D2*
X-243911D1*
X175808D2*
X184912D1*
X413259D2*
X535513D1*
X-436581Y-1464738D2*
X-413270D1*
X-255014D2*
X-140256D1*
X-104108D2*
X-77222D1*
X247878D2*
X255001D1*
X413259D2*
X535495D1*
X-441965Y-1474449D2*
X-413270D1*
X-226332D2*
X-147735D1*
X-96650D2*
X-67514D1*
X238169D2*
X255001D1*
X413259D2*
X535495D1*
X-450961Y-1484160D2*
X-413270D1*
X-209570D2*
X-150098D1*
X-94265D2*
X-57806D1*
X228462D2*
X255001D1*
X413259D2*
X535495D1*
X-518186Y-1493871D2*
X-499163D1*
X-469339D2*
X-413270D1*
X-85442D2*
X-58652D1*
X218753D2*
X255001D1*
X413259D2*
X535475D1*
X-518167Y-1503583D2*
X-413270D1*
X-85442D2*
X-58652D1*
X12983D2*
X20088D1*
X91723D2*
X118513D1*
X209026D2*
X255001D1*
X413259D2*
X535475D1*
X-518167Y-1513294D2*
X-413270D1*
X-85442D2*
X-58652D1*
X12983D2*
X20088D1*
X91723D2*
X118513D1*
X199319D2*
X255001D1*
X413259D2*
X535475D1*
X-518167Y-1523005D2*
X-413270D1*
X-85442D2*
X-58652D1*
X12983D2*
X20088D1*
X91723D2*
X118513D1*
X190148D2*
X255001D1*
X413259D2*
X535455D1*
X-518147Y-1532717D2*
X-413270D1*
X-255014D2*
X-239259D1*
X-85442D2*
X-58652D1*
X12983D2*
X20088D1*
X91723D2*
X118513D1*
X190148D2*
X255001D1*
X413259D2*
X535455D1*
X-518147Y-1542428D2*
X-413270D1*
X-255014D2*
X-157077D1*
X-85442D2*
X-58652D1*
X12983D2*
X20088D1*
X91723D2*
X118513D1*
X190148D2*
X255001D1*
X413259D2*
X535455D1*
X-518147Y-1552139D2*
X-157077D1*
X-85442D2*
X-58652D1*
X12983D2*
X20088D1*
X91723D2*
X118513D1*
X190148D2*
X255001D1*
X413259D2*
X535437D1*
X-518129Y-1561850D2*
X-157077D1*
X-85442D2*
X-58652D1*
X12983D2*
X20088D1*
X91723D2*
X118513D1*
X190148D2*
X535437D1*
X-518129Y-1571562D2*
X-217766D1*
X-209802D2*
X-157077D1*
X12983D2*
X20088D1*
X190148D2*
X242871D1*
X250837D2*
X534955D1*
X-518129Y-1581273D2*
X-242007D1*
X-185559D2*
X-157077D1*
X12983D2*
X20088D1*
X190148D2*
X218612D1*
X275079D2*
X534206D1*
X-518109Y-1590984D2*
X-250639D1*
X-176928D2*
X-157077D1*
X12983D2*
X20088D1*
X190148D2*
X209999D1*
X283710D2*
X533475D1*
X-517340Y-1600696D2*
X-255291D1*
X-172256D2*
X-157077D1*
X12983D2*
X20088D1*
X190148D2*
X205328D1*
X288362D2*
X532745D1*
X-515283Y-1610407D2*
X-257310D1*
X-170238D2*
X-157077D1*
X12983D2*
X20088D1*
X190148D2*
X203310D1*
X290381D2*
X532014D1*
X-513226Y-1620118D2*
X-257482D1*
X-170084D2*
X-157077D1*
X12983D2*
X20088D1*
X190148D2*
X203155D1*
X290554D2*
X529016D1*
X-511150Y-1629829D2*
X-257482D1*
X-170084D2*
X-101790D1*
X36744D2*
X75375D1*
X134861D2*
X203155D1*
X290554D2*
X525806D1*
X-507651Y-1639541D2*
X-257482D1*
X-170084D2*
X-109730D1*
X42761D2*
X67436D1*
X142801D2*
X203155D1*
X290554D2*
X522594D1*
X-503403Y-1649252D2*
X-257482D1*
X44318D2*
X63188D1*
X290554D2*
X519404D1*
X-499155Y-1658963D2*
X-257482D1*
X-28424D2*
X-23126D1*
X42241D2*
X61496D1*
X290554D2*
X514060D1*
X-494906Y-1668675D2*
X-257482D1*
X-28963D2*
X-10035D1*
X35322D2*
X62034D1*
X290554D2*
X507928D1*
X-487505Y-1678386D2*
X-257482D1*
X-31866D2*
X64937D1*
X290554D2*
X501815D1*
X-479681Y-1688097D2*
X-257482D1*
X-37710D2*
X70781D1*
X290554D2*
X494529D1*
X-471837Y-1697808D2*
X-257482D1*
X-48686D2*
X81759D1*
X290554D2*
X486224D1*
X-463130Y-1707520D2*
X-257482D1*
X-74831D2*
X107459D1*
X290554D2*
X477920D1*
X-450999Y-1717231D2*
X-256617D1*
X-74831D2*
X107459D1*
X289689D2*
X466039D1*
X-438850Y-1726942D2*
X-253369D1*
X-74831D2*
X107459D1*
X286440D2*
X451064D1*
X-420280Y-1736654D2*
X-247025D1*
X-74831D2*
X107459D1*
X210602D2*
X213608D1*
X280096D2*
X434705D1*
X-398730Y-1746365D2*
X-234837D1*
X-192710D2*
X-174360D1*
X-78445D2*
X111073D1*
X206988D2*
X225782D1*
X267908D2*
X409234D1*
X-340617Y-1756076D2*
X-327379D1*
X174293Y-632087D2*
X99260D1*
Y-475787D1*
X116542D1*
X116535Y-414759D1*
X69004Y-414764D1*
X69001Y-478151D1*
X83661Y-478150D1*
Y-634449D1*
X-5709D1*
Y-478150D1*
X15072D1*
X15064Y-418050D1*
X14776Y-416521D1*
X14333Y-416339D1*
X14269Y-431969D1*
X13752Y-435234D1*
X12730Y-438377D1*
X11230Y-441322D1*
X9287Y-443996D1*
X4046Y-449329D1*
X3193Y-452610D1*
X1573Y-456520D1*
X-638Y-460127D1*
X-3386Y-463345D1*
X-6604Y-466094D1*
X-10213Y-468306D1*
X-14122Y-469925D1*
X-18236Y-470912D1*
X-22455Y-471244D1*
X-26675Y-470912D1*
X-30789Y-469925D1*
X-34699Y-468306D1*
X-38307Y-466094D1*
X-41525Y-463345D1*
X-44273Y-460127D1*
X-46484Y-456520D1*
X-48104Y-452610D1*
X-49092Y-448495D1*
X-49424Y-444276D1*
X-49092Y-440058D1*
X-48106Y-435950D1*
X-53824Y-441669D1*
X-52094Y-445131D1*
X-50786Y-449155D1*
X-50125Y-453335D1*
Y-457567D1*
X-50786Y-461747D1*
X-52094Y-465772D1*
X-54016Y-469542D1*
X-56503Y-472966D1*
X-59774Y-476178D1*
X-37598Y-476181D1*
Y-632480D1*
X-88829D1*
X-91537Y-635193D1*
X174304Y-635197D1*
X174291Y-632073D1*
X166524Y-475787D2*
X188630D1*
Y-509678D1*
X208177Y-529227D1*
X208184Y-440657D1*
X206252Y-437902D1*
X204331Y-434130D1*
X203024Y-430106D1*
X202361Y-425927D1*
Y-421694D1*
X203024Y-417514D1*
X203858Y-414770D1*
X166520Y-414764D1*
X166535Y-475798D1*
X-202407Y-556496D2*
X-197986D1*
X-199269Y-553697D1*
X-202429Y-556493D1*
X-155848Y-556496D2*
X-138386D1*
Y-622453D1*
X-126974Y-611055D1*
X-126969Y-521786D1*
X-127467Y-518581D1*
X-127533Y-493919D1*
X-129463Y-491186D1*
X-131385Y-487415D1*
X-131692Y-486585D1*
X-131757Y-503769D1*
X-132274Y-507034D1*
X-133297Y-510177D1*
X-134797Y-513122D1*
X-136739Y-515797D1*
X-151781Y-530930D1*
X-155846Y-534995D1*
X-155852Y-556514D1*
X33071Y-959646D2*
X117520D1*
Y-977274D1*
X137799Y-956995D1*
X137782Y-947722D1*
X137913Y-946534D1*
X133571Y-945514D1*
X-114430Y-945441D1*
X-118152Y-944850D1*
X-121743Y-943684D1*
X-122312Y-944392D1*
X-122106Y-946762D1*
X-121924Y-975510D1*
X-122277Y-977862D1*
X-122993Y-980131D1*
X-124059Y-982262D1*
X-120822Y-982509D1*
X-114459Y-982573D1*
X-111194Y-983091D1*
X-108051Y-984113D1*
X-105106Y-985613D1*
X-102432Y-987555D1*
X-91146Y-998751D1*
X-91142Y-958465D1*
X-1772D1*
Y-978131D1*
X28151Y-978150D1*
X28150Y-959646D1*
X33071D1*
X-434253Y-147810D2*
X-435059Y-151967D1*
X-436138Y-155791D1*
X-437512Y-159517D1*
X-439176Y-163125D1*
X-441117Y-166591D1*
X-443323Y-169894D1*
X-445782Y-173013D1*
X-448479Y-175930D1*
X-451396Y-178627D1*
X-454516Y-181087D1*
X-457819Y-183293D1*
X-461285Y-185234D1*
X-464892Y-186898D1*
X-468618Y-188272D1*
X-472442Y-189350D1*
X-475440Y-189946D1*
X-468618Y-191650D1*
X-464892Y-193024D1*
X-461285Y-194688D1*
X-457819Y-196629D1*
X-454516Y-198835D1*
X-451396Y-201294D1*
X-448479Y-203991D1*
X-445782Y-206908D1*
X-443323Y-210028D1*
X-441117Y-213331D1*
X-439592Y-216051D1*
X-437458Y-213900D1*
X-437399Y-168106D1*
X-436882Y-164841D1*
X-435860Y-161698D1*
X-434360Y-158753D1*
X-432417Y-156079D1*
X-418883Y-142454D1*
X-418875Y-132428D1*
X-434248Y-147815D1*
X-493064Y-189946D2*
X-496062Y-189350D1*
X-499886Y-188272D1*
X-503612Y-186898D1*
X-507219Y-185234D1*
X-510685Y-183293D1*
X-513988Y-181087D1*
X-517108Y-178627D1*
X-520035Y-175919D1*
X-520013Y-203996D1*
X-517108Y-201294D1*
X-513988Y-198835D1*
X-510685Y-196629D1*
X-507219Y-194688D1*
X-503612Y-193024D1*
X-499886Y-191650D1*
X-496062Y-190571D1*
X-493064Y-189975D1*
X-520077Y-104441D2*
X-517108Y-101688D1*
X-513988Y-99228D1*
X-510685Y-97022D1*
X-507219Y-95081D1*
X-503612Y-93417D1*
X-499886Y-92043D1*
X-496062Y-90965D1*
X-492167Y-90125D1*
X-496062Y-89350D1*
X-499886Y-88272D1*
X-503612Y-86898D1*
X-507219Y-85234D1*
X-510685Y-83293D1*
X-513988Y-81087D1*
X-517108Y-78627D1*
X-520098Y-75850D1*
X-520079Y-104455D1*
X-476570Y-90163D2*
X-472442Y-90965D1*
X-468618Y-92043D1*
X-464892Y-93417D1*
X-461285Y-95081D1*
X-457819Y-97022D1*
X-454516Y-99228D1*
X-451396Y-101688D1*
X-449470Y-103469D1*
X-383529Y-37520D1*
X-382180Y-33280D1*
X-380259Y-29509D1*
X-377770Y-26085D1*
X-374778Y-23093D1*
X-371354Y-20605D1*
X-367584Y-18684D1*
X-363559Y-17377D1*
X-359379Y-16714D1*
X-355148D1*
X-350969Y-17377D1*
X-349814Y-17702D1*
X-349815Y9806D1*
X-414639Y-55051D1*
X-417152Y-57198D1*
X-419970Y-58925D1*
X-423024Y-60190D1*
X-426238Y-60962D1*
X-429539Y-61220D1*
X-438241D1*
X-441117Y-66591D1*
X-443323Y-69894D1*
X-445782Y-73013D1*
X-448479Y-75930D1*
X-451396Y-78627D1*
X-454516Y-81087D1*
X-457819Y-83293D1*
X-461285Y-85234D1*
X-464892Y-86898D1*
X-468618Y-88272D1*
X-472442Y-89350D1*
X-476570Y-90152D1*
X-520140Y-4510D2*
X-517108Y-1688D1*
X-513988Y772D1*
X-510685Y2978D1*
X-507219Y4919D1*
X-503612Y6583D1*
X-499886Y7957D1*
X-496062Y9035D1*
X-491934Y9837D1*
X-497160Y10927D1*
X-501850Y12411D1*
X-506373Y14345D1*
X-510688Y16709D1*
X-514752Y19480D1*
X-518528Y22633D1*
X-520163Y24211D1*
X-520144Y-4492D1*
X-476570Y9837D2*
X-472442Y9035D1*
X-468618Y7957D1*
X-464892Y6583D1*
X-461285Y4919D1*
X-457819Y2978D1*
X-454516Y772D1*
X-451396Y-1688D1*
X-448479Y-4385D1*
X-445782Y-7302D1*
X-443323Y-10421D1*
X-441117Y-13724D1*
X-438298Y-19092D1*
X-435007Y-15844D1*
X-438400Y-13761D1*
X-441618Y-11013D1*
X-444366Y-7795D1*
X-446577Y-4188D1*
X-448197Y-277D1*
X-449185Y3837D1*
X-449517Y8056D1*
X-449185Y12276D1*
X-448197Y16390D1*
X-446577Y20301D1*
X-444366Y23908D1*
X-442152Y26549D1*
X-442150Y31799D1*
X-444944Y27995D1*
X-448223Y24328D1*
X-451843Y20996D1*
X-455769Y18033D1*
X-459965Y15463D1*
X-464388Y13315D1*
X-469001Y11605D1*
X-473759Y10352D1*
X-476546Y9844D1*
X-433671Y58858D2*
X-434005Y53950D1*
X-434325Y51685D1*
X-380588Y105421D1*
X-382612Y107255D1*
X-385360Y110472D1*
X-387571Y114080D1*
X-389190Y117991D1*
X-390178Y122105D1*
X-390510Y126324D1*
X-390178Y130543D1*
X-389190Y134657D1*
X-387571Y138568D1*
X-385723Y141633D1*
X-385659Y158412D1*
X-385142Y161677D1*
X-384119Y164820D1*
X-382619Y167765D1*
X-380677Y170440D1*
X-365635Y185573D1*
X-337068Y214049D1*
X-334394Y215991D1*
X-331449Y217491D1*
X-328306Y218513D1*
X-325041Y219030D1*
X-299801Y219094D1*
X-299803Y228937D1*
X-254954D1*
X-254961Y253591D1*
X-462608Y252955D1*
X-489081Y244499D1*
X-511782Y221810D1*
X-519577Y196066D1*
X-517108Y198312D1*
X-513988Y200772D1*
X-510685Y202978D1*
X-507219Y204919D1*
X-503612Y206583D1*
X-499886Y207957D1*
X-496062Y209035D1*
X-492167Y209810D1*
X-488222Y210277D1*
X-484252Y210433D1*
X-480282Y210277D1*
X-476337Y209810D1*
X-472442Y209035D1*
X-468618Y207957D1*
X-464892Y206583D1*
X-461285Y204919D1*
X-457819Y202978D1*
X-454516Y200772D1*
X-451396Y198312D1*
X-448479Y195615D1*
X-445782Y192698D1*
X-443323Y189579D1*
X-441117Y186276D1*
X-439176Y182810D1*
X-437512Y179202D1*
X-436138Y175476D1*
X-435059Y171652D1*
X-434285Y167757D1*
X-433818Y163812D1*
X-433661Y159843D1*
X-433818Y155873D1*
X-434285Y151928D1*
X-435059Y148033D1*
X-436138Y144209D1*
X-437512Y140483D1*
X-439176Y136875D1*
X-441117Y133409D1*
X-443323Y130106D1*
X-445782Y126987D1*
X-448479Y124070D1*
X-451396Y121373D1*
X-454516Y118913D1*
X-457819Y116707D1*
X-461285Y114766D1*
X-464892Y113102D1*
X-468618Y111728D1*
X-472442Y110650D1*
X-476570Y109848D1*
X-471799Y108877D1*
X-467096Y107436D1*
X-462555Y105545D1*
X-458219Y103220D1*
X-454129Y100487D1*
X-450324Y97369D1*
X-446839Y93896D1*
X-443709Y90102D1*
X-440962Y86021D1*
X-438623Y81693D1*
X-436717Y77159D1*
X-435260Y72459D1*
X-434266Y67642D1*
X-433745Y62751D1*
X-433671Y58858D1*
X-520213Y95423D2*
X-516265Y99016D1*
X-512310Y101940D1*
X-508088Y104466D1*
X-503642Y106570D1*
X-499012Y108232D1*
X-494241Y109437D1*
X-492167Y109875D1*
X-496062Y110650D1*
X-499886Y111728D1*
X-503612Y113102D1*
X-507219Y114766D1*
X-510685Y116707D1*
X-513988Y118913D1*
X-517108Y121373D1*
X-520224Y124286D1*
X-520210Y95432D1*
X537350Y-175076D2*
X533643Y-178627D1*
X530524Y-181087D1*
X527220Y-183293D1*
X523755Y-185234D1*
X520147Y-186898D1*
X516421Y-188272D1*
X512597Y-189350D1*
X508702Y-190190D1*
X512597Y-190965D1*
X516421Y-192043D1*
X520147Y-193417D1*
X523755Y-195081D1*
X527220Y-197022D1*
X530524Y-199228D1*
X533643Y-201688D1*
X537329Y-205217D1*
X537350Y-175114D1*
X493105Y-190152D2*
X488978Y-189350D1*
X485154Y-188272D1*
X481428Y-186898D1*
X477820Y-185234D1*
X474354Y-183293D1*
X471051Y-181087D1*
X467932Y-178627D1*
X464161Y-175008D1*
X464152Y-205273D1*
X467932Y-201688D1*
X471051Y-199228D1*
X474354Y-197022D1*
X477820Y-195081D1*
X481428Y-193417D1*
X485154Y-192043D1*
X488978Y-190965D1*
X493105Y-190163D1*
X451374Y-150857D2*
X450820Y-148072D1*
X450353Y-144127D1*
X450197Y-140157D1*
X450353Y-136188D1*
X450820Y-132243D1*
X451594Y-128348D1*
X452673Y-124524D1*
X454047Y-120798D1*
X455711Y-117190D1*
X457652Y-113724D1*
X459858Y-110421D1*
X462318Y-107302D1*
X465014Y-104385D1*
X467932Y-101688D1*
X471051Y-99228D1*
X474354Y-97022D1*
X477820Y-95081D1*
X481428Y-93417D1*
X485154Y-92043D1*
X488978Y-90965D1*
X493105Y-90163D1*
X487879Y-89073D1*
X483189Y-87589D1*
X478667Y-85655D1*
X474352Y-83291D1*
X470287Y-80520D1*
X466512Y-77367D1*
X463059Y-73862D1*
X459965Y-70039D1*
X457256Y-65933D1*
X454958Y-61583D1*
X453093Y-57030D1*
X451680Y-52319D1*
X450731Y-47492D1*
X450256Y-42596D1*
X450257Y-37676D1*
X450738Y-32781D1*
X451690Y-27954D1*
X453108Y-23243D1*
X454976Y-18693D1*
X457277Y-14345D1*
X459991Y-10241D1*
X463089Y-6420D1*
X466543Y-2919D1*
X470323Y232D1*
X474388Y3000D1*
X478705Y5360D1*
X483231Y7289D1*
X487921Y8770D1*
X493088Y9841D1*
X488978Y10650D1*
X485154Y11728D1*
X481428Y13102D1*
X477820Y14766D1*
X474354Y16707D1*
X471051Y18913D1*
X467932Y21373D1*
X465014Y24070D1*
X461270Y28315D1*
X332866Y28319D1*
X332874Y7234D1*
X348178Y-8081D1*
X353488Y-8135D1*
X356448Y-8604D1*
X359297Y-9529D1*
X361966Y-10890D1*
X364391Y-12651D1*
X386370Y-34547D1*
X393623Y-41883D1*
X395385Y-44308D1*
X396745Y-46978D1*
X397671Y-49827D1*
X398139Y-52786D1*
X398198Y-83812D1*
Y-97673D1*
X451341Y-150815D1*
X508470Y-90163D2*
X512597Y-90965D1*
X516421Y-92043D1*
X520147Y-93417D1*
X523755Y-95081D1*
X527220Y-97022D1*
X530524Y-99228D1*
X533643Y-101688D1*
X537392Y-105285D1*
X537417Y-75037D1*
X533946Y-78366D1*
X530079Y-81406D1*
X525934Y-84055D1*
X521551Y-86290D1*
X516972Y-88089D1*
X512241Y-89434D1*
X508493Y-90156D1*
X508491Y9843D2*
X513240Y8877D1*
X517944Y7436D1*
X522484Y5545D1*
X526820Y3220D1*
X530911Y487D1*
X534715Y-2631D1*
X537465Y-5312D1*
X537484Y25004D1*
X533643Y21373D1*
X530524Y18913D1*
X527220Y16707D1*
X523755Y14766D1*
X520147Y13102D1*
X516421Y11728D1*
X512597Y10650D1*
X508470Y9848D1*
X451356Y70450D2*
X452673Y75476D1*
X454047Y79202D1*
X455711Y82810D1*
X458954Y88224D1*
X448220Y77579D1*
X445546Y75636D1*
X442601Y74136D1*
X439458Y73114D1*
X436193Y72597D1*
X414856Y72533D1*
X332866D1*
X334449Y70445D1*
X451310D1*
X472406Y101676D2*
X477820Y104919D1*
X481428Y106583D1*
X485154Y107957D1*
X488978Y109035D1*
X492873Y109875D1*
X488978Y110650D1*
X483189Y112453D1*
X472550Y101818D1*
X508470Y109837D2*
X512597Y109035D1*
X516421Y107957D1*
X520147Y106583D1*
X523755Y104919D1*
X527220Y102978D1*
X530524Y100772D1*
X533643Y98312D1*
X537539Y94555D1*
X537552Y125083D1*
X533643Y121373D1*
X530524Y118913D1*
X527220Y116707D1*
X523755Y114766D1*
X520147Y113102D1*
X516421Y111728D1*
X512597Y110650D1*
X508470Y109848D1*
X453398Y142244D2*
X451594Y148033D1*
X450820Y151928D1*
X450353Y155873D1*
X450197Y159843D1*
X450353Y163812D1*
X450820Y167757D1*
X451594Y171652D1*
X452673Y175476D1*
X454047Y179202D1*
X455711Y182810D1*
X457652Y186276D1*
X459858Y189579D1*
X462318Y192698D1*
X465014Y195615D1*
X467932Y198312D1*
X471051Y200772D1*
X474354Y202978D1*
X477820Y204919D1*
X481428Y206583D1*
X485154Y207957D1*
X488978Y209035D1*
X492873Y209810D1*
X496818Y210277D1*
X500787Y210433D1*
X504757Y210277D1*
X508702Y209810D1*
X512597Y209035D1*
X516421Y207957D1*
X520147Y206583D1*
X523755Y204919D1*
X527220Y202978D1*
X530524Y200772D1*
X533643Y198312D1*
X536782Y195377D1*
X525745Y224681D1*
X503125Y244751D1*
X471776Y252961D1*
X345978Y253759D1*
X359596Y240047D1*
X361538Y237373D1*
X363038Y234428D1*
X364060Y231285D1*
X364577Y228020D1*
X364642Y206682D1*
X364577Y156564D1*
X364060Y153299D1*
X363038Y150156D1*
X361538Y147211D1*
X359596Y144537D1*
X348287Y133138D1*
X345774Y130991D1*
X342957Y129264D1*
X339903Y127999D1*
X336689Y127228D1*
X333387Y126969D1*
X332874Y124803D1*
X332856Y117126D1*
X336913Y114659D1*
X425823D1*
X453371Y142214D1*
X-493794Y-589408D2*
X-499886Y-587878D1*
X-503612Y-586504D1*
X-507219Y-584840D1*
X-510685Y-582899D1*
X-513988Y-580693D1*
X-517108Y-578234D1*
X-519762Y-575780D1*
X-519751Y-601849D1*
X-515563Y-598441D1*
X-512260Y-596235D1*
X-508794Y-594294D1*
X-505186Y-592630D1*
X-501461Y-591256D1*
X-497636Y-590177D1*
X-493878Y-589429D1*
X-519808Y-503791D2*
X-517108Y-501294D1*
X-513988Y-498835D1*
X-510685Y-496629D1*
X-507219Y-494688D1*
X-503612Y-493024D1*
X-499886Y-491650D1*
X-496062Y-490571D1*
X-492167Y-489731D1*
X-496062Y-488957D1*
X-499886Y-487878D1*
X-503612Y-486504D1*
X-507219Y-484840D1*
X-510685Y-482899D1*
X-513988Y-480693D1*
X-517108Y-478234D1*
X-519831Y-475715D1*
X-519815Y-503770D1*
X-519877Y-403854D2*
X-517108Y-401294D1*
X-513988Y-398835D1*
X-510685Y-396629D1*
X-507219Y-394688D1*
X-503612Y-393024D1*
X-499886Y-391650D1*
X-496062Y-390571D1*
X-492167Y-389731D1*
X-496062Y-388957D1*
X-499886Y-387878D1*
X-503612Y-386504D1*
X-507219Y-384840D1*
X-510685Y-382899D1*
X-513988Y-380693D1*
X-517108Y-378234D1*
X-519899Y-375652D1*
X-519881Y-403845D1*
X-519945Y-303917D2*
X-517108Y-301294D1*
X-513988Y-298835D1*
X-510685Y-296629D1*
X-507219Y-294688D1*
X-503612Y-293024D1*
X-499886Y-291650D1*
X-496062Y-290571D1*
X-492167Y-289731D1*
X-496062Y-288957D1*
X-499886Y-287878D1*
X-503612Y-286504D1*
X-507219Y-284840D1*
X-510685Y-282899D1*
X-513988Y-280693D1*
X-517108Y-278234D1*
X-519969Y-275589D1*
X-519948Y-303920D1*
X-476570Y-289769D2*
X-472442Y-290571D1*
X-468618Y-291650D1*
X-464892Y-293024D1*
X-461285Y-294688D1*
X-457819Y-296629D1*
X-454516Y-298835D1*
X-451396Y-301294D1*
X-448479Y-303991D1*
X-445782Y-306908D1*
X-443323Y-310028D1*
X-441117Y-313331D1*
X-439176Y-316797D1*
X-436885Y-322106D1*
X-428774Y-322101D1*
X-410723Y-304034D1*
X-410727Y-246730D1*
X-419854Y-255781D1*
X-422529Y-257723D1*
X-425474Y-259223D1*
X-428617Y-260245D1*
X-431882Y-260762D1*
X-433541Y-260827D1*
X-439176Y-262731D1*
X-441117Y-266197D1*
X-443323Y-269500D1*
X-445782Y-272619D1*
X-448479Y-275537D1*
X-451396Y-278234D1*
X-454516Y-280693D1*
X-457819Y-282899D1*
X-461285Y-284840D1*
X-464892Y-286504D1*
X-468618Y-287878D1*
X-472442Y-288957D1*
X-476570Y-289759D1*
X537076Y-575373D2*
X533643Y-578627D1*
X530524Y-581087D1*
X527220Y-583293D1*
X523755Y-585234D1*
X520147Y-586898D1*
X516421Y-588272D1*
X512597Y-589350D1*
X509812Y-589904D1*
X514846Y-591256D1*
X518572Y-592630D1*
X522180Y-594294D1*
X525646Y-596235D1*
X528949Y-598441D1*
X532068Y-600900D1*
X534986Y-603597D1*
X537062Y-605706D1*
X537081Y-575390D1*
X490180Y-589589D2*
X485154Y-588272D1*
X481428Y-586898D1*
X477820Y-585234D1*
X474354Y-583293D1*
X471051Y-581087D1*
X467932Y-578627D1*
X464161Y-575008D1*
X464152Y-577290D1*
X479588Y-592741D1*
X483579Y-591256D1*
X487403Y-590177D1*
X490188Y-589623D1*
X464161Y-505307D2*
X467932Y-501688D1*
X471051Y-499228D1*
X474354Y-497022D1*
X477820Y-495081D1*
X481428Y-493417D1*
X485154Y-492043D1*
X488978Y-490965D1*
X492873Y-490125D1*
X488978Y-489350D1*
X485154Y-488272D1*
X481428Y-486898D1*
X477820Y-485234D1*
X474354Y-483293D1*
X471051Y-481087D1*
X467932Y-478627D1*
X464161Y-475008D1*
X464152Y-505278D1*
X508470Y-490163D2*
X512597Y-490965D1*
X516421Y-492043D1*
X520147Y-493417D1*
X523755Y-495081D1*
X527220Y-497022D1*
X530524Y-499228D1*
X533643Y-501688D1*
X537118Y-504988D1*
X537148Y-475350D1*
X533643Y-478627D1*
X530524Y-481087D1*
X527220Y-483293D1*
X523755Y-485234D1*
X520147Y-486898D1*
X516421Y-488272D1*
X512597Y-489350D1*
X508470Y-490152D1*
X464161Y-405307D2*
X467932Y-401688D1*
X471051Y-399228D1*
X474354Y-397022D1*
X477820Y-395081D1*
X481428Y-393417D1*
X485154Y-392043D1*
X488978Y-390965D1*
X492873Y-390125D1*
X488978Y-389350D1*
X485154Y-388272D1*
X481428Y-386898D1*
X477820Y-385234D1*
X474354Y-383293D1*
X471051Y-381087D1*
X467932Y-378627D1*
X464161Y-375008D1*
X464152Y-405276D1*
X508470Y-390163D2*
X512597Y-390965D1*
X516421Y-392043D1*
X520147Y-393417D1*
X523755Y-395081D1*
X527220Y-397022D1*
X530524Y-399228D1*
X533643Y-401688D1*
X537203Y-405080D1*
X537217Y-375272D1*
X533643Y-378627D1*
X530524Y-381087D1*
X527220Y-383293D1*
X523755Y-385234D1*
X520147Y-386898D1*
X516421Y-388272D1*
X512597Y-389350D1*
X508470Y-390152D1*
X464161Y-305307D2*
X467932Y-301688D1*
X471051Y-299228D1*
X474354Y-297022D1*
X477820Y-295081D1*
X481428Y-293417D1*
X485154Y-292043D1*
X488978Y-290965D1*
X492873Y-290125D1*
X488978Y-289350D1*
X485154Y-288272D1*
X481428Y-286898D1*
X477820Y-285234D1*
X474354Y-283293D1*
X471051Y-281087D1*
X467932Y-278627D1*
X464161Y-275008D1*
X464152Y-305274D1*
X508470Y-290163D2*
X512597Y-290965D1*
X516421Y-292043D1*
X520147Y-293417D1*
X523755Y-295081D1*
X527220Y-297022D1*
X530524Y-299228D1*
X533643Y-301688D1*
X537266Y-305148D1*
X537283Y-275193D1*
X533643Y-278627D1*
X530524Y-281087D1*
X527220Y-283293D1*
X523755Y-285234D1*
X520147Y-286898D1*
X516421Y-288272D1*
X512597Y-289350D1*
X508470Y-290152D1*
X-492585Y-689475D2*
X-497636Y-688563D1*
X-501461Y-687484D1*
X-505186Y-686110D1*
X-508794Y-684446D1*
X-512260Y-682505D1*
X-515563Y-680299D1*
X-519697Y-676902D1*
X-519684Y-703273D1*
X-517108Y-700900D1*
X-513988Y-698441D1*
X-510685Y-696235D1*
X-507219Y-694294D1*
X-503612Y-692630D1*
X-499886Y-691256D1*
X-496062Y-690177D1*
X-492638Y-689496D1*
Y-789244D2*
X-496062Y-788563D1*
X-499886Y-787484D1*
X-503612Y-786110D1*
X-507219Y-784446D1*
X-510685Y-782505D1*
X-513988Y-780299D1*
X-517108Y-777840D1*
X-519626Y-775512D1*
X-519619Y-801736D1*
X-515563Y-798441D1*
X-512260Y-796235D1*
X-508794Y-794294D1*
X-505186Y-792630D1*
X-501461Y-791256D1*
X-497636Y-790177D1*
X-492585Y-789265D1*
Y-889475D2*
X-497636Y-888563D1*
X-501461Y-887484D1*
X-505186Y-886110D1*
X-508794Y-884446D1*
X-512260Y-882505D1*
X-515563Y-880299D1*
X-519560Y-877029D1*
X-519552Y-903122D1*
X-517108Y-900900D1*
X-513988Y-898441D1*
X-510685Y-896235D1*
X-507219Y-894294D1*
X-503612Y-892630D1*
X-499886Y-891256D1*
X-496062Y-890177D1*
X-492638Y-889496D1*
X-497451Y-988171D2*
X-503612Y-986110D1*
X-507219Y-984446D1*
X-510685Y-982505D1*
X-513988Y-980299D1*
X-517108Y-977840D1*
X-519512Y-975617D1*
X-519488Y-999625D1*
X-515563Y-996472D1*
X-512260Y-994266D1*
X-508794Y-992325D1*
X-505186Y-990661D1*
X-501461Y-989287D1*
X-497530Y-988188D1*
X-492585Y-1087507D2*
X-497636Y-1086594D1*
X-501461Y-1085516D1*
X-505186Y-1084142D1*
X-508794Y-1082478D1*
X-512260Y-1080537D1*
X-515563Y-1078331D1*
X-519446Y-1075165D1*
X-519421Y-1101049D1*
X-516265Y-1098228D1*
X-512310Y-1095304D1*
X-508088Y-1092778D1*
X-503642Y-1090675D1*
X-499012Y-1089012D1*
X-494241Y-1087807D1*
X-492696Y-1087522D1*
X-492585Y-1395341D2*
X-497636Y-1394429D1*
X-501461Y-1393350D1*
X-505186Y-1391976D1*
X-508794Y-1390312D1*
X-512260Y-1388371D1*
X-515563Y-1386165D1*
X-519241Y-1383189D1*
X-519219Y-1408667D1*
X-513988Y-1404307D1*
X-510685Y-1402101D1*
X-507219Y-1400160D1*
X-503612Y-1398496D1*
X-499886Y-1397122D1*
X-496062Y-1396043D1*
X-492638Y-1395362D1*
X537018Y-672944D2*
X534986Y-675143D1*
X532068Y-677840D1*
X528949Y-680299D1*
X525646Y-682505D1*
X522180Y-684446D1*
X518572Y-686110D1*
X514846Y-687484D1*
X511022Y-688563D1*
X507598Y-689244D1*
X512597Y-690177D1*
X516421Y-691256D1*
X520147Y-692630D1*
X523755Y-694294D1*
X527220Y-696235D1*
X530524Y-698441D1*
X533643Y-700900D1*
X536992Y-704064D1*
X537016Y-673008D1*
X492454Y-689475D2*
X487403Y-688563D1*
X483579Y-687484D1*
X479853Y-686110D1*
X476245Y-684446D1*
X472780Y-682505D1*
X469476Y-680299D1*
X466466Y-677927D1*
X478265Y-689844D1*
X481160Y-692739D1*
X485154Y-691256D1*
X488978Y-690177D1*
X492402Y-689496D1*
X-34843Y-784465D2*
Y-859252D1*
X-59429D1*
X-59449Y-871619D1*
X-57127Y-872400D1*
X26476D1*
X25007Y-870333D1*
X23576Y-867526D1*
X22602Y-864530D1*
X22109Y-861417D1*
X22047Y-859836D1*
X12992Y-859646D1*
X-2559D1*
Y-703346D1*
X15377D1*
X14593Y-698646D1*
Y-694415D1*
X15256Y-690235D1*
X16563Y-686210D1*
X18045Y-683226D1*
X-58093Y-683228D1*
X-55832Y-686395D1*
X-53911Y-690165D1*
X-52604Y-694190D1*
X-51941Y-698370D1*
X-51983Y-702954D1*
X-34843Y-702953D1*
X-34862Y-784449D1*
X-99608Y-859252D2*
X-124213D1*
Y-718877D1*
X-130656Y-725333D1*
X-130660Y-869429D1*
X-102610Y-897471D1*
X-90343Y-897483D1*
X-94795Y-892962D1*
X-96647Y-890412D1*
X-98077Y-887605D1*
X-99051Y-884609D1*
X-99545Y-881496D1*
X-99606Y-859256D1*
X86811Y-784858D2*
Y-850642D1*
X99270Y-850636D1*
X99252Y-723045D1*
X95152Y-722063D1*
X91241Y-720444D1*
X87634Y-718232D1*
X86808Y-717583D1*
X86791Y-784843D1*
X67588Y-703346D2*
X77430D1*
X76849Y-700634D1*
X76517Y-696415D1*
X76849Y-692196D1*
X77837Y-688081D1*
X79457Y-684171D1*
X79986Y-683226D1*
X64938Y-683228D1*
X66395Y-686210D1*
X67702Y-690235D1*
X68365Y-694415D1*
Y-698646D1*
X67702Y-702825D1*
X67556Y-703344D1*
X188622Y-788402D2*
Y-796899D1*
X233058Y-752562D1*
X234302Y-751581D1*
X234843Y-746457D1*
Y-650197D1*
X242591D1*
X222322Y-629941D1*
X222249Y-651471D1*
X221659Y-655193D1*
X220495Y-658777D1*
X218783Y-662135D1*
X216568Y-665184D1*
X205663Y-676194D1*
X202797Y-678642D1*
X199584Y-680610D1*
X196102Y-682052D1*
X192438Y-682933D1*
X188673Y-683228D1*
X142909D1*
X159954Y-700371D1*
X161896Y-703046D1*
X163399Y-705997D1*
X168150Y-706890D1*
X188622D1*
X188602Y-788386D1*
X188622Y-842535D2*
Y-850648D1*
X234836Y-850636D1*
X234843Y-807476D1*
X204528Y-837709D1*
X201978Y-839560D1*
X199171Y-840991D1*
X196175Y-841965D1*
X193062Y-842458D1*
X191480Y-842520D1*
X298819Y-650197D2*
X355709D1*
Y-751378D1*
X346731D1*
X346680Y-761388D1*
X346186Y-764501D1*
X345213Y-767497D1*
X343782Y-770304D1*
X341930Y-772854D1*
X332845Y-782028D1*
X330480Y-784055D1*
X355709D1*
Y-885236D1*
X341349D1*
X339001Y-888068D1*
X319235Y-907747D1*
X316685Y-909598D1*
X313878Y-911029D1*
X310882Y-912003D1*
X307769Y-912496D1*
X281588Y-912558D1*
X261923D1*
X272856Y-923579D1*
X275071Y-926627D1*
X276782Y-929986D1*
X277946Y-933570D1*
X278537Y-937291D1*
X278610Y-953940D1*
X278537Y-1196079D1*
X277946Y-1199801D1*
X276782Y-1203385D1*
X275071Y-1206743D1*
X272857Y-1209791D1*
X261136Y-1221615D1*
X209912Y-1272736D1*
X206864Y-1274950D1*
X203505Y-1276661D1*
X199921Y-1277825D1*
X196199Y-1278416D1*
X179551Y-1278490D1*
X139970D1*
X139961Y-1289710D1*
X-139961D1*
Y-1219238D1*
X139961D1*
Y-1230445D1*
X184374Y-1230458D1*
X230577Y-1184248D1*
X230579Y-949112D1*
X226970Y-945514D1*
X227112Y-948197D1*
X227294Y-976945D1*
X226941Y-979297D1*
X226224Y-981566D1*
X225161Y-983693D1*
X223780Y-985629D1*
X222110Y-987323D1*
X220198Y-988738D1*
X218087Y-989833D1*
X215831Y-990587D1*
X213484Y-990978D1*
X162950Y-991429D1*
X137867Y-1016411D1*
X135193Y-1018353D1*
X132248Y-1019853D1*
X129105Y-1020875D1*
X125840Y-1021392D1*
X117520Y-1021450D1*
Y-1115945D1*
X28150D1*
Y-1020285D1*
X-1773Y-1020276D1*
X-1772Y-1114764D1*
X-91142D1*
Y-1094906D1*
X-93510Y-1094497D1*
X-96654Y-1093475D1*
X-99598Y-1091975D1*
X-102273Y-1090033D1*
X-112965Y-1079432D1*
X-115112Y-1076919D1*
X-116839Y-1074101D1*
X-118105Y-1071041D1*
X-119088Y-1070993D1*
X-123202Y-1071982D1*
X-127421Y-1072314D1*
X-128867Y-1072257D1*
X-131567Y-1073463D1*
X-133875Y-1074037D1*
X-136245Y-1074243D1*
X-196487Y-1074677D1*
X-198844Y-1074323D1*
X-199227Y-1074723D1*
X-144488Y-1129462D1*
X-15172Y-1129474D1*
X-15157Y-1119238D1*
X139961D1*
Y-1189710D1*
X-15157D1*
Y-1179465D1*
X-156794Y-1179396D1*
X-160668Y-1178783D1*
X-164399Y-1177571D1*
X-167895Y-1175790D1*
X-171068Y-1173484D1*
X-182949Y-1161711D1*
X-246850Y-1097810D1*
X-246858Y-1110219D1*
X-243728Y-1110512D1*
X-239614Y-1111500D1*
X-235703Y-1113119D1*
X-232096Y-1115331D1*
X-228878Y-1118079D1*
X-226130Y-1121297D1*
X-223919Y-1124904D1*
X-222299Y-1128815D1*
X-221311Y-1132929D1*
X-220979Y-1137148D1*
X-221311Y-1141367D1*
X-222299Y-1145482D1*
X-223919Y-1149392D1*
X-226130Y-1153000D1*
X-228878Y-1156218D1*
X-232096Y-1158966D1*
X-235703Y-1161177D1*
X-239614Y-1162797D1*
X-243728Y-1163785D1*
X-246865Y-1164075D1*
X-246904Y-1211366D1*
Y-1266287D1*
X-278719D1*
X-280022Y-1269413D1*
X-281829Y-1272364D1*
X-284081Y-1274999D1*
X-283959Y-1275932D1*
X-239865D1*
Y-1293944D1*
X-237245Y-1293997D1*
X-233980Y-1294514D1*
X-230837Y-1295537D1*
X-227892Y-1297037D1*
X-225218Y-1298979D1*
X-210084Y-1314022D1*
X-130551Y-1393555D1*
X142978Y-1393621D1*
X146243Y-1394138D1*
X149386Y-1395160D1*
X152331Y-1396660D1*
X155005Y-1398602D1*
X168648Y-1412155D1*
X170795Y-1414668D1*
X172522Y-1417486D1*
X173787Y-1420539D1*
X174559Y-1423753D1*
X174818Y-1427055D1*
X174753Y-1463888D1*
X174558Y-1465538D1*
X174932Y-1465992D1*
X223282Y-1417642D1*
X185084Y-1379463D1*
X139951Y-1379474D1*
X139961Y-1389710D1*
X-15157D1*
Y-1319238D1*
X139961D1*
Y-1329484D1*
X197412Y-1329551D1*
X201286Y-1330164D1*
X205017Y-1331377D1*
X208513Y-1333157D1*
X211686Y-1335463D1*
X223567Y-1347236D1*
X255987Y-1379655D1*
X255984Y-1377362D1*
X345878D1*
X345883Y-1370508D1*
X255984Y-1370520D1*
Y-1281150D1*
X345878D1*
X345881Y-1278236D1*
X343346Y-1274101D1*
X341491Y-1269621D1*
X340358Y-1264906D1*
X339978Y-1260071D1*
X340358Y-1255236D1*
X341491Y-1250521D1*
X343346Y-1246041D1*
X345881Y-1241906D1*
X349030Y-1238218D1*
X352718Y-1235068D1*
X356853Y-1232534D1*
X361333Y-1230678D1*
X366049Y-1229546D1*
X370883Y-1229165D1*
X375718Y-1229546D1*
X380433Y-1230678D1*
X384913Y-1232534D1*
X389049Y-1235068D1*
X392736Y-1238218D1*
X395886Y-1241906D1*
X398420Y-1246041D1*
X400276Y-1250521D1*
X401408Y-1255236D1*
X401789Y-1260071D1*
X401408Y-1264906D1*
X400276Y-1269621D1*
X398420Y-1274101D1*
X395881Y-1278244D1*
X395883Y-1281159D1*
X412283Y-1281150D1*
Y-1370520D1*
X395886D1*
X395883Y-1377354D1*
X412283Y-1377362D1*
Y-1466732D1*
X321736D1*
X321732Y-1471856D1*
X412283Y-1471850D1*
Y-1561220D1*
X255984D1*
Y-1471850D1*
X271728D1*
X271732Y-1466727D1*
X255984Y-1466732D1*
Y-1455640D1*
X189168Y-1522467D1*
X189173Y-1623425D1*
X124639D1*
X127437Y-1624996D1*
X130226Y-1626858D1*
X132861Y-1628936D1*
X135323Y-1631213D1*
X137600Y-1633675D1*
X139677Y-1636310D1*
X141539Y-1639098D1*
X143656Y-1643059D1*
X146028Y-1642682D1*
X194461Y-1642635D1*
X196832Y-1642822D1*
X199144Y-1643377D1*
X201343Y-1644287D1*
X203374Y-1645533D1*
X204134Y-1644685D1*
X204265Y-1610822D1*
X204660Y-1607491D1*
X205314Y-1604201D1*
X206224Y-1600972D1*
X207386Y-1597827D1*
X208790Y-1594781D1*
X210429Y-1591854D1*
X212291Y-1589066D1*
X214369Y-1586430D1*
X216646Y-1583969D1*
X219108Y-1581692D1*
X221743Y-1579614D1*
X224531Y-1577752D1*
X227458Y-1576113D1*
X230504Y-1574709D1*
X233650Y-1573547D1*
X236878Y-1572636D1*
X240168Y-1571983D1*
X243499Y-1571588D1*
X246850Y-1571457D1*
X250202Y-1571588D1*
X253533Y-1571983D1*
X256823Y-1572636D1*
X260051Y-1573547D1*
X263197Y-1574709D1*
X266243Y-1576113D1*
X269169Y-1577752D1*
X271958Y-1579614D1*
X274593Y-1581692D1*
X277055Y-1583969D1*
X279332Y-1586430D1*
X281409Y-1589066D1*
X283272Y-1591854D1*
X284911Y-1594781D1*
X286315Y-1597827D1*
X287476Y-1600972D1*
X288387Y-1604201D1*
X289041Y-1607491D1*
X289436Y-1610822D1*
X289567Y-1619094D1*
X289547Y-1708661D1*
X289436Y-1712013D1*
X289041Y-1715344D1*
X288387Y-1718634D1*
X287476Y-1721862D1*
X286315Y-1725008D1*
X284911Y-1728054D1*
X283272Y-1730980D1*
X281409Y-1733769D1*
X279332Y-1736404D1*
X277055Y-1738866D1*
X274593Y-1741143D1*
X271958Y-1743220D1*
X269169Y-1745083D1*
X266243Y-1746722D1*
X263197Y-1748126D1*
X260051Y-1749287D1*
X256823Y-1750198D1*
X253533Y-1750852D1*
X250202Y-1751247D1*
X246850Y-1751378D1*
X243499Y-1751247D1*
X240168Y-1750852D1*
X236878Y-1750198D1*
X233650Y-1749287D1*
X230504Y-1748126D1*
X227458Y-1746722D1*
X224531Y-1745083D1*
X221743Y-1743220D1*
X219108Y-1741143D1*
X216646Y-1738866D1*
X214369Y-1736404D1*
X212291Y-1733769D1*
X209615Y-1729529D1*
X209571Y-1737722D1*
X209199Y-1740071D1*
X208465Y-1742333D1*
X207385Y-1744453D1*
X205987Y-1746377D1*
X204304Y-1748059D1*
X202381Y-1749457D1*
X200261Y-1750537D1*
X197999Y-1751272D1*
X195650Y-1751643D1*
X145248Y-1751690D1*
X122406Y-1751643D1*
X120056Y-1751272D1*
X117794Y-1750537D1*
X115675Y-1749457D1*
X113751Y-1748059D1*
X112068Y-1746377D1*
X110671Y-1744453D1*
X109591Y-1742333D1*
X108856Y-1740071D1*
X108484Y-1737722D1*
X108437Y-1703987D1*
X105118Y-1704134D1*
X101766Y-1704003D1*
X98436Y-1703608D1*
X95146Y-1702954D1*
X91917Y-1702043D1*
X88772Y-1700882D1*
X85726Y-1699478D1*
X82799Y-1697839D1*
X80010Y-1695976D1*
X77375Y-1693899D1*
X74913Y-1691622D1*
X72636Y-1689160D1*
X70559Y-1686525D1*
X68697Y-1683736D1*
X67058Y-1680810D1*
X65654Y-1677764D1*
X64492Y-1674618D1*
X63581Y-1671390D1*
X62928Y-1668100D1*
X62533Y-1664769D1*
X62402Y-1661417D1*
X62533Y-1658066D1*
X62928Y-1654735D1*
X63581Y-1651445D1*
X64492Y-1648217D1*
X65654Y-1645071D1*
X67058Y-1642025D1*
X68697Y-1639098D1*
X70559Y-1636310D1*
X72636Y-1633675D1*
X74913Y-1631213D1*
X77375Y-1628936D1*
X80010Y-1626858D1*
X82799Y-1624996D1*
X85600Y-1623427D1*
X90748Y-1619685D1*
Y-1621190D1*
X95146Y-1619881D1*
X99619Y-1619087D1*
X96664Y-1617505D1*
X92991Y-1614836D1*
X90749Y-1612675D1*
X90748Y-1619685D1*
X85577Y-1623425D1*
X26041Y-1623423D1*
X28609Y-1624547D1*
X32217Y-1626759D1*
X35434Y-1629507D1*
X38182Y-1632724D1*
X40394Y-1636332D1*
X42013Y-1640243D1*
X43001Y-1644357D1*
X43333Y-1648576D1*
X43001Y-1652795D1*
X42013Y-1656909D1*
X40394Y-1660820D1*
X38182Y-1664428D1*
X35434Y-1667646D1*
X32217Y-1670394D1*
X28609Y-1672605D1*
X24698Y-1674224D1*
X20584Y-1675213D1*
X16365Y-1675545D1*
X12146Y-1675213D1*
X8031Y-1674224D1*
X4121Y-1672605D1*
X513Y-1670394D1*
X-442Y-1669642D1*
X-4398Y-1669575D1*
X-7663Y-1669058D1*
X-10806Y-1668035D1*
X-13751Y-1666535D1*
X-16425Y-1664593D1*
X-30811Y-1650298D1*
X-29857Y-1654735D1*
X-29462Y-1658066D1*
X-29331Y-1661417D1*
X-29462Y-1664769D1*
X-29857Y-1668100D1*
X-30510Y-1671390D1*
X-31421Y-1674618D1*
X-32583Y-1677764D1*
X-33987Y-1680810D1*
X-35626Y-1683736D1*
X-37488Y-1686525D1*
X-39566Y-1689160D1*
X-41843Y-1691622D1*
X-44304Y-1693899D1*
X-46940Y-1695976D1*
X-49728Y-1697839D1*
X-52655Y-1699478D1*
X-55701Y-1700882D1*
X-58846Y-1702043D1*
X-62075Y-1702954D1*
X-65365Y-1703608D1*
X-68696Y-1704003D1*
X-72047Y-1704134D1*
X-75802Y-1703954D1*
X-75862Y-1737722D1*
X-76234Y-1740071D1*
X-76969Y-1742333D1*
X-78049Y-1744453D1*
X-79446Y-1746377D1*
X-81129Y-1748059D1*
X-83052Y-1749457D1*
X-85172Y-1750537D1*
X-87434Y-1751272D1*
X-89783Y-1751643D1*
X-140185Y-1751690D1*
X-163028Y-1751643D1*
X-165377Y-1751272D1*
X-167639Y-1750537D1*
X-169759Y-1749457D1*
X-171682Y-1748059D1*
X-173365Y-1746377D1*
X-174762Y-1744453D1*
X-175843Y-1742333D1*
X-176577Y-1740071D1*
X-176949Y-1737722D1*
X-176996Y-1730362D1*
X-179220Y-1733769D1*
X-181298Y-1736404D1*
X-183575Y-1738866D1*
X-186037Y-1741143D1*
X-188672Y-1743220D1*
X-191461Y-1745083D1*
X-194387Y-1746722D1*
X-197433Y-1748126D1*
X-200579Y-1749287D1*
X-203807Y-1750198D1*
X-207097Y-1750852D1*
X-210428Y-1751247D1*
X-213780Y-1751378D1*
X-217131Y-1751247D1*
X-220462Y-1750852D1*
X-223752Y-1750198D1*
X-226980Y-1749287D1*
X-230126Y-1748126D1*
X-233172Y-1746722D1*
X-236098Y-1745083D1*
X-238887Y-1743220D1*
X-241522Y-1741143D1*
X-243984Y-1738866D1*
X-246261Y-1736404D1*
X-248339Y-1733769D1*
X-250201Y-1730980D1*
X-251840Y-1728054D1*
X-253244Y-1725008D1*
X-254406Y-1721862D1*
X-255316Y-1718634D1*
X-255970Y-1715344D1*
X-256365Y-1712013D1*
X-256496Y-1703740D1*
Y-1614173D1*
X-256365Y-1610822D1*
X-255970Y-1607491D1*
X-255316Y-1604201D1*
X-254406Y-1600972D1*
X-253244Y-1597827D1*
X-251840Y-1594781D1*
X-250201Y-1591854D1*
X-248339Y-1589066D1*
X-246261Y-1586430D1*
X-243984Y-1583969D1*
X-241522Y-1581692D1*
X-238887Y-1579614D1*
X-236098Y-1577752D1*
X-233172Y-1576113D1*
X-230126Y-1574709D1*
X-226980Y-1573547D1*
X-223752Y-1572636D1*
X-220462Y-1571983D1*
X-217131Y-1571588D1*
X-213780Y-1571457D1*
X-210428Y-1571588D1*
X-207097Y-1571983D1*
X-203807Y-1572636D1*
X-200579Y-1573547D1*
X-197433Y-1574709D1*
X-194387Y-1576113D1*
X-191461Y-1577752D1*
X-188672Y-1579614D1*
X-186037Y-1581692D1*
X-183575Y-1583969D1*
X-181298Y-1586430D1*
X-179220Y-1589066D1*
X-177358Y-1591854D1*
X-175719Y-1594781D1*
X-174315Y-1597827D1*
X-173154Y-1600972D1*
X-172243Y-1604201D1*
X-171589Y-1607491D1*
X-171194Y-1610822D1*
X-171063Y-1619094D1*
Y-1645757D1*
X-168720Y-1644287D1*
X-166522Y-1643377D1*
X-164210Y-1642822D1*
X-161833Y-1642635D1*
X-113406Y-1642682D1*
X-111051Y-1643055D1*
X-110108Y-1642025D1*
X-108469Y-1639098D1*
X-106606Y-1636310D1*
X-104529Y-1633675D1*
X-102252Y-1631213D1*
X-99790Y-1628936D1*
X-97155Y-1626858D1*
X-94366Y-1624996D1*
X-91566Y-1623427D1*
X-156102Y-1623425D1*
Y-1541860D1*
X-220077Y-1541772D1*
X-224257Y-1541109D1*
X-228282Y-1539802D1*
X-232052Y-1537881D1*
X-235476Y-1535392D1*
X-242972Y-1528016D1*
X-255990Y-1528004D1*
Y-1545727D1*
X-412289D1*
Y-1456357D1*
X-255990D1*
Y-1474062D1*
X-229690Y-1474156D1*
X-225510Y-1474819D1*
X-221486Y-1476126D1*
X-217715Y-1478047D1*
X-214291Y-1480535D1*
X-206795Y-1487912D1*
X-156119Y-1487917D1*
X-156102Y-1486811D1*
X-149163D1*
X-149072Y-1483486D1*
X-148409Y-1479306D1*
X-147102Y-1475281D1*
X-145181Y-1471510D1*
X-142693Y-1468087D1*
X-139701Y-1465094D1*
X-138031Y-1463778D1*
X-138290Y-1462866D1*
X-228008Y-1462802D1*
X-231273Y-1462285D1*
X-234416Y-1461262D1*
X-237361Y-1459762D1*
X-240034Y-1457820D1*
X-258648Y-1439298D1*
X-261789Y-1436157D1*
X-293802Y-1436168D1*
Y-1366483D1*
X-239865D1*
Y-1398490D1*
X-217644Y-1420727D1*
X-162937Y-1420740D1*
X-239873Y-1343808D1*
X-239865Y-1345617D1*
X-293802D1*
Y-1284735D1*
X-314675Y-1305592D1*
X-314668Y-1345617D1*
X-368605D1*
Y-1275932D1*
X-347362D1*
X-337728Y-1266287D1*
X-403203D1*
X-403157Y-1090668D1*
X-253978D1*
X-274194Y-1070358D1*
X-276500Y-1067185D1*
X-278281Y-1063689D1*
X-279493Y-1059958D1*
X-280106Y-1056084D1*
X-280184Y-1039358D1*
X-280186Y-1019343D1*
X-282720Y-1015207D1*
X-284576Y-1010727D1*
X-285709Y-1006012D1*
X-286089Y-1001177D1*
X-285875Y-997745D1*
X-286554Y-994812D1*
X-286814Y-991510D1*
Y-869495D1*
X-345866Y-869488D1*
Y-776181D1*
X-244685D1*
Y-816031D1*
X-240596Y-816028D1*
X-236416Y-816690D1*
X-232391Y-817997D1*
X-228621Y-819919D1*
X-225197Y-822407D1*
X-222205Y-825399D1*
X-219717Y-828823D1*
X-217795Y-832593D1*
X-216488Y-836618D1*
X-215825Y-840798D1*
Y-845029D1*
X-216488Y-849209D1*
X-217795Y-853234D1*
X-219717Y-857004D1*
X-222205Y-860428D1*
X-225197Y-863420D1*
X-228621Y-865908D1*
X-232391Y-867829D1*
X-236416Y-869136D1*
X-240596Y-869799D1*
X-244686Y-869804D1*
X-244688Y-972109D1*
X-241154Y-973640D1*
X-237018Y-976175D1*
X-233331Y-979324D1*
X-230573Y-982513D1*
X-209231Y-982509D1*
X-210474Y-979714D1*
X-211047Y-977406D1*
X-211253Y-975035D1*
X-211436Y-946287D1*
X-211083Y-943936D1*
X-210366Y-941667D1*
X-209303Y-939539D1*
X-207920Y-937604D1*
X-206252Y-935909D1*
X-204339Y-934496D1*
X-202228Y-933399D1*
X-199972Y-932646D1*
X-197626Y-932255D1*
X-147227Y-931804D1*
X-137381Y-931726D1*
X-136487Y-931521D1*
X-172937Y-894966D1*
X-175152Y-891917D1*
X-176864Y-888559D1*
X-178028Y-884975D1*
X-178618Y-881253D1*
X-178692Y-864605D1*
Y-718909D1*
X-181604Y-719571D1*
X-184906Y-719831D1*
X-244703D1*
X-244685Y-759252D1*
X-345866D1*
Y-665945D1*
X-244685D1*
Y-677690D1*
X-193640Y-677705D1*
X-161781Y-645866D1*
X-294685D1*
Y-556496D1*
X-250990D1*
X-254112Y-553697D1*
X-258063Y-549070D1*
X-261243Y-543881D1*
X-263572Y-538259D1*
X-264992Y-532343D1*
X-265470Y-526276D1*
X-264992Y-520209D1*
X-263572Y-514293D1*
X-261243Y-508671D1*
X-258063Y-503482D1*
X-254112Y-498854D1*
X-249484Y-494903D1*
X-244295Y-491723D1*
X-238673Y-489394D1*
X-232757Y-487974D1*
X-226690Y-487496D1*
X-220623Y-487974D1*
X-214707Y-489394D1*
X-209085Y-491723D1*
X-203896Y-494903D1*
X-199269Y-498854D1*
X-195318Y-503482D1*
X-194160Y-505213D1*
X-185648D1*
X-173824Y-493398D1*
X-173753Y-455034D1*
X-174362Y-454937D1*
X-179131Y-459615D1*
X-181806Y-461558D1*
X-184751Y-463058D1*
X-187894Y-464080D1*
X-191159Y-464597D1*
X-192818Y-464661D1*
X-195318Y-466392D1*
X-199269Y-471020D1*
X-203896Y-474971D1*
X-209085Y-478151D1*
X-214707Y-480480D1*
X-220623Y-481900D1*
X-226690Y-482378D1*
X-232757Y-481900D1*
X-238673Y-480480D1*
X-244295Y-478151D1*
X-249484Y-474971D1*
X-254112Y-471020D1*
X-257173Y-467522D1*
X-285722Y-467503D1*
Y-553117D1*
X-375092D1*
Y-396818D1*
X-285722D1*
Y-425403D1*
X-260942Y-425394D1*
X-258063Y-420804D1*
X-254112Y-416177D1*
X-249484Y-412226D1*
X-244295Y-409046D1*
X-238673Y-406717D1*
X-232757Y-405297D1*
X-232202Y-405231D1*
X-236070Y-404596D1*
X-240094Y-403289D1*
X-243865Y-401367D1*
X-247289Y-398879D1*
X-250281Y-395887D1*
X-252769Y-392463D1*
X-254690Y-388693D1*
X-255997Y-384668D1*
X-256660Y-380488D1*
Y-376257D1*
X-255997Y-372077D1*
X-254690Y-368052D1*
X-252769Y-364282D1*
X-250840Y-361566D1*
X-250837Y-342605D1*
X-252098Y-342066D1*
X-253273Y-341071D1*
X-254083Y-339761D1*
X-254448Y-338265D1*
X-254510Y-282865D1*
X-299803Y-282874D1*
Y-278933D1*
X-304537Y-278605D1*
X-308651Y-277617D1*
X-312562Y-275997D1*
X-316169Y-273786D1*
X-319387Y-271038D1*
X-322135Y-267820D1*
X-324346Y-264213D1*
X-325966Y-260302D1*
X-326954Y-256188D1*
X-327286Y-251969D1*
X-326954Y-247749D1*
X-325966Y-243635D1*
X-324346Y-239724D1*
X-322135Y-236117D1*
X-319387Y-232899D1*
X-316253Y-230217D1*
X-320395Y-228886D1*
X-324165Y-226965D1*
X-327589Y-224476D1*
X-330581Y-221484D1*
X-333070Y-218060D1*
X-334991Y-214290D1*
X-336298Y-210265D1*
X-336961Y-206085D1*
Y-201854D1*
X-336298Y-197675D1*
X-334991Y-193650D1*
X-333793Y-191171D1*
X-337828Y-189142D1*
X-341252Y-186654D1*
X-344244Y-183661D1*
X-346732Y-180238D1*
X-348654Y-176467D1*
X-349961Y-172442D1*
X-350623Y-168262D1*
Y-164031D1*
X-349961Y-159852D1*
X-348654Y-155827D1*
X-346732Y-152056D1*
X-344244Y-148633D1*
X-341252Y-145640D1*
X-337828Y-143152D1*
X-334058Y-141231D1*
X-330033Y-139924D1*
X-326749Y-139367D1*
X-323239Y-135951D1*
X-320564Y-134009D1*
X-317619Y-132509D1*
X-314476Y-131487D1*
X-311211Y-130970D1*
X-299812Y-130906D1*
X-299803Y-127588D1*
X-303163Y-127251D1*
X-307277Y-126262D1*
X-311188Y-124643D1*
X-314795Y-122432D1*
X-318013Y-119684D1*
X-320761Y-116466D1*
X-322972Y-112858D1*
X-323558Y-111588D1*
X-352633Y-140673D1*
X-352699Y-158990D1*
X-353217Y-162255D1*
X-354239Y-165398D1*
X-355739Y-168343D1*
X-357681Y-171017D1*
X-368605Y-182031D1*
X-368665Y-314415D1*
X-369182Y-317680D1*
X-370205Y-320823D1*
X-371705Y-323768D1*
X-373647Y-326442D1*
X-392169Y-345055D1*
X-406386Y-359181D1*
X-409060Y-361123D1*
X-412005Y-362623D1*
X-415148Y-363646D1*
X-418413Y-364163D1*
X-439962Y-364227D1*
X-443323Y-369500D1*
X-445782Y-372619D1*
X-448479Y-375537D1*
X-451396Y-378234D1*
X-454516Y-380693D1*
X-457819Y-382899D1*
X-461285Y-384840D1*
X-464892Y-386504D1*
X-468618Y-387878D1*
X-472442Y-388957D1*
X-476337Y-389797D1*
X-472442Y-390571D1*
X-468618Y-391650D1*
X-464892Y-393024D1*
X-461285Y-394688D1*
X-457819Y-396629D1*
X-454516Y-398835D1*
X-451396Y-401294D1*
X-448479Y-403991D1*
X-445782Y-406908D1*
X-443323Y-410028D1*
X-441117Y-413331D1*
X-439176Y-416797D1*
X-437512Y-420404D1*
X-436138Y-424130D1*
X-435059Y-427954D1*
X-434285Y-431849D1*
X-433818Y-435794D1*
X-433661Y-439764D1*
X-433818Y-443734D1*
X-434285Y-447678D1*
X-435059Y-451573D1*
X-436138Y-455398D1*
X-437512Y-459123D1*
X-439176Y-462731D1*
X-441117Y-466197D1*
X-443323Y-469500D1*
X-445782Y-472619D1*
X-448479Y-475537D1*
X-451396Y-478234D1*
X-454516Y-480693D1*
X-457819Y-482899D1*
X-461285Y-484840D1*
X-464892Y-486504D1*
X-468618Y-487878D1*
X-472442Y-488957D1*
X-476337Y-489797D1*
X-472442Y-490571D1*
X-468618Y-491650D1*
X-464892Y-493024D1*
X-461285Y-494688D1*
X-457819Y-496629D1*
X-454516Y-498835D1*
X-451396Y-501294D1*
X-448479Y-503991D1*
X-445782Y-506908D1*
X-443323Y-510028D1*
X-441117Y-513331D1*
X-439176Y-516797D1*
X-437512Y-520404D1*
X-436138Y-524130D1*
X-435059Y-527954D1*
X-434285Y-531849D1*
X-433818Y-535794D1*
X-433661Y-539764D1*
X-433818Y-543734D1*
X-434285Y-547678D1*
X-435059Y-551573D1*
X-436138Y-555398D1*
X-437512Y-559123D1*
X-439176Y-562731D1*
X-441117Y-566197D1*
X-443323Y-569500D1*
X-445782Y-572619D1*
X-448479Y-575537D1*
X-451396Y-578234D1*
X-454516Y-580693D1*
X-457819Y-582899D1*
X-461285Y-584840D1*
X-464892Y-586504D1*
X-468618Y-587878D1*
X-472442Y-588957D1*
X-476201Y-589705D1*
X-470193Y-591256D1*
X-466467Y-592630D1*
X-462860Y-594294D1*
X-459394Y-596235D1*
X-456091Y-598441D1*
X-452971Y-600900D1*
X-450054Y-603597D1*
X-447357Y-606514D1*
X-444898Y-609634D1*
X-442692Y-612937D1*
X-440751Y-616403D1*
X-439087Y-620010D1*
X-437713Y-623736D1*
X-436634Y-627560D1*
X-435860Y-631455D1*
X-435392Y-635400D1*
X-435236Y-639370D1*
X-435392Y-643340D1*
X-435860Y-647285D1*
X-436634Y-651180D1*
X-437713Y-655004D1*
X-439087Y-658730D1*
X-440751Y-662337D1*
X-442692Y-665803D1*
X-444898Y-669106D1*
X-447357Y-672226D1*
X-450054Y-675143D1*
X-452971Y-677840D1*
X-456091Y-680299D1*
X-459394Y-682505D1*
X-462860Y-684446D1*
X-466467Y-686110D1*
X-470193Y-687484D1*
X-474017Y-688563D1*
X-477441Y-689244D1*
X-472442Y-690177D1*
X-468618Y-691256D1*
X-464892Y-692630D1*
X-461285Y-694294D1*
X-457819Y-696235D1*
X-454516Y-698441D1*
X-451396Y-700900D1*
X-448479Y-703597D1*
X-445782Y-706514D1*
X-443323Y-709634D1*
X-441117Y-712937D1*
X-439176Y-716403D1*
X-437512Y-720010D1*
X-436138Y-723736D1*
X-435059Y-727560D1*
X-434285Y-731455D1*
X-433818Y-735400D1*
X-433661Y-739370D1*
X-433818Y-743340D1*
X-434285Y-747285D1*
X-435059Y-751180D1*
X-436138Y-755004D1*
X-437512Y-758730D1*
X-439176Y-762337D1*
X-441117Y-765803D1*
X-443323Y-769106D1*
X-445782Y-772226D1*
X-448479Y-775143D1*
X-451396Y-777840D1*
X-454516Y-780299D1*
X-457819Y-782505D1*
X-461285Y-784446D1*
X-464892Y-786110D1*
X-468618Y-787484D1*
X-472442Y-788563D1*
X-477493Y-789475D1*
X-474017Y-790177D1*
X-470193Y-791256D1*
X-466467Y-792630D1*
X-462860Y-794294D1*
X-459394Y-796235D1*
X-456091Y-798441D1*
X-452971Y-800900D1*
X-450054Y-803597D1*
X-447357Y-806514D1*
X-444898Y-809634D1*
X-442692Y-812937D1*
X-440751Y-816403D1*
X-439087Y-820010D1*
X-437713Y-823736D1*
X-436634Y-827560D1*
X-435860Y-831455D1*
X-435392Y-835400D1*
X-435236Y-839370D1*
X-435392Y-843340D1*
X-435860Y-847285D1*
X-436634Y-851180D1*
X-437713Y-855004D1*
X-439087Y-858730D1*
X-440751Y-862337D1*
X-442692Y-865803D1*
X-444898Y-869106D1*
X-447357Y-872226D1*
X-450054Y-875143D1*
X-452971Y-877840D1*
X-456091Y-880299D1*
X-459394Y-882505D1*
X-462860Y-884446D1*
X-466467Y-886110D1*
X-470193Y-887484D1*
X-474017Y-888563D1*
X-477441Y-889244D1*
X-472442Y-890177D1*
X-468618Y-891256D1*
X-464892Y-892630D1*
X-461285Y-894294D1*
X-457819Y-896235D1*
X-454516Y-898441D1*
X-451396Y-900900D1*
X-448479Y-903597D1*
X-445782Y-906514D1*
X-443323Y-909634D1*
X-441117Y-912937D1*
X-439176Y-916403D1*
X-437512Y-920010D1*
X-436138Y-923736D1*
X-435059Y-927560D1*
X-434285Y-931455D1*
X-433818Y-935400D1*
X-433661Y-939370D1*
X-433818Y-943340D1*
X-434285Y-947285D1*
X-435059Y-951180D1*
X-436138Y-955004D1*
X-437512Y-958730D1*
X-439176Y-962337D1*
X-441117Y-965803D1*
X-443323Y-969106D1*
X-445782Y-972226D1*
X-448479Y-975143D1*
X-451396Y-977840D1*
X-454516Y-980299D1*
X-457819Y-982505D1*
X-461285Y-984446D1*
X-464892Y-986110D1*
X-468618Y-987484D1*
X-472549Y-988584D1*
X-466467Y-990661D1*
X-462860Y-992325D1*
X-459394Y-994266D1*
X-456091Y-996472D1*
X-452971Y-998932D1*
X-450054Y-1001629D1*
X-447357Y-1004546D1*
X-444898Y-1007665D1*
X-442692Y-1010969D1*
X-440751Y-1014434D1*
X-439087Y-1018042D1*
X-437713Y-1021768D1*
X-436634Y-1025592D1*
X-435860Y-1029487D1*
X-435392Y-1033432D1*
X-435236Y-1037402D1*
X-435392Y-1041371D1*
X-435860Y-1045316D1*
X-436634Y-1049211D1*
X-437713Y-1053035D1*
X-439087Y-1056761D1*
X-440751Y-1060369D1*
X-442692Y-1063835D1*
X-444898Y-1067138D1*
X-447357Y-1070257D1*
X-450054Y-1073175D1*
X-452971Y-1075871D1*
X-456091Y-1078331D1*
X-459394Y-1080537D1*
X-462860Y-1082478D1*
X-466467Y-1084142D1*
X-470193Y-1085516D1*
X-474017Y-1086594D1*
X-477441Y-1087276D1*
X-472756Y-1088135D1*
X-468025Y-1089484D1*
X-463448Y-1091286D1*
X-459067Y-1093525D1*
X-454925Y-1096178D1*
X-451060Y-1099222D1*
X-447509Y-1102626D1*
X-444304Y-1106360D1*
X-441479Y-1110386D1*
X-439058Y-1114668D1*
X-437063Y-1119164D1*
X-435514Y-1123833D1*
X-434428Y-1128631D1*
X-433811Y-1133512D1*
X-433671Y-1138386D1*
X-434005Y-1143294D1*
X-434815Y-1148146D1*
X-436093Y-1152896D1*
X-437825Y-1157500D1*
X-439997Y-1161915D1*
X-442587Y-1166097D1*
X-445571Y-1170008D1*
X-448920Y-1173610D1*
X-452604Y-1176871D1*
X-456588Y-1179759D1*
X-460832Y-1182244D1*
X-465298Y-1184307D1*
X-469944Y-1185927D1*
X-474723Y-1187087D1*
X-479594Y-1187777D1*
X-484509Y-1187992D1*
X-489421Y-1187727D1*
X-494285Y-1186987D1*
X-499052Y-1185778D1*
X-503681Y-1184113D1*
X-508126Y-1182004D1*
X-512345Y-1179475D1*
X-516299Y-1176547D1*
X-519374Y-1173811D1*
X-519286Y-1307281D1*
X-515563Y-1304307D1*
X-512260Y-1302101D1*
X-508794Y-1300160D1*
X-505186Y-1298496D1*
X-501461Y-1297122D1*
X-497636Y-1296043D1*
X-493741Y-1295269D1*
X-489797Y-1294802D1*
X-485827Y-1294646D1*
X-481857Y-1294802D1*
X-477912Y-1295269D1*
X-474017Y-1296043D1*
X-470193Y-1297122D1*
X-466467Y-1298496D1*
X-462860Y-1300160D1*
X-459394Y-1302101D1*
X-456091Y-1304307D1*
X-452971Y-1306766D1*
X-450054Y-1309463D1*
X-447357Y-1312381D1*
X-444898Y-1315500D1*
X-442692Y-1318803D1*
X-440751Y-1322269D1*
X-439087Y-1325877D1*
X-437713Y-1329602D1*
X-436634Y-1333427D1*
X-435860Y-1337322D1*
X-435392Y-1341266D1*
X-435236Y-1345236D1*
X-435392Y-1349206D1*
X-435860Y-1353151D1*
X-436634Y-1357046D1*
X-437713Y-1360870D1*
X-439087Y-1364596D1*
X-440751Y-1368203D1*
X-442692Y-1371669D1*
X-444898Y-1374972D1*
X-447357Y-1378092D1*
X-450054Y-1381009D1*
X-452971Y-1383706D1*
X-456091Y-1386165D1*
X-459394Y-1388371D1*
X-462860Y-1390312D1*
X-466467Y-1391976D1*
X-470193Y-1393350D1*
X-474017Y-1394429D1*
X-477441Y-1395110D1*
X-472442Y-1396043D1*
X-468618Y-1397122D1*
X-464892Y-1398496D1*
X-461285Y-1400160D1*
X-457819Y-1402101D1*
X-454516Y-1404307D1*
X-451396Y-1406766D1*
X-448479Y-1409463D1*
X-445782Y-1412381D1*
X-443323Y-1415500D1*
X-441117Y-1418803D1*
X-439176Y-1422269D1*
X-437512Y-1425877D1*
X-436138Y-1429602D1*
X-435059Y-1433427D1*
X-434285Y-1437322D1*
X-433818Y-1441266D1*
X-433661Y-1445236D1*
X-433818Y-1449206D1*
X-434285Y-1453151D1*
X-435059Y-1457046D1*
X-436138Y-1460870D1*
X-437512Y-1464596D1*
X-439176Y-1468203D1*
X-441117Y-1471669D1*
X-443323Y-1474972D1*
X-445782Y-1478092D1*
X-448479Y-1481009D1*
X-451396Y-1483706D1*
X-454516Y-1486165D1*
X-457819Y-1488371D1*
X-461285Y-1490312D1*
X-464892Y-1491976D1*
X-468618Y-1493350D1*
X-472442Y-1494429D1*
X-476337Y-1495203D1*
X-480282Y-1495671D1*
X-484252Y-1495827D1*
X-488222Y-1495671D1*
X-492167Y-1495203D1*
X-496062Y-1494429D1*
X-499886Y-1493350D1*
X-503612Y-1491976D1*
X-507219Y-1490312D1*
X-510685Y-1488371D1*
X-513988Y-1486165D1*
X-517108Y-1483706D1*
X-519171Y-1481799D1*
X-519094Y-1597121D1*
X-511430Y-1633143D1*
X-495360Y-1669869D1*
X-466592Y-1705539D1*
X-435993Y-1730021D1*
X-393521Y-1749152D1*
X-341406Y-1756102D1*
X364594Y-1754921D1*
X401919Y-1749535D1*
X439097Y-1735352D1*
X475060Y-1712013D1*
X499958Y-1682907D1*
X519534Y-1651818D1*
X532937Y-1611222D1*
X536417Y-1565161D1*
X536948Y-774739D1*
X533643Y-777840D1*
X530524Y-780299D1*
X527220Y-782505D1*
X523755Y-784446D1*
X520147Y-786110D1*
X516421Y-787484D1*
X512597Y-788563D1*
X508702Y-789337D1*
X504757Y-789804D1*
X500787Y-789961D1*
X496818Y-789804D1*
X492873Y-789337D1*
X488978Y-788563D1*
X485154Y-787484D1*
X481428Y-786110D1*
X477820Y-784446D1*
X474354Y-782505D1*
X471051Y-780299D1*
X467932Y-777840D1*
X465014Y-775143D1*
X462318Y-772226D1*
X459858Y-769106D1*
X457652Y-765803D1*
X455711Y-762337D1*
X454047Y-758730D1*
X452673Y-755004D1*
X451594Y-751180D1*
X450820Y-747285D1*
X450353Y-743340D1*
X450197Y-739370D1*
X450353Y-735400D1*
X450820Y-731455D1*
X451594Y-727560D1*
X452673Y-723736D1*
X454171Y-719743D1*
X446274Y-711861D1*
X446207Y-994155D1*
X445642Y-997724D1*
X444525Y-1001161D1*
X442881Y-1004387D1*
X442126Y-1008828D1*
X440993Y-1013543D1*
X439138Y-1018024D1*
X436604Y-1022159D1*
X433454Y-1025846D1*
X429766Y-1028996D1*
X425631Y-1031530D1*
X421151Y-1033386D1*
X416436Y-1034518D1*
X411601Y-1034899D1*
X406945Y-1034539D1*
X407047Y-1060741D1*
X406441Y-1063627D1*
X405289Y-1066340D1*
X403633Y-1068780D1*
X401535Y-1070852D1*
X399077Y-1072479D1*
X396350Y-1073600D1*
X393458Y-1074171D1*
X383244Y-1074314D1*
X331272Y-1074625D1*
X328386Y-1074018D1*
X325673Y-1072866D1*
X323234Y-1071210D1*
X321161Y-1069113D1*
X319534Y-1066655D1*
X318413Y-1063928D1*
X317843Y-1061035D1*
X317699Y-1050822D1*
X317663Y-1030156D1*
X318303Y-1027278D1*
X319490Y-1024580D1*
X321176Y-1022161D1*
X323298Y-1020115D1*
X325777Y-1018518D1*
X328517Y-1017432D1*
X331416Y-1016896D1*
X352270Y-1016684D1*
X383329Y-1016432D1*
X382209Y-1013543D1*
X381076Y-1008828D1*
X380696Y-1003993D1*
X381076Y-999159D1*
X382209Y-994444D1*
X384064Y-989963D1*
X384235Y-989656D1*
X331182Y-990034D1*
X328831Y-989681D1*
X326562Y-988965D1*
X324434Y-987902D1*
X322499Y-986518D1*
X320804Y-984850D1*
X319391Y-982937D1*
X318294Y-980827D1*
X317541Y-978571D1*
X317150Y-976224D1*
X316873Y-947476D1*
X317041Y-945104D1*
X317577Y-942787D1*
X318470Y-940583D1*
X319697Y-938545D1*
X321227Y-936723D1*
X323024Y-935164D1*
X325041Y-933906D1*
X327231Y-932978D1*
X329539Y-932404D1*
X331913Y-932198D1*
X375911Y-931846D1*
X376850Y-929770D1*
Y-655314D1*
X288037Y-566395D1*
X286093Y-563722D1*
X284593Y-560777D1*
X283572Y-557633D1*
X283055Y-554369D1*
X282990Y-528109D1*
X283055Y-379085D1*
X283572Y-375822D1*
X284593Y-372677D1*
X286093Y-369732D1*
X288037Y-367059D1*
X293909Y-361100D1*
X291021Y-360820D1*
X286907Y-359832D1*
X282997Y-358213D1*
X279388Y-356001D1*
X278433Y-355248D1*
X260070Y-355181D1*
X256806Y-354664D1*
X253663Y-353643D1*
X250718Y-352143D1*
X248043Y-350199D1*
X238577Y-340825D1*
X222454Y-340881D1*
X222433Y-397732D1*
X225028Y-397173D1*
X229247Y-396841D1*
X233466Y-397173D1*
X237580Y-398161D1*
X241490Y-399781D1*
X245098Y-401992D1*
X248316Y-404740D1*
X251064Y-407958D1*
X253276Y-411567D1*
X254895Y-415476D1*
X255883Y-419592D1*
X256215Y-423810D1*
X255883Y-428029D1*
X254895Y-432144D1*
X253276Y-436054D1*
X251064Y-439661D1*
X250312Y-440617D1*
X250310Y-598343D1*
X281765Y-629899D1*
X283707Y-632573D1*
X285207Y-635518D1*
X286230Y-638661D1*
X286747Y-641927D1*
X286804Y-650197D1*
X293879D1*
X286811Y-643585D1*
Y-650211D1*
X298819Y-650197D1*
X-343602Y144453D2*
X-342651Y143352D1*
X-340192Y145827D1*
X-338465Y148644D1*
X-336312Y151161D1*
X-323336Y164049D1*
X-320661Y165991D1*
X-317717Y167491D1*
X-314573Y168513D1*
X-311308Y169030D1*
X-299794Y169094D1*
X-299803Y176967D1*
X-314661Y176969D1*
X-343606Y148026D1*
X-343597Y144476D1*
X-400028Y22856D2*
X-398644Y20524D1*
X-386424Y32739D1*
X-386416Y40014D1*
X-400010Y26424D1*
X-400024Y22890D1*
X-202888Y-380488D2*
X-203551Y-384668D1*
X-204858Y-388693D1*
X-206780Y-392463D1*
X-209268Y-395887D1*
X-212260Y-398879D1*
X-215684Y-401367D1*
X-219454Y-403289D1*
X-223479Y-404596D1*
X-224818Y-404862D1*
X-220623Y-405297D1*
X-214707Y-406717D1*
X-209085Y-409046D1*
X-203896Y-412226D1*
X-199269Y-416177D1*
X-197265Y-418265D1*
X-189367Y-410367D1*
X-189370Y-342541D1*
X-200963Y-342585D1*
X-208710Y-350350D1*
X-208711Y-361524D1*
X-206780Y-364282D1*
X-204858Y-368052D1*
X-203551Y-372077D1*
X-202888Y-376257D1*
Y-380488D1*
X-103461Y-450299D2*
X-102659Y-447117D1*
X-101039Y-443207D1*
X-98828Y-439600D1*
X-98075Y-438644D1*
X-98008Y-433415D1*
X-97812Y-431766D1*
X-104010Y-437735D1*
X-120091Y-453816D1*
X-116790Y-452178D1*
X-112765Y-450871D1*
X-108585Y-450210D1*
X-104353D1*
X-103491Y-450311D1*
X-40438Y-424201D2*
X-38307Y-422458D1*
X-34699Y-420247D1*
X-30789Y-418627D1*
X-27786Y-417861D1*
X-27793Y-414764D1*
X-39766D1*
X-39822Y-420530D1*
X-40340Y-423801D1*
X-131692Y-467605D2*
X-130499Y-464852D1*
X-129702Y-463429D1*
X-131693Y-466535D1*
Y-467554D1*
X288602Y-308056D2*
X291021Y-307547D1*
X295240Y-307215D1*
X299459Y-307547D1*
X303573Y-308534D1*
X304497Y-308875D1*
X304493Y-282860D1*
X288563Y-282874D1*
X288600Y-308033D1*
X407480Y-563482D2*
X403866Y-565698D1*
X399955Y-567318D1*
X395841Y-568306D1*
X394518Y-568462D1*
X407478Y-581427D1*
X407484Y-563471D1*
X-105671Y-702954D2*
X-105875Y-700554D1*
X-108282Y-702959D1*
X111673Y-1496740D2*
X108957Y-1498669D1*
X105186Y-1500591D1*
X101161Y-1501898D1*
X96982Y-1502560D1*
X92751D1*
X90755Y-1502324D1*
X90748Y-1572953D1*
X92991Y-1570828D1*
X96664Y-1568159D1*
X100710Y-1566097D1*
X105029Y-1564694D1*
X109513Y-1563984D1*
X114054D1*
X118538Y-1564694D1*
X119487Y-1564962D1*
X119488Y-1496722D1*
X111692Y-1496738D1*
X21070Y-1502514D2*
X17762Y-1502739D1*
X13543Y-1502407D1*
X12010Y-1502102D1*
X12008Y-1621950D1*
X16365Y-1621608D1*
X20584Y-1621940D1*
X21062Y-1622035D1*
X21063Y-1502528D1*
X-8978Y-1472430D2*
X-8461Y-1469475D1*
X-7039Y-1465202D1*
X-16203Y-1465209D1*
X-8992Y-1472416D1*
X-299803Y-179029D2*
Y-178567D1*
Y-36218D2*
Y25354D1*
X-307698Y17459D1*
X-307689Y-38071D1*
X-303920Y-36774D1*
X-300648Y-36257D1*
X-299803Y69588D2*
Y78000D1*
X-300848Y77205D1*
X-308555Y69497D1*
X-299810Y69606D1*
X-299803Y120126D2*
Y126967D1*
X-301722Y126178D1*
X-302656Y125235D1*
X-304383Y122417D1*
X-305412Y121114D1*
X-303861Y120121D1*
X-299804D1*
X-86479Y-414764D2*
X-87529D1*
X-87661Y-415703D1*
X-374581Y-933625D2*
X-314736Y-933251D1*
X-311850Y-933857D1*
X-309138Y-935009D1*
X-306698Y-936665D1*
X-304626Y-938762D1*
X-302999Y-941220D1*
X-301878Y-943948D1*
X-301307Y-946840D1*
X-301164Y-957054D1*
X-301127Y-977719D1*
X-301768Y-980597D1*
X-302954Y-983295D1*
X-304640Y-985714D1*
X-306762Y-987760D1*
X-309241Y-989357D1*
X-311982Y-990444D1*
X-314881Y-990979D1*
X-337703Y-991207D1*
X-376881Y-991416D1*
X-379766Y-990810D1*
X-382479Y-989657D1*
X-384919Y-988001D1*
X-386991Y-985904D1*
X-388618Y-983446D1*
X-389739Y-980719D1*
X-390310Y-977827D1*
X-390453Y-967613D1*
X-390512Y-947134D1*
X-389906Y-944248D1*
X-388753Y-941535D1*
X-387097Y-939096D1*
X-385000Y-937024D1*
X-382542Y-935396D1*
X-379815Y-934276D1*
X-376923Y-933705D1*
X-374581Y-933625D1*
X-374870Y-1018276D2*
X-314647Y-1017841D1*
X-312295Y-1018194D1*
X-310028Y-1018911D1*
X-307899Y-1019974D1*
X-305963Y-1021357D1*
X-304269Y-1023025D1*
X-302856Y-1024938D1*
X-301759Y-1027049D1*
X-301005Y-1029304D1*
X-300614Y-1031651D1*
X-300337Y-1060399D1*
X-300505Y-1062772D1*
X-301042Y-1065088D1*
X-301934Y-1067293D1*
X-303161Y-1069331D1*
X-304692Y-1071152D1*
X-306488Y-1072711D1*
X-308505Y-1073970D1*
X-310696Y-1074898D1*
X-313004Y-1075471D1*
X-315374Y-1075677D1*
X-375615Y-1076112D1*
X-377967Y-1075759D1*
X-380236Y-1075042D1*
X-382364Y-1073979D1*
X-384299Y-1072596D1*
X-385993Y-1070928D1*
X-387407Y-1069014D1*
X-388504Y-1066904D1*
X-389257Y-1064648D1*
X-389648Y-1062302D1*
X-389925Y-1033554D1*
X-389757Y-1031181D1*
X-389220Y-1028865D1*
X-388328Y-1026660D1*
X-387101Y-1024622D1*
X-385571Y-1022801D1*
X-383774Y-1021241D1*
X-381757Y-1019983D1*
X-379567Y-1019055D1*
X-377259Y-1018482D1*
X-374885Y-1018276D1*
X-210615Y-1054759D2*
X-210759Y-1030930D1*
X-210406Y-1028579D1*
X-209689Y-1026310D1*
X-209197Y-1025222D1*
X-209615Y-1024635D1*
X-230165D1*
X-230184Y-1043757D1*
X-209898Y-1064052D1*
X-210520Y-1060867D1*
X-210615Y-1054759D1*
X153476Y-1018276D2*
X213699Y-1017841D1*
X216051Y-1018194D1*
X218319Y-1018911D1*
X220448Y-1019974D1*
X222383Y-1021357D1*
X224077Y-1023025D1*
X225491Y-1024938D1*
X226588Y-1027049D1*
X227341Y-1029304D1*
X227732Y-1031651D1*
X228009Y-1060399D1*
X227841Y-1062772D1*
X227304Y-1065088D1*
X226412Y-1067293D1*
X225185Y-1069331D1*
X223655Y-1071152D1*
X221858Y-1072711D1*
X219841Y-1073970D1*
X217651Y-1074898D1*
X215343Y-1075471D1*
X212972Y-1075677D1*
X152731Y-1076112D1*
X150379Y-1075759D1*
X148112Y-1075042D1*
X145983Y-1073979D1*
X144047Y-1072596D1*
X142353Y-1070928D1*
X140940Y-1069014D1*
X139843Y-1066904D1*
X139089Y-1064648D1*
X138698Y-1062302D1*
X138421Y-1033554D1*
X138589Y-1031181D1*
X139126Y-1028865D1*
X140018Y-1026660D1*
X141245Y-1024622D1*
X142776Y-1022801D1*
X144572Y-1021241D1*
X146589Y-1019983D1*
X148780Y-1019055D1*
X151088Y-1018482D1*
X153462Y-1018276D1*
X-367621Y-1366483D2*
X-298920D1*
Y-1436168D1*
X-368605D1*
Y-1366483D1*
X-367621D1*
X-95220Y-1486811D2*
X-86417D1*
Y-1564802D1*
X-81432Y-1563984D1*
X-76891D1*
X-72407Y-1564694D1*
X-68088Y-1566097D1*
X-64042Y-1568159D1*
X-60369Y-1570828D1*
X-57681Y-1573472D1*
X-57677Y-1486811D1*
X-54159D1*
X-78117Y-1462867D1*
X-107667Y-1462866D1*
X-104672Y-1465094D1*
X-101680Y-1468087D1*
X-99192Y-1471510D1*
X-97270Y-1475281D1*
X-95963Y-1479306D1*
X-95301Y-1483486D1*
X-95218Y-1486812D1*
X-43913Y-1623425D2*
X-52526D1*
X-49728Y-1624996D1*
X-46940Y-1626858D1*
X-43873Y-1629336D1*
X-43898Y-1623430D1*
X-57677Y-1621176D2*
Y-1612218D1*
X-60369Y-1614836D1*
X-64042Y-1617505D1*
X-66887Y-1619013D1*
X-62075Y-1619881D1*
X-57680Y-1621222D1*
X-85839Y-1620986D2*
X-86421Y-1620827D1*
X340888Y-46256D2*
X360000Y-65367D1*
X358642Y-60827D1*
X344084Y-46269D1*
X340904Y-46265D1*
X-330407Y-512369D2*
Y-553097D1*
X-375072Y-512369D2*
X-285741D1*
X143945Y-591339D2*
Y-632067D1*
X99280Y-591339D2*
X143945D1*
X38976Y-593701D2*
Y-634429D1*
X-5689Y-593701D2*
X83642D1*
X-253937Y-556516D2*
Y-645846D1*
X-294665Y-601181D2*
X-253937D1*
X72835Y-1075197D2*
Y-1115925D1*
X28169Y-1075197D2*
X117500D1*
X-362409Y-1090688D2*
Y-1135353D1*
X-403138D2*
X-362409D1*
X-362455Y-1221602D2*
Y-1266269D1*
X-403184Y-1221602D2*
X-362455D1*
X296732Y-1281169D2*
Y-1370501D1*
X256004Y-1325835D2*
X296732D1*
X371535Y-1471870D2*
Y-1561202D1*
Y-1516535D2*
X412265D1*
X-371541Y-1456377D2*
Y-1545707D1*
X-412269Y-1501042D2*
X-371541D1*
X-484252Y59843D2*
X-433681D1*
X450217Y-40157D2*
X500787D1*
X-484252Y-1137402D2*
Y-1187972D1*
Y-1137402D2*
X-433681D1*
X-299783Y-1969D2*
X-247244D1*
X91535Y-362205D2*
Y-414745D1*
X-345808Y-933400D2*
Y-991266D1*
X-390478Y-962333D2*
X-301139D1*
X362344Y-1016609D2*
Y-1074475D1*
X317675Y-1045542D2*
X407013D1*
X-333762Y-1366503D2*
Y-1436148D1*
X-368585Y-1401325D2*
X-298938D1*
D23*
X-330407Y-512369D3*
Y-437566D3*
X143945Y-591339D3*
Y-516535D3*
X38976Y-593701D3*
Y-518898D3*
D24*
X-253937Y-601181D3*
X-179134D3*
D23*
X72835Y-1075197D3*
Y-1000394D3*
D24*
X-362409Y-1135353D3*
X-287606D3*
X-362455Y-1221602D3*
X-287652D3*
X296732Y-1325835D3*
X371535D3*
X296732Y-1516535D3*
X371535D3*
X296732Y-1422047D3*
X371535D3*
X-296738Y-1501042D3*
X-371541D3*
D27*
X-484252Y-140157D3*
Y-40157D3*
Y59843D3*
Y159843D3*
X500787Y-140157D3*
Y-40157D3*
Y59843D3*
Y159843D3*
X-484252Y-539764D3*
Y-439764D3*
Y-339764D3*
Y-239764D3*
X500787Y-540157D3*
Y-440157D3*
Y-340157D3*
Y-240157D3*
X-485827Y-639370D3*
D28*
X-484252Y-739370D3*
D27*
X-485827Y-839370D3*
D28*
X-484252Y-939370D3*
D27*
X-485827Y-1037402D3*
D28*
X-484252Y-1137402D3*
D27*
X-485827Y-1345236D3*
D28*
X-484252Y-1445236D3*
D27*
X499213Y-639370D3*
D28*
X500787Y-739370D3*
D30*
X-295276Y-822835D3*
Y-712598D3*
D23*
X-82283Y-591732D3*
Y-516929D3*
X-79528Y-818504D3*
Y-743701D3*
X42126Y-818898D3*
Y-744094D3*
X143937Y-822441D3*
Y-747638D3*
X-46457Y-1074016D3*
Y-999213D3*
D32*
X324803Y-834646D3*
Y-700787D3*
X265748Y-834646D3*
Y-700787D3*
D33*
X-247244Y-251969D3*
Y-201969D3*
Y-151969D3*
Y-101969D3*
Y-51969D3*
Y-1969D3*
Y48031D3*
Y98031D3*
Y148031D3*
Y198031D3*
X280315Y-251969D3*
Y-201969D3*
Y-151969D3*
Y-101969D3*
Y-51969D3*
Y-1969D3*
Y48031D3*
Y98031D3*
Y148031D3*
Y198031D3*
D34*
X-8465Y-362205D3*
X41535D3*
X-58465D3*
X91535D3*
X-108465D3*
X141535D3*
X-158465D3*
X191535D3*
D35*
X197638Y-174409D3*
Y-124016D3*
Y-74409D3*
Y-24016D3*
Y25984D3*
Y75984D3*
Y125984D3*
D36*
X-133465Y-279528D3*
X-83465D3*
X-33465D3*
X16535D3*
X66535D3*
X116142D3*
X166535D3*
D35*
X197638Y175984D3*
D95*
X-345808Y-962333D3*
X-345131Y-1046976D3*
X-166680Y-960899D3*
X-166003Y-1045542D3*
X182538Y-962333D3*
X183215Y-1046976D3*
X361667Y-960899D3*
X362344Y-1045542D3*
D37*
X0Y-1254474D3*
D38*
X62402Y-1154474D3*
Y-1354474D3*
D40*
X-333762Y-1401325D3*
D41*
X-266833D3*
Y-1310774D3*
X-341636D3*
D42*
X246850Y-1661417D3*
X-213780D3*
D43*
X-121260Y-1555118D3*
X-22835D3*
X55906D3*
X154331D3*
D104*
X159028Y-1697163D3*
D107*
X-126406D3*
D45*
X-226690Y-526276D3*
Y-443598D3*
G04 Top Clear*
%LPC*%
D16*
X307903Y-1131230D3*
X-420681Y113808D3*
X-420310Y215560D3*
X307903Y-1131230D3*
X-363542Y126324D3*
X98925Y101970D3*
X-98031Y101891D3*
X97883Y12411D3*
X-98055Y12081D3*
X-422549Y8056D3*
X-295945Y-2185D3*
X130756Y-1092671D3*
X-357264Y-43600D3*
X98843Y-78161D3*
X-97978Y-78601D3*
X-298944Y-100614D3*
X-323738Y-166147D3*
X98894Y-168870D3*
X-97858Y-169295D3*
X-310075Y-203970D3*
X-300318Y-251969D3*
X-229774Y-378373D3*
X41412Y-412310D3*
X-77010Y-455451D3*
X90127Y-419081D3*
X229247Y-423810D3*
X-22455Y-444276D3*
X-106470Y-477094D3*
X295240Y-334184D3*
X391622Y-541669D3*
X365837Y-519068D3*
D18*
X263332Y-386940D3*
D16*
X-378811Y-609085D3*
X92122Y-625416D3*
X41479Y-696530D3*
X103486Y-696415D3*
X-78827Y-700486D3*
X-242711Y-842913D3*
D18*
X-255184Y-1001177D3*
D16*
X-127421Y-1045345D3*
X-247948Y-1137148D3*
D18*
X370883Y-1260071D3*
D16*
X-411522Y-1269148D3*
X260601Y-1419625D3*
X121188Y-1444146D3*
X94866Y-1475675D3*
X17762Y-1475770D3*
X-122186Y-1485601D3*
X16365Y-1648576D3*
D18*
X411601Y-1003993D3*
D16*
X-297829Y241739D3*
X-337552Y241701D3*
X-374743Y241236D3*
X-410917Y241827D3*
X-447299Y241277D3*
X-387862Y216367D3*
X-419457Y86319D3*
X-356348Y-6391D3*
X-389375Y-363428D3*
X-389869Y-397696D3*
X-241577Y-653434D3*
X-422256Y-780580D3*
X-418774Y-491370D3*
X-372635Y-912843D3*
X-159986Y-922034D3*
X-19941Y-744612D3*
X-19686Y-774849D3*
X-112424Y-878450D3*
X-231766Y-930311D3*
X-18428Y-863051D3*
X-383605Y-1331692D3*
X-441568Y-1542265D3*
X-382429Y-1393289D3*
X-45344Y-1348064D3*
X-44832Y-1377881D3*
X-205609Y-1255349D3*
X-121638Y-1631667D3*
X490773Y-1660370D3*
X506735Y-1627562D3*
X382594Y-1736627D3*
X452644Y-1520269D3*
X451759Y-1468840D3*
X450871Y-1415636D3*
Y-1360660D3*
X191140Y-1429488D3*
X205867Y-1105224D3*
X208794Y-1155944D3*
X168803D3*
X368829Y-802106D3*
X478921Y-829346D3*
X476970Y-876165D3*
X258421Y-1261699D3*
X428064Y3055D3*
X387760D3*
X430483Y-76749D3*
X381646Y242906D3*
X414050Y242261D3*
X446240Y241777D3*
X476764Y240541D3*
X504440Y229848D3*
X399761Y201835D3*
D49*
X-484252Y-140157D3*
Y-40157D3*
Y59843D3*
Y159843D3*
X500787Y-140157D3*
Y-40157D3*
Y59843D3*
Y159843D3*
X-484252Y-539764D3*
Y-439764D3*
Y-339764D3*
Y-239764D3*
X500787Y-540157D3*
Y-440157D3*
Y-340157D3*
Y-240157D3*
X-485827Y-639370D3*
X-484252Y-739370D3*
X-485827Y-839370D3*
X-484252Y-939370D3*
X-485827Y-1037402D3*
X-484252Y-1137402D3*
X-485827Y-1345236D3*
X-484252Y-1445236D3*
X499213Y-639370D3*
X500787Y-739370D3*
D15*
X197638Y-174409D3*
Y-124016D3*
Y-74409D3*
Y-24016D3*
Y25984D3*
Y75984D3*
Y125984D3*
X-133465Y-279528D3*
X-83465D3*
X-33465D3*
X16535D3*
X66535D3*
X116142D3*
X166535D3*
X197638Y175984D3*
X246850Y-1690945D2*
D49*
Y-1631890D1*
X-213780Y-1690945D2*
Y-1631890D1*
X159028Y-1705037D2*
D48*
Y-1689289D1*
X-126406Y-1705037D2*
Y-1689289D1*
D17*
X-226690Y-526276D3*
Y-443598D3*
M02*
