G04 DipTrace 3.2.0.1*
G04 Нижний.gbr*
%MOIN*%
G04 #@! TF.FileFunction,Copper,L2,Bot*
G04 #@! TF.Part,Single*
%AMOUTLINE3*
4,1,4,
0.107364,0.068227,
-0.030693,-0.123451,
-0.107364,-0.068227,
0.030693,0.123451,
0.107364,0.068227,
0*%
%AMOUTLINE6*
4,1,4,
0.10493,0.031165,
0.003686,-0.109398,
-0.10493,-0.031165,
-0.003686,0.109398,
0.10493,0.031165,
0*%
%AMOUTLINE9*
4,1,5,
-0.035433,0.015748,
-0.035433,-0.03937,
0.035433,-0.03937,
0.035433,0.03937,
-0.011811,0.03937,
-0.035433,0.015748,
0*%
%AMOUTLINE12*
4,1,5,
-0.035433,-0.03937,
0.035433,-0.03937,
0.035433,0.015748,
0.011811,0.03937,
-0.035433,0.03937,
-0.035433,-0.03937,
0*%
%ADD15C,0.019685*%
%ADD16C,0.011811*%
%ADD17C,0.023622*%
%ADD18C,0.015748*%
%ADD48C,0.027559*%
%ADD49C,0.03937*%
G04 #@! TA.AperFunction,CopperBalancing*
%ADD10C,0.009843*%
G04 #@! TA.AperFunction,Conductor*
%ADD20C,0.007874*%
%ADD25R,0.114173X0.072835*%
%ADD26R,0.074803X0.133858*%
G04 #@! TA.AperFunction,ComponentPad*
%ADD27C,0.070866*%
%ADD28C,0.070866*%
%ADD29C,0.059055*%
G04 #@! TA.AperFunction,ComponentPad*
%ADD35R,0.043307X0.029528*%
%ADD36R,0.029528X0.043307*%
%ADD42O,0.055118X0.149606*%
%ADD44R,0.015748X0.05315*%
G04 #@! TA.AperFunction,ComponentPad*
%ADD45C,0.047244*%
G04 #@! TA.AperFunction,ViaPad*
%ADD46C,0.031496*%
%ADD98OUTLINE3*%
%ADD101OUTLINE6*%
G04 #@! TA.AperFunction,ComponentPad*
%ADD104OUTLINE9*%
%ADD107OUTLINE12*%
%FSLAX26Y26*%
G04*
G70*
G90*
G75*
G01*
G04 Bottom*
%LPD*%
X-295945Y-2185D2*
D15*
X-354638D1*
X-365476D1*
X-391883Y-28592D1*
Y-63545D1*
X-387320Y-68108D1*
Y-363428D1*
Y-418396D1*
X-378811Y-426906D1*
Y-609085D1*
X-295945Y-2185D2*
D18*
X-358554D1*
D15*
X-420581Y59843D1*
X-484252D1*
X-411522Y-1269148D2*
D17*
X-358500D1*
X-225948Y-1401701D1*
X-170356D1*
Y-1369114D1*
X-349234Y-1507504D2*
Y-1504673D1*
X-324424D1*
X-188865Y-1369114D1*
X-170356D1*
X263332Y-386940D2*
D15*
X166535Y-290143D1*
Y-279528D1*
X-420581Y59843D2*
X-420681Y86318D1*
Y113808D1*
X-420310Y215560D2*
D18*
X-387862D1*
X-180979D1*
X-155117Y241423D1*
X254110D1*
X343020Y152513D1*
Y-21710D1*
X365461Y-44151D1*
X496794D1*
X500787Y-40157D1*
X130756Y-1092671D2*
X269344D1*
X307903Y-1131230D1*
X90127Y-419081D2*
D15*
X76518Y-432690D1*
Y-490810D1*
D16*
X64091Y-503238D1*
D15*
Y-597385D1*
X92122Y-625416D1*
X-387862Y216367D2*
D18*
Y215560D1*
X-419457Y86319D2*
D15*
X-420681Y86318D1*
X-356348Y-6391D2*
X-354638Y-2185D1*
X-389375Y-363428D2*
X-387320D1*
X500787Y-440157D2*
D20*
X484333D1*
X266568Y-222392D1*
Y-156899D1*
X233406Y-123736D1*
X197917D1*
X197638Y-124016D1*
Y125984D2*
D16*
X162076D1*
X114163Y173898D1*
X26828D1*
X-16841Y130228D1*
Y93395D1*
X-98425Y11811D1*
X-98055Y12081D2*
X-98425Y11811D1*
X197638Y75984D2*
X162598D1*
X98425Y11811D1*
X500787Y-540157D2*
D20*
X452425D1*
X431841Y-519573D1*
Y-425039D1*
X237829Y-231028D1*
Y-184925D1*
X227314Y-174409D1*
X197638D1*
X500787Y-340157D2*
X420241D1*
X289949Y-209865D1*
Y-126996D1*
X237644Y-74692D1*
X197920D1*
X197638Y-74409D1*
X500787Y-240157D2*
X360748D1*
X312480Y-191890D1*
Y-107413D1*
X228504Y-23437D1*
X198217D1*
X197638Y-24016D1*
X-77010Y-455451D2*
D16*
X-76546D1*
Y-494772D1*
X-91315Y-509541D1*
X-118749D1*
X-132281Y-496009D1*
Y-352278D1*
X-178209Y-306350D1*
Y-158524D1*
X-98425Y-78740D1*
X-97978Y-78601D2*
X-98425Y-78740D1*
X41412Y-412310D2*
D17*
Y-396041D1*
X60361Y-377092D1*
X182529D1*
X229247Y-423810D1*
X-484252Y159843D2*
D18*
Y171106D1*
X-262147D1*
X-235348Y144307D1*
Y-291520D1*
X-157852Y-369016D1*
Y-805906D1*
X-194860Y-842913D1*
X-242711D1*
D15*
X-193950D1*
X-165400Y-814364D1*
X45587D1*
X140925Y-719025D1*
Y-656458D1*
X207240Y-590143D1*
Y-513631D1*
X217634Y-503238D1*
X-193950Y-842913D2*
Y-942909D1*
X-355900Y-1104860D1*
X-488878Y-1237837D1*
Y-1345236D1*
X-485827D1*
X-235348Y144307D2*
D18*
X-194764D1*
X-127173Y211898D1*
X241681D1*
X282311Y171268D1*
Y-19791D1*
X341925Y-79406D1*
Y-102773D1*
X378276Y-139123D1*
X499753D1*
X500787Y-140157D1*
X-485827Y-1037402D2*
D15*
X-423358D1*
X-355900Y-1104860D1*
X229247Y-423810D2*
D17*
Y-491625D1*
D16*
X217634Y-503238D1*
X-106470Y-477094D2*
X-106537D1*
Y-377042D1*
X-91470Y-361975D1*
Y-271522D1*
X-83465Y-279528D1*
X-22455Y-444276D2*
Y-644114D1*
X-78827Y-700486D1*
X66535Y-279528D2*
Y-311045D1*
X5196Y-372385D1*
Y-598125D1*
X103486Y-696415D1*
X-33465Y-279528D2*
X-29294D1*
Y-396131D1*
X-50409Y-417247D1*
Y-622793D1*
X-110306Y-682689D1*
Y-717743D1*
X-94462Y-733587D1*
X-66990D1*
X-29933Y-696530D1*
X41479D1*
X-300318Y-251969D2*
Y-270012D1*
X-299448Y-270882D1*
Y-673680D1*
X-364154Y-738386D1*
X-483268D1*
X-484252Y-739370D1*
X-357264Y-43600D2*
X-355958D1*
X-298944Y-100614D1*
X-363542Y126324D2*
X-278625D1*
X-262131Y109831D1*
Y-113127D1*
X-282125Y-133121D1*
X-344438D1*
X-357874Y-146556D1*
Y-394203D1*
X-348503Y-403575D1*
Y-629211D1*
X-370699Y-651408D1*
X-397962D1*
X-421331Y-628039D1*
Y-555340D1*
X-435612Y-541059D1*
X-482957D1*
X-484252Y-539764D1*
X-323738Y-166147D2*
X-283681D1*
X-271588Y-178240D1*
Y-684766D1*
X-432598Y-845777D1*
X-479420D1*
X-485827Y-839370D1*
X-310075Y-203970D2*
X-331070Y-224965D1*
Y-281453D1*
X-324278Y-288244D1*
Y-661924D1*
X-345654Y-683299D1*
X-441898D1*
X-485827Y-639370D1*
X-229774Y-378373D2*
X-198547D1*
X-184386Y-392534D1*
Y-636512D1*
X-496102Y-948228D1*
X-475394D1*
X-484252Y-939370D1*
X16535Y-279528D2*
D10*
Y-239920D1*
X-54081Y-169303D1*
X-98437D1*
X-98425Y-169291D1*
X-97858Y-169295D2*
D16*
X-98437Y-169303D1*
X-127421Y-1045345D2*
X-97584D1*
X74636Y-873125D1*
Y-837215D1*
X169169Y-742682D1*
Y-699479D1*
X309157Y-559491D1*
Y-429444D1*
X295240Y-415526D1*
Y-334184D1*
X-247948Y-1137148D2*
D15*
X-96308D1*
X134383Y-1367840D1*
X150352Y-1383808D1*
X224785D1*
X260601Y-1419625D1*
X67492Y-1595785D2*
D16*
Y-1499778D1*
X55593Y-1487879D1*
D18*
Y-1446630D1*
D15*
X134383Y-1367840D1*
X370883Y-1260071D2*
Y-1044711D1*
X411601Y-1003993D1*
D16*
X410382D1*
Y-998202D1*
X94866Y-1475675D2*
D10*
X94996D1*
X135264Y-1515942D1*
X249007D1*
X480286Y-1284663D1*
Y-947652D1*
X444871Y-912238D1*
Y-631850D1*
X363846Y-550825D1*
Y-519068D1*
X365837D1*
X41902Y-1595785D2*
D16*
Y-1537969D1*
X17762Y-1513829D1*
Y-1475770D1*
X121188Y-1444146D2*
D10*
X164630Y-1487588D1*
X249566D1*
X459398Y-1277756D1*
Y-958598D1*
X426331Y-925531D1*
Y-657121D1*
X336312Y-567102D1*
Y-507647D1*
X353685Y-490274D1*
X375609D1*
X393577Y-508243D1*
Y-541669D1*
X391622D1*
X16311Y-1595785D2*
D16*
Y-1648576D1*
X16365D1*
X-122186Y-1485601D2*
D15*
X-95247D1*
D18*
X-34870Y-1545978D1*
D16*
Y-1595785D1*
X116142Y-279528D2*
D10*
Y-240274D1*
X88592Y-212724D1*
Y-172281D1*
X98425D1*
Y-169291D1*
X98894Y-168870D2*
X98425Y-169291D1*
X98843Y-78161D2*
D16*
Y-78740D1*
Y-78161D2*
X131890D1*
X147713Y-62339D1*
Y-9311D1*
X183449Y26425D1*
X197197D1*
X197638Y25984D1*
X98925Y101970D2*
X85087Y106672D1*
X-98031Y101891D2*
Y102362D1*
X-484252Y-439764D2*
X-478100D1*
X-422549Y-384213D1*
Y8056D1*
X-484252Y-1445236D2*
D15*
Y-1450865D1*
X-419130Y-1385743D1*
Y-1324493D1*
X-452890Y-1290734D1*
Y-1252959D1*
X-286539Y-1086609D1*
X-69722D1*
X297883Y-719004D1*
X-484252Y-1445236D2*
D17*
Y-1624703D1*
X-433283Y-1675672D1*
X-362168D1*
X-349234Y-1688606D1*
X307903Y-1131230D3*
X-420681Y113808D3*
X-420310Y215560D3*
X307903Y-1131230D3*
X-363542Y126324D3*
X98925Y101970D3*
X-98031Y101891D3*
X97883Y12411D3*
X-98055Y12081D3*
X-422549Y8056D3*
X-295945Y-2185D3*
X130756Y-1092671D3*
X-357264Y-43600D3*
X-297829Y241739D3*
X98843Y-78161D3*
X-97978Y-78601D3*
X-298944Y-100614D3*
X-323738Y-166147D3*
X98894Y-168870D3*
X-97858Y-169295D3*
X-310075Y-203970D3*
X-300318Y-251969D3*
X-229774Y-378373D3*
X41412Y-412310D3*
X-77010Y-455451D3*
X90127Y-419081D3*
X229247Y-423810D3*
X-22455Y-444276D3*
X-106470Y-477094D3*
X295240Y-334184D3*
X391622Y-541669D3*
X365837Y-519068D3*
D46*
X263332Y-386940D3*
D17*
X-378811Y-609085D3*
X92122Y-625416D3*
X41479Y-696530D3*
X103486Y-696415D3*
X-78827Y-700486D3*
X-242711Y-842913D3*
D46*
X-255184Y-1001177D3*
D17*
X-127421Y-1045345D3*
X-247948Y-1137148D3*
D46*
X370883Y-1260071D3*
D17*
X-411522Y-1269148D3*
X260601Y-1419625D3*
X121188Y-1444146D3*
X94866Y-1475675D3*
X17762Y-1475770D3*
X-122186Y-1485601D3*
X16365Y-1648576D3*
D46*
X411601Y-1003993D3*
D17*
X-337552Y241701D3*
X-374743Y241236D3*
X-410917Y241827D3*
X-447299Y241277D3*
X-387862Y216367D3*
X-419457Y86319D3*
X-356348Y-6391D3*
X-389375Y-363428D3*
X-389869Y-397696D3*
X-241577Y-653434D3*
X-422256Y-780580D3*
X-418774Y-491370D3*
X-372635Y-912843D3*
X-159986Y-922034D3*
X-19941Y-744612D3*
X-19686Y-774849D3*
X-112424Y-878450D3*
X-231766Y-930311D3*
X-18428Y-863051D3*
X-383605Y-1331692D3*
X-441568Y-1542265D3*
X-382429Y-1393289D3*
X-45344Y-1348064D3*
X-44832Y-1377881D3*
X-205609Y-1255349D3*
X-121638Y-1631667D3*
X490773Y-1660370D3*
X506735Y-1627562D3*
X382594Y-1736627D3*
X452644Y-1520269D3*
X451759Y-1468840D3*
X450871Y-1415636D3*
Y-1360660D3*
X191140Y-1429488D3*
X205867Y-1105224D3*
X208794Y-1155944D3*
X168803D3*
X368829Y-802106D3*
X478921Y-829346D3*
X476970Y-876165D3*
X258421Y-1261699D3*
X428064Y3055D3*
X387760D3*
X430483Y-76749D3*
X381646Y242906D3*
X414050Y242261D3*
X446240Y241777D3*
X476764Y240541D3*
X504440Y229848D3*
X399761Y201835D3*
X-486199Y244029D2*
D10*
X-252274D1*
X288919D2*
X498738D1*
X-497676Y234318D2*
X-252294D1*
X288937D2*
X512848D1*
X-506211Y224606D2*
X-252312D1*
X288957D2*
X524497D1*
X-511210Y214895D2*
X-252312D1*
X288957D2*
X527803D1*
X-513940Y205184D2*
X-507680D1*
X-460824D2*
X-252332D1*
X288976D2*
X477361D1*
X524217D2*
X531129D1*
X-447348Y195472D2*
X-252352D1*
X291667D2*
X463885D1*
X301202Y185761D2*
X456349D1*
X305816Y176050D2*
X451870D1*
X306335Y166339D2*
X449639D1*
X306335Y156627D2*
X449312D1*
X-434353Y146916D2*
X-381938D1*
X306335D2*
X450890D1*
X-438025Y137205D2*
X-389205D1*
X306335D2*
X454560D1*
X-444369Y127493D2*
X-391472D1*
X306335D2*
X460904D1*
X-516957Y117782D2*
X-513337D1*
X-455154D2*
X-390108D1*
X306335D2*
X471689D1*
X529887D2*
X534224D1*
X-516976Y108071D2*
X-500509D1*
X-467995D2*
X-384379D1*
X306335D2*
X484530D1*
X517046D2*
X534205D1*
X-450462Y98360D2*
X-284185D1*
X306335D2*
X466999D1*
X-441677Y88648D2*
X-284185D1*
X306335D2*
X458214D1*
X-436409Y78937D2*
X-284185D1*
X306335D2*
X452946D1*
X-433546Y69226D2*
X-284185D1*
X306335D2*
X450081D1*
X-432681Y59514D2*
X-284185D1*
X306335D2*
X449217D1*
X-433680Y49803D2*
X-284185D1*
X306335D2*
X450217D1*
X-436698Y40092D2*
X-284185D1*
X306335D2*
X453235D1*
X-442139Y30381D2*
X-438660D1*
X-406441D2*
X-284185D1*
X306335D2*
X458675D1*
X-451251Y20669D2*
X-447374D1*
X-397732D2*
X-284185D1*
X306335D2*
X467787D1*
X-517014Y10958D2*
X-498260D1*
X-470244D2*
X-450336D1*
X-394752D2*
X-284185D1*
X306335D2*
X486780D1*
X514797D2*
X534167D1*
X-454192Y1247D2*
X-449625D1*
X-395463D2*
X-284185D1*
X306335D2*
X470728D1*
X530848D2*
X534171D1*
X-400251Y-8465D2*
X-284185D1*
X306335D2*
X460366D1*
X-400500Y-18176D2*
X-367251D1*
X-347289D2*
X-284185D1*
X314255D2*
X454234D1*
X-400500Y-27887D2*
X-380169D1*
X-334371D2*
X-284185D1*
X323963D2*
X450717D1*
X-400500Y-37598D2*
X-384533D1*
X-329988D2*
X-284185D1*
X333671D2*
X449274D1*
X-400500Y-47310D2*
X-384955D1*
X-321471D2*
X-284185D1*
X343379D2*
X449717D1*
X-400500Y-57021D2*
X-381630D1*
X-311764D2*
X-284185D1*
X353087D2*
X452100D1*
X-400500Y-66732D2*
X-372114D1*
X-302056D2*
X-284185D1*
X362142D2*
X456752D1*
X-448021Y-76444D2*
X-444601D1*
X-400500D2*
X-353891D1*
X365756D2*
X464558D1*
X-517054Y-86155D2*
X-506295D1*
X-462209D2*
X-444588D1*
X-400500D2*
X-344182D1*
X365948D2*
X478744D1*
X522832D2*
X534127D1*
X-517054Y-95866D2*
X-509678D1*
X-458825D2*
X-444588D1*
X-400500D2*
X-334455D1*
X368581D2*
X475361D1*
X526215D2*
X534127D1*
X-400500Y-105577D2*
X-326440D1*
X378289D2*
X462885D1*
X-400500Y-115289D2*
X-356639D1*
X387997D2*
X455753D1*
X-400500Y-125000D2*
X-367097D1*
X-400500Y-134711D2*
X-376266D1*
X332556D2*
X340315D1*
X-400500Y-144423D2*
X-379804D1*
X-262647D2*
X-259365D1*
X332556D2*
X350022D1*
X-400500Y-154134D2*
X-379920D1*
X-264916D2*
X-259375D1*
X332556D2*
X359731D1*
X-400500Y-163845D2*
X-379920D1*
X332556D2*
X455100D1*
X-400500Y-173556D2*
X-379920D1*
X332556D2*
X461808D1*
X-517092Y-183268D2*
X-511697D1*
X-456787D2*
X-444588D1*
X-400500D2*
X-379920D1*
X332556D2*
X473323D1*
X528253D2*
X534089D1*
X-517092Y-192979D2*
X-504488D1*
X-464016D2*
X-444588D1*
X-400500D2*
X-379920D1*
X341552D2*
X481531D1*
X520045D2*
X534089D1*
X-448848Y-202690D2*
X-444588D1*
X-400500D2*
X-379920D1*
X351261D2*
X465807D1*
X-400500Y-212402D2*
X-379920D1*
X360988D2*
X457503D1*
X-400500Y-222113D2*
X-379920D1*
X-400500Y-231824D2*
X-379920D1*
X-400500Y-241535D2*
X-379920D1*
X-400500Y-251247D2*
X-379920D1*
X-400500Y-260958D2*
X-379920D1*
X369024D2*
X453696D1*
X-400500Y-270669D2*
X-379920D1*
X378751D2*
X459444D1*
X-453115Y-280381D2*
X-444588D1*
X-400500D2*
X-379920D1*
X388458D2*
X469113D1*
X-517150Y-290092D2*
X-494839D1*
X-473665D2*
X-444588D1*
X-400500D2*
X-379920D1*
X398167D2*
X491682D1*
X509895D2*
X534031D1*
X-452251Y-299803D2*
X-444588D1*
X-400500D2*
X-379920D1*
X407874D2*
X469286D1*
X-400500Y-309514D2*
X-379920D1*
X417583D2*
X459539D1*
X-400500Y-319226D2*
X-379920D1*
X427290D2*
X453753D1*
X-400500Y-328937D2*
X-379920D1*
X-400500Y-338648D2*
X-379920D1*
X-400500Y-348360D2*
X-379920D1*
X-249537D2*
X-212058D1*
X-69430D2*
X-51348D1*
X-7241D2*
X-1559D1*
X59984D2*
X271322D1*
X319157D2*
X327165D1*
X-400500Y-358071D2*
X-379920D1*
X-69430D2*
X-51348D1*
X202623D2*
X273185D1*
X317293D2*
X336892D1*
X-400500Y-367782D2*
X-379920D1*
X-70238D2*
X-51348D1*
X212350D2*
X273185D1*
X317293D2*
X346601D1*
X439940D2*
X457425D1*
X-400500Y-377493D2*
X-379920D1*
X-76217D2*
X-51348D1*
X222058D2*
X273185D1*
X317293D2*
X356308D1*
X449647D2*
X465672D1*
X-517188Y-387205D2*
X-502816D1*
X-465688D2*
X-456314D1*
X-400711D2*
X-379920D1*
X-84482D2*
X-51348D1*
X231766D2*
X273185D1*
X317293D2*
X366017D1*
X459374D2*
X481205D1*
X520371D2*
X533993D1*
X-517188Y-396916D2*
X-512117D1*
X-404768D2*
X-379747D1*
X-84482D2*
X-60845D1*
X241474D2*
X273185D1*
X317293D2*
X375724D1*
X469083D2*
X473541D1*
X528022D2*
X533993D1*
X-414188Y-406627D2*
X-375864D1*
X-249537D2*
X-239375D1*
X-214012D2*
X-206425D1*
X-84482D2*
X-69592D1*
X69941D2*
X172934D1*
X251009D2*
X273185D1*
X317293D2*
X385433D1*
X-423895Y-416339D2*
X-370558D1*
X-84482D2*
X-72437D1*
X69058D2*
X182642D1*
X256142D2*
X273205D1*
X326635D2*
X395160D1*
X-433622Y-426050D2*
X-370558D1*
X-84482D2*
X-72455D1*
X117635D2*
X164092D1*
X271175D2*
X276009D1*
X330923D2*
X404867D1*
X-432835Y-435761D2*
X-370558D1*
X271175D2*
X284701D1*
X331210D2*
X411769D1*
X-433008Y-445472D2*
X-370558D1*
X271175D2*
X287104D1*
X331210D2*
X411769D1*
X-435084Y-455184D2*
X-370558D1*
X271175D2*
X287104D1*
X331210D2*
X411769D1*
X-439352Y-464895D2*
X-370558D1*
X271175D2*
X287104D1*
X331210D2*
X411769D1*
X451916D2*
X455686D1*
X-446579Y-474606D2*
X-370558D1*
X271175D2*
X287104D1*
X331210D2*
X340142D1*
X389151D2*
X411769D1*
X451916D2*
X462751D1*
X-517226Y-484318D2*
X-509198D1*
X-459306D2*
X-370558D1*
X-249537D2*
X-206425D1*
X271175D2*
X287104D1*
X399031D2*
X411769D1*
X451916D2*
X475112D1*
X526446D2*
X533955D1*
X-517226Y-494029D2*
X-506873D1*
X-461631D2*
X-370558D1*
X271175D2*
X287104D1*
X408739D2*
X411749D1*
X451916D2*
X479033D1*
X522543D2*
X533955D1*
X-447752Y-503740D2*
X-370558D1*
X271175D2*
X287104D1*
X451916D2*
X464692D1*
X-440063Y-513451D2*
X-370558D1*
X271175D2*
X287104D1*
X453703D2*
X456849D1*
X-423510Y-523163D2*
X-370558D1*
X271175D2*
X287104D1*
X-413034Y-532874D2*
X-370558D1*
X-133829D2*
X-72455D1*
X271175D2*
X287104D1*
X-403576Y-542585D2*
X-370558D1*
X-133829D2*
X-72455D1*
X271175D2*
X287104D1*
X419563D2*
X426860D1*
X-399500Y-552297D2*
X-370558D1*
X-133829D2*
X-72455D1*
X271175D2*
X285585D1*
X417390D2*
X436568D1*
X-399289Y-562008D2*
X-370558D1*
X-249537D2*
X-242739D1*
X-210647D2*
X-206436D1*
X-133829D2*
X-72455D1*
X271175D2*
X275879D1*
X410316D2*
X454177D1*
X-399289Y-571719D2*
X-370558D1*
X-249537D2*
X-206425D1*
X-133829D2*
X-72455D1*
X414122D2*
X460270D1*
X-517265Y-581430D2*
X-513933D1*
X-454576D2*
X-443377D1*
X-399289D2*
X-370558D1*
X-249537D2*
X-206425D1*
X-133829D2*
X-72455D1*
X317984D2*
X321269D1*
X423829D2*
X470555D1*
X-517283Y-591142D2*
X-502085D1*
X-469571D2*
X-443377D1*
X-399289D2*
X-370558D1*
X-249537D2*
X-206425D1*
X-133829D2*
X-72455D1*
X28976D2*
X169896D1*
X233209D2*
X246734D1*
X308277D2*
X330972D1*
X433538D2*
X482954D1*
X515470D2*
X533898D1*
X-452039Y-600853D2*
X-443377D1*
X-399289D2*
X-370558D1*
X-249537D2*
X-206425D1*
X-133829D2*
X-72455D1*
X38703D2*
X160189D1*
X230824D2*
X237041D1*
X308969D2*
X340680D1*
X443245D2*
X465423D1*
X-399289Y-610564D2*
X-370558D1*
X-249537D2*
X-206425D1*
X-133829D2*
X-72455D1*
X48411D2*
X150482D1*
X223154D2*
X227325D1*
X322445D2*
X350388D1*
X452974D2*
X456625D1*
X-398328Y-620276D2*
X-370558D1*
X-249537D2*
X-206425D1*
X-133829D2*
X-78665D1*
X58119D2*
X140773D1*
X213446D2*
X217612D1*
X335920D2*
X360096D1*
X-388619Y-629987D2*
X-380054D1*
X-249537D2*
X-208636D1*
X-133829D2*
X-88373D1*
X-417D2*
X6291D1*
X67827D2*
X131066D1*
X203739D2*
X207894D1*
X349415D2*
X369823D1*
X-249537Y-639698D2*
X-218344D1*
X-133829D2*
X-98081D1*
X-417D2*
X15992D1*
X77535D2*
X121395D1*
X194030D2*
X198172D1*
X362891D2*
X379531D1*
X-435257Y-649409D2*
X-430727D1*
X-249537D2*
X-228052D1*
X-133829D2*
X-107789D1*
X-1091D2*
X25699D1*
X87243D2*
X115955D1*
X184323D2*
X188472D1*
X376386D2*
X389239D1*
X-435295Y-659121D2*
X-421020D1*
X-249537D2*
X-237760D1*
X-133829D2*
X-117516D1*
X-6684D2*
X35428D1*
X96970D2*
X114937D1*
X174596D2*
X178765D1*
X389862D2*
X398948D1*
X-185925Y-668832D2*
X-181865D1*
X-133829D2*
X-127154D1*
X-16392D2*
X45135D1*
X106678D2*
X114937D1*
X-195652Y-678543D2*
X-181877D1*
X220886D2*
X224866D1*
X-517323Y-688255D2*
X-499836D1*
X-471820D2*
X-467723D1*
X-205361D2*
X-181877D1*
X211159D2*
X217867D1*
X465930D2*
X485203D1*
X513220D2*
X533858D1*
X-517323Y-697966D2*
X-514290D1*
X-215068D2*
X-181877D1*
X69385D2*
X74266D1*
X201450D2*
X210882D1*
X465930D2*
X470728D1*
X530848D2*
X533874D1*
X-443831Y-707677D2*
X-364214D1*
X-224777D2*
X-181877D1*
X67020D2*
X77988D1*
X191743D2*
X203904D1*
X-234484Y-717388D2*
X-181877D1*
X59560D2*
X85543D1*
X191223D2*
X196895D1*
X401185D2*
X405278D1*
X-244193Y-727100D2*
X-181877D1*
X-133829D2*
X-130143D1*
X-29734D2*
X96520D1*
X394206D2*
X405272D1*
X-253920Y-736811D2*
X-181877D1*
X-133829D2*
X-122014D1*
X-39441D2*
X86793D1*
X387209D2*
X405272D1*
X-263627Y-746522D2*
X-181877D1*
X-133829D2*
X-112307D1*
X-49150D2*
X77085D1*
X380211D2*
X405272D1*
X-273336Y-756234D2*
X-181877D1*
X-133829D2*
X67377D1*
X373214D2*
X405272D1*
X-440217Y-765945D2*
X-383533D1*
X-283043D2*
X-181877D1*
X-133829D2*
X57669D1*
X176672D2*
X187929D1*
X366217D2*
X405272D1*
X-448021Y-775656D2*
X-393241D1*
X-292752D2*
X-181877D1*
X-133829D2*
X47961D1*
X166963D2*
X201424D1*
X359219D2*
X405272D1*
X-517361Y-785367D2*
X-506295D1*
X-462209D2*
X-402969D1*
X-302479D2*
X-181877D1*
X-133829D2*
X38234D1*
X157256D2*
X195176D1*
X352222D2*
X405272D1*
X465930D2*
X478744D1*
X522832D2*
X533820D1*
X-517361Y-795079D2*
X-511269D1*
X-460402D2*
X-412676D1*
X-312186D2*
X-182301D1*
X147547D2*
X185469D1*
X345244D2*
X405272D1*
X465930D2*
X533820D1*
X-447906Y-804790D2*
X-422385D1*
X-321895D2*
X-192161D1*
X137840D2*
X175760D1*
X338247D2*
X405272D1*
X465930D2*
X533801D1*
X-440793Y-814501D2*
X-432092D1*
X-331602D2*
X-201870D1*
X128131D2*
X166052D1*
X238726D2*
X255346D1*
X331249D2*
X405272D1*
X465930D2*
X533801D1*
X-341311Y-824213D2*
X-263135D1*
X118404D2*
X156344D1*
X229017D2*
X268841D1*
X324252D2*
X405272D1*
X465930D2*
X533801D1*
X-351018Y-833924D2*
X-269114D1*
X108697D2*
X146617D1*
X219310D2*
X282316D1*
X317255D2*
X405272D1*
X465930D2*
X533801D1*
X-360745Y-843635D2*
X-270652D1*
X-158340D2*
X52594D1*
X98988D2*
X136909D1*
X209583D2*
X405272D1*
X465930D2*
X533801D1*
X-370454Y-853346D2*
X-268556D1*
X-167971D2*
X52594D1*
X96681D2*
X127201D1*
X199874D2*
X405272D1*
X465930D2*
X533782D1*
X-380161Y-863058D2*
X-261617D1*
X-167971D2*
X52594D1*
X96681D2*
X117493D1*
X190167D2*
X405272D1*
X465930D2*
X533782D1*
X-389870Y-872769D2*
X-219940D1*
X-167971D2*
X44213D1*
X96681D2*
X107785D1*
X180458D2*
X405272D1*
X465930D2*
X533782D1*
X-517399Y-882480D2*
X-513285D1*
X-399577D2*
X-219940D1*
X-167971D2*
X34504D1*
X94490D2*
X98072D1*
X170751D2*
X405272D1*
X465930D2*
X533782D1*
X-517419Y-892192D2*
X-503508D1*
X-409285D2*
X-219940D1*
X-167971D2*
X24797D1*
X161042D2*
X405272D1*
X465930D2*
X533762D1*
X-419013Y-901903D2*
X-219940D1*
X-167971D2*
X15089D1*
X151315D2*
X405272D1*
X465930D2*
X533762D1*
X-428720Y-911614D2*
X-219940D1*
X-167971D2*
X5381D1*
X141608D2*
X405272D1*
X473619D2*
X533762D1*
X-436007Y-921325D2*
X-219940D1*
X-167971D2*
X-4327D1*
X131899D2*
X405272D1*
X483346D2*
X533762D1*
X-433373Y-931037D2*
X-219940D1*
X-167971D2*
X-14054D1*
X122192D2*
X406041D1*
X493055D2*
X533762D1*
X-432699Y-940748D2*
X-228129D1*
X-167971D2*
X-23762D1*
X112483D2*
X412173D1*
X500129D2*
X533743D1*
X-433911Y-950459D2*
X-237837D1*
X-169125D2*
X-33470D1*
X102776D2*
X421881D1*
X501340D2*
X533743D1*
X-437160Y-960171D2*
X-247545D1*
X-174871D2*
X-43178D1*
X93049D2*
X431589D1*
X501340D2*
X533743D1*
X-442908Y-969882D2*
X-257253D1*
X-184580D2*
X-52886D1*
X83340D2*
X438336D1*
X501340D2*
X533743D1*
X-452577Y-979593D2*
X-278283D1*
X-194287D2*
X-62613D1*
X73633D2*
X391642D1*
X431558D2*
X438336D1*
X501340D2*
X533724D1*
X-517457Y-989304D2*
X-502490D1*
X-469148D2*
X-284705D1*
X-203996D2*
X-72322D1*
X63924D2*
X383433D1*
X501340D2*
X533724D1*
X-451885Y-999016D2*
X-286992D1*
X-213723D2*
X-82029D1*
X54217D2*
X380108D1*
X501340D2*
X533724D1*
X-443157Y-1008727D2*
X-296104D1*
X-223430D2*
X-91738D1*
X44509D2*
X370534D1*
X501340D2*
X533724D1*
X-406075Y-1018438D2*
X-305812D1*
X-228564D2*
X-101445D1*
X34781D2*
X360807D1*
X501340D2*
X533724D1*
X-396270Y-1028150D2*
X-315539D1*
X-239118D2*
X-149177D1*
X25073D2*
X351176D1*
X431866D2*
X438336D1*
X501340D2*
X533705D1*
X-386563Y-1037861D2*
X-325247D1*
X-252555D2*
X-154310D1*
X15365D2*
X345852D1*
X414064D2*
X438336D1*
X501340D2*
X533705D1*
X-376856Y-1047572D2*
X-334955D1*
X-262282D2*
X-155291D1*
X5657D2*
X344890D1*
X404357D2*
X438336D1*
X501340D2*
X533705D1*
X-367127Y-1057283D2*
X-344663D1*
X-271990D2*
X-152580D1*
X-4050D2*
X344890D1*
X396860D2*
X438336D1*
X501340D2*
X533705D1*
X-443811Y-1066995D2*
X-430113D1*
X-357420D2*
X-354379D1*
X-13759D2*
X344890D1*
X396860D2*
X438336D1*
X501340D2*
X533685D1*
X-452980Y-1076706D2*
X-420385D1*
X-23486D2*
X344890D1*
X396860D2*
X438336D1*
X501340D2*
X533685D1*
X-517496Y-1086417D2*
X-499337D1*
X-472320D2*
X-410677D1*
X-33193D2*
X344890D1*
X396860D2*
X438336D1*
X501340D2*
X533685D1*
X-517496Y-1096129D2*
X-514484D1*
X-454018D2*
X-400970D1*
X-42902D2*
X344890D1*
X396860D2*
X438336D1*
X501340D2*
X533685D1*
X-443734Y-1105840D2*
X-393222D1*
X-52764D2*
X344890D1*
X396860D2*
X438336D1*
X501340D2*
X533685D1*
X-437640Y-1115551D2*
X-402930D1*
X-279142D2*
X-265077D1*
X-82732D2*
X344890D1*
X396860D2*
X438336D1*
X501340D2*
X533667D1*
X-434161Y-1125262D2*
X-412638D1*
X-288849D2*
X-273131D1*
X-71852D2*
X344890D1*
X396860D2*
X438336D1*
X501340D2*
X533667D1*
X-432739Y-1134974D2*
X-422346D1*
X-298556D2*
X-275804D1*
X-62144D2*
X344890D1*
X396860D2*
X438336D1*
X501340D2*
X533667D1*
X-308285Y-1144685D2*
X-274824D1*
X-52437D2*
X344890D1*
X396860D2*
X438336D1*
X501340D2*
X533667D1*
X-317992Y-1154396D2*
X-269672D1*
X-42728D2*
X344890D1*
X396860D2*
X438336D1*
X501340D2*
X533647D1*
X-327701Y-1164108D2*
X-249640D1*
X-246253D2*
X-105694D1*
X-33001D2*
X344890D1*
X396860D2*
X438336D1*
X501340D2*
X533647D1*
X-337408Y-1173819D2*
X-95986D1*
X-23294D2*
X344890D1*
X396860D2*
X438336D1*
X501340D2*
X533647D1*
X-517534Y-1183530D2*
X-506008D1*
X-347115D2*
X-86259D1*
X-13585D2*
X344890D1*
X396860D2*
X438336D1*
X501340D2*
X533647D1*
X-517534Y-1193241D2*
X-480613D1*
X-356824D2*
X-76551D1*
X-3878D2*
X344890D1*
X396860D2*
X438336D1*
X501340D2*
X533647D1*
X-517552Y-1202953D2*
X-490340D1*
X-366551D2*
X-66843D1*
X5831D2*
X344890D1*
X396860D2*
X438336D1*
X501340D2*
X533629D1*
X-517552Y-1212664D2*
X-500049D1*
X-376259D2*
X-57135D1*
X15538D2*
X344890D1*
X396860D2*
X438336D1*
X501340D2*
X533629D1*
X-517552Y-1222375D2*
X-509507D1*
X-385967D2*
X-47427D1*
X25265D2*
X344890D1*
X396860D2*
X438336D1*
X501340D2*
X533629D1*
X-517552Y-1232087D2*
X-514210D1*
X-395675D2*
X-147390D1*
X-131945D2*
X-37719D1*
X34974D2*
X344890D1*
X396860D2*
X438336D1*
X501340D2*
X533629D1*
X-405383Y-1241798D2*
X-156541D1*
X-118105D2*
X-27992D1*
X44681D2*
X344890D1*
X396860D2*
X438336D1*
X501340D2*
X533609D1*
X-415091Y-1251509D2*
X-163538D1*
X-104629D2*
X-18283D1*
X54390D2*
X340199D1*
X401570D2*
X438336D1*
X501340D2*
X533609D1*
X-424818Y-1261220D2*
X-170535D1*
X-91152D2*
X-8576D1*
X64097D2*
X339008D1*
X402761D2*
X438336D1*
X501340D2*
X533609D1*
X-426913Y-1270932D2*
X-177533D1*
X-77657D2*
X1133D1*
X73806D2*
X340969D1*
X400801D2*
X436837D1*
X501340D2*
X533609D1*
X-426644Y-1280643D2*
X-184530D1*
X-64182D2*
X10840D1*
X83533D2*
X346832D1*
X394937D2*
X427129D1*
X501340D2*
X533609D1*
X-416937Y-1290354D2*
X-191508D1*
X-51110D2*
X20567D1*
X93240D2*
X363730D1*
X378039D2*
X417421D1*
X500533D2*
X533589D1*
X-407209Y-1300066D2*
X-198505D1*
X-46881D2*
X30276D1*
X102949D2*
X407713D1*
X494265D2*
X533589D1*
X-397944Y-1309777D2*
X-205503D1*
X-49726D2*
X39983D1*
X112656D2*
X398005D1*
X484558D2*
X533589D1*
X-393656Y-1319488D2*
X-212500D1*
X-56723D2*
X49692D1*
X122365D2*
X388278D1*
X474849D2*
X533589D1*
X-393138Y-1329199D2*
X-219497D1*
X-63720D2*
X59399D1*
X132092D2*
X378570D1*
X465122D2*
X533571D1*
X-393138Y-1338911D2*
X-226495D1*
X-70718D2*
X69108D1*
X141799D2*
X368862D1*
X455415D2*
X533571D1*
X-393138Y-1348622D2*
X-233492D1*
X-77715D2*
X78835D1*
X151508D2*
X359154D1*
X445706D2*
X533571D1*
X-393138Y-1358333D2*
X-240471D1*
X-84713D2*
X88542D1*
X161215D2*
X349446D1*
X435999D2*
X533571D1*
X-393138Y-1368045D2*
X-247469D1*
X-91692D2*
X97846D1*
X245357D2*
X339738D1*
X426290D2*
X533571D1*
X-393138Y-1377756D2*
X-254466D1*
X-98689D2*
X88119D1*
X255066D2*
X330010D1*
X416563D2*
X533551D1*
X-517630Y-1387467D2*
X-514663D1*
X-393214D2*
X-261463D1*
X-105686D2*
X78412D1*
X264793D2*
X320303D1*
X406856D2*
X533551D1*
X-517630Y-1397178D2*
X-501047D1*
X-395906D2*
X-268461D1*
X-112684D2*
X68703D1*
X276538D2*
X310594D1*
X397147D2*
X533551D1*
X-403941Y-1406890D2*
X-275458D1*
X-119681D2*
X58996D1*
X131669D2*
X139755D1*
X285362D2*
X300887D1*
X387440D2*
X533551D1*
X-413650Y-1416601D2*
X-282436D1*
X-126678D2*
X49287D1*
X121961D2*
X221243D1*
X377732D2*
X533531D1*
X-423357Y-1426312D2*
X-289433D1*
X-133656D2*
X39580D1*
X142395D2*
X230951D1*
X368024D2*
X533531D1*
X-433066Y-1436024D2*
X-293798D1*
X-140654D2*
X31967D1*
X147894D2*
X238198D1*
X358297D2*
X533531D1*
X-432681Y-1445735D2*
X-291318D1*
X-147651D2*
X29622D1*
X152161D2*
X252866D1*
X348589D2*
X533531D1*
X-433719Y-1455446D2*
X-421673D1*
X-154648D2*
X-944D1*
X161869D2*
X252328D1*
X338881D2*
X533531D1*
X-436756Y-1465157D2*
X-425903D1*
X-273778D2*
X-266020D1*
X-161646D2*
X-140757D1*
X-79869D2*
X-8018D1*
X171577D2*
X242619D1*
X329173D2*
X533513D1*
X-442273Y-1474869D2*
X-425921D1*
X-273701D2*
X-252543D1*
X-168643D2*
X-147909D1*
X-71680D2*
X-10171D1*
X319465D2*
X533513D1*
X-451462Y-1484580D2*
X-425921D1*
X-273681D2*
X-239049D1*
X-175640D2*
X-150119D1*
X-62720D2*
X-8710D1*
X309757D2*
X533513D1*
X-517668Y-1494291D2*
X-512196D1*
X-456307D2*
X-425921D1*
X-273643D2*
X-225572D1*
X-182619D2*
X-148697D1*
X-52993D2*
X-4289D1*
X300030D2*
X533513D1*
X-517688Y-1504003D2*
X-512199D1*
X-456307D2*
X-425921D1*
X-273623D2*
X-212097D1*
X-190117D2*
X-142891D1*
X-43286D2*
X-4289D1*
X89530D2*
X93942D1*
X290322D2*
X533493D1*
X-517688Y-1513714D2*
X-512199D1*
X-456307D2*
X-425921D1*
X-273605D2*
X-100696D1*
X-33577D2*
X-4289D1*
X89530D2*
X103652D1*
X280614D2*
X533493D1*
X-517688Y-1523425D2*
X-512199D1*
X-456307D2*
X-425921D1*
X-273585D2*
X-90988D1*
X-23870D2*
X-1963D1*
X89530D2*
X113360D1*
X270906D2*
X533493D1*
X-517688Y-1533136D2*
X-512199D1*
X-456307D2*
X-425921D1*
X-273567D2*
X-81260D1*
X-14759D2*
X6303D1*
X89530D2*
X123913D1*
X260352D2*
X533493D1*
X-517688Y-1542848D2*
X-512199D1*
X-456307D2*
X-425921D1*
X-273547D2*
X-71552D1*
X-11067D2*
X16012D1*
X89530D2*
X533493D1*
X-517707Y-1552559D2*
X-512205D1*
X-456307D2*
X-425921D1*
X-273509D2*
X-61844D1*
X-11816D2*
X19856D1*
X89530D2*
X533474D1*
X-517707Y-1562270D2*
X-512205D1*
X-456307D2*
X-425921D1*
X-273490D2*
X-58885D1*
X91510D2*
X533474D1*
X-517707Y-1571982D2*
X-512205D1*
X-456307D2*
X-425921D1*
X-273470D2*
X-221440D1*
X-206110D2*
X-100215D1*
X132841D2*
X239198D1*
X254508D2*
X533474D1*
X-517707Y-1581693D2*
X-512205D1*
X-456307D2*
X-425921D1*
X-273451D2*
X-242509D1*
X-185060D2*
X-106846D1*
X139474D2*
X218129D1*
X275577D2*
X533474D1*
X-517150Y-1591404D2*
X-512215D1*
X-456307D2*
X-425921D1*
X-273432D2*
X-250909D1*
X-176660D2*
X-109038D1*
X141665D2*
X209728D1*
X283978D2*
X533398D1*
X-515227Y-1601115D2*
X-512213D1*
X-456307D2*
X-425921D1*
X-273412D2*
X-255427D1*
X-172123D2*
X-107866D1*
X140492D2*
X205192D1*
X288514D2*
X532744D1*
X-456307Y-1610827D2*
X-425921D1*
X-273374D2*
X-257349D1*
X-170201D2*
X-102810D1*
X135437D2*
X203289D1*
X290417D2*
X532109D1*
X-449290Y-1620538D2*
X-425921D1*
X-273354D2*
X-257484D1*
X-170085D2*
X-88488D1*
X121115D2*
X203154D1*
X290552D2*
X529419D1*
X-439581Y-1630249D2*
X-425921D1*
X-273336D2*
X-257484D1*
X-170085D2*
X-102234D1*
X135322D2*
X203154D1*
X290552D2*
X526092D1*
X-429874Y-1639961D2*
X-425921D1*
X-273316D2*
X-257484D1*
X-170085D2*
X-109962D1*
X-34135D2*
X-10171D1*
X42913D2*
X67203D1*
X143030D2*
X203154D1*
X290552D2*
X522766D1*
X-502597Y-1649672D2*
X-498395D1*
X-273297D2*
X-257484D1*
X-30003D2*
X-11575D1*
X44297D2*
X63071D1*
X290552D2*
X519421D1*
X-498560Y-1659383D2*
X-488686D1*
X-273278D2*
X-257484D1*
X-28387D2*
X-9325D1*
X42049D2*
X61475D1*
X290552D2*
X513846D1*
X-494542Y-1669094D2*
X-478979D1*
X-273239D2*
X-257484D1*
X-29041D2*
X-2117D1*
X34858D2*
X62110D1*
X290552D2*
X507484D1*
X-490505Y-1678806D2*
X-469270D1*
X-273220D2*
X-257484D1*
X-32041D2*
X65109D1*
X290552D2*
X501121D1*
X-482105Y-1688517D2*
X-459563D1*
X-273201D2*
X-257484D1*
X-38038D2*
X71106D1*
X290552D2*
X493239D1*
X-472647Y-1698228D2*
X-449047D1*
X-273182D2*
X-257484D1*
X-49399D2*
X82467D1*
X290552D2*
X483396D1*
X-463189Y-1707940D2*
X-425921D1*
X-273163D2*
X-257484D1*
X-74832D2*
X107458D1*
X290552D2*
X473554D1*
X-449348Y-1717651D2*
X-425921D1*
X-273125D2*
X-256522D1*
X-74832D2*
X107458D1*
X289591D2*
X461770D1*
X-434084Y-1727362D2*
X-425921D1*
X-273125D2*
X-253177D1*
X-74832D2*
X107458D1*
X286247D2*
X448045D1*
X-276008Y-1737073D2*
X-246661D1*
X-74832D2*
X107458D1*
X210601D2*
X213976D1*
X279730D2*
X430820D1*
X-390408Y-1746785D2*
X-234031D1*
X-193518D2*
X-173995D1*
X-78831D2*
X111438D1*
X206602D2*
X226588D1*
X267100D2*
X409904D1*
X-279058Y-1455929D2*
X-277850D1*
X-287959Y-1448517D1*
X-289928Y-1446324D1*
X-291436Y-1443790D1*
X-292425Y-1441013D1*
X-292858Y-1438097D1*
X-292718Y-1435152D1*
X-292010Y-1432290D1*
X-290762Y-1429619D1*
X-284841Y-1421295D1*
X-150839Y-1235423D1*
X-148644Y-1233453D1*
X-146112Y-1231945D1*
X-143335Y-1230957D1*
X-140419Y-1230524D1*
X-137474Y-1230664D1*
X-134612Y-1231371D1*
X-131941Y-1232619D1*
X-123615Y-1238541D1*
X-53354Y-1289189D1*
X-51272Y-1291276D1*
X-49633Y-1293726D1*
X-48499Y-1296448D1*
X-47913Y-1299337D1*
X-47899Y-1302285D1*
X-48455Y-1305180D1*
X-49562Y-1307913D1*
X-51268Y-1310545D1*
X-189873Y-1502806D1*
X-192067Y-1504776D1*
X-194600Y-1506283D1*
X-197377Y-1507272D1*
X-200293Y-1507705D1*
X-203238Y-1507564D1*
X-206100Y-1506857D1*
X-208770Y-1505609D1*
X-217096Y-1499688D1*
X-276196Y-1457119D1*
X-276990Y-1456549D2*
X-276895Y-1458709D1*
X-275825Y-1460833D1*
X-275102Y-1463100D1*
X-274741Y-1465455D1*
X-274220Y-1673220D1*
X-274139Y-1728142D1*
X-274507Y-1730492D1*
X-275236Y-1732756D1*
X-276311Y-1734877D1*
X-276972Y-1735871D1*
X-276990Y-1740181D1*
X-281776D1*
X-284535Y-1741392D1*
X-286848Y-1741953D1*
X-289223Y-1742144D1*
X-405076Y-1742146D1*
X-371867Y-1753399D1*
X-324239Y-1756496D1*
X362555Y-1755709D1*
X409929Y-1747235D1*
X442009Y-1732339D1*
X469676Y-1712741D1*
X498535Y-1684264D1*
X519570Y-1652138D1*
X532925Y-1613203D1*
X534449Y-1590395D1*
X534807Y-776831D1*
X530524Y-780299D1*
X527220Y-782505D1*
X523755Y-784446D1*
X520147Y-786110D1*
X516421Y-787484D1*
X512597Y-788563D1*
X508702Y-789337D1*
X504757Y-789804D1*
X500787Y-789961D1*
X496818Y-789804D1*
X492873Y-789337D1*
X488978Y-788563D1*
X485154Y-787484D1*
X481428Y-786110D1*
X477820Y-784446D1*
X474354Y-782505D1*
X471051Y-780299D1*
X467932Y-777840D1*
X464941Y-775063D1*
X464950Y-903923D1*
X495554Y-934612D1*
X497406Y-937161D1*
X498836Y-939969D1*
X499810Y-942965D1*
X500303Y-946077D1*
X500365Y-972259D1*
X500303Y-1286238D1*
X499810Y-1289350D1*
X498836Y-1292346D1*
X497406Y-1295154D1*
X495554Y-1297703D1*
X477084Y-1316260D1*
X262047Y-1531210D1*
X259497Y-1533062D1*
X256690Y-1534492D1*
X253694Y-1535466D1*
X250581Y-1535959D1*
X224400Y-1536021D1*
X133689Y-1535959D1*
X130576Y-1535466D1*
X127580Y-1534492D1*
X124773Y-1533062D1*
X122223Y-1531210D1*
X103667Y-1512741D1*
X93539Y-1502614D1*
X90647Y-1502311D1*
X88563Y-1501895D1*
X88555Y-1554047D1*
X90524Y-1554052D1*
Y-1573219D1*
X92991Y-1570828D1*
X96664Y-1568159D1*
X100710Y-1566097D1*
X105029Y-1564694D1*
X109513Y-1563984D1*
X114054D1*
X118538Y-1564694D1*
X122857Y-1566097D1*
X126903Y-1568159D1*
X130576Y-1570828D1*
X133787Y-1574039D1*
X136457Y-1577713D1*
X138518Y-1581759D1*
X139921Y-1586077D1*
X140631Y-1590562D1*
Y-1595102D1*
X139921Y-1599587D1*
X138518Y-1603906D1*
X136457Y-1607951D1*
X133787Y-1611625D1*
X130576Y-1614836D1*
X126903Y-1617505D1*
X122857Y-1619567D1*
X118718Y-1620919D1*
X124510Y-1623357D1*
X127437Y-1624996D1*
X130226Y-1626858D1*
X132861Y-1628936D1*
X135323Y-1631213D1*
X137600Y-1633675D1*
X139677Y-1636310D1*
X141539Y-1639098D1*
X143656Y-1643059D1*
X146028Y-1642682D1*
X194461Y-1642635D1*
X196832Y-1642822D1*
X199144Y-1643377D1*
X201343Y-1644287D1*
X203374Y-1645533D1*
X204134Y-1644685D1*
X204265Y-1610822D1*
X204660Y-1607491D1*
X205314Y-1604201D1*
X206224Y-1600972D1*
X207386Y-1597827D1*
X208790Y-1594781D1*
X210429Y-1591854D1*
X212291Y-1589066D1*
X214369Y-1586430D1*
X216646Y-1583969D1*
X219108Y-1581692D1*
X221743Y-1579614D1*
X224531Y-1577752D1*
X227458Y-1576113D1*
X230504Y-1574709D1*
X233650Y-1573547D1*
X236878Y-1572636D1*
X240168Y-1571983D1*
X243499Y-1571588D1*
X246850Y-1571457D1*
X250202Y-1571588D1*
X253533Y-1571983D1*
X256823Y-1572636D1*
X260051Y-1573547D1*
X263197Y-1574709D1*
X266243Y-1576113D1*
X269169Y-1577752D1*
X271958Y-1579614D1*
X274593Y-1581692D1*
X277055Y-1583969D1*
X279332Y-1586430D1*
X281409Y-1589066D1*
X283272Y-1591854D1*
X284911Y-1594781D1*
X286315Y-1597827D1*
X287476Y-1600972D1*
X288387Y-1604201D1*
X289041Y-1607491D1*
X289436Y-1610822D1*
X289567Y-1619094D1*
X289549Y-1708661D1*
X289436Y-1712013D1*
X289041Y-1715344D1*
X288387Y-1718634D1*
X287476Y-1721862D1*
X286315Y-1725008D1*
X284911Y-1728054D1*
X283272Y-1730980D1*
X281409Y-1733769D1*
X279332Y-1736404D1*
X277055Y-1738866D1*
X274593Y-1741143D1*
X271958Y-1743220D1*
X269169Y-1745083D1*
X266243Y-1746722D1*
X263197Y-1748126D1*
X260051Y-1749287D1*
X256823Y-1750198D1*
X253533Y-1750852D1*
X250202Y-1751247D1*
X246850Y-1751378D1*
X243499Y-1751247D1*
X240168Y-1750852D1*
X236878Y-1750198D1*
X233650Y-1749287D1*
X230504Y-1748126D1*
X227458Y-1746722D1*
X224531Y-1745083D1*
X221743Y-1743220D1*
X219108Y-1741143D1*
X216646Y-1738866D1*
X214369Y-1736404D1*
X212291Y-1733769D1*
X209615Y-1729529D1*
X209571Y-1737722D1*
X209199Y-1740071D1*
X208465Y-1742333D1*
X207385Y-1744453D1*
X205987Y-1746377D1*
X204304Y-1748059D1*
X202381Y-1749457D1*
X200261Y-1750537D1*
X197999Y-1751272D1*
X195650Y-1751643D1*
X145248Y-1751690D1*
X122406Y-1751643D1*
X120056Y-1751272D1*
X117794Y-1750537D1*
X115675Y-1749457D1*
X113751Y-1748059D1*
X112068Y-1746377D1*
X110671Y-1744453D1*
X109591Y-1742333D1*
X108856Y-1740071D1*
X108484Y-1737722D1*
X108437Y-1703987D1*
X105118Y-1704134D1*
X101766Y-1704003D1*
X98436Y-1703608D1*
X95146Y-1702954D1*
X91917Y-1702043D1*
X88772Y-1700882D1*
X85726Y-1699478D1*
X82799Y-1697839D1*
X80010Y-1695976D1*
X77375Y-1693899D1*
X74913Y-1691622D1*
X72636Y-1689160D1*
X70559Y-1686525D1*
X68697Y-1683736D1*
X67058Y-1680810D1*
X65654Y-1677764D1*
X64492Y-1674618D1*
X63581Y-1671390D1*
X62928Y-1668100D1*
X62533Y-1664769D1*
X62402Y-1661417D1*
X62533Y-1658066D1*
X62928Y-1654735D1*
X63581Y-1651445D1*
X64492Y-1648217D1*
X65654Y-1645071D1*
X67058Y-1642025D1*
X69752Y-1637518D1*
X44461Y-1637497D1*
X41281Y-1638256D1*
X42588Y-1642281D1*
X43251Y-1646461D1*
Y-1650692D1*
X42588Y-1654871D1*
X41281Y-1658896D1*
X39360Y-1662667D1*
X36871Y-1666091D1*
X33879Y-1669083D1*
X30455Y-1671571D1*
X26685Y-1673492D1*
X22660Y-1674799D1*
X18480Y-1675462D1*
X14249D1*
X10070Y-1674799D1*
X6045Y-1673492D1*
X2274Y-1671571D1*
X-1150Y-1669083D1*
X-4142Y-1666091D1*
X-6630Y-1662667D1*
X-8551Y-1658896D1*
X-9858Y-1654871D1*
X-10521Y-1650692D1*
Y-1646461D1*
X-9858Y-1642281D1*
X-8551Y-1638256D1*
X-8207Y-1637512D1*
X-36656Y-1637517D1*
X-33987Y-1642025D1*
X-32583Y-1645071D1*
X-31421Y-1648217D1*
X-30510Y-1651445D1*
X-29857Y-1654735D1*
X-29462Y-1658066D1*
X-29331Y-1661417D1*
X-29462Y-1664769D1*
X-29857Y-1668100D1*
X-30510Y-1671390D1*
X-31421Y-1674618D1*
X-32583Y-1677764D1*
X-33987Y-1680810D1*
X-35626Y-1683736D1*
X-37488Y-1686525D1*
X-39566Y-1689160D1*
X-41843Y-1691622D1*
X-44304Y-1693899D1*
X-46940Y-1695976D1*
X-49728Y-1697839D1*
X-52655Y-1699478D1*
X-55701Y-1700882D1*
X-58846Y-1702043D1*
X-62075Y-1702954D1*
X-65365Y-1703608D1*
X-68696Y-1704003D1*
X-72047Y-1704134D1*
X-75802Y-1703954D1*
X-75862Y-1737722D1*
X-76234Y-1740071D1*
X-76969Y-1742333D1*
X-78049Y-1744453D1*
X-79446Y-1746377D1*
X-81129Y-1748059D1*
X-83052Y-1749457D1*
X-85172Y-1750537D1*
X-87434Y-1751272D1*
X-89783Y-1751643D1*
X-140185Y-1751690D1*
X-163028Y-1751644D1*
X-165377Y-1751272D1*
X-167639Y-1750537D1*
X-169759Y-1749457D1*
X-171682Y-1748059D1*
X-173365Y-1746377D1*
X-174762Y-1744453D1*
X-175843Y-1742333D1*
X-176577Y-1740071D1*
X-176950Y-1737722D1*
X-176996Y-1730362D1*
X-179220Y-1733769D1*
X-181298Y-1736404D1*
X-183575Y-1738866D1*
X-186037Y-1741143D1*
X-188672Y-1743220D1*
X-191461Y-1745083D1*
X-194387Y-1746722D1*
X-197433Y-1748126D1*
X-200579Y-1749287D1*
X-203807Y-1750198D1*
X-207097Y-1750852D1*
X-210428Y-1751247D1*
X-213780Y-1751378D1*
X-217131Y-1751247D1*
X-220462Y-1750852D1*
X-223752Y-1750198D1*
X-226980Y-1749287D1*
X-230126Y-1748126D1*
X-233172Y-1746722D1*
X-236098Y-1745083D1*
X-238887Y-1743220D1*
X-241522Y-1741143D1*
X-243984Y-1738866D1*
X-246261Y-1736404D1*
X-248339Y-1733769D1*
X-250201Y-1730980D1*
X-251840Y-1728054D1*
X-253244Y-1725008D1*
X-254406Y-1721862D1*
X-255316Y-1718634D1*
X-255970Y-1715344D1*
X-256365Y-1712013D1*
X-256496Y-1703740D1*
Y-1614173D1*
X-256365Y-1610822D1*
X-255970Y-1607491D1*
X-255316Y-1604201D1*
X-254406Y-1600972D1*
X-253244Y-1597827D1*
X-251840Y-1594781D1*
X-250201Y-1591854D1*
X-248339Y-1589066D1*
X-246261Y-1586430D1*
X-243984Y-1583969D1*
X-241522Y-1581692D1*
X-238887Y-1579614D1*
X-236098Y-1577752D1*
X-233172Y-1576113D1*
X-230126Y-1574709D1*
X-226980Y-1573547D1*
X-223752Y-1572636D1*
X-220462Y-1571983D1*
X-217131Y-1571588D1*
X-213780Y-1571457D1*
X-210428Y-1571588D1*
X-207097Y-1571983D1*
X-203807Y-1572636D1*
X-200579Y-1573547D1*
X-197433Y-1574709D1*
X-194387Y-1576113D1*
X-191461Y-1577752D1*
X-188672Y-1579614D1*
X-186037Y-1581692D1*
X-183575Y-1583969D1*
X-181298Y-1586430D1*
X-179220Y-1589066D1*
X-177358Y-1591854D1*
X-175719Y-1594781D1*
X-174315Y-1597827D1*
X-173154Y-1600972D1*
X-172243Y-1604201D1*
X-171589Y-1607491D1*
X-171194Y-1610822D1*
X-171063Y-1619094D1*
Y-1645757D1*
X-168720Y-1644287D1*
X-166522Y-1643377D1*
X-164210Y-1642822D1*
X-161833Y-1642635D1*
X-113406Y-1642681D1*
X-111051Y-1643055D1*
X-110108Y-1642025D1*
X-108469Y-1639098D1*
X-106606Y-1636310D1*
X-104529Y-1633675D1*
X-102252Y-1631213D1*
X-99790Y-1628936D1*
X-97155Y-1626858D1*
X-94366Y-1624996D1*
X-91440Y-1623357D1*
X-85801Y-1620996D1*
X-90235Y-1619567D1*
X-94281Y-1617505D1*
X-97954Y-1614836D1*
X-101165Y-1611625D1*
X-103835Y-1607951D1*
X-105896Y-1603906D1*
X-107299Y-1599587D1*
X-108009Y-1595102D1*
Y-1590562D1*
X-107299Y-1586077D1*
X-105896Y-1581759D1*
X-103835Y-1577713D1*
X-101165Y-1574039D1*
X-97954Y-1570828D1*
X-94281Y-1568159D1*
X-90235Y-1566097D1*
X-85916Y-1564694D1*
X-81432Y-1563984D1*
X-76891D1*
X-72407Y-1564694D1*
X-68088Y-1566097D1*
X-64042Y-1568159D1*
X-60369Y-1570828D1*
X-57899Y-1573238D1*
X-57902Y-1555510D1*
X-102824Y-1510596D1*
X-112067Y-1510601D1*
X-115891Y-1511824D1*
X-120071Y-1512487D1*
X-124302D1*
X-128482Y-1511824D1*
X-132507Y-1510517D1*
X-136277Y-1508596D1*
X-139701Y-1506108D1*
X-142693Y-1503115D1*
X-145181Y-1499692D1*
X-147102Y-1495921D1*
X-148409Y-1491896D1*
X-149072Y-1487717D1*
Y-1483486D1*
X-148409Y-1479306D1*
X-147102Y-1475281D1*
X-145181Y-1471510D1*
X-142693Y-1468087D1*
X-139701Y-1465094D1*
X-136277Y-1462606D1*
X-132507Y-1460685D1*
X-128482Y-1459378D1*
X-124302Y-1458715D1*
X-120071D1*
X-115891Y-1459378D1*
X-112091Y-1460602D1*
X-93285Y-1460678D1*
X-89411Y-1461291D1*
X-85680Y-1462504D1*
X-82184Y-1464285D1*
X-79010Y-1466591D1*
X-76236Y-1469365D1*
X-73930Y-1472538D1*
X-72094Y-1476185D1*
X-17357Y-1531020D1*
X-15232Y-1533944D1*
X-13592Y-1537164D1*
X-12475Y-1540601D1*
X-11909Y-1544171D1*
Y-1547785D1*
X-12475Y-1551354D1*
X-13320Y-1554056D1*
X20850Y-1554052D1*
X20839Y-1546707D1*
X1745Y-1527509D1*
X-197Y-1524835D1*
X-1697Y-1521890D1*
X-2719Y-1518747D1*
X-3236Y-1515482D1*
X-3301Y-1492626D1*
X-5232Y-1489861D1*
X-7154Y-1486091D1*
X-8461Y-1482066D1*
X-9123Y-1477886D1*
Y-1473655D1*
X-8461Y-1469475D1*
X-7154Y-1465450D1*
X-5232Y-1461680D1*
X-2744Y-1458256D1*
X248Y-1455264D1*
X3672Y-1452776D1*
X7442Y-1450854D1*
X11467Y-1449547D1*
X15647Y-1448885D1*
X19878D1*
X24058Y-1449547D1*
X28083Y-1450854D1*
X31283Y-1452457D1*
X30671Y-1448592D1*
Y-1444668D1*
X31283Y-1440794D1*
X32496Y-1437063D1*
X34277Y-1433567D1*
X36583Y-1430394D1*
X48356Y-1418513D1*
X99017Y-1367850D1*
X-106672Y-1162140D1*
X-237852Y-1162148D1*
X-241652Y-1163371D1*
X-245832Y-1164034D1*
X-250063D1*
X-254243Y-1163371D1*
X-258268Y-1162064D1*
X-262038Y-1160143D1*
X-265462Y-1157655D1*
X-268454Y-1154663D1*
X-270942Y-1151239D1*
X-272864Y-1147469D1*
X-274171Y-1143444D1*
X-274833Y-1139264D1*
Y-1135033D1*
X-274171Y-1130853D1*
X-272864Y-1126828D1*
X-270942Y-1123058D1*
X-268454Y-1119634D1*
X-265462Y-1116642D1*
X-262038Y-1114154D1*
X-258268Y-1112232D1*
X-256730Y-1111609D1*
X-276165D1*
X-427888Y-1263314D1*
X-427890Y-1280391D1*
X-400119Y-1308257D1*
X-397814Y-1311430D1*
X-396033Y-1314927D1*
X-394820Y-1318657D1*
X-394207Y-1322531D1*
X-394130Y-1339257D1*
X-394207Y-1387705D1*
X-394820Y-1391579D1*
X-396033Y-1395310D1*
X-397814Y-1398806D1*
X-400119Y-1401979D1*
X-411892Y-1413860D1*
X-434442Y-1436411D1*
X-433818Y-1441266D1*
X-433661Y-1445236D1*
X-433818Y-1449206D1*
X-434285Y-1453151D1*
X-435059Y-1457046D1*
X-436138Y-1460870D1*
X-437512Y-1464596D1*
X-439176Y-1468203D1*
X-441117Y-1471669D1*
X-443323Y-1474972D1*
X-445782Y-1478092D1*
X-448479Y-1481009D1*
X-451396Y-1483706D1*
X-454516Y-1486165D1*
X-457290Y-1488018D1*
X-457283Y-1613539D1*
X-424933Y-1645883D1*
X-424879Y-1464693D1*
X-424496Y-1462345D1*
X-423749Y-1460087D1*
X-422659Y-1457972D1*
X-421478Y-1455929D1*
X-421143D1*
X-419560Y-1454382D1*
X-417630Y-1452993D1*
X-415505Y-1451925D1*
X-413239Y-1451201D1*
X-410888Y-1450841D1*
X-360487Y-1451049D1*
X-288593Y-1451459D1*
X-286245Y-1451843D1*
X-283988Y-1452589D1*
X-281874Y-1453680D1*
X-279957Y-1455088D1*
X-279084Y-1455903D1*
X-276196Y-1457119D1*
X-276991Y-1456546D1*
X66892Y-421151D2*
X116650D1*
Y-430236D1*
X165084Y-430395D1*
X165075Y-421151D1*
X188432D1*
X171369Y-404071D1*
X71550Y-404060D1*
X68379Y-407213D1*
X68298Y-414425D1*
X67636Y-418605D1*
X67058Y-420651D1*
X256100Y-421151D2*
X270193D1*
Y-568655D1*
X288101Y-550760D1*
X288094Y-438171D1*
X279224Y-429206D1*
X277281Y-426533D1*
X275781Y-423587D1*
X274759Y-420444D1*
X274243Y-417180D1*
X274177Y-390920D1*
Y-351031D1*
X272245Y-348274D1*
X270324Y-344504D1*
X269017Y-340479D1*
X268822Y-339497D1*
X67486Y-339902D1*
X57029Y-350339D1*
X60361Y-350122D1*
X184643Y-350206D1*
X188823Y-350867D1*
X192848Y-352176D1*
X196618Y-354097D1*
X200042Y-356584D1*
X212037Y-368461D1*
X249753Y-406295D1*
X252241Y-409719D1*
X254163Y-413490D1*
X255470Y-417514D1*
X255885Y-419600D1*
X-443621Y-170272D2*
X-445782Y-173013D1*
X-448479Y-175930D1*
X-451396Y-178627D1*
X-454516Y-181087D1*
X-457819Y-183293D1*
X-461285Y-185234D1*
X-464892Y-186898D1*
X-468618Y-188272D1*
X-472442Y-189350D1*
X-475440Y-189946D1*
X-468618Y-191650D1*
X-464892Y-193024D1*
X-461285Y-194688D1*
X-457819Y-196629D1*
X-454516Y-198835D1*
X-451396Y-201294D1*
X-448479Y-203991D1*
X-445782Y-206908D1*
X-443621Y-209650D1*
X-443612Y-170273D1*
X-493064Y-189946D2*
X-496062Y-189350D1*
X-499886Y-188272D1*
X-503612Y-186898D1*
X-507219Y-185234D1*
X-510685Y-183293D1*
X-513988Y-181087D1*
X-518076Y-177731D1*
X-518089Y-202138D1*
X-513988Y-198835D1*
X-510685Y-196629D1*
X-507219Y-194688D1*
X-503612Y-193024D1*
X-499886Y-191650D1*
X-496062Y-190571D1*
X-493064Y-189975D1*
X-518054Y-102563D2*
X-513988Y-99228D1*
X-510685Y-97022D1*
X-507219Y-95081D1*
X-503612Y-93417D1*
X-499886Y-92043D1*
X-496062Y-90965D1*
X-492167Y-90125D1*
X-496062Y-89350D1*
X-499886Y-88272D1*
X-503612Y-86898D1*
X-507219Y-85234D1*
X-510685Y-83293D1*
X-513988Y-81087D1*
X-518031Y-77774D1*
X-518045Y-102521D1*
X-476570Y-90163D2*
X-472442Y-90965D1*
X-468618Y-92043D1*
X-464892Y-93417D1*
X-461285Y-95081D1*
X-457819Y-97022D1*
X-454516Y-99228D1*
X-451396Y-101688D1*
X-448479Y-104385D1*
X-445782Y-107302D1*
X-443621Y-110043D1*
X-443612Y-70270D1*
X-445782Y-73013D1*
X-448479Y-75930D1*
X-451396Y-78627D1*
X-454516Y-81087D1*
X-457819Y-83293D1*
X-461285Y-85234D1*
X-464892Y-86898D1*
X-468618Y-88272D1*
X-472442Y-89350D1*
X-476570Y-90152D1*
X-518008Y-2520D2*
X-513988Y772D1*
X-510685Y2978D1*
X-507219Y4919D1*
X-503612Y6583D1*
X-499886Y7957D1*
X-496062Y9035D1*
X-491934Y9837D1*
X-497160Y10927D1*
X-501850Y12411D1*
X-506373Y14345D1*
X-510688Y16709D1*
X-514752Y19480D1*
X-517988Y22146D1*
X-518000Y-2480D1*
X-476570Y9837D2*
X-472442Y9035D1*
X-468618Y7957D1*
X-464892Y6583D1*
X-461285Y4919D1*
X-457819Y2978D1*
X-454516Y772D1*
X-451396Y-1688D1*
X-448479Y-4385D1*
X-445782Y-7302D1*
X-443621Y-10043D1*
X-444366Y-7795D1*
X-446577Y-4188D1*
X-448197Y-277D1*
X-449185Y3837D1*
X-449517Y8056D1*
X-449185Y12276D1*
X-448197Y16390D1*
X-446577Y20301D1*
X-444366Y23908D1*
X-441618Y27126D1*
X-438400Y29874D1*
X-434793Y32085D1*
X-430882Y33705D1*
X-426768Y34693D1*
X-422549Y35025D1*
X-418329Y34693D1*
X-414215Y33705D1*
X-410304Y32085D1*
X-406697Y29874D1*
X-403479Y27126D1*
X-400731Y23908D1*
X-398520Y20301D1*
X-396900Y16390D1*
X-395912Y12276D1*
X-395580Y8056D1*
X-395912Y3837D1*
X-396900Y-277D1*
X-398520Y-4188D1*
X-400731Y-7795D1*
X-401483Y-8751D1*
X-401550Y-385865D1*
X-402067Y-389130D1*
X-403089Y-392273D1*
X-404589Y-395218D1*
X-406531Y-397892D1*
X-421575Y-413026D1*
X-435344Y-426795D1*
X-434285Y-431849D1*
X-433818Y-435794D1*
X-433661Y-439764D1*
X-433818Y-443734D1*
X-434285Y-447678D1*
X-435059Y-451573D1*
X-436138Y-455398D1*
X-437512Y-459123D1*
X-439176Y-462731D1*
X-441117Y-466197D1*
X-443323Y-469500D1*
X-445782Y-472619D1*
X-448479Y-475537D1*
X-451396Y-478234D1*
X-454516Y-480693D1*
X-457819Y-482899D1*
X-461285Y-484840D1*
X-464892Y-486504D1*
X-468618Y-487878D1*
X-472442Y-488957D1*
X-476337Y-489797D1*
X-472442Y-490571D1*
X-468618Y-491650D1*
X-464892Y-493024D1*
X-461285Y-494688D1*
X-457819Y-496629D1*
X-454516Y-498835D1*
X-451396Y-501294D1*
X-448479Y-503991D1*
X-445782Y-506908D1*
X-443323Y-510028D1*
X-441117Y-513331D1*
X-439176Y-516797D1*
X-437701Y-519995D1*
X-433959Y-520060D1*
X-430694Y-520577D1*
X-427551Y-521600D1*
X-424606Y-523100D1*
X-421932Y-525042D1*
X-406437Y-540446D1*
X-404290Y-542959D1*
X-402563Y-545777D1*
X-401298Y-548831D1*
X-400528Y-552045D1*
X-400268Y-555346D1*
Y-619297D1*
X-389241Y-630341D1*
X-379411Y-630345D1*
X-369567Y-620488D1*
X-369566Y-412311D1*
X-373891Y-407883D1*
X-375833Y-405209D1*
X-377333Y-402264D1*
X-378356Y-399121D1*
X-378873Y-395856D1*
X-378937Y-374518D1*
X-378873Y-144904D1*
X-378356Y-141639D1*
X-377333Y-138496D1*
X-375833Y-135551D1*
X-373891Y-132877D1*
X-359332Y-118227D1*
X-356819Y-116080D1*
X-354001Y-114353D1*
X-350948Y-113089D1*
X-347734Y-112318D1*
X-344432Y-112058D1*
X-323350D1*
X-324592Y-108948D1*
X-325580Y-104833D1*
X-325723Y-103626D1*
X-358818Y-70528D1*
X-363559Y-69823D1*
X-367584Y-68516D1*
X-371354Y-66594D1*
X-374778Y-64106D1*
X-377770Y-61114D1*
X-380259Y-57690D1*
X-382180Y-53920D1*
X-383487Y-49895D1*
X-384150Y-45715D1*
Y-41484D1*
X-383487Y-37304D1*
X-382180Y-33280D1*
X-380259Y-29509D1*
X-377770Y-26085D1*
X-374778Y-23093D1*
X-371354Y-20605D1*
X-367584Y-18684D1*
X-363559Y-17377D1*
X-359379Y-16714D1*
X-355148D1*
X-350969Y-17377D1*
X-346944Y-18684D1*
X-343173Y-20605D1*
X-339749Y-23093D1*
X-336757Y-26085D1*
X-334269Y-29509D1*
X-332348Y-33280D1*
X-331041Y-37304D1*
X-330625Y-39146D1*
X-295949Y-73822D1*
X-292648Y-74391D1*
X-288623Y-75698D1*
X-284853Y-77619D1*
X-283194Y-78678D1*
Y101121D1*
X-287343Y105255D1*
X-346696Y105261D1*
X-349451Y103329D1*
X-353222Y101408D1*
X-357247Y100101D1*
X-361427Y99438D1*
X-365657D1*
X-369837Y100101D1*
X-373862Y101408D1*
X-377633Y103329D1*
X-381056Y105818D1*
X-384049Y108810D1*
X-386537Y112234D1*
X-388458Y116004D1*
X-389765Y120029D1*
X-390428Y124209D1*
Y128440D1*
X-389765Y132619D1*
X-388458Y136644D1*
X-386537Y140415D1*
X-384049Y143839D1*
X-381056Y146831D1*
X-379478Y148076D1*
X-435059Y148033D1*
X-436138Y144209D1*
X-437512Y140483D1*
X-439176Y136875D1*
X-441117Y133409D1*
X-443323Y130106D1*
X-445782Y126987D1*
X-448479Y124070D1*
X-451396Y121373D1*
X-454516Y118913D1*
X-457819Y116707D1*
X-461285Y114766D1*
X-464892Y113102D1*
X-468618Y111728D1*
X-472442Y110650D1*
X-476570Y109848D1*
X-471799Y108877D1*
X-467096Y107436D1*
X-462555Y105545D1*
X-458219Y103220D1*
X-454129Y100487D1*
X-450324Y97369D1*
X-446839Y93896D1*
X-443709Y90102D1*
X-440962Y86021D1*
X-438623Y81693D1*
X-436717Y77159D1*
X-435260Y72459D1*
X-434266Y67642D1*
X-433745Y62751D1*
X-433699Y57874D1*
X-434130Y52974D1*
X-435034Y48139D1*
X-436403Y43413D1*
X-438226Y38844D1*
X-440482Y34474D1*
X-443154Y30343D1*
X-446213Y26490D1*
X-449631Y22953D1*
X-453378Y19765D1*
X-457416Y16955D1*
X-461709Y14552D1*
X-466214Y12577D1*
X-470890Y11049D1*
X-475692Y9982D1*
X-476546Y9844D1*
X-517957Y97568D2*
X-513925Y100816D1*
X-509806Y103505D1*
X-505445Y105781D1*
X-500882Y107622D1*
X-496164Y109010D1*
X-491951Y109841D1*
X-496062Y110650D1*
X-499886Y111728D1*
X-503612Y113102D1*
X-507219Y114766D1*
X-510685Y116707D1*
X-513988Y118913D1*
X-517940Y122142D1*
X-517957Y97559D1*
X-516803Y198552D2*
X-513988Y200772D1*
X-510685Y202978D1*
X-507219Y204919D1*
X-503612Y206583D1*
X-499886Y207957D1*
X-496062Y209035D1*
X-492167Y209810D1*
X-488222Y210277D1*
X-484252Y210433D1*
X-480282Y210277D1*
X-476337Y209810D1*
X-472442Y209035D1*
X-468618Y207957D1*
X-464892Y206583D1*
X-461285Y204919D1*
X-457819Y202978D1*
X-454516Y200772D1*
X-451396Y198312D1*
X-447121Y194146D1*
X-260340Y194067D1*
X-256770Y193501D1*
X-253333Y192385D1*
X-251685Y191625D1*
X-251361Y195886D1*
X-251285Y253500D1*
X-403304Y253119D1*
X-464762Y253730D1*
X-491920Y241982D1*
X-510520Y220827D1*
X-516786Y198598D1*
X535068Y-177310D2*
X530524Y-181087D1*
X527220Y-183293D1*
X523755Y-185234D1*
X520147Y-186898D1*
X516421Y-188272D1*
X512597Y-189350D1*
X508702Y-190190D1*
X512597Y-190965D1*
X516421Y-192043D1*
X520147Y-193417D1*
X523755Y-195081D1*
X527220Y-197022D1*
X530524Y-199228D1*
X535068Y-203005D1*
X535071Y-177360D1*
X493105Y-190152D2*
X488978Y-189350D1*
X485154Y-188272D1*
X481428Y-186898D1*
X477820Y-185234D1*
X474354Y-183293D1*
X471051Y-181087D1*
X467932Y-178627D1*
X465014Y-175930D1*
X462318Y-173013D1*
X459858Y-169894D1*
X457652Y-166591D1*
X455262Y-162152D1*
X376469Y-162084D1*
X372899Y-161518D1*
X369462Y-160402D1*
X366241Y-158761D1*
X363318Y-156636D1*
X348071Y-141490D1*
X331581Y-125001D1*
X331575Y-183982D1*
X368651Y-221056D1*
X453925Y-221063D1*
X455711Y-217190D1*
X457652Y-213724D1*
X459858Y-210421D1*
X462318Y-207302D1*
X465014Y-204385D1*
X467932Y-201688D1*
X471051Y-199228D1*
X474354Y-197022D1*
X477820Y-195081D1*
X481428Y-193417D1*
X485154Y-192043D1*
X488978Y-190965D1*
X493105Y-190163D1*
X456325Y-116093D2*
X457652Y-113724D1*
X459858Y-110421D1*
X462318Y-107302D1*
X465014Y-104385D1*
X467932Y-101688D1*
X471051Y-99228D1*
X474354Y-97022D1*
X477820Y-95081D1*
X481428Y-93417D1*
X485154Y-92043D1*
X488978Y-90965D1*
X493105Y-90163D1*
X487879Y-89073D1*
X483189Y-87589D1*
X478667Y-85655D1*
X474352Y-83291D1*
X470287Y-80520D1*
X466512Y-77367D1*
X463059Y-73862D1*
X459965Y-70039D1*
X457256Y-65933D1*
X454958Y-61583D1*
X453093Y-57030D1*
X451680Y-52319D1*
X450731Y-47492D1*
X450256Y-42596D1*
X450257Y-37676D1*
X450738Y-32781D1*
X451690Y-27954D1*
X453108Y-23243D1*
X454976Y-18693D1*
X457277Y-14345D1*
X459991Y-10241D1*
X463089Y-6420D1*
X466543Y-2919D1*
X470323Y232D1*
X474388Y3000D1*
X478705Y5360D1*
X483231Y7289D1*
X487921Y8770D1*
X493088Y9841D1*
X488978Y10650D1*
X485154Y11728D1*
X481428Y13102D1*
X477820Y14766D1*
X474354Y16707D1*
X471051Y18913D1*
X467932Y21373D1*
X465014Y24070D1*
X462318Y26987D1*
X459858Y30106D1*
X457652Y33409D1*
X455711Y36875D1*
X454047Y40483D1*
X452673Y44209D1*
X451594Y48033D1*
X450820Y51928D1*
X450353Y55873D1*
X450197Y59843D1*
X450353Y63812D1*
X450820Y67757D1*
X451594Y71652D1*
X452673Y75476D1*
X454047Y79202D1*
X455711Y82810D1*
X457652Y86276D1*
X459858Y89579D1*
X462318Y92698D1*
X465014Y95615D1*
X467932Y98312D1*
X471051Y100772D1*
X474354Y102978D1*
X477820Y104919D1*
X481428Y106583D1*
X485154Y107957D1*
X488978Y109035D1*
X492873Y109875D1*
X488978Y110650D1*
X485154Y111728D1*
X481428Y113102D1*
X477820Y114766D1*
X474354Y116707D1*
X471051Y118913D1*
X467932Y121373D1*
X465014Y124070D1*
X462318Y126987D1*
X459858Y130106D1*
X457652Y133409D1*
X455711Y136875D1*
X454047Y140483D1*
X452673Y144209D1*
X451594Y148033D1*
X450820Y151928D1*
X450353Y155873D1*
X450197Y159843D1*
X450353Y163812D1*
X450820Y167757D1*
X451594Y171652D1*
X452673Y175476D1*
X454047Y179202D1*
X455711Y182810D1*
X457652Y186276D1*
X459858Y189579D1*
X462318Y192698D1*
X465014Y195615D1*
X467932Y198312D1*
X471051Y200772D1*
X474354Y202978D1*
X477820Y204919D1*
X481428Y206583D1*
X485154Y207957D1*
X488978Y209035D1*
X492873Y209810D1*
X496818Y210277D1*
X500787Y210433D1*
X504757Y210277D1*
X508702Y209810D1*
X512597Y209035D1*
X516421Y207957D1*
X520147Y206583D1*
X523755Y204919D1*
X527220Y202978D1*
X530524Y200772D1*
X534840Y197206D1*
X524969Y226102D1*
X501316Y243558D1*
X470941Y252559D1*
X287921Y251652D1*
X288008Y198154D1*
X299824Y186226D1*
X301949Y183302D1*
X303589Y180081D1*
X304706Y176644D1*
X305272Y173075D1*
X305343Y151583D1*
Y-10261D1*
X359438Y-64448D1*
X361563Y-67371D1*
X363203Y-70592D1*
X364320Y-74029D1*
X364886Y-77598D1*
X364957Y-93227D1*
X387803Y-116080D1*
X456304Y-116092D1*
X508470Y-90163D2*
X512597Y-90965D1*
X516421Y-92043D1*
X520147Y-93417D1*
X523755Y-95081D1*
X527220Y-97022D1*
X530524Y-99228D1*
X535113Y-103047D1*
X535115Y-77319D1*
X531661Y-80235D1*
X527623Y-83045D1*
X523331Y-85448D1*
X518825Y-87423D1*
X514150Y-88951D1*
X509348Y-90018D1*
X508493Y-90156D1*
X508491Y9843D2*
X513240Y8877D1*
X517944Y7436D1*
X522484Y5545D1*
X526820Y3220D1*
X530911Y487D1*
X534715Y-2631D1*
X535148Y-3029D1*
X535159Y22720D1*
X530524Y18913D1*
X527220Y16707D1*
X523755Y14766D1*
X520147Y13102D1*
X516421Y11728D1*
X512597Y10650D1*
X508470Y9848D1*
Y109837D2*
X512597Y109035D1*
X516421Y107957D1*
X520147Y106583D1*
X523755Y104919D1*
X527220Y102978D1*
X530524Y100772D1*
X535181Y96890D1*
X535203Y122761D1*
X530524Y118913D1*
X527220Y116707D1*
X523755Y114766D1*
X520147Y113102D1*
X516421Y111728D1*
X512597Y110650D1*
X508470Y109848D1*
X-442402Y-568119D2*
X-445782Y-572619D1*
X-448479Y-575537D1*
X-451396Y-578234D1*
X-454516Y-580693D1*
X-457819Y-582899D1*
X-461285Y-584840D1*
X-464892Y-586504D1*
X-468618Y-587878D1*
X-472442Y-588957D1*
X-476201Y-589705D1*
X-470193Y-591256D1*
X-466467Y-592630D1*
X-462860Y-594294D1*
X-459394Y-596235D1*
X-456091Y-598441D1*
X-452971Y-600900D1*
X-450054Y-603597D1*
X-447357Y-606514D1*
X-444898Y-609634D1*
X-442395Y-613465D1*
X-442394Y-568157D1*
X-493794Y-589408D2*
X-499886Y-587878D1*
X-503612Y-586504D1*
X-507219Y-584840D1*
X-510685Y-582899D1*
X-513988Y-580693D1*
X-518259Y-577169D1*
X-518265Y-600529D1*
X-515563Y-598441D1*
X-512260Y-596235D1*
X-508794Y-594294D1*
X-505186Y-592630D1*
X-501461Y-591256D1*
X-497636Y-590177D1*
X-493878Y-589429D1*
X-518213Y-502316D2*
X-513988Y-498835D1*
X-510685Y-496629D1*
X-507219Y-494688D1*
X-503612Y-493024D1*
X-499886Y-491650D1*
X-496062Y-490571D1*
X-492167Y-489731D1*
X-496062Y-488957D1*
X-499886Y-487878D1*
X-503612Y-486504D1*
X-507219Y-484840D1*
X-510685Y-482899D1*
X-513988Y-480693D1*
X-518213Y-477211D1*
X-518222Y-502257D1*
X-518168Y-402274D2*
X-513988Y-398835D1*
X-510685Y-396629D1*
X-507219Y-394688D1*
X-503612Y-393024D1*
X-499886Y-391650D1*
X-496062Y-390571D1*
X-492167Y-389731D1*
X-496062Y-388957D1*
X-499886Y-387878D1*
X-503612Y-386504D1*
X-507219Y-384840D1*
X-510685Y-382899D1*
X-513988Y-380693D1*
X-518168Y-377253D1*
X-518177Y-402218D1*
X-476570Y-389769D2*
X-472442Y-390571D1*
X-468618Y-391650D1*
X-464892Y-393024D1*
X-462341Y-394199D1*
X-443609Y-375486D1*
X-443612Y-369891D1*
X-445782Y-372619D1*
X-448479Y-375537D1*
X-451396Y-378234D1*
X-454516Y-380693D1*
X-457819Y-382899D1*
X-461285Y-384840D1*
X-464892Y-386504D1*
X-468618Y-387878D1*
X-472442Y-388957D1*
X-476570Y-389759D1*
X-518122Y-302232D2*
X-513988Y-298835D1*
X-510685Y-296629D1*
X-507219Y-294688D1*
X-503612Y-293024D1*
X-499886Y-291650D1*
X-496062Y-290571D1*
X-492167Y-289731D1*
X-496062Y-288957D1*
X-499886Y-287878D1*
X-503612Y-286504D1*
X-507219Y-284840D1*
X-510685Y-282899D1*
X-513988Y-280693D1*
X-518122Y-277295D1*
X-518133Y-302177D1*
X-476570Y-289769D2*
X-472442Y-290571D1*
X-468618Y-291650D1*
X-464892Y-293024D1*
X-461285Y-294688D1*
X-457819Y-296629D1*
X-454516Y-298835D1*
X-451396Y-301294D1*
X-448479Y-303991D1*
X-445782Y-306908D1*
X-443621Y-309650D1*
X-443612Y-269890D1*
X-445782Y-272619D1*
X-448479Y-275537D1*
X-451396Y-278234D1*
X-454516Y-280693D1*
X-457819Y-282899D1*
X-461285Y-284840D1*
X-464892Y-286504D1*
X-468618Y-287878D1*
X-472442Y-288957D1*
X-476570Y-289759D1*
X534886Y-577479D2*
X530524Y-581087D1*
X527220Y-583293D1*
X523755Y-585234D1*
X520147Y-586898D1*
X516421Y-588272D1*
X512597Y-589350D1*
X509812Y-589904D1*
X514846Y-591256D1*
X518572Y-592630D1*
X522180Y-594294D1*
X525646Y-596235D1*
X528949Y-598441D1*
X532068Y-600900D1*
X534883Y-603503D1*
X534895Y-577520D1*
X490180Y-589589D2*
X485154Y-588272D1*
X481428Y-586898D1*
X477820Y-585234D1*
X474354Y-583293D1*
X471051Y-581087D1*
X467932Y-578627D1*
X465014Y-575930D1*
X462318Y-573013D1*
X459858Y-569894D1*
X457652Y-566591D1*
X455711Y-563125D1*
X453946Y-559241D1*
X450927Y-559193D1*
X447967Y-558724D1*
X445118Y-557799D1*
X442449Y-556438D1*
X440024Y-554677D1*
X418340Y-533076D1*
X416390Y-530793D1*
X417845Y-535374D1*
X418508Y-539554D1*
Y-543785D1*
X417845Y-547965D1*
X416538Y-551990D1*
X414617Y-555760D1*
X412129Y-559184D1*
X409136Y-562176D1*
X405940Y-564512D1*
X455430Y-614013D1*
X458283Y-609634D1*
X460743Y-606514D1*
X463440Y-603597D1*
X466357Y-600900D1*
X469476Y-598441D1*
X472780Y-596235D1*
X476245Y-594294D1*
X479853Y-592630D1*
X483579Y-591256D1*
X487403Y-590177D1*
X490188Y-589623D1*
X455976Y-516717D2*
X457652Y-513724D1*
X459858Y-510421D1*
X462318Y-507302D1*
X465014Y-504385D1*
X467932Y-501688D1*
X471051Y-499228D1*
X474354Y-497022D1*
X477820Y-495081D1*
X481428Y-493417D1*
X485154Y-492043D1*
X488978Y-490965D1*
X492873Y-490125D1*
X488978Y-489350D1*
X485154Y-488272D1*
X481428Y-486898D1*
X477820Y-485234D1*
X474354Y-483293D1*
X471051Y-481087D1*
X467932Y-478627D1*
X465014Y-475930D1*
X462318Y-473013D1*
X459858Y-469894D1*
X457652Y-466591D1*
X455711Y-463125D1*
X454047Y-459517D1*
X452673Y-455791D1*
X451594Y-451967D1*
X450938Y-448665D1*
X450936Y-511681D1*
X455959Y-516688D1*
X508470Y-490163D2*
X512597Y-490965D1*
X516421Y-492043D1*
X520147Y-493417D1*
X523755Y-495081D1*
X527220Y-497022D1*
X530524Y-499228D1*
X534930Y-502878D1*
X534940Y-477479D1*
X530524Y-481087D1*
X527220Y-483293D1*
X523755Y-485234D1*
X520147Y-486898D1*
X516421Y-488272D1*
X512597Y-489350D1*
X508470Y-490152D1*
X470698Y-399508D2*
X474354Y-397022D1*
X477820Y-395081D1*
X481428Y-393417D1*
X485154Y-392043D1*
X488978Y-390965D1*
X492873Y-390125D1*
X488978Y-389350D1*
X485154Y-388272D1*
X481428Y-386898D1*
X477820Y-385234D1*
X474354Y-383293D1*
X471051Y-381087D1*
X467932Y-378627D1*
X465014Y-375930D1*
X462318Y-373013D1*
X459858Y-369894D1*
X457652Y-366591D1*
X455711Y-363125D1*
X453946Y-359241D1*
X430448Y-359252D1*
X470688Y-399508D1*
X508470Y-390163D2*
X512597Y-390965D1*
X516421Y-392043D1*
X520147Y-393417D1*
X523755Y-395081D1*
X527220Y-397022D1*
X530524Y-399228D1*
X534976Y-402920D1*
X534983Y-377440D1*
X530524Y-381087D1*
X527220Y-383293D1*
X523755Y-385234D1*
X520147Y-386898D1*
X516421Y-388272D1*
X512597Y-389350D1*
X508470Y-390152D1*
X453946Y-321073D2*
X455711Y-317190D1*
X457652Y-313724D1*
X459858Y-310421D1*
X462318Y-307302D1*
X465014Y-304385D1*
X467932Y-301688D1*
X471051Y-299228D1*
X474354Y-297022D1*
X477820Y-295081D1*
X481428Y-293417D1*
X485154Y-292043D1*
X488978Y-290965D1*
X492873Y-290125D1*
X488978Y-289350D1*
X485154Y-288272D1*
X481428Y-286898D1*
X477820Y-285234D1*
X474354Y-283293D1*
X471051Y-281087D1*
X467932Y-278627D1*
X465014Y-275930D1*
X462318Y-273013D1*
X459858Y-269894D1*
X457652Y-266591D1*
X455711Y-263125D1*
X453946Y-259241D1*
X366356Y-259252D1*
X428140Y-321054D1*
X453940Y-321063D1*
X508470Y-290163D2*
X512597Y-290965D1*
X516421Y-292043D1*
X520147Y-293417D1*
X523755Y-295081D1*
X527220Y-297022D1*
X530524Y-299228D1*
X535022Y-302963D1*
X535028Y-277399D1*
X530524Y-281087D1*
X527220Y-283293D1*
X523755Y-285234D1*
X520147Y-286898D1*
X516421Y-288272D1*
X512597Y-289350D1*
X508470Y-290152D1*
X-435438Y-643724D2*
X-435860Y-647285D1*
X-436634Y-651180D1*
X-438437Y-656969D1*
X-433185Y-662224D1*
X-416927Y-662236D1*
X-435417Y-643740D1*
X-468228Y-686760D2*
X-474017Y-688563D1*
X-477441Y-689244D1*
X-472442Y-690177D1*
X-468618Y-691256D1*
X-464892Y-692630D1*
X-459944Y-695045D1*
X-468196Y-686789D1*
X-492585Y-689475D2*
X-497636Y-688563D1*
X-501461Y-687484D1*
X-505186Y-686110D1*
X-508794Y-684446D1*
X-512260Y-682505D1*
X-515563Y-680299D1*
X-518304Y-678138D1*
X-518310Y-701953D1*
X-513988Y-698441D1*
X-510685Y-696235D1*
X-507219Y-694294D1*
X-503612Y-692630D1*
X-499886Y-691256D1*
X-496062Y-690177D1*
X-492638Y-689496D1*
X-437844Y-759449D2*
X-439176Y-762337D1*
X-441117Y-765803D1*
X-443323Y-769106D1*
X-445782Y-772226D1*
X-448479Y-775143D1*
X-451396Y-777840D1*
X-454516Y-780299D1*
X-457819Y-782505D1*
X-461285Y-784446D1*
X-464892Y-786110D1*
X-468618Y-787484D1*
X-472442Y-788563D1*
X-477493Y-789475D1*
X-474017Y-790177D1*
X-470193Y-791256D1*
X-466467Y-792630D1*
X-462860Y-794294D1*
X-459394Y-796235D1*
X-456091Y-798441D1*
X-452971Y-800900D1*
X-450054Y-803597D1*
X-447357Y-806514D1*
X-444898Y-809634D1*
X-442692Y-812937D1*
X-440751Y-816403D1*
X-438427Y-821801D1*
X-376060Y-759451D1*
X-437799Y-759449D1*
X-492638Y-789244D2*
X-496062Y-788563D1*
X-499886Y-787484D1*
X-503612Y-786110D1*
X-507219Y-784446D1*
X-510685Y-782505D1*
X-513988Y-780299D1*
X-518350Y-776692D1*
X-518353Y-800609D1*
X-515563Y-798441D1*
X-512260Y-796235D1*
X-508794Y-794294D1*
X-505186Y-792630D1*
X-501461Y-791256D1*
X-497636Y-790177D1*
X-492585Y-789265D1*
X-448969Y-703144D2*
X-445782Y-706514D1*
X-443323Y-709634D1*
X-441117Y-712937D1*
X-438753Y-717319D1*
X-372866Y-717323D1*
X-359921Y-704366D1*
X-443550Y-704298D1*
X-446815Y-703781D1*
X-448412Y-703329D1*
X-461139Y-883484D2*
X-466467Y-886110D1*
X-470193Y-887484D1*
X-474017Y-888563D1*
X-477441Y-889244D1*
X-472442Y-890177D1*
X-468843Y-891193D1*
X-461259Y-883597D1*
X-492585Y-889475D2*
X-497636Y-888563D1*
X-501461Y-887484D1*
X-505186Y-886110D1*
X-508794Y-884446D1*
X-512260Y-882505D1*
X-515563Y-880299D1*
X-518378Y-878080D1*
X-518398Y-902033D1*
X-513988Y-898441D1*
X-510685Y-896235D1*
X-507219Y-894294D1*
X-503612Y-892630D1*
X-499886Y-891256D1*
X-496062Y-890177D1*
X-492638Y-889496D1*
X-433818Y-943340D2*
X-434285Y-947285D1*
X-435059Y-951180D1*
X-436138Y-955004D1*
X-437512Y-958730D1*
X-439176Y-962337D1*
X-441117Y-965803D1*
X-443323Y-969106D1*
X-445782Y-972226D1*
X-448479Y-975143D1*
X-451396Y-977840D1*
X-454516Y-980299D1*
X-457819Y-982505D1*
X-461285Y-984446D1*
X-464892Y-986110D1*
X-468618Y-987484D1*
X-472549Y-988584D1*
X-466467Y-990661D1*
X-462860Y-992325D1*
X-459394Y-994266D1*
X-456091Y-996472D1*
X-452971Y-998932D1*
X-450054Y-1001629D1*
X-447357Y-1004546D1*
X-444898Y-1007665D1*
X-441895Y-1012390D1*
X-421396Y-1012479D1*
X-417522Y-1013092D1*
X-413791Y-1014304D1*
X-410295Y-1016085D1*
X-407122Y-1018391D1*
X-395241Y-1030164D1*
X-355888Y-1069516D1*
X-286051Y-999655D1*
X-285709Y-996343D1*
X-284576Y-991627D1*
X-282720Y-987147D1*
X-280186Y-983012D1*
X-277037Y-979324D1*
X-273349Y-976175D1*
X-269214Y-973640D1*
X-264734Y-971785D1*
X-260018Y-970652D1*
X-256727Y-970332D1*
X-218955Y-932559D1*
X-218950Y-867917D1*
X-232609Y-867913D1*
X-236416Y-869136D1*
X-240596Y-869799D1*
X-244827D1*
X-249007Y-869136D1*
X-253031Y-867829D1*
X-256802Y-865908D1*
X-260226Y-863420D1*
X-263218Y-860428D1*
X-265706Y-857004D1*
X-267627Y-853234D1*
X-268934Y-849209D1*
X-269597Y-845029D1*
Y-840798D1*
X-268934Y-836618D1*
X-267627Y-832593D1*
X-265706Y-828823D1*
X-263218Y-825399D1*
X-260226Y-822407D1*
X-256802Y-819919D1*
X-253031Y-817997D1*
X-249007Y-816690D1*
X-244827Y-816028D1*
X-240596D1*
X-236416Y-816690D1*
X-232615Y-817915D1*
X-204322Y-817913D1*
X-181630Y-795349D1*
X-180883Y-791142D1*
Y-662786D1*
X-437672Y-919585D1*
X-436138Y-923736D1*
X-435059Y-927560D1*
X-434285Y-931455D1*
X-433818Y-935400D1*
X-433661Y-939370D1*
X-433818Y-943340D1*
X-497451Y-988171D2*
X-503612Y-986110D1*
X-507219Y-984446D1*
X-510685Y-982505D1*
X-513988Y-980299D1*
X-518441Y-976608D1*
Y-998728D1*
X-515563Y-996472D1*
X-512260Y-994266D1*
X-508794Y-992325D1*
X-505186Y-990661D1*
X-501461Y-989287D1*
X-497530Y-988188D1*
X-441895Y-1062413D2*
X-444898Y-1067138D1*
X-447357Y-1070257D1*
X-450054Y-1073175D1*
X-452971Y-1075871D1*
X-456091Y-1078331D1*
X-459394Y-1080537D1*
X-462860Y-1082478D1*
X-466467Y-1084142D1*
X-470193Y-1085516D1*
X-474017Y-1086594D1*
X-477441Y-1087276D1*
X-472756Y-1088135D1*
X-468025Y-1089484D1*
X-463448Y-1091286D1*
X-459067Y-1093525D1*
X-454925Y-1096178D1*
X-451060Y-1099222D1*
X-447509Y-1102626D1*
X-444304Y-1106360D1*
X-441479Y-1110386D1*
X-439058Y-1114668D1*
X-437063Y-1119164D1*
X-435514Y-1123833D1*
X-434428Y-1128631D1*
X-433811Y-1133512D1*
X-433671Y-1138386D1*
X-434005Y-1143294D1*
X-434896Y-1148503D1*
X-391244Y-1104849D1*
X-433701Y-1062415D1*
X-441832Y-1062402D1*
X-492585Y-1087507D2*
X-497636Y-1086594D1*
X-501461Y-1085516D1*
X-505186Y-1084142D1*
X-508794Y-1082478D1*
X-512260Y-1080537D1*
X-515563Y-1078331D1*
X-518475Y-1076034D1*
X-518486Y-1100152D1*
X-514717Y-1097012D1*
X-510651Y-1094244D1*
X-506335Y-1091885D1*
X-501808Y-1089955D1*
X-497118Y-1088474D1*
X-492696Y-1087522D1*
X-473155Y-1186757D2*
X-477638Y-1187558D1*
X-482541Y-1187963D1*
X-487459Y-1187890D1*
X-492348Y-1187340D1*
X-497160Y-1186318D1*
X-501850Y-1184833D1*
X-506373Y-1182899D1*
X-510688Y-1180535D1*
X-514752Y-1177764D1*
X-518520Y-1174619D1*
X-518576Y-1306692D1*
X-513873Y-1303178D1*
X-513801Y-1235875D1*
X-513188Y-1232001D1*
X-511975Y-1228270D1*
X-510194Y-1224774D1*
X-507888Y-1221601D1*
X-496117Y-1209720D1*
X-473157Y-1186761D1*
X-444131Y-1373824D2*
X-447357Y-1378092D1*
X-450054Y-1381009D1*
X-452971Y-1383706D1*
X-456091Y-1386165D1*
X-459394Y-1388371D1*
X-462860Y-1390312D1*
X-466467Y-1391976D1*
X-470193Y-1393350D1*
X-474017Y-1394429D1*
X-477441Y-1395110D1*
X-472442Y-1396043D1*
X-466594Y-1397869D1*
X-444118Y-1375375D1*
X-492585Y-1395341D2*
X-497636Y-1394429D1*
X-501461Y-1393350D1*
X-505186Y-1391976D1*
X-508794Y-1390312D1*
X-512260Y-1388371D1*
X-515563Y-1386165D1*
X-518622Y-1383753D1*
X-518621Y-1408115D1*
X-513988Y-1404307D1*
X-510685Y-1402101D1*
X-507219Y-1400160D1*
X-503612Y-1398496D1*
X-499886Y-1397122D1*
X-496062Y-1396043D1*
X-492638Y-1395362D1*
X-511214Y-1488018D2*
X-513988Y-1486165D1*
X-518646Y-1482283D1*
X-518701Y-1588493D1*
X-511138Y-1626819D1*
X-511220Y-1609940D1*
Y-1488042D1*
X534860Y-675259D2*
X532068Y-677840D1*
X528949Y-680299D1*
X525646Y-682505D1*
X522180Y-684446D1*
X518572Y-686110D1*
X514846Y-687484D1*
X511022Y-688563D1*
X507598Y-689244D1*
X512597Y-690177D1*
X516421Y-691256D1*
X520147Y-692630D1*
X523755Y-694294D1*
X527220Y-696235D1*
X530524Y-698441D1*
X534840Y-702007D1*
X534852Y-675291D1*
X492454Y-689475D2*
X487403Y-688563D1*
X483579Y-687484D1*
X479853Y-686110D1*
X476245Y-684446D1*
X472780Y-682505D1*
X469476Y-680299D1*
X464955Y-676543D1*
X465014Y-703597D1*
X467932Y-700900D1*
X471051Y-698441D1*
X474354Y-696235D1*
X477820Y-694294D1*
X481428Y-692630D1*
X485154Y-691256D1*
X488978Y-690177D1*
X492402Y-689496D1*
X-333802Y-191157D2*
X-336811Y-189711D1*
X-336711Y-199751D1*
X-335723Y-195636D1*
X-334104Y-191726D1*
X-333793Y-191171D1*
X-294127Y-225724D2*
X-292644Y-226134D1*
X-212967Y-399438D2*
X-215684Y-401367D1*
X-219454Y-403289D1*
X-223479Y-404596D1*
X-224818Y-404862D1*
X-220623Y-405297D1*
X-214707Y-406717D1*
X-209085Y-409046D1*
X-205449Y-411188D1*
Y-401272D1*
X-207259Y-399449D1*
X-212946Y-399436D1*
X-232227Y-405218D2*
X-236070Y-404596D1*
X-240094Y-403289D1*
X-243865Y-401367D1*
X-247289Y-398879D1*
X-250281Y-395887D1*
X-250522Y-395583D1*
X-250525Y-413018D1*
X-246953Y-410533D1*
X-241530Y-407770D1*
X-235743Y-405890D1*
X-232202Y-405231D1*
X-250522Y-361163D2*
X-248844Y-359303D1*
X-245626Y-356555D1*
X-242018Y-354344D1*
X-238108Y-352724D1*
X-233993Y-351736D1*
X-229774Y-351404D1*
X-225555Y-351736D1*
X-221441Y-352724D1*
X-217530Y-354344D1*
X-213923Y-356555D1*
X-212967Y-357307D1*
X-202112Y-357310D1*
X-218954Y-340484D1*
X-247920Y-340475D1*
X-249385Y-339997D1*
X-250346Y-339353D1*
X-250525Y-340642D1*
Y-361154D1*
X-85475Y-429852D2*
X-81228Y-428815D1*
X-77010Y-428483D1*
X-72791Y-428815D1*
X-71469Y-429077D1*
X-71408Y-415594D1*
X-70891Y-412329D1*
X-69870Y-409186D1*
X-68369Y-406241D1*
X-66427Y-403567D1*
X-50365Y-387413D1*
X-50357Y-340133D1*
X-70425Y-340180D1*
X-70471Y-363627D1*
X-70988Y-366892D1*
X-72010Y-370035D1*
X-73510Y-372980D1*
X-75453Y-375655D1*
X-85479Y-385773D1*
X-85472Y-429849D1*
X-20744Y-417375D2*
X-18236Y-417639D1*
X-15865Y-418135D1*
X-15867Y-412482D1*
X-20748Y-417373D1*
X321201Y-341411D2*
X320156Y-344504D1*
X318235Y-348274D1*
X316306Y-350990D1*
X316303Y-406791D1*
X325173Y-415764D1*
X327115Y-418438D1*
X328617Y-421383D1*
X329638Y-424526D1*
X330155Y-427791D1*
X330220Y-449129D1*
Y-485327D1*
X340644Y-475007D1*
X343194Y-473155D1*
X346001Y-471724D1*
X348997Y-470751D1*
X352110Y-470257D1*
X375609Y-470196D1*
X378749Y-470442D1*
X381814Y-471178D1*
X384724Y-472383D1*
X387411Y-474030D1*
X389811Y-476081D1*
X408845Y-495202D1*
X410697Y-497752D1*
X412127Y-500559D1*
X412675Y-502045D1*
X412747Y-480203D1*
Y-432933D1*
X321217Y-341419D1*
X68365Y-698646D2*
X67702Y-702825D1*
X66395Y-706850D1*
X64474Y-710621D1*
X61986Y-714045D1*
X58993Y-717037D1*
X55570Y-719525D1*
X51799Y-721446D1*
X47774Y-722753D1*
X43594Y-723416D1*
X39364D1*
X35184Y-722753D1*
X31159Y-721446D1*
X27388Y-719525D1*
X24672Y-717596D1*
X-21210Y-717593D1*
X-53310Y-749604D1*
X-55984Y-751546D1*
X-58929Y-753046D1*
X-62072Y-754068D1*
X-65337Y-754585D1*
X-86675Y-754650D1*
X-96114Y-754585D1*
X-99379Y-754068D1*
X-102522Y-753046D1*
X-105467Y-751546D1*
X-108142Y-749604D1*
X-125199Y-732636D1*
X-127346Y-730123D1*
X-129073Y-727306D1*
X-130339Y-724252D1*
X-131109Y-721038D1*
X-131369Y-717736D1*
X-131304Y-681037D1*
X-130787Y-677772D1*
X-129765Y-674629D1*
X-128265Y-671684D1*
X-126323Y-669009D1*
X-111280Y-653875D1*
X-71466Y-614062D1*
X-71474Y-519504D1*
X-77635Y-525558D1*
X-80310Y-527500D1*
X-83255Y-529000D1*
X-86398Y-530022D1*
X-89663Y-530539D1*
X-115921Y-530604D1*
X-120402Y-530539D1*
X-123667Y-530022D1*
X-126810Y-529000D1*
X-129755Y-527500D1*
X-132429Y-525558D1*
X-134825Y-523252D1*
X-134820Y-789379D1*
X35238Y-789364D1*
X101298Y-723297D1*
X97190Y-722638D1*
X93165Y-721331D1*
X89395Y-719409D1*
X85971Y-716921D1*
X82979Y-713929D1*
X80491Y-710505D1*
X78570Y-706735D1*
X77262Y-702710D1*
X76706Y-699427D1*
X67753Y-690470D1*
X68365Y-694415D1*
Y-698646D1*
X24672Y-675465D2*
X27388Y-673535D1*
X31159Y-671614D1*
X35184Y-670307D1*
X39364Y-669644D1*
X43594D1*
X47539Y-670260D1*
X-1392Y-621441D1*
X-1457Y-645766D1*
X-1974Y-649031D1*
X-2996Y-652175D1*
X-4496Y-655119D1*
X-6438Y-657794D1*
X-24022Y-675470D1*
X24643Y-675467D1*
X106497Y-669635D2*
X109781Y-670192D1*
X113806Y-671499D1*
X115924Y-672495D1*
X116003Y-654497D1*
X116615Y-650622D1*
X117828Y-646891D1*
X119609Y-643396D1*
X121915Y-640222D1*
X133688Y-628341D1*
X174018Y-588010D1*
X28172Y-588450D1*
X26987Y-588302D1*
X26259Y-588920D1*
Y-589402D1*
X106474Y-669615D1*
X-225546Y-1009861D2*
X-226631Y-1013004D1*
X-228832Y-1017325D1*
X-231682Y-1021249D1*
X-235112Y-1024678D1*
X-239035Y-1027529D1*
X-243357Y-1029730D1*
X-246500Y-1030815D1*
X-277282Y-1061597D1*
X-148917Y-1061609D1*
X-150416Y-1059436D1*
X-152337Y-1055665D1*
X-153644Y-1051640D1*
X-154307Y-1047461D1*
Y-1043230D1*
X-153644Y-1039050D1*
X-152337Y-1035025D1*
X-150416Y-1031255D1*
X-147928Y-1027831D1*
X-144936Y-1024839D1*
X-141512Y-1022350D1*
X-137741Y-1020429D1*
X-133717Y-1019122D1*
X-129537Y-1018459D1*
X-125306D1*
X-121126Y-1019122D1*
X-117101Y-1020429D1*
X-113331Y-1022350D1*
X-110614Y-1024280D1*
X-106294Y-1024282D1*
X53563Y-864411D1*
X53573Y-838054D1*
X49497Y-839056D1*
X45579Y-839364D1*
X-155051D1*
X-168941Y-853261D1*
X-169026Y-944870D1*
X-169640Y-948745D1*
X-170853Y-952476D1*
X-172634Y-955971D1*
X-174940Y-959146D1*
X-186711Y-971026D1*
X-225520Y-1009835D1*
X401693Y-1262496D2*
X400934Y-1267286D1*
X399436Y-1271898D1*
X397235Y-1276219D1*
X394385Y-1280143D1*
X390955Y-1283572D1*
X387031Y-1286423D1*
X382710Y-1288623D1*
X378098Y-1290122D1*
X373308Y-1290881D1*
X368458D1*
X363668Y-1290122D1*
X359056Y-1288623D1*
X354735Y-1286423D1*
X350811Y-1283572D1*
X347382Y-1280143D1*
X344531Y-1276219D1*
X342331Y-1271898D1*
X340832Y-1267286D1*
X340073Y-1262496D1*
Y-1257646D1*
X340832Y-1252856D1*
X342331Y-1248244D1*
X344531Y-1243923D1*
X345886Y-1241898D1*
X345961Y-1042749D1*
X346573Y-1038875D1*
X347786Y-1035144D1*
X349567Y-1031648D1*
X351873Y-1028475D1*
X363644Y-1016594D1*
X381076Y-999159D1*
X382209Y-994444D1*
X384064Y-989963D1*
X386598Y-985828D1*
X389748Y-982140D1*
X393436Y-978991D1*
X397571Y-976457D1*
X402051Y-974601D1*
X406766Y-973469D1*
X411601Y-973088D1*
X416436Y-973469D1*
X421151Y-974601D1*
X425631Y-976457D1*
X429766Y-978991D1*
X433454Y-982140D1*
X436604Y-985828D1*
X439138Y-989963D1*
X439316Y-990350D1*
X439319Y-966928D1*
X411063Y-938572D1*
X409211Y-936022D1*
X407781Y-933215D1*
X406807Y-930219D1*
X406314Y-927106D1*
X406252Y-900925D1*
Y-709016D1*
X313136Y-838198D1*
X311461Y-839887D1*
X309542Y-841293D1*
X307428Y-842382D1*
X305169Y-843126D1*
X302822Y-843508D1*
X300442Y-843517D1*
X298092Y-843155D1*
X295827Y-842429D1*
X293703Y-841358D1*
X252778Y-811938D1*
X245525Y-806715D1*
X-53486Y-1105619D1*
X-56659Y-1107925D1*
X-60155Y-1109706D1*
X-63886Y-1110919D1*
X-67760Y-1111531D1*
X-84486Y-1111609D1*
X-239294D1*
X-228262Y-1112148D1*
X-94346Y-1112226D1*
X-90472Y-1112839D1*
X-86741Y-1114051D1*
X-83245Y-1115832D1*
X-80072Y-1118138D1*
X-68192Y-1129911D1*
X160719Y-1358822D1*
X226747Y-1358886D1*
X230621Y-1359499D1*
X234352Y-1360711D1*
X237848Y-1362492D1*
X241021Y-1364798D1*
X252902Y-1376571D1*
X271130Y-1394799D1*
X274692Y-1396630D1*
X278115Y-1399118D1*
X281108Y-1402110D1*
X283596Y-1405534D1*
X285517Y-1409304D1*
X286824Y-1413329D1*
X287487Y-1417509D1*
X287505Y-1421253D1*
X439306Y-1269451D1*
X439319Y-1017678D1*
X436604Y-1022159D1*
X433454Y-1025846D1*
X429766Y-1028996D1*
X425631Y-1031530D1*
X421151Y-1033386D1*
X416427Y-1034520D1*
X395881Y-1055070D1*
X395886Y-1241906D1*
X398420Y-1246041D1*
X400276Y-1250521D1*
X401408Y-1255236D1*
X401789Y-1260071D1*
X401693Y-1262496D1*
X262230Y-1446529D2*
X258486Y-1446510D1*
X254306Y-1445848D1*
X250281Y-1444541D1*
X246510Y-1442619D1*
X243087Y-1440131D1*
X240094Y-1437139D1*
X237606Y-1433715D1*
X235786Y-1430163D1*
X214419Y-1408798D1*
X148390Y-1408731D1*
X144516Y-1408118D1*
X140785Y-1406906D1*
X137289Y-1405125D1*
X135651Y-1404029D1*
X131182Y-1406396D1*
X120403Y-1417176D1*
X123303Y-1417260D1*
X127483Y-1417923D1*
X131508Y-1419230D1*
X135278Y-1421151D1*
X138702Y-1423639D1*
X141694Y-1426631D1*
X144182Y-1430055D1*
X146104Y-1433825D1*
X147411Y-1437850D1*
X148073Y-1442030D1*
X148098Y-1442667D1*
X172944Y-1467505D1*
X241236Y-1467509D1*
X262214Y-1446543D1*
X94621Y-1448714D2*
X94302Y-1446261D1*
X94251Y-1443327D1*
X87969Y-1449609D1*
X90647Y-1449038D1*
X94610Y-1448717D1*
X121690Y-1473041D2*
X121770Y-1474046D1*
X143571Y-1495854D1*
X143472Y-1494825D1*
X121710Y-1473063D1*
X-66913Y-1619043D2*
X-62075Y-1619881D1*
X-57900Y-1621140D1*
X-57902Y-1612469D1*
X-60369Y-1614836D1*
X-64042Y-1617505D1*
X-66887Y-1619013D1*
X90529Y-1621304D2*
X95146Y-1619881D1*
X99619Y-1619087D1*
X96664Y-1617505D1*
X92991Y-1614836D1*
X90521Y-1612427D1*
X90524Y-1621278D1*
X204407Y-777098D2*
X183156Y-761735D1*
X182276Y-760928D1*
X180583Y-761056D1*
X95694Y-845945D1*
X95635Y-874777D1*
X95118Y-878042D1*
X94096Y-881185D1*
X92596Y-884130D1*
X90654Y-886804D1*
X75612Y-901938D1*
X-83909Y-1061366D1*
X-80072Y-1061605D1*
X204433Y-777098D1*
X190238Y-728005D2*
X241245Y-657188D1*
X190226Y-708210D1*
X190232Y-728026D1*
X307049Y-600184D2*
X406241Y-671627D1*
X406252Y-665454D1*
X321045Y-580143D1*
X320064Y-578899D1*
X317091Y-581345D1*
X301881Y-596555D1*
X307049Y-600184D1*
X194441Y-1751690D2*
X122406Y-1751643D1*
X120056Y-1751272D1*
X117794Y-1750537D1*
X115675Y-1749457D1*
X113751Y-1748059D1*
X112068Y-1746377D1*
X110671Y-1744453D1*
X109591Y-1742333D1*
X108856Y-1740071D1*
X108484Y-1737722D1*
X108437Y-1736528D1*
X-205449Y-558686D2*
X-209085Y-560828D1*
X-214707Y-563157D1*
X-220623Y-564577D1*
X-226690Y-565055D1*
X-232757Y-564577D1*
X-238673Y-563157D1*
X-244295Y-560828D1*
X-249484Y-557648D1*
X-250521Y-556832D1*
X-250525Y-672846D1*
X-205462Y-627801D1*
X-205449Y-558714D1*
X-250521Y-495719D2*
X-246953Y-493210D1*
X-241530Y-490448D1*
X-235743Y-488567D1*
X-229732Y-487615D1*
X-223648D1*
X-217638Y-488567D1*
X-211850Y-490448D1*
X-206428Y-493210D1*
X-205449Y-493795D1*
Y-476052D1*
X-209085Y-478151D1*
X-214707Y-480480D1*
X-220623Y-481900D1*
X-226690Y-482378D1*
X-232757Y-481900D1*
X-238673Y-480480D1*
X-244295Y-478151D1*
X-249484Y-474971D1*
X-250521Y-474155D1*
X-250525Y-495681D1*
X244423Y-587787D2*
X232255Y-587827D1*
X232164Y-592105D1*
X231550Y-595979D1*
X230337Y-599710D1*
X228556Y-603206D1*
X226251Y-606379D1*
X214479Y-618260D1*
X165937Y-666802D1*
X165925Y-672933D1*
X251209Y-587652D1*
X244423Y-587787D1*
X-424933Y-1726969D2*
Y-1702631D1*
X-435399Y-1702558D1*
X-439579Y-1701895D1*
X-443604Y-1700588D1*
X-447374Y-1698667D1*
X-450798Y-1696178D1*
X-462793Y-1684302D1*
X-504759Y-1642218D1*
X-507247Y-1638794D1*
X-509168Y-1635024D1*
X-505853Y-1644210D1*
X-490698Y-1680707D1*
X-461828Y-1710337D1*
X-422340Y-1735462D1*
X-423778Y-1732789D1*
X-424514Y-1730526D1*
X-424886Y-1728177D1*
X-424933Y-1726983D1*
X414202Y-526886D2*
X413680Y-525469D1*
X-114324Y-341268D2*
X-112819Y-344224D1*
X-112533Y-342290D1*
Y-340272D1*
X-114986Y-340270D1*
X-271701Y148075D2*
X-347596D1*
X-343857Y147387D1*
X-276972Y147323D1*
X-273707Y146806D1*
X-270564Y145783D1*
X-269056Y145088D1*
X-269033Y145421D1*
X-271684Y148071D1*
X-258379Y-161664D2*
Y-139172D1*
X-268445Y-149138D1*
X-269749Y-150164D1*
X-261828Y-158213D1*
X-258388Y-161652D1*
X-8244Y-356037D2*
X7769Y-340024D1*
X-8218Y-340054D1*
X-8231Y-356018D1*
X46429Y-1512719D2*
Y-1509029D1*
X43559Y-1507517D1*
X40635Y-1505392D1*
X38823Y-1503642D1*
X39615Y-1505895D1*
X46427Y-1512706D1*
X-509444Y-1635564D2*
X-505853Y-1644210D1*
X64091Y-421171D2*
Y-503238D1*
X-484252Y59843D2*
X-433681D1*
X450217Y-40157D2*
X500787D1*
X-484252Y-1137402D2*
Y-1187972D1*
Y-1137402D2*
X-433681D1*
X-170356Y-1262349D2*
Y-1475879D1*
X-247268Y-1369114D2*
X-93444D1*
D25*
X-349234Y-1507504D3*
Y-1688606D3*
D26*
X64091Y-503238D3*
X217634D3*
D27*
X-484252Y-140157D3*
Y-40157D3*
Y59843D3*
Y159843D3*
X500787Y-140157D3*
Y-40157D3*
Y59843D3*
Y159843D3*
X-484252Y-539764D3*
Y-439764D3*
Y-339764D3*
Y-239764D3*
X500787Y-540157D3*
Y-440157D3*
Y-340157D3*
Y-240157D3*
X-485827Y-639370D3*
D28*
X-484252Y-739370D3*
D27*
X-485827Y-839370D3*
D28*
X-484252Y-939370D3*
D27*
X-485827Y-1037402D3*
D28*
X-484252Y-1137402D3*
D27*
X-485827Y-1345236D3*
D28*
X-484252Y-1445236D3*
D29*
X98425Y102362D3*
X-98425D3*
X98425Y11811D3*
X-98425D3*
X98425Y-78740D3*
X-98425D3*
X98425Y-169291D3*
X-98425D3*
D27*
X499213Y-639370D3*
D28*
X500787Y-739370D3*
D35*
X197638Y-174409D3*
Y-124016D3*
Y-74409D3*
Y-24016D3*
Y25984D3*
Y75984D3*
Y125984D3*
D36*
X-133465Y-279528D3*
X-83465D3*
X-33465D3*
X16535D3*
X66535D3*
X116142D3*
X166535D3*
D35*
X197638Y175984D3*
D42*
X246850Y-1661417D3*
X-213780D3*
D98*
X-170356Y-1369114D3*
D101*
X297883Y-719004D3*
D44*
X16311Y-1595785D3*
X-9280D3*
X41902D3*
X67492D3*
X-34870D3*
D104*
X159028Y-1697163D3*
D107*
X-126406D3*
D45*
X-226690Y-526276D3*
Y-443598D3*
G04 Bottom Clear*
%LPC*%
D16*
X307903Y-1131230D3*
X-420681Y113808D3*
X-420310Y215560D3*
X307903Y-1131230D3*
X-363542Y126324D3*
X98925Y101970D3*
X-98031Y101891D3*
X97883Y12411D3*
X-98055Y12081D3*
X-422549Y8056D3*
X-295945Y-2185D3*
X130756Y-1092671D3*
X-357264Y-43600D3*
X-297829Y241739D3*
X98843Y-78161D3*
X-97978Y-78601D3*
X-298944Y-100614D3*
X-323738Y-166147D3*
X98894Y-168870D3*
X-97858Y-169295D3*
X-310075Y-203970D3*
X-300318Y-251969D3*
X-229774Y-378373D3*
X41412Y-412310D3*
X-77010Y-455451D3*
X90127Y-419081D3*
X229247Y-423810D3*
X-22455Y-444276D3*
X-106470Y-477094D3*
X295240Y-334184D3*
X391622Y-541669D3*
X365837Y-519068D3*
D18*
X263332Y-386940D3*
D16*
X-378811Y-609085D3*
X92122Y-625416D3*
X41479Y-696530D3*
X103486Y-696415D3*
X-78827Y-700486D3*
X-242711Y-842913D3*
D18*
X-255184Y-1001177D3*
D16*
X-127421Y-1045345D3*
X-247948Y-1137148D3*
D18*
X370883Y-1260071D3*
D16*
X-411522Y-1269148D3*
X260601Y-1419625D3*
X121188Y-1444146D3*
X94866Y-1475675D3*
X17762Y-1475770D3*
X-122186Y-1485601D3*
X16365Y-1648576D3*
D18*
X411601Y-1003993D3*
D16*
X-337552Y241701D3*
X-374743Y241236D3*
X-410917Y241827D3*
X-447299Y241277D3*
X-387862Y216367D3*
X-419457Y86319D3*
X-356348Y-6391D3*
X-389375Y-363428D3*
X-389869Y-397696D3*
X-241577Y-653434D3*
X-422256Y-780580D3*
X-418774Y-491370D3*
X-372635Y-912843D3*
X-159986Y-922034D3*
X-19941Y-744612D3*
X-19686Y-774849D3*
X-112424Y-878450D3*
X-231766Y-930311D3*
X-18428Y-863051D3*
X-383605Y-1331692D3*
X-441568Y-1542265D3*
X-382429Y-1393289D3*
X-45344Y-1348064D3*
X-44832Y-1377881D3*
X-205609Y-1255349D3*
X-121638Y-1631667D3*
X490773Y-1660370D3*
X506735Y-1627562D3*
X382594Y-1736627D3*
X452644Y-1520269D3*
X451759Y-1468840D3*
X450871Y-1415636D3*
Y-1360660D3*
X191140Y-1429488D3*
X205867Y-1105224D3*
X208794Y-1155944D3*
X168803D3*
X368829Y-802106D3*
X478921Y-829346D3*
X476970Y-876165D3*
X258421Y-1261699D3*
X428064Y3055D3*
X387760D3*
X430483Y-76749D3*
X381646Y242906D3*
X414050Y242261D3*
X446240Y241777D3*
X476764Y240541D3*
X504440Y229848D3*
X399761Y201835D3*
D49*
X-484252Y-140157D3*
Y-40157D3*
Y59843D3*
Y159843D3*
X500787Y-140157D3*
Y-40157D3*
Y59843D3*
Y159843D3*
X-484252Y-539764D3*
Y-439764D3*
Y-339764D3*
Y-239764D3*
X500787Y-540157D3*
Y-440157D3*
Y-340157D3*
Y-240157D3*
X-485827Y-639370D3*
X-484252Y-739370D3*
X-485827Y-839370D3*
X-484252Y-939370D3*
X-485827Y-1037402D3*
X-484252Y-1137402D3*
X-485827Y-1345236D3*
X-484252Y-1445236D3*
X499213Y-639370D3*
X500787Y-739370D3*
D15*
X197638Y-174409D3*
Y-124016D3*
Y-74409D3*
Y-24016D3*
Y25984D3*
Y75984D3*
Y125984D3*
X-133465Y-279528D3*
X-83465D3*
X-33465D3*
X16535D3*
X66535D3*
X116142D3*
X166535D3*
X197638Y175984D3*
X246850Y-1690945D2*
D49*
Y-1631890D1*
X-213780Y-1690945D2*
Y-1631890D1*
X159028Y-1705037D2*
D48*
Y-1689289D1*
X-126406Y-1705037D2*
Y-1689289D1*
D17*
X-226690Y-526276D3*
Y-443598D3*
M02*
