G04 DipTrace 3.2.0.1*
G04 BottomSilk.gbr*
%MOMM*%
G04 #@! TF.FileFunction,Legend,Bot*
G04 #@! TF.Part,Single*
%ADD10C,0.25*%
%ADD12C,0.0762*%
%ADD13C,0.05*%
%ADD87C,0.11765*%
%FSLAX35Y35*%
G04*
G71*
G90*
G75*
G01*
G04 BotSilk*
%LPD*%
X-752058Y-3970566D2*
D10*
X-1022048D1*
X-752058Y-3951797D2*
X-1022048D1*
X-752058D2*
Y-4166323D1*
X-1022048Y-3951797D2*
Y-4166323D1*
X-1059772Y-2783341D2*
X-1057055Y-2705564D1*
X-1048919Y-2628165D1*
X-1035403Y-2551523D1*
X-1016572Y-2476010D1*
X-992519Y-2401994D1*
X-963361Y-2329836D1*
X-929239Y-2259887D1*
X-890321Y-2192489D1*
X-846794Y-2127969D1*
X-798873Y-2066642D1*
X-746790Y-2008807D1*
X-690798Y-1954746D1*
X-631172Y-1904721D1*
X-568200Y-1858976D1*
X-502190Y-1817736D1*
X-433464Y-1781199D1*
X-362356Y-1749545D1*
X-289213Y-1722927D1*
X-214391Y-1701476D1*
X-138255Y-1685295D1*
X-61175Y-1674464D1*
X16473Y-1669035D1*
X94310D1*
X171958Y-1674464D1*
X249037Y-1685295D1*
X325174Y-1701476D1*
X399996Y-1722927D1*
X473139Y-1749545D1*
X544247Y-1781199D1*
X612973Y-1817736D1*
X678983Y-1858976D1*
X741954Y-1904721D1*
X801581Y-1954746D1*
X857573Y-2008807D1*
X909656Y-2066642D1*
X957577Y-2127969D1*
X1001103Y-2192489D1*
X1040022Y-2259887D1*
X1074143Y-2329836D1*
X1103302Y-2401994D1*
X1127355Y-2476010D1*
X1146185Y-2551523D1*
X1159702Y-2628165D1*
X1167838Y-2705564D1*
X1170554Y-2783341D1*
X1167838Y-2861119D1*
X1159702Y-2938517D1*
X1146185Y-3015160D1*
X1127355Y-3090673D1*
X1103302Y-3164689D1*
X1074143Y-3236847D1*
X1040022Y-3306795D1*
X1001103Y-3374194D1*
X957577Y-3438713D1*
X909656Y-3500040D1*
X857573Y-3557875D1*
X801581Y-3611937D1*
X741954Y-3661962D1*
X678983Y-3707706D1*
X612973Y-3748947D1*
X544247Y-3785484D1*
X473139Y-3817138D1*
X399996Y-3843755D1*
X325174Y-3865207D1*
X249037Y-3881388D1*
X171958Y-3892219D1*
X94310Y-3897647D1*
X16473D1*
X-61175Y-3892219D1*
X-138255Y-3881388D1*
X-214391Y-3865207D1*
X-289213Y-3843755D1*
X-362356Y-3817138D1*
X-433464Y-3785484D1*
X-502190Y-3748947D1*
X-568200Y-3707706D1*
X-631172Y-3661962D1*
X-690798Y-3611937D1*
X-746790Y-3557875D1*
X-798873Y-3500040D1*
X-846794Y-3438713D1*
X-890321Y-3374194D1*
X-929239Y-3306795D1*
X-963361Y-3236847D1*
X-992519Y-3164689D1*
X-1016572Y-3090673D1*
X-1035403Y-3015160D1*
X-1048919Y-2938517D1*
X-1057055Y-2861119D1*
X-1059772Y-2783341D1*
X165558Y-3888177D2*
X1160230Y-2673148D1*
X-1049213Y-2893535D2*
X-54776Y-1678505D1*
X1286705Y-2305111D2*
X938488Y-2020202D1*
X628753Y-1766708D2*
X280536Y-1481800D1*
X1286705Y-2305111D2*
X1128318Y-2498674D1*
X280536Y-1481800D2*
X122383Y-1675122D1*
X-358580Y-4035772D2*
X441440D1*
Y-4515793D1*
X-358580D1*
Y-4035772D1*
X-1109553Y-3981560D2*
D13*
X-1084553D1*
X-1115216Y-3984060D2*
X-1078504D1*
X-1119896Y-3986560D2*
X-1073214D1*
X-1123587Y-3989060D2*
X-1068954D1*
X-1126566Y-3991560D2*
X-1114439D1*
X-1077545D2*
X-1065778D1*
X-1128979Y-3994060D2*
X-1118933D1*
X-1073592D2*
X-1063491D1*
X-1130877Y-3996560D2*
X-1122589D1*
X-1070353D2*
X-1061759D1*
X-1132355Y-3999060D2*
X-1125236D1*
X-1067853D2*
X-1060313D1*
X-1133416Y-4001560D2*
X-1127087D1*
X-1066105D2*
X-1059073D1*
X-1134033Y-4004060D2*
X-1128312D1*
X-1064882D2*
X-1058119D1*
X-1134336Y-4006560D2*
X-1128994D1*
X-1063937D2*
X-1057557D1*
X-1134469Y-4009060D2*
X-1129313D1*
X-1063205D2*
X-1057359D1*
X-1134512Y-4011560D2*
X-1129367D1*
X-1063472D2*
X-1057551D1*
X-1134445Y-4014060D2*
X-1129085D1*
X-1063994D2*
X-1058108D1*
X-1134124Y-4016560D2*
X-1128312D1*
X-1064750D2*
X-1058827D1*
X-1133430Y-4019060D2*
X-1127148D1*
X-1065786D2*
X-1059673D1*
X-1132373Y-4021560D2*
X-1124458D1*
X-1068316D2*
X-1060917D1*
X-1130913Y-4024060D2*
X-1120863D1*
X-1071956D2*
X-1062688D1*
X-1128930Y-4026560D2*
X-1116594D1*
X-1076331D2*
X-1064919D1*
X-1126346Y-4029060D2*
X-1112053D1*
X-1080143D2*
X-1067646D1*
X-1123129Y-4031560D2*
X-1113381D1*
X-1082686D2*
X-1070934D1*
X-1119553Y-4034060D2*
X-1114553D1*
X-1084553D2*
X-1074553D1*
X-1114553Y-4051560D2*
X-1109553D1*
X-1116762Y-4054060D2*
X-1110804D1*
X-1118973Y-4056560D2*
X-1112266D1*
X-1121512Y-4059060D2*
X-1113803D1*
X-1124524Y-4061560D2*
X-1115494D1*
X-1127732Y-4064060D2*
X-1117453D1*
X-1130619Y-4066560D2*
X-1057053D1*
X-1132804Y-4069060D2*
X-1057053D1*
X-1134553Y-4071560D2*
X-1057053D1*
X-1102053Y-4094060D2*
X-1089553D1*
X-1112718Y-4096560D2*
X-1079574D1*
X-1120881Y-4099060D2*
X-1072005D1*
X-1126584Y-4101560D2*
X-1066829D1*
X-1130868Y-4104060D2*
X-1119052D1*
X-1075631D2*
X-1063362D1*
X-1132950Y-4106560D2*
X-1122917D1*
X-1070537D2*
X-1061011D1*
X-1133784Y-4109060D2*
X-1125838D1*
X-1067069D2*
X-1059354D1*
X-1134229Y-4111560D2*
X-1128057D1*
X-1064539D2*
X-1058236D1*
X-1134418Y-4114060D2*
X-1128725D1*
X-1063501D2*
X-1057684D1*
X-1134410Y-4116560D2*
X-1128997D1*
X-1063799D2*
X-1057701D1*
X-1134101Y-4119060D2*
X-1128098D1*
X-1065605D2*
X-1058262D1*
X-1133328Y-4121560D2*
X-1125373D1*
X-1068454D2*
X-1059274D1*
X-1131936Y-4124060D2*
X-1121220D1*
X-1072750D2*
X-1060812D1*
X-1129697Y-4126560D2*
X-1115695D1*
X-1078357D2*
X-1063204D1*
X-1126391Y-4129060D2*
X-1066791D1*
X-1122025Y-4131560D2*
X-1071606D1*
X-1117053Y-4134060D2*
X-1077053D1*
X-128280Y448643D2*
X-123280D1*
X-75780D2*
X-60780D1*
X1720D2*
X14220D1*
X-128280Y446143D2*
X-121730D1*
X-78270D2*
X-57221D1*
X-1538D2*
X16625D1*
X-128280Y443643D2*
X-120304D1*
X-80673D2*
X-54333D1*
X-4048D2*
X18795D1*
X-128280Y441143D2*
X-118965D1*
X-82766D2*
X-72393D1*
X-60790D2*
X-52167D1*
X-5936D2*
X1815D1*
X13824D2*
X20598D1*
X-128280Y438643D2*
X-117670D1*
X-84339D2*
X-75637D1*
X-58387D2*
X-50563D1*
X-7463D2*
X-355D1*
X15606D2*
X22050D1*
X-128280Y436143D2*
X-116325D1*
X-85502D2*
X-77911D1*
X-56303D2*
X-49449D1*
X-8738D2*
X-2158D1*
X17053D2*
X23187D1*
X-128280Y433643D2*
X-114831D1*
X-86508D2*
X-79615D1*
X-54809D2*
X-48810D1*
X-9706D2*
X-3600D1*
X18188D2*
X24118D1*
X-128280Y431143D2*
X-113218D1*
X-87316D2*
X-80214D1*
X-53908D2*
X-48484D1*
X-10283D2*
X-4649D1*
X19118D2*
X25018D1*
X-128280Y428643D2*
X-123280D1*
X-118676D2*
X-111687D1*
X-87734D2*
X-80529D1*
X-53280D2*
X-48280D1*
X-10581D2*
X-5261D1*
X20018D2*
X25792D1*
X-128280Y426143D2*
X-123280D1*
X-116884D2*
X-110281D1*
X-87673D2*
X-80588D1*
X-10796D2*
X-5563D1*
X20792D2*
X26281D1*
X-128280Y423643D2*
X-123280D1*
X-115359D2*
X-108955D1*
X-87180D2*
X-80319D1*
X-11166D2*
X-5696D1*
X21281D2*
X26533D1*
X-128280Y421143D2*
X-123280D1*
X-113984D2*
X-107675D1*
X-86499D2*
X-79655D1*
X-11784D2*
X-5749D1*
X21533D2*
X26646D1*
X-128280Y418643D2*
X-123280D1*
X-112686D2*
X-106411D1*
X-85752D2*
X-78694D1*
X-12432D2*
X-5769D1*
X21646D2*
X26693D1*
X-128280Y416143D2*
X-123280D1*
X-111415D2*
X-105158D1*
X-84830D2*
X-77564D1*
X-12871D2*
X-5776D1*
X21693D2*
X26710D1*
X-128280Y413643D2*
X-123280D1*
X-110150D2*
X-103905D1*
X-83679D2*
X-76276D1*
X-13103D2*
X-5779D1*
X21710D2*
X26717D1*
X-128280Y411143D2*
X-123280D1*
X-108817D2*
X-102647D1*
X-82273D2*
X-74719D1*
X-13210D2*
X-5780D1*
X21717D2*
X26719D1*
X-128280Y408643D2*
X-123280D1*
X-107328D2*
X-101316D1*
X-80687D2*
X-72788D1*
X-13244D2*
X-5780D1*
X21719D2*
X26720D1*
X-128280Y406143D2*
X-123280D1*
X-105710D2*
X-99837D1*
X-79082D2*
X-70573D1*
X-13173D2*
X-5780D1*
X21720D2*
X26720D1*
X-128280Y403643D2*
X-123280D1*
X-104113D2*
X-98315D1*
X-77353D2*
X-68199D1*
X-12861D2*
X-5780D1*
X21720D2*
X26720D1*
X-128280Y401143D2*
X-123280D1*
X-102487D2*
X-97113D1*
X-75341D2*
X-65750D1*
X-12264D2*
X-5780D1*
X21710D2*
X26720D1*
X-128280Y398643D2*
X-123280D1*
X-100780D2*
X-96394D1*
X-73093D2*
X-63269D1*
X-11624D2*
X-5780D1*
X21622D2*
X26720D1*
X-138280Y396143D2*
X-96037D1*
X-70706D2*
X-60786D1*
X-11188D2*
X-5770D1*
X21304D2*
X26710D1*
X-138280Y393643D2*
X-95880D1*
X-68253D2*
X-58376D1*
X-10946D2*
X-5682D1*
X20695D2*
X26622D1*
X-138280Y391143D2*
X-95815D1*
X-65780D2*
X-56196D1*
X-10752D2*
X-5354D1*
X19966D2*
X26294D1*
X-128280Y388643D2*
X-123280D1*
X-63374D2*
X-54305D1*
X-10380D2*
X-4658D1*
X19202D2*
X25607D1*
X-128280Y386143D2*
X-123280D1*
X-61195D2*
X-52543D1*
X-9677D2*
X-3561D1*
X18235D2*
X24638D1*
X-128280Y383643D2*
X-123280D1*
X-59295D2*
X-50886D1*
X-8701D2*
X-2151D1*
X17047D2*
X23506D1*
X-128280Y381143D2*
X-123280D1*
X-57443D2*
X-49545D1*
X-7557D2*
X1596D1*
X14436D2*
X22207D1*
X-128280Y378643D2*
X-123280D1*
X-55417D2*
X-48486D1*
X-33280D2*
X-28280D1*
X-6172D2*
X7277D1*
X8573D2*
X20555D1*
X-128280Y376143D2*
X-123280D1*
X-88280D2*
X-47502D1*
X-33280D2*
X-28280D1*
X-4236D2*
X18238D1*
X-128280Y373643D2*
X-123280D1*
X-88280D2*
X-46593D1*
X-33280D2*
X-28280D1*
X-1492D2*
X15184D1*
X-128280Y371143D2*
X-123280D1*
X-88280D2*
X-45780D1*
X-33280D2*
X-28280D1*
X1720D2*
X11720D1*
X-580403Y323593D2*
X-575403D1*
X-525403D2*
X-512903D1*
X-452903D2*
X-447903D1*
X-580403Y321093D2*
X-573853D1*
X-528661D2*
X-510499D1*
X-452903D2*
X-446944D1*
X-580403Y318593D2*
X-572427D1*
X-531172D2*
X-508329D1*
X-452903D2*
X-445782D1*
X-580403Y316093D2*
X-571088D1*
X-533059D2*
X-525308D1*
X-513299D2*
X-506526D1*
X-452903D2*
X-444292D1*
X-580403Y313593D2*
X-569793D1*
X-534586D2*
X-527478D1*
X-511517D2*
X-505073D1*
X-452903D2*
X-442391D1*
X-580403Y311093D2*
X-568448D1*
X-535862D2*
X-529281D1*
X-510071D2*
X-503936D1*
X-452903D2*
X-440189D1*
X-580403Y308593D2*
X-566954D1*
X-536829D2*
X-530724D1*
X-508936D2*
X-503006D1*
X-452903D2*
X-437829D1*
X-580403Y306093D2*
X-565342D1*
X-537406D2*
X-531773D1*
X-508005D2*
X-502105D1*
X-452903D2*
X-435477D1*
X-580403Y303593D2*
X-575403D1*
X-570799D2*
X-563810D1*
X-537704D2*
X-532385D1*
X-507105D2*
X-501332D1*
X-452903D2*
X-445403D1*
X-440403D2*
X-433384D1*
X-580403Y301093D2*
X-575403D1*
X-569007D2*
X-562405D1*
X-537919D2*
X-532687D1*
X-506332D2*
X-500842D1*
X-452903D2*
X-445403D1*
X-437903D2*
X-431746D1*
X-580403Y298593D2*
X-575403D1*
X-567483D2*
X-561078D1*
X-538289D2*
X-532819D1*
X-505842D2*
X-500590D1*
X-452903D2*
X-445403D1*
X-435403D2*
X-430403D1*
X-580403Y296093D2*
X-575403D1*
X-566107D2*
X-559799D1*
X-538908D2*
X-532872D1*
X-505590D2*
X-500477D1*
X-452903D2*
X-445403D1*
X-580403Y293593D2*
X-575403D1*
X-564809D2*
X-558534D1*
X-539556D2*
X-532892D1*
X-505477D2*
X-500431D1*
X-452903D2*
X-445403D1*
X-580403Y291093D2*
X-575403D1*
X-563538D2*
X-557282D1*
X-539994D2*
X-532900D1*
X-505431D2*
X-500413D1*
X-452903D2*
X-445403D1*
X-580403Y288593D2*
X-575403D1*
X-562273D2*
X-556028D1*
X-540227D2*
X-532902D1*
X-505413D2*
X-500407D1*
X-452903D2*
X-445403D1*
X-580403Y286093D2*
X-575403D1*
X-560941D2*
X-554770D1*
X-540333D2*
X-532903D1*
X-505407D2*
X-500404D1*
X-452903D2*
X-445403D1*
X-580403Y283593D2*
X-575403D1*
X-559451D2*
X-553440D1*
X-540367D2*
X-532903D1*
X-505404D2*
X-500404D1*
X-452903D2*
X-445403D1*
X-580403Y281093D2*
X-575403D1*
X-557833D2*
X-551961D1*
X-540296D2*
X-532903D1*
X-505404D2*
X-500403D1*
X-452903D2*
X-445403D1*
X-580403Y278593D2*
X-575403D1*
X-556236D2*
X-550438D1*
X-539984D2*
X-532903D1*
X-505403D2*
X-500403D1*
X-452903D2*
X-445403D1*
X-580403Y276093D2*
X-575403D1*
X-554610D2*
X-549236D1*
X-539387D2*
X-532903D1*
X-505413D2*
X-500403D1*
X-452903D2*
X-445403D1*
X-580403Y273593D2*
X-575403D1*
X-552903D2*
X-548517D1*
X-538747D2*
X-532903D1*
X-505501D2*
X-500403D1*
X-452903D2*
X-445403D1*
X-590403Y271093D2*
X-548160D1*
X-538311D2*
X-532894D1*
X-505820D2*
X-500413D1*
X-452903D2*
X-445403D1*
X-590403Y268593D2*
X-548003D1*
X-538070D2*
X-532806D1*
X-506428D2*
X-500501D1*
X-452903D2*
X-445403D1*
X-590403Y266093D2*
X-547938D1*
X-537876D2*
X-532477D1*
X-507157D2*
X-500829D1*
X-452903D2*
X-445403D1*
X-580403Y263593D2*
X-575403D1*
X-537504D2*
X-531781D1*
X-507921D2*
X-501516D1*
X-452903D2*
X-445403D1*
X-580403Y261093D2*
X-575403D1*
X-536800D2*
X-530685D1*
X-508889D2*
X-502485D1*
X-452903D2*
X-445403D1*
X-580403Y258593D2*
X-575403D1*
X-535825D2*
X-529274D1*
X-510077D2*
X-503618D1*
X-452903D2*
X-445403D1*
X-580403Y256093D2*
X-575403D1*
X-534680D2*
X-525527D1*
X-512687D2*
X-504917D1*
X-452903D2*
X-445403D1*
X-580403Y253593D2*
X-575403D1*
X-533296D2*
X-519846D1*
X-518551D2*
X-506569D1*
X-485403D2*
X-480403D1*
X-452903D2*
X-445403D1*
X-580403Y251093D2*
X-575403D1*
X-531359D2*
X-508885D1*
X-485403D2*
X-480403D1*
X-452903D2*
X-445403D1*
X-580403Y248593D2*
X-575403D1*
X-528615D2*
X-511940D1*
X-485403D2*
X-480403D1*
X-452903D2*
X-445403D1*
X-580403Y246093D2*
X-575403D1*
X-525403D2*
X-515403D1*
X-485403D2*
X-480403D1*
X-452903D2*
X-445403D1*
X-121957Y187103D2*
X-106957D1*
X-69457D2*
X-56957D1*
X3043D2*
X8043D1*
X-124447Y184603D2*
X-103398D1*
X-72715D2*
X-54552D1*
X3043D2*
X9003D1*
X-126849Y182103D2*
X-100510D1*
X-75225D2*
X-52382D1*
X3043D2*
X10165D1*
X-128943Y179603D2*
X-118569D1*
X-106966D2*
X-98344D1*
X-77113D2*
X-69361D1*
X-57353D2*
X-50579D1*
X3043D2*
X11655D1*
X-130516Y177103D2*
X-121814D1*
X-104564D2*
X-96740D1*
X-78639D2*
X-71531D1*
X-55570D2*
X-49127D1*
X3043D2*
X13556D1*
X-131678Y174603D2*
X-124088D1*
X-102480D2*
X-95625D1*
X-79915D2*
X-73334D1*
X-54124D2*
X-47990D1*
X3043D2*
X15758D1*
X-132685Y172103D2*
X-125792D1*
X-100986D2*
X-94987D1*
X-80883D2*
X-74777D1*
X-52989D2*
X-47059D1*
X3043D2*
X18117D1*
X-133492Y169603D2*
X-126391D1*
X-100085D2*
X-94660D1*
X-81460D2*
X-75826D1*
X-52059D2*
X-46158D1*
X3043D2*
X20469D1*
X-133911Y167103D2*
X-126706D1*
X-99457D2*
X-94457D1*
X-81758D2*
X-76438D1*
X-51158D2*
X-45385D1*
X3043D2*
X10543D1*
X15543D2*
X22563D1*
X-133850Y164603D2*
X-126764D1*
X-81973D2*
X-76740D1*
X-50385D2*
X-44896D1*
X3043D2*
X10543D1*
X18043D2*
X24201D1*
X-133357Y162103D2*
X-126496D1*
X-82343D2*
X-76872D1*
X-49896D2*
X-44644D1*
X3043D2*
X10543D1*
X20543D2*
X25543D1*
X-132675Y159603D2*
X-125832D1*
X-82961D2*
X-76926D1*
X-49644D2*
X-44531D1*
X3043D2*
X10543D1*
X-131929Y157103D2*
X-124870D1*
X-83609D2*
X-76946D1*
X-49531D2*
X-44484D1*
X3043D2*
X10543D1*
X-131007Y154603D2*
X-123741D1*
X-84047D2*
X-76953D1*
X-49484D2*
X-44466D1*
X3043D2*
X10543D1*
X-129856Y152103D2*
X-122453D1*
X-84280D2*
X-76955D1*
X-49466D2*
X-44460D1*
X3043D2*
X10543D1*
X-128449Y149603D2*
X-120896D1*
X-84386D2*
X-76956D1*
X-49460D2*
X-44458D1*
X3043D2*
X10543D1*
X-126864Y147103D2*
X-118964D1*
X-84421D2*
X-76957D1*
X-49458D2*
X-44457D1*
X3043D2*
X10543D1*
X-125258Y144603D2*
X-116749D1*
X-84350D2*
X-76957D1*
X-49457D2*
X-44457D1*
X3043D2*
X10543D1*
X-123529Y142103D2*
X-114376D1*
X-84037D2*
X-76957D1*
X-49457D2*
X-44457D1*
X3043D2*
X10543D1*
X-121518Y139603D2*
X-111927D1*
X-83441D2*
X-76957D1*
X-49466D2*
X-44457D1*
X3043D2*
X10543D1*
X-119270Y137103D2*
X-109446D1*
X-82800D2*
X-76957D1*
X-49554D2*
X-44457D1*
X3043D2*
X10543D1*
X-116883Y134603D2*
X-106963D1*
X-82365D2*
X-76947D1*
X-49873D2*
X-44466D1*
X3043D2*
X10543D1*
X-114429Y132103D2*
X-104553D1*
X-82123D2*
X-76859D1*
X-50481D2*
X-44554D1*
X3043D2*
X10543D1*
X-111957Y129603D2*
X-102373D1*
X-81929D2*
X-76531D1*
X-51210D2*
X-44883D1*
X3043D2*
X10543D1*
X-109551Y127103D2*
X-100481D1*
X-81557D2*
X-75834D1*
X-51975D2*
X-45569D1*
X3043D2*
X10543D1*
X-107372Y124603D2*
X-98720D1*
X-80853D2*
X-74738D1*
X-52942D2*
X-46539D1*
X3043D2*
X10543D1*
X-105472Y122103D2*
X-97063D1*
X-79878D2*
X-73328D1*
X-54130D2*
X-47671D1*
X3043D2*
X10543D1*
X-103619Y119603D2*
X-95722D1*
X-78734D2*
X-69580D1*
X-56741D2*
X-48970D1*
X3043D2*
X10543D1*
X-101593Y117103D2*
X-94663D1*
X-77349D2*
X-63900D1*
X-62604D2*
X-50622D1*
X-29457D2*
X-24457D1*
X3043D2*
X10543D1*
X-134457Y114603D2*
X-93679D1*
X-75412D2*
X-52938D1*
X-29457D2*
X-24457D1*
X3043D2*
X10543D1*
X-134457Y112103D2*
X-92769D1*
X-72669D2*
X-55993D1*
X-29457D2*
X-24457D1*
X3043D2*
X10543D1*
X-134457Y109603D2*
X-91957D1*
X-69457D2*
X-59457D1*
X-29457D2*
X-24457D1*
X3043D2*
X10543D1*
X-597967Y68390D2*
X-582967D1*
X-547967D2*
X-532967D1*
X-470467D2*
X-457967D1*
X-600457Y65890D2*
X-579408D1*
X-550457D2*
X-529408D1*
X-473725D2*
X-455562D1*
X-602859Y63390D2*
X-576520D1*
X-552859D2*
X-526520D1*
X-476235D2*
X-453392D1*
X-604953Y60890D2*
X-594579D1*
X-582976D2*
X-574354D1*
X-554953D2*
X-544579D1*
X-532976D2*
X-524354D1*
X-478123D2*
X-470371D1*
X-458363D2*
X-451589D1*
X-606526Y58390D2*
X-597824D1*
X-580574D2*
X-572750D1*
X-556526D2*
X-547824D1*
X-530574D2*
X-522750D1*
X-479649D2*
X-472541D1*
X-456580D2*
X-450137D1*
X-607688Y55890D2*
X-600098D1*
X-578490D2*
X-571635D1*
X-557688D2*
X-550098D1*
X-528490D2*
X-521635D1*
X-480925D2*
X-474344D1*
X-455134D2*
X-449000D1*
X-608695Y53390D2*
X-601802D1*
X-576996D2*
X-570997D1*
X-558695D2*
X-551802D1*
X-526996D2*
X-520997D1*
X-481893D2*
X-475787D1*
X-453999D2*
X-448069D1*
X-609502Y50890D2*
X-602401D1*
X-576095D2*
X-570670D1*
X-559502D2*
X-552401D1*
X-526095D2*
X-520670D1*
X-482470D2*
X-476836D1*
X-453069D2*
X-447168D1*
X-609921Y48390D2*
X-602716D1*
X-575467D2*
X-570467D1*
X-559921D2*
X-552716D1*
X-525467D2*
X-520467D1*
X-482768D2*
X-477448D1*
X-452168D2*
X-446395D1*
X-609860Y45890D2*
X-602774D1*
X-559860D2*
X-552774D1*
X-482983D2*
X-477750D1*
X-451395D2*
X-445906D1*
X-609367Y43390D2*
X-602506D1*
X-559367D2*
X-552506D1*
X-483353D2*
X-477882D1*
X-450906D2*
X-445654D1*
X-608685Y40890D2*
X-601842D1*
X-558685D2*
X-551842D1*
X-483971D2*
X-477936D1*
X-450654D2*
X-445541D1*
X-607939Y38390D2*
X-600880D1*
X-557939D2*
X-550880D1*
X-484619D2*
X-477956D1*
X-450541D2*
X-445494D1*
X-607017Y35890D2*
X-599751D1*
X-557017D2*
X-549751D1*
X-485057D2*
X-477963D1*
X-450494D2*
X-445476D1*
X-605866Y33390D2*
X-598463D1*
X-555866D2*
X-548463D1*
X-485290D2*
X-477965D1*
X-450476D2*
X-445470D1*
X-604459Y30890D2*
X-596906D1*
X-554459D2*
X-546906D1*
X-485396D2*
X-477966D1*
X-450470D2*
X-445468D1*
X-602874Y28390D2*
X-594974D1*
X-552874D2*
X-544974D1*
X-485431D2*
X-477967D1*
X-450468D2*
X-445467D1*
X-601268Y25890D2*
X-592759D1*
X-551268D2*
X-542759D1*
X-485360D2*
X-477967D1*
X-450467D2*
X-445467D1*
X-599539Y23390D2*
X-590386D1*
X-549539D2*
X-540386D1*
X-485047D2*
X-477967D1*
X-450467D2*
X-445467D1*
X-597528Y20890D2*
X-587937D1*
X-547528D2*
X-537937D1*
X-484451D2*
X-477967D1*
X-450476D2*
X-445467D1*
X-595280Y18390D2*
X-585456D1*
X-545280D2*
X-535456D1*
X-483810D2*
X-477967D1*
X-450564D2*
X-445467D1*
X-592893Y15890D2*
X-582973D1*
X-542893D2*
X-532973D1*
X-483375D2*
X-477957D1*
X-450883D2*
X-445476D1*
X-590439Y13390D2*
X-580563D1*
X-540439D2*
X-530563D1*
X-483133D2*
X-477869D1*
X-451491D2*
X-445564D1*
X-587967Y10890D2*
X-578383D1*
X-537967D2*
X-528383D1*
X-482939D2*
X-477541D1*
X-452220D2*
X-445893D1*
X-585561Y8390D2*
X-576491D1*
X-535561D2*
X-526491D1*
X-482567D2*
X-476844D1*
X-452985D2*
X-446579D1*
X-583382Y5890D2*
X-574730D1*
X-533382D2*
X-524730D1*
X-481863D2*
X-475748D1*
X-453952D2*
X-447549D1*
X-581482Y3390D2*
X-573073D1*
X-531482D2*
X-523073D1*
X-480888D2*
X-474338D1*
X-455140D2*
X-448681D1*
X-579629Y890D2*
X-571732D1*
X-529629D2*
X-521732D1*
X-479744D2*
X-470590D1*
X-457751D2*
X-449980D1*
X-577603Y-1610D2*
X-570673D1*
X-527603D2*
X-520673D1*
X-505467D2*
X-500467D1*
X-478359D2*
X-464910D1*
X-463614D2*
X-451632D1*
X-610467Y-4110D2*
X-569689D1*
X-560467D2*
X-519689D1*
X-505467D2*
X-500467D1*
X-476422D2*
X-453948D1*
X-610467Y-6610D2*
X-568779D1*
X-560467D2*
X-518779D1*
X-505467D2*
X-500467D1*
X-473679D2*
X-457003D1*
X-610467Y-9110D2*
X-567967D1*
X-560467D2*
X-517967D1*
X-505467D2*
X-500467D1*
X-470467D2*
X-460467D1*
X-122320Y-62643D2*
X-109820D1*
X-72320D2*
X-59820D1*
X180D2*
X5180D1*
X-125578Y-65143D2*
X-107415D1*
X-75578D2*
X-57415D1*
X180D2*
X6140D1*
X-128088Y-67643D2*
X-105245D1*
X-78088D2*
X-55245D1*
X180D2*
X7302D1*
X-129976Y-70143D2*
X-122225D1*
X-110216D2*
X-103442D1*
X-79976D2*
X-72225D1*
X-60216D2*
X-53442D1*
X180D2*
X8791D1*
X-131503Y-72643D2*
X-124395D1*
X-108434D2*
X-101990D1*
X-81503D2*
X-74395D1*
X-58434D2*
X-51990D1*
X180D2*
X10692D1*
X-132778Y-75143D2*
X-126198D1*
X-106987D2*
X-100853D1*
X-82778D2*
X-76198D1*
X-56987D2*
X-50853D1*
X180D2*
X12895D1*
X-133746Y-77643D2*
X-127640D1*
X-105852D2*
X-99922D1*
X-83746D2*
X-77640D1*
X-55852D2*
X-49922D1*
X180D2*
X15254D1*
X-134323Y-80143D2*
X-128689D1*
X-104922D2*
X-99022D1*
X-84323D2*
X-78689D1*
X-54922D2*
X-49022D1*
X180D2*
X17606D1*
X-134621Y-82643D2*
X-129301D1*
X-104022D2*
X-98248D1*
X-84621D2*
X-79301D1*
X-54022D2*
X-48248D1*
X180D2*
X7680D1*
X12680D2*
X19700D1*
X-134836Y-85143D2*
X-129603D1*
X-103248D2*
X-97759D1*
X-84836D2*
X-79603D1*
X-53248D2*
X-47759D1*
X180D2*
X7680D1*
X15180D2*
X21338D1*
X-135206Y-87643D2*
X-129736D1*
X-102759D2*
X-97507D1*
X-85206D2*
X-79736D1*
X-52759D2*
X-47507D1*
X180D2*
X7680D1*
X17680D2*
X22680D1*
X-135824Y-90143D2*
X-129789D1*
X-102507D2*
X-97394D1*
X-85824D2*
X-79789D1*
X-52507D2*
X-47394D1*
X180D2*
X7680D1*
X-136472Y-92643D2*
X-129809D1*
X-102394D2*
X-97347D1*
X-86472D2*
X-79809D1*
X-52394D2*
X-47347D1*
X180D2*
X7680D1*
X-136911Y-95143D2*
X-129816D1*
X-102347D2*
X-97330D1*
X-86911D2*
X-79816D1*
X-52347D2*
X-47330D1*
X180D2*
X7680D1*
X-137143Y-97643D2*
X-129819D1*
X-102330D2*
X-97323D1*
X-87143D2*
X-79819D1*
X-52330D2*
X-47323D1*
X180D2*
X7680D1*
X-137250Y-100143D2*
X-129820D1*
X-102323D2*
X-97321D1*
X-87250D2*
X-79820D1*
X-52323D2*
X-47321D1*
X180D2*
X7680D1*
X-137284Y-102643D2*
X-129820D1*
X-102321D2*
X-97320D1*
X-87284D2*
X-79820D1*
X-52321D2*
X-47320D1*
X180D2*
X7680D1*
X-137213Y-105143D2*
X-129820D1*
X-102320D2*
X-97320D1*
X-87213D2*
X-79820D1*
X-52320D2*
X-47320D1*
X180D2*
X7680D1*
X-136901Y-107643D2*
X-129820D1*
X-102320D2*
X-97320D1*
X-86901D2*
X-79820D1*
X-52320D2*
X-47320D1*
X180D2*
X7680D1*
X-136304Y-110143D2*
X-129820D1*
X-102330D2*
X-97320D1*
X-86304D2*
X-79820D1*
X-52330D2*
X-47320D1*
X180D2*
X7680D1*
X-135664Y-112643D2*
X-129820D1*
X-102418D2*
X-97320D1*
X-85664D2*
X-79820D1*
X-52418D2*
X-47320D1*
X180D2*
X7680D1*
X-135228Y-115143D2*
X-129810D1*
X-102736D2*
X-97330D1*
X-85228D2*
X-79810D1*
X-52736D2*
X-47330D1*
X180D2*
X7680D1*
X-134986Y-117643D2*
X-129722D1*
X-103345D2*
X-97418D1*
X-84986D2*
X-79722D1*
X-53345D2*
X-47418D1*
X180D2*
X7680D1*
X-134792Y-120143D2*
X-129394D1*
X-104074D2*
X-97746D1*
X-84792D2*
X-79394D1*
X-54074D2*
X-47746D1*
X180D2*
X7680D1*
X-134420Y-122643D2*
X-128698D1*
X-104838D2*
X-98433D1*
X-84420D2*
X-78698D1*
X-54838D2*
X-48433D1*
X180D2*
X7680D1*
X-133717Y-125143D2*
X-127601D1*
X-105805D2*
X-99402D1*
X-83717D2*
X-77601D1*
X-55805D2*
X-49402D1*
X180D2*
X7680D1*
X-132741Y-127643D2*
X-126191D1*
X-106993D2*
X-100534D1*
X-82741D2*
X-76191D1*
X-56993D2*
X-50534D1*
X180D2*
X7680D1*
X-131597Y-130143D2*
X-122444D1*
X-109604D2*
X-101833D1*
X-81597D2*
X-72444D1*
X-59604D2*
X-51833D1*
X180D2*
X7680D1*
X-130212Y-132643D2*
X-116763D1*
X-115467D2*
X-103485D1*
X-80212D2*
X-66763D1*
X-65467D2*
X-53485D1*
X-32320D2*
X-27320D1*
X180D2*
X7680D1*
X-128276Y-135143D2*
X-105802D1*
X-78276D2*
X-55802D1*
X-32320D2*
X-27320D1*
X180D2*
X7680D1*
X-125532Y-137643D2*
X-108856D1*
X-75532D2*
X-58856D1*
X-32320D2*
X-27320D1*
X180D2*
X7680D1*
X-122320Y-140143D2*
X-112320D1*
X-72320D2*
X-62320D1*
X-32320D2*
X-27320D1*
X180D2*
X7680D1*
X-610660Y-192650D2*
X-570660D1*
X-545660D2*
X-533160D1*
X-470660D2*
X-458160D1*
X-610264Y-195150D2*
X-570660D1*
X-548918D2*
X-530755D1*
X-473918D2*
X-455755D1*
X-609546Y-197650D2*
X-570660D1*
X-551428D2*
X-528585D1*
X-476428D2*
X-453585D1*
X-608493Y-200150D2*
X-601056D1*
X-553316D2*
X-545565D1*
X-533556D2*
X-526782D1*
X-478316D2*
X-470565D1*
X-458556D2*
X-451782D1*
X-607128Y-202650D2*
X-599264D1*
X-554843D2*
X-547735D1*
X-531774D2*
X-525330D1*
X-479843D2*
X-472735D1*
X-456774D2*
X-450330D1*
X-605568Y-205150D2*
X-597739D1*
X-556118D2*
X-549538D1*
X-530327D2*
X-524193D1*
X-481118D2*
X-474538D1*
X-455327D2*
X-449193D1*
X-604056Y-207650D2*
X-596364D1*
X-557086D2*
X-550980D1*
X-529192D2*
X-523262D1*
X-482086D2*
X-475980D1*
X-454192D2*
X-448262D1*
X-602658Y-210150D2*
X-595066D1*
X-557663D2*
X-552029D1*
X-528262D2*
X-522362D1*
X-482663D2*
X-477029D1*
X-453262D2*
X-447362D1*
X-601334Y-212650D2*
X-593795D1*
X-557961D2*
X-552641D1*
X-527362D2*
X-521588D1*
X-482961D2*
X-477641D1*
X-452362D2*
X-446588D1*
X-600055Y-215150D2*
X-592540D1*
X-558176D2*
X-552943D1*
X-526588D2*
X-521099D1*
X-483176D2*
X-477943D1*
X-451588D2*
X-446099D1*
X-598801Y-217650D2*
X-591295D1*
X-558546D2*
X-553076D1*
X-526099D2*
X-520847D1*
X-483546D2*
X-478076D1*
X-451099D2*
X-445847D1*
X-597626Y-220150D2*
X-590124D1*
X-559164D2*
X-553129D1*
X-525847D2*
X-520734D1*
X-484164D2*
X-478129D1*
X-450847D2*
X-445734D1*
X-596613Y-222650D2*
X-589112D1*
X-559812D2*
X-553149D1*
X-525734D2*
X-520687D1*
X-484812D2*
X-478149D1*
X-450734D2*
X-445687D1*
X-595723Y-225150D2*
X-588232D1*
X-560251D2*
X-553156D1*
X-525687D2*
X-520670D1*
X-485251D2*
X-478156D1*
X-450687D2*
X-445670D1*
X-594753Y-227650D2*
X-587341D1*
X-560483D2*
X-553159D1*
X-525670D2*
X-520663D1*
X-485483D2*
X-478159D1*
X-450670D2*
X-445663D1*
X-593668Y-230150D2*
X-586487D1*
X-560590D2*
X-553160D1*
X-525663D2*
X-520661D1*
X-485590D2*
X-478160D1*
X-450663D2*
X-445661D1*
X-592573Y-232650D2*
X-585682D1*
X-560624D2*
X-553160D1*
X-525661D2*
X-520660D1*
X-485624D2*
X-478160D1*
X-450661D2*
X-445660D1*
X-591593Y-235150D2*
X-584832D1*
X-560553D2*
X-553160D1*
X-525660D2*
X-520660D1*
X-485553D2*
X-478160D1*
X-450660D2*
X-445660D1*
X-590725Y-237650D2*
X-584068D1*
X-560241D2*
X-553160D1*
X-525660D2*
X-520660D1*
X-485241D2*
X-478160D1*
X-450660D2*
X-445660D1*
X-589849Y-240150D2*
X-583498D1*
X-559644D2*
X-553160D1*
X-525670D2*
X-520660D1*
X-484644D2*
X-478160D1*
X-450670D2*
X-445660D1*
X-589084Y-242650D2*
X-582930D1*
X-559004D2*
X-553160D1*
X-525758D2*
X-520660D1*
X-484004D2*
X-478160D1*
X-450758D2*
X-445660D1*
X-588588Y-245150D2*
X-582218D1*
X-558568D2*
X-553150D1*
X-526076D2*
X-520670D1*
X-483568D2*
X-478150D1*
X-451076D2*
X-445670D1*
X-588249Y-247650D2*
X-581531D1*
X-558326D2*
X-553062D1*
X-526685D2*
X-520758D1*
X-483326D2*
X-478062D1*
X-451685D2*
X-445758D1*
X-587817Y-250150D2*
X-581078D1*
X-558132D2*
X-552734D1*
X-527414D2*
X-521086D1*
X-483132D2*
X-477734D1*
X-452414D2*
X-446086D1*
X-587172Y-252650D2*
X-580830D1*
X-557760D2*
X-552038D1*
X-528178D2*
X-521773D1*
X-482760D2*
X-477038D1*
X-453178D2*
X-446773D1*
X-586514Y-255150D2*
X-580634D1*
X-557057D2*
X-550941D1*
X-529145D2*
X-522742D1*
X-482057D2*
X-475941D1*
X-454145D2*
X-447742D1*
X-586071Y-257650D2*
X-580270D1*
X-556081D2*
X-549531D1*
X-530333D2*
X-523874D1*
X-481081D2*
X-474531D1*
X-455333D2*
X-448874D1*
X-585837Y-260150D2*
X-579654D1*
X-554937D2*
X-545784D1*
X-532944D2*
X-525173D1*
X-479937D2*
X-470784D1*
X-457944D2*
X-450173D1*
X-585730Y-262650D2*
X-579007D1*
X-553552D2*
X-540103D1*
X-538807D2*
X-526825D1*
X-505660D2*
X-500660D1*
X-478552D2*
X-465103D1*
X-463807D2*
X-451825D1*
X-585686Y-265150D2*
X-578567D1*
X-551616D2*
X-529142D1*
X-505660D2*
X-500660D1*
X-476616D2*
X-454142D1*
X-585669Y-267650D2*
X-578321D1*
X-548872D2*
X-532196D1*
X-505660D2*
X-500660D1*
X-473872D2*
X-457196D1*
X-585660Y-270150D2*
X-578160D1*
X-545660D2*
X-535660D1*
X-505660D2*
X-500660D1*
X-470660D2*
X-460660D1*
X-121330Y-314107D2*
X-108830D1*
X-73830D2*
X-58830D1*
X3670D2*
X16170D1*
X-124588Y-316607D2*
X-106425D1*
X-76320D2*
X-55271D1*
X412D2*
X18575D1*
X-127098Y-319107D2*
X-104255D1*
X-78723D2*
X-52383D1*
X-2098D2*
X20745D1*
X-128986Y-321607D2*
X-121235D1*
X-109226D2*
X-102452D1*
X-80816D2*
X-70443D1*
X-58840D2*
X-50217D1*
X-3986D2*
X3765D1*
X15774D2*
X22548D1*
X-130513Y-324107D2*
X-123405D1*
X-107444D2*
X-101000D1*
X-82389D2*
X-73687D1*
X-56437D2*
X-48613D1*
X-5513D2*
X1595D1*
X17556D2*
X24000D1*
X-131788Y-326607D2*
X-125208D1*
X-105997D2*
X-99863D1*
X-83552D2*
X-75961D1*
X-54353D2*
X-47499D1*
X-6788D2*
X-208D1*
X19003D2*
X25137D1*
X-132756Y-329107D2*
X-126650D1*
X-104862D2*
X-98932D1*
X-84558D2*
X-77665D1*
X-52859D2*
X-46860D1*
X-7756D2*
X-1650D1*
X20138D2*
X26068D1*
X-133333Y-331607D2*
X-127699D1*
X-103932D2*
X-98032D1*
X-85366D2*
X-78264D1*
X-51958D2*
X-46534D1*
X-8333D2*
X-2699D1*
X21068D2*
X26968D1*
X-133631Y-334107D2*
X-128311D1*
X-103032D2*
X-97258D1*
X-85784D2*
X-78579D1*
X-51330D2*
X-46330D1*
X-8631D2*
X-3311D1*
X21968D2*
X27742D1*
X-133846Y-336607D2*
X-128613D1*
X-102258D2*
X-96769D1*
X-85723D2*
X-78638D1*
X-8846D2*
X-3613D1*
X22742D2*
X28231D1*
X-134216Y-339107D2*
X-128746D1*
X-101769D2*
X-96517D1*
X-85230D2*
X-78369D1*
X-9216D2*
X-3746D1*
X23231D2*
X28483D1*
X-134834Y-341607D2*
X-128799D1*
X-101517D2*
X-96404D1*
X-84549D2*
X-77705D1*
X-9834D2*
X-3799D1*
X23483D2*
X28596D1*
X-135482Y-344107D2*
X-128819D1*
X-101404D2*
X-96357D1*
X-83802D2*
X-76744D1*
X-10482D2*
X-3819D1*
X23596D2*
X28643D1*
X-135921Y-346607D2*
X-128826D1*
X-101357D2*
X-96340D1*
X-82880D2*
X-75614D1*
X-10921D2*
X-3826D1*
X23643D2*
X28660D1*
X-136153Y-349107D2*
X-128829D1*
X-101340D2*
X-96333D1*
X-81729D2*
X-74326D1*
X-11153D2*
X-3829D1*
X23660D2*
X28667D1*
X-136260Y-351607D2*
X-128830D1*
X-101333D2*
X-96331D1*
X-80323D2*
X-72769D1*
X-11260D2*
X-3830D1*
X23667D2*
X28669D1*
X-136294Y-354107D2*
X-128830D1*
X-101331D2*
X-96330D1*
X-78737D2*
X-70838D1*
X-11294D2*
X-3830D1*
X23669D2*
X28670D1*
X-136223Y-356607D2*
X-128830D1*
X-101330D2*
X-96330D1*
X-77132D2*
X-68623D1*
X-11223D2*
X-3830D1*
X23670D2*
X28670D1*
X-135911Y-359107D2*
X-128830D1*
X-101330D2*
X-96330D1*
X-75403D2*
X-66249D1*
X-10911D2*
X-3830D1*
X23670D2*
X28670D1*
X-135314Y-361607D2*
X-128830D1*
X-101340D2*
X-96330D1*
X-73391D2*
X-63800D1*
X-10314D2*
X-3830D1*
X23660D2*
X28670D1*
X-134674Y-364107D2*
X-128830D1*
X-101428D2*
X-96330D1*
X-71143D2*
X-61319D1*
X-9674D2*
X-3830D1*
X23572D2*
X28670D1*
X-134238Y-366607D2*
X-128820D1*
X-101746D2*
X-96340D1*
X-68756D2*
X-58836D1*
X-9238D2*
X-3820D1*
X23254D2*
X28660D1*
X-133996Y-369107D2*
X-128732D1*
X-102355D2*
X-96428D1*
X-66303D2*
X-56426D1*
X-8996D2*
X-3732D1*
X22645D2*
X28572D1*
X-133802Y-371607D2*
X-128404D1*
X-103084D2*
X-96756D1*
X-63830D2*
X-54246D1*
X-8802D2*
X-3404D1*
X21916D2*
X28244D1*
X-133430Y-374107D2*
X-127708D1*
X-103848D2*
X-97443D1*
X-61424D2*
X-52355D1*
X-8430D2*
X-2708D1*
X21152D2*
X27557D1*
X-132727Y-376607D2*
X-126611D1*
X-104815D2*
X-98412D1*
X-59245D2*
X-50593D1*
X-7727D2*
X-1611D1*
X20185D2*
X26588D1*
X-131751Y-379107D2*
X-125201D1*
X-106003D2*
X-99544D1*
X-57345D2*
X-48936D1*
X-6751D2*
X-201D1*
X18997D2*
X25456D1*
X-130607Y-381607D2*
X-121454D1*
X-108614D2*
X-100843D1*
X-55493D2*
X-47595D1*
X-5607D2*
X3546D1*
X16386D2*
X24157D1*
X-129222Y-384107D2*
X-115773D1*
X-114477D2*
X-102495D1*
X-53467D2*
X-46536D1*
X-31330D2*
X-26330D1*
X-4222D2*
X9227D1*
X10523D2*
X22505D1*
X-127286Y-386607D2*
X-104812D1*
X-86330D2*
X-45552D1*
X-31330D2*
X-26330D1*
X-2286D2*
X20188D1*
X-124542Y-389107D2*
X-107866D1*
X-86330D2*
X-44643D1*
X-31330D2*
X-26330D1*
X458D2*
X17134D1*
X-121330Y-391607D2*
X-111330D1*
X-86330D2*
X-43830D1*
X-31330D2*
X-26330D1*
X3670D2*
X13670D1*
X-602500Y-433503D2*
X-597500D1*
X-547500D2*
X-535000D1*
X-472500D2*
X-460000D1*
X-602500Y-436003D2*
X-595950D1*
X-550758D2*
X-532595D1*
X-475758D2*
X-457595D1*
X-602500Y-438503D2*
X-594524D1*
X-553268D2*
X-530425D1*
X-478268D2*
X-455425D1*
X-602500Y-441003D2*
X-593185D1*
X-555156D2*
X-547405D1*
X-535396D2*
X-528622D1*
X-480156D2*
X-472405D1*
X-460396D2*
X-453622D1*
X-602500Y-443503D2*
X-591890D1*
X-556683D2*
X-549575D1*
X-533614D2*
X-527170D1*
X-481683D2*
X-474575D1*
X-458614D2*
X-452170D1*
X-602500Y-446003D2*
X-590545D1*
X-557958D2*
X-551378D1*
X-532167D2*
X-526033D1*
X-482958D2*
X-476378D1*
X-457167D2*
X-451033D1*
X-602500Y-448503D2*
X-589051D1*
X-558926D2*
X-552820D1*
X-531032D2*
X-525102D1*
X-483926D2*
X-477820D1*
X-456032D2*
X-450102D1*
X-602500Y-451003D2*
X-587438D1*
X-559503D2*
X-553869D1*
X-530102D2*
X-524202D1*
X-484503D2*
X-478869D1*
X-455102D2*
X-449202D1*
X-602500Y-453503D2*
X-597500D1*
X-592896D2*
X-585907D1*
X-559801D2*
X-554481D1*
X-529202D2*
X-523428D1*
X-484801D2*
X-479481D1*
X-454202D2*
X-448428D1*
X-602500Y-456003D2*
X-597500D1*
X-591104D2*
X-584501D1*
X-560016D2*
X-554783D1*
X-528428D2*
X-522939D1*
X-485016D2*
X-479783D1*
X-453428D2*
X-447939D1*
X-602500Y-458503D2*
X-597500D1*
X-589579D2*
X-583175D1*
X-560386D2*
X-554916D1*
X-527939D2*
X-522687D1*
X-485386D2*
X-479916D1*
X-452939D2*
X-447687D1*
X-602500Y-461003D2*
X-597500D1*
X-588204D2*
X-581895D1*
X-561004D2*
X-554969D1*
X-527687D2*
X-522574D1*
X-486004D2*
X-479969D1*
X-452687D2*
X-447574D1*
X-602500Y-463503D2*
X-597500D1*
X-586906D2*
X-580631D1*
X-561652D2*
X-554989D1*
X-527574D2*
X-522527D1*
X-486652D2*
X-479989D1*
X-452574D2*
X-447527D1*
X-602500Y-466003D2*
X-597500D1*
X-585635D2*
X-579378D1*
X-562091D2*
X-554996D1*
X-527527D2*
X-522510D1*
X-487091D2*
X-479996D1*
X-452527D2*
X-447510D1*
X-602500Y-468503D2*
X-597500D1*
X-584370D2*
X-578125D1*
X-562323D2*
X-554999D1*
X-527510D2*
X-522503D1*
X-487323D2*
X-479999D1*
X-452510D2*
X-447503D1*
X-602500Y-471003D2*
X-597500D1*
X-583037D2*
X-576867D1*
X-562430D2*
X-555000D1*
X-527503D2*
X-522501D1*
X-487430D2*
X-480000D1*
X-452503D2*
X-447501D1*
X-602500Y-473503D2*
X-597500D1*
X-581548D2*
X-575536D1*
X-562464D2*
X-555000D1*
X-527501D2*
X-522500D1*
X-487464D2*
X-480000D1*
X-452501D2*
X-447500D1*
X-602500Y-476003D2*
X-597500D1*
X-579930D2*
X-574057D1*
X-562393D2*
X-555000D1*
X-527500D2*
X-522500D1*
X-487393D2*
X-480000D1*
X-452500D2*
X-447500D1*
X-602500Y-478503D2*
X-597500D1*
X-578333D2*
X-572535D1*
X-562081D2*
X-555000D1*
X-527500D2*
X-522500D1*
X-487081D2*
X-480000D1*
X-452500D2*
X-447500D1*
X-602500Y-481003D2*
X-597500D1*
X-576707D2*
X-571333D1*
X-561484D2*
X-555000D1*
X-527510D2*
X-522500D1*
X-486484D2*
X-480000D1*
X-452510D2*
X-447500D1*
X-602500Y-483503D2*
X-597500D1*
X-575000D2*
X-570614D1*
X-560844D2*
X-555000D1*
X-527598D2*
X-522500D1*
X-485844D2*
X-480000D1*
X-452598D2*
X-447500D1*
X-612500Y-486003D2*
X-570257D1*
X-560408D2*
X-554990D1*
X-527916D2*
X-522510D1*
X-485408D2*
X-479990D1*
X-452916D2*
X-447510D1*
X-612500Y-488503D2*
X-570100D1*
X-560166D2*
X-554902D1*
X-528525D2*
X-522598D1*
X-485166D2*
X-479902D1*
X-453525D2*
X-447598D1*
X-612500Y-491003D2*
X-570035D1*
X-559972D2*
X-554574D1*
X-529254D2*
X-522926D1*
X-484972D2*
X-479574D1*
X-454254D2*
X-447926D1*
X-602500Y-493503D2*
X-597500D1*
X-559600D2*
X-553878D1*
X-530018D2*
X-523613D1*
X-484600D2*
X-478878D1*
X-455018D2*
X-448613D1*
X-602500Y-496003D2*
X-597500D1*
X-558897D2*
X-552781D1*
X-530985D2*
X-524582D1*
X-483897D2*
X-477781D1*
X-455985D2*
X-449582D1*
X-602500Y-498503D2*
X-597500D1*
X-557921D2*
X-551371D1*
X-532173D2*
X-525714D1*
X-482921D2*
X-476371D1*
X-457173D2*
X-450714D1*
X-602500Y-501003D2*
X-597500D1*
X-556777D2*
X-547624D1*
X-534784D2*
X-527013D1*
X-481777D2*
X-472624D1*
X-459784D2*
X-452013D1*
X-602500Y-503503D2*
X-597500D1*
X-555392D2*
X-541943D1*
X-540647D2*
X-528665D1*
X-507500D2*
X-502500D1*
X-480392D2*
X-466943D1*
X-465647D2*
X-453665D1*
X-602500Y-506003D2*
X-597500D1*
X-553456D2*
X-530982D1*
X-507500D2*
X-502500D1*
X-478456D2*
X-455982D1*
X-602500Y-508503D2*
X-597500D1*
X-550712D2*
X-534036D1*
X-507500D2*
X-502500D1*
X-475712D2*
X-459036D1*
X-602500Y-511003D2*
X-597500D1*
X-547500D2*
X-537500D1*
X-507500D2*
X-502500D1*
X-472500D2*
X-462500D1*
X-593280Y577643D2*
X-580780D1*
X-545780D2*
X-540780D1*
X-468280D2*
X-455780D1*
X-596239Y575143D2*
X-577522D1*
X-545780D2*
X-539820D1*
X-471538D2*
X-453375D1*
X-598765Y572643D2*
X-575012D1*
X-545780D2*
X-538658D1*
X-474048D2*
X-451205D1*
X-600676Y570143D2*
X-593175D1*
X-580885D2*
X-573124D1*
X-545780D2*
X-537169D1*
X-475936D2*
X-468185D1*
X-456176D2*
X-449402D1*
X-601968Y567643D2*
X-595257D1*
X-578802D2*
X-571595D1*
X-545780D2*
X-535268D1*
X-477463D2*
X-470355D1*
X-454394D2*
X-447950D1*
X-602690Y565143D2*
X-596741D1*
X-577309D2*
X-570296D1*
X-545780D2*
X-533065D1*
X-478738D2*
X-472158D1*
X-452947D2*
X-446813D1*
X-603037Y562643D2*
X-597585D1*
X-576408D2*
X-569210D1*
X-545780D2*
X-530706D1*
X-479706D2*
X-473600D1*
X-451812D2*
X-445882D1*
X-603186Y560143D2*
X-597984D1*
X-575780D2*
X-568280D1*
X-545780D2*
X-528354D1*
X-480283D2*
X-474649D1*
X-450882D2*
X-444982D1*
X-603236Y557643D2*
X-598052D1*
X-545780D2*
X-538280D1*
X-533280D2*
X-526260D1*
X-480581D2*
X-475261D1*
X-449982D2*
X-444208D1*
X-603161Y555143D2*
X-597877D1*
X-545780D2*
X-538280D1*
X-530780D2*
X-524622D1*
X-480796D2*
X-475563D1*
X-449208D2*
X-443719D1*
X-602762Y552643D2*
X-596588D1*
X-545780D2*
X-538280D1*
X-528280D2*
X-523280D1*
X-481166D2*
X-475696D1*
X-448719D2*
X-443467D1*
X-601857Y550143D2*
X-593456D1*
X-545780D2*
X-538280D1*
X-481784D2*
X-475749D1*
X-448467D2*
X-443354D1*
X-600716Y547643D2*
X-589857D1*
X-545780D2*
X-538280D1*
X-482432D2*
X-475769D1*
X-448354D2*
X-443307D1*
X-599733Y545143D2*
X-586786D1*
X-545780D2*
X-538280D1*
X-482871D2*
X-475776D1*
X-448307D2*
X-443290D1*
X-600041Y542643D2*
X-584759D1*
X-545780D2*
X-538280D1*
X-483103D2*
X-475779D1*
X-448290D2*
X-443283D1*
X-601525Y540143D2*
X-583280D1*
X-545780D2*
X-538280D1*
X-483210D2*
X-475780D1*
X-448283D2*
X-443281D1*
X-603127Y537643D2*
X-589701D1*
X-545780D2*
X-538280D1*
X-483244D2*
X-475780D1*
X-448281D2*
X-443280D1*
X-604480Y535143D2*
X-594381D1*
X-545780D2*
X-538280D1*
X-483173D2*
X-475780D1*
X-448280D2*
X-443280D1*
X-605553Y532643D2*
X-597829D1*
X-545780D2*
X-538280D1*
X-482861D2*
X-475780D1*
X-448280D2*
X-443280D1*
X-606526Y530143D2*
X-599269D1*
X-545780D2*
X-538280D1*
X-482264D2*
X-475780D1*
X-448290D2*
X-443280D1*
X-607322Y527643D2*
X-600103D1*
X-545780D2*
X-538280D1*
X-481624D2*
X-475780D1*
X-448378D2*
X-443280D1*
X-607736Y525143D2*
X-600503D1*
X-545780D2*
X-538280D1*
X-481188D2*
X-475770D1*
X-448696D2*
X-443290D1*
X-607674Y522643D2*
X-600664D1*
X-545780D2*
X-538280D1*
X-480946D2*
X-475682D1*
X-449305D2*
X-443378D1*
X-607180Y520143D2*
X-600634D1*
X-573280D2*
X-568280D1*
X-545780D2*
X-538280D1*
X-480752D2*
X-475354D1*
X-450034D2*
X-443706D1*
X-606499Y517643D2*
X-600243D1*
X-574240D2*
X-568375D1*
X-545780D2*
X-538280D1*
X-480380D2*
X-474658D1*
X-450798D2*
X-444393D1*
X-605752Y515143D2*
X-599474D1*
X-575441D2*
X-568705D1*
X-545780D2*
X-538280D1*
X-479677D2*
X-473561D1*
X-451765D2*
X-445362D1*
X-604830Y512643D2*
X-597233D1*
X-576900D2*
X-569402D1*
X-545780D2*
X-538280D1*
X-478701D2*
X-472151D1*
X-452953D2*
X-446494D1*
X-603660Y510143D2*
X-593546D1*
X-580653D2*
X-570469D1*
X-545780D2*
X-538280D1*
X-477557D2*
X-468404D1*
X-455564D2*
X-447793D1*
X-602070Y507643D2*
X-587797D1*
X-586336D2*
X-572016D1*
X-545780D2*
X-538280D1*
X-503280D2*
X-498280D1*
X-476172D2*
X-462723D1*
X-461427D2*
X-449445D1*
X-599782Y505143D2*
X-574288D1*
X-545780D2*
X-538280D1*
X-503280D2*
X-498280D1*
X-474236D2*
X-451762D1*
X-596738Y502643D2*
X-577325D1*
X-545780D2*
X-538280D1*
X-503280D2*
X-498280D1*
X-471492D2*
X-454816D1*
X-593280Y500143D2*
X-580780D1*
X-545780D2*
X-538280D1*
X-503280D2*
X-498280D1*
X-468280D2*
X-458280D1*
X-22747Y-2659080D2*
X-7747D1*
X29753D2*
X42253D1*
X79753D2*
X92253D1*
X127253D2*
X142253D1*
X179753D2*
X217253D1*
X247253D2*
X262253D1*
X-25238Y-2661580D2*
X-4189D1*
X26794D2*
X45510D1*
X76495D2*
X94657D1*
X124762D2*
X145811D1*
X176495D2*
X217253D1*
X243608D2*
X266751D1*
X-27640Y-2664080D2*
X-1301D1*
X24267D2*
X48021D1*
X73984D2*
X96827D1*
X122360D2*
X148699D1*
X173984D2*
X217253D1*
X240478D2*
X270626D1*
X-29734Y-2666580D2*
X-19360D1*
X-7757D2*
X866D1*
X22357D2*
X29858D1*
X42148D2*
X49908D1*
X72097D2*
X79848D1*
X91856D2*
X98630D1*
X120266D2*
X130640D1*
X142243D2*
X150866D1*
X172097D2*
X183140D1*
X212253D2*
X217253D1*
X237943D2*
X248130D1*
X261751D2*
X273635D1*
X-31306Y-2669080D2*
X-22605D1*
X-5355D2*
X2469D1*
X21065D2*
X27776D1*
X44230D2*
X51437D1*
X70570D2*
X77678D1*
X93639D2*
X100083D1*
X118694D2*
X127395D1*
X144645D2*
X152469D1*
X170570D2*
X179895D1*
X212253D2*
X217253D1*
X235969D2*
X244798D1*
X265626D2*
X275854D1*
X-32469Y-2671580D2*
X-24878D1*
X-3271D2*
X3584D1*
X20343D2*
X26291D1*
X45723D2*
X52736D1*
X69294D2*
X75875D1*
X95085D2*
X101219D1*
X117531D2*
X125122D1*
X146729D2*
X153584D1*
X169294D2*
X177622D1*
X212253D2*
X217253D1*
X234365D2*
X242205D1*
X268635D2*
X277560D1*
X-33476Y-2674080D2*
X-26582D1*
X-1777D2*
X4223D1*
X19996D2*
X25447D1*
X46625D2*
X53822D1*
X68327D2*
X74432D1*
X96220D2*
X102150D1*
X116524D2*
X123418D1*
X148223D2*
X154223D1*
X168327D2*
X175918D1*
X212253D2*
X217253D1*
X232898D2*
X240153D1*
X270854D2*
X278998D1*
X-34283Y-2676580D2*
X-27181D1*
X-875D2*
X4549D1*
X19846D2*
X25049D1*
X47253D2*
X54753D1*
X67749D2*
X73383D1*
X97150D2*
X103051D1*
X115717D2*
X122819D1*
X149125D2*
X154549D1*
X167759D2*
X175319D1*
X212253D2*
X217253D1*
X231378D2*
X238716D1*
X272560D2*
X280235D1*
X-34701Y-2679080D2*
X-27496D1*
X-247D2*
X4753D1*
X19797D2*
X24980D1*
X67452D2*
X72771D1*
X98051D2*
X103824D1*
X115299D2*
X122504D1*
X149753D2*
X154753D1*
X167559D2*
X175004D1*
X212253D2*
X217253D1*
X229753D2*
X237853D1*
X273998D2*
X281197D1*
X-34641Y-2681580D2*
X-27555D1*
X19872D2*
X25155D1*
X67236D2*
X72469D1*
X98824D2*
X104313D1*
X115359D2*
X122445D1*
X167750D2*
X174955D1*
X212253D2*
X217253D1*
X234753D2*
X237253D1*
X275235D2*
X281856D1*
X-34148Y-2684080D2*
X-27287D1*
X20271D2*
X26444D1*
X66866D2*
X72337D1*
X99313D2*
X104565D1*
X115852D2*
X122713D1*
X168307D2*
X175311D1*
X212253D2*
X217253D1*
X276187D2*
X282461D1*
X-33466Y-2686580D2*
X-26622D1*
X21175D2*
X29576D1*
X66248D2*
X72284D1*
X99565D2*
X104679D1*
X116534D2*
X123378D1*
X169027D2*
X176062D1*
X212253D2*
X217253D1*
X276759D2*
X283186D1*
X-32720Y-2689080D2*
X-25661D1*
X22317D2*
X33176D1*
X65600D2*
X72264D1*
X99679D2*
X104725D1*
X117280D2*
X124339D1*
X169872D2*
X178208D1*
X212253D2*
X217253D1*
X277045D2*
X283878D1*
X-31798Y-2691580D2*
X-24532D1*
X23300D2*
X36246D1*
X65162D2*
X72256D1*
X99725D2*
X104743D1*
X118202D2*
X125468D1*
X171136D2*
X185220D1*
X212253D2*
X217253D1*
X277171D2*
X284334D1*
X-30647Y-2694080D2*
X-23243D1*
X22992D2*
X38273D1*
X64929D2*
X72254D1*
X99743D2*
X104749D1*
X119353D2*
X126757D1*
X173087D2*
X197106D1*
X212253D2*
X217253D1*
X277222D2*
X284573D1*
X-29240Y-2696580D2*
X-21687D1*
X21507D2*
X39753D1*
X64823D2*
X72253D1*
X99749D2*
X104751D1*
X120760D2*
X128313D1*
X175995D2*
X217253D1*
X277242D2*
X284681D1*
X-27654Y-2699080D2*
X-19755D1*
X19905D2*
X33332D1*
X64789D2*
X72253D1*
X99751D2*
X104752D1*
X122346D2*
X130245D1*
X180039D2*
X217253D1*
X277249D2*
X284716D1*
X-26049Y-2701580D2*
X-17540D1*
X18553D2*
X28651D1*
X64860D2*
X72253D1*
X99752D2*
X104752D1*
X123951D2*
X132460D1*
X184753D2*
X217253D1*
X277251D2*
X284645D1*
X-24320Y-2704080D2*
X-15166D1*
X17479D2*
X25203D1*
X65172D2*
X72253D1*
X99752D2*
X104753D1*
X125680D2*
X134834D1*
X182348D2*
X192262D1*
X212253D2*
X217253D1*
X277242D2*
X284333D1*
X-22309Y-2706580D2*
X-12717D1*
X16506D2*
X23764D1*
X65769D2*
X72253D1*
X99743D2*
X104753D1*
X127691D2*
X137283D1*
X180178D2*
X189850D1*
X212253D2*
X217253D1*
X277155D2*
X283736D1*
X-20060Y-2709080D2*
X-10237D1*
X15711D2*
X22930D1*
X66409D2*
X72253D1*
X99655D2*
X104753D1*
X129940D2*
X139763D1*
X178365D2*
X187679D1*
X212253D2*
X217253D1*
X232253D2*
X234753D1*
X276826D2*
X283086D1*
X-17674Y-2711580D2*
X-7754D1*
X15297D2*
X22530D1*
X66845D2*
X72262D1*
X99336D2*
X104743D1*
X132326D2*
X142246D1*
X176835D2*
X185865D1*
X212253D2*
X217253D1*
X231194D2*
X235617D1*
X276140D2*
X282563D1*
X-15220Y-2714080D2*
X-5344D1*
X15358D2*
X22368D1*
X67086D2*
X72350D1*
X98728D2*
X104655D1*
X134780D2*
X144656D1*
X175457D2*
X184325D1*
X212253D2*
X217253D1*
X230547D2*
X236459D1*
X275171D2*
X282003D1*
X-12747Y-2716580D2*
X-3163D1*
X15852D2*
X22398D1*
X49753D2*
X54753D1*
X67280D2*
X72679D1*
X97999D2*
X104327D1*
X137253D2*
X146837D1*
X174149D2*
X182869D1*
X212253D2*
X217253D1*
X231065D2*
X237349D1*
X274038D2*
X281210D1*
X-10342Y-2719080D2*
X-1272D1*
X16534D2*
X22790D1*
X48793D2*
X54657D1*
X67652D2*
X73375D1*
X97234D2*
X103640D1*
X139658D2*
X148728D1*
X172799D2*
X181330D1*
X212253D2*
X217253D1*
X231922D2*
X238609D1*
X272739D2*
X280197D1*
X-8163Y-2721580D2*
X489D1*
X17280D2*
X23558D1*
X47592D2*
X54327D1*
X68356D2*
X74471D1*
X96267D2*
X102671D1*
X141837D2*
X150489D1*
X171304D2*
X179700D1*
X212253D2*
X217253D1*
X233001D2*
X240424D1*
X271036D2*
X279047D1*
X-6263Y-2724080D2*
X2147D1*
X18202D2*
X25799D1*
X46132D2*
X53630D1*
X69331D2*
X75882D1*
X95079D2*
X101538D1*
X143737D2*
X152147D1*
X169691D2*
X178163D1*
X212253D2*
X217253D1*
X234269D2*
X243037D1*
X268833D2*
X277752D1*
X-4410Y-2726580D2*
X3488D1*
X19373D2*
X29487D1*
X42380D2*
X52563D1*
X70476D2*
X79629D1*
X92469D2*
X100239D1*
X145590D2*
X153488D1*
X168160D2*
X176755D1*
X212253D2*
X217253D1*
X235827D2*
X247310D1*
X263215D2*
X276183D1*
X-2384Y-2729080D2*
X4546D1*
X20962D2*
X35236D1*
X36697D2*
X51017D1*
X71860D2*
X85309D1*
X86605D2*
X98587D1*
X147616D2*
X154546D1*
X166746D2*
X175436D1*
X212253D2*
X217253D1*
X237851D2*
X254018D1*
X254858D2*
X274156D1*
X-35247Y-2731580D2*
X5531D1*
X23251D2*
X48745D1*
X73797D2*
X96271D1*
X114753D2*
X155531D1*
X165355D2*
X174221D1*
X212253D2*
X217253D1*
X240451D2*
X271555D1*
X-35247Y-2734080D2*
X6440D1*
X26295D2*
X45707D1*
X76541D2*
X93216D1*
X114753D2*
X156440D1*
X163863D2*
X173166D1*
X212253D2*
X217253D1*
X243674D2*
X268331D1*
X-35247Y-2736580D2*
X7253D1*
X29753D2*
X42253D1*
X79753D2*
X89753D1*
X114753D2*
X157253D1*
X162253D2*
X172253D1*
X212253D2*
X217253D1*
X247253D2*
X264753D1*
X-6970Y-4243020D2*
X5530D1*
X33030D2*
X38030D1*
X75530D2*
X80530D1*
X-10228Y-4245520D2*
X8020D1*
X33030D2*
X38030D1*
X75530D2*
X80530D1*
X-12728Y-4248020D2*
X10423D1*
X33030D2*
X38030D1*
X75530D2*
X80530D1*
X-14538Y-4250520D2*
X-6865D1*
X5134D2*
X12506D1*
X33030D2*
X38030D1*
X75530D2*
X80530D1*
X-15834Y-4253020D2*
X-8947D1*
X6916D2*
X13991D1*
X33030D2*
X38030D1*
X75530D2*
X80530D1*
X-16830Y-4255520D2*
X-10431D1*
X8353D2*
X14835D1*
X33030D2*
X38030D1*
X75530D2*
X80530D1*
X-17745Y-4258020D2*
X-11275D1*
X9390D2*
X15243D1*
X33030D2*
X38030D1*
X75530D2*
X80530D1*
X-18439Y-4260520D2*
X-11674D1*
X9914D2*
X15419D1*
X33030D2*
X38030D1*
X75530D2*
X80530D1*
X-18818Y-4263020D2*
X-11752D1*
X9887D2*
X15480D1*
X33030D2*
X38030D1*
X75530D2*
X80530D1*
X-18214Y-4265520D2*
X-11606D1*
X9284D2*
X15408D1*
X33030D2*
X38030D1*
X75530D2*
X80530D1*
X-17230Y-4268020D2*
X-10503D1*
X8295D2*
X15002D1*
X33030D2*
X38030D1*
X75530D2*
X80530D1*
X-15815Y-4270520D2*
X-6934D1*
X5726D2*
X13990D1*
X33030D2*
X38030D1*
X75530D2*
X80530D1*
X-13945Y-4273020D2*
X-1352D1*
X-126D2*
X12338D1*
X33030D2*
X38030D1*
X75530D2*
X80530D1*
X-11768Y-4275520D2*
X10265D1*
X33030D2*
X38030D1*
X75530D2*
X80530D1*
X-9470Y-4278020D2*
X8030D1*
X33030D2*
X38030D1*
X75530D2*
X80530D1*
X-13019Y-4280520D2*
X11288D1*
X33030D2*
X38030D1*
X75530D2*
X80530D1*
X-15829Y-4283020D2*
X-6960D1*
X5435D2*
X13788D1*
X33030D2*
X38030D1*
X75530D2*
X80530D1*
X-17764Y-4285520D2*
X-9363D1*
X7605D2*
X15588D1*
X33030D2*
X38030D1*
X75530D2*
X80530D1*
X-19088Y-4288020D2*
X-11446D1*
X9408D2*
X16797D1*
X33030D2*
X38030D1*
X75520D2*
X80530D1*
X-20160Y-4290520D2*
X-12931D1*
X10850D2*
X17473D1*
X33030D2*
X38040D1*
X75432D2*
X80530D1*
X-21002Y-4293020D2*
X-13775D1*
X11899D2*
X17800D1*
X33030D2*
X38128D1*
X75114D2*
X80520D1*
X-21507Y-4295520D2*
X-14183D1*
X12502D2*
X17941D1*
X33040D2*
X38446D1*
X74515D2*
X80432D1*
X-21680Y-4298020D2*
X-14350D1*
X12716D2*
X17997D1*
X33128D2*
X39055D1*
X73864D2*
X80114D1*
X-21478Y-4300520D2*
X-14332D1*
X12520D2*
X18009D1*
X33446D2*
X39784D1*
X73331D2*
X79505D1*
X-20917Y-4303020D2*
X-14020D1*
X11876D2*
X17928D1*
X34055D2*
X40558D1*
X72682D2*
X78776D1*
X-20197Y-4305520D2*
X-13196D1*
X10800D2*
X17603D1*
X34793D2*
X41642D1*
X71771D2*
X78012D1*
X-19351Y-4308020D2*
X-11910D1*
X9399D2*
X16907D1*
X35646D2*
X43123D1*
X69787D2*
X77084D1*
X-18097Y-4310520D2*
X-7493D1*
X5653D2*
X15840D1*
X36902D2*
X48437D1*
X64944D2*
X75911D1*
X-16240Y-4313020D2*
X-526D1*
X-27D2*
X14294D1*
X38760D2*
X57150D1*
X57388D2*
X74321D1*
X-13719Y-4315520D2*
X12022D1*
X41281D2*
X72032D1*
X-10529Y-4318020D2*
X8985D1*
X44471D2*
X68988D1*
X-6970Y-4320520D2*
X5530D1*
X48030D2*
X65530D1*
X-337177Y-926330D2*
D12*
X-306697D1*
X-180967D2*
X-150487D1*
X-9517D2*
X20963D1*
X85733D2*
X116213D1*
X238133D2*
X253373D1*
X-337177Y-930140D2*
X-306697D1*
X-180967D2*
X-150487D1*
X-9517D2*
X20963D1*
X85733D2*
X116213D1*
X238133D2*
X258942D1*
X-337177Y-933950D2*
X-306697D1*
X-180967D2*
X-150487D1*
X-9517D2*
X20963D1*
X85733D2*
X116213D1*
X238133D2*
X263846D1*
X-337177Y-937760D2*
X-306697D1*
X-180967D2*
X-150487D1*
X-9517D2*
X20963D1*
X85733D2*
X116213D1*
X238133D2*
X268195D1*
X-337177Y-941570D2*
X-306697D1*
X-180967D2*
X-150487D1*
X-9517D2*
X20963D1*
X85733D2*
X116213D1*
X238133D2*
X272117D1*
X-337177Y-945380D2*
X-306697D1*
X-180967D2*
X-150487D1*
X-9517D2*
X20963D1*
X85733D2*
X116213D1*
X238163D2*
X275526D1*
X-337177Y-949190D2*
X-306697D1*
X-180967D2*
X-150487D1*
X-9517D2*
X20963D1*
X85733D2*
X116213D1*
X238446D2*
X278312D1*
X-337177Y-953000D2*
X-306697D1*
X-180967D2*
X-150487D1*
X-9517D2*
X20963D1*
X85733D2*
X116213D1*
X239116D2*
X280524D1*
X-337177Y-956810D2*
X-306697D1*
X-180967D2*
X-150487D1*
X-9517D2*
X20963D1*
X85733D2*
X116213D1*
X241898D2*
X282128D1*
X-786757Y-960620D2*
X-767707D1*
X-733417D2*
X-714367D1*
X-641977D2*
X-615307D1*
X-539107D2*
X-512437D1*
X-367657D2*
X-344797D1*
X-337177D2*
X-306697D1*
X-257167D2*
X-230497D1*
X-180967D2*
X-150487D1*
X-97147D2*
X-70477D1*
X-24757D2*
X20963D1*
X36203D2*
X66683D1*
X85733D2*
X116213D1*
X165743D2*
X192413D1*
X245334D2*
X283062D1*
X333383D2*
X360053D1*
X478163D2*
X508643D1*
X523883D2*
X554363D1*
X565793D2*
X596273D1*
X619133D2*
X649613D1*
X664853D2*
X695333D1*
X706763D2*
X737243D1*
X760103D2*
X790583D1*
X805823D2*
X836303D1*
X847733D2*
X878213D1*
X-792311Y-964430D2*
X-752943D1*
X-748180D2*
X-708084D1*
X-648848D2*
X-608435D1*
X-545963D2*
X-505565D1*
X-373799D2*
X-344797D1*
X-337177D2*
X-306697D1*
X-264023D2*
X-223625D1*
X-180967D2*
X-150487D1*
X-104003D2*
X-63605D1*
X-24757D2*
X20963D1*
X38566D2*
X69046D1*
X85733D2*
X116213D1*
X158887D2*
X199285D1*
X248573D2*
X283523D1*
X326527D2*
X366925D1*
X478163D2*
X508643D1*
X523883D2*
X554363D1*
X565793D2*
X596273D1*
X619133D2*
X649613D1*
X664853D2*
X695333D1*
X706763D2*
X737243D1*
X760103D2*
X790583D1*
X805823D2*
X836303D1*
X847733D2*
X878213D1*
X-797081Y-968240D2*
X-703005D1*
X-654871D2*
X-602412D1*
X-551867D2*
X-499542D1*
X-379514D2*
X-344797D1*
X-337177D2*
X-306697D1*
X-269927D2*
X-217602D1*
X-180967D2*
X-150487D1*
X-109907D2*
X-57582D1*
X-24757D2*
X20963D1*
X40739D2*
X71219D1*
X85733D2*
X116213D1*
X152983D2*
X205308D1*
X250927D2*
X283725D1*
X320623D2*
X372948D1*
X478163D2*
X508643D1*
X523883D2*
X554363D1*
X565793D2*
X596273D1*
X619133D2*
X649613D1*
X664853D2*
X695333D1*
X706763D2*
X737243D1*
X760103D2*
X790583D1*
X805823D2*
X836303D1*
X847733D2*
X878213D1*
X-800944Y-972050D2*
X-699055D1*
X-659823D2*
X-597460D1*
X-556453D2*
X-494590D1*
X-384364D2*
X-344797D1*
X-337177D2*
X-306697D1*
X-274513D2*
X-212650D1*
X-180967D2*
X-150487D1*
X-114493D2*
X-52630D1*
X-24757D2*
X20963D1*
X42779D2*
X73259D1*
X85718D2*
X116213D1*
X148397D2*
X210260D1*
X252273D2*
X283806D1*
X316037D2*
X377900D1*
X478163D2*
X508643D1*
X523883D2*
X554363D1*
X565793D2*
X596273D1*
X619133D2*
X649613D1*
X664853D2*
X695333D1*
X706763D2*
X737243D1*
X760103D2*
X790583D1*
X805823D2*
X836303D1*
X847733D2*
X878213D1*
X-803938Y-975860D2*
X-695928D1*
X-663752D2*
X-593532D1*
X-559835D2*
X-490662D1*
X-388040D2*
X-344797D1*
X-337177D2*
X-306697D1*
X-277895D2*
X-208722D1*
X-180967D2*
X-150487D1*
X-117875D2*
X-48702D1*
X-24757D2*
X20963D1*
X44738D2*
X75230D1*
X85573D2*
X116213D1*
X145015D2*
X214188D1*
X252953D2*
X283837D1*
X312655D2*
X381828D1*
X478163D2*
X508643D1*
X523883D2*
X554363D1*
X565793D2*
X596273D1*
X619133D2*
X649613D1*
X664853D2*
X695333D1*
X706763D2*
X737243D1*
X760103D2*
X790583D1*
X805823D2*
X836303D1*
X847733D2*
X878213D1*
X-806237Y-979670D2*
X-693751D1*
X-666768D2*
X-590515D1*
X-562447D2*
X-487645D1*
X-390827D2*
X-344797D1*
X-337177D2*
X-306697D1*
X-280495D2*
X-205705D1*
X-180967D2*
X-150487D1*
X-120475D2*
X-45685D1*
X-24757D2*
X20963D1*
X46654D2*
X77260D1*
X84985D2*
X116213D1*
X142415D2*
X217205D1*
X238133D2*
X283848D1*
X310055D2*
X384845D1*
X478163D2*
X508643D1*
X523883D2*
X554363D1*
X565793D2*
X596273D1*
X619133D2*
X649613D1*
X664853D2*
X695333D1*
X706763D2*
X737243D1*
X760103D2*
X790583D1*
X805823D2*
X836303D1*
X847733D2*
X878213D1*
X-807873Y-983480D2*
X-692520D1*
X-669073D2*
X-588195D1*
X-564752D2*
X-485340D1*
X-393110D2*
X-344797D1*
X-337177D2*
X-306697D1*
X-282686D2*
X-203400D1*
X-180967D2*
X-150487D1*
X-122666D2*
X-43380D1*
X-24757D2*
X20963D1*
X48416D2*
X79492D1*
X83682D2*
X116213D1*
X140224D2*
X219510D1*
X238133D2*
X283851D1*
X307864D2*
X387150D1*
X478163D2*
X508643D1*
X523883D2*
X554363D1*
X565793D2*
X596273D1*
X619133D2*
X649613D1*
X664853D2*
X695333D1*
X706763D2*
X737243D1*
X760103D2*
X790583D1*
X805823D2*
X836303D1*
X847733D2*
X878213D1*
X-808819Y-987290D2*
X-691925D1*
X-670712D2*
X-586423D1*
X-567096D2*
X-483701D1*
X-395036D2*
X-344797D1*
X-337177D2*
X-306697D1*
X-284572D2*
X-201761D1*
X-180967D2*
X-150487D1*
X-124552D2*
X-41741D1*
X-24757D2*
X20963D1*
X49693D2*
X116213D1*
X138338D2*
X169553D1*
X184633D2*
X221149D1*
X238133D2*
X283853D1*
X305978D2*
X337193D1*
X352273D2*
X388789D1*
X478163D2*
X508643D1*
X523883D2*
X554363D1*
X565793D2*
X596273D1*
X619133D2*
X649613D1*
X664853D2*
X695333D1*
X706763D2*
X737243D1*
X760103D2*
X790583D1*
X805823D2*
X836303D1*
X847733D2*
X878213D1*
X-809284Y-991100D2*
X-691668D1*
X-671659D2*
X-584990D1*
X-569587D2*
X-482754D1*
X-396504D2*
X-344797D1*
X-337192D2*
X-306697D1*
X-286023D2*
X-200814D1*
X-180967D2*
X-150487D1*
X-126003D2*
X-40794D1*
X-24757D2*
X20963D1*
X50401D2*
X116213D1*
X136887D2*
X165743D1*
X187806D2*
X222096D1*
X238133D2*
X283853D1*
X304527D2*
X333383D1*
X355446D2*
X389736D1*
X478163D2*
X508643D1*
X523883D2*
X554363D1*
X565793D2*
X596273D1*
X619133D2*
X649613D1*
X664853D2*
X695333D1*
X706763D2*
X737243D1*
X760103D2*
X790583D1*
X805823D2*
X836303D1*
X847733D2*
X878213D1*
X-809487Y-994910D2*
X-779137D1*
X-768455D2*
X-733417D1*
X-721987D2*
X-691566D1*
X-672124D2*
X-637403D1*
X-619880D2*
X-583627D1*
X-517010D2*
X-482289D1*
X-397381D2*
X-354878D1*
X-337340D2*
X-306712D1*
X-286894D2*
X-252608D1*
X-235070D2*
X-200349D1*
X-180967D2*
X-150487D1*
X-126874D2*
X-92588D1*
X-75050D2*
X-40329D1*
X-9517D2*
X20963D1*
X49522D2*
X116213D1*
X136016D2*
X184793D1*
X190069D2*
X222561D1*
X238133D2*
X283853D1*
X303656D2*
X352433D1*
X357709D2*
X390201D1*
X478163D2*
X508643D1*
X523883D2*
X554363D1*
X565793D2*
X596273D1*
X619133D2*
X649613D1*
X664853D2*
X695333D1*
X706763D2*
X737243D1*
X760103D2*
X790583D1*
X805823D2*
X836303D1*
X847733D2*
X878213D1*
X-809569Y-998720D2*
X-779137D1*
X-766227D2*
X-733417D1*
X-721987D2*
X-691527D1*
X-672327D2*
X-639934D1*
X-617349D2*
X-582581D1*
X-514479D2*
X-482086D1*
X-397819D2*
X-362619D1*
X-337698D2*
X-306845D1*
X-287330D2*
X-254836D1*
X-232539D2*
X-200146D1*
X-180967D2*
X-150487D1*
X-127310D2*
X-94816D1*
X-72519D2*
X-40126D1*
X-9706D2*
X20963D1*
X48169D2*
X77525D1*
X85733D2*
X116213D1*
X135579D2*
X184793D1*
X191355D2*
X222764D1*
X238133D2*
X283853D1*
X303219D2*
X352433D1*
X358995D2*
X390404D1*
X478163D2*
X508643D1*
X523868D2*
X554363D1*
X565793D2*
X596273D1*
X619133D2*
X649613D1*
X664838D2*
X695333D1*
X706763D2*
X737243D1*
X760103D2*
X790583D1*
X805808D2*
X836303D1*
X847733D2*
X878213D1*
X-809600Y-1002530D2*
X-779137D1*
X-764951D2*
X-733417D1*
X-721987D2*
X-691514D1*
X-672409D2*
X-640420D1*
X-616863D2*
X-582009D1*
X-513993D2*
X-482004D1*
X-397998D2*
X-365430D1*
X-339402D2*
X-307331D1*
X-287523D2*
X-256112D1*
X-231993D2*
X-200064D1*
X-180967D2*
X-150487D1*
X-127503D2*
X-96092D1*
X-71973D2*
X-40044D1*
X-10157D2*
X20948D1*
X46519D2*
X76565D1*
X85733D2*
X116213D1*
X135379D2*
X184793D1*
X191962D2*
X222846D1*
X238133D2*
X283853D1*
X303019D2*
X352433D1*
X359602D2*
X390486D1*
X478163D2*
X508673D1*
X523690D2*
X554393D1*
X565764D2*
X596273D1*
X619133D2*
X649643D1*
X664660D2*
X695363D1*
X706734D2*
X737243D1*
X760103D2*
X790613D1*
X805630D2*
X836333D1*
X847704D2*
X878213D1*
X-809611Y-1006340D2*
X-779137D1*
X-764332D2*
X-733417D1*
X-721987D2*
X-691509D1*
X-672425D2*
X-639313D1*
X-617971D2*
X-582786D1*
X-569587D2*
X-539107D1*
X-515101D2*
X-481988D1*
X-447667D2*
X-432427D1*
X-397942D2*
X-366585D1*
X-344846D2*
X-308258D1*
X-287601D2*
X-256731D1*
X-234102D2*
X-200048D1*
X-180967D2*
X-150487D1*
X-127581D2*
X-96711D1*
X-74082D2*
X-40028D1*
X-12856D2*
X20815D1*
X44729D2*
X75445D1*
X85733D2*
X116213D1*
X135263D2*
X184793D1*
X192007D2*
X222862D1*
X238133D2*
X283853D1*
X302903D2*
X352433D1*
X359662D2*
X390502D1*
X424823D2*
X440063D1*
X478163D2*
X508963D1*
X523243D2*
X554683D1*
X565473D2*
X596273D1*
X619133D2*
X649933D1*
X664213D2*
X695653D1*
X706443D2*
X737243D1*
X760103D2*
X790903D1*
X805183D2*
X836623D1*
X847413D2*
X878213D1*
X-809615Y-1010150D2*
X-779137D1*
X-764065D2*
X-733417D1*
X-721987D2*
X-691507D1*
X-672302D2*
X-629826D1*
X-627458D2*
X-583782D1*
X-568983D2*
X-528153D1*
X-524588D2*
X-482111D1*
X-451317D2*
X-428320D1*
X-397471D2*
X-356201D1*
X-353358D2*
X-309369D1*
X-287630D2*
X-256998D1*
X-239147D2*
X-200171D1*
X-180967D2*
X-150487D1*
X-127610D2*
X-96978D1*
X-79127D2*
X-40151D1*
X-16653D2*
X20314D1*
X42985D2*
X74292D1*
X85733D2*
X116213D1*
X191561D2*
X222739D1*
X238133D2*
X283853D1*
X359261D2*
X390379D1*
X421173D2*
X444170D1*
X478178D2*
X509655D1*
X520888D2*
X555375D1*
X564781D2*
X596273D1*
X619148D2*
X650625D1*
X661858D2*
X696345D1*
X705751D2*
X737243D1*
X760118D2*
X791595D1*
X802828D2*
X837315D1*
X846721D2*
X878213D1*
X-809616Y-1013960D2*
X-779137D1*
X-763958D2*
X-733417D1*
X-721987D2*
X-691507D1*
X-671806D2*
X-584891D1*
X-567904D2*
X-482608D1*
X-454490D2*
X-425187D1*
X-396435D2*
X-310534D1*
X-287641D2*
X-257105D1*
X-243784D2*
X-200668D1*
X-180967D2*
X-150487D1*
X-127621D2*
X-97085D1*
X-83764D2*
X-40648D1*
X-20269D2*
X19268D1*
X41457D2*
X73010D1*
X85733D2*
X116213D1*
X188109D2*
X222242D1*
X253373D2*
X283853D1*
X356035D2*
X389882D1*
X418000D2*
X447303D1*
X478312D2*
X512624D1*
X515222D2*
X558344D1*
X561812D2*
X596258D1*
X619282D2*
X653594D1*
X656192D2*
X699314D1*
X702782D2*
X737228D1*
X760252D2*
X794564D1*
X797162D2*
X840284D1*
X843752D2*
X878198D1*
X-809616Y-1017770D2*
X-779137D1*
X-763918D2*
X-733417D1*
X-721987D2*
X-691507D1*
X-670745D2*
X-586282D1*
X-566418D2*
X-483668D1*
X-456752D2*
X-423093D1*
X-394962D2*
X-311949D1*
X-287645D2*
X-257145D1*
X-247348D2*
X-201728D1*
X-180967D2*
X-150487D1*
X-127625D2*
X-97125D1*
X-87328D2*
X-41708D1*
X-23051D2*
X17790D1*
X40106D2*
X71738D1*
X85733D2*
X116213D1*
X180111D2*
X221182D1*
X253373D2*
X283853D1*
X337193D2*
D3*
X347407D2*
X388822D1*
X415738D2*
X449397D1*
X478798D2*
X596125D1*
X619768D2*
X737095D1*
X760738D2*
X878065D1*
X-809617Y-1021580D2*
X-779137D1*
X-763904D2*
X-733417D1*
X-721987D2*
X-691507D1*
X-669135D2*
X-588046D1*
X-564689D2*
X-485279D1*
X-458023D2*
X-421935D1*
X-393222D2*
X-313722D1*
X-287646D2*
X-257159D1*
X-248507D2*
X-203339D1*
X-180967D2*
X-150487D1*
X-127626D2*
X-97139D1*
X-88487D2*
X-43319D1*
X-23952D2*
X16065D1*
X38631D2*
X70521D1*
X85733D2*
X116213D1*
X171827D2*
X219571D1*
X253373D2*
X283853D1*
X333398D2*
X387211D1*
X414467D2*
X450555D1*
X479725D2*
X595624D1*
X620695D2*
X736594D1*
X761665D2*
X877564D1*
X-809617Y-1025390D2*
X-779137D1*
X-763899D2*
X-733417D1*
X-721987D2*
X-691507D1*
X-666909D2*
X-590336D1*
X-562709D2*
X-487505D1*
X-458496D2*
X-421397D1*
X-391124D2*
X-316000D1*
X-287646D2*
X-257164D1*
X-249115D2*
X-205565D1*
X-180967D2*
X-150487D1*
X-127626D2*
X-97144D1*
X-89095D2*
X-45545D1*
X-24423D2*
X14085D1*
X36963D2*
X69214D1*
X85733D2*
X116213D1*
X165071D2*
X217345D1*
X253373D2*
X283853D1*
X329752D2*
X384985D1*
X413994D2*
X451093D1*
X480851D2*
X594563D1*
X621821D2*
X735533D1*
X762791D2*
X876503D1*
X-809617Y-1029200D2*
X-779137D1*
X-763897D2*
X-733417D1*
X-721987D2*
X-691507D1*
X-663883D2*
X-593387D1*
X-560187D2*
X-490531D1*
X-458474D2*
X-421323D1*
X-388251D2*
X-318932D1*
X-287647D2*
X-257166D1*
X-249381D2*
X-208591D1*
X-180967D2*
X-150487D1*
X-127627D2*
X-97146D1*
X-89361D2*
X-48571D1*
X-24629D2*
X11563D1*
X35175D2*
X67933D1*
X85733D2*
X116213D1*
X160150D2*
X214319D1*
X253373D2*
X283853D1*
X326740D2*
X381959D1*
X414016D2*
X451167D1*
X482150D2*
X592952D1*
X623120D2*
X733922D1*
X764090D2*
X874892D1*
X-809617Y-1033010D2*
X-779137D1*
X-763897D2*
X-733417D1*
X-721987D2*
X-691507D1*
X-659899D2*
X-597379D1*
X-556609D2*
X-494514D1*
X-456776D2*
X-421607D1*
X-384249D2*
X-322582D1*
X-287647D2*
X-257166D1*
X-249487D2*
X-212574D1*
X-180967D2*
X-150487D1*
X-127627D2*
X-97146D1*
X-89467D2*
X-52554D1*
X-24711D2*
X7986D1*
X33327D2*
X66710D1*
X85733D2*
X116213D1*
X156270D2*
X210336D1*
X253373D2*
X283853D1*
X324521D2*
X377976D1*
X415714D2*
X450883D1*
X484065D2*
X590725D1*
X625035D2*
X731695D1*
X766005D2*
X872665D1*
X-809617Y-1036820D2*
X-779137D1*
X-763897D2*
X-733417D1*
X-721987D2*
X-691507D1*
X-654758D2*
X-602524D1*
X-551701D2*
X-499655D1*
X-454232D2*
X-423495D1*
X-379299D2*
X-327371D1*
X-287647D2*
X-257167D1*
X-249526D2*
X-217715D1*
X-180967D2*
X-150487D1*
X-127627D2*
X-97147D1*
X-89506D2*
X-57695D1*
X-24741D2*
X3078D1*
X31542D2*
X65384D1*
X85733D2*
X116213D1*
X157476D2*
X205195D1*
X253373D2*
X283853D1*
X324260D2*
X372835D1*
X418258D2*
X448995D1*
X486895D2*
X587703D1*
X627865D2*
X728673D1*
X768835D2*
X869643D1*
X-809617Y-1040630D2*
X-779137D1*
X-763897D2*
X-733417D1*
X-721987D2*
X-691507D1*
X-648595D2*
X-608688D1*
X-545654D2*
X-505818D1*
X-451072D2*
X-427671D1*
X-373664D2*
X-333703D1*
X-287647D2*
X-257167D1*
X-249540D2*
X-223878D1*
X-180967D2*
X-150487D1*
X-127627D2*
X-97147D1*
X-89520D2*
X-63858D1*
X-24752D2*
X-2969D1*
X29963D2*
X64072D1*
X85733D2*
X116213D1*
X161280D2*
X199032D1*
X253373D2*
X283853D1*
X328596D2*
X366672D1*
X421418D2*
X444819D1*
X490738D2*
X530803D1*
X543634D2*
X583765D1*
X631708D2*
X671773D1*
X684604D2*
X724735D1*
X772678D2*
X812743D1*
X825574D2*
X865705D1*
X-809617Y-1044440D2*
X-779137D1*
X-763897D2*
X-733417D1*
X-721987D2*
X-691507D1*
X-641977D2*
X-615307D1*
X-539107D2*
X-512437D1*
X-447667D2*
X-432427D1*
X-367657D2*
X-340987D1*
X-287647D2*
X-257167D1*
X-249547D2*
X-230497D1*
X-180967D2*
X-150487D1*
X-127627D2*
X-97147D1*
X-89527D2*
X-70477D1*
X-24757D2*
X-9517D1*
X28583D2*
X62873D1*
X85733D2*
X116213D1*
X165743D2*
X192413D1*
X253373D2*
X283853D1*
X333383D2*
X360053D1*
X424823D2*
X440063D1*
X495599D2*
X525656D1*
X548781D2*
X578862D1*
X636569D2*
X666626D1*
X689751D2*
X719832D1*
X777539D2*
X807596D1*
X830721D2*
X860802D1*
X501023Y-1048250D2*
X520073D1*
X554363D2*
X573413D1*
X641993D2*
X661043D1*
X695333D2*
X714383D1*
X782963D2*
X802013D1*
X836303D2*
X855353D1*
X-1109553Y-3981560D2*
D13*
X-1115216Y-3984060D1*
X-1119896Y-3986560D1*
X-1123587Y-3989060D1*
X-1126566Y-3991560D1*
X-1128979Y-3994060D1*
X-1130877Y-3996560D1*
X-1132355Y-3999060D1*
X-1133416Y-4001560D1*
X-1134033Y-4004060D1*
X-1134336Y-4006560D1*
X-1134469Y-4009060D1*
X-1134512Y-4011560D1*
X-1134445Y-4014060D1*
X-1134124Y-4016560D1*
X-1133430Y-4019060D1*
X-1132373Y-4021560D1*
X-1130913Y-4024060D1*
X-1128930Y-4026560D1*
X-1126346Y-4029060D1*
X-1123129Y-4031560D1*
X-1119553Y-4034060D1*
X-1084553Y-3981560D2*
X-1078504Y-3984060D1*
X-1073214Y-3986560D1*
X-1068954Y-3989060D1*
X-1065778Y-3991560D1*
X-1063491Y-3994060D1*
X-1061759Y-3996560D1*
X-1060313Y-3999060D1*
X-1059073Y-4001560D1*
X-1058119Y-4004060D1*
X-1057557Y-4006560D1*
X-1057359Y-4009060D1*
X-1057551Y-4011560D1*
X-1058108Y-4014060D1*
X-1058827Y-4016560D1*
X-1059673Y-4019060D1*
X-1060917Y-4021560D1*
X-1062688Y-4024060D1*
X-1064919Y-4026560D1*
X-1067646Y-4029060D1*
X-1070934Y-4031560D1*
X-1074553Y-4034060D1*
X-1109553Y-3989060D2*
X-1114439Y-3991560D1*
X-1118933Y-3994060D1*
X-1122589Y-3996560D1*
X-1125236Y-3999060D1*
X-1127087Y-4001560D1*
X-1128312Y-4004060D1*
X-1128994Y-4006560D1*
X-1129313Y-4009060D1*
X-1129367Y-4011560D1*
X-1129085Y-4014060D1*
X-1128312Y-4016560D1*
X-1127148Y-4019060D1*
X-1124458Y-4021560D1*
X-1120863Y-4024060D1*
X-1116594Y-4026560D1*
X-1112053Y-4029060D1*
X-1113381Y-4031560D1*
X-1114553Y-4034060D1*
X-1082053Y-3989060D2*
X-1077545Y-3991560D1*
X-1073592Y-3994060D1*
X-1070353Y-3996560D1*
X-1067853Y-3999060D1*
X-1066105Y-4001560D1*
X-1064882Y-4004060D1*
X-1063937Y-4006560D1*
X-1063205Y-4009060D1*
X-1063472Y-4011560D1*
X-1063994Y-4014060D1*
X-1064750Y-4016560D1*
X-1065786Y-4019060D1*
X-1068316Y-4021560D1*
X-1071956Y-4024060D1*
X-1076331Y-4026560D1*
X-1080143Y-4029060D1*
X-1082686Y-4031560D1*
X-1084553Y-4034060D1*
X-1114553Y-4051560D2*
X-1116762Y-4054060D1*
X-1118973Y-4056560D1*
X-1121512Y-4059060D1*
X-1124524Y-4061560D1*
X-1127732Y-4064060D1*
X-1130619Y-4066560D1*
X-1132804Y-4069060D1*
X-1134553Y-4071560D1*
X-1109553Y-4051560D2*
X-1110804Y-4054060D1*
X-1112266Y-4056560D1*
X-1113803Y-4059060D1*
X-1115494Y-4061560D1*
X-1117453Y-4064060D1*
X-1119553Y-4066560D1*
X-1057053D2*
Y-4069060D1*
Y-4071560D1*
X-1102053Y-4094060D2*
X-1112718Y-4096560D1*
X-1120881Y-4099060D1*
X-1126584Y-4101560D1*
X-1130868Y-4104060D1*
X-1132950Y-4106560D1*
X-1133784Y-4109060D1*
X-1134229Y-4111560D1*
X-1134418Y-4114060D1*
X-1134410Y-4116560D1*
X-1134101Y-4119060D1*
X-1133328Y-4121560D1*
X-1131936Y-4124060D1*
X-1129697Y-4126560D1*
X-1126391Y-4129060D1*
X-1122025Y-4131560D1*
X-1117053Y-4134060D1*
X-1089553Y-4094060D2*
X-1079574Y-4096560D1*
X-1072005Y-4099060D1*
X-1066829Y-4101560D1*
X-1063362Y-4104060D1*
X-1061011Y-4106560D1*
X-1059354Y-4109060D1*
X-1058236Y-4111560D1*
X-1057684Y-4114060D1*
X-1057701Y-4116560D1*
X-1058262Y-4119060D1*
X-1059274Y-4121560D1*
X-1060812Y-4124060D1*
X-1063204Y-4126560D1*
X-1066791Y-4129060D1*
X-1071606Y-4131560D1*
X-1077053Y-4134060D1*
X-1114553Y-4101560D2*
X-1119052Y-4104060D1*
X-1122917Y-4106560D1*
X-1125838Y-4109060D1*
X-1128057Y-4111560D1*
X-1128725Y-4114060D1*
X-1128997Y-4116560D1*
X-1128098Y-4119060D1*
X-1125373Y-4121560D1*
X-1121220Y-4124060D1*
X-1115695Y-4126560D1*
X-1109553Y-4129060D1*
X-1082053Y-4101560D2*
X-1075631Y-4104060D1*
X-1070537Y-4106560D1*
X-1067069Y-4109060D1*
X-1064539Y-4111560D1*
X-1063501Y-4114060D1*
X-1063799Y-4116560D1*
X-1065605Y-4119060D1*
X-1068454Y-4121560D1*
X-1072750Y-4124060D1*
X-1078357Y-4126560D1*
X-1084553Y-4129060D1*
X-128280Y448643D2*
Y446143D1*
Y443643D1*
Y441143D1*
Y438643D1*
Y436143D1*
Y433643D1*
Y431143D1*
Y428643D1*
Y426143D1*
Y423643D1*
Y421143D1*
Y418643D1*
Y416143D1*
Y413643D1*
Y411143D1*
Y408643D1*
Y406143D1*
Y403643D1*
Y401143D1*
Y398643D1*
Y396143D1*
X-138280D1*
Y393643D1*
Y391143D1*
Y388643D1*
X-128280D1*
Y386143D1*
Y383643D1*
Y381143D1*
Y378643D1*
Y376143D1*
Y373643D1*
Y371143D1*
X-123280Y448643D2*
X-121730Y446143D1*
X-120304Y443643D1*
X-118965Y441143D1*
X-117670Y438643D1*
X-116325Y436143D1*
X-114831Y433643D1*
X-113218Y431143D1*
X-111687Y428643D1*
X-110281Y426143D1*
X-108955Y423643D1*
X-107675Y421143D1*
X-106411Y418643D1*
X-105158Y416143D1*
X-103905Y413643D1*
X-102647Y411143D1*
X-101316Y408643D1*
X-99837Y406143D1*
X-98315Y403643D1*
X-97113Y401143D1*
X-96394Y398643D1*
X-96037Y396143D1*
X-95880Y393643D1*
X-95815Y391143D1*
X-95780Y388643D1*
X-123280D1*
Y386143D1*
Y383643D1*
Y381143D1*
Y378643D1*
Y376143D1*
Y373643D1*
Y371143D1*
X-75780Y448643D2*
X-78270Y446143D1*
X-80673Y443643D1*
X-82766Y441143D1*
X-84339Y438643D1*
X-85502Y436143D1*
X-86508Y433643D1*
X-87316Y431143D1*
X-87734Y428643D1*
X-87673Y426143D1*
X-87180Y423643D1*
X-86499Y421143D1*
X-85752Y418643D1*
X-84830Y416143D1*
X-83679Y413643D1*
X-82273Y411143D1*
X-80687Y408643D1*
X-79082Y406143D1*
X-77353Y403643D1*
X-75341Y401143D1*
X-73093Y398643D1*
X-70706Y396143D1*
X-68253Y393643D1*
X-65780Y391143D1*
X-63374Y388643D1*
X-61195Y386143D1*
X-59295Y383643D1*
X-57443Y381143D1*
X-55417Y378643D1*
X-53280Y376143D1*
X-60780Y448643D2*
X-57221Y446143D1*
X-54333Y443643D1*
X-52167Y441143D1*
X-50563Y438643D1*
X-49449Y436143D1*
X-48810Y433643D1*
X-48484Y431143D1*
X-48280Y428643D1*
X1720Y448643D2*
X-1538Y446143D1*
X-4048Y443643D1*
X-5936Y441143D1*
X-7463Y438643D1*
X-8738Y436143D1*
X-9706Y433643D1*
X-10283Y431143D1*
X-10581Y428643D1*
X-10796Y426143D1*
X-11166Y423643D1*
X-11784Y421143D1*
X-12432Y418643D1*
X-12871Y416143D1*
X-13103Y413643D1*
X-13210Y411143D1*
X-13244Y408643D1*
X-13173Y406143D1*
X-12861Y403643D1*
X-12264Y401143D1*
X-11624Y398643D1*
X-11188Y396143D1*
X-10946Y393643D1*
X-10752Y391143D1*
X-10380Y388643D1*
X-9677Y386143D1*
X-8701Y383643D1*
X-7557Y381143D1*
X-6172Y378643D1*
X-4236Y376143D1*
X-1492Y373643D1*
X1720Y371143D1*
X14220Y448643D2*
X16625Y446143D1*
X18795Y443643D1*
X20598Y441143D1*
X22050Y438643D1*
X23187Y436143D1*
X24118Y433643D1*
X25018Y431143D1*
X25792Y428643D1*
X26281Y426143D1*
X26533Y423643D1*
X26646Y421143D1*
X26693Y418643D1*
X26710Y416143D1*
X26717Y413643D1*
X26719Y411143D1*
X26720Y408643D1*
Y406143D1*
Y403643D1*
Y401143D1*
Y398643D1*
X26710Y396143D1*
X26622Y393643D1*
X26294Y391143D1*
X25607Y388643D1*
X24638Y386143D1*
X23506Y383643D1*
X22207Y381143D1*
X20555Y378643D1*
X18238Y376143D1*
X15184Y373643D1*
X11720Y371143D1*
X-68280Y443643D2*
X-72393Y441143D1*
X-75637Y438643D1*
X-77911Y436143D1*
X-79615Y433643D1*
X-80214Y431143D1*
X-80529Y428643D1*
X-80588Y426143D1*
X-80319Y423643D1*
X-79655Y421143D1*
X-78694Y418643D1*
X-77564Y416143D1*
X-76276Y413643D1*
X-74719Y411143D1*
X-72788Y408643D1*
X-70573Y406143D1*
X-68199Y403643D1*
X-65750Y401143D1*
X-63269Y398643D1*
X-60786Y396143D1*
X-58376Y393643D1*
X-56196Y391143D1*
X-54305Y388643D1*
X-52543Y386143D1*
X-50886Y383643D1*
X-49545Y381143D1*
X-48486Y378643D1*
X-47502Y376143D1*
X-46593Y373643D1*
X-45780Y371143D1*
X-63280Y443643D2*
X-60790Y441143D1*
X-58387Y438643D1*
X-56303Y436143D1*
X-54809Y433643D1*
X-53908Y431143D1*
X-53280Y428643D1*
X4220Y443643D2*
X1815Y441143D1*
X-355Y438643D1*
X-2158Y436143D1*
X-3600Y433643D1*
X-4649Y431143D1*
X-5261Y428643D1*
X-5563Y426143D1*
X-5696Y423643D1*
X-5749Y421143D1*
X-5769Y418643D1*
X-5776Y416143D1*
X-5779Y413643D1*
X-5780Y411143D1*
Y408643D1*
Y406143D1*
Y403643D1*
Y401143D1*
Y398643D1*
X-5770Y396143D1*
X-5682Y393643D1*
X-5354Y391143D1*
X-4658Y388643D1*
X-3561Y386143D1*
X-2151Y383643D1*
X1596Y381143D1*
X7277Y378643D1*
X14220Y376143D1*
X11720Y443643D2*
X13824Y441143D1*
X15606Y438643D1*
X17053Y436143D1*
X18188Y433643D1*
X19118Y431143D1*
X20018Y428643D1*
X20792Y426143D1*
X21281Y423643D1*
X21533Y421143D1*
X21646Y418643D1*
X21693Y416143D1*
X21710Y413643D1*
X21717Y411143D1*
X21719Y408643D1*
X21720Y406143D1*
Y403643D1*
X21710Y401143D1*
X21622Y398643D1*
X21304Y396143D1*
X20695Y393643D1*
X19966Y391143D1*
X19202Y388643D1*
X18235Y386143D1*
X17047Y383643D1*
X14436Y381143D1*
X8573Y378643D1*
X1720Y376143D1*
X-123280Y431143D2*
Y428643D1*
Y426143D1*
Y423643D1*
Y421143D1*
Y418643D1*
Y416143D1*
Y413643D1*
Y411143D1*
Y408643D1*
Y406143D1*
Y403643D1*
Y401143D1*
Y398643D1*
X-103280Y396143D1*
X-120780Y431143D2*
X-118676Y428643D1*
X-116884Y426143D1*
X-115359Y423643D1*
X-113984Y421143D1*
X-112686Y418643D1*
X-111415Y416143D1*
X-110150Y413643D1*
X-108817Y411143D1*
X-107328Y408643D1*
X-105710Y406143D1*
X-104113Y403643D1*
X-102487Y401143D1*
X-100780Y398643D1*
X-118280Y396143D1*
X-33280Y378643D2*
Y376143D1*
Y373643D1*
Y371143D1*
X-28280Y378643D2*
Y376143D1*
Y373643D1*
Y371143D1*
X-88280Y376143D2*
Y373643D1*
Y371143D1*
X-580403Y323593D2*
Y321093D1*
Y318593D1*
Y316093D1*
Y313593D1*
Y311093D1*
Y308593D1*
Y306093D1*
Y303593D1*
Y301093D1*
Y298593D1*
Y296093D1*
Y293593D1*
Y291093D1*
Y288593D1*
Y286093D1*
Y283593D1*
Y281093D1*
Y278593D1*
Y276093D1*
Y273593D1*
Y271093D1*
X-590403D1*
Y268593D1*
Y266093D1*
Y263593D1*
X-580403D1*
Y261093D1*
Y258593D1*
Y256093D1*
Y253593D1*
Y251093D1*
Y248593D1*
Y246093D1*
X-575403Y323593D2*
X-573853Y321093D1*
X-572427Y318593D1*
X-571088Y316093D1*
X-569793Y313593D1*
X-568448Y311093D1*
X-566954Y308593D1*
X-565342Y306093D1*
X-563810Y303593D1*
X-562405Y301093D1*
X-561078Y298593D1*
X-559799Y296093D1*
X-558534Y293593D1*
X-557282Y291093D1*
X-556028Y288593D1*
X-554770Y286093D1*
X-553440Y283593D1*
X-551961Y281093D1*
X-550438Y278593D1*
X-549236Y276093D1*
X-548517Y273593D1*
X-548160Y271093D1*
X-548003Y268593D1*
X-547938Y266093D1*
X-547903Y263593D1*
X-575403D1*
Y261093D1*
Y258593D1*
Y256093D1*
Y253593D1*
Y251093D1*
Y248593D1*
Y246093D1*
X-525403Y323593D2*
X-528661Y321093D1*
X-531172Y318593D1*
X-533059Y316093D1*
X-534586Y313593D1*
X-535862Y311093D1*
X-536829Y308593D1*
X-537406Y306093D1*
X-537704Y303593D1*
X-537919Y301093D1*
X-538289Y298593D1*
X-538908Y296093D1*
X-539556Y293593D1*
X-539994Y291093D1*
X-540227Y288593D1*
X-540333Y286093D1*
X-540367Y283593D1*
X-540296Y281093D1*
X-539984Y278593D1*
X-539387Y276093D1*
X-538747Y273593D1*
X-538311Y271093D1*
X-538070Y268593D1*
X-537876Y266093D1*
X-537504Y263593D1*
X-536800Y261093D1*
X-535825Y258593D1*
X-534680Y256093D1*
X-533296Y253593D1*
X-531359Y251093D1*
X-528615Y248593D1*
X-525403Y246093D1*
X-512903Y323593D2*
X-510499Y321093D1*
X-508329Y318593D1*
X-506526Y316093D1*
X-505073Y313593D1*
X-503936Y311093D1*
X-503006Y308593D1*
X-502105Y306093D1*
X-501332Y303593D1*
X-500842Y301093D1*
X-500590Y298593D1*
X-500477Y296093D1*
X-500431Y293593D1*
X-500413Y291093D1*
X-500407Y288593D1*
X-500404Y286093D1*
Y283593D1*
X-500403Y281093D1*
Y278593D1*
Y276093D1*
Y273593D1*
X-500413Y271093D1*
X-500501Y268593D1*
X-500829Y266093D1*
X-501516Y263593D1*
X-502485Y261093D1*
X-503618Y258593D1*
X-504917Y256093D1*
X-506569Y253593D1*
X-508885Y251093D1*
X-511940Y248593D1*
X-515403Y246093D1*
X-452903Y323593D2*
Y321093D1*
Y318593D1*
Y316093D1*
Y313593D1*
Y311093D1*
Y308593D1*
Y306093D1*
Y303593D1*
Y301093D1*
Y298593D1*
Y296093D1*
Y293593D1*
Y291093D1*
Y288593D1*
Y286093D1*
Y283593D1*
Y281093D1*
Y278593D1*
Y276093D1*
Y273593D1*
Y271093D1*
Y268593D1*
Y266093D1*
Y263593D1*
Y261093D1*
Y258593D1*
Y256093D1*
Y253593D1*
Y251093D1*
Y248593D1*
Y246093D1*
X-447903Y323593D2*
X-446944Y321093D1*
X-445782Y318593D1*
X-444292Y316093D1*
X-442391Y313593D1*
X-440189Y311093D1*
X-437829Y308593D1*
X-435477Y306093D1*
X-433384Y303593D1*
X-431746Y301093D1*
X-430403Y298593D1*
X-522903Y318593D2*
X-525308Y316093D1*
X-527478Y313593D1*
X-529281Y311093D1*
X-530724Y308593D1*
X-531773Y306093D1*
X-532385Y303593D1*
X-532687Y301093D1*
X-532819Y298593D1*
X-532872Y296093D1*
X-532892Y293593D1*
X-532900Y291093D1*
X-532902Y288593D1*
X-532903Y286093D1*
Y283593D1*
Y281093D1*
Y278593D1*
Y276093D1*
Y273593D1*
X-532894Y271093D1*
X-532806Y268593D1*
X-532477Y266093D1*
X-531781Y263593D1*
X-530685Y261093D1*
X-529274Y258593D1*
X-525527Y256093D1*
X-519846Y253593D1*
X-512903Y251093D1*
X-515403Y318593D2*
X-513299Y316093D1*
X-511517Y313593D1*
X-510071Y311093D1*
X-508936Y308593D1*
X-508005Y306093D1*
X-507105Y303593D1*
X-506332Y301093D1*
X-505842Y298593D1*
X-505590Y296093D1*
X-505477Y293593D1*
X-505431Y291093D1*
X-505413Y288593D1*
X-505407Y286093D1*
X-505404Y283593D1*
Y281093D1*
X-505403Y278593D1*
X-505413Y276093D1*
X-505501Y273593D1*
X-505820Y271093D1*
X-506428Y268593D1*
X-507157Y266093D1*
X-507921Y263593D1*
X-508889Y261093D1*
X-510077Y258593D1*
X-512687Y256093D1*
X-518551Y253593D1*
X-525403Y251093D1*
X-575403Y306093D2*
Y303593D1*
Y301093D1*
Y298593D1*
Y296093D1*
Y293593D1*
Y291093D1*
Y288593D1*
Y286093D1*
Y283593D1*
Y281093D1*
Y278593D1*
Y276093D1*
Y273593D1*
X-555403Y271093D1*
X-572903Y306093D2*
X-570799Y303593D1*
X-569007Y301093D1*
X-567483Y298593D1*
X-566107Y296093D1*
X-564809Y293593D1*
X-563538Y291093D1*
X-562273Y288593D1*
X-560941Y286093D1*
X-559451Y283593D1*
X-557833Y281093D1*
X-556236Y278593D1*
X-554610Y276093D1*
X-552903Y273593D1*
X-570403Y271093D1*
X-445403Y306093D2*
Y303593D1*
Y301093D1*
Y298593D1*
Y296093D1*
Y293593D1*
Y291093D1*
Y288593D1*
Y286093D1*
Y283593D1*
Y281093D1*
Y278593D1*
Y276093D1*
Y273593D1*
Y271093D1*
Y268593D1*
Y266093D1*
Y263593D1*
Y261093D1*
Y258593D1*
Y256093D1*
Y253593D1*
Y251093D1*
Y248593D1*
Y246093D1*
X-442903Y306093D2*
X-440403Y303593D1*
X-437903Y301093D1*
X-435403Y298593D1*
X-485403Y253593D2*
Y251093D1*
Y248593D1*
Y246093D1*
X-480403Y253593D2*
Y251093D1*
Y248593D1*
Y246093D1*
X-121957Y187103D2*
X-124447Y184603D1*
X-126849Y182103D1*
X-128943Y179603D1*
X-130516Y177103D1*
X-131678Y174603D1*
X-132685Y172103D1*
X-133492Y169603D1*
X-133911Y167103D1*
X-133850Y164603D1*
X-133357Y162103D1*
X-132675Y159603D1*
X-131929Y157103D1*
X-131007Y154603D1*
X-129856Y152103D1*
X-128449Y149603D1*
X-126864Y147103D1*
X-125258Y144603D1*
X-123529Y142103D1*
X-121518Y139603D1*
X-119270Y137103D1*
X-116883Y134603D1*
X-114429Y132103D1*
X-111957Y129603D1*
X-109551Y127103D1*
X-107372Y124603D1*
X-105472Y122103D1*
X-103619Y119603D1*
X-101593Y117103D1*
X-99457Y114603D1*
X-106957Y187103D2*
X-103398Y184603D1*
X-100510Y182103D1*
X-98344Y179603D1*
X-96740Y177103D1*
X-95625Y174603D1*
X-94987Y172103D1*
X-94660Y169603D1*
X-94457Y167103D1*
X-69457Y187103D2*
X-72715Y184603D1*
X-75225Y182103D1*
X-77113Y179603D1*
X-78639Y177103D1*
X-79915Y174603D1*
X-80883Y172103D1*
X-81460Y169603D1*
X-81758Y167103D1*
X-81973Y164603D1*
X-82343Y162103D1*
X-82961Y159603D1*
X-83609Y157103D1*
X-84047Y154603D1*
X-84280Y152103D1*
X-84386Y149603D1*
X-84421Y147103D1*
X-84350Y144603D1*
X-84037Y142103D1*
X-83441Y139603D1*
X-82800Y137103D1*
X-82365Y134603D1*
X-82123Y132103D1*
X-81929Y129603D1*
X-81557Y127103D1*
X-80853Y124603D1*
X-79878Y122103D1*
X-78734Y119603D1*
X-77349Y117103D1*
X-75412Y114603D1*
X-72669Y112103D1*
X-69457Y109603D1*
X-56957Y187103D2*
X-54552Y184603D1*
X-52382Y182103D1*
X-50579Y179603D1*
X-49127Y177103D1*
X-47990Y174603D1*
X-47059Y172103D1*
X-46158Y169603D1*
X-45385Y167103D1*
X-44896Y164603D1*
X-44644Y162103D1*
X-44531Y159603D1*
X-44484Y157103D1*
X-44466Y154603D1*
X-44460Y152103D1*
X-44458Y149603D1*
X-44457Y147103D1*
Y144603D1*
Y142103D1*
Y139603D1*
Y137103D1*
X-44466Y134603D1*
X-44554Y132103D1*
X-44883Y129603D1*
X-45569Y127103D1*
X-46539Y124603D1*
X-47671Y122103D1*
X-48970Y119603D1*
X-50622Y117103D1*
X-52938Y114603D1*
X-55993Y112103D1*
X-59457Y109603D1*
X3043Y187103D2*
Y184603D1*
Y182103D1*
Y179603D1*
Y177103D1*
Y174603D1*
Y172103D1*
Y169603D1*
Y167103D1*
Y164603D1*
Y162103D1*
Y159603D1*
Y157103D1*
Y154603D1*
Y152103D1*
Y149603D1*
Y147103D1*
Y144603D1*
Y142103D1*
Y139603D1*
Y137103D1*
Y134603D1*
Y132103D1*
Y129603D1*
Y127103D1*
Y124603D1*
Y122103D1*
Y119603D1*
Y117103D1*
Y114603D1*
Y112103D1*
Y109603D1*
X8043Y187103D2*
X9003Y184603D1*
X10165Y182103D1*
X11655Y179603D1*
X13556Y177103D1*
X15758Y174603D1*
X18117Y172103D1*
X20469Y169603D1*
X22563Y167103D1*
X24201Y164603D1*
X25543Y162103D1*
X-114457Y182103D2*
X-118569Y179603D1*
X-121814Y177103D1*
X-124088Y174603D1*
X-125792Y172103D1*
X-126391Y169603D1*
X-126706Y167103D1*
X-126764Y164603D1*
X-126496Y162103D1*
X-125832Y159603D1*
X-124870Y157103D1*
X-123741Y154603D1*
X-122453Y152103D1*
X-120896Y149603D1*
X-118964Y147103D1*
X-116749Y144603D1*
X-114376Y142103D1*
X-111927Y139603D1*
X-109446Y137103D1*
X-106963Y134603D1*
X-104553Y132103D1*
X-102373Y129603D1*
X-100481Y127103D1*
X-98720Y124603D1*
X-97063Y122103D1*
X-95722Y119603D1*
X-94663Y117103D1*
X-93679Y114603D1*
X-92769Y112103D1*
X-91957Y109603D1*
X-109457Y182103D2*
X-106966Y179603D1*
X-104564Y177103D1*
X-102480Y174603D1*
X-100986Y172103D1*
X-100085Y169603D1*
X-99457Y167103D1*
X-66957Y182103D2*
X-69361Y179603D1*
X-71531Y177103D1*
X-73334Y174603D1*
X-74777Y172103D1*
X-75826Y169603D1*
X-76438Y167103D1*
X-76740Y164603D1*
X-76872Y162103D1*
X-76926Y159603D1*
X-76946Y157103D1*
X-76953Y154603D1*
X-76955Y152103D1*
X-76956Y149603D1*
X-76957Y147103D1*
Y144603D1*
Y142103D1*
Y139603D1*
Y137103D1*
X-76947Y134603D1*
X-76859Y132103D1*
X-76531Y129603D1*
X-75834Y127103D1*
X-74738Y124603D1*
X-73328Y122103D1*
X-69580Y119603D1*
X-63900Y117103D1*
X-56957Y114603D1*
X-59457Y182103D2*
X-57353Y179603D1*
X-55570Y177103D1*
X-54124Y174603D1*
X-52989Y172103D1*
X-52059Y169603D1*
X-51158Y167103D1*
X-50385Y164603D1*
X-49896Y162103D1*
X-49644Y159603D1*
X-49531Y157103D1*
X-49484Y154603D1*
X-49466Y152103D1*
X-49460Y149603D1*
X-49458Y147103D1*
X-49457Y144603D1*
Y142103D1*
X-49466Y139603D1*
X-49554Y137103D1*
X-49873Y134603D1*
X-50481Y132103D1*
X-51210Y129603D1*
X-51975Y127103D1*
X-52942Y124603D1*
X-54130Y122103D1*
X-56741Y119603D1*
X-62604Y117103D1*
X-69457Y114603D1*
X10543Y169603D2*
Y167103D1*
Y164603D1*
Y162103D1*
Y159603D1*
Y157103D1*
Y154603D1*
Y152103D1*
Y149603D1*
Y147103D1*
Y144603D1*
Y142103D1*
Y139603D1*
Y137103D1*
Y134603D1*
Y132103D1*
Y129603D1*
Y127103D1*
Y124603D1*
Y122103D1*
Y119603D1*
Y117103D1*
Y114603D1*
Y112103D1*
Y109603D1*
X13043Y169603D2*
X15543Y167103D1*
X18043Y164603D1*
X20543Y162103D1*
X-29457Y117103D2*
Y114603D1*
Y112103D1*
Y109603D1*
X-24457Y117103D2*
Y114603D1*
Y112103D1*
Y109603D1*
X-134457Y114603D2*
Y112103D1*
Y109603D1*
X-597967Y68390D2*
X-600457Y65890D1*
X-602859Y63390D1*
X-604953Y60890D1*
X-606526Y58390D1*
X-607688Y55890D1*
X-608695Y53390D1*
X-609502Y50890D1*
X-609921Y48390D1*
X-609860Y45890D1*
X-609367Y43390D1*
X-608685Y40890D1*
X-607939Y38390D1*
X-607017Y35890D1*
X-605866Y33390D1*
X-604459Y30890D1*
X-602874Y28390D1*
X-601268Y25890D1*
X-599539Y23390D1*
X-597528Y20890D1*
X-595280Y18390D1*
X-592893Y15890D1*
X-590439Y13390D1*
X-587967Y10890D1*
X-585561Y8390D1*
X-583382Y5890D1*
X-581482Y3390D1*
X-579629Y890D1*
X-577603Y-1610D1*
X-575467Y-4110D1*
X-582967Y68390D2*
X-579408Y65890D1*
X-576520Y63390D1*
X-574354Y60890D1*
X-572750Y58390D1*
X-571635Y55890D1*
X-570997Y53390D1*
X-570670Y50890D1*
X-570467Y48390D1*
X-547967Y68390D2*
X-550457Y65890D1*
X-552859Y63390D1*
X-554953Y60890D1*
X-556526Y58390D1*
X-557688Y55890D1*
X-558695Y53390D1*
X-559502Y50890D1*
X-559921Y48390D1*
X-559860Y45890D1*
X-559367Y43390D1*
X-558685Y40890D1*
X-557939Y38390D1*
X-557017Y35890D1*
X-555866Y33390D1*
X-554459Y30890D1*
X-552874Y28390D1*
X-551268Y25890D1*
X-549539Y23390D1*
X-547528Y20890D1*
X-545280Y18390D1*
X-542893Y15890D1*
X-540439Y13390D1*
X-537967Y10890D1*
X-535561Y8390D1*
X-533382Y5890D1*
X-531482Y3390D1*
X-529629Y890D1*
X-527603Y-1610D1*
X-525467Y-4110D1*
X-532967Y68390D2*
X-529408Y65890D1*
X-526520Y63390D1*
X-524354Y60890D1*
X-522750Y58390D1*
X-521635Y55890D1*
X-520997Y53390D1*
X-520670Y50890D1*
X-520467Y48390D1*
X-470467Y68390D2*
X-473725Y65890D1*
X-476235Y63390D1*
X-478123Y60890D1*
X-479649Y58390D1*
X-480925Y55890D1*
X-481893Y53390D1*
X-482470Y50890D1*
X-482768Y48390D1*
X-482983Y45890D1*
X-483353Y43390D1*
X-483971Y40890D1*
X-484619Y38390D1*
X-485057Y35890D1*
X-485290Y33390D1*
X-485396Y30890D1*
X-485431Y28390D1*
X-485360Y25890D1*
X-485047Y23390D1*
X-484451Y20890D1*
X-483810Y18390D1*
X-483375Y15890D1*
X-483133Y13390D1*
X-482939Y10890D1*
X-482567Y8390D1*
X-481863Y5890D1*
X-480888Y3390D1*
X-479744Y890D1*
X-478359Y-1610D1*
X-476422Y-4110D1*
X-473679Y-6610D1*
X-470467Y-9110D1*
X-457967Y68390D2*
X-455562Y65890D1*
X-453392Y63390D1*
X-451589Y60890D1*
X-450137Y58390D1*
X-449000Y55890D1*
X-448069Y53390D1*
X-447168Y50890D1*
X-446395Y48390D1*
X-445906Y45890D1*
X-445654Y43390D1*
X-445541Y40890D1*
X-445494Y38390D1*
X-445476Y35890D1*
X-445470Y33390D1*
X-445468Y30890D1*
X-445467Y28390D1*
Y25890D1*
Y23390D1*
Y20890D1*
Y18390D1*
X-445476Y15890D1*
X-445564Y13390D1*
X-445893Y10890D1*
X-446579Y8390D1*
X-447549Y5890D1*
X-448681Y3390D1*
X-449980Y890D1*
X-451632Y-1610D1*
X-453948Y-4110D1*
X-457003Y-6610D1*
X-460467Y-9110D1*
X-590467Y63390D2*
X-594579Y60890D1*
X-597824Y58390D1*
X-600098Y55890D1*
X-601802Y53390D1*
X-602401Y50890D1*
X-602716Y48390D1*
X-602774Y45890D1*
X-602506Y43390D1*
X-601842Y40890D1*
X-600880Y38390D1*
X-599751Y35890D1*
X-598463Y33390D1*
X-596906Y30890D1*
X-594974Y28390D1*
X-592759Y25890D1*
X-590386Y23390D1*
X-587937Y20890D1*
X-585456Y18390D1*
X-582973Y15890D1*
X-580563Y13390D1*
X-578383Y10890D1*
X-576491Y8390D1*
X-574730Y5890D1*
X-573073Y3390D1*
X-571732Y890D1*
X-570673Y-1610D1*
X-569689Y-4110D1*
X-568779Y-6610D1*
X-567967Y-9110D1*
X-585467Y63390D2*
X-582976Y60890D1*
X-580574Y58390D1*
X-578490Y55890D1*
X-576996Y53390D1*
X-576095Y50890D1*
X-575467Y48390D1*
X-540467Y63390D2*
X-544579Y60890D1*
X-547824Y58390D1*
X-550098Y55890D1*
X-551802Y53390D1*
X-552401Y50890D1*
X-552716Y48390D1*
X-552774Y45890D1*
X-552506Y43390D1*
X-551842Y40890D1*
X-550880Y38390D1*
X-549751Y35890D1*
X-548463Y33390D1*
X-546906Y30890D1*
X-544974Y28390D1*
X-542759Y25890D1*
X-540386Y23390D1*
X-537937Y20890D1*
X-535456Y18390D1*
X-532973Y15890D1*
X-530563Y13390D1*
X-528383Y10890D1*
X-526491Y8390D1*
X-524730Y5890D1*
X-523073Y3390D1*
X-521732Y890D1*
X-520673Y-1610D1*
X-519689Y-4110D1*
X-518779Y-6610D1*
X-517967Y-9110D1*
X-535467Y63390D2*
X-532976Y60890D1*
X-530574Y58390D1*
X-528490Y55890D1*
X-526996Y53390D1*
X-526095Y50890D1*
X-525467Y48390D1*
X-467967Y63390D2*
X-470371Y60890D1*
X-472541Y58390D1*
X-474344Y55890D1*
X-475787Y53390D1*
X-476836Y50890D1*
X-477448Y48390D1*
X-477750Y45890D1*
X-477882Y43390D1*
X-477936Y40890D1*
X-477956Y38390D1*
X-477963Y35890D1*
X-477965Y33390D1*
X-477966Y30890D1*
X-477967Y28390D1*
Y25890D1*
Y23390D1*
Y20890D1*
Y18390D1*
X-477957Y15890D1*
X-477869Y13390D1*
X-477541Y10890D1*
X-476844Y8390D1*
X-475748Y5890D1*
X-474338Y3390D1*
X-470590Y890D1*
X-464910Y-1610D1*
X-457967Y-4110D1*
X-460467Y63390D2*
X-458363Y60890D1*
X-456580Y58390D1*
X-455134Y55890D1*
X-453999Y53390D1*
X-453069Y50890D1*
X-452168Y48390D1*
X-451395Y45890D1*
X-450906Y43390D1*
X-450654Y40890D1*
X-450541Y38390D1*
X-450494Y35890D1*
X-450476Y33390D1*
X-450470Y30890D1*
X-450468Y28390D1*
X-450467Y25890D1*
Y23390D1*
X-450476Y20890D1*
X-450564Y18390D1*
X-450883Y15890D1*
X-451491Y13390D1*
X-452220Y10890D1*
X-452985Y8390D1*
X-453952Y5890D1*
X-455140Y3390D1*
X-457751Y890D1*
X-463614Y-1610D1*
X-470467Y-4110D1*
X-505467Y-1610D2*
Y-4110D1*
Y-6610D1*
Y-9110D1*
X-500467Y-1610D2*
Y-4110D1*
Y-6610D1*
Y-9110D1*
X-610467Y-4110D2*
Y-6610D1*
Y-9110D1*
X-560467Y-4110D2*
Y-6610D1*
Y-9110D1*
X-122320Y-62643D2*
X-125578Y-65143D1*
X-128088Y-67643D1*
X-129976Y-70143D1*
X-131503Y-72643D1*
X-132778Y-75143D1*
X-133746Y-77643D1*
X-134323Y-80143D1*
X-134621Y-82643D1*
X-134836Y-85143D1*
X-135206Y-87643D1*
X-135824Y-90143D1*
X-136472Y-92643D1*
X-136911Y-95143D1*
X-137143Y-97643D1*
X-137250Y-100143D1*
X-137284Y-102643D1*
X-137213Y-105143D1*
X-136901Y-107643D1*
X-136304Y-110143D1*
X-135664Y-112643D1*
X-135228Y-115143D1*
X-134986Y-117643D1*
X-134792Y-120143D1*
X-134420Y-122643D1*
X-133717Y-125143D1*
X-132741Y-127643D1*
X-131597Y-130143D1*
X-130212Y-132643D1*
X-128276Y-135143D1*
X-125532Y-137643D1*
X-122320Y-140143D1*
X-109820Y-62643D2*
X-107415Y-65143D1*
X-105245Y-67643D1*
X-103442Y-70143D1*
X-101990Y-72643D1*
X-100853Y-75143D1*
X-99922Y-77643D1*
X-99022Y-80143D1*
X-98248Y-82643D1*
X-97759Y-85143D1*
X-97507Y-87643D1*
X-97394Y-90143D1*
X-97347Y-92643D1*
X-97330Y-95143D1*
X-97323Y-97643D1*
X-97321Y-100143D1*
X-97320Y-102643D1*
Y-105143D1*
Y-107643D1*
Y-110143D1*
Y-112643D1*
X-97330Y-115143D1*
X-97418Y-117643D1*
X-97746Y-120143D1*
X-98433Y-122643D1*
X-99402Y-125143D1*
X-100534Y-127643D1*
X-101833Y-130143D1*
X-103485Y-132643D1*
X-105802Y-135143D1*
X-108856Y-137643D1*
X-112320Y-140143D1*
X-72320Y-62643D2*
X-75578Y-65143D1*
X-78088Y-67643D1*
X-79976Y-70143D1*
X-81503Y-72643D1*
X-82778Y-75143D1*
X-83746Y-77643D1*
X-84323Y-80143D1*
X-84621Y-82643D1*
X-84836Y-85143D1*
X-85206Y-87643D1*
X-85824Y-90143D1*
X-86472Y-92643D1*
X-86911Y-95143D1*
X-87143Y-97643D1*
X-87250Y-100143D1*
X-87284Y-102643D1*
X-87213Y-105143D1*
X-86901Y-107643D1*
X-86304Y-110143D1*
X-85664Y-112643D1*
X-85228Y-115143D1*
X-84986Y-117643D1*
X-84792Y-120143D1*
X-84420Y-122643D1*
X-83717Y-125143D1*
X-82741Y-127643D1*
X-81597Y-130143D1*
X-80212Y-132643D1*
X-78276Y-135143D1*
X-75532Y-137643D1*
X-72320Y-140143D1*
X-59820Y-62643D2*
X-57415Y-65143D1*
X-55245Y-67643D1*
X-53442Y-70143D1*
X-51990Y-72643D1*
X-50853Y-75143D1*
X-49922Y-77643D1*
X-49022Y-80143D1*
X-48248Y-82643D1*
X-47759Y-85143D1*
X-47507Y-87643D1*
X-47394Y-90143D1*
X-47347Y-92643D1*
X-47330Y-95143D1*
X-47323Y-97643D1*
X-47321Y-100143D1*
X-47320Y-102643D1*
Y-105143D1*
Y-107643D1*
Y-110143D1*
Y-112643D1*
X-47330Y-115143D1*
X-47418Y-117643D1*
X-47746Y-120143D1*
X-48433Y-122643D1*
X-49402Y-125143D1*
X-50534Y-127643D1*
X-51833Y-130143D1*
X-53485Y-132643D1*
X-55802Y-135143D1*
X-58856Y-137643D1*
X-62320Y-140143D1*
X180Y-62643D2*
Y-65143D1*
Y-67643D1*
Y-70143D1*
Y-72643D1*
Y-75143D1*
Y-77643D1*
Y-80143D1*
Y-82643D1*
Y-85143D1*
Y-87643D1*
Y-90143D1*
Y-92643D1*
Y-95143D1*
Y-97643D1*
Y-100143D1*
Y-102643D1*
Y-105143D1*
Y-107643D1*
Y-110143D1*
Y-112643D1*
Y-115143D1*
Y-117643D1*
Y-120143D1*
Y-122643D1*
Y-125143D1*
Y-127643D1*
Y-130143D1*
Y-132643D1*
Y-135143D1*
Y-137643D1*
Y-140143D1*
X5180Y-62643D2*
X6140Y-65143D1*
X7302Y-67643D1*
X8791Y-70143D1*
X10692Y-72643D1*
X12895Y-75143D1*
X15254Y-77643D1*
X17606Y-80143D1*
X19700Y-82643D1*
X21338Y-85143D1*
X22680Y-87643D1*
X-119820Y-67643D2*
X-122225Y-70143D1*
X-124395Y-72643D1*
X-126198Y-75143D1*
X-127640Y-77643D1*
X-128689Y-80143D1*
X-129301Y-82643D1*
X-129603Y-85143D1*
X-129736Y-87643D1*
X-129789Y-90143D1*
X-129809Y-92643D1*
X-129816Y-95143D1*
X-129819Y-97643D1*
X-129820Y-100143D1*
Y-102643D1*
Y-105143D1*
Y-107643D1*
Y-110143D1*
Y-112643D1*
X-129810Y-115143D1*
X-129722Y-117643D1*
X-129394Y-120143D1*
X-128698Y-122643D1*
X-127601Y-125143D1*
X-126191Y-127643D1*
X-122444Y-130143D1*
X-116763Y-132643D1*
X-109820Y-135143D1*
X-112320Y-67643D2*
X-110216Y-70143D1*
X-108434Y-72643D1*
X-106987Y-75143D1*
X-105852Y-77643D1*
X-104922Y-80143D1*
X-104022Y-82643D1*
X-103248Y-85143D1*
X-102759Y-87643D1*
X-102507Y-90143D1*
X-102394Y-92643D1*
X-102347Y-95143D1*
X-102330Y-97643D1*
X-102323Y-100143D1*
X-102321Y-102643D1*
X-102320Y-105143D1*
Y-107643D1*
X-102330Y-110143D1*
X-102418Y-112643D1*
X-102736Y-115143D1*
X-103345Y-117643D1*
X-104074Y-120143D1*
X-104838Y-122643D1*
X-105805Y-125143D1*
X-106993Y-127643D1*
X-109604Y-130143D1*
X-115467Y-132643D1*
X-122320Y-135143D1*
X-69820Y-67643D2*
X-72225Y-70143D1*
X-74395Y-72643D1*
X-76198Y-75143D1*
X-77640Y-77643D1*
X-78689Y-80143D1*
X-79301Y-82643D1*
X-79603Y-85143D1*
X-79736Y-87643D1*
X-79789Y-90143D1*
X-79809Y-92643D1*
X-79816Y-95143D1*
X-79819Y-97643D1*
X-79820Y-100143D1*
Y-102643D1*
Y-105143D1*
Y-107643D1*
Y-110143D1*
Y-112643D1*
X-79810Y-115143D1*
X-79722Y-117643D1*
X-79394Y-120143D1*
X-78698Y-122643D1*
X-77601Y-125143D1*
X-76191Y-127643D1*
X-72444Y-130143D1*
X-66763Y-132643D1*
X-59820Y-135143D1*
X-62320Y-67643D2*
X-60216Y-70143D1*
X-58434Y-72643D1*
X-56987Y-75143D1*
X-55852Y-77643D1*
X-54922Y-80143D1*
X-54022Y-82643D1*
X-53248Y-85143D1*
X-52759Y-87643D1*
X-52507Y-90143D1*
X-52394Y-92643D1*
X-52347Y-95143D1*
X-52330Y-97643D1*
X-52323Y-100143D1*
X-52321Y-102643D1*
X-52320Y-105143D1*
Y-107643D1*
X-52330Y-110143D1*
X-52418Y-112643D1*
X-52736Y-115143D1*
X-53345Y-117643D1*
X-54074Y-120143D1*
X-54838Y-122643D1*
X-55805Y-125143D1*
X-56993Y-127643D1*
X-59604Y-130143D1*
X-65467Y-132643D1*
X-72320Y-135143D1*
X7680Y-80143D2*
Y-82643D1*
Y-85143D1*
Y-87643D1*
Y-90143D1*
Y-92643D1*
Y-95143D1*
Y-97643D1*
Y-100143D1*
Y-102643D1*
Y-105143D1*
Y-107643D1*
Y-110143D1*
Y-112643D1*
Y-115143D1*
Y-117643D1*
Y-120143D1*
Y-122643D1*
Y-125143D1*
Y-127643D1*
Y-130143D1*
Y-132643D1*
Y-135143D1*
Y-137643D1*
Y-140143D1*
X10180Y-80143D2*
X12680Y-82643D1*
X15180Y-85143D1*
X17680Y-87643D1*
X-32320Y-132643D2*
Y-135143D1*
Y-137643D1*
Y-140143D1*
X-27320Y-132643D2*
Y-135143D1*
Y-137643D1*
Y-140143D1*
X-610660Y-192650D2*
X-610264Y-195150D1*
X-609546Y-197650D1*
X-608493Y-200150D1*
X-607128Y-202650D1*
X-605568Y-205150D1*
X-604056Y-207650D1*
X-602658Y-210150D1*
X-601334Y-212650D1*
X-600055Y-215150D1*
X-598801Y-217650D1*
X-597626Y-220150D1*
X-596613Y-222650D1*
X-595723Y-225150D1*
X-594753Y-227650D1*
X-593668Y-230150D1*
X-592573Y-232650D1*
X-591593Y-235150D1*
X-590725Y-237650D1*
X-589849Y-240150D1*
X-589084Y-242650D1*
X-588588Y-245150D1*
X-588249Y-247650D1*
X-587817Y-250150D1*
X-587172Y-252650D1*
X-586514Y-255150D1*
X-586071Y-257650D1*
X-585837Y-260150D1*
X-585730Y-262650D1*
X-585686Y-265150D1*
X-585669Y-267650D1*
X-585660Y-270150D1*
X-570660Y-192650D2*
Y-195150D1*
Y-197650D1*
X-545660Y-192650D2*
X-548918Y-195150D1*
X-551428Y-197650D1*
X-553316Y-200150D1*
X-554843Y-202650D1*
X-556118Y-205150D1*
X-557086Y-207650D1*
X-557663Y-210150D1*
X-557961Y-212650D1*
X-558176Y-215150D1*
X-558546Y-217650D1*
X-559164Y-220150D1*
X-559812Y-222650D1*
X-560251Y-225150D1*
X-560483Y-227650D1*
X-560590Y-230150D1*
X-560624Y-232650D1*
X-560553Y-235150D1*
X-560241Y-237650D1*
X-559644Y-240150D1*
X-559004Y-242650D1*
X-558568Y-245150D1*
X-558326Y-247650D1*
X-558132Y-250150D1*
X-557760Y-252650D1*
X-557057Y-255150D1*
X-556081Y-257650D1*
X-554937Y-260150D1*
X-553552Y-262650D1*
X-551616Y-265150D1*
X-548872Y-267650D1*
X-545660Y-270150D1*
X-533160Y-192650D2*
X-530755Y-195150D1*
X-528585Y-197650D1*
X-526782Y-200150D1*
X-525330Y-202650D1*
X-524193Y-205150D1*
X-523262Y-207650D1*
X-522362Y-210150D1*
X-521588Y-212650D1*
X-521099Y-215150D1*
X-520847Y-217650D1*
X-520734Y-220150D1*
X-520687Y-222650D1*
X-520670Y-225150D1*
X-520663Y-227650D1*
X-520661Y-230150D1*
X-520660Y-232650D1*
Y-235150D1*
Y-237650D1*
Y-240150D1*
Y-242650D1*
X-520670Y-245150D1*
X-520758Y-247650D1*
X-521086Y-250150D1*
X-521773Y-252650D1*
X-522742Y-255150D1*
X-523874Y-257650D1*
X-525173Y-260150D1*
X-526825Y-262650D1*
X-529142Y-265150D1*
X-532196Y-267650D1*
X-535660Y-270150D1*
X-470660Y-192650D2*
X-473918Y-195150D1*
X-476428Y-197650D1*
X-478316Y-200150D1*
X-479843Y-202650D1*
X-481118Y-205150D1*
X-482086Y-207650D1*
X-482663Y-210150D1*
X-482961Y-212650D1*
X-483176Y-215150D1*
X-483546Y-217650D1*
X-484164Y-220150D1*
X-484812Y-222650D1*
X-485251Y-225150D1*
X-485483Y-227650D1*
X-485590Y-230150D1*
X-485624Y-232650D1*
X-485553Y-235150D1*
X-485241Y-237650D1*
X-484644Y-240150D1*
X-484004Y-242650D1*
X-483568Y-245150D1*
X-483326Y-247650D1*
X-483132Y-250150D1*
X-482760Y-252650D1*
X-482057Y-255150D1*
X-481081Y-257650D1*
X-479937Y-260150D1*
X-478552Y-262650D1*
X-476616Y-265150D1*
X-473872Y-267650D1*
X-470660Y-270150D1*
X-458160Y-192650D2*
X-455755Y-195150D1*
X-453585Y-197650D1*
X-451782Y-200150D1*
X-450330Y-202650D1*
X-449193Y-205150D1*
X-448262Y-207650D1*
X-447362Y-210150D1*
X-446588Y-212650D1*
X-446099Y-215150D1*
X-445847Y-217650D1*
X-445734Y-220150D1*
X-445687Y-222650D1*
X-445670Y-225150D1*
X-445663Y-227650D1*
X-445661Y-230150D1*
X-445660Y-232650D1*
Y-235150D1*
Y-237650D1*
Y-240150D1*
Y-242650D1*
X-445670Y-245150D1*
X-445758Y-247650D1*
X-446086Y-250150D1*
X-446773Y-252650D1*
X-447742Y-255150D1*
X-448874Y-257650D1*
X-450173Y-260150D1*
X-451825Y-262650D1*
X-454142Y-265150D1*
X-457196Y-267650D1*
X-460660Y-270150D1*
X-603160Y-197650D2*
X-601056Y-200150D1*
X-599264Y-202650D1*
X-597739Y-205150D1*
X-596364Y-207650D1*
X-595066Y-210150D1*
X-593795Y-212650D1*
X-592540Y-215150D1*
X-591295Y-217650D1*
X-590124Y-220150D1*
X-589112Y-222650D1*
X-588232Y-225150D1*
X-587341Y-227650D1*
X-586487Y-230150D1*
X-585682Y-232650D1*
X-584832Y-235150D1*
X-584068Y-237650D1*
X-583498Y-240150D1*
X-582930Y-242650D1*
X-582218Y-245150D1*
X-581531Y-247650D1*
X-581078Y-250150D1*
X-580830Y-252650D1*
X-580634Y-255150D1*
X-580270Y-257650D1*
X-579654Y-260150D1*
X-579007Y-262650D1*
X-578567Y-265150D1*
X-578321Y-267650D1*
X-578160Y-270150D1*
X-543160Y-197650D2*
X-545565Y-200150D1*
X-547735Y-202650D1*
X-549538Y-205150D1*
X-550980Y-207650D1*
X-552029Y-210150D1*
X-552641Y-212650D1*
X-552943Y-215150D1*
X-553076Y-217650D1*
X-553129Y-220150D1*
X-553149Y-222650D1*
X-553156Y-225150D1*
X-553159Y-227650D1*
X-553160Y-230150D1*
Y-232650D1*
Y-235150D1*
Y-237650D1*
Y-240150D1*
Y-242650D1*
X-553150Y-245150D1*
X-553062Y-247650D1*
X-552734Y-250150D1*
X-552038Y-252650D1*
X-550941Y-255150D1*
X-549531Y-257650D1*
X-545784Y-260150D1*
X-540103Y-262650D1*
X-533160Y-265150D1*
X-535660Y-197650D2*
X-533556Y-200150D1*
X-531774Y-202650D1*
X-530327Y-205150D1*
X-529192Y-207650D1*
X-528262Y-210150D1*
X-527362Y-212650D1*
X-526588Y-215150D1*
X-526099Y-217650D1*
X-525847Y-220150D1*
X-525734Y-222650D1*
X-525687Y-225150D1*
X-525670Y-227650D1*
X-525663Y-230150D1*
X-525661Y-232650D1*
X-525660Y-235150D1*
Y-237650D1*
X-525670Y-240150D1*
X-525758Y-242650D1*
X-526076Y-245150D1*
X-526685Y-247650D1*
X-527414Y-250150D1*
X-528178Y-252650D1*
X-529145Y-255150D1*
X-530333Y-257650D1*
X-532944Y-260150D1*
X-538807Y-262650D1*
X-545660Y-265150D1*
X-468160Y-197650D2*
X-470565Y-200150D1*
X-472735Y-202650D1*
X-474538Y-205150D1*
X-475980Y-207650D1*
X-477029Y-210150D1*
X-477641Y-212650D1*
X-477943Y-215150D1*
X-478076Y-217650D1*
X-478129Y-220150D1*
X-478149Y-222650D1*
X-478156Y-225150D1*
X-478159Y-227650D1*
X-478160Y-230150D1*
Y-232650D1*
Y-235150D1*
Y-237650D1*
Y-240150D1*
Y-242650D1*
X-478150Y-245150D1*
X-478062Y-247650D1*
X-477734Y-250150D1*
X-477038Y-252650D1*
X-475941Y-255150D1*
X-474531Y-257650D1*
X-470784Y-260150D1*
X-465103Y-262650D1*
X-458160Y-265150D1*
X-460660Y-197650D2*
X-458556Y-200150D1*
X-456774Y-202650D1*
X-455327Y-205150D1*
X-454192Y-207650D1*
X-453262Y-210150D1*
X-452362Y-212650D1*
X-451588Y-215150D1*
X-451099Y-217650D1*
X-450847Y-220150D1*
X-450734Y-222650D1*
X-450687Y-225150D1*
X-450670Y-227650D1*
X-450663Y-230150D1*
X-450661Y-232650D1*
X-450660Y-235150D1*
Y-237650D1*
X-450670Y-240150D1*
X-450758Y-242650D1*
X-451076Y-245150D1*
X-451685Y-247650D1*
X-452414Y-250150D1*
X-453178Y-252650D1*
X-454145Y-255150D1*
X-455333Y-257650D1*
X-457944Y-260150D1*
X-463807Y-262650D1*
X-470660Y-265150D1*
X-505660Y-262650D2*
Y-265150D1*
Y-267650D1*
Y-270150D1*
X-500660Y-262650D2*
Y-265150D1*
Y-267650D1*
Y-270150D1*
X-121330Y-314107D2*
X-124588Y-316607D1*
X-127098Y-319107D1*
X-128986Y-321607D1*
X-130513Y-324107D1*
X-131788Y-326607D1*
X-132756Y-329107D1*
X-133333Y-331607D1*
X-133631Y-334107D1*
X-133846Y-336607D1*
X-134216Y-339107D1*
X-134834Y-341607D1*
X-135482Y-344107D1*
X-135921Y-346607D1*
X-136153Y-349107D1*
X-136260Y-351607D1*
X-136294Y-354107D1*
X-136223Y-356607D1*
X-135911Y-359107D1*
X-135314Y-361607D1*
X-134674Y-364107D1*
X-134238Y-366607D1*
X-133996Y-369107D1*
X-133802Y-371607D1*
X-133430Y-374107D1*
X-132727Y-376607D1*
X-131751Y-379107D1*
X-130607Y-381607D1*
X-129222Y-384107D1*
X-127286Y-386607D1*
X-124542Y-389107D1*
X-121330Y-391607D1*
X-108830Y-314107D2*
X-106425Y-316607D1*
X-104255Y-319107D1*
X-102452Y-321607D1*
X-101000Y-324107D1*
X-99863Y-326607D1*
X-98932Y-329107D1*
X-98032Y-331607D1*
X-97258Y-334107D1*
X-96769Y-336607D1*
X-96517Y-339107D1*
X-96404Y-341607D1*
X-96357Y-344107D1*
X-96340Y-346607D1*
X-96333Y-349107D1*
X-96331Y-351607D1*
X-96330Y-354107D1*
Y-356607D1*
Y-359107D1*
Y-361607D1*
Y-364107D1*
X-96340Y-366607D1*
X-96428Y-369107D1*
X-96756Y-371607D1*
X-97443Y-374107D1*
X-98412Y-376607D1*
X-99544Y-379107D1*
X-100843Y-381607D1*
X-102495Y-384107D1*
X-104812Y-386607D1*
X-107866Y-389107D1*
X-111330Y-391607D1*
X-73830Y-314107D2*
X-76320Y-316607D1*
X-78723Y-319107D1*
X-80816Y-321607D1*
X-82389Y-324107D1*
X-83552Y-326607D1*
X-84558Y-329107D1*
X-85366Y-331607D1*
X-85784Y-334107D1*
X-85723Y-336607D1*
X-85230Y-339107D1*
X-84549Y-341607D1*
X-83802Y-344107D1*
X-82880Y-346607D1*
X-81729Y-349107D1*
X-80323Y-351607D1*
X-78737Y-354107D1*
X-77132Y-356607D1*
X-75403Y-359107D1*
X-73391Y-361607D1*
X-71143Y-364107D1*
X-68756Y-366607D1*
X-66303Y-369107D1*
X-63830Y-371607D1*
X-61424Y-374107D1*
X-59245Y-376607D1*
X-57345Y-379107D1*
X-55493Y-381607D1*
X-53467Y-384107D1*
X-51330Y-386607D1*
X-58830Y-314107D2*
X-55271Y-316607D1*
X-52383Y-319107D1*
X-50217Y-321607D1*
X-48613Y-324107D1*
X-47499Y-326607D1*
X-46860Y-329107D1*
X-46534Y-331607D1*
X-46330Y-334107D1*
X3670Y-314107D2*
X412Y-316607D1*
X-2098Y-319107D1*
X-3986Y-321607D1*
X-5513Y-324107D1*
X-6788Y-326607D1*
X-7756Y-329107D1*
X-8333Y-331607D1*
X-8631Y-334107D1*
X-8846Y-336607D1*
X-9216Y-339107D1*
X-9834Y-341607D1*
X-10482Y-344107D1*
X-10921Y-346607D1*
X-11153Y-349107D1*
X-11260Y-351607D1*
X-11294Y-354107D1*
X-11223Y-356607D1*
X-10911Y-359107D1*
X-10314Y-361607D1*
X-9674Y-364107D1*
X-9238Y-366607D1*
X-8996Y-369107D1*
X-8802Y-371607D1*
X-8430Y-374107D1*
X-7727Y-376607D1*
X-6751Y-379107D1*
X-5607Y-381607D1*
X-4222Y-384107D1*
X-2286Y-386607D1*
X458Y-389107D1*
X3670Y-391607D1*
X16170Y-314107D2*
X18575Y-316607D1*
X20745Y-319107D1*
X22548Y-321607D1*
X24000Y-324107D1*
X25137Y-326607D1*
X26068Y-329107D1*
X26968Y-331607D1*
X27742Y-334107D1*
X28231Y-336607D1*
X28483Y-339107D1*
X28596Y-341607D1*
X28643Y-344107D1*
X28660Y-346607D1*
X28667Y-349107D1*
X28669Y-351607D1*
X28670Y-354107D1*
Y-356607D1*
Y-359107D1*
Y-361607D1*
Y-364107D1*
X28660Y-366607D1*
X28572Y-369107D1*
X28244Y-371607D1*
X27557Y-374107D1*
X26588Y-376607D1*
X25456Y-379107D1*
X24157Y-381607D1*
X22505Y-384107D1*
X20188Y-386607D1*
X17134Y-389107D1*
X13670Y-391607D1*
X-118830Y-319107D2*
X-121235Y-321607D1*
X-123405Y-324107D1*
X-125208Y-326607D1*
X-126650Y-329107D1*
X-127699Y-331607D1*
X-128311Y-334107D1*
X-128613Y-336607D1*
X-128746Y-339107D1*
X-128799Y-341607D1*
X-128819Y-344107D1*
X-128826Y-346607D1*
X-128829Y-349107D1*
X-128830Y-351607D1*
Y-354107D1*
Y-356607D1*
Y-359107D1*
Y-361607D1*
Y-364107D1*
X-128820Y-366607D1*
X-128732Y-369107D1*
X-128404Y-371607D1*
X-127708Y-374107D1*
X-126611Y-376607D1*
X-125201Y-379107D1*
X-121454Y-381607D1*
X-115773Y-384107D1*
X-108830Y-386607D1*
X-111330Y-319107D2*
X-109226Y-321607D1*
X-107444Y-324107D1*
X-105997Y-326607D1*
X-104862Y-329107D1*
X-103932Y-331607D1*
X-103032Y-334107D1*
X-102258Y-336607D1*
X-101769Y-339107D1*
X-101517Y-341607D1*
X-101404Y-344107D1*
X-101357Y-346607D1*
X-101340Y-349107D1*
X-101333Y-351607D1*
X-101331Y-354107D1*
X-101330Y-356607D1*
Y-359107D1*
X-101340Y-361607D1*
X-101428Y-364107D1*
X-101746Y-366607D1*
X-102355Y-369107D1*
X-103084Y-371607D1*
X-103848Y-374107D1*
X-104815Y-376607D1*
X-106003Y-379107D1*
X-108614Y-381607D1*
X-114477Y-384107D1*
X-121330Y-386607D1*
X-66330Y-319107D2*
X-70443Y-321607D1*
X-73687Y-324107D1*
X-75961Y-326607D1*
X-77665Y-329107D1*
X-78264Y-331607D1*
X-78579Y-334107D1*
X-78638Y-336607D1*
X-78369Y-339107D1*
X-77705Y-341607D1*
X-76744Y-344107D1*
X-75614Y-346607D1*
X-74326Y-349107D1*
X-72769Y-351607D1*
X-70838Y-354107D1*
X-68623Y-356607D1*
X-66249Y-359107D1*
X-63800Y-361607D1*
X-61319Y-364107D1*
X-58836Y-366607D1*
X-56426Y-369107D1*
X-54246Y-371607D1*
X-52355Y-374107D1*
X-50593Y-376607D1*
X-48936Y-379107D1*
X-47595Y-381607D1*
X-46536Y-384107D1*
X-45552Y-386607D1*
X-44643Y-389107D1*
X-43830Y-391607D1*
X-61330Y-319107D2*
X-58840Y-321607D1*
X-56437Y-324107D1*
X-54353Y-326607D1*
X-52859Y-329107D1*
X-51958Y-331607D1*
X-51330Y-334107D1*
X6170Y-319107D2*
X3765Y-321607D1*
X1595Y-324107D1*
X-208Y-326607D1*
X-1650Y-329107D1*
X-2699Y-331607D1*
X-3311Y-334107D1*
X-3613Y-336607D1*
X-3746Y-339107D1*
X-3799Y-341607D1*
X-3819Y-344107D1*
X-3826Y-346607D1*
X-3829Y-349107D1*
X-3830Y-351607D1*
Y-354107D1*
Y-356607D1*
Y-359107D1*
Y-361607D1*
Y-364107D1*
X-3820Y-366607D1*
X-3732Y-369107D1*
X-3404Y-371607D1*
X-2708Y-374107D1*
X-1611Y-376607D1*
X-201Y-379107D1*
X3546Y-381607D1*
X9227Y-384107D1*
X16170Y-386607D1*
X13670Y-319107D2*
X15774Y-321607D1*
X17556Y-324107D1*
X19003Y-326607D1*
X20138Y-329107D1*
X21068Y-331607D1*
X21968Y-334107D1*
X22742Y-336607D1*
X23231Y-339107D1*
X23483Y-341607D1*
X23596Y-344107D1*
X23643Y-346607D1*
X23660Y-349107D1*
X23667Y-351607D1*
X23669Y-354107D1*
X23670Y-356607D1*
Y-359107D1*
X23660Y-361607D1*
X23572Y-364107D1*
X23254Y-366607D1*
X22645Y-369107D1*
X21916Y-371607D1*
X21152Y-374107D1*
X20185Y-376607D1*
X18997Y-379107D1*
X16386Y-381607D1*
X10523Y-384107D1*
X3670Y-386607D1*
X-31330Y-384107D2*
Y-386607D1*
Y-389107D1*
Y-391607D1*
X-26330Y-384107D2*
Y-386607D1*
Y-389107D1*
Y-391607D1*
X-86330Y-386607D2*
Y-389107D1*
Y-391607D1*
X-602500Y-433503D2*
Y-436003D1*
Y-438503D1*
Y-441003D1*
Y-443503D1*
Y-446003D1*
Y-448503D1*
Y-451003D1*
Y-453503D1*
Y-456003D1*
Y-458503D1*
Y-461003D1*
Y-463503D1*
Y-466003D1*
Y-468503D1*
Y-471003D1*
Y-473503D1*
Y-476003D1*
Y-478503D1*
Y-481003D1*
Y-483503D1*
Y-486003D1*
X-612500D1*
Y-488503D1*
Y-491003D1*
Y-493503D1*
X-602500D1*
Y-496003D1*
Y-498503D1*
Y-501003D1*
Y-503503D1*
Y-506003D1*
Y-508503D1*
Y-511003D1*
X-597500Y-433503D2*
X-595950Y-436003D1*
X-594524Y-438503D1*
X-593185Y-441003D1*
X-591890Y-443503D1*
X-590545Y-446003D1*
X-589051Y-448503D1*
X-587438Y-451003D1*
X-585907Y-453503D1*
X-584501Y-456003D1*
X-583175Y-458503D1*
X-581895Y-461003D1*
X-580631Y-463503D1*
X-579378Y-466003D1*
X-578125Y-468503D1*
X-576867Y-471003D1*
X-575536Y-473503D1*
X-574057Y-476003D1*
X-572535Y-478503D1*
X-571333Y-481003D1*
X-570614Y-483503D1*
X-570257Y-486003D1*
X-570100Y-488503D1*
X-570035Y-491003D1*
X-570000Y-493503D1*
X-597500D1*
Y-496003D1*
Y-498503D1*
Y-501003D1*
Y-503503D1*
Y-506003D1*
Y-508503D1*
Y-511003D1*
X-547500Y-433503D2*
X-550758Y-436003D1*
X-553268Y-438503D1*
X-555156Y-441003D1*
X-556683Y-443503D1*
X-557958Y-446003D1*
X-558926Y-448503D1*
X-559503Y-451003D1*
X-559801Y-453503D1*
X-560016Y-456003D1*
X-560386Y-458503D1*
X-561004Y-461003D1*
X-561652Y-463503D1*
X-562091Y-466003D1*
X-562323Y-468503D1*
X-562430Y-471003D1*
X-562464Y-473503D1*
X-562393Y-476003D1*
X-562081Y-478503D1*
X-561484Y-481003D1*
X-560844Y-483503D1*
X-560408Y-486003D1*
X-560166Y-488503D1*
X-559972Y-491003D1*
X-559600Y-493503D1*
X-558897Y-496003D1*
X-557921Y-498503D1*
X-556777Y-501003D1*
X-555392Y-503503D1*
X-553456Y-506003D1*
X-550712Y-508503D1*
X-547500Y-511003D1*
X-535000Y-433503D2*
X-532595Y-436003D1*
X-530425Y-438503D1*
X-528622Y-441003D1*
X-527170Y-443503D1*
X-526033Y-446003D1*
X-525102Y-448503D1*
X-524202Y-451003D1*
X-523428Y-453503D1*
X-522939Y-456003D1*
X-522687Y-458503D1*
X-522574Y-461003D1*
X-522527Y-463503D1*
X-522510Y-466003D1*
X-522503Y-468503D1*
X-522501Y-471003D1*
X-522500Y-473503D1*
Y-476003D1*
Y-478503D1*
Y-481003D1*
Y-483503D1*
X-522510Y-486003D1*
X-522598Y-488503D1*
X-522926Y-491003D1*
X-523613Y-493503D1*
X-524582Y-496003D1*
X-525714Y-498503D1*
X-527013Y-501003D1*
X-528665Y-503503D1*
X-530982Y-506003D1*
X-534036Y-508503D1*
X-537500Y-511003D1*
X-472500Y-433503D2*
X-475758Y-436003D1*
X-478268Y-438503D1*
X-480156Y-441003D1*
X-481683Y-443503D1*
X-482958Y-446003D1*
X-483926Y-448503D1*
X-484503Y-451003D1*
X-484801Y-453503D1*
X-485016Y-456003D1*
X-485386Y-458503D1*
X-486004Y-461003D1*
X-486652Y-463503D1*
X-487091Y-466003D1*
X-487323Y-468503D1*
X-487430Y-471003D1*
X-487464Y-473503D1*
X-487393Y-476003D1*
X-487081Y-478503D1*
X-486484Y-481003D1*
X-485844Y-483503D1*
X-485408Y-486003D1*
X-485166Y-488503D1*
X-484972Y-491003D1*
X-484600Y-493503D1*
X-483897Y-496003D1*
X-482921Y-498503D1*
X-481777Y-501003D1*
X-480392Y-503503D1*
X-478456Y-506003D1*
X-475712Y-508503D1*
X-472500Y-511003D1*
X-460000Y-433503D2*
X-457595Y-436003D1*
X-455425Y-438503D1*
X-453622Y-441003D1*
X-452170Y-443503D1*
X-451033Y-446003D1*
X-450102Y-448503D1*
X-449202Y-451003D1*
X-448428Y-453503D1*
X-447939Y-456003D1*
X-447687Y-458503D1*
X-447574Y-461003D1*
X-447527Y-463503D1*
X-447510Y-466003D1*
X-447503Y-468503D1*
X-447501Y-471003D1*
X-447500Y-473503D1*
Y-476003D1*
Y-478503D1*
Y-481003D1*
Y-483503D1*
X-447510Y-486003D1*
X-447598Y-488503D1*
X-447926Y-491003D1*
X-448613Y-493503D1*
X-449582Y-496003D1*
X-450714Y-498503D1*
X-452013Y-501003D1*
X-453665Y-503503D1*
X-455982Y-506003D1*
X-459036Y-508503D1*
X-462500Y-511003D1*
X-545000Y-438503D2*
X-547405Y-441003D1*
X-549575Y-443503D1*
X-551378Y-446003D1*
X-552820Y-448503D1*
X-553869Y-451003D1*
X-554481Y-453503D1*
X-554783Y-456003D1*
X-554916Y-458503D1*
X-554969Y-461003D1*
X-554989Y-463503D1*
X-554996Y-466003D1*
X-554999Y-468503D1*
X-555000Y-471003D1*
Y-473503D1*
Y-476003D1*
Y-478503D1*
Y-481003D1*
Y-483503D1*
X-554990Y-486003D1*
X-554902Y-488503D1*
X-554574Y-491003D1*
X-553878Y-493503D1*
X-552781Y-496003D1*
X-551371Y-498503D1*
X-547624Y-501003D1*
X-541943Y-503503D1*
X-535000Y-506003D1*
X-537500Y-438503D2*
X-535396Y-441003D1*
X-533614Y-443503D1*
X-532167Y-446003D1*
X-531032Y-448503D1*
X-530102Y-451003D1*
X-529202Y-453503D1*
X-528428Y-456003D1*
X-527939Y-458503D1*
X-527687Y-461003D1*
X-527574Y-463503D1*
X-527527Y-466003D1*
X-527510Y-468503D1*
X-527503Y-471003D1*
X-527501Y-473503D1*
X-527500Y-476003D1*
Y-478503D1*
X-527510Y-481003D1*
X-527598Y-483503D1*
X-527916Y-486003D1*
X-528525Y-488503D1*
X-529254Y-491003D1*
X-530018Y-493503D1*
X-530985Y-496003D1*
X-532173Y-498503D1*
X-534784Y-501003D1*
X-540647Y-503503D1*
X-547500Y-506003D1*
X-470000Y-438503D2*
X-472405Y-441003D1*
X-474575Y-443503D1*
X-476378Y-446003D1*
X-477820Y-448503D1*
X-478869Y-451003D1*
X-479481Y-453503D1*
X-479783Y-456003D1*
X-479916Y-458503D1*
X-479969Y-461003D1*
X-479989Y-463503D1*
X-479996Y-466003D1*
X-479999Y-468503D1*
X-480000Y-471003D1*
Y-473503D1*
Y-476003D1*
Y-478503D1*
Y-481003D1*
Y-483503D1*
X-479990Y-486003D1*
X-479902Y-488503D1*
X-479574Y-491003D1*
X-478878Y-493503D1*
X-477781Y-496003D1*
X-476371Y-498503D1*
X-472624Y-501003D1*
X-466943Y-503503D1*
X-460000Y-506003D1*
X-462500Y-438503D2*
X-460396Y-441003D1*
X-458614Y-443503D1*
X-457167Y-446003D1*
X-456032Y-448503D1*
X-455102Y-451003D1*
X-454202Y-453503D1*
X-453428Y-456003D1*
X-452939Y-458503D1*
X-452687Y-461003D1*
X-452574Y-463503D1*
X-452527Y-466003D1*
X-452510Y-468503D1*
X-452503Y-471003D1*
X-452501Y-473503D1*
X-452500Y-476003D1*
Y-478503D1*
X-452510Y-481003D1*
X-452598Y-483503D1*
X-452916Y-486003D1*
X-453525Y-488503D1*
X-454254Y-491003D1*
X-455018Y-493503D1*
X-455985Y-496003D1*
X-457173Y-498503D1*
X-459784Y-501003D1*
X-465647Y-503503D1*
X-472500Y-506003D1*
X-597500Y-451003D2*
Y-453503D1*
Y-456003D1*
Y-458503D1*
Y-461003D1*
Y-463503D1*
Y-466003D1*
Y-468503D1*
Y-471003D1*
Y-473503D1*
Y-476003D1*
Y-478503D1*
Y-481003D1*
Y-483503D1*
X-577500Y-486003D1*
X-595000Y-451003D2*
X-592896Y-453503D1*
X-591104Y-456003D1*
X-589579Y-458503D1*
X-588204Y-461003D1*
X-586906Y-463503D1*
X-585635Y-466003D1*
X-584370Y-468503D1*
X-583037Y-471003D1*
X-581548Y-473503D1*
X-579930Y-476003D1*
X-578333Y-478503D1*
X-576707Y-481003D1*
X-575000Y-483503D1*
X-592500Y-486003D1*
X-507500Y-503503D2*
Y-506003D1*
Y-508503D1*
Y-511003D1*
X-502500Y-503503D2*
Y-506003D1*
Y-508503D1*
Y-511003D1*
X-593280Y577643D2*
X-596239Y575143D1*
X-598765Y572643D1*
X-600676Y570143D1*
X-601968Y567643D1*
X-602690Y565143D1*
X-603037Y562643D1*
X-603186Y560143D1*
X-603236Y557643D1*
X-603161Y555143D1*
X-602762Y552643D1*
X-601857Y550143D1*
X-600716Y547643D1*
X-599733Y545143D1*
X-600041Y542643D1*
X-601525Y540143D1*
X-603127Y537643D1*
X-604480Y535143D1*
X-605553Y532643D1*
X-606526Y530143D1*
X-607322Y527643D1*
X-607736Y525143D1*
X-607674Y522643D1*
X-607180Y520143D1*
X-606499Y517643D1*
X-605752Y515143D1*
X-604830Y512643D1*
X-603660Y510143D1*
X-602070Y507643D1*
X-599782Y505143D1*
X-596738Y502643D1*
X-593280Y500143D1*
X-580780Y577643D2*
X-577522Y575143D1*
X-575012Y572643D1*
X-573124Y570143D1*
X-571595Y567643D1*
X-570296Y565143D1*
X-569210Y562643D1*
X-568280Y560143D1*
X-545780Y577643D2*
Y575143D1*
Y572643D1*
Y570143D1*
Y567643D1*
Y565143D1*
Y562643D1*
Y560143D1*
Y557643D1*
Y555143D1*
Y552643D1*
Y550143D1*
Y547643D1*
Y545143D1*
Y542643D1*
Y540143D1*
Y537643D1*
Y535143D1*
Y532643D1*
Y530143D1*
Y527643D1*
Y525143D1*
Y522643D1*
Y520143D1*
Y517643D1*
Y515143D1*
Y512643D1*
Y510143D1*
Y507643D1*
Y505143D1*
Y502643D1*
Y500143D1*
X-540780Y577643D2*
X-539820Y575143D1*
X-538658Y572643D1*
X-537169Y570143D1*
X-535268Y567643D1*
X-533065Y565143D1*
X-530706Y562643D1*
X-528354Y560143D1*
X-526260Y557643D1*
X-524622Y555143D1*
X-523280Y552643D1*
X-468280Y577643D2*
X-471538Y575143D1*
X-474048Y572643D1*
X-475936Y570143D1*
X-477463Y567643D1*
X-478738Y565143D1*
X-479706Y562643D1*
X-480283Y560143D1*
X-480581Y557643D1*
X-480796Y555143D1*
X-481166Y552643D1*
X-481784Y550143D1*
X-482432Y547643D1*
X-482871Y545143D1*
X-483103Y542643D1*
X-483210Y540143D1*
X-483244Y537643D1*
X-483173Y535143D1*
X-482861Y532643D1*
X-482264Y530143D1*
X-481624Y527643D1*
X-481188Y525143D1*
X-480946Y522643D1*
X-480752Y520143D1*
X-480380Y517643D1*
X-479677Y515143D1*
X-478701Y512643D1*
X-477557Y510143D1*
X-476172Y507643D1*
X-474236Y505143D1*
X-471492Y502643D1*
X-468280Y500143D1*
X-455780Y577643D2*
X-453375Y575143D1*
X-451205Y572643D1*
X-449402Y570143D1*
X-447950Y567643D1*
X-446813Y565143D1*
X-445882Y562643D1*
X-444982Y560143D1*
X-444208Y557643D1*
X-443719Y555143D1*
X-443467Y552643D1*
X-443354Y550143D1*
X-443307Y547643D1*
X-443290Y545143D1*
X-443283Y542643D1*
X-443281Y540143D1*
X-443280Y537643D1*
Y535143D1*
Y532643D1*
Y530143D1*
Y527643D1*
X-443290Y525143D1*
X-443378Y522643D1*
X-443706Y520143D1*
X-444393Y517643D1*
X-445362Y515143D1*
X-446494Y512643D1*
X-447793Y510143D1*
X-449445Y507643D1*
X-451762Y505143D1*
X-454816Y502643D1*
X-458280Y500143D1*
X-590780Y572643D2*
X-593175Y570143D1*
X-595257Y567643D1*
X-596741Y565143D1*
X-597585Y562643D1*
X-597984Y560143D1*
X-598052Y557643D1*
X-597877Y555143D1*
X-596588Y552643D1*
X-593456Y550143D1*
X-589857Y547643D1*
X-586786Y545143D1*
X-584759Y542643D1*
X-583280Y540143D1*
X-589701Y537643D1*
X-594381Y535143D1*
X-597829Y532643D1*
X-599269Y530143D1*
X-600103Y527643D1*
X-600503Y525143D1*
X-600664Y522643D1*
X-600634Y520143D1*
X-600243Y517643D1*
X-599474Y515143D1*
X-597233Y512643D1*
X-593546Y510143D1*
X-587797Y507643D1*
X-580780Y505143D1*
X-583280Y572643D2*
X-580885Y570143D1*
X-578802Y567643D1*
X-577309Y565143D1*
X-576408Y562643D1*
X-575780Y560143D1*
X-465780Y572643D2*
X-468185Y570143D1*
X-470355Y567643D1*
X-472158Y565143D1*
X-473600Y562643D1*
X-474649Y560143D1*
X-475261Y557643D1*
X-475563Y555143D1*
X-475696Y552643D1*
X-475749Y550143D1*
X-475769Y547643D1*
X-475776Y545143D1*
X-475779Y542643D1*
X-475780Y540143D1*
Y537643D1*
Y535143D1*
Y532643D1*
Y530143D1*
Y527643D1*
X-475770Y525143D1*
X-475682Y522643D1*
X-475354Y520143D1*
X-474658Y517643D1*
X-473561Y515143D1*
X-472151Y512643D1*
X-468404Y510143D1*
X-462723Y507643D1*
X-455780Y505143D1*
X-458280Y572643D2*
X-456176Y570143D1*
X-454394Y567643D1*
X-452947Y565143D1*
X-451812Y562643D1*
X-450882Y560143D1*
X-449982Y557643D1*
X-449208Y555143D1*
X-448719Y552643D1*
X-448467Y550143D1*
X-448354Y547643D1*
X-448307Y545143D1*
X-448290Y542643D1*
X-448283Y540143D1*
X-448281Y537643D1*
X-448280Y535143D1*
Y532643D1*
X-448290Y530143D1*
X-448378Y527643D1*
X-448696Y525143D1*
X-449305Y522643D1*
X-450034Y520143D1*
X-450798Y517643D1*
X-451765Y515143D1*
X-452953Y512643D1*
X-455564Y510143D1*
X-461427Y507643D1*
X-468280Y505143D1*
X-538280Y560143D2*
Y557643D1*
Y555143D1*
Y552643D1*
Y550143D1*
Y547643D1*
Y545143D1*
Y542643D1*
Y540143D1*
Y537643D1*
Y535143D1*
Y532643D1*
Y530143D1*
Y527643D1*
Y525143D1*
Y522643D1*
Y520143D1*
Y517643D1*
Y515143D1*
Y512643D1*
Y510143D1*
Y507643D1*
Y505143D1*
Y502643D1*
Y500143D1*
X-535780Y560143D2*
X-533280Y557643D1*
X-530780Y555143D1*
X-528280Y552643D1*
X-573280Y520143D2*
X-574240Y517643D1*
X-575441Y515143D1*
X-576900Y512643D1*
X-580653Y510143D1*
X-586336Y507643D1*
X-593280Y505143D1*
X-568280Y520143D2*
X-568375Y517643D1*
X-568705Y515143D1*
X-569402Y512643D1*
X-570469Y510143D1*
X-572016Y507643D1*
X-574288Y505143D1*
X-577325Y502643D1*
X-580780Y500143D1*
X-503280Y507643D2*
Y505143D1*
Y502643D1*
Y500143D1*
X-498280Y507643D2*
Y505143D1*
Y502643D1*
Y500143D1*
X-22747Y-2659080D2*
X-25238Y-2661580D1*
X-27640Y-2664080D1*
X-29734Y-2666580D1*
X-31306Y-2669080D1*
X-32469Y-2671580D1*
X-33476Y-2674080D1*
X-34283Y-2676580D1*
X-34701Y-2679080D1*
X-34641Y-2681580D1*
X-34148Y-2684080D1*
X-33466Y-2686580D1*
X-32720Y-2689080D1*
X-31798Y-2691580D1*
X-30647Y-2694080D1*
X-29240Y-2696580D1*
X-27654Y-2699080D1*
X-26049Y-2701580D1*
X-24320Y-2704080D1*
X-22309Y-2706580D1*
X-20060Y-2709080D1*
X-17674Y-2711580D1*
X-15220Y-2714080D1*
X-12747Y-2716580D1*
X-10342Y-2719080D1*
X-8163Y-2721580D1*
X-6263Y-2724080D1*
X-4410Y-2726580D1*
X-2384Y-2729080D1*
X-247Y-2731580D1*
X-7747Y-2659080D2*
X-4189Y-2661580D1*
X-1301Y-2664080D1*
X866Y-2666580D1*
X2469Y-2669080D1*
X3584Y-2671580D1*
X4223Y-2674080D1*
X4549Y-2676580D1*
X4753Y-2679080D1*
X29753Y-2659080D2*
X26794Y-2661580D1*
X24267Y-2664080D1*
X22357Y-2666580D1*
X21065Y-2669080D1*
X20343Y-2671580D1*
X19996Y-2674080D1*
X19846Y-2676580D1*
X19797Y-2679080D1*
X19872Y-2681580D1*
X20271Y-2684080D1*
X21175Y-2686580D1*
X22317Y-2689080D1*
X23300Y-2691580D1*
X22992Y-2694080D1*
X21507Y-2696580D1*
X19905Y-2699080D1*
X18553Y-2701580D1*
X17479Y-2704080D1*
X16506Y-2706580D1*
X15711Y-2709080D1*
X15297Y-2711580D1*
X15358Y-2714080D1*
X15852Y-2716580D1*
X16534Y-2719080D1*
X17280Y-2721580D1*
X18202Y-2724080D1*
X19373Y-2726580D1*
X20962Y-2729080D1*
X23251Y-2731580D1*
X26295Y-2734080D1*
X29753Y-2736580D1*
X42253Y-2659080D2*
X45510Y-2661580D1*
X48021Y-2664080D1*
X49908Y-2666580D1*
X51437Y-2669080D1*
X52736Y-2671580D1*
X53822Y-2674080D1*
X54753Y-2676580D1*
X79753Y-2659080D2*
X76495Y-2661580D1*
X73984Y-2664080D1*
X72097Y-2666580D1*
X70570Y-2669080D1*
X69294Y-2671580D1*
X68327Y-2674080D1*
X67749Y-2676580D1*
X67452Y-2679080D1*
X67236Y-2681580D1*
X66866Y-2684080D1*
X66248Y-2686580D1*
X65600Y-2689080D1*
X65162Y-2691580D1*
X64929Y-2694080D1*
X64823Y-2696580D1*
X64789Y-2699080D1*
X64860Y-2701580D1*
X65172Y-2704080D1*
X65769Y-2706580D1*
X66409Y-2709080D1*
X66845Y-2711580D1*
X67086Y-2714080D1*
X67280Y-2716580D1*
X67652Y-2719080D1*
X68356Y-2721580D1*
X69331Y-2724080D1*
X70476Y-2726580D1*
X71860Y-2729080D1*
X73797Y-2731580D1*
X76541Y-2734080D1*
X79753Y-2736580D1*
X92253Y-2659080D2*
X94657Y-2661580D1*
X96827Y-2664080D1*
X98630Y-2666580D1*
X100083Y-2669080D1*
X101219Y-2671580D1*
X102150Y-2674080D1*
X103051Y-2676580D1*
X103824Y-2679080D1*
X104313Y-2681580D1*
X104565Y-2684080D1*
X104679Y-2686580D1*
X104725Y-2689080D1*
X104743Y-2691580D1*
X104749Y-2694080D1*
X104751Y-2696580D1*
X104752Y-2699080D1*
Y-2701580D1*
X104753Y-2704080D1*
Y-2706580D1*
Y-2709080D1*
X104743Y-2711580D1*
X104655Y-2714080D1*
X104327Y-2716580D1*
X103640Y-2719080D1*
X102671Y-2721580D1*
X101538Y-2724080D1*
X100239Y-2726580D1*
X98587Y-2729080D1*
X96271Y-2731580D1*
X93216Y-2734080D1*
X89753Y-2736580D1*
X127253Y-2659080D2*
X124762Y-2661580D1*
X122360Y-2664080D1*
X120266Y-2666580D1*
X118694Y-2669080D1*
X117531Y-2671580D1*
X116524Y-2674080D1*
X115717Y-2676580D1*
X115299Y-2679080D1*
X115359Y-2681580D1*
X115852Y-2684080D1*
X116534Y-2686580D1*
X117280Y-2689080D1*
X118202Y-2691580D1*
X119353Y-2694080D1*
X120760Y-2696580D1*
X122346Y-2699080D1*
X123951Y-2701580D1*
X125680Y-2704080D1*
X127691Y-2706580D1*
X129940Y-2709080D1*
X132326Y-2711580D1*
X134780Y-2714080D1*
X137253Y-2716580D1*
X139658Y-2719080D1*
X141837Y-2721580D1*
X143737Y-2724080D1*
X145590Y-2726580D1*
X147616Y-2729080D1*
X149753Y-2731580D1*
X142253Y-2659080D2*
X145811Y-2661580D1*
X148699Y-2664080D1*
X150866Y-2666580D1*
X152469Y-2669080D1*
X153584Y-2671580D1*
X154223Y-2674080D1*
X154549Y-2676580D1*
X154753Y-2679080D1*
X179753Y-2659080D2*
X176495Y-2661580D1*
X173984Y-2664080D1*
X172097Y-2666580D1*
X170570Y-2669080D1*
X169294Y-2671580D1*
X168327Y-2674080D1*
X167759Y-2676580D1*
X167559Y-2679080D1*
X167750Y-2681580D1*
X168307Y-2684080D1*
X169027Y-2686580D1*
X169872Y-2689080D1*
X171136Y-2691580D1*
X173087Y-2694080D1*
X175995Y-2696580D1*
X180039Y-2699080D1*
X184753Y-2701580D1*
X182348Y-2704080D1*
X180178Y-2706580D1*
X178365Y-2709080D1*
X176835Y-2711580D1*
X175457Y-2714080D1*
X174149Y-2716580D1*
X172799Y-2719080D1*
X171304Y-2721580D1*
X169691Y-2724080D1*
X168160Y-2726580D1*
X166746Y-2729080D1*
X165355Y-2731580D1*
X163863Y-2734080D1*
X162253Y-2736580D1*
X217253Y-2659080D2*
Y-2661580D1*
Y-2664080D1*
Y-2666580D1*
Y-2669080D1*
Y-2671580D1*
Y-2674080D1*
Y-2676580D1*
Y-2679080D1*
Y-2681580D1*
Y-2684080D1*
Y-2686580D1*
Y-2689080D1*
Y-2691580D1*
Y-2694080D1*
Y-2696580D1*
Y-2699080D1*
Y-2701580D1*
Y-2704080D1*
Y-2706580D1*
Y-2709080D1*
Y-2711580D1*
Y-2714080D1*
Y-2716580D1*
Y-2719080D1*
Y-2721580D1*
Y-2724080D1*
Y-2726580D1*
Y-2729080D1*
Y-2731580D1*
Y-2734080D1*
Y-2736580D1*
X247253Y-2659080D2*
X243608Y-2661580D1*
X240478Y-2664080D1*
X237943Y-2666580D1*
X235969Y-2669080D1*
X234365Y-2671580D1*
X232898Y-2674080D1*
X231378Y-2676580D1*
X229753Y-2679080D1*
X234753Y-2681580D1*
X262253Y-2659080D2*
X266751Y-2661580D1*
X270626Y-2664080D1*
X273635Y-2666580D1*
X275854Y-2669080D1*
X277560Y-2671580D1*
X278998Y-2674080D1*
X280235Y-2676580D1*
X281197Y-2679080D1*
X281856Y-2681580D1*
X282461Y-2684080D1*
X283186Y-2686580D1*
X283878Y-2689080D1*
X284334Y-2691580D1*
X284573Y-2694080D1*
X284681Y-2696580D1*
X284716Y-2699080D1*
X284645Y-2701580D1*
X284333Y-2704080D1*
X283736Y-2706580D1*
X283086Y-2709080D1*
X282563Y-2711580D1*
X282003Y-2714080D1*
X281210Y-2716580D1*
X280197Y-2719080D1*
X279047Y-2721580D1*
X277752Y-2724080D1*
X276183Y-2726580D1*
X274156Y-2729080D1*
X271555Y-2731580D1*
X268331Y-2734080D1*
X264753Y-2736580D1*
X-15247Y-2664080D2*
X-19360Y-2666580D1*
X-22605Y-2669080D1*
X-24878Y-2671580D1*
X-26582Y-2674080D1*
X-27181Y-2676580D1*
X-27496Y-2679080D1*
X-27555Y-2681580D1*
X-27287Y-2684080D1*
X-26622Y-2686580D1*
X-25661Y-2689080D1*
X-24532Y-2691580D1*
X-23243Y-2694080D1*
X-21687Y-2696580D1*
X-19755Y-2699080D1*
X-17540Y-2701580D1*
X-15166Y-2704080D1*
X-12717Y-2706580D1*
X-10237Y-2709080D1*
X-7754Y-2711580D1*
X-5344Y-2714080D1*
X-3163Y-2716580D1*
X-1272Y-2719080D1*
X489Y-2721580D1*
X2147Y-2724080D1*
X3488Y-2726580D1*
X4546Y-2729080D1*
X5531Y-2731580D1*
X6440Y-2734080D1*
X7253Y-2736580D1*
X-10247Y-2664080D2*
X-7757Y-2666580D1*
X-5355Y-2669080D1*
X-3271Y-2671580D1*
X-1777Y-2674080D1*
X-875Y-2676580D1*
X-247Y-2679080D1*
X32253Y-2664080D2*
X29858Y-2666580D1*
X27776Y-2669080D1*
X26291Y-2671580D1*
X25447Y-2674080D1*
X25049Y-2676580D1*
X24980Y-2679080D1*
X25155Y-2681580D1*
X26444Y-2684080D1*
X29576Y-2686580D1*
X33176Y-2689080D1*
X36246Y-2691580D1*
X38273Y-2694080D1*
X39753Y-2696580D1*
X33332Y-2699080D1*
X28651Y-2701580D1*
X25203Y-2704080D1*
X23764Y-2706580D1*
X22930Y-2709080D1*
X22530Y-2711580D1*
X22368Y-2714080D1*
X22398Y-2716580D1*
X22790Y-2719080D1*
X23558Y-2721580D1*
X25799Y-2724080D1*
X29487Y-2726580D1*
X35236Y-2729080D1*
X42253Y-2731580D1*
X39753Y-2664080D2*
X42148Y-2666580D1*
X44230Y-2669080D1*
X45723Y-2671580D1*
X46625Y-2674080D1*
X47253Y-2676580D1*
X82253Y-2664080D2*
X79848Y-2666580D1*
X77678Y-2669080D1*
X75875Y-2671580D1*
X74432Y-2674080D1*
X73383Y-2676580D1*
X72771Y-2679080D1*
X72469Y-2681580D1*
X72337Y-2684080D1*
X72284Y-2686580D1*
X72264Y-2689080D1*
X72256Y-2691580D1*
X72254Y-2694080D1*
X72253Y-2696580D1*
Y-2699080D1*
Y-2701580D1*
Y-2704080D1*
Y-2706580D1*
Y-2709080D1*
X72262Y-2711580D1*
X72350Y-2714080D1*
X72679Y-2716580D1*
X73375Y-2719080D1*
X74471Y-2721580D1*
X75882Y-2724080D1*
X79629Y-2726580D1*
X85309Y-2729080D1*
X92253Y-2731580D1*
X89753Y-2664080D2*
X91856Y-2666580D1*
X93639Y-2669080D1*
X95085Y-2671580D1*
X96220Y-2674080D1*
X97150Y-2676580D1*
X98051Y-2679080D1*
X98824Y-2681580D1*
X99313Y-2684080D1*
X99565Y-2686580D1*
X99679Y-2689080D1*
X99725Y-2691580D1*
X99743Y-2694080D1*
X99749Y-2696580D1*
X99751Y-2699080D1*
X99752Y-2701580D1*
Y-2704080D1*
X99743Y-2706580D1*
X99655Y-2709080D1*
X99336Y-2711580D1*
X98728Y-2714080D1*
X97999Y-2716580D1*
X97234Y-2719080D1*
X96267Y-2721580D1*
X95079Y-2724080D1*
X92469Y-2726580D1*
X86605Y-2729080D1*
X79753Y-2731580D1*
X134753Y-2664080D2*
X130640Y-2666580D1*
X127395Y-2669080D1*
X125122Y-2671580D1*
X123418Y-2674080D1*
X122819Y-2676580D1*
X122504Y-2679080D1*
X122445Y-2681580D1*
X122713Y-2684080D1*
X123378Y-2686580D1*
X124339Y-2689080D1*
X125468Y-2691580D1*
X126757Y-2694080D1*
X128313Y-2696580D1*
X130245Y-2699080D1*
X132460Y-2701580D1*
X134834Y-2704080D1*
X137283Y-2706580D1*
X139763Y-2709080D1*
X142246Y-2711580D1*
X144656Y-2714080D1*
X146837Y-2716580D1*
X148728Y-2719080D1*
X150489Y-2721580D1*
X152147Y-2724080D1*
X153488Y-2726580D1*
X154546Y-2729080D1*
X155531Y-2731580D1*
X156440Y-2734080D1*
X157253Y-2736580D1*
X139753Y-2664080D2*
X142243Y-2666580D1*
X144645Y-2669080D1*
X146729Y-2671580D1*
X148223Y-2674080D1*
X149125Y-2676580D1*
X149753Y-2679080D1*
X187253Y-2664080D2*
X183140Y-2666580D1*
X179895Y-2669080D1*
X177622Y-2671580D1*
X175918Y-2674080D1*
X175319Y-2676580D1*
X175004Y-2679080D1*
X174955Y-2681580D1*
X175311Y-2684080D1*
X176062Y-2686580D1*
X178208Y-2689080D1*
X185220Y-2691580D1*
X197106Y-2694080D1*
X212253Y-2696580D1*
Y-2664080D2*
Y-2666580D1*
Y-2669080D1*
Y-2671580D1*
Y-2674080D1*
Y-2676580D1*
Y-2679080D1*
Y-2681580D1*
Y-2684080D1*
Y-2686580D1*
Y-2689080D1*
Y-2691580D1*
Y-2694080D1*
X184753Y-2696580D1*
X252253Y-2664080D2*
X248130Y-2666580D1*
X244798Y-2669080D1*
X242205Y-2671580D1*
X240153Y-2674080D1*
X238716Y-2676580D1*
X237853Y-2679080D1*
X237253Y-2681580D1*
X257253Y-2664080D2*
X261751Y-2666580D1*
X265626Y-2669080D1*
X268635Y-2671580D1*
X270854Y-2674080D1*
X272560Y-2676580D1*
X273998Y-2679080D1*
X275235Y-2681580D1*
X276187Y-2684080D1*
X276759Y-2686580D1*
X277045Y-2689080D1*
X277171Y-2691580D1*
X277222Y-2694080D1*
X277242Y-2696580D1*
X277249Y-2699080D1*
X277251Y-2701580D1*
X277242Y-2704080D1*
X277155Y-2706580D1*
X276826Y-2709080D1*
X276140Y-2711580D1*
X275171Y-2714080D1*
X274038Y-2716580D1*
X272739Y-2719080D1*
X271036Y-2721580D1*
X268833Y-2724080D1*
X263215Y-2726580D1*
X254858Y-2729080D1*
X244753Y-2731580D1*
X194753Y-2701580D2*
X192262Y-2704080D1*
X189850Y-2706580D1*
X187679Y-2709080D1*
X185865Y-2711580D1*
X184325Y-2714080D1*
X182869Y-2716580D1*
X181330Y-2719080D1*
X179700Y-2721580D1*
X178163Y-2724080D1*
X176755Y-2726580D1*
X175436Y-2729080D1*
X174221Y-2731580D1*
X173166Y-2734080D1*
X172253Y-2736580D1*
X212253Y-2701580D2*
Y-2704080D1*
Y-2706580D1*
Y-2709080D1*
Y-2711580D1*
Y-2714080D1*
Y-2716580D1*
Y-2719080D1*
Y-2721580D1*
Y-2724080D1*
Y-2726580D1*
Y-2729080D1*
Y-2731580D1*
Y-2734080D1*
Y-2736580D1*
X232253Y-2709080D2*
X231194Y-2711580D1*
X230547Y-2714080D1*
X231065Y-2716580D1*
X231922Y-2719080D1*
X233001Y-2721580D1*
X234269Y-2724080D1*
X235827Y-2726580D1*
X237851Y-2729080D1*
X240451Y-2731580D1*
X243674Y-2734080D1*
X247253Y-2736580D1*
X234753Y-2709080D2*
X235617Y-2711580D1*
X236459Y-2714080D1*
X237349Y-2716580D1*
X238609Y-2719080D1*
X240424Y-2721580D1*
X243037Y-2724080D1*
X247310Y-2726580D1*
X254018Y-2729080D1*
X262253Y-2731580D1*
X49753Y-2716580D2*
X48793Y-2719080D1*
X47592Y-2721580D1*
X46132Y-2724080D1*
X42380Y-2726580D1*
X36697Y-2729080D1*
X29753Y-2731580D1*
X54753Y-2716580D2*
X54657Y-2719080D1*
X54327Y-2721580D1*
X53630Y-2724080D1*
X52563Y-2726580D1*
X51017Y-2729080D1*
X48745Y-2731580D1*
X45707Y-2734080D1*
X42253Y-2736580D1*
X-35247Y-2731580D2*
Y-2734080D1*
Y-2736580D1*
X114753Y-2731580D2*
Y-2734080D1*
Y-2736580D1*
X-6970Y-4243020D2*
X-10228Y-4245520D1*
X-12728Y-4248020D1*
X-14538Y-4250520D1*
X-15834Y-4253020D1*
X-16830Y-4255520D1*
X-17745Y-4258020D1*
X-18439Y-4260520D1*
X-18818Y-4263020D1*
X-18214Y-4265520D1*
X-17230Y-4268020D1*
X-15815Y-4270520D1*
X-13945Y-4273020D1*
X-11768Y-4275520D1*
X-9470Y-4278020D1*
X-13019Y-4280520D1*
X-15829Y-4283020D1*
X-17764Y-4285520D1*
X-19088Y-4288020D1*
X-20160Y-4290520D1*
X-21002Y-4293020D1*
X-21507Y-4295520D1*
X-21680Y-4298020D1*
X-21478Y-4300520D1*
X-20917Y-4303020D1*
X-20197Y-4305520D1*
X-19351Y-4308020D1*
X-18097Y-4310520D1*
X-16240Y-4313020D1*
X-13719Y-4315520D1*
X-10529Y-4318020D1*
X-6970Y-4320520D1*
X5530Y-4243020D2*
X8020Y-4245520D1*
X10423Y-4248020D1*
X12506Y-4250520D1*
X13991Y-4253020D1*
X14835Y-4255520D1*
X15243Y-4258020D1*
X15419Y-4260520D1*
X15480Y-4263020D1*
X15408Y-4265520D1*
X15002Y-4268020D1*
X13990Y-4270520D1*
X12338Y-4273020D1*
X10265Y-4275520D1*
X8030Y-4278020D1*
X11288Y-4280520D1*
X13788Y-4283020D1*
X15588Y-4285520D1*
X16797Y-4288020D1*
X17473Y-4290520D1*
X17800Y-4293020D1*
X17941Y-4295520D1*
X17997Y-4298020D1*
X18009Y-4300520D1*
X17928Y-4303020D1*
X17603Y-4305520D1*
X16907Y-4308020D1*
X15840Y-4310520D1*
X14294Y-4313020D1*
X12022Y-4315520D1*
X8985Y-4318020D1*
X5530Y-4320520D1*
X33030Y-4243020D2*
Y-4245520D1*
Y-4248020D1*
Y-4250520D1*
Y-4253020D1*
Y-4255520D1*
Y-4258020D1*
Y-4260520D1*
Y-4263020D1*
Y-4265520D1*
Y-4268020D1*
Y-4270520D1*
Y-4273020D1*
Y-4275520D1*
Y-4278020D1*
Y-4280520D1*
Y-4283020D1*
Y-4285520D1*
Y-4288020D1*
Y-4290520D1*
Y-4293020D1*
X33040Y-4295520D1*
X33128Y-4298020D1*
X33446Y-4300520D1*
X34055Y-4303020D1*
X34793Y-4305520D1*
X35646Y-4308020D1*
X36902Y-4310520D1*
X38760Y-4313020D1*
X41281Y-4315520D1*
X44471Y-4318020D1*
X48030Y-4320520D1*
X38030Y-4243020D2*
Y-4245520D1*
Y-4248020D1*
Y-4250520D1*
Y-4253020D1*
Y-4255520D1*
Y-4258020D1*
Y-4260520D1*
Y-4263020D1*
Y-4265520D1*
Y-4268020D1*
Y-4270520D1*
Y-4273020D1*
Y-4275520D1*
Y-4278020D1*
Y-4280520D1*
Y-4283020D1*
Y-4285520D1*
Y-4288020D1*
X38040Y-4290520D1*
X38128Y-4293020D1*
X38446Y-4295520D1*
X39055Y-4298020D1*
X39784Y-4300520D1*
X40558Y-4303020D1*
X41642Y-4305520D1*
X43123Y-4308020D1*
X48437Y-4310520D1*
X57150Y-4313020D1*
X68030Y-4315520D1*
X75530Y-4243020D2*
Y-4245520D1*
Y-4248020D1*
Y-4250520D1*
Y-4253020D1*
Y-4255520D1*
Y-4258020D1*
Y-4260520D1*
Y-4263020D1*
Y-4265520D1*
Y-4268020D1*
Y-4270520D1*
Y-4273020D1*
Y-4275520D1*
Y-4278020D1*
Y-4280520D1*
Y-4283020D1*
Y-4285520D1*
X75520Y-4288020D1*
X75432Y-4290520D1*
X75114Y-4293020D1*
X74515Y-4295520D1*
X73864Y-4298020D1*
X73331Y-4300520D1*
X72682Y-4303020D1*
X71771Y-4305520D1*
X69787Y-4308020D1*
X64944Y-4310520D1*
X57388Y-4313020D1*
X48030Y-4315520D1*
X80530Y-4243020D2*
Y-4245520D1*
Y-4248020D1*
Y-4250520D1*
Y-4253020D1*
Y-4255520D1*
Y-4258020D1*
Y-4260520D1*
Y-4263020D1*
Y-4265520D1*
Y-4268020D1*
Y-4270520D1*
Y-4273020D1*
Y-4275520D1*
Y-4278020D1*
Y-4280520D1*
Y-4283020D1*
Y-4285520D1*
Y-4288020D1*
Y-4290520D1*
X80520Y-4293020D1*
X80432Y-4295520D1*
X80114Y-4298020D1*
X79505Y-4300520D1*
X78776Y-4303020D1*
X78012Y-4305520D1*
X77084Y-4308020D1*
X75911Y-4310520D1*
X74321Y-4313020D1*
X72032Y-4315520D1*
X68988Y-4318020D1*
X65530Y-4320520D1*
X-4470Y-4248020D2*
X-6865Y-4250520D1*
X-8947Y-4253020D1*
X-10431Y-4255520D1*
X-11275Y-4258020D1*
X-11674Y-4260520D1*
X-11752Y-4263020D1*
X-11606Y-4265520D1*
X-10503Y-4268020D1*
X-6934Y-4270520D1*
X-1352Y-4273020D1*
X5530Y-4275520D1*
X3030Y-4248020D2*
X5134Y-4250520D1*
X6916Y-4253020D1*
X8353Y-4255520D1*
X9390Y-4258020D1*
X9914Y-4260520D1*
X9887Y-4263020D1*
X9284Y-4265520D1*
X8295Y-4268020D1*
X5726Y-4270520D1*
X-126Y-4273020D1*
X-6970Y-4275520D1*
X-4470Y-4280520D2*
X-6960Y-4283020D1*
X-9363Y-4285520D1*
X-11446Y-4288020D1*
X-12931Y-4290520D1*
X-13775Y-4293020D1*
X-14183Y-4295520D1*
X-14350Y-4298020D1*
X-14332Y-4300520D1*
X-14020Y-4303020D1*
X-13196Y-4305520D1*
X-11910Y-4308020D1*
X-7493Y-4310520D1*
X-526Y-4313020D1*
X8030Y-4315520D1*
X3030Y-4280520D2*
X5435Y-4283020D1*
X7605Y-4285520D1*
X9408Y-4288020D1*
X10850Y-4290520D1*
X11899Y-4293020D1*
X12502Y-4295520D1*
X12716Y-4298020D1*
X12520Y-4300520D1*
X11876Y-4303020D1*
X10800Y-4305520D1*
X9399Y-4308020D1*
X5653Y-4310520D1*
X-27Y-4313020D1*
X-6970Y-4315520D1*
X-337177Y-926330D2*
D12*
Y-930140D1*
Y-933950D1*
Y-937760D1*
Y-941570D1*
Y-945380D1*
Y-949190D1*
Y-953000D1*
Y-956810D1*
Y-960620D1*
Y-964430D1*
Y-968240D1*
Y-972050D1*
Y-975860D1*
Y-979670D1*
Y-983480D1*
Y-987290D1*
X-337192Y-991100D1*
X-337340Y-994910D1*
X-337698Y-998720D1*
X-339402Y-1002530D1*
X-344846Y-1006340D1*
X-353358Y-1010150D1*
X-363847Y-1013960D1*
X-306697Y-926330D2*
Y-930140D1*
Y-933950D1*
Y-937760D1*
Y-941570D1*
Y-945380D1*
Y-949190D1*
Y-953000D1*
Y-956810D1*
Y-960620D1*
Y-964430D1*
Y-968240D1*
Y-972050D1*
Y-975860D1*
Y-979670D1*
Y-983480D1*
Y-987290D1*
Y-991100D1*
X-306712Y-994910D1*
X-306845Y-998720D1*
X-307331Y-1002530D1*
X-308258Y-1006340D1*
X-309369Y-1010150D1*
X-310534Y-1013960D1*
X-311949Y-1017770D1*
X-313722Y-1021580D1*
X-316000Y-1025390D1*
X-318932Y-1029200D1*
X-322582Y-1033010D1*
X-327371Y-1036820D1*
X-333703Y-1040630D1*
X-340987Y-1044440D1*
X-180967Y-926330D2*
Y-930140D1*
Y-933950D1*
Y-937760D1*
Y-941570D1*
Y-945380D1*
Y-949190D1*
Y-953000D1*
Y-956810D1*
Y-960620D1*
Y-964430D1*
Y-968240D1*
Y-972050D1*
Y-975860D1*
Y-979670D1*
Y-983480D1*
Y-987290D1*
Y-991100D1*
Y-994910D1*
Y-998720D1*
Y-1002530D1*
Y-1006340D1*
Y-1010150D1*
Y-1013960D1*
Y-1017770D1*
Y-1021580D1*
Y-1025390D1*
Y-1029200D1*
Y-1033010D1*
Y-1036820D1*
Y-1040630D1*
Y-1044440D1*
X-150487Y-926330D2*
Y-930140D1*
Y-933950D1*
Y-937760D1*
Y-941570D1*
Y-945380D1*
Y-949190D1*
Y-953000D1*
Y-956810D1*
Y-960620D1*
Y-964430D1*
Y-968240D1*
Y-972050D1*
Y-975860D1*
Y-979670D1*
Y-983480D1*
Y-987290D1*
Y-991100D1*
Y-994910D1*
Y-998720D1*
Y-1002530D1*
Y-1006340D1*
Y-1010150D1*
Y-1013960D1*
Y-1017770D1*
Y-1021580D1*
Y-1025390D1*
Y-1029200D1*
Y-1033010D1*
Y-1036820D1*
Y-1040630D1*
Y-1044440D1*
X-9517Y-926330D2*
Y-930140D1*
Y-933950D1*
Y-937760D1*
Y-941570D1*
Y-945380D1*
Y-949190D1*
Y-953000D1*
Y-956810D1*
Y-960620D1*
X-24757D1*
Y-964430D1*
Y-968240D1*
Y-972050D1*
Y-975860D1*
Y-979670D1*
Y-983480D1*
Y-987290D1*
Y-991100D1*
Y-994910D1*
X-9517D1*
X-9706Y-998720D1*
X-10157Y-1002530D1*
X-12856Y-1006340D1*
X-16653Y-1010150D1*
X-20269Y-1013960D1*
X-23051Y-1017770D1*
X-23952Y-1021580D1*
X-24423Y-1025390D1*
X-24629Y-1029200D1*
X-24711Y-1033010D1*
X-24741Y-1036820D1*
X-24752Y-1040630D1*
X-24757Y-1044440D1*
X20963Y-926330D2*
Y-930140D1*
Y-933950D1*
Y-937760D1*
Y-941570D1*
Y-945380D1*
Y-949190D1*
Y-953000D1*
Y-956810D1*
Y-960620D1*
Y-964430D1*
Y-968240D1*
Y-972050D1*
Y-975860D1*
Y-979670D1*
Y-983480D1*
Y-987290D1*
Y-991100D1*
Y-994910D1*
Y-998720D1*
X20948Y-1002530D1*
X20815Y-1006340D1*
X20314Y-1010150D1*
X19268Y-1013960D1*
X17790Y-1017770D1*
X16065Y-1021580D1*
X14085Y-1025390D1*
X11563Y-1029200D1*
X7986Y-1033010D1*
X3078Y-1036820D1*
X-2969Y-1040630D1*
X-9517Y-1044440D1*
X85733Y-926330D2*
Y-930140D1*
Y-933950D1*
Y-937760D1*
Y-941570D1*
Y-945380D1*
Y-949190D1*
Y-953000D1*
Y-956810D1*
Y-960620D1*
Y-964430D1*
Y-968240D1*
X85718Y-972050D1*
X85573Y-975860D1*
X84985Y-979670D1*
X83682Y-983480D1*
X81923Y-987290D1*
X116213Y-926330D2*
Y-930140D1*
Y-933950D1*
Y-937760D1*
Y-941570D1*
Y-945380D1*
Y-949190D1*
Y-953000D1*
Y-956810D1*
Y-960620D1*
Y-964430D1*
Y-968240D1*
Y-972050D1*
Y-975860D1*
Y-979670D1*
Y-983480D1*
Y-987290D1*
Y-991100D1*
Y-994910D1*
Y-998720D1*
Y-1002530D1*
Y-1006340D1*
Y-1010150D1*
Y-1013960D1*
Y-1017770D1*
Y-1021580D1*
Y-1025390D1*
Y-1029200D1*
Y-1033010D1*
Y-1036820D1*
Y-1040630D1*
Y-1044440D1*
X238133Y-926330D2*
Y-930140D1*
Y-933950D1*
Y-937760D1*
Y-941570D1*
X238163Y-945380D1*
X238446Y-949190D1*
X239116Y-953000D1*
X241898Y-956810D1*
X245334Y-960620D1*
X248573Y-964430D1*
X250927Y-968240D1*
X252273Y-972050D1*
X252953Y-975860D1*
X253373Y-979670D1*
X238133D1*
Y-983480D1*
Y-987290D1*
Y-991100D1*
Y-994910D1*
Y-998720D1*
Y-1002530D1*
Y-1006340D1*
Y-1010150D1*
Y-1013960D1*
X253373D1*
Y-1017770D1*
Y-1021580D1*
Y-1025390D1*
Y-1029200D1*
Y-1033010D1*
Y-1036820D1*
Y-1040630D1*
Y-1044440D1*
Y-926330D2*
X258942Y-930140D1*
X263846Y-933950D1*
X268195Y-937760D1*
X272117Y-941570D1*
X275526Y-945380D1*
X278312Y-949190D1*
X280524Y-953000D1*
X282128Y-956810D1*
X283062Y-960620D1*
X283523Y-964430D1*
X283725Y-968240D1*
X283806Y-972050D1*
X283837Y-975860D1*
X283848Y-979670D1*
X283851Y-983480D1*
X283853Y-987290D1*
Y-991100D1*
Y-994910D1*
Y-998720D1*
Y-1002530D1*
Y-1006340D1*
Y-1010150D1*
Y-1013960D1*
Y-1017770D1*
Y-1021580D1*
Y-1025390D1*
Y-1029200D1*
Y-1033010D1*
Y-1036820D1*
Y-1040630D1*
Y-1044440D1*
X-786757Y-960620D2*
X-792311Y-964430D1*
X-797081Y-968240D1*
X-800944Y-972050D1*
X-803938Y-975860D1*
X-806237Y-979670D1*
X-807873Y-983480D1*
X-808819Y-987290D1*
X-809284Y-991100D1*
X-809487Y-994910D1*
X-809569Y-998720D1*
X-809600Y-1002530D1*
X-809611Y-1006340D1*
X-809615Y-1010150D1*
X-809616Y-1013960D1*
Y-1017770D1*
X-809617Y-1021580D1*
Y-1025390D1*
Y-1029200D1*
Y-1033010D1*
Y-1036820D1*
Y-1040630D1*
Y-1044440D1*
X-767707Y-960620D2*
X-752943Y-964430D1*
X-737227Y-968240D1*
X-733417Y-960620D2*
X-748180Y-964430D1*
X-763897Y-968240D1*
X-714367Y-960620D2*
X-708084Y-964430D1*
X-703005Y-968240D1*
X-699055Y-972050D1*
X-695928Y-975860D1*
X-693751Y-979670D1*
X-692520Y-983480D1*
X-691925Y-987290D1*
X-691668Y-991100D1*
X-691566Y-994910D1*
X-691527Y-998720D1*
X-691514Y-1002530D1*
X-691509Y-1006340D1*
X-691507Y-1010150D1*
Y-1013960D1*
Y-1017770D1*
Y-1021580D1*
Y-1025390D1*
Y-1029200D1*
Y-1033010D1*
Y-1036820D1*
Y-1040630D1*
Y-1044440D1*
X-641977Y-960620D2*
X-648848Y-964430D1*
X-654871Y-968240D1*
X-659823Y-972050D1*
X-663752Y-975860D1*
X-666768Y-979670D1*
X-669073Y-983480D1*
X-670712Y-987290D1*
X-671659Y-991100D1*
X-672124Y-994910D1*
X-672327Y-998720D1*
X-672409Y-1002530D1*
X-672425Y-1006340D1*
X-672302Y-1010150D1*
X-671806Y-1013960D1*
X-670745Y-1017770D1*
X-669135Y-1021580D1*
X-666909Y-1025390D1*
X-663883Y-1029200D1*
X-659899Y-1033010D1*
X-654758Y-1036820D1*
X-648595Y-1040630D1*
X-641977Y-1044440D1*
X-615307Y-960620D2*
X-608435Y-964430D1*
X-602412Y-968240D1*
X-597460Y-972050D1*
X-593532Y-975860D1*
X-590515Y-979670D1*
X-588195Y-983480D1*
X-586423Y-987290D1*
X-584990Y-991100D1*
X-583627Y-994910D1*
X-582581Y-998720D1*
X-582009Y-1002530D1*
X-582786Y-1006340D1*
X-583782Y-1010150D1*
X-584891Y-1013960D1*
X-586282Y-1017770D1*
X-588046Y-1021580D1*
X-590336Y-1025390D1*
X-593387Y-1029200D1*
X-597379Y-1033010D1*
X-602524Y-1036820D1*
X-608688Y-1040630D1*
X-615307Y-1044440D1*
X-539107Y-960620D2*
X-545963Y-964430D1*
X-551867Y-968240D1*
X-556453Y-972050D1*
X-559835Y-975860D1*
X-562447Y-979670D1*
X-564752Y-983480D1*
X-567096Y-987290D1*
X-569587Y-991100D1*
X-512437Y-960620D2*
X-505565Y-964430D1*
X-499542Y-968240D1*
X-494590Y-972050D1*
X-490662Y-975860D1*
X-487645Y-979670D1*
X-485340Y-983480D1*
X-483701Y-987290D1*
X-482754Y-991100D1*
X-482289Y-994910D1*
X-482086Y-998720D1*
X-482004Y-1002530D1*
X-481988Y-1006340D1*
X-482111Y-1010150D1*
X-482608Y-1013960D1*
X-483668Y-1017770D1*
X-485279Y-1021580D1*
X-487505Y-1025390D1*
X-490531Y-1029200D1*
X-494514Y-1033010D1*
X-499655Y-1036820D1*
X-505818Y-1040630D1*
X-512437Y-1044440D1*
X-367657Y-960620D2*
X-373799Y-964430D1*
X-379514Y-968240D1*
X-384364Y-972050D1*
X-388040Y-975860D1*
X-390827Y-979670D1*
X-393110Y-983480D1*
X-395036Y-987290D1*
X-396504Y-991100D1*
X-397381Y-994910D1*
X-397819Y-998720D1*
X-397998Y-1002530D1*
X-397942Y-1006340D1*
X-397471Y-1010150D1*
X-396435Y-1013960D1*
X-394962Y-1017770D1*
X-393222Y-1021580D1*
X-391124Y-1025390D1*
X-388251Y-1029200D1*
X-384249Y-1033010D1*
X-379299Y-1036820D1*
X-373664Y-1040630D1*
X-367657Y-1044440D1*
X-344797Y-960620D2*
Y-964430D1*
Y-968240D1*
Y-972050D1*
Y-975860D1*
Y-979670D1*
Y-983480D1*
Y-987290D1*
Y-991100D1*
X-354878Y-994910D1*
X-362619Y-998720D1*
X-365430Y-1002530D1*
X-366585Y-1006340D1*
X-356201Y-1010150D1*
X-344797Y-1013960D1*
X-257167Y-960620D2*
X-264023Y-964430D1*
X-269927Y-968240D1*
X-274513Y-972050D1*
X-277895Y-975860D1*
X-280495Y-979670D1*
X-282686Y-983480D1*
X-284572Y-987290D1*
X-286023Y-991100D1*
X-286894Y-994910D1*
X-287330Y-998720D1*
X-287523Y-1002530D1*
X-287601Y-1006340D1*
X-287630Y-1010150D1*
X-287641Y-1013960D1*
X-287645Y-1017770D1*
X-287646Y-1021580D1*
Y-1025390D1*
X-287647Y-1029200D1*
Y-1033010D1*
Y-1036820D1*
Y-1040630D1*
Y-1044440D1*
X-230497Y-960620D2*
X-223625Y-964430D1*
X-217602Y-968240D1*
X-212650Y-972050D1*
X-208722Y-975860D1*
X-205705Y-979670D1*
X-203400Y-983480D1*
X-201761Y-987290D1*
X-200814Y-991100D1*
X-200349Y-994910D1*
X-200146Y-998720D1*
X-200064Y-1002530D1*
X-200048Y-1006340D1*
X-200171Y-1010150D1*
X-200668Y-1013960D1*
X-201728Y-1017770D1*
X-203339Y-1021580D1*
X-205565Y-1025390D1*
X-208591Y-1029200D1*
X-212574Y-1033010D1*
X-217715Y-1036820D1*
X-223878Y-1040630D1*
X-230497Y-1044440D1*
X-97147Y-960620D2*
X-104003Y-964430D1*
X-109907Y-968240D1*
X-114493Y-972050D1*
X-117875Y-975860D1*
X-120475Y-979670D1*
X-122666Y-983480D1*
X-124552Y-987290D1*
X-126003Y-991100D1*
X-126874Y-994910D1*
X-127310Y-998720D1*
X-127503Y-1002530D1*
X-127581Y-1006340D1*
X-127610Y-1010150D1*
X-127621Y-1013960D1*
X-127625Y-1017770D1*
X-127626Y-1021580D1*
Y-1025390D1*
X-127627Y-1029200D1*
Y-1033010D1*
Y-1036820D1*
Y-1040630D1*
Y-1044440D1*
X-70477Y-960620D2*
X-63605Y-964430D1*
X-57582Y-968240D1*
X-52630Y-972050D1*
X-48702Y-975860D1*
X-45685Y-979670D1*
X-43380Y-983480D1*
X-41741Y-987290D1*
X-40794Y-991100D1*
X-40329Y-994910D1*
X-40126Y-998720D1*
X-40044Y-1002530D1*
X-40028Y-1006340D1*
X-40151Y-1010150D1*
X-40648Y-1013960D1*
X-41708Y-1017770D1*
X-43319Y-1021580D1*
X-45545Y-1025390D1*
X-48571Y-1029200D1*
X-52554Y-1033010D1*
X-57695Y-1036820D1*
X-63858Y-1040630D1*
X-70477Y-1044440D1*
X36203Y-960620D2*
X38566Y-964430D1*
X40739Y-968240D1*
X42779Y-972050D1*
X44738Y-975860D1*
X46654Y-979670D1*
X48416Y-983480D1*
X49693Y-987290D1*
X50401Y-991100D1*
X49522Y-994910D1*
X48169Y-998720D1*
X46519Y-1002530D1*
X44729Y-1006340D1*
X42985Y-1010150D1*
X41457Y-1013960D1*
X40106Y-1017770D1*
X38631Y-1021580D1*
X36963Y-1025390D1*
X35175Y-1029200D1*
X33327Y-1033010D1*
X31542Y-1036820D1*
X29963Y-1040630D1*
X28583Y-1044440D1*
X66683Y-960620D2*
X69046Y-964430D1*
X71219Y-968240D1*
X73259Y-972050D1*
X75230Y-975860D1*
X77260Y-979670D1*
X79492Y-983480D1*
X81923Y-987290D1*
X165743Y-960620D2*
X158887Y-964430D1*
X152983Y-968240D1*
X148397Y-972050D1*
X145015Y-975860D1*
X142415Y-979670D1*
X140224Y-983480D1*
X138338Y-987290D1*
X136887Y-991100D1*
X136016Y-994910D1*
X135579Y-998720D1*
X135379Y-1002530D1*
X135263Y-1006340D1*
X192413Y-960620D2*
X199285Y-964430D1*
X205308Y-968240D1*
X210260Y-972050D1*
X214188Y-975860D1*
X217205Y-979670D1*
X219510Y-983480D1*
X221149Y-987290D1*
X222096Y-991100D1*
X222561Y-994910D1*
X222764Y-998720D1*
X222846Y-1002530D1*
X222862Y-1006340D1*
X222739Y-1010150D1*
X222242Y-1013960D1*
X221182Y-1017770D1*
X219571Y-1021580D1*
X217345Y-1025390D1*
X214319Y-1029200D1*
X210336Y-1033010D1*
X205195Y-1036820D1*
X199032Y-1040630D1*
X192413Y-1044440D1*
X333383Y-960620D2*
X326527Y-964430D1*
X320623Y-968240D1*
X316037Y-972050D1*
X312655Y-975860D1*
X310055Y-979670D1*
X307864Y-983480D1*
X305978Y-987290D1*
X304527Y-991100D1*
X303656Y-994910D1*
X303219Y-998720D1*
X303019Y-1002530D1*
X302903Y-1006340D1*
X360053Y-960620D2*
X366925Y-964430D1*
X372948Y-968240D1*
X377900Y-972050D1*
X381828Y-975860D1*
X384845Y-979670D1*
X387150Y-983480D1*
X388789Y-987290D1*
X389736Y-991100D1*
X390201Y-994910D1*
X390404Y-998720D1*
X390486Y-1002530D1*
X390502Y-1006340D1*
X390379Y-1010150D1*
X389882Y-1013960D1*
X388822Y-1017770D1*
X387211Y-1021580D1*
X384985Y-1025390D1*
X381959Y-1029200D1*
X377976Y-1033010D1*
X372835Y-1036820D1*
X366672Y-1040630D1*
X360053Y-1044440D1*
X478163Y-960620D2*
Y-964430D1*
Y-968240D1*
Y-972050D1*
Y-975860D1*
Y-979670D1*
Y-983480D1*
Y-987290D1*
Y-991100D1*
Y-994910D1*
Y-998720D1*
Y-1002530D1*
Y-1006340D1*
X478178Y-1010150D1*
X478312Y-1013960D1*
X478798Y-1017770D1*
X479725Y-1021580D1*
X480851Y-1025390D1*
X482150Y-1029200D1*
X484065Y-1033010D1*
X486895Y-1036820D1*
X490738Y-1040630D1*
X495599Y-1044440D1*
X501023Y-1048250D1*
X508643Y-960620D2*
Y-964430D1*
Y-968240D1*
Y-972050D1*
Y-975860D1*
Y-979670D1*
Y-983480D1*
Y-987290D1*
Y-991100D1*
Y-994910D1*
Y-998720D1*
X508673Y-1002530D1*
X508963Y-1006340D1*
X509655Y-1010150D1*
X512624Y-1013960D1*
X516263Y-1017770D1*
X523883Y-960620D2*
Y-964430D1*
Y-968240D1*
Y-972050D1*
Y-975860D1*
Y-979670D1*
Y-983480D1*
Y-987290D1*
Y-991100D1*
Y-994910D1*
X523868Y-998720D1*
X523690Y-1002530D1*
X523243Y-1006340D1*
X520888Y-1010150D1*
X515222Y-1013960D1*
X508643Y-1017770D1*
X554363Y-960620D2*
Y-964430D1*
Y-968240D1*
Y-972050D1*
Y-975860D1*
Y-979670D1*
Y-983480D1*
Y-987290D1*
Y-991100D1*
Y-994910D1*
Y-998720D1*
X554393Y-1002530D1*
X554683Y-1006340D1*
X555375Y-1010150D1*
X558344Y-1013960D1*
X561983Y-1017770D1*
X565793Y-960620D2*
Y-964430D1*
Y-968240D1*
Y-972050D1*
Y-975860D1*
Y-979670D1*
Y-983480D1*
Y-987290D1*
Y-991100D1*
Y-994910D1*
Y-998720D1*
X565764Y-1002530D1*
X565473Y-1006340D1*
X564781Y-1010150D1*
X561812Y-1013960D1*
X558173Y-1017770D1*
X596273Y-960620D2*
Y-964430D1*
Y-968240D1*
Y-972050D1*
Y-975860D1*
Y-979670D1*
Y-983480D1*
Y-987290D1*
Y-991100D1*
Y-994910D1*
Y-998720D1*
Y-1002530D1*
Y-1006340D1*
Y-1010150D1*
X596258Y-1013960D1*
X596125Y-1017770D1*
X595624Y-1021580D1*
X594563Y-1025390D1*
X592952Y-1029200D1*
X590725Y-1033010D1*
X587703Y-1036820D1*
X583765Y-1040630D1*
X578862Y-1044440D1*
X573413Y-1048250D1*
X619133Y-960620D2*
Y-964430D1*
Y-968240D1*
Y-972050D1*
Y-975860D1*
Y-979670D1*
Y-983480D1*
Y-987290D1*
Y-991100D1*
Y-994910D1*
Y-998720D1*
Y-1002530D1*
Y-1006340D1*
X619148Y-1010150D1*
X619282Y-1013960D1*
X619768Y-1017770D1*
X620695Y-1021580D1*
X621821Y-1025390D1*
X623120Y-1029200D1*
X625035Y-1033010D1*
X627865Y-1036820D1*
X631708Y-1040630D1*
X636569Y-1044440D1*
X641993Y-1048250D1*
X649613Y-960620D2*
Y-964430D1*
Y-968240D1*
Y-972050D1*
Y-975860D1*
Y-979670D1*
Y-983480D1*
Y-987290D1*
Y-991100D1*
Y-994910D1*
Y-998720D1*
X649643Y-1002530D1*
X649933Y-1006340D1*
X650625Y-1010150D1*
X653594Y-1013960D1*
X657233Y-1017770D1*
X664853Y-960620D2*
Y-964430D1*
Y-968240D1*
Y-972050D1*
Y-975860D1*
Y-979670D1*
Y-983480D1*
Y-987290D1*
Y-991100D1*
Y-994910D1*
X664838Y-998720D1*
X664660Y-1002530D1*
X664213Y-1006340D1*
X661858Y-1010150D1*
X656192Y-1013960D1*
X649613Y-1017770D1*
X695333Y-960620D2*
Y-964430D1*
Y-968240D1*
Y-972050D1*
Y-975860D1*
Y-979670D1*
Y-983480D1*
Y-987290D1*
Y-991100D1*
Y-994910D1*
Y-998720D1*
X695363Y-1002530D1*
X695653Y-1006340D1*
X696345Y-1010150D1*
X699314Y-1013960D1*
X702953Y-1017770D1*
X706763Y-960620D2*
Y-964430D1*
Y-968240D1*
Y-972050D1*
Y-975860D1*
Y-979670D1*
Y-983480D1*
Y-987290D1*
Y-991100D1*
Y-994910D1*
Y-998720D1*
X706734Y-1002530D1*
X706443Y-1006340D1*
X705751Y-1010150D1*
X702782Y-1013960D1*
X699143Y-1017770D1*
X737243Y-960620D2*
Y-964430D1*
Y-968240D1*
Y-972050D1*
Y-975860D1*
Y-979670D1*
Y-983480D1*
Y-987290D1*
Y-991100D1*
Y-994910D1*
Y-998720D1*
Y-1002530D1*
Y-1006340D1*
Y-1010150D1*
X737228Y-1013960D1*
X737095Y-1017770D1*
X736594Y-1021580D1*
X735533Y-1025390D1*
X733922Y-1029200D1*
X731695Y-1033010D1*
X728673Y-1036820D1*
X724735Y-1040630D1*
X719832Y-1044440D1*
X714383Y-1048250D1*
X760103Y-960620D2*
Y-964430D1*
Y-968240D1*
Y-972050D1*
Y-975860D1*
Y-979670D1*
Y-983480D1*
Y-987290D1*
Y-991100D1*
Y-994910D1*
Y-998720D1*
Y-1002530D1*
Y-1006340D1*
X760118Y-1010150D1*
X760252Y-1013960D1*
X760738Y-1017770D1*
X761665Y-1021580D1*
X762791Y-1025390D1*
X764090Y-1029200D1*
X766005Y-1033010D1*
X768835Y-1036820D1*
X772678Y-1040630D1*
X777539Y-1044440D1*
X782963Y-1048250D1*
X790583Y-960620D2*
Y-964430D1*
Y-968240D1*
Y-972050D1*
Y-975860D1*
Y-979670D1*
Y-983480D1*
Y-987290D1*
Y-991100D1*
Y-994910D1*
Y-998720D1*
X790613Y-1002530D1*
X790903Y-1006340D1*
X791595Y-1010150D1*
X794564Y-1013960D1*
X798203Y-1017770D1*
X805823Y-960620D2*
Y-964430D1*
Y-968240D1*
Y-972050D1*
Y-975860D1*
Y-979670D1*
Y-983480D1*
Y-987290D1*
Y-991100D1*
Y-994910D1*
X805808Y-998720D1*
X805630Y-1002530D1*
X805183Y-1006340D1*
X802828Y-1010150D1*
X797162Y-1013960D1*
X790583Y-1017770D1*
X836303Y-960620D2*
Y-964430D1*
Y-968240D1*
Y-972050D1*
Y-975860D1*
Y-979670D1*
Y-983480D1*
Y-987290D1*
Y-991100D1*
Y-994910D1*
Y-998720D1*
X836333Y-1002530D1*
X836623Y-1006340D1*
X837315Y-1010150D1*
X840284Y-1013960D1*
X843923Y-1017770D1*
X847733Y-960620D2*
Y-964430D1*
Y-968240D1*
Y-972050D1*
Y-975860D1*
Y-979670D1*
Y-983480D1*
Y-987290D1*
Y-991100D1*
Y-994910D1*
Y-998720D1*
X847704Y-1002530D1*
X847413Y-1006340D1*
X846721Y-1010150D1*
X843752Y-1013960D1*
X840113Y-1017770D1*
X878213Y-960620D2*
Y-964430D1*
Y-968240D1*
Y-972050D1*
Y-975860D1*
Y-979670D1*
Y-983480D1*
Y-987290D1*
Y-991100D1*
Y-994910D1*
Y-998720D1*
Y-1002530D1*
Y-1006340D1*
Y-1010150D1*
X878198Y-1013960D1*
X878065Y-1017770D1*
X877564Y-1021580D1*
X876503Y-1025390D1*
X874892Y-1029200D1*
X872665Y-1033010D1*
X869643Y-1036820D1*
X865705Y-1040630D1*
X860802Y-1044440D1*
X855353Y-1048250D1*
X173363Y-983480D2*
X169553Y-987290D1*
X165743Y-991100D1*
X184793Y-994910D1*
Y-998720D1*
Y-1002530D1*
Y-1006340D1*
X180983Y-983480D2*
X184633Y-987290D1*
X187806Y-991100D1*
X190069Y-994910D1*
X191355Y-998720D1*
X191962Y-1002530D1*
X192007Y-1006340D1*
X191561Y-1010150D1*
X188109Y-1013960D1*
X180111Y-1017770D1*
X171827Y-1021580D1*
X165071Y-1025390D1*
X160150Y-1029200D1*
X156270Y-1033010D1*
X157476Y-1036820D1*
X161280Y-1040630D1*
X165743Y-1044440D1*
X341003Y-983480D2*
X337193Y-987290D1*
X333383Y-991100D1*
X352433Y-994910D1*
Y-998720D1*
Y-1002530D1*
Y-1006340D1*
X348623Y-983480D2*
X352273Y-987290D1*
X355446Y-991100D1*
X357709Y-994910D1*
X358995Y-998720D1*
X359602Y-1002530D1*
X359662Y-1006340D1*
X359261Y-1010150D1*
X356035Y-1013960D1*
X347407Y-1017770D1*
X337193Y-1021580D1*
X-779137Y-991100D2*
Y-994910D1*
Y-998720D1*
Y-1002530D1*
Y-1006340D1*
Y-1010150D1*
Y-1013960D1*
Y-1017770D1*
Y-1021580D1*
Y-1025390D1*
Y-1029200D1*
Y-1033010D1*
Y-1036820D1*
Y-1040630D1*
Y-1044440D1*
X-771517Y-991100D2*
X-768455Y-994910D1*
X-766227Y-998720D1*
X-764951Y-1002530D1*
X-764332Y-1006340D1*
X-764065Y-1010150D1*
X-763958Y-1013960D1*
X-763918Y-1017770D1*
X-763904Y-1021580D1*
X-763899Y-1025390D1*
X-763897Y-1029200D1*
Y-1033010D1*
Y-1036820D1*
Y-1040630D1*
Y-1044440D1*
X-733417Y-991100D2*
Y-994910D1*
Y-998720D1*
Y-1002530D1*
Y-1006340D1*
Y-1010150D1*
Y-1013960D1*
Y-1017770D1*
Y-1021580D1*
Y-1025390D1*
Y-1029200D1*
Y-1033010D1*
Y-1036820D1*
Y-1040630D1*
Y-1044440D1*
X-721987Y-991100D2*
Y-994910D1*
Y-998720D1*
Y-1002530D1*
Y-1006340D1*
Y-1010150D1*
Y-1013960D1*
Y-1017770D1*
Y-1021580D1*
Y-1025390D1*
Y-1029200D1*
Y-1033010D1*
Y-1036820D1*
Y-1040630D1*
Y-1044440D1*
X-634357Y-991100D2*
X-637403Y-994910D1*
X-639934Y-998720D1*
X-640420Y-1002530D1*
X-639313Y-1006340D1*
X-629826Y-1010150D1*
X-619117Y-1013960D1*
X-622927Y-991100D2*
X-619880Y-994910D1*
X-617349Y-998720D1*
X-616863Y-1002530D1*
X-617971Y-1006340D1*
X-627458Y-1010150D1*
X-638167Y-1013960D1*
X-520057Y-991100D2*
X-517010Y-994910D1*
X-514479Y-998720D1*
X-513993Y-1002530D1*
X-515101Y-1006340D1*
X-524588Y-1010150D1*
X-535297Y-1013960D1*
X-249547Y-991100D2*
X-252608Y-994910D1*
X-254836Y-998720D1*
X-256112Y-1002530D1*
X-256731Y-1006340D1*
X-256998Y-1010150D1*
X-257105Y-1013960D1*
X-257145Y-1017770D1*
X-257159Y-1021580D1*
X-257164Y-1025390D1*
X-257166Y-1029200D1*
Y-1033010D1*
X-257167Y-1036820D1*
Y-1040630D1*
Y-1044440D1*
X-238117Y-991100D2*
X-235070Y-994910D1*
X-232539Y-998720D1*
X-231993Y-1002530D1*
X-234102Y-1006340D1*
X-239147Y-1010150D1*
X-243784Y-1013960D1*
X-247348Y-1017770D1*
X-248507Y-1021580D1*
X-249115Y-1025390D1*
X-249381Y-1029200D1*
X-249487Y-1033010D1*
X-249526Y-1036820D1*
X-249540Y-1040630D1*
X-249547Y-1044440D1*
X-89527Y-991100D2*
X-92588Y-994910D1*
X-94816Y-998720D1*
X-96092Y-1002530D1*
X-96711Y-1006340D1*
X-96978Y-1010150D1*
X-97085Y-1013960D1*
X-97125Y-1017770D1*
X-97139Y-1021580D1*
X-97144Y-1025390D1*
X-97146Y-1029200D1*
Y-1033010D1*
X-97147Y-1036820D1*
Y-1040630D1*
Y-1044440D1*
X-78097Y-991100D2*
X-75050Y-994910D1*
X-72519Y-998720D1*
X-71973Y-1002530D1*
X-74082Y-1006340D1*
X-79127Y-1010150D1*
X-83764Y-1013960D1*
X-87328Y-1017770D1*
X-88487Y-1021580D1*
X-89095Y-1025390D1*
X-89361Y-1029200D1*
X-89467Y-1033010D1*
X-89506Y-1036820D1*
X-89520Y-1040630D1*
X-89527Y-1044440D1*
X78113Y-994910D2*
X77525Y-998720D1*
X76565Y-1002530D1*
X75445Y-1006340D1*
X74292Y-1010150D1*
X73010Y-1013960D1*
X71738Y-1017770D1*
X70521Y-1021580D1*
X69214Y-1025390D1*
X67933Y-1029200D1*
X66710Y-1033010D1*
X65384Y-1036820D1*
X64072Y-1040630D1*
X62873Y-1044440D1*
X85733Y-994910D2*
Y-998720D1*
Y-1002530D1*
Y-1006340D1*
Y-1010150D1*
Y-1013960D1*
Y-1017770D1*
Y-1021580D1*
Y-1025390D1*
Y-1029200D1*
Y-1033010D1*
Y-1036820D1*
Y-1040630D1*
Y-1044440D1*
X-569587Y-1006340D2*
X-568983Y-1010150D1*
X-567904Y-1013960D1*
X-566418Y-1017770D1*
X-564689Y-1021580D1*
X-562709Y-1025390D1*
X-560187Y-1029200D1*
X-556609Y-1033010D1*
X-551701Y-1036820D1*
X-545654Y-1040630D1*
X-539107Y-1044440D1*
Y-1006340D2*
X-528153Y-1010150D1*
X-516247Y-1013960D1*
X-447667Y-1006340D2*
X-451317Y-1010150D1*
X-454490Y-1013960D1*
X-456752Y-1017770D1*
X-458023Y-1021580D1*
X-458496Y-1025390D1*
X-458474Y-1029200D1*
X-456776Y-1033010D1*
X-454232Y-1036820D1*
X-451072Y-1040630D1*
X-447667Y-1044440D1*
X-432427Y-1006340D2*
X-428320Y-1010150D1*
X-425187Y-1013960D1*
X-423093Y-1017770D1*
X-421935Y-1021580D1*
X-421397Y-1025390D1*
X-421323Y-1029200D1*
X-421607Y-1033010D1*
X-423495Y-1036820D1*
X-427671Y-1040630D1*
X-432427Y-1044440D1*
X424823Y-1006340D2*
X421173Y-1010150D1*
X418000Y-1013960D1*
X415738Y-1017770D1*
X414467Y-1021580D1*
X413994Y-1025390D1*
X414016Y-1029200D1*
X415714Y-1033010D1*
X418258Y-1036820D1*
X421418Y-1040630D1*
X424823Y-1044440D1*
X440063Y-1006340D2*
X444170Y-1010150D1*
X447303Y-1013960D1*
X449397Y-1017770D1*
X450555Y-1021580D1*
X451093Y-1025390D1*
X451167Y-1029200D1*
X450883Y-1033010D1*
X448995Y-1036820D1*
X444819Y-1040630D1*
X440063Y-1044440D1*
X337193Y-1017770D2*
X333398Y-1021580D1*
X329752Y-1025390D1*
X326740Y-1029200D1*
X324521Y-1033010D1*
X324260Y-1036820D1*
X328596Y-1040630D1*
X333383Y-1044440D1*
X535313Y-1036820D2*
X530803Y-1040630D1*
X525656Y-1044440D1*
X520073Y-1048250D1*
X539123Y-1036820D2*
X543634Y-1040630D1*
X548781Y-1044440D1*
X554363Y-1048250D1*
X676283Y-1036820D2*
X671773Y-1040630D1*
X666626Y-1044440D1*
X661043Y-1048250D1*
X680093Y-1036820D2*
X684604Y-1040630D1*
X689751Y-1044440D1*
X695333Y-1048250D1*
X817253Y-1036820D2*
X812743Y-1040630D1*
X807596Y-1044440D1*
X802013Y-1048250D1*
X821063Y-1036820D2*
X825574Y-1040630D1*
X830721Y-1044440D1*
X836303Y-1048250D1*
X1252330Y-2930574D2*
D87*
X1303374D1*
X1266902D2*
X1255952Y-2941524D1*
X1252330Y-2948853D1*
Y-2959718D1*
X1255952Y-2967046D1*
X1266902Y-2970668D1*
X1303374D1*
X1263280Y-2994198D2*
Y-3026964D1*
X1259574Y-3037914D1*
X1255952Y-3041620D1*
X1248708Y-3045242D1*
X1241380D1*
X1234136Y-3041620D1*
X1230430Y-3037914D1*
X1226808Y-3026964D1*
Y-2994198D1*
X1303374D1*
X1263280Y-3019720D2*
X1303374Y-3045242D1*
X1226808Y-3116193D2*
Y-3068771D1*
X1303374D1*
X1263280D2*
Y-3097915D1*
X1226808Y-3139722D2*
X1303374D1*
Y-3165244D1*
X1299668Y-3176194D1*
X1292424Y-3183522D1*
X1285096Y-3187144D1*
X1274230Y-3190766D1*
X1255952D1*
X1245002Y-3187144D1*
X1237758Y-3183522D1*
X1230430Y-3176194D1*
X1226808Y-3165244D1*
Y-3139722D1*
Y-3214296D2*
X1303374D1*
Y-3247146D1*
X1299668Y-3258096D1*
X1296046Y-3261718D1*
X1288802Y-3265339D1*
X1277852D1*
X1270524Y-3261718D1*
X1266902Y-3258096D1*
X1263280Y-3247146D1*
X1259574Y-3258096D1*
X1255952Y-3261718D1*
X1248708Y-3265339D1*
X1241380D1*
X1234136Y-3261718D1*
X1230430Y-3258096D1*
X1226808Y-3247146D1*
Y-3214296D1*
X1263280D2*
Y-3247146D1*
X1303374Y-3347157D2*
X1226808D1*
X1303374Y-3318013D1*
X1226808Y-3288869D1*
X1303374D1*
X1316009Y-3370686D2*
Y-3439924D1*
X1226808Y-3463453D2*
X1303374Y-3492597D1*
X1226808Y-3521741D1*
X1245087Y-3548976D2*
X1241465D1*
X1234137Y-3552598D1*
X1230515Y-3556220D1*
X1226893Y-3563548D1*
Y-3578120D1*
X1230515Y-3585364D1*
X1234137Y-3588986D1*
X1241465Y-3592692D1*
X1248708D1*
X1256036Y-3588986D1*
X1266902Y-3581742D1*
X1303374Y-3545270D1*
Y-3596314D1*
X1316009Y-3619843D2*
Y-3689081D1*
X1241465Y-3712611D2*
X1237758Y-3719939D1*
X1226893Y-3730889D1*
X1303374D1*
X1226893Y-3776318D2*
X1230515Y-3765368D1*
X1241465Y-3758040D1*
X1259658Y-3754418D1*
X1270608D1*
X1288802Y-3758040D1*
X1299752Y-3765368D1*
X1303374Y-3776318D1*
Y-3783562D1*
X1299752Y-3794512D1*
X1288802Y-3801756D1*
X1270608Y-3805462D1*
X1259658D1*
X1241465Y-3801756D1*
X1230515Y-3794512D1*
X1226893Y-3783562D1*
Y-3776318D1*
X1241465Y-3801756D2*
X1288802Y-3758040D1*
X1316009Y-3828991D2*
Y-3898229D1*
X1245087Y-3925464D2*
X1241465D1*
X1234137Y-3929086D1*
X1230515Y-3932708D1*
X1226893Y-3940036D1*
Y-3954608D1*
X1230515Y-3961852D1*
X1234137Y-3965474D1*
X1241465Y-3969180D1*
X1248709D1*
X1256037Y-3965474D1*
X1266902Y-3958230D1*
X1303374Y-3921758D1*
Y-3972802D1*
X1226893Y-4018232D2*
X1230515Y-4007282D1*
X1241465Y-3999953D1*
X1259659Y-3996332D1*
X1270608D1*
X1288802Y-3999954D1*
X1299752Y-4007282D1*
X1303374Y-4018232D1*
Y-4025475D1*
X1299752Y-4036425D1*
X1288802Y-4043669D1*
X1270609Y-4047375D1*
X1259659D1*
X1241465Y-4043669D1*
X1230515Y-4036425D1*
X1226893Y-4025475D1*
Y-4018232D1*
X1241465Y-4043669D2*
X1288802Y-3999954D1*
X1241465Y-4070905D2*
X1237759Y-4078233D1*
X1226893Y-4089183D1*
X1303374D1*
X1252330Y-4160134D2*
X1263280Y-4156428D1*
X1270608Y-4149184D1*
X1274230Y-4138234D1*
Y-4134612D1*
X1270609Y-4123662D1*
X1263280Y-4116418D1*
X1252330Y-4112712D1*
X1248709D1*
X1237759Y-4116418D1*
X1230515Y-4123662D1*
X1226893Y-4134612D1*
Y-4138234D1*
X1230515Y-4149184D1*
X1237758Y-4156428D1*
X1252330Y-4160134D1*
X1270608D1*
X1288802Y-4156428D1*
X1299752Y-4149184D1*
X1303374Y-4138234D1*
Y-4130990D1*
X1299752Y-4120040D1*
X1292424Y-4116418D1*
X-841323Y449412D2*
X-870467Y372846D1*
X-899611Y449412D1*
X-923141D2*
Y372846D1*
X-948662D1*
X-959612Y376552D1*
X-966941Y383796D1*
X-970562Y391124D1*
X-974184Y401990D1*
Y420268D1*
X-970562Y431218D1*
X-966941Y438462D1*
X-959612Y445790D1*
X-948662Y449412D1*
X-923141D1*
X-997714D2*
Y372846D1*
X-1023236D1*
X-1034186Y376552D1*
X-1041514Y383796D1*
X-1045136Y391124D1*
X-1048758Y401990D1*
Y420268D1*
X-1045136Y431218D1*
X-1041514Y438462D1*
X-1034186Y445790D1*
X-1023236Y449412D1*
X-997714D1*
X-908728Y169048D2*
X-905106Y176292D1*
X-897778Y183620D1*
X-890534Y187242D1*
X-875962D1*
X-868634Y183620D1*
X-861390Y176292D1*
X-857684Y169048D1*
X-854062Y158098D1*
Y139820D1*
X-857684Y128954D1*
X-861390Y121626D1*
X-868634Y114382D1*
X-875962Y110676D1*
X-890534D1*
X-897778Y114382D1*
X-905106Y121626D1*
X-908728Y128954D1*
Y139820D1*
X-890534D1*
X-983301Y187242D2*
Y110676D1*
X-932257Y187242D1*
Y110676D1*
X-1006830Y187242D2*
Y110676D1*
X-1032352D1*
X-1043302Y114382D1*
X-1050630Y121626D1*
X-1054252Y128954D1*
X-1057874Y139820D1*
Y158098D1*
X-1054252Y169048D1*
X-1050630Y176292D1*
X-1043302Y183620D1*
X-1032352Y187242D1*
X-1006830D1*
X-861893Y-63013D2*
X-850943Y-66635D1*
X-843615Y-77585D1*
X-839993Y-95778D1*
Y-106728D1*
X-843615Y-124922D1*
X-850943Y-135872D1*
X-861893Y-139494D1*
X-869137D1*
X-880087Y-135872D1*
X-887331Y-124922D1*
X-891037Y-106728D1*
Y-95778D1*
X-887331Y-77585D1*
X-880087Y-66635D1*
X-869137Y-63013D1*
X-861893D1*
X-887331Y-77585D2*
X-843615Y-124922D1*
X-918188Y-132166D2*
X-914566Y-135872D1*
X-918188Y-139494D1*
X-921894Y-135872D1*
X-918188Y-132166D1*
X-967324Y-63013D2*
X-956374Y-66635D1*
X-949046Y-77585D1*
X-945424Y-95778D1*
Y-106728D1*
X-949046Y-124922D1*
X-956374Y-135872D1*
X-967324Y-139494D1*
X-974568D1*
X-985518Y-135872D1*
X-992762Y-124922D1*
X-996468Y-106728D1*
Y-95778D1*
X-992762Y-77585D1*
X-985518Y-66635D1*
X-974568Y-63013D1*
X-967324D1*
X-992762Y-77585D2*
X-949046Y-124922D1*
X-1027325Y-63013D2*
X-1067335D1*
X-1045519Y-92156D1*
X-1056469D1*
X-1063713Y-95778D1*
X-1067335Y-99400D1*
X-1071041Y-110350D1*
Y-117594D1*
X-1067335Y-128544D1*
X-1060091Y-135872D1*
X-1049141Y-139494D1*
X-1038191D1*
X-1027325Y-135872D1*
X-1023703Y-132166D1*
X-1019997Y-124922D1*
X-861893Y-313186D2*
X-850943Y-316808D1*
X-843615Y-327758D1*
X-839993Y-345952D1*
Y-356902D1*
X-843615Y-375096D1*
X-850943Y-386046D1*
X-861893Y-389667D1*
X-869137D1*
X-880087Y-386046D1*
X-887331Y-375096D1*
X-891037Y-356902D1*
Y-345952D1*
X-887331Y-327758D1*
X-880087Y-316808D1*
X-869137Y-313186D1*
X-861893D1*
X-887331Y-327758D2*
X-843615Y-375096D1*
X-918188Y-382339D2*
X-914566Y-386046D1*
X-918188Y-389667D1*
X-921894Y-386046D1*
X-918188Y-382339D1*
X-967324Y-313186D2*
X-956374Y-316808D1*
X-949046Y-327758D1*
X-945424Y-345952D1*
Y-356902D1*
X-949046Y-375096D1*
X-956374Y-386046D1*
X-967324Y-389667D1*
X-974568D1*
X-985518Y-386046D1*
X-992762Y-375096D1*
X-996468Y-356902D1*
Y-345952D1*
X-992762Y-327758D1*
X-985518Y-316808D1*
X-974568Y-313186D1*
X-967324D1*
X-992762Y-327758D2*
X-949046Y-375096D1*
X-1023703Y-331380D2*
Y-327758D1*
X-1027325Y-320430D1*
X-1030947Y-316808D1*
X-1038275Y-313186D1*
X-1052847D1*
X-1060091Y-316808D1*
X-1063713Y-320430D1*
X-1067419Y-327758D1*
Y-335002D1*
X-1063713Y-342330D1*
X-1056469Y-353196D1*
X-1019997Y-389667D1*
X-1071041D1*
X-856367Y-568626D2*
X-845417Y-572248D1*
X-838089Y-583198D1*
X-834467Y-601392D1*
Y-612342D1*
X-838089Y-630536D1*
X-845417Y-641486D1*
X-856367Y-645107D1*
X-863611D1*
X-874561Y-641486D1*
X-881805Y-630536D1*
X-885511Y-612342D1*
Y-601392D1*
X-881805Y-583198D1*
X-874561Y-572248D1*
X-863611Y-568626D1*
X-856367D1*
X-881805Y-583198D2*
X-838089Y-630536D1*
X-912663Y-637779D2*
X-909041Y-641486D1*
X-912663Y-645107D1*
X-916369Y-641486D1*
X-912663Y-637779D1*
X-943604Y-586820D2*
Y-583198D1*
X-947226Y-575870D1*
X-950848Y-572248D1*
X-958176Y-568626D1*
X-972748D1*
X-979992Y-572248D1*
X-983614Y-575870D1*
X-987320Y-583198D1*
Y-590442D1*
X-983614Y-597770D1*
X-976370Y-608636D1*
X-939898Y-645107D1*
X-990942D1*
X-1032665Y-568626D2*
X-1021799Y-572248D1*
X-1018093Y-579492D1*
Y-586820D1*
X-1021799Y-594064D1*
X-1029043Y-597770D1*
X-1043615Y-601392D1*
X-1054565Y-605014D1*
X-1061809Y-612342D1*
X-1065431Y-619586D1*
Y-630536D1*
X-1061809Y-637779D1*
X-1058187Y-641486D1*
X-1047237Y-645107D1*
X-1032665D1*
X-1021799Y-641486D1*
X-1018093Y-637779D1*
X-1014471Y-630536D1*
Y-619586D1*
X-1018093Y-612342D1*
X-1025421Y-605014D1*
X-1036287Y-601392D1*
X-1050859Y-597770D1*
X-1058187Y-594064D1*
X-1061809Y-586820D1*
Y-579492D1*
X-1058187Y-572248D1*
X-1047237Y-568626D1*
X-1032665D1*
X-1032212Y-773115D2*
X-1035918Y-780443D1*
X-1046784Y-791393D1*
X-970302D1*
X-977631Y-818544D2*
X-973924Y-814922D1*
X-970302Y-818544D1*
X-973924Y-822250D1*
X-977631Y-818544D1*
X-1032212Y-845779D2*
X-1035918Y-853108D1*
X-1046784Y-864058D1*
X-970302D1*
X-1046784Y-894915D2*
Y-934924D1*
X-1017640Y-913109D1*
Y-924059D1*
X-1014018Y-931303D1*
X-1010396Y-934924D1*
X-999446Y-938631D1*
X-992203D1*
X-981252Y-934924D1*
X-973924Y-927681D1*
X-970302Y-916731D1*
Y-905781D1*
X-973924Y-894915D1*
X-977630Y-891293D1*
X-984874Y-887587D1*
X-1049475Y-1034545D2*
X-1053181Y-1041873D1*
X-1064047Y-1052823D1*
X-987566D1*
X-994894Y-1079974D2*
X-991188Y-1076352D1*
X-987566Y-1079974D1*
X-991188Y-1083680D1*
X-994894Y-1079974D1*
X-1049475Y-1107209D2*
X-1053181Y-1114538D1*
X-1064047Y-1125488D1*
X-987566D1*
X-1064047Y-1170917D2*
X-1060425Y-1159967D1*
X-1049475Y-1152639D1*
X-1031281Y-1149017D1*
X-1020331D1*
X-1002138Y-1152639D1*
X-991188Y-1159967D1*
X-987566Y-1170917D1*
Y-1178161D1*
X-991188Y-1189111D1*
X-1002138Y-1196354D1*
X-1020332Y-1200061D1*
X-1031282D1*
X-1049475Y-1196354D1*
X-1060425Y-1189111D1*
X-1064047Y-1178161D1*
Y-1170917D1*
X-1049475Y-1196354D2*
X-1002138Y-1152639D1*
X-895450Y-1345525D2*
X-902779Y-1341818D1*
X-913729Y-1330953D1*
Y-1407434D1*
X-940880Y-1400106D2*
X-937258Y-1403812D1*
X-940880Y-1407434D1*
X-944586Y-1403812D1*
X-940880Y-1400106D1*
X-968115Y-1345525D2*
X-975443Y-1341818D1*
X-986393Y-1330953D1*
Y-1407434D1*
X-1009923Y-1345525D2*
X-1017251Y-1341818D1*
X-1028201Y-1330953D1*
Y-1407434D1*
X-868169Y-1589846D2*
X-857219Y-1593468D1*
X-849891Y-1604418D1*
X-846269Y-1622612D1*
Y-1633562D1*
X-849891Y-1651756D1*
X-857219Y-1662706D1*
X-868169Y-1666327D1*
X-875413D1*
X-886363Y-1662706D1*
X-893607Y-1651756D1*
X-897313Y-1633562D1*
Y-1622612D1*
X-893607Y-1604418D1*
X-886363Y-1593468D1*
X-875413Y-1589846D1*
X-868169D1*
X-893607Y-1604418D2*
X-849891Y-1651756D1*
X-924464Y-1658999D2*
X-920842Y-1662706D1*
X-924464Y-1666327D1*
X-928170Y-1662706D1*
X-924464Y-1658999D1*
X-959028Y-1589846D2*
X-999037D1*
X-977222Y-1618990D1*
X-988172D1*
X-995415Y-1622612D1*
X-999037Y-1626234D1*
X-1002743Y-1637184D1*
Y-1644427D1*
X-999037Y-1655377D1*
X-991793Y-1662706D1*
X-980843Y-1666327D1*
X-969893D1*
X-959028Y-1662706D1*
X-955406Y-1658999D1*
X-951700Y-1651756D1*
X-1026273Y-1604418D2*
X-1033601Y-1600712D1*
X-1044551Y-1589846D1*
Y-1666327D1*
X-857206Y-1832389D2*
X-846256Y-1836011D1*
X-838928Y-1846961D1*
X-835306Y-1865155D1*
Y-1876105D1*
X-838928Y-1894299D1*
X-846256Y-1905249D1*
X-857206Y-1908871D1*
X-864450D1*
X-875400Y-1905249D1*
X-882644Y-1894299D1*
X-886350Y-1876105D1*
Y-1865155D1*
X-882644Y-1846961D1*
X-875400Y-1836011D1*
X-864450Y-1832389D1*
X-857206D1*
X-882644Y-1846961D2*
X-838928Y-1894299D1*
X-913502Y-1901543D2*
X-909880Y-1905249D1*
X-913502Y-1908871D1*
X-917208Y-1905249D1*
X-913502Y-1901543D1*
X-948065Y-1832389D2*
X-988075D1*
X-966259Y-1861533D1*
X-977209D1*
X-984453Y-1865155D1*
X-988075Y-1868777D1*
X-991781Y-1879727D1*
Y-1886971D1*
X-988075Y-1897921D1*
X-980831Y-1905249D1*
X-969881Y-1908871D1*
X-958931D1*
X-948065Y-1905249D1*
X-944443Y-1901543D1*
X-940737Y-1894299D1*
X-1037210Y-1832389D2*
X-1026260Y-1836011D1*
X-1018932Y-1846961D1*
X-1015310Y-1865155D1*
Y-1876105D1*
X-1018932Y-1894299D1*
X-1026260Y-1905249D1*
X-1037210Y-1908871D1*
X-1044454D1*
X-1055404Y-1905249D1*
X-1062648Y-1894299D1*
X-1066354Y-1876105D1*
Y-1865155D1*
X-1062648Y-1846961D1*
X-1055404Y-1836011D1*
X-1044454Y-1832389D1*
X-1037210D1*
X-1062648Y-1846961D2*
X-1018932Y-1894299D1*
X-865578Y-2085853D2*
X-854628Y-2089475D1*
X-847300Y-2100425D1*
X-843678Y-2118618D1*
Y-2129568D1*
X-847300Y-2147762D1*
X-854628Y-2158712D1*
X-865578Y-2162334D1*
X-872822D1*
X-883772Y-2158712D1*
X-891016Y-2147762D1*
X-894722Y-2129568D1*
Y-2118618D1*
X-891016Y-2100425D1*
X-883772Y-2089475D1*
X-872822Y-2085853D1*
X-865578D1*
X-891016Y-2100425D2*
X-847300Y-2147762D1*
X-921874Y-2155006D2*
X-918252Y-2158712D1*
X-921874Y-2162334D1*
X-925580Y-2158712D1*
X-921874Y-2155006D1*
X-952815Y-2104046D2*
Y-2100425D1*
X-956437Y-2093096D1*
X-960059Y-2089475D1*
X-967387Y-2085853D1*
X-981959D1*
X-989203Y-2089475D1*
X-992825Y-2093096D1*
X-996531Y-2100425D1*
Y-2107668D1*
X-992825Y-2114996D1*
X-985581Y-2125862D1*
X-949109Y-2162334D1*
X-1000153D1*
X-1071104Y-2111290D2*
X-1067398Y-2122240D1*
X-1060154Y-2129568D1*
X-1049204Y-2133190D1*
X-1045582D1*
X-1034632Y-2129568D1*
X-1027389Y-2122240D1*
X-1023682Y-2111290D1*
Y-2107668D1*
X-1027389Y-2096718D1*
X-1034632Y-2089475D1*
X-1045582Y-2085853D1*
X-1049204D1*
X-1060154Y-2089475D1*
X-1067398Y-2096718D1*
X-1071104Y-2111290D1*
Y-2129568D1*
X-1067398Y-2147762D1*
X-1060154Y-2158712D1*
X-1049204Y-2162334D1*
X-1041960D1*
X-1031010Y-2158712D1*
X-1027389Y-2151384D1*
X-1115657Y-2296222D2*
X-1112035Y-2285272D1*
X-1101085Y-2277944D1*
X-1082892Y-2274322D1*
X-1071942D1*
X-1053748Y-2277944D1*
X-1042798Y-2285273D1*
X-1039176Y-2296223D1*
Y-2303466D1*
X-1042798Y-2314416D1*
X-1053748Y-2321660D1*
X-1071942Y-2325366D1*
X-1082891D1*
X-1101085Y-2321660D1*
X-1112035Y-2314416D1*
X-1115657Y-2303466D1*
Y-2296222D1*
X-1101085Y-2321660D2*
X-1053748Y-2277944D1*
X-1046504Y-2352518D2*
X-1042798Y-2348896D1*
X-1039176Y-2352518D1*
X-1042798Y-2356224D1*
X-1046504Y-2352518D1*
X-1097463Y-2383459D2*
X-1101085D1*
X-1108413Y-2387081D1*
X-1112035Y-2390703D1*
X-1115657Y-2398031D1*
Y-2412603D1*
X-1112035Y-2419847D1*
X-1108413Y-2423469D1*
X-1101085Y-2427175D1*
X-1093841D1*
X-1086513Y-2423469D1*
X-1075648Y-2416225D1*
X-1039176Y-2379753D1*
Y-2430797D1*
X-1104792Y-2498042D2*
X-1112035Y-2494420D1*
X-1115657Y-2483470D1*
Y-2476226D1*
X-1112035Y-2465276D1*
X-1101085Y-2457948D1*
X-1082891Y-2454326D1*
X-1064698D1*
X-1050126Y-2457948D1*
X-1042798Y-2465276D1*
X-1039176Y-2476226D1*
Y-2479848D1*
X-1042798Y-2490714D1*
X-1050126Y-2498042D1*
X-1061076Y-2501664D1*
X-1064698D1*
X-1075648Y-2498042D1*
X-1082892Y-2490714D1*
X-1086513Y-2479848D1*
Y-2476226D1*
X-1082891Y-2465276D1*
X-1075648Y-2457948D1*
X-1064698Y-2454326D1*
X1048904Y449277D2*
X1059854Y445655D1*
X1067183Y434705D1*
X1070804Y416512D1*
Y405562D1*
X1067183Y387368D1*
X1059854Y376418D1*
X1048904Y372796D1*
X1041661D1*
X1030711Y376418D1*
X1023467Y387368D1*
X1019761Y405562D1*
Y416512D1*
X1023467Y434705D1*
X1030711Y445655D1*
X1041661Y449277D1*
X1048904D1*
X1023467Y434705D2*
X1067183Y387368D1*
X992609Y380124D2*
X996231Y376418D1*
X992609Y372796D1*
X988903Y376418D1*
X992609Y380124D1*
X965374Y434705D2*
X958046Y438412D1*
X947096Y449277D1*
Y372796D1*
X901666Y449277D2*
X912616Y445655D1*
X919944Y434705D1*
X923566Y416512D1*
Y405562D1*
X919944Y387368D1*
X912616Y376418D1*
X901666Y372796D1*
X894422D1*
X883472Y376418D1*
X876229Y387368D1*
X872522Y405562D1*
Y416512D1*
X876229Y434705D1*
X883472Y445655D1*
X894422Y449277D1*
X901666D1*
X876229Y434705D2*
X919944Y387368D1*
X1070345Y193001D2*
X1081295Y189379D1*
X1088623Y178429D1*
X1092245Y160235D1*
Y149285D1*
X1088623Y131091D1*
X1081295Y120141D1*
X1070345Y116519D1*
X1063101D1*
X1052151Y120141D1*
X1044907Y131091D1*
X1041201Y149285D1*
Y160235D1*
X1044907Y178429D1*
X1052151Y189379D1*
X1063101Y193001D1*
X1070345D1*
X1044907Y178429D2*
X1088623Y131091D1*
X1014050Y123847D2*
X1017672Y120141D1*
X1014050Y116519D1*
X1010344Y120141D1*
X1014050Y123847D1*
X964914Y193001D2*
X975864Y189379D1*
X983192Y178429D1*
X986814Y160235D1*
Y149285D1*
X983192Y131091D1*
X975864Y120141D1*
X964914Y116519D1*
X957670D1*
X946720Y120141D1*
X939477Y131091D1*
X935770Y149285D1*
Y160235D1*
X939477Y178429D1*
X946720Y189379D1*
X957670Y193001D1*
X964914D1*
X939477Y178429D2*
X983192Y131091D1*
X864819Y167563D2*
X868525Y156613D1*
X875769Y149285D1*
X886719Y145663D1*
X890341D1*
X901291Y149285D1*
X908535Y156613D1*
X912241Y167563D1*
Y171185D1*
X908535Y182135D1*
X901291Y189379D1*
X890341Y193001D1*
X886719D1*
X875769Y189379D1*
X868525Y182135D1*
X864819Y167563D1*
Y149285D1*
X868525Y131091D1*
X875769Y120141D1*
X886719Y116519D1*
X893963D1*
X904913Y120141D1*
X908535Y127469D1*
X1061151Y-58369D2*
X1072101Y-61991D1*
X1079429Y-72941D1*
X1083051Y-91135D1*
Y-102085D1*
X1079429Y-120279D1*
X1072101Y-131229D1*
X1061151Y-134851D1*
X1053907D1*
X1042957Y-131229D1*
X1035713Y-120279D1*
X1032007Y-102085D1*
Y-91135D1*
X1035713Y-72941D1*
X1042957Y-61991D1*
X1053907Y-58369D1*
X1061151D1*
X1035713Y-72941D2*
X1079429Y-120279D1*
X1004856Y-127523D2*
X1008478Y-131229D1*
X1004856Y-134851D1*
X1001150Y-131229D1*
X1004856Y-127523D1*
X977620Y-72941D2*
X970292Y-69235D1*
X959342Y-58369D1*
Y-134851D1*
X921241D2*
X884769Y-58369D1*
X935813D1*
X1056964Y-313726D2*
X1067914Y-317348D1*
X1075243Y-328298D1*
X1078864Y-346492D1*
Y-357442D1*
X1075243Y-375636D1*
X1067914Y-386586D1*
X1056964Y-390207D1*
X1049721D1*
X1038771Y-386586D1*
X1031527Y-375636D1*
X1027821Y-357442D1*
Y-346492D1*
X1031527Y-328298D1*
X1038771Y-317348D1*
X1049721Y-313726D1*
X1056964D1*
X1031527Y-328298D2*
X1075243Y-375636D1*
X1000669Y-382879D2*
X1004291Y-386586D1*
X1000669Y-390207D1*
X996963Y-386586D1*
X1000669Y-382879D1*
X973434Y-328298D2*
X966106Y-324592D1*
X955156Y-313726D1*
Y-390207D1*
X887910Y-313726D2*
X924298D1*
X927920Y-346492D1*
X924298Y-342870D1*
X913348Y-339164D1*
X902482D1*
X891532Y-342870D1*
X884204Y-350114D1*
X880582Y-361064D1*
Y-368307D1*
X884204Y-379257D1*
X891532Y-386586D1*
X902482Y-390207D1*
X913348D1*
X924298Y-386586D1*
X927920Y-382879D1*
X931626Y-375636D1*
X1027496Y-575962D2*
X1034739Y-568634D1*
X1045689Y-565012D1*
X1060261D1*
X1071211Y-568634D1*
X1078539Y-575962D1*
Y-583206D1*
X1074833Y-590534D1*
X1071211Y-594156D1*
X1063967Y-597777D1*
X1042067Y-605106D1*
X1034739Y-608727D1*
X1031117Y-612434D1*
X1027496Y-619677D1*
Y-630627D1*
X1034739Y-637871D1*
X1045689Y-641577D1*
X1060261D1*
X1071211Y-637871D1*
X1078539Y-630627D1*
X1003966Y-565012D2*
X985688Y-641577D1*
X967494Y-565012D1*
X949300Y-641577D1*
X931022Y-565012D1*
X907493D2*
Y-641577D1*
X856449Y-565012D2*
X907493Y-616056D1*
X889299Y-597777D2*
X856449Y-641577D1*
X1026635Y-800344D2*
X1019307Y-793100D1*
X1015685Y-782150D1*
Y-767578D1*
X1019307Y-756628D1*
X1026635Y-749300D1*
X1033879D1*
X1041207Y-753006D1*
X1044829Y-756628D1*
X1048451Y-763872D1*
X1055779Y-785772D1*
X1059401Y-793100D1*
X1063107Y-796722D1*
X1070351Y-800344D1*
X1081301D1*
X1088545Y-793100D1*
X1092251Y-782150D1*
Y-767578D1*
X1088545Y-756628D1*
X1081301Y-749300D1*
X1015685Y-823873D2*
X1092251Y-842151D1*
X1015685Y-860345D1*
X1092251Y-878539D1*
X1015685Y-896817D1*
Y-942246D2*
X1019307Y-934918D1*
X1026635Y-927674D1*
X1033879Y-923968D1*
X1044829Y-920346D1*
X1063107D1*
X1073973Y-923968D1*
X1081301Y-927675D1*
X1088545Y-934918D1*
X1092251Y-942246D1*
Y-956818D1*
X1088545Y-964062D1*
X1081301Y-971390D1*
X1073973Y-975012D1*
X1063107Y-978634D1*
X1044829D1*
X1033879Y-975012D1*
X1026635Y-971390D1*
X1019307Y-964062D1*
X1015685Y-956818D1*
Y-942246D1*
X1043422Y-1099738D2*
X1036179Y-1096116D1*
X1028850Y-1088788D1*
X1025229Y-1081544D1*
Y-1066972D1*
X1028850Y-1059644D1*
X1036179Y-1052400D1*
X1043422Y-1048694D1*
X1054372Y-1045072D1*
X1072650D1*
X1083516Y-1048694D1*
X1090844Y-1052400D1*
X1098088Y-1059644D1*
X1101794Y-1066972D1*
Y-1081544D1*
X1098088Y-1088788D1*
X1090844Y-1096116D1*
X1083516Y-1099738D1*
X1072650D1*
Y-1081544D1*
X1025229Y-1174311D2*
X1101794D1*
X1025229Y-1123267D1*
X1101794D1*
X1025229Y-1197840D2*
X1101794D1*
Y-1223362D1*
X1098088Y-1234312D1*
X1090844Y-1241640D1*
X1083516Y-1245262D1*
X1072650Y-1248884D1*
X1054372D1*
X1043422Y-1245262D1*
X1036178Y-1241640D1*
X1028850Y-1234312D1*
X1025228Y-1223362D1*
X1025229Y-1197840D1*
X1135680Y-1355538D2*
X1106536Y-1432104D1*
X1077392Y-1355538D1*
X1053863D2*
Y-1432104D1*
X1028341D1*
X1017391Y-1428398D1*
X1010063Y-1421154D1*
X1006441Y-1413826D1*
X1002819Y-1402960D1*
Y-1384682D1*
X1006441Y-1373732D1*
X1010063Y-1366488D1*
X1017391Y-1359160D1*
X1028341Y-1355538D1*
X1053863D1*
X979290D2*
Y-1432104D1*
X953768D1*
X942818Y-1428398D1*
X935490Y-1421154D1*
X931868Y-1413826D1*
X928246Y-1402960D1*
Y-1384682D1*
X931868Y-1373732D1*
X935490Y-1366488D1*
X942818Y-1359160D1*
X953768Y-1355538D1*
X979290D1*
M02*
