G04 DipTrace 3.2.0.1*
G04 BottomMask.gbr*
%MOMM*%
G04 #@! TF.FileFunction,Soldermask,Bot*
G04 #@! TF.Part,Single*
%AMOUTLINE4*
4,1,4,
2.96949,1.57544,
-0.95759,-3.22229,
-2.96949,-1.57544,
0.95759,3.22229,
2.96949,1.57544,
0*%
%AMOUTLINE7*
4,1,4,
2.84972,0.63968,
-0.06396,-2.91992,
-2.84972,-0.63968,
0.06396,2.91992,
2.84972,0.63968,
0*%
%AMOUTLINE10*
4,1,5,
-1.0,0.44142,
-1.0,-1.1,
1.0,-1.1,
1.0,1.1,
-0.34142,1.1,
-1.0,0.44142,
0*%
%AMOUTLINE13*
4,1,5,
-1.0,-1.1,
1.0,-1.1,
1.0,0.44142,
0.34142,1.1,
-1.0,1.1,
-1.0,-1.1,
0*%
%ADD43C,1.4*%
%ADD44C,0.7*%
%ADD47C,1.4*%
%ADD49R,0.6X1.55*%
%ADD53O,1.6X4.0*%
%ADD61R,0.95X1.3*%
%ADD63R,1.3X0.95*%
%ADD75C,1.7*%
%ADD77C,2.0*%
%ADD79C,2.0*%
%ADD81R,3.1X2.05*%
%ADD92OUTLINE4*%
%ADD95OUTLINE7*%
%ADD98OUTLINE10*%
%ADD101OUTLINE13*%
%FSLAX35Y35*%
G04*
G71*
G90*
G75*
G01*
G04 BotMask*
%LPD*%
D81*
X-887053Y-3829060D3*
Y-4289060D3*
D79*
X-1230000Y-356000D3*
Y-102000D3*
Y152000D3*
Y406000D3*
X1272000Y-356000D3*
Y-102000D3*
Y152000D3*
Y406000D3*
X-1230000Y-1371000D3*
Y-1117000D3*
Y-863000D3*
Y-609000D3*
X1272000Y-1372000D3*
Y-1118000D3*
Y-864000D3*
Y-610000D3*
X-1234000Y-1624000D3*
D77*
X-1230000Y-1878000D3*
D79*
X-1234000Y-2132000D3*
D77*
X-1230000Y-2386000D3*
D79*
X-1234000Y-2635000D3*
D77*
X-1230000Y-2889000D3*
D79*
X-1234000Y-3416900D3*
D77*
X-1230000Y-3670900D3*
D75*
X150000Y406000D3*
X-320000Y281000D3*
X150000Y152000D3*
X-320000Y27000D3*
X150000Y-102000D3*
X-320000Y-227000D3*
X150000Y-354000D3*
X-320000Y-481000D3*
Y535000D3*
D63*
X502000Y-443000D3*
Y-315000D3*
Y-189000D3*
Y-61000D3*
Y66000D3*
Y193000D3*
Y320000D3*
D61*
X-339000Y-710000D3*
X-212000D3*
X-85000D3*
X42000D3*
X169000D3*
X295000D3*
X423000D3*
D63*
X502000Y447000D3*
D53*
X627000Y-4220000D3*
X-543000D3*
D43*
X-183000D3*
X267000D3*
D92*
X-473563Y-3429523D3*
D95*
X815400Y-1854787D3*
D49*
X41430Y-4053293D3*
X-23570D3*
X106430D3*
X171430D3*
X-88570D3*
D98*
X403930Y-4310793D3*
D101*
X-321070D3*
D44*
X-201070Y-4045793D3*
X283930D3*
D47*
X-578127Y-1350000D3*
Y-1140000D3*
M02*
