G04 DipTrace 3.2.0.1*
G04 BottomSilk.gbr*
%MOMM*%
G04 #@! TF.FileFunction,Legend,Bot*
G04 #@! TF.Part,Single*
%ADD10C,0.25*%
%ADD12C,0.0762*%
%ADD13C,0.05*%
%ADD84C,0.11765*%
%FSLAX35Y35*%
G04*
G71*
G90*
G75*
G01*
G04 BotSilk*
%LPD*%
X-752058Y-3970566D2*
D10*
X-1022048D1*
X-752058Y-3951797D2*
X-1022048D1*
X-752058D2*
Y-4166323D1*
X-1022048Y-3951797D2*
Y-4166323D1*
X-1059772Y-2767408D2*
X-1057055Y-2689630D1*
X-1048919Y-2612232D1*
X-1035403Y-2535589D1*
X-1016572Y-2460076D1*
X-992519Y-2386060D1*
X-963361Y-2313903D1*
X-929239Y-2243954D1*
X-890321Y-2176556D1*
X-846794Y-2112036D1*
X-798873Y-2050709D1*
X-746790Y-1992874D1*
X-690798Y-1938812D1*
X-631172Y-1888787D1*
X-568200Y-1843043D1*
X-502190Y-1801802D1*
X-433464Y-1765266D1*
X-362356Y-1733611D1*
X-289213Y-1706994D1*
X-214391Y-1685542D1*
X-138255Y-1669362D1*
X-61175Y-1658531D1*
X16473Y-1653102D1*
X94310D1*
X171958Y-1658531D1*
X249037Y-1669362D1*
X325174Y-1685542D1*
X399996Y-1706994D1*
X473139Y-1733611D1*
X544247Y-1765266D1*
X612973Y-1801802D1*
X678983Y-1843043D1*
X741954Y-1888787D1*
X801581Y-1938812D1*
X857573Y-1992874D1*
X909656Y-2050709D1*
X957577Y-2112036D1*
X1001103Y-2176556D1*
X1040022Y-2243954D1*
X1074143Y-2313903D1*
X1103302Y-2386060D1*
X1127355Y-2460076D1*
X1146185Y-2535589D1*
X1159702Y-2612232D1*
X1167838Y-2689630D1*
X1170554Y-2767408D1*
X1167838Y-2845185D1*
X1159702Y-2922584D1*
X1146185Y-2999226D1*
X1127355Y-3074740D1*
X1103302Y-3148755D1*
X1074143Y-3220913D1*
X1040022Y-3290862D1*
X1001103Y-3358260D1*
X957577Y-3422780D1*
X909656Y-3484107D1*
X857573Y-3541942D1*
X801581Y-3596004D1*
X741954Y-3646028D1*
X678983Y-3691773D1*
X612973Y-3733014D1*
X544247Y-3769550D1*
X473139Y-3801204D1*
X399996Y-3827822D1*
X325174Y-3849274D1*
X249037Y-3865454D1*
X171958Y-3876285D1*
X94310Y-3881714D1*
X16473D1*
X-61175Y-3876285D1*
X-138255Y-3865454D1*
X-214391Y-3849274D1*
X-289213Y-3827822D1*
X-362356Y-3801204D1*
X-433464Y-3769550D1*
X-502190Y-3733014D1*
X-568200Y-3691773D1*
X-631172Y-3646028D1*
X-690798Y-3596004D1*
X-746790Y-3541942D1*
X-798873Y-3484107D1*
X-846794Y-3422780D1*
X-890321Y-3358260D1*
X-929239Y-3290862D1*
X-963361Y-3220913D1*
X-992519Y-3148755D1*
X-1016572Y-3074740D1*
X-1035403Y-2999226D1*
X-1048919Y-2922584D1*
X-1057055Y-2845185D1*
X-1059772Y-2767408D1*
X165558Y-3872244D2*
X1160230Y-2657214D1*
X-1049213Y-2877602D2*
X-54776Y-1662572D1*
X1286705Y-2289177D2*
X938488Y-2004269D1*
X628753Y-1750775D2*
X280536Y-1465867D1*
X1286705Y-2289177D2*
X1128318Y-2482741D1*
X280536Y-1465867D2*
X122383Y-1659189D1*
X-358580Y-4035772D2*
X441440D1*
Y-4515793D1*
X-358580D1*
Y-4035772D1*
X-1109553Y-3981560D2*
D13*
X-1084553D1*
X-1115216Y-3984060D2*
X-1078504D1*
X-1119896Y-3986560D2*
X-1073214D1*
X-1123587Y-3989060D2*
X-1068954D1*
X-1126566Y-3991560D2*
X-1114439D1*
X-1077545D2*
X-1065778D1*
X-1128979Y-3994060D2*
X-1118933D1*
X-1073592D2*
X-1063491D1*
X-1130877Y-3996560D2*
X-1122589D1*
X-1070353D2*
X-1061759D1*
X-1132355Y-3999060D2*
X-1125236D1*
X-1067853D2*
X-1060313D1*
X-1133416Y-4001560D2*
X-1127087D1*
X-1066105D2*
X-1059073D1*
X-1134033Y-4004060D2*
X-1128312D1*
X-1064882D2*
X-1058119D1*
X-1134336Y-4006560D2*
X-1128994D1*
X-1063937D2*
X-1057557D1*
X-1134469Y-4009060D2*
X-1129313D1*
X-1063205D2*
X-1057359D1*
X-1134512Y-4011560D2*
X-1129367D1*
X-1063472D2*
X-1057551D1*
X-1134445Y-4014060D2*
X-1129085D1*
X-1063994D2*
X-1058108D1*
X-1134124Y-4016560D2*
X-1128312D1*
X-1064750D2*
X-1058827D1*
X-1133430Y-4019060D2*
X-1127148D1*
X-1065786D2*
X-1059673D1*
X-1132373Y-4021560D2*
X-1124458D1*
X-1068316D2*
X-1060917D1*
X-1130913Y-4024060D2*
X-1120863D1*
X-1071956D2*
X-1062688D1*
X-1128930Y-4026560D2*
X-1116594D1*
X-1076331D2*
X-1064919D1*
X-1126346Y-4029060D2*
X-1112053D1*
X-1080143D2*
X-1067646D1*
X-1123129Y-4031560D2*
X-1113381D1*
X-1082686D2*
X-1070934D1*
X-1119553Y-4034060D2*
X-1114553D1*
X-1084553D2*
X-1074553D1*
X-1114553Y-4051560D2*
X-1109553D1*
X-1116762Y-4054060D2*
X-1110804D1*
X-1118973Y-4056560D2*
X-1112266D1*
X-1121512Y-4059060D2*
X-1113803D1*
X-1124524Y-4061560D2*
X-1115494D1*
X-1127732Y-4064060D2*
X-1117453D1*
X-1130619Y-4066560D2*
X-1057053D1*
X-1132804Y-4069060D2*
X-1057053D1*
X-1134553Y-4071560D2*
X-1057053D1*
X-1102053Y-4094060D2*
X-1089553D1*
X-1112718Y-4096560D2*
X-1079574D1*
X-1120881Y-4099060D2*
X-1072005D1*
X-1126584Y-4101560D2*
X-1066829D1*
X-1130868Y-4104060D2*
X-1119052D1*
X-1075631D2*
X-1063362D1*
X-1132950Y-4106560D2*
X-1122917D1*
X-1070537D2*
X-1061011D1*
X-1133784Y-4109060D2*
X-1125838D1*
X-1067069D2*
X-1059354D1*
X-1134229Y-4111560D2*
X-1128057D1*
X-1064539D2*
X-1058236D1*
X-1134418Y-4114060D2*
X-1128725D1*
X-1063501D2*
X-1057684D1*
X-1134410Y-4116560D2*
X-1128997D1*
X-1063799D2*
X-1057701D1*
X-1134101Y-4119060D2*
X-1128098D1*
X-1065605D2*
X-1058262D1*
X-1133328Y-4121560D2*
X-1125373D1*
X-1068454D2*
X-1059274D1*
X-1131936Y-4124060D2*
X-1121220D1*
X-1072750D2*
X-1060812D1*
X-1129697Y-4126560D2*
X-1115695D1*
X-1078357D2*
X-1063204D1*
X-1126391Y-4129060D2*
X-1066791D1*
X-1122025Y-4131560D2*
X-1071606D1*
X-1117053Y-4134060D2*
X-1077053D1*
X-128280Y532643D2*
X-123280D1*
X-75780D2*
X-60780D1*
X1720D2*
X14220D1*
X-128280Y530143D2*
X-121730D1*
X-78270D2*
X-57221D1*
X-1538D2*
X16625D1*
X-128280Y527643D2*
X-120304D1*
X-80673D2*
X-54333D1*
X-4048D2*
X18795D1*
X-128280Y525143D2*
X-118965D1*
X-82766D2*
X-72393D1*
X-60790D2*
X-52167D1*
X-5936D2*
X1815D1*
X13824D2*
X20598D1*
X-128280Y522643D2*
X-117670D1*
X-84339D2*
X-75637D1*
X-58387D2*
X-50563D1*
X-7463D2*
X-355D1*
X15606D2*
X22050D1*
X-128280Y520143D2*
X-116325D1*
X-85502D2*
X-77911D1*
X-56303D2*
X-49449D1*
X-8738D2*
X-2158D1*
X17053D2*
X23187D1*
X-128280Y517643D2*
X-114831D1*
X-86508D2*
X-79615D1*
X-54809D2*
X-48810D1*
X-9706D2*
X-3600D1*
X18188D2*
X24118D1*
X-128280Y515143D2*
X-113218D1*
X-87316D2*
X-80214D1*
X-53908D2*
X-48484D1*
X-10283D2*
X-4649D1*
X19118D2*
X25018D1*
X-128280Y512643D2*
X-123280D1*
X-118676D2*
X-111687D1*
X-87734D2*
X-80529D1*
X-53280D2*
X-48280D1*
X-10581D2*
X-5261D1*
X20018D2*
X25792D1*
X-128280Y510143D2*
X-123280D1*
X-116884D2*
X-110281D1*
X-87673D2*
X-80588D1*
X-10796D2*
X-5563D1*
X20792D2*
X26281D1*
X-128280Y507643D2*
X-123280D1*
X-115359D2*
X-108955D1*
X-87180D2*
X-80319D1*
X-11166D2*
X-5696D1*
X21281D2*
X26533D1*
X-128280Y505143D2*
X-123280D1*
X-113984D2*
X-107675D1*
X-86499D2*
X-79655D1*
X-11784D2*
X-5749D1*
X21533D2*
X26646D1*
X-128280Y502643D2*
X-123280D1*
X-112686D2*
X-106411D1*
X-85752D2*
X-78694D1*
X-12432D2*
X-5769D1*
X21646D2*
X26693D1*
X-128280Y500143D2*
X-123280D1*
X-111415D2*
X-105158D1*
X-84830D2*
X-77564D1*
X-12871D2*
X-5776D1*
X21693D2*
X26710D1*
X-128280Y497643D2*
X-123280D1*
X-110150D2*
X-103905D1*
X-83679D2*
X-76276D1*
X-13103D2*
X-5779D1*
X21710D2*
X26717D1*
X-128280Y495143D2*
X-123280D1*
X-108817D2*
X-102647D1*
X-82273D2*
X-74719D1*
X-13210D2*
X-5780D1*
X21717D2*
X26719D1*
X-128280Y492643D2*
X-123280D1*
X-107328D2*
X-101316D1*
X-80687D2*
X-72788D1*
X-13244D2*
X-5780D1*
X21719D2*
X26720D1*
X-128280Y490143D2*
X-123280D1*
X-105710D2*
X-99837D1*
X-79082D2*
X-70573D1*
X-13173D2*
X-5780D1*
X21720D2*
X26720D1*
X-128280Y487643D2*
X-123280D1*
X-104113D2*
X-98315D1*
X-77353D2*
X-68199D1*
X-12861D2*
X-5780D1*
X21720D2*
X26720D1*
X-128280Y485143D2*
X-123280D1*
X-102487D2*
X-97113D1*
X-75341D2*
X-65750D1*
X-12264D2*
X-5780D1*
X21710D2*
X26720D1*
X-128280Y482643D2*
X-123280D1*
X-100780D2*
X-96394D1*
X-73093D2*
X-63269D1*
X-11624D2*
X-5780D1*
X21622D2*
X26720D1*
X-138280Y480143D2*
X-96037D1*
X-70706D2*
X-60786D1*
X-11188D2*
X-5770D1*
X21304D2*
X26710D1*
X-138280Y477643D2*
X-95880D1*
X-68253D2*
X-58376D1*
X-10946D2*
X-5682D1*
X20695D2*
X26622D1*
X-138280Y475143D2*
X-95815D1*
X-65780D2*
X-56196D1*
X-10752D2*
X-5354D1*
X19966D2*
X26294D1*
X-128280Y472643D2*
X-123280D1*
X-63374D2*
X-54305D1*
X-10380D2*
X-4658D1*
X19202D2*
X25607D1*
X-128280Y470143D2*
X-123280D1*
X-61195D2*
X-52543D1*
X-9677D2*
X-3561D1*
X18235D2*
X24638D1*
X-128280Y467643D2*
X-123280D1*
X-59295D2*
X-50886D1*
X-8701D2*
X-2151D1*
X17047D2*
X23506D1*
X-128280Y465143D2*
X-123280D1*
X-57443D2*
X-49545D1*
X-7557D2*
X1596D1*
X14436D2*
X22207D1*
X-128280Y462643D2*
X-123280D1*
X-55417D2*
X-48486D1*
X-33280D2*
X-28280D1*
X-6172D2*
X7277D1*
X8573D2*
X20555D1*
X-128280Y460143D2*
X-123280D1*
X-88280D2*
X-47502D1*
X-33280D2*
X-28280D1*
X-4236D2*
X18238D1*
X-128280Y457643D2*
X-123280D1*
X-88280D2*
X-46593D1*
X-33280D2*
X-28280D1*
X-1492D2*
X15184D1*
X-128280Y455143D2*
X-123280D1*
X-88280D2*
X-45780D1*
X-33280D2*
X-28280D1*
X1720D2*
X11720D1*
X-580403Y302593D2*
X-575403D1*
X-525403D2*
X-512903D1*
X-452903D2*
X-447903D1*
X-580403Y300093D2*
X-573853D1*
X-528661D2*
X-510499D1*
X-452903D2*
X-446944D1*
X-580403Y297593D2*
X-572427D1*
X-531172D2*
X-508329D1*
X-452903D2*
X-445782D1*
X-580403Y295093D2*
X-571088D1*
X-533059D2*
X-525308D1*
X-513299D2*
X-506526D1*
X-452903D2*
X-444292D1*
X-580403Y292593D2*
X-569793D1*
X-534586D2*
X-527478D1*
X-511517D2*
X-505073D1*
X-452903D2*
X-442391D1*
X-580403Y290093D2*
X-568448D1*
X-535862D2*
X-529281D1*
X-510071D2*
X-503936D1*
X-452903D2*
X-440189D1*
X-580403Y287593D2*
X-566954D1*
X-536829D2*
X-530724D1*
X-508936D2*
X-503006D1*
X-452903D2*
X-437829D1*
X-580403Y285093D2*
X-565342D1*
X-537406D2*
X-531773D1*
X-508005D2*
X-502105D1*
X-452903D2*
X-435477D1*
X-580403Y282593D2*
X-575403D1*
X-570799D2*
X-563810D1*
X-537704D2*
X-532385D1*
X-507105D2*
X-501332D1*
X-452903D2*
X-445403D1*
X-440403D2*
X-433384D1*
X-580403Y280093D2*
X-575403D1*
X-569007D2*
X-562405D1*
X-537919D2*
X-532687D1*
X-506332D2*
X-500842D1*
X-452903D2*
X-445403D1*
X-437903D2*
X-431746D1*
X-580403Y277593D2*
X-575403D1*
X-567483D2*
X-561078D1*
X-538289D2*
X-532819D1*
X-505842D2*
X-500590D1*
X-452903D2*
X-445403D1*
X-435403D2*
X-430403D1*
X-580403Y275093D2*
X-575403D1*
X-566107D2*
X-559799D1*
X-538908D2*
X-532872D1*
X-505590D2*
X-500477D1*
X-452903D2*
X-445403D1*
X-580403Y272593D2*
X-575403D1*
X-564809D2*
X-558534D1*
X-539556D2*
X-532892D1*
X-505477D2*
X-500431D1*
X-452903D2*
X-445403D1*
X-580403Y270093D2*
X-575403D1*
X-563538D2*
X-557282D1*
X-539994D2*
X-532900D1*
X-505431D2*
X-500413D1*
X-452903D2*
X-445403D1*
X-580403Y267593D2*
X-575403D1*
X-562273D2*
X-556028D1*
X-540227D2*
X-532902D1*
X-505413D2*
X-500407D1*
X-452903D2*
X-445403D1*
X-580403Y265093D2*
X-575403D1*
X-560941D2*
X-554770D1*
X-540333D2*
X-532903D1*
X-505407D2*
X-500404D1*
X-452903D2*
X-445403D1*
X-580403Y262593D2*
X-575403D1*
X-559451D2*
X-553440D1*
X-540367D2*
X-532903D1*
X-505404D2*
X-500404D1*
X-452903D2*
X-445403D1*
X-580403Y260093D2*
X-575403D1*
X-557833D2*
X-551961D1*
X-540296D2*
X-532903D1*
X-505404D2*
X-500403D1*
X-452903D2*
X-445403D1*
X-580403Y257593D2*
X-575403D1*
X-556236D2*
X-550438D1*
X-539984D2*
X-532903D1*
X-505403D2*
X-500403D1*
X-452903D2*
X-445403D1*
X-580403Y255093D2*
X-575403D1*
X-554610D2*
X-549236D1*
X-539387D2*
X-532903D1*
X-505413D2*
X-500403D1*
X-452903D2*
X-445403D1*
X-580403Y252593D2*
X-575403D1*
X-552903D2*
X-548517D1*
X-538747D2*
X-532903D1*
X-505501D2*
X-500403D1*
X-452903D2*
X-445403D1*
X-590403Y250093D2*
X-548160D1*
X-538311D2*
X-532894D1*
X-505820D2*
X-500413D1*
X-452903D2*
X-445403D1*
X-590403Y247593D2*
X-548003D1*
X-538070D2*
X-532806D1*
X-506428D2*
X-500501D1*
X-452903D2*
X-445403D1*
X-590403Y245093D2*
X-547938D1*
X-537876D2*
X-532477D1*
X-507157D2*
X-500829D1*
X-452903D2*
X-445403D1*
X-580403Y242593D2*
X-575403D1*
X-537504D2*
X-531781D1*
X-507921D2*
X-501516D1*
X-452903D2*
X-445403D1*
X-580403Y240093D2*
X-575403D1*
X-536800D2*
X-530685D1*
X-508889D2*
X-502485D1*
X-452903D2*
X-445403D1*
X-580403Y237593D2*
X-575403D1*
X-535825D2*
X-529274D1*
X-510077D2*
X-503618D1*
X-452903D2*
X-445403D1*
X-580403Y235093D2*
X-575403D1*
X-534680D2*
X-525527D1*
X-512687D2*
X-504917D1*
X-452903D2*
X-445403D1*
X-580403Y232593D2*
X-575403D1*
X-533296D2*
X-519846D1*
X-518551D2*
X-506569D1*
X-485403D2*
X-480403D1*
X-452903D2*
X-445403D1*
X-580403Y230093D2*
X-575403D1*
X-531359D2*
X-508885D1*
X-485403D2*
X-480403D1*
X-452903D2*
X-445403D1*
X-580403Y227593D2*
X-575403D1*
X-528615D2*
X-511940D1*
X-485403D2*
X-480403D1*
X-452903D2*
X-445403D1*
X-580403Y225093D2*
X-575403D1*
X-525403D2*
X-515403D1*
X-485403D2*
X-480403D1*
X-452903D2*
X-445403D1*
X-121957Y295103D2*
X-106957D1*
X-69457D2*
X-56957D1*
X3043D2*
X8043D1*
X-124447Y292603D2*
X-103398D1*
X-72715D2*
X-54552D1*
X3043D2*
X9003D1*
X-126849Y290103D2*
X-100510D1*
X-75225D2*
X-52382D1*
X3043D2*
X10165D1*
X-128943Y287603D2*
X-118569D1*
X-106966D2*
X-98344D1*
X-77113D2*
X-69361D1*
X-57353D2*
X-50579D1*
X3043D2*
X11655D1*
X-130516Y285103D2*
X-121814D1*
X-104564D2*
X-96740D1*
X-78639D2*
X-71531D1*
X-55570D2*
X-49127D1*
X3043D2*
X13556D1*
X-131678Y282603D2*
X-124088D1*
X-102480D2*
X-95625D1*
X-79915D2*
X-73334D1*
X-54124D2*
X-47990D1*
X3043D2*
X15758D1*
X-132685Y280103D2*
X-125792D1*
X-100986D2*
X-94987D1*
X-80883D2*
X-74777D1*
X-52989D2*
X-47059D1*
X3043D2*
X18117D1*
X-133492Y277603D2*
X-126391D1*
X-100085D2*
X-94660D1*
X-81460D2*
X-75826D1*
X-52059D2*
X-46158D1*
X3043D2*
X20469D1*
X-133911Y275103D2*
X-126706D1*
X-99457D2*
X-94457D1*
X-81758D2*
X-76438D1*
X-51158D2*
X-45385D1*
X3043D2*
X10543D1*
X15543D2*
X22563D1*
X-133850Y272603D2*
X-126764D1*
X-81973D2*
X-76740D1*
X-50385D2*
X-44896D1*
X3043D2*
X10543D1*
X18043D2*
X24201D1*
X-133357Y270103D2*
X-126496D1*
X-82343D2*
X-76872D1*
X-49896D2*
X-44644D1*
X3043D2*
X10543D1*
X20543D2*
X25543D1*
X-132675Y267603D2*
X-125832D1*
X-82961D2*
X-76926D1*
X-49644D2*
X-44531D1*
X3043D2*
X10543D1*
X-131929Y265103D2*
X-124870D1*
X-83609D2*
X-76946D1*
X-49531D2*
X-44484D1*
X3043D2*
X10543D1*
X-131007Y262603D2*
X-123741D1*
X-84047D2*
X-76953D1*
X-49484D2*
X-44466D1*
X3043D2*
X10543D1*
X-129856Y260103D2*
X-122453D1*
X-84280D2*
X-76955D1*
X-49466D2*
X-44460D1*
X3043D2*
X10543D1*
X-128449Y257603D2*
X-120896D1*
X-84386D2*
X-76956D1*
X-49460D2*
X-44458D1*
X3043D2*
X10543D1*
X-126864Y255103D2*
X-118964D1*
X-84421D2*
X-76957D1*
X-49458D2*
X-44457D1*
X3043D2*
X10543D1*
X-125258Y252603D2*
X-116749D1*
X-84350D2*
X-76957D1*
X-49457D2*
X-44457D1*
X3043D2*
X10543D1*
X-123529Y250103D2*
X-114376D1*
X-84037D2*
X-76957D1*
X-49457D2*
X-44457D1*
X3043D2*
X10543D1*
X-121518Y247603D2*
X-111927D1*
X-83441D2*
X-76957D1*
X-49466D2*
X-44457D1*
X3043D2*
X10543D1*
X-119270Y245103D2*
X-109446D1*
X-82800D2*
X-76957D1*
X-49554D2*
X-44457D1*
X3043D2*
X10543D1*
X-116883Y242603D2*
X-106963D1*
X-82365D2*
X-76947D1*
X-49873D2*
X-44466D1*
X3043D2*
X10543D1*
X-114429Y240103D2*
X-104553D1*
X-82123D2*
X-76859D1*
X-50481D2*
X-44554D1*
X3043D2*
X10543D1*
X-111957Y237603D2*
X-102373D1*
X-81929D2*
X-76531D1*
X-51210D2*
X-44883D1*
X3043D2*
X10543D1*
X-109551Y235103D2*
X-100481D1*
X-81557D2*
X-75834D1*
X-51975D2*
X-45569D1*
X3043D2*
X10543D1*
X-107372Y232603D2*
X-98720D1*
X-80853D2*
X-74738D1*
X-52942D2*
X-46539D1*
X3043D2*
X10543D1*
X-105472Y230103D2*
X-97063D1*
X-79878D2*
X-73328D1*
X-54130D2*
X-47671D1*
X3043D2*
X10543D1*
X-103619Y227603D2*
X-95722D1*
X-78734D2*
X-69580D1*
X-56741D2*
X-48970D1*
X3043D2*
X10543D1*
X-101593Y225103D2*
X-94663D1*
X-77349D2*
X-63900D1*
X-62604D2*
X-50622D1*
X-29457D2*
X-24457D1*
X3043D2*
X10543D1*
X-134457Y222603D2*
X-93679D1*
X-75412D2*
X-52938D1*
X-29457D2*
X-24457D1*
X3043D2*
X10543D1*
X-134457Y220103D2*
X-92769D1*
X-72669D2*
X-55993D1*
X-29457D2*
X-24457D1*
X3043D2*
X10543D1*
X-134457Y217603D2*
X-91957D1*
X-69457D2*
X-59457D1*
X-29457D2*
X-24457D1*
X3043D2*
X10543D1*
X-597967Y71390D2*
X-582967D1*
X-547967D2*
X-532967D1*
X-470467D2*
X-457967D1*
X-600457Y68890D2*
X-579408D1*
X-550457D2*
X-529408D1*
X-473725D2*
X-455562D1*
X-602859Y66390D2*
X-576520D1*
X-552859D2*
X-526520D1*
X-476235D2*
X-453392D1*
X-604953Y63890D2*
X-594579D1*
X-582976D2*
X-574354D1*
X-554953D2*
X-544579D1*
X-532976D2*
X-524354D1*
X-478123D2*
X-470371D1*
X-458363D2*
X-451589D1*
X-606526Y61390D2*
X-597824D1*
X-580574D2*
X-572750D1*
X-556526D2*
X-547824D1*
X-530574D2*
X-522750D1*
X-479649D2*
X-472541D1*
X-456580D2*
X-450137D1*
X-607688Y58890D2*
X-600098D1*
X-578490D2*
X-571635D1*
X-557688D2*
X-550098D1*
X-528490D2*
X-521635D1*
X-480925D2*
X-474344D1*
X-455134D2*
X-449000D1*
X-608695Y56390D2*
X-601802D1*
X-576996D2*
X-570997D1*
X-558695D2*
X-551802D1*
X-526996D2*
X-520997D1*
X-481893D2*
X-475787D1*
X-453999D2*
X-448069D1*
X-609502Y53890D2*
X-602401D1*
X-576095D2*
X-570670D1*
X-559502D2*
X-552401D1*
X-526095D2*
X-520670D1*
X-482470D2*
X-476836D1*
X-453069D2*
X-447168D1*
X-609921Y51390D2*
X-602716D1*
X-575467D2*
X-570467D1*
X-559921D2*
X-552716D1*
X-525467D2*
X-520467D1*
X-482768D2*
X-477448D1*
X-452168D2*
X-446395D1*
X-609860Y48890D2*
X-602774D1*
X-559860D2*
X-552774D1*
X-482983D2*
X-477750D1*
X-451395D2*
X-445906D1*
X-609367Y46390D2*
X-602506D1*
X-559367D2*
X-552506D1*
X-483353D2*
X-477882D1*
X-450906D2*
X-445654D1*
X-608685Y43890D2*
X-601842D1*
X-558685D2*
X-551842D1*
X-483971D2*
X-477936D1*
X-450654D2*
X-445541D1*
X-607939Y41390D2*
X-600880D1*
X-557939D2*
X-550880D1*
X-484619D2*
X-477956D1*
X-450541D2*
X-445494D1*
X-607017Y38890D2*
X-599751D1*
X-557017D2*
X-549751D1*
X-485057D2*
X-477963D1*
X-450494D2*
X-445476D1*
X-605866Y36390D2*
X-598463D1*
X-555866D2*
X-548463D1*
X-485290D2*
X-477965D1*
X-450476D2*
X-445470D1*
X-604459Y33890D2*
X-596906D1*
X-554459D2*
X-546906D1*
X-485396D2*
X-477966D1*
X-450470D2*
X-445468D1*
X-602874Y31390D2*
X-594974D1*
X-552874D2*
X-544974D1*
X-485431D2*
X-477967D1*
X-450468D2*
X-445467D1*
X-601268Y28890D2*
X-592759D1*
X-551268D2*
X-542759D1*
X-485360D2*
X-477967D1*
X-450467D2*
X-445467D1*
X-599539Y26390D2*
X-590386D1*
X-549539D2*
X-540386D1*
X-485047D2*
X-477967D1*
X-450467D2*
X-445467D1*
X-597528Y23890D2*
X-587937D1*
X-547528D2*
X-537937D1*
X-484451D2*
X-477967D1*
X-450476D2*
X-445467D1*
X-595280Y21390D2*
X-585456D1*
X-545280D2*
X-535456D1*
X-483810D2*
X-477967D1*
X-450564D2*
X-445467D1*
X-592893Y18890D2*
X-582973D1*
X-542893D2*
X-532973D1*
X-483375D2*
X-477957D1*
X-450883D2*
X-445476D1*
X-590439Y16390D2*
X-580563D1*
X-540439D2*
X-530563D1*
X-483133D2*
X-477869D1*
X-451491D2*
X-445564D1*
X-587967Y13890D2*
X-578383D1*
X-537967D2*
X-528383D1*
X-482939D2*
X-477541D1*
X-452220D2*
X-445893D1*
X-585561Y11390D2*
X-576491D1*
X-535561D2*
X-526491D1*
X-482567D2*
X-476844D1*
X-452985D2*
X-446579D1*
X-583382Y8890D2*
X-574730D1*
X-533382D2*
X-524730D1*
X-481863D2*
X-475748D1*
X-453952D2*
X-447549D1*
X-581482Y6390D2*
X-573073D1*
X-531482D2*
X-523073D1*
X-480888D2*
X-474338D1*
X-455140D2*
X-448681D1*
X-579629Y3890D2*
X-571732D1*
X-529629D2*
X-521732D1*
X-479744D2*
X-470590D1*
X-457751D2*
X-449980D1*
X-577603Y1390D2*
X-570673D1*
X-527603D2*
X-520673D1*
X-505467D2*
X-500467D1*
X-478359D2*
X-464910D1*
X-463614D2*
X-451632D1*
X-610467Y-1110D2*
X-569689D1*
X-560467D2*
X-519689D1*
X-505467D2*
X-500467D1*
X-476422D2*
X-453948D1*
X-610467Y-3610D2*
X-568779D1*
X-560467D2*
X-518779D1*
X-505467D2*
X-500467D1*
X-473679D2*
X-457003D1*
X-610467Y-6110D2*
X-567967D1*
X-560467D2*
X-517967D1*
X-505467D2*
X-500467D1*
X-470467D2*
X-460467D1*
X-122320Y69357D2*
X-109820D1*
X-72320D2*
X-59820D1*
X180D2*
X5180D1*
X-125578Y66857D2*
X-107415D1*
X-75578D2*
X-57415D1*
X180D2*
X6140D1*
X-128088Y64357D2*
X-105245D1*
X-78088D2*
X-55245D1*
X180D2*
X7302D1*
X-129976Y61857D2*
X-122225D1*
X-110216D2*
X-103442D1*
X-79976D2*
X-72225D1*
X-60216D2*
X-53442D1*
X180D2*
X8791D1*
X-131503Y59357D2*
X-124395D1*
X-108434D2*
X-101990D1*
X-81503D2*
X-74395D1*
X-58434D2*
X-51990D1*
X180D2*
X10692D1*
X-132778Y56857D2*
X-126198D1*
X-106987D2*
X-100853D1*
X-82778D2*
X-76198D1*
X-56987D2*
X-50853D1*
X180D2*
X12895D1*
X-133746Y54357D2*
X-127640D1*
X-105852D2*
X-99922D1*
X-83746D2*
X-77640D1*
X-55852D2*
X-49922D1*
X180D2*
X15254D1*
X-134323Y51857D2*
X-128689D1*
X-104922D2*
X-99022D1*
X-84323D2*
X-78689D1*
X-54922D2*
X-49022D1*
X180D2*
X17606D1*
X-134621Y49357D2*
X-129301D1*
X-104022D2*
X-98248D1*
X-84621D2*
X-79301D1*
X-54022D2*
X-48248D1*
X180D2*
X7680D1*
X12680D2*
X19700D1*
X-134836Y46857D2*
X-129603D1*
X-103248D2*
X-97759D1*
X-84836D2*
X-79603D1*
X-53248D2*
X-47759D1*
X180D2*
X7680D1*
X15180D2*
X21338D1*
X-135206Y44357D2*
X-129736D1*
X-102759D2*
X-97507D1*
X-85206D2*
X-79736D1*
X-52759D2*
X-47507D1*
X180D2*
X7680D1*
X17680D2*
X22680D1*
X-135824Y41857D2*
X-129789D1*
X-102507D2*
X-97394D1*
X-85824D2*
X-79789D1*
X-52507D2*
X-47394D1*
X180D2*
X7680D1*
X-136472Y39357D2*
X-129809D1*
X-102394D2*
X-97347D1*
X-86472D2*
X-79809D1*
X-52394D2*
X-47347D1*
X180D2*
X7680D1*
X-136911Y36857D2*
X-129816D1*
X-102347D2*
X-97330D1*
X-86911D2*
X-79816D1*
X-52347D2*
X-47330D1*
X180D2*
X7680D1*
X-137143Y34357D2*
X-129819D1*
X-102330D2*
X-97323D1*
X-87143D2*
X-79819D1*
X-52330D2*
X-47323D1*
X180D2*
X7680D1*
X-137250Y31857D2*
X-129820D1*
X-102323D2*
X-97321D1*
X-87250D2*
X-79820D1*
X-52323D2*
X-47321D1*
X180D2*
X7680D1*
X-137284Y29357D2*
X-129820D1*
X-102321D2*
X-97320D1*
X-87284D2*
X-79820D1*
X-52321D2*
X-47320D1*
X180D2*
X7680D1*
X-137213Y26857D2*
X-129820D1*
X-102320D2*
X-97320D1*
X-87213D2*
X-79820D1*
X-52320D2*
X-47320D1*
X180D2*
X7680D1*
X-136901Y24357D2*
X-129820D1*
X-102320D2*
X-97320D1*
X-86901D2*
X-79820D1*
X-52320D2*
X-47320D1*
X180D2*
X7680D1*
X-136304Y21857D2*
X-129820D1*
X-102330D2*
X-97320D1*
X-86304D2*
X-79820D1*
X-52330D2*
X-47320D1*
X180D2*
X7680D1*
X-135664Y19357D2*
X-129820D1*
X-102418D2*
X-97320D1*
X-85664D2*
X-79820D1*
X-52418D2*
X-47320D1*
X180D2*
X7680D1*
X-135228Y16857D2*
X-129810D1*
X-102736D2*
X-97330D1*
X-85228D2*
X-79810D1*
X-52736D2*
X-47330D1*
X180D2*
X7680D1*
X-134986Y14357D2*
X-129722D1*
X-103345D2*
X-97418D1*
X-84986D2*
X-79722D1*
X-53345D2*
X-47418D1*
X180D2*
X7680D1*
X-134792Y11857D2*
X-129394D1*
X-104074D2*
X-97746D1*
X-84792D2*
X-79394D1*
X-54074D2*
X-47746D1*
X180D2*
X7680D1*
X-134420Y9357D2*
X-128698D1*
X-104838D2*
X-98433D1*
X-84420D2*
X-78698D1*
X-54838D2*
X-48433D1*
X180D2*
X7680D1*
X-133717Y6857D2*
X-127601D1*
X-105805D2*
X-99402D1*
X-83717D2*
X-77601D1*
X-55805D2*
X-49402D1*
X180D2*
X7680D1*
X-132741Y4357D2*
X-126191D1*
X-106993D2*
X-100534D1*
X-82741D2*
X-76191D1*
X-56993D2*
X-50534D1*
X180D2*
X7680D1*
X-131597Y1857D2*
X-122444D1*
X-109604D2*
X-101833D1*
X-81597D2*
X-72444D1*
X-59604D2*
X-51833D1*
X180D2*
X7680D1*
X-130212Y-643D2*
X-116763D1*
X-115467D2*
X-103485D1*
X-80212D2*
X-66763D1*
X-65467D2*
X-53485D1*
X-32320D2*
X-27320D1*
X180D2*
X7680D1*
X-128276Y-3143D2*
X-105802D1*
X-78276D2*
X-55802D1*
X-32320D2*
X-27320D1*
X180D2*
X7680D1*
X-125532Y-5643D2*
X-108856D1*
X-75532D2*
X-58856D1*
X-32320D2*
X-27320D1*
X180D2*
X7680D1*
X-122320Y-8143D2*
X-112320D1*
X-72320D2*
X-62320D1*
X-32320D2*
X-27320D1*
X180D2*
X7680D1*
X-140660Y-395650D2*
X-100660D1*
X-75660D2*
X-63160D1*
X-660D2*
X11840D1*
X-140264Y-398150D2*
X-100660D1*
X-78918D2*
X-60755D1*
X-3918D2*
X14245D1*
X-139546Y-400650D2*
X-100660D1*
X-81428D2*
X-58585D1*
X-6428D2*
X16415D1*
X-138493Y-403150D2*
X-131056D1*
X-83316D2*
X-75565D1*
X-63556D2*
X-56782D1*
X-8316D2*
X-565D1*
X11444D2*
X18218D1*
X-137128Y-405650D2*
X-129264D1*
X-84843D2*
X-77735D1*
X-61774D2*
X-55330D1*
X-9843D2*
X-2735D1*
X13226D2*
X19670D1*
X-135568Y-408150D2*
X-127739D1*
X-86118D2*
X-79538D1*
X-60327D2*
X-54193D1*
X-11118D2*
X-4538D1*
X14673D2*
X20807D1*
X-134056Y-410650D2*
X-126364D1*
X-87086D2*
X-80980D1*
X-59192D2*
X-53262D1*
X-12086D2*
X-5980D1*
X15808D2*
X21738D1*
X-132658Y-413150D2*
X-125066D1*
X-87663D2*
X-82029D1*
X-58262D2*
X-52362D1*
X-12663D2*
X-7029D1*
X16738D2*
X22638D1*
X-131334Y-415650D2*
X-123795D1*
X-87961D2*
X-82641D1*
X-57362D2*
X-51588D1*
X-12961D2*
X-7641D1*
X17638D2*
X23412D1*
X-130055Y-418150D2*
X-122540D1*
X-88176D2*
X-82943D1*
X-56588D2*
X-51099D1*
X-13176D2*
X-7943D1*
X18412D2*
X23901D1*
X-128801Y-420650D2*
X-121295D1*
X-88546D2*
X-83076D1*
X-56099D2*
X-50847D1*
X-13546D2*
X-8076D1*
X18901D2*
X24153D1*
X-127626Y-423150D2*
X-120124D1*
X-89164D2*
X-83129D1*
X-55847D2*
X-50734D1*
X-14164D2*
X-8129D1*
X19153D2*
X24266D1*
X-126613Y-425650D2*
X-119112D1*
X-89812D2*
X-83149D1*
X-55734D2*
X-50687D1*
X-14812D2*
X-8149D1*
X19266D2*
X24313D1*
X-125723Y-428150D2*
X-118232D1*
X-90251D2*
X-83156D1*
X-55687D2*
X-50670D1*
X-15251D2*
X-8156D1*
X19313D2*
X24330D1*
X-124753Y-430650D2*
X-117341D1*
X-90483D2*
X-83159D1*
X-55670D2*
X-50663D1*
X-15483D2*
X-8159D1*
X19330D2*
X24337D1*
X-123668Y-433150D2*
X-116487D1*
X-90590D2*
X-83160D1*
X-55663D2*
X-50661D1*
X-15590D2*
X-8160D1*
X19337D2*
X24339D1*
X-122573Y-435650D2*
X-115682D1*
X-90624D2*
X-83160D1*
X-55661D2*
X-50660D1*
X-15624D2*
X-8160D1*
X19339D2*
X24340D1*
X-121593Y-438150D2*
X-114832D1*
X-90553D2*
X-83160D1*
X-55660D2*
X-50660D1*
X-15553D2*
X-8160D1*
X19340D2*
X24340D1*
X-120725Y-440650D2*
X-114068D1*
X-90241D2*
X-83160D1*
X-55660D2*
X-50660D1*
X-15241D2*
X-8160D1*
X19340D2*
X24340D1*
X-119849Y-443150D2*
X-113498D1*
X-89644D2*
X-83160D1*
X-55670D2*
X-50660D1*
X-14644D2*
X-8160D1*
X19330D2*
X24340D1*
X-119084Y-445650D2*
X-112930D1*
X-89004D2*
X-83160D1*
X-55758D2*
X-50660D1*
X-14004D2*
X-8160D1*
X19242D2*
X24340D1*
X-118588Y-448150D2*
X-112218D1*
X-88568D2*
X-83150D1*
X-56076D2*
X-50670D1*
X-13568D2*
X-8150D1*
X18924D2*
X24330D1*
X-118249Y-450650D2*
X-111531D1*
X-88326D2*
X-83062D1*
X-56685D2*
X-50758D1*
X-13326D2*
X-8062D1*
X18315D2*
X24242D1*
X-117817Y-453150D2*
X-111078D1*
X-88132D2*
X-82734D1*
X-57414D2*
X-51086D1*
X-13132D2*
X-7734D1*
X17586D2*
X23914D1*
X-117172Y-455650D2*
X-110830D1*
X-87760D2*
X-82038D1*
X-58178D2*
X-51773D1*
X-12760D2*
X-7038D1*
X16822D2*
X23227D1*
X-116514Y-458150D2*
X-110634D1*
X-87057D2*
X-80941D1*
X-59145D2*
X-52742D1*
X-12057D2*
X-5941D1*
X15855D2*
X22258D1*
X-116071Y-460650D2*
X-110270D1*
X-86081D2*
X-79531D1*
X-60333D2*
X-53874D1*
X-11081D2*
X-4531D1*
X14667D2*
X21126D1*
X-115837Y-463150D2*
X-109654D1*
X-84937D2*
X-75784D1*
X-62944D2*
X-55173D1*
X-9937D2*
X-784D1*
X12056D2*
X19827D1*
X-115730Y-465650D2*
X-109007D1*
X-83552D2*
X-70103D1*
X-68807D2*
X-56825D1*
X-35660D2*
X-30660D1*
X-8552D2*
X4897D1*
X6193D2*
X18175D1*
X-115686Y-468150D2*
X-108567D1*
X-81616D2*
X-59142D1*
X-35660D2*
X-30660D1*
X-6616D2*
X15858D1*
X-115669Y-470650D2*
X-108321D1*
X-78872D2*
X-62196D1*
X-35660D2*
X-30660D1*
X-3872D2*
X12804D1*
X-115660Y-473150D2*
X-108160D1*
X-75660D2*
X-65660D1*
X-35660D2*
X-30660D1*
X-660D2*
X9340D1*
X-121330Y-160107D2*
X-108830D1*
X-73830D2*
X-58830D1*
X3670D2*
X16170D1*
X-124588Y-162607D2*
X-106425D1*
X-76320D2*
X-55271D1*
X412D2*
X18575D1*
X-127098Y-165107D2*
X-104255D1*
X-78723D2*
X-52383D1*
X-2098D2*
X20745D1*
X-128986Y-167607D2*
X-121235D1*
X-109226D2*
X-102452D1*
X-80816D2*
X-70443D1*
X-58840D2*
X-50217D1*
X-3986D2*
X3765D1*
X15774D2*
X22548D1*
X-130513Y-170107D2*
X-123405D1*
X-107444D2*
X-101000D1*
X-82389D2*
X-73687D1*
X-56437D2*
X-48613D1*
X-5513D2*
X1595D1*
X17556D2*
X24000D1*
X-131788Y-172607D2*
X-125208D1*
X-105997D2*
X-99863D1*
X-83552D2*
X-75961D1*
X-54353D2*
X-47499D1*
X-6788D2*
X-208D1*
X19003D2*
X25137D1*
X-132756Y-175107D2*
X-126650D1*
X-104862D2*
X-98932D1*
X-84558D2*
X-77665D1*
X-52859D2*
X-46860D1*
X-7756D2*
X-1650D1*
X20138D2*
X26068D1*
X-133333Y-177607D2*
X-127699D1*
X-103932D2*
X-98032D1*
X-85366D2*
X-78264D1*
X-51958D2*
X-46534D1*
X-8333D2*
X-2699D1*
X21068D2*
X26968D1*
X-133631Y-180107D2*
X-128311D1*
X-103032D2*
X-97258D1*
X-85784D2*
X-78579D1*
X-51330D2*
X-46330D1*
X-8631D2*
X-3311D1*
X21968D2*
X27742D1*
X-133846Y-182607D2*
X-128613D1*
X-102258D2*
X-96769D1*
X-85723D2*
X-78638D1*
X-8846D2*
X-3613D1*
X22742D2*
X28231D1*
X-134216Y-185107D2*
X-128746D1*
X-101769D2*
X-96517D1*
X-85230D2*
X-78369D1*
X-9216D2*
X-3746D1*
X23231D2*
X28483D1*
X-134834Y-187607D2*
X-128799D1*
X-101517D2*
X-96404D1*
X-84549D2*
X-77705D1*
X-9834D2*
X-3799D1*
X23483D2*
X28596D1*
X-135482Y-190107D2*
X-128819D1*
X-101404D2*
X-96357D1*
X-83802D2*
X-76744D1*
X-10482D2*
X-3819D1*
X23596D2*
X28643D1*
X-135921Y-192607D2*
X-128826D1*
X-101357D2*
X-96340D1*
X-82880D2*
X-75614D1*
X-10921D2*
X-3826D1*
X23643D2*
X28660D1*
X-136153Y-195107D2*
X-128829D1*
X-101340D2*
X-96333D1*
X-81729D2*
X-74326D1*
X-11153D2*
X-3829D1*
X23660D2*
X28667D1*
X-136260Y-197607D2*
X-128830D1*
X-101333D2*
X-96331D1*
X-80323D2*
X-72769D1*
X-11260D2*
X-3830D1*
X23667D2*
X28669D1*
X-136294Y-200107D2*
X-128830D1*
X-101331D2*
X-96330D1*
X-78737D2*
X-70838D1*
X-11294D2*
X-3830D1*
X23669D2*
X28670D1*
X-136223Y-202607D2*
X-128830D1*
X-101330D2*
X-96330D1*
X-77132D2*
X-68623D1*
X-11223D2*
X-3830D1*
X23670D2*
X28670D1*
X-135911Y-205107D2*
X-128830D1*
X-101330D2*
X-96330D1*
X-75403D2*
X-66249D1*
X-10911D2*
X-3830D1*
X23670D2*
X28670D1*
X-135314Y-207607D2*
X-128830D1*
X-101340D2*
X-96330D1*
X-73391D2*
X-63800D1*
X-10314D2*
X-3830D1*
X23660D2*
X28670D1*
X-134674Y-210107D2*
X-128830D1*
X-101428D2*
X-96330D1*
X-71143D2*
X-61319D1*
X-9674D2*
X-3830D1*
X23572D2*
X28670D1*
X-134238Y-212607D2*
X-128820D1*
X-101746D2*
X-96340D1*
X-68756D2*
X-58836D1*
X-9238D2*
X-3820D1*
X23254D2*
X28660D1*
X-133996Y-215107D2*
X-128732D1*
X-102355D2*
X-96428D1*
X-66303D2*
X-56426D1*
X-8996D2*
X-3732D1*
X22645D2*
X28572D1*
X-133802Y-217607D2*
X-128404D1*
X-103084D2*
X-96756D1*
X-63830D2*
X-54246D1*
X-8802D2*
X-3404D1*
X21916D2*
X28244D1*
X-133430Y-220107D2*
X-127708D1*
X-103848D2*
X-97443D1*
X-61424D2*
X-52355D1*
X-8430D2*
X-2708D1*
X21152D2*
X27557D1*
X-132727Y-222607D2*
X-126611D1*
X-104815D2*
X-98412D1*
X-59245D2*
X-50593D1*
X-7727D2*
X-1611D1*
X20185D2*
X26588D1*
X-131751Y-225107D2*
X-125201D1*
X-106003D2*
X-99544D1*
X-57345D2*
X-48936D1*
X-6751D2*
X-201D1*
X18997D2*
X25456D1*
X-130607Y-227607D2*
X-121454D1*
X-108614D2*
X-100843D1*
X-55493D2*
X-47595D1*
X-5607D2*
X3546D1*
X16386D2*
X24157D1*
X-129222Y-230107D2*
X-115773D1*
X-114477D2*
X-102495D1*
X-53467D2*
X-46536D1*
X-31330D2*
X-26330D1*
X-4222D2*
X9227D1*
X10523D2*
X22505D1*
X-127286Y-232607D2*
X-104812D1*
X-86330D2*
X-45552D1*
X-31330D2*
X-26330D1*
X-2286D2*
X20188D1*
X-124542Y-235107D2*
X-107866D1*
X-86330D2*
X-44643D1*
X-31330D2*
X-26330D1*
X458D2*
X17134D1*
X-121330Y-237607D2*
X-111330D1*
X-86330D2*
X-43830D1*
X-31330D2*
X-26330D1*
X3670D2*
X13670D1*
X-602500Y-382503D2*
X-597500D1*
X-547500D2*
X-535000D1*
X-472500D2*
X-460000D1*
X-602500Y-385003D2*
X-595950D1*
X-550758D2*
X-532595D1*
X-475758D2*
X-457595D1*
X-602500Y-387503D2*
X-594524D1*
X-553268D2*
X-530425D1*
X-478268D2*
X-455425D1*
X-602500Y-390003D2*
X-593185D1*
X-555156D2*
X-547405D1*
X-535396D2*
X-528622D1*
X-480156D2*
X-472405D1*
X-460396D2*
X-453622D1*
X-602500Y-392503D2*
X-591890D1*
X-556683D2*
X-549575D1*
X-533614D2*
X-527170D1*
X-481683D2*
X-474575D1*
X-458614D2*
X-452170D1*
X-602500Y-395003D2*
X-590545D1*
X-557958D2*
X-551378D1*
X-532167D2*
X-526033D1*
X-482958D2*
X-476378D1*
X-457167D2*
X-451033D1*
X-602500Y-397503D2*
X-589051D1*
X-558926D2*
X-552820D1*
X-531032D2*
X-525102D1*
X-483926D2*
X-477820D1*
X-456032D2*
X-450102D1*
X-602500Y-400003D2*
X-587438D1*
X-559503D2*
X-553869D1*
X-530102D2*
X-524202D1*
X-484503D2*
X-478869D1*
X-455102D2*
X-449202D1*
X-602500Y-402503D2*
X-597500D1*
X-592896D2*
X-585907D1*
X-559801D2*
X-554481D1*
X-529202D2*
X-523428D1*
X-484801D2*
X-479481D1*
X-454202D2*
X-448428D1*
X-602500Y-405003D2*
X-597500D1*
X-591104D2*
X-584501D1*
X-560016D2*
X-554783D1*
X-528428D2*
X-522939D1*
X-485016D2*
X-479783D1*
X-453428D2*
X-447939D1*
X-602500Y-407503D2*
X-597500D1*
X-589579D2*
X-583175D1*
X-560386D2*
X-554916D1*
X-527939D2*
X-522687D1*
X-485386D2*
X-479916D1*
X-452939D2*
X-447687D1*
X-602500Y-410003D2*
X-597500D1*
X-588204D2*
X-581895D1*
X-561004D2*
X-554969D1*
X-527687D2*
X-522574D1*
X-486004D2*
X-479969D1*
X-452687D2*
X-447574D1*
X-602500Y-412503D2*
X-597500D1*
X-586906D2*
X-580631D1*
X-561652D2*
X-554989D1*
X-527574D2*
X-522527D1*
X-486652D2*
X-479989D1*
X-452574D2*
X-447527D1*
X-602500Y-415003D2*
X-597500D1*
X-585635D2*
X-579378D1*
X-562091D2*
X-554996D1*
X-527527D2*
X-522510D1*
X-487091D2*
X-479996D1*
X-452527D2*
X-447510D1*
X-602500Y-417503D2*
X-597500D1*
X-584370D2*
X-578125D1*
X-562323D2*
X-554999D1*
X-527510D2*
X-522503D1*
X-487323D2*
X-479999D1*
X-452510D2*
X-447503D1*
X-602500Y-420003D2*
X-597500D1*
X-583037D2*
X-576867D1*
X-562430D2*
X-555000D1*
X-527503D2*
X-522501D1*
X-487430D2*
X-480000D1*
X-452503D2*
X-447501D1*
X-602500Y-422503D2*
X-597500D1*
X-581548D2*
X-575536D1*
X-562464D2*
X-555000D1*
X-527501D2*
X-522500D1*
X-487464D2*
X-480000D1*
X-452501D2*
X-447500D1*
X-602500Y-425003D2*
X-597500D1*
X-579930D2*
X-574057D1*
X-562393D2*
X-555000D1*
X-527500D2*
X-522500D1*
X-487393D2*
X-480000D1*
X-452500D2*
X-447500D1*
X-602500Y-427503D2*
X-597500D1*
X-578333D2*
X-572535D1*
X-562081D2*
X-555000D1*
X-527500D2*
X-522500D1*
X-487081D2*
X-480000D1*
X-452500D2*
X-447500D1*
X-602500Y-430003D2*
X-597500D1*
X-576707D2*
X-571333D1*
X-561484D2*
X-555000D1*
X-527510D2*
X-522500D1*
X-486484D2*
X-480000D1*
X-452510D2*
X-447500D1*
X-602500Y-432503D2*
X-597500D1*
X-575000D2*
X-570614D1*
X-560844D2*
X-555000D1*
X-527598D2*
X-522500D1*
X-485844D2*
X-480000D1*
X-452598D2*
X-447500D1*
X-612500Y-435003D2*
X-570257D1*
X-560408D2*
X-554990D1*
X-527916D2*
X-522510D1*
X-485408D2*
X-479990D1*
X-452916D2*
X-447510D1*
X-612500Y-437503D2*
X-570100D1*
X-560166D2*
X-554902D1*
X-528525D2*
X-522598D1*
X-485166D2*
X-479902D1*
X-453525D2*
X-447598D1*
X-612500Y-440003D2*
X-570035D1*
X-559972D2*
X-554574D1*
X-529254D2*
X-522926D1*
X-484972D2*
X-479574D1*
X-454254D2*
X-447926D1*
X-602500Y-442503D2*
X-597500D1*
X-559600D2*
X-553878D1*
X-530018D2*
X-523613D1*
X-484600D2*
X-478878D1*
X-455018D2*
X-448613D1*
X-602500Y-445003D2*
X-597500D1*
X-558897D2*
X-552781D1*
X-530985D2*
X-524582D1*
X-483897D2*
X-477781D1*
X-455985D2*
X-449582D1*
X-602500Y-447503D2*
X-597500D1*
X-557921D2*
X-551371D1*
X-532173D2*
X-525714D1*
X-482921D2*
X-476371D1*
X-457173D2*
X-450714D1*
X-602500Y-450003D2*
X-597500D1*
X-556777D2*
X-547624D1*
X-534784D2*
X-527013D1*
X-481777D2*
X-472624D1*
X-459784D2*
X-452013D1*
X-602500Y-452503D2*
X-597500D1*
X-555392D2*
X-541943D1*
X-540647D2*
X-528665D1*
X-507500D2*
X-502500D1*
X-480392D2*
X-466943D1*
X-465647D2*
X-453665D1*
X-602500Y-455003D2*
X-597500D1*
X-553456D2*
X-530982D1*
X-507500D2*
X-502500D1*
X-478456D2*
X-455982D1*
X-602500Y-457503D2*
X-597500D1*
X-550712D2*
X-534036D1*
X-507500D2*
X-502500D1*
X-475712D2*
X-459036D1*
X-602500Y-460003D2*
X-597500D1*
X-547500D2*
X-537500D1*
X-507500D2*
X-502500D1*
X-472500D2*
X-462500D1*
X-593280Y532643D2*
X-580780D1*
X-545780D2*
X-540780D1*
X-468280D2*
X-455780D1*
X-596239Y530143D2*
X-577522D1*
X-545780D2*
X-539820D1*
X-471538D2*
X-453375D1*
X-598765Y527643D2*
X-575012D1*
X-545780D2*
X-538658D1*
X-474048D2*
X-451205D1*
X-600676Y525143D2*
X-593175D1*
X-580885D2*
X-573124D1*
X-545780D2*
X-537169D1*
X-475936D2*
X-468185D1*
X-456176D2*
X-449402D1*
X-601968Y522643D2*
X-595257D1*
X-578802D2*
X-571595D1*
X-545780D2*
X-535268D1*
X-477463D2*
X-470355D1*
X-454394D2*
X-447950D1*
X-602690Y520143D2*
X-596741D1*
X-577309D2*
X-570296D1*
X-545780D2*
X-533065D1*
X-478738D2*
X-472158D1*
X-452947D2*
X-446813D1*
X-603037Y517643D2*
X-597585D1*
X-576408D2*
X-569210D1*
X-545780D2*
X-530706D1*
X-479706D2*
X-473600D1*
X-451812D2*
X-445882D1*
X-603186Y515143D2*
X-597984D1*
X-575780D2*
X-568280D1*
X-545780D2*
X-528354D1*
X-480283D2*
X-474649D1*
X-450882D2*
X-444982D1*
X-603236Y512643D2*
X-598052D1*
X-545780D2*
X-538280D1*
X-533280D2*
X-526260D1*
X-480581D2*
X-475261D1*
X-449982D2*
X-444208D1*
X-603161Y510143D2*
X-597877D1*
X-545780D2*
X-538280D1*
X-530780D2*
X-524622D1*
X-480796D2*
X-475563D1*
X-449208D2*
X-443719D1*
X-602762Y507643D2*
X-596588D1*
X-545780D2*
X-538280D1*
X-528280D2*
X-523280D1*
X-481166D2*
X-475696D1*
X-448719D2*
X-443467D1*
X-601857Y505143D2*
X-593456D1*
X-545780D2*
X-538280D1*
X-481784D2*
X-475749D1*
X-448467D2*
X-443354D1*
X-600716Y502643D2*
X-589857D1*
X-545780D2*
X-538280D1*
X-482432D2*
X-475769D1*
X-448354D2*
X-443307D1*
X-599733Y500143D2*
X-586786D1*
X-545780D2*
X-538280D1*
X-482871D2*
X-475776D1*
X-448307D2*
X-443290D1*
X-600041Y497643D2*
X-584759D1*
X-545780D2*
X-538280D1*
X-483103D2*
X-475779D1*
X-448290D2*
X-443283D1*
X-601525Y495143D2*
X-583280D1*
X-545780D2*
X-538280D1*
X-483210D2*
X-475780D1*
X-448283D2*
X-443281D1*
X-603127Y492643D2*
X-589701D1*
X-545780D2*
X-538280D1*
X-483244D2*
X-475780D1*
X-448281D2*
X-443280D1*
X-604480Y490143D2*
X-594381D1*
X-545780D2*
X-538280D1*
X-483173D2*
X-475780D1*
X-448280D2*
X-443280D1*
X-605553Y487643D2*
X-597829D1*
X-545780D2*
X-538280D1*
X-482861D2*
X-475780D1*
X-448280D2*
X-443280D1*
X-606526Y485143D2*
X-599269D1*
X-545780D2*
X-538280D1*
X-482264D2*
X-475780D1*
X-448290D2*
X-443280D1*
X-607322Y482643D2*
X-600103D1*
X-545780D2*
X-538280D1*
X-481624D2*
X-475780D1*
X-448378D2*
X-443280D1*
X-607736Y480143D2*
X-600503D1*
X-545780D2*
X-538280D1*
X-481188D2*
X-475770D1*
X-448696D2*
X-443290D1*
X-607674Y477643D2*
X-600664D1*
X-545780D2*
X-538280D1*
X-480946D2*
X-475682D1*
X-449305D2*
X-443378D1*
X-607180Y475143D2*
X-600634D1*
X-573280D2*
X-568280D1*
X-545780D2*
X-538280D1*
X-480752D2*
X-475354D1*
X-450034D2*
X-443706D1*
X-606499Y472643D2*
X-600243D1*
X-574240D2*
X-568375D1*
X-545780D2*
X-538280D1*
X-480380D2*
X-474658D1*
X-450798D2*
X-444393D1*
X-605752Y470143D2*
X-599474D1*
X-575441D2*
X-568705D1*
X-545780D2*
X-538280D1*
X-479677D2*
X-473561D1*
X-451765D2*
X-445362D1*
X-604830Y467643D2*
X-597233D1*
X-576900D2*
X-569402D1*
X-545780D2*
X-538280D1*
X-478701D2*
X-472151D1*
X-452953D2*
X-446494D1*
X-603660Y465143D2*
X-593546D1*
X-580653D2*
X-570469D1*
X-545780D2*
X-538280D1*
X-477557D2*
X-468404D1*
X-455564D2*
X-447793D1*
X-602070Y462643D2*
X-587797D1*
X-586336D2*
X-572016D1*
X-545780D2*
X-538280D1*
X-503280D2*
X-498280D1*
X-476172D2*
X-462723D1*
X-461427D2*
X-449445D1*
X-599782Y460143D2*
X-574288D1*
X-545780D2*
X-538280D1*
X-503280D2*
X-498280D1*
X-474236D2*
X-451762D1*
X-596738Y457643D2*
X-577325D1*
X-545780D2*
X-538280D1*
X-503280D2*
X-498280D1*
X-471492D2*
X-454816D1*
X-593280Y455143D2*
X-580780D1*
X-545780D2*
X-538280D1*
X-503280D2*
X-498280D1*
X-468280D2*
X-458280D1*
X-610000Y-152503D2*
X-580000D1*
X-547500D2*
X-535000D1*
X-472500D2*
X-460000D1*
X-610000Y-155003D2*
X-578846D1*
X-550758D2*
X-532595D1*
X-475758D2*
X-457595D1*
X-610000Y-157503D2*
X-578128D1*
X-553268D2*
X-530425D1*
X-478268D2*
X-455425D1*
X-582500Y-160003D2*
X-577765D1*
X-555156D2*
X-547405D1*
X-535396D2*
X-528622D1*
X-480156D2*
X-472405D1*
X-460396D2*
X-453622D1*
X-582500Y-162503D2*
X-577594D1*
X-556683D2*
X-549575D1*
X-533614D2*
X-527170D1*
X-481683D2*
X-474575D1*
X-458614D2*
X-452170D1*
X-582490Y-165003D2*
X-577441D1*
X-557958D2*
X-551378D1*
X-532167D2*
X-526033D1*
X-482958D2*
X-476378D1*
X-457167D2*
X-451033D1*
X-582402Y-167503D2*
X-577097D1*
X-558926D2*
X-552820D1*
X-531032D2*
X-525102D1*
X-483926D2*
X-477820D1*
X-456032D2*
X-450102D1*
X-582103Y-170003D2*
X-576490D1*
X-559503D2*
X-553869D1*
X-530102D2*
X-524202D1*
X-484503D2*
X-478869D1*
X-455102D2*
X-449202D1*
X-581694Y-172503D2*
X-575846D1*
X-559801D2*
X-554481D1*
X-529202D2*
X-523428D1*
X-484801D2*
X-479481D1*
X-454202D2*
X-448428D1*
X-581442Y-175003D2*
X-575408D1*
X-560016D2*
X-554783D1*
X-528428D2*
X-522939D1*
X-485016D2*
X-479783D1*
X-453428D2*
X-447939D1*
X-597500Y-177503D2*
X-587500D1*
X-582961D2*
X-575167D1*
X-560386D2*
X-554916D1*
X-527939D2*
X-522687D1*
X-485386D2*
X-479916D1*
X-452939D2*
X-447687D1*
X-601059Y-180003D2*
X-574973D1*
X-561004D2*
X-554969D1*
X-527687D2*
X-522574D1*
X-486004D2*
X-479969D1*
X-452687D2*
X-447574D1*
X-603947Y-182503D2*
X-574630D1*
X-561652D2*
X-554989D1*
X-527574D2*
X-522527D1*
X-486652D2*
X-479989D1*
X-452574D2*
X-447527D1*
X-606113Y-185003D2*
X-597490D1*
X-585103D2*
X-574204D1*
X-562091D2*
X-554996D1*
X-527527D2*
X-522510D1*
X-487091D2*
X-479996D1*
X-452527D2*
X-447510D1*
X-607727Y-187503D2*
X-599893D1*
X-582991D2*
X-573944D1*
X-562323D2*
X-554999D1*
X-527510D2*
X-522503D1*
X-487323D2*
X-479999D1*
X-452510D2*
X-447503D1*
X-608929Y-190003D2*
X-601976D1*
X-581346D2*
X-575462D1*
X-562430D2*
X-555000D1*
X-527503D2*
X-522501D1*
X-487430D2*
X-480000D1*
X-452503D2*
X-447501D1*
X-609884Y-192503D2*
X-603461D1*
X-580000D2*
X-577500D1*
X-562464D2*
X-555000D1*
X-527501D2*
X-522500D1*
X-487464D2*
X-480000D1*
X-452501D2*
X-447500D1*
X-610794Y-195003D2*
X-604305D1*
X-562393D2*
X-555000D1*
X-527500D2*
X-522500D1*
X-487393D2*
X-480000D1*
X-452500D2*
X-447500D1*
X-611570Y-197503D2*
X-604713D1*
X-562081D2*
X-555000D1*
X-527500D2*
X-522500D1*
X-487081D2*
X-480000D1*
X-452500D2*
X-447500D1*
X-612051Y-200003D2*
X-604889D1*
X-561484D2*
X-555000D1*
X-527510D2*
X-522500D1*
X-486484D2*
X-480000D1*
X-452510D2*
X-447500D1*
X-612215Y-202503D2*
X-604960D1*
X-560844D2*
X-555000D1*
X-527598D2*
X-522500D1*
X-485844D2*
X-480000D1*
X-452598D2*
X-447500D1*
X-612010Y-205003D2*
X-604976D1*
X-560408D2*
X-554990D1*
X-527916D2*
X-522510D1*
X-485408D2*
X-479990D1*
X-452916D2*
X-447510D1*
X-611457Y-207503D2*
X-604898D1*
X-560166D2*
X-554902D1*
X-528525D2*
X-522598D1*
X-485166D2*
X-479902D1*
X-453525D2*
X-447598D1*
X-610824Y-210003D2*
X-604572D1*
X-577500D2*
X-572500D1*
X-559972D2*
X-554574D1*
X-529254D2*
X-522926D1*
X-484972D2*
X-479574D1*
X-454254D2*
X-447926D1*
X-610297Y-212503D2*
X-603877D1*
X-578460D2*
X-572595D1*
X-559600D2*
X-553878D1*
X-530018D2*
X-523613D1*
X-484600D2*
X-478878D1*
X-455018D2*
X-448613D1*
X-609661Y-215003D2*
X-602781D1*
X-579661D2*
X-572925D1*
X-558897D2*
X-552781D1*
X-530985D2*
X-524582D1*
X-483897D2*
X-477781D1*
X-455985D2*
X-449582D1*
X-608629Y-217503D2*
X-601371D1*
X-581120D2*
X-573622D1*
X-557921D2*
X-551371D1*
X-532173D2*
X-525714D1*
X-482921D2*
X-476371D1*
X-457173D2*
X-450714D1*
X-607238Y-220003D2*
X-597624D1*
X-584873D2*
X-574689D1*
X-556777D2*
X-547624D1*
X-534784D2*
X-527013D1*
X-481777D2*
X-472624D1*
X-459784D2*
X-452013D1*
X-605633Y-222503D2*
X-591943D1*
X-590556D2*
X-576236D1*
X-555392D2*
X-541943D1*
X-540647D2*
X-528665D1*
X-507500D2*
X-502500D1*
X-480392D2*
X-466943D1*
X-465647D2*
X-453665D1*
X-603564Y-225003D2*
X-578508D1*
X-553456D2*
X-530982D1*
X-507500D2*
X-502500D1*
X-478456D2*
X-455982D1*
X-600753Y-227503D2*
X-581545D1*
X-550712D2*
X-534036D1*
X-507500D2*
X-502500D1*
X-475712D2*
X-459036D1*
X-597500Y-230003D2*
X-585000D1*
X-547500D2*
X-537500D1*
X-507500D2*
X-502500D1*
X-472500D2*
X-462500D1*
X-22747Y-2643147D2*
X-7747D1*
X29753D2*
X42253D1*
X79753D2*
X92253D1*
X127253D2*
X142253D1*
X179753D2*
X217253D1*
X247253D2*
X262253D1*
X-25237Y-2645647D2*
X-4188D1*
X26795D2*
X45511D1*
X76495D2*
X94658D1*
X124763D2*
X145812D1*
X176495D2*
X217253D1*
X243609D2*
X266752D1*
X-27639Y-2648147D2*
X-1300D1*
X24268D2*
X48022D1*
X73985D2*
X96828D1*
X122361D2*
X148700D1*
X173985D2*
X217253D1*
X240479D2*
X270626D1*
X-29733Y-2650647D2*
X-19359D1*
X-7756D2*
X866D1*
X22358D2*
X29858D1*
X42148D2*
X49909D1*
X72097D2*
X79849D1*
X91857D2*
X98631D1*
X120267D2*
X130641D1*
X142244D2*
X150866D1*
X172097D2*
X183141D1*
X212253D2*
X217253D1*
X237944D2*
X248131D1*
X261752D2*
X273635D1*
X-31306Y-2653147D2*
X-22604D1*
X-5354D2*
X2470D1*
X21066D2*
X27776D1*
X44231D2*
X51438D1*
X70571D2*
X77679D1*
X93640D2*
X100083D1*
X118694D2*
X127396D1*
X144646D2*
X152470D1*
X170571D2*
X179896D1*
X212253D2*
X217253D1*
X235969D2*
X244798D1*
X265626D2*
X275855D1*
X-32468Y-2655647D2*
X-24878D1*
X-3270D2*
X3585D1*
X20344D2*
X26292D1*
X45724D2*
X52737D1*
X69295D2*
X75876D1*
X95086D2*
X101220D1*
X117532D2*
X125122D1*
X146730D2*
X153585D1*
X169295D2*
X177622D1*
X212253D2*
X217253D1*
X234366D2*
X242206D1*
X268635D2*
X277561D1*
X-33475Y-2658147D2*
X-26582D1*
X-1776D2*
X4223D1*
X19997D2*
X25448D1*
X46625D2*
X53823D1*
X68327D2*
X74433D1*
X96221D2*
X102151D1*
X116525D2*
X123418D1*
X148224D2*
X154223D1*
X168327D2*
X175918D1*
X212253D2*
X217253D1*
X232899D2*
X240154D1*
X270855D2*
X278998D1*
X-34282Y-2660647D2*
X-27181D1*
X-875D2*
X4550D1*
X19847D2*
X25050D1*
X47253D2*
X54753D1*
X67750D2*
X73384D1*
X97151D2*
X103052D1*
X115718D2*
X122819D1*
X149125D2*
X154550D1*
X167760D2*
X175319D1*
X212253D2*
X217253D1*
X231379D2*
X238717D1*
X272561D2*
X280236D1*
X-34701Y-2663147D2*
X-27496D1*
X-247D2*
X4753D1*
X19797D2*
X24981D1*
X67452D2*
X72772D1*
X98052D2*
X103825D1*
X115299D2*
X122504D1*
X149753D2*
X154753D1*
X167560D2*
X175004D1*
X212253D2*
X217253D1*
X229753D2*
X237854D1*
X273998D2*
X281198D1*
X-34640Y-2665647D2*
X-27554D1*
X19873D2*
X25156D1*
X67237D2*
X72470D1*
X98825D2*
X104314D1*
X115360D2*
X122446D1*
X167751D2*
X174955D1*
X212253D2*
X217253D1*
X234753D2*
X237253D1*
X275236D2*
X281857D1*
X-34147Y-2668147D2*
X-27286D1*
X20271D2*
X26445D1*
X66867D2*
X72338D1*
X99314D2*
X104566D1*
X115853D2*
X122714D1*
X168308D2*
X175312D1*
X212253D2*
X217253D1*
X276188D2*
X282462D1*
X-33465Y-2670647D2*
X-26622D1*
X21176D2*
X29577D1*
X66249D2*
X72284D1*
X99566D2*
X104679D1*
X116535D2*
X123378D1*
X169027D2*
X176063D1*
X212253D2*
X217253D1*
X276759D2*
X283187D1*
X-32719Y-2673147D2*
X-25660D1*
X22317D2*
X33177D1*
X65601D2*
X72264D1*
X99679D2*
X104726D1*
X117281D2*
X124340D1*
X169873D2*
X178209D1*
X212253D2*
X217253D1*
X277046D2*
X283879D1*
X-31797Y-2675647D2*
X-24531D1*
X23301D2*
X36247D1*
X65163D2*
X72257D1*
X99726D2*
X104744D1*
X118203D2*
X125469D1*
X171137D2*
X185221D1*
X212253D2*
X217253D1*
X277172D2*
X284335D1*
X-30646Y-2678147D2*
X-23243D1*
X22993D2*
X38274D1*
X64930D2*
X72255D1*
X99744D2*
X104750D1*
X119354D2*
X126757D1*
X173088D2*
X197107D1*
X212253D2*
X217253D1*
X277223D2*
X284574D1*
X-29239Y-2680647D2*
X-21686D1*
X21508D2*
X39753D1*
X64824D2*
X72254D1*
X99750D2*
X104752D1*
X120761D2*
X128314D1*
X175996D2*
X217253D1*
X277243D2*
X284682D1*
X-27654Y-2683147D2*
X-19754D1*
X19906D2*
X33333D1*
X64789D2*
X72253D1*
X99752D2*
X104753D1*
X122346D2*
X130246D1*
X180040D2*
X217253D1*
X277250D2*
X284717D1*
X-26048Y-2685647D2*
X-17539D1*
X18554D2*
X28652D1*
X64860D2*
X72253D1*
X99753D2*
X104753D1*
X123952D2*
X132461D1*
X184753D2*
X217253D1*
X277252D2*
X284646D1*
X-24319Y-2688147D2*
X-15166D1*
X17480D2*
X25204D1*
X65173D2*
X72253D1*
X99753D2*
X104753D1*
X125681D2*
X134834D1*
X182349D2*
X192263D1*
X212253D2*
X217253D1*
X277243D2*
X284334D1*
X-22308Y-2690647D2*
X-12717D1*
X16507D2*
X23764D1*
X65769D2*
X72253D1*
X99744D2*
X104753D1*
X127692D2*
X137283D1*
X180179D2*
X189851D1*
X212253D2*
X217253D1*
X277156D2*
X283737D1*
X-20060Y-2693147D2*
X-10236D1*
X15712D2*
X22931D1*
X66410D2*
X72253D1*
X99656D2*
X104753D1*
X129940D2*
X139764D1*
X178366D2*
X187679D1*
X212253D2*
X217253D1*
X232253D2*
X234753D1*
X276827D2*
X283087D1*
X-17673Y-2695647D2*
X-7753D1*
X15297D2*
X22530D1*
X66845D2*
X72263D1*
X99337D2*
X104744D1*
X132327D2*
X142247D1*
X176835D2*
X185866D1*
X212253D2*
X217253D1*
X231195D2*
X235618D1*
X276141D2*
X282564D1*
X-15219Y-2698147D2*
X-5343D1*
X15359D2*
X22369D1*
X67087D2*
X72351D1*
X98729D2*
X104656D1*
X134781D2*
X144657D1*
X175458D2*
X184326D1*
X212253D2*
X217253D1*
X230547D2*
X236459D1*
X275171D2*
X282003D1*
X-12747Y-2700647D2*
X-3163D1*
X15853D2*
X22399D1*
X49753D2*
X54753D1*
X67281D2*
X72679D1*
X98000D2*
X104327D1*
X137253D2*
X146837D1*
X174149D2*
X182870D1*
X212253D2*
X217253D1*
X231066D2*
X237350D1*
X274039D2*
X281211D1*
X-10341Y-2703147D2*
X-1271D1*
X16535D2*
X22790D1*
X48794D2*
X54658D1*
X67653D2*
X73376D1*
X97235D2*
X103641D1*
X139659D2*
X148729D1*
X172800D2*
X181331D1*
X212253D2*
X217253D1*
X231923D2*
X238610D1*
X272740D2*
X280198D1*
X-8162Y-2705647D2*
X490D1*
X17281D2*
X23559D1*
X47592D2*
X54328D1*
X68357D2*
X74472D1*
X96268D2*
X102671D1*
X141838D2*
X150490D1*
X171305D2*
X179701D1*
X212253D2*
X217253D1*
X233002D2*
X240425D1*
X271036D2*
X279048D1*
X-6262Y-2708147D2*
X2147D1*
X18203D2*
X25800D1*
X46133D2*
X53631D1*
X69332D2*
X75882D1*
X95080D2*
X101539D1*
X143738D2*
X152147D1*
X169692D2*
X178164D1*
X212253D2*
X217253D1*
X234269D2*
X243038D1*
X268834D2*
X277753D1*
X-4409Y-2710647D2*
X3488D1*
X19374D2*
X29488D1*
X42381D2*
X52564D1*
X70476D2*
X79630D1*
X92469D2*
X100240D1*
X145591D2*
X153488D1*
X168160D2*
X176756D1*
X212253D2*
X217253D1*
X235828D2*
X247311D1*
X263216D2*
X276184D1*
X-2383Y-2713147D2*
X4547D1*
X20963D2*
X35237D1*
X36698D2*
X51018D1*
X71861D2*
X85310D1*
X86606D2*
X98588D1*
X147617D2*
X154547D1*
X166747D2*
X175436D1*
X212253D2*
X217253D1*
X237852D2*
X254018D1*
X254859D2*
X274156D1*
X-35247Y-2715647D2*
X5531D1*
X23252D2*
X48746D1*
X73798D2*
X96272D1*
X114753D2*
X155531D1*
X165355D2*
X174221D1*
X212253D2*
X217253D1*
X240452D2*
X271555D1*
X-35247Y-2718147D2*
X6441D1*
X26296D2*
X45708D1*
X76541D2*
X93217D1*
X114753D2*
X156441D1*
X163864D2*
X173167D1*
X212253D2*
X217253D1*
X243675D2*
X268332D1*
X-35247Y-2720647D2*
X7253D1*
X29753D2*
X42253D1*
X79753D2*
X89753D1*
X114753D2*
X157253D1*
X162253D2*
X172253D1*
X212253D2*
X217253D1*
X247253D2*
X264753D1*
X-6970Y-4243020D2*
X5530D1*
X33030D2*
X38030D1*
X75530D2*
X80530D1*
X-10228Y-4245520D2*
X8020D1*
X33030D2*
X38030D1*
X75530D2*
X80530D1*
X-12728Y-4248020D2*
X10423D1*
X33030D2*
X38030D1*
X75530D2*
X80530D1*
X-14538Y-4250520D2*
X-6865D1*
X5134D2*
X12506D1*
X33030D2*
X38030D1*
X75530D2*
X80530D1*
X-15834Y-4253020D2*
X-8947D1*
X6916D2*
X13991D1*
X33030D2*
X38030D1*
X75530D2*
X80530D1*
X-16830Y-4255520D2*
X-10431D1*
X8353D2*
X14835D1*
X33030D2*
X38030D1*
X75530D2*
X80530D1*
X-17745Y-4258020D2*
X-11275D1*
X9390D2*
X15243D1*
X33030D2*
X38030D1*
X75530D2*
X80530D1*
X-18439Y-4260520D2*
X-11674D1*
X9914D2*
X15419D1*
X33030D2*
X38030D1*
X75530D2*
X80530D1*
X-18818Y-4263020D2*
X-11752D1*
X9887D2*
X15480D1*
X33030D2*
X38030D1*
X75530D2*
X80530D1*
X-18214Y-4265520D2*
X-11606D1*
X9284D2*
X15408D1*
X33030D2*
X38030D1*
X75530D2*
X80530D1*
X-17230Y-4268020D2*
X-10503D1*
X8295D2*
X15002D1*
X33030D2*
X38030D1*
X75530D2*
X80530D1*
X-15815Y-4270520D2*
X-6934D1*
X5726D2*
X13990D1*
X33030D2*
X38030D1*
X75530D2*
X80530D1*
X-13945Y-4273020D2*
X-1352D1*
X-126D2*
X12338D1*
X33030D2*
X38030D1*
X75530D2*
X80530D1*
X-11768Y-4275520D2*
X10265D1*
X33030D2*
X38030D1*
X75530D2*
X80530D1*
X-9470Y-4278020D2*
X8030D1*
X33030D2*
X38030D1*
X75530D2*
X80530D1*
X-13019Y-4280520D2*
X11288D1*
X33030D2*
X38030D1*
X75530D2*
X80530D1*
X-15829Y-4283020D2*
X-6960D1*
X5435D2*
X13788D1*
X33030D2*
X38030D1*
X75530D2*
X80530D1*
X-17764Y-4285520D2*
X-9363D1*
X7605D2*
X15588D1*
X33030D2*
X38030D1*
X75530D2*
X80530D1*
X-19088Y-4288020D2*
X-11446D1*
X9408D2*
X16797D1*
X33030D2*
X38030D1*
X75520D2*
X80530D1*
X-20160Y-4290520D2*
X-12931D1*
X10850D2*
X17473D1*
X33030D2*
X38040D1*
X75432D2*
X80530D1*
X-21002Y-4293020D2*
X-13775D1*
X11899D2*
X17800D1*
X33030D2*
X38128D1*
X75114D2*
X80520D1*
X-21507Y-4295520D2*
X-14183D1*
X12502D2*
X17941D1*
X33040D2*
X38446D1*
X74515D2*
X80432D1*
X-21680Y-4298020D2*
X-14350D1*
X12716D2*
X17997D1*
X33128D2*
X39055D1*
X73864D2*
X80114D1*
X-21478Y-4300520D2*
X-14332D1*
X12520D2*
X18009D1*
X33446D2*
X39784D1*
X73331D2*
X79505D1*
X-20917Y-4303020D2*
X-14020D1*
X11876D2*
X17928D1*
X34055D2*
X40558D1*
X72682D2*
X78776D1*
X-20197Y-4305520D2*
X-13196D1*
X10800D2*
X17603D1*
X34793D2*
X41642D1*
X71771D2*
X78012D1*
X-19351Y-4308020D2*
X-11910D1*
X9399D2*
X16907D1*
X35646D2*
X43123D1*
X69787D2*
X77084D1*
X-18097Y-4310520D2*
X-7493D1*
X5653D2*
X15840D1*
X36902D2*
X48437D1*
X64944D2*
X75911D1*
X-16240Y-4313020D2*
X-526D1*
X-27D2*
X14294D1*
X38760D2*
X57150D1*
X57388D2*
X74321D1*
X-13719Y-4315520D2*
X12022D1*
X41281D2*
X72032D1*
X-10529Y-4318020D2*
X8985D1*
X44471D2*
X68988D1*
X-6970Y-4320520D2*
X5530D1*
X48030D2*
X65530D1*
X-335899Y-822277D2*
D12*
X-305419D1*
X-179689D2*
X-149209D1*
X-8239D2*
X22241D1*
X87011D2*
X117491D1*
X239411D2*
X254651D1*
X-335899Y-826087D2*
X-305419D1*
X-179689D2*
X-149209D1*
X-8239D2*
X22241D1*
X87011D2*
X117491D1*
X239411D2*
X260220D1*
X-335899Y-829897D2*
X-305419D1*
X-179689D2*
X-149209D1*
X-8239D2*
X22241D1*
X87011D2*
X117491D1*
X239411D2*
X265124D1*
X-335899Y-833707D2*
X-305419D1*
X-179689D2*
X-149209D1*
X-8239D2*
X22241D1*
X87011D2*
X117491D1*
X239411D2*
X269473D1*
X-335899Y-837517D2*
X-305419D1*
X-179689D2*
X-149209D1*
X-8239D2*
X22241D1*
X87011D2*
X117491D1*
X239411D2*
X273395D1*
X-335899Y-841327D2*
X-305419D1*
X-179689D2*
X-149209D1*
X-8239D2*
X22241D1*
X87011D2*
X117491D1*
X239441D2*
X276804D1*
X-335899Y-845137D2*
X-305419D1*
X-179689D2*
X-149209D1*
X-8239D2*
X22241D1*
X87011D2*
X117491D1*
X239724D2*
X279590D1*
X-335899Y-848947D2*
X-305419D1*
X-179689D2*
X-149209D1*
X-8239D2*
X22241D1*
X87011D2*
X117491D1*
X240393D2*
X281802D1*
X-335899Y-852757D2*
X-305419D1*
X-179689D2*
X-149209D1*
X-8239D2*
X22241D1*
X87011D2*
X117491D1*
X243176D2*
X283406D1*
X-785479Y-856567D2*
X-766429D1*
X-732139D2*
X-713089D1*
X-640699D2*
X-614029D1*
X-537829D2*
X-511159D1*
X-366379D2*
X-343519D1*
X-335899D2*
X-305419D1*
X-255889D2*
X-229219D1*
X-179689D2*
X-149209D1*
X-95869D2*
X-69199D1*
X-23479D2*
X22241D1*
X37481D2*
X67961D1*
X87011D2*
X117491D1*
X167021D2*
X193691D1*
X246612D2*
X284340D1*
X334661D2*
X361331D1*
X479441D2*
X509921D1*
X525161D2*
X555641D1*
X567071D2*
X597551D1*
X620411D2*
X650891D1*
X666131D2*
X696611D1*
X708041D2*
X738521D1*
X761381D2*
X791861D1*
X807101D2*
X837581D1*
X849011D2*
X879491D1*
X-791033Y-860377D2*
X-751665D1*
X-746903D2*
X-706806D1*
X-647570D2*
X-607158D1*
X-544685D2*
X-504288D1*
X-372521D2*
X-343519D1*
X-335899D2*
X-305419D1*
X-262745D2*
X-222348D1*
X-179689D2*
X-149209D1*
X-102725D2*
X-62328D1*
X-23479D2*
X22241D1*
X39844D2*
X70324D1*
X87011D2*
X117491D1*
X160165D2*
X200562D1*
X249851D2*
X284801D1*
X327805D2*
X368202D1*
X479441D2*
X509921D1*
X525161D2*
X555641D1*
X567071D2*
X597551D1*
X620411D2*
X650891D1*
X666131D2*
X696611D1*
X708041D2*
X738521D1*
X761381D2*
X791861D1*
X807101D2*
X837581D1*
X849011D2*
X879491D1*
X-795803Y-864187D2*
X-701728D1*
X-653593D2*
X-601134D1*
X-550589D2*
X-498264D1*
X-378236D2*
X-343519D1*
X-335899D2*
X-305419D1*
X-268649D2*
X-216324D1*
X-179689D2*
X-149209D1*
X-108629D2*
X-56304D1*
X-23479D2*
X22241D1*
X42016D2*
X72496D1*
X87011D2*
X117491D1*
X154261D2*
X206586D1*
X252205D2*
X285003D1*
X321901D2*
X374226D1*
X479441D2*
X509921D1*
X525161D2*
X555641D1*
X567071D2*
X597551D1*
X620411D2*
X650891D1*
X666131D2*
X696611D1*
X708041D2*
X738521D1*
X761381D2*
X791861D1*
X807101D2*
X837581D1*
X849011D2*
X879491D1*
X-799666Y-867997D2*
X-697777D1*
X-658545D2*
X-596182D1*
X-555175D2*
X-493312D1*
X-383086D2*
X-343519D1*
X-335899D2*
X-305419D1*
X-273235D2*
X-211372D1*
X-179689D2*
X-149209D1*
X-113215D2*
X-51352D1*
X-23479D2*
X22241D1*
X44057D2*
X74537D1*
X86996D2*
X117491D1*
X149675D2*
X211538D1*
X253551D2*
X285084D1*
X317315D2*
X379178D1*
X479441D2*
X509921D1*
X525161D2*
X555641D1*
X567071D2*
X597551D1*
X620411D2*
X650891D1*
X666131D2*
X696611D1*
X708041D2*
X738521D1*
X761381D2*
X791861D1*
X807101D2*
X837581D1*
X849011D2*
X879491D1*
X-802660Y-871807D2*
X-694650D1*
X-662474D2*
X-592254D1*
X-558557D2*
X-489384D1*
X-386763D2*
X-343519D1*
X-335899D2*
X-305419D1*
X-276617D2*
X-207444D1*
X-179689D2*
X-149209D1*
X-116597D2*
X-47424D1*
X-23479D2*
X22241D1*
X46016D2*
X76508D1*
X86851D2*
X117491D1*
X146293D2*
X215466D1*
X254231D2*
X285114D1*
X313933D2*
X383106D1*
X479441D2*
X509921D1*
X525161D2*
X555641D1*
X567071D2*
X597551D1*
X620411D2*
X650891D1*
X666131D2*
X696611D1*
X708041D2*
X738521D1*
X761381D2*
X791861D1*
X807101D2*
X837581D1*
X849011D2*
X879491D1*
X-804959Y-875617D2*
X-692473D1*
X-665490D2*
X-589238D1*
X-561170D2*
X-486368D1*
X-389549D2*
X-343519D1*
X-335899D2*
X-305419D1*
X-279218D2*
X-204428D1*
X-179689D2*
X-149209D1*
X-119198D2*
X-44408D1*
X-23479D2*
X22241D1*
X47932D2*
X78538D1*
X86262D2*
X117491D1*
X143692D2*
X218482D1*
X239411D2*
X285125D1*
X311332D2*
X386122D1*
X479441D2*
X509921D1*
X525161D2*
X555641D1*
X567071D2*
X597551D1*
X620411D2*
X650891D1*
X666131D2*
X696611D1*
X708041D2*
X738521D1*
X761381D2*
X791861D1*
X807101D2*
X837581D1*
X849011D2*
X879491D1*
X-806595Y-879427D2*
X-691242D1*
X-667795D2*
X-586917D1*
X-563474D2*
X-484062D1*
X-391832D2*
X-343519D1*
X-335899D2*
X-305419D1*
X-281408D2*
X-202122D1*
X-179689D2*
X-149209D1*
X-121388D2*
X-42102D1*
X-23479D2*
X22241D1*
X49694D2*
X80770D1*
X84960D2*
X117491D1*
X141502D2*
X220788D1*
X239411D2*
X285129D1*
X309142D2*
X388428D1*
X479441D2*
X509921D1*
X525161D2*
X555641D1*
X567071D2*
X597551D1*
X620411D2*
X650891D1*
X666131D2*
X696611D1*
X708041D2*
X738521D1*
X761381D2*
X791861D1*
X807101D2*
X837581D1*
X849011D2*
X879491D1*
X-807542Y-883237D2*
X-690647D1*
X-669434D2*
X-585145D1*
X-565818D2*
X-482424D1*
X-393758D2*
X-343519D1*
X-335899D2*
X-305419D1*
X-283294D2*
X-200484D1*
X-179689D2*
X-149209D1*
X-123274D2*
X-40464D1*
X-23479D2*
X22241D1*
X50971D2*
X117491D1*
X139616D2*
X170831D1*
X185911D2*
X222426D1*
X239411D2*
X285131D1*
X307256D2*
X338471D1*
X353551D2*
X390066D1*
X479441D2*
X509921D1*
X525161D2*
X555641D1*
X567071D2*
X597551D1*
X620411D2*
X650891D1*
X666131D2*
X696611D1*
X708041D2*
X738521D1*
X761381D2*
X791861D1*
X807101D2*
X837581D1*
X849011D2*
X879491D1*
X-808006Y-887047D2*
X-690390D1*
X-670381D2*
X-583712D1*
X-568309D2*
X-481476D1*
X-395226D2*
X-343519D1*
X-335914D2*
X-305419D1*
X-284745D2*
X-199536D1*
X-179689D2*
X-149209D1*
X-124725D2*
X-39516D1*
X-23479D2*
X22241D1*
X51679D2*
X117491D1*
X138165D2*
X167021D1*
X189084D2*
X223374D1*
X239411D2*
X285131D1*
X305805D2*
X334661D1*
X356724D2*
X391014D1*
X479441D2*
X509921D1*
X525161D2*
X555641D1*
X567071D2*
X597551D1*
X620411D2*
X650891D1*
X666131D2*
X696611D1*
X708041D2*
X738521D1*
X761381D2*
X791861D1*
X807101D2*
X837581D1*
X849011D2*
X879491D1*
X-808210Y-890857D2*
X-777859D1*
X-767178D2*
X-732139D1*
X-720709D2*
X-690288D1*
X-670846D2*
X-636125D1*
X-618602D2*
X-582349D1*
X-515732D2*
X-481011D1*
X-396103D2*
X-353600D1*
X-336063D2*
X-305434D1*
X-285616D2*
X-251330D1*
X-233792D2*
X-199071D1*
X-179689D2*
X-149209D1*
X-125596D2*
X-91310D1*
X-73772D2*
X-39051D1*
X-8239D2*
X22241D1*
X50799D2*
X117491D1*
X137294D2*
X186071D1*
X191346D2*
X223839D1*
X239411D2*
X285131D1*
X304934D2*
X353711D1*
X358986D2*
X391479D1*
X479441D2*
X509921D1*
X525161D2*
X555641D1*
X567071D2*
X597551D1*
X620411D2*
X650891D1*
X666131D2*
X696611D1*
X708041D2*
X738521D1*
X761381D2*
X791861D1*
X807101D2*
X837581D1*
X849011D2*
X879491D1*
X-808291Y-894667D2*
X-777859D1*
X-764949D2*
X-732139D1*
X-720709D2*
X-690250D1*
X-671050D2*
X-638656D1*
X-616071D2*
X-581303D1*
X-513201D2*
X-480808D1*
X-396541D2*
X-361341D1*
X-336420D2*
X-305568D1*
X-286052D2*
X-253558D1*
X-231261D2*
X-198868D1*
X-179689D2*
X-149209D1*
X-126032D2*
X-93538D1*
X-71241D2*
X-38848D1*
X-8429D2*
X22241D1*
X49447D2*
X78802D1*
X87011D2*
X117491D1*
X136857D2*
X186071D1*
X192633D2*
X224042D1*
X239411D2*
X285131D1*
X304497D2*
X353711D1*
X360273D2*
X391682D1*
X479441D2*
X509921D1*
X525146D2*
X555641D1*
X567071D2*
X597551D1*
X620411D2*
X650891D1*
X666116D2*
X696611D1*
X708041D2*
X738521D1*
X761381D2*
X791861D1*
X807086D2*
X837581D1*
X849011D2*
X879491D1*
X-808322Y-898477D2*
X-777859D1*
X-763673D2*
X-732139D1*
X-720709D2*
X-690236D1*
X-671131D2*
X-639143D1*
X-615585D2*
X-580731D1*
X-512715D2*
X-480726D1*
X-396720D2*
X-364152D1*
X-338124D2*
X-306053D1*
X-286245D2*
X-254834D1*
X-230715D2*
X-198786D1*
X-179689D2*
X-149209D1*
X-126225D2*
X-94814D1*
X-70695D2*
X-38766D1*
X-8879D2*
X22226D1*
X47797D2*
X77843D1*
X87011D2*
X117491D1*
X136657D2*
X186071D1*
X193239D2*
X224124D1*
X239411D2*
X285131D1*
X304297D2*
X353711D1*
X360879D2*
X391764D1*
X479441D2*
X509951D1*
X524968D2*
X555671D1*
X567041D2*
X597551D1*
X620411D2*
X650921D1*
X665938D2*
X696641D1*
X708011D2*
X738521D1*
X761381D2*
X791891D1*
X806908D2*
X837611D1*
X848981D2*
X879491D1*
X-808333Y-902287D2*
X-777859D1*
X-763055D2*
X-732139D1*
X-720709D2*
X-690231D1*
X-671147D2*
X-638035D1*
X-616693D2*
X-581508D1*
X-568309D2*
X-537829D1*
X-513823D2*
X-480710D1*
X-446389D2*
X-431149D1*
X-396664D2*
X-365307D1*
X-343569D2*
X-306981D1*
X-286323D2*
X-255453D1*
X-232824D2*
X-198770D1*
X-179689D2*
X-149209D1*
X-126303D2*
X-95433D1*
X-72804D2*
X-38750D1*
X-11579D2*
X22092D1*
X46007D2*
X76723D1*
X87011D2*
X117491D1*
X136541D2*
X186071D1*
X193285D2*
X224140D1*
X239411D2*
X285131D1*
X304181D2*
X353711D1*
X360939D2*
X391780D1*
X426101D2*
X441341D1*
X479441D2*
X510241D1*
X524521D2*
X555961D1*
X566751D2*
X597551D1*
X620411D2*
X651211D1*
X665491D2*
X696931D1*
X707721D2*
X738521D1*
X761381D2*
X792181D1*
X806461D2*
X837901D1*
X848691D2*
X879491D1*
X-808337Y-906097D2*
X-777859D1*
X-762787D2*
X-732139D1*
X-720709D2*
X-690230D1*
X-671024D2*
X-628548D1*
X-626180D2*
X-582504D1*
X-567705D2*
X-526875D1*
X-523310D2*
X-480833D1*
X-450039D2*
X-427043D1*
X-396193D2*
X-354923D1*
X-352080D2*
X-308091D1*
X-286353D2*
X-255721D1*
X-237869D2*
X-198893D1*
X-179689D2*
X-149209D1*
X-126333D2*
X-95701D1*
X-77849D2*
X-38873D1*
X-15376D2*
X21592D1*
X44263D2*
X75570D1*
X87011D2*
X117491D1*
X192839D2*
X224017D1*
X239411D2*
X285131D1*
X360539D2*
X391657D1*
X422451D2*
X445447D1*
X479456D2*
X510933D1*
X522166D2*
X556653D1*
X566059D2*
X597551D1*
X620426D2*
X651903D1*
X663136D2*
X697623D1*
X707029D2*
X738521D1*
X761396D2*
X792873D1*
X804106D2*
X838593D1*
X847999D2*
X879491D1*
X-808338Y-909907D2*
X-777859D1*
X-762680D2*
X-732139D1*
X-720709D2*
X-690229D1*
X-670528D2*
X-583613D1*
X-566627D2*
X-481330D1*
X-453212D2*
X-423909D1*
X-395158D2*
X-309256D1*
X-286363D2*
X-255827D1*
X-242506D2*
X-199390D1*
X-179689D2*
X-149209D1*
X-126343D2*
X-95807D1*
X-82486D2*
X-39370D1*
X-18991D2*
X20545D1*
X42735D2*
X74288D1*
X87011D2*
X117491D1*
X189387D2*
X223520D1*
X254651D2*
X285131D1*
X357313D2*
X391160D1*
X419278D2*
X448581D1*
X479590D2*
X513902D1*
X516500D2*
X559622D1*
X563090D2*
X597536D1*
X620560D2*
X654872D1*
X657470D2*
X700592D1*
X704060D2*
X738506D1*
X761530D2*
X795842D1*
X798440D2*
X841562D1*
X845030D2*
X879476D1*
X-808339Y-913717D2*
X-777859D1*
X-762640D2*
X-732139D1*
X-720709D2*
X-690229D1*
X-669468D2*
X-585005D1*
X-565140D2*
X-482390D1*
X-455474D2*
X-421816D1*
X-393684D2*
X-310671D1*
X-286367D2*
X-255867D1*
X-246070D2*
X-200450D1*
X-179689D2*
X-149209D1*
X-126347D2*
X-95847D1*
X-86050D2*
X-40430D1*
X-21774D2*
X19068D1*
X41384D2*
X73016D1*
X87011D2*
X117491D1*
X181389D2*
X222460D1*
X254651D2*
X285131D1*
X338471D2*
D3*
X348684D2*
X390100D1*
X417016D2*
X450674D1*
X480076D2*
X597402D1*
X621046D2*
X738372D1*
X762016D2*
X879342D1*
X-808339Y-917527D2*
X-777859D1*
X-762626D2*
X-732139D1*
X-720709D2*
X-690229D1*
X-667857D2*
X-586769D1*
X-563411D2*
X-484001D1*
X-456745D2*
X-420657D1*
X-391945D2*
X-312444D1*
X-286368D2*
X-255881D1*
X-247229D2*
X-202061D1*
X-179689D2*
X-149209D1*
X-126348D2*
X-95861D1*
X-87209D2*
X-42041D1*
X-22674D2*
X17342D1*
X39909D2*
X71799D1*
X87011D2*
X117491D1*
X173105D2*
X220849D1*
X254651D2*
X285131D1*
X334676D2*
X388489D1*
X415745D2*
X451833D1*
X481003D2*
X596902D1*
X621973D2*
X737872D1*
X762943D2*
X878842D1*
X-808339Y-921337D2*
X-777859D1*
X-762621D2*
X-732139D1*
X-720709D2*
X-690229D1*
X-665631D2*
X-589059D1*
X-561431D2*
X-486227D1*
X-457218D2*
X-420119D1*
X-389846D2*
X-314722D1*
X-286369D2*
X-255886D1*
X-247837D2*
X-204287D1*
X-179689D2*
X-149209D1*
X-126349D2*
X-95866D1*
X-87817D2*
X-44267D1*
X-23145D2*
X15363D1*
X38241D2*
X70492D1*
X87011D2*
X117491D1*
X166349D2*
X218623D1*
X254651D2*
X285131D1*
X331030D2*
X386263D1*
X415272D2*
X452371D1*
X482129D2*
X595841D1*
X623099D2*
X736811D1*
X764069D2*
X877781D1*
X-808339Y-925147D2*
X-777859D1*
X-762620D2*
X-732139D1*
X-720709D2*
X-690229D1*
X-662605D2*
X-592109D1*
X-558909D2*
X-489253D1*
X-457196D2*
X-420046D1*
X-386973D2*
X-317655D1*
X-286369D2*
X-255888D1*
X-248104D2*
X-207313D1*
X-179689D2*
X-149209D1*
X-126349D2*
X-95868D1*
X-88084D2*
X-47293D1*
X-23351D2*
X12841D1*
X36453D2*
X69210D1*
X87011D2*
X117491D1*
X161428D2*
X215597D1*
X254651D2*
X285131D1*
X328018D2*
X383237D1*
X415294D2*
X452444D1*
X483428D2*
X594229D1*
X624398D2*
X735199D1*
X765368D2*
X876169D1*
X-808339Y-928957D2*
X-777859D1*
X-762619D2*
X-732139D1*
X-720709D2*
X-690229D1*
X-658622D2*
X-596101D1*
X-555331D2*
X-493236D1*
X-455498D2*
X-420329D1*
X-382971D2*
X-321304D1*
X-286369D2*
X-255889D1*
X-248209D2*
X-211296D1*
X-179689D2*
X-149209D1*
X-126349D2*
X-95869D1*
X-88189D2*
X-51276D1*
X-23433D2*
X9264D1*
X34605D2*
X67987D1*
X87011D2*
X117491D1*
X157547D2*
X211614D1*
X254651D2*
X285131D1*
X325798D2*
X379254D1*
X416992D2*
X452161D1*
X485343D2*
X592003D1*
X626313D2*
X732973D1*
X767283D2*
X873943D1*
X-808339Y-932767D2*
X-777859D1*
X-762619D2*
X-732139D1*
X-720709D2*
X-690229D1*
X-653480D2*
X-601246D1*
X-550423D2*
X-498378D1*
X-452954D2*
X-422217D1*
X-378021D2*
X-326093D1*
X-286369D2*
X-255889D1*
X-248248D2*
X-216438D1*
X-179689D2*
X-149209D1*
X-126349D2*
X-95869D1*
X-88228D2*
X-56418D1*
X-23463D2*
X4356D1*
X32820D2*
X66662D1*
X87011D2*
X117491D1*
X158753D2*
X206472D1*
X254651D2*
X285131D1*
X325538D2*
X374112D1*
X419536D2*
X450273D1*
X488173D2*
X588981D1*
X629143D2*
X729951D1*
X770113D2*
X870921D1*
X-808339Y-936577D2*
X-777859D1*
X-762619D2*
X-732139D1*
X-720709D2*
X-690229D1*
X-647317D2*
X-607410D1*
X-544376D2*
X-504541D1*
X-449794D2*
X-426393D1*
X-372386D2*
X-332426D1*
X-286369D2*
X-255889D1*
X-248262D2*
X-222601D1*
X-179689D2*
X-149209D1*
X-126349D2*
X-95869D1*
X-88242D2*
X-62581D1*
X-23474D2*
X-1691D1*
X31240D2*
X65350D1*
X87011D2*
X117491D1*
X162558D2*
X200309D1*
X254651D2*
X285131D1*
X329874D2*
X367949D1*
X422696D2*
X446097D1*
X492016D2*
X532081D1*
X544912D2*
X585043D1*
X632986D2*
X673051D1*
X685882D2*
X726013D1*
X773956D2*
X814021D1*
X826852D2*
X866983D1*
X-808339Y-940387D2*
X-777859D1*
X-762619D2*
X-732139D1*
X-720709D2*
X-690229D1*
X-640699D2*
X-614029D1*
X-537829D2*
X-511159D1*
X-446389D2*
X-431149D1*
X-366379D2*
X-339709D1*
X-286369D2*
X-255889D1*
X-248269D2*
X-229219D1*
X-179689D2*
X-149209D1*
X-126349D2*
X-95869D1*
X-88249D2*
X-69199D1*
X-23479D2*
X-8239D1*
X29861D2*
X64151D1*
X87011D2*
X117491D1*
X167021D2*
X193691D1*
X254651D2*
X285131D1*
X334661D2*
X361331D1*
X426101D2*
X441341D1*
X496877D2*
X526934D1*
X550059D2*
X580140D1*
X637847D2*
X667904D1*
X691029D2*
X721110D1*
X778817D2*
X808874D1*
X831999D2*
X862080D1*
X502301Y-944197D2*
X521351D1*
X555641D2*
X574691D1*
X643271D2*
X662321D1*
X696611D2*
X715661D1*
X784241D2*
X803291D1*
X837581D2*
X856631D1*
X-1109553Y-3981560D2*
D13*
X-1115216Y-3984060D1*
X-1119896Y-3986560D1*
X-1123587Y-3989060D1*
X-1126566Y-3991560D1*
X-1128979Y-3994060D1*
X-1130877Y-3996560D1*
X-1132355Y-3999060D1*
X-1133416Y-4001560D1*
X-1134033Y-4004060D1*
X-1134336Y-4006560D1*
X-1134469Y-4009060D1*
X-1134512Y-4011560D1*
X-1134445Y-4014060D1*
X-1134124Y-4016560D1*
X-1133430Y-4019060D1*
X-1132373Y-4021560D1*
X-1130913Y-4024060D1*
X-1128930Y-4026560D1*
X-1126346Y-4029060D1*
X-1123129Y-4031560D1*
X-1119553Y-4034060D1*
X-1084553Y-3981560D2*
X-1078504Y-3984060D1*
X-1073214Y-3986560D1*
X-1068954Y-3989060D1*
X-1065778Y-3991560D1*
X-1063491Y-3994060D1*
X-1061759Y-3996560D1*
X-1060313Y-3999060D1*
X-1059073Y-4001560D1*
X-1058119Y-4004060D1*
X-1057557Y-4006560D1*
X-1057359Y-4009060D1*
X-1057551Y-4011560D1*
X-1058108Y-4014060D1*
X-1058827Y-4016560D1*
X-1059673Y-4019060D1*
X-1060917Y-4021560D1*
X-1062688Y-4024060D1*
X-1064919Y-4026560D1*
X-1067646Y-4029060D1*
X-1070934Y-4031560D1*
X-1074553Y-4034060D1*
X-1109553Y-3989060D2*
X-1114439Y-3991560D1*
X-1118933Y-3994060D1*
X-1122589Y-3996560D1*
X-1125236Y-3999060D1*
X-1127087Y-4001560D1*
X-1128312Y-4004060D1*
X-1128994Y-4006560D1*
X-1129313Y-4009060D1*
X-1129367Y-4011560D1*
X-1129085Y-4014060D1*
X-1128312Y-4016560D1*
X-1127148Y-4019060D1*
X-1124458Y-4021560D1*
X-1120863Y-4024060D1*
X-1116594Y-4026560D1*
X-1112053Y-4029060D1*
X-1113381Y-4031560D1*
X-1114553Y-4034060D1*
X-1082053Y-3989060D2*
X-1077545Y-3991560D1*
X-1073592Y-3994060D1*
X-1070353Y-3996560D1*
X-1067853Y-3999060D1*
X-1066105Y-4001560D1*
X-1064882Y-4004060D1*
X-1063937Y-4006560D1*
X-1063205Y-4009060D1*
X-1063472Y-4011560D1*
X-1063994Y-4014060D1*
X-1064750Y-4016560D1*
X-1065786Y-4019060D1*
X-1068316Y-4021560D1*
X-1071956Y-4024060D1*
X-1076331Y-4026560D1*
X-1080143Y-4029060D1*
X-1082686Y-4031560D1*
X-1084553Y-4034060D1*
X-1114553Y-4051560D2*
X-1116762Y-4054060D1*
X-1118973Y-4056560D1*
X-1121512Y-4059060D1*
X-1124524Y-4061560D1*
X-1127732Y-4064060D1*
X-1130619Y-4066560D1*
X-1132804Y-4069060D1*
X-1134553Y-4071560D1*
X-1109553Y-4051560D2*
X-1110804Y-4054060D1*
X-1112266Y-4056560D1*
X-1113803Y-4059060D1*
X-1115494Y-4061560D1*
X-1117453Y-4064060D1*
X-1119553Y-4066560D1*
X-1057053D2*
Y-4069060D1*
Y-4071560D1*
X-1102053Y-4094060D2*
X-1112718Y-4096560D1*
X-1120881Y-4099060D1*
X-1126584Y-4101560D1*
X-1130868Y-4104060D1*
X-1132950Y-4106560D1*
X-1133784Y-4109060D1*
X-1134229Y-4111560D1*
X-1134418Y-4114060D1*
X-1134410Y-4116560D1*
X-1134101Y-4119060D1*
X-1133328Y-4121560D1*
X-1131936Y-4124060D1*
X-1129697Y-4126560D1*
X-1126391Y-4129060D1*
X-1122025Y-4131560D1*
X-1117053Y-4134060D1*
X-1089553Y-4094060D2*
X-1079574Y-4096560D1*
X-1072005Y-4099060D1*
X-1066829Y-4101560D1*
X-1063362Y-4104060D1*
X-1061011Y-4106560D1*
X-1059354Y-4109060D1*
X-1058236Y-4111560D1*
X-1057684Y-4114060D1*
X-1057701Y-4116560D1*
X-1058262Y-4119060D1*
X-1059274Y-4121560D1*
X-1060812Y-4124060D1*
X-1063204Y-4126560D1*
X-1066791Y-4129060D1*
X-1071606Y-4131560D1*
X-1077053Y-4134060D1*
X-1114553Y-4101560D2*
X-1119052Y-4104060D1*
X-1122917Y-4106560D1*
X-1125838Y-4109060D1*
X-1128057Y-4111560D1*
X-1128725Y-4114060D1*
X-1128997Y-4116560D1*
X-1128098Y-4119060D1*
X-1125373Y-4121560D1*
X-1121220Y-4124060D1*
X-1115695Y-4126560D1*
X-1109553Y-4129060D1*
X-1082053Y-4101560D2*
X-1075631Y-4104060D1*
X-1070537Y-4106560D1*
X-1067069Y-4109060D1*
X-1064539Y-4111560D1*
X-1063501Y-4114060D1*
X-1063799Y-4116560D1*
X-1065605Y-4119060D1*
X-1068454Y-4121560D1*
X-1072750Y-4124060D1*
X-1078357Y-4126560D1*
X-1084553Y-4129060D1*
X-128280Y532643D2*
Y530143D1*
Y527643D1*
Y525143D1*
Y522643D1*
Y520143D1*
Y517643D1*
Y515143D1*
Y512643D1*
Y510143D1*
Y507643D1*
Y505143D1*
Y502643D1*
Y500143D1*
Y497643D1*
Y495143D1*
Y492643D1*
Y490143D1*
Y487643D1*
Y485143D1*
Y482643D1*
Y480143D1*
X-138280D1*
Y477643D1*
Y475143D1*
Y472643D1*
X-128280D1*
Y470143D1*
Y467643D1*
Y465143D1*
Y462643D1*
Y460143D1*
Y457643D1*
Y455143D1*
X-123280Y532643D2*
X-121730Y530143D1*
X-120304Y527643D1*
X-118965Y525143D1*
X-117670Y522643D1*
X-116325Y520143D1*
X-114831Y517643D1*
X-113218Y515143D1*
X-111687Y512643D1*
X-110281Y510143D1*
X-108955Y507643D1*
X-107675Y505143D1*
X-106411Y502643D1*
X-105158Y500143D1*
X-103905Y497643D1*
X-102647Y495143D1*
X-101316Y492643D1*
X-99837Y490143D1*
X-98315Y487643D1*
X-97113Y485143D1*
X-96394Y482643D1*
X-96037Y480143D1*
X-95880Y477643D1*
X-95815Y475143D1*
X-95780Y472643D1*
X-123280D1*
Y470143D1*
Y467643D1*
Y465143D1*
Y462643D1*
Y460143D1*
Y457643D1*
Y455143D1*
X-75780Y532643D2*
X-78270Y530143D1*
X-80673Y527643D1*
X-82766Y525143D1*
X-84339Y522643D1*
X-85502Y520143D1*
X-86508Y517643D1*
X-87316Y515143D1*
X-87734Y512643D1*
X-87673Y510143D1*
X-87180Y507643D1*
X-86499Y505143D1*
X-85752Y502643D1*
X-84830Y500143D1*
X-83679Y497643D1*
X-82273Y495143D1*
X-80687Y492643D1*
X-79082Y490143D1*
X-77353Y487643D1*
X-75341Y485143D1*
X-73093Y482643D1*
X-70706Y480143D1*
X-68253Y477643D1*
X-65780Y475143D1*
X-63374Y472643D1*
X-61195Y470143D1*
X-59295Y467643D1*
X-57443Y465143D1*
X-55417Y462643D1*
X-53280Y460143D1*
X-60780Y532643D2*
X-57221Y530143D1*
X-54333Y527643D1*
X-52167Y525143D1*
X-50563Y522643D1*
X-49449Y520143D1*
X-48810Y517643D1*
X-48484Y515143D1*
X-48280Y512643D1*
X1720Y532643D2*
X-1538Y530143D1*
X-4048Y527643D1*
X-5936Y525143D1*
X-7463Y522643D1*
X-8738Y520143D1*
X-9706Y517643D1*
X-10283Y515143D1*
X-10581Y512643D1*
X-10796Y510143D1*
X-11166Y507643D1*
X-11784Y505143D1*
X-12432Y502643D1*
X-12871Y500143D1*
X-13103Y497643D1*
X-13210Y495143D1*
X-13244Y492643D1*
X-13173Y490143D1*
X-12861Y487643D1*
X-12264Y485143D1*
X-11624Y482643D1*
X-11188Y480143D1*
X-10946Y477643D1*
X-10752Y475143D1*
X-10380Y472643D1*
X-9677Y470143D1*
X-8701Y467643D1*
X-7557Y465143D1*
X-6172Y462643D1*
X-4236Y460143D1*
X-1492Y457643D1*
X1720Y455143D1*
X14220Y532643D2*
X16625Y530143D1*
X18795Y527643D1*
X20598Y525143D1*
X22050Y522643D1*
X23187Y520143D1*
X24118Y517643D1*
X25018Y515143D1*
X25792Y512643D1*
X26281Y510143D1*
X26533Y507643D1*
X26646Y505143D1*
X26693Y502643D1*
X26710Y500143D1*
X26717Y497643D1*
X26719Y495143D1*
X26720Y492643D1*
Y490143D1*
Y487643D1*
Y485143D1*
Y482643D1*
X26710Y480143D1*
X26622Y477643D1*
X26294Y475143D1*
X25607Y472643D1*
X24638Y470143D1*
X23506Y467643D1*
X22207Y465143D1*
X20555Y462643D1*
X18238Y460143D1*
X15184Y457643D1*
X11720Y455143D1*
X-68280Y527643D2*
X-72393Y525143D1*
X-75637Y522643D1*
X-77911Y520143D1*
X-79615Y517643D1*
X-80214Y515143D1*
X-80529Y512643D1*
X-80588Y510143D1*
X-80319Y507643D1*
X-79655Y505143D1*
X-78694Y502643D1*
X-77564Y500143D1*
X-76276Y497643D1*
X-74719Y495143D1*
X-72788Y492643D1*
X-70573Y490143D1*
X-68199Y487643D1*
X-65750Y485143D1*
X-63269Y482643D1*
X-60786Y480143D1*
X-58376Y477643D1*
X-56196Y475143D1*
X-54305Y472643D1*
X-52543Y470143D1*
X-50886Y467643D1*
X-49545Y465143D1*
X-48486Y462643D1*
X-47502Y460143D1*
X-46593Y457643D1*
X-45780Y455143D1*
X-63280Y527643D2*
X-60790Y525143D1*
X-58387Y522643D1*
X-56303Y520143D1*
X-54809Y517643D1*
X-53908Y515143D1*
X-53280Y512643D1*
X4220Y527643D2*
X1815Y525143D1*
X-355Y522643D1*
X-2158Y520143D1*
X-3600Y517643D1*
X-4649Y515143D1*
X-5261Y512643D1*
X-5563Y510143D1*
X-5696Y507643D1*
X-5749Y505143D1*
X-5769Y502643D1*
X-5776Y500143D1*
X-5779Y497643D1*
X-5780Y495143D1*
Y492643D1*
Y490143D1*
Y487643D1*
Y485143D1*
Y482643D1*
X-5770Y480143D1*
X-5682Y477643D1*
X-5354Y475143D1*
X-4658Y472643D1*
X-3561Y470143D1*
X-2151Y467643D1*
X1596Y465143D1*
X7277Y462643D1*
X14220Y460143D1*
X11720Y527643D2*
X13824Y525143D1*
X15606Y522643D1*
X17053Y520143D1*
X18188Y517643D1*
X19118Y515143D1*
X20018Y512643D1*
X20792Y510143D1*
X21281Y507643D1*
X21533Y505143D1*
X21646Y502643D1*
X21693Y500143D1*
X21710Y497643D1*
X21717Y495143D1*
X21719Y492643D1*
X21720Y490143D1*
Y487643D1*
X21710Y485143D1*
X21622Y482643D1*
X21304Y480143D1*
X20695Y477643D1*
X19966Y475143D1*
X19202Y472643D1*
X18235Y470143D1*
X17047Y467643D1*
X14436Y465143D1*
X8573Y462643D1*
X1720Y460143D1*
X-123280Y515143D2*
Y512643D1*
Y510143D1*
Y507643D1*
Y505143D1*
Y502643D1*
Y500143D1*
Y497643D1*
Y495143D1*
Y492643D1*
Y490143D1*
Y487643D1*
Y485143D1*
Y482643D1*
X-103280Y480143D1*
X-120780Y515143D2*
X-118676Y512643D1*
X-116884Y510143D1*
X-115359Y507643D1*
X-113984Y505143D1*
X-112686Y502643D1*
X-111415Y500143D1*
X-110150Y497643D1*
X-108817Y495143D1*
X-107328Y492643D1*
X-105710Y490143D1*
X-104113Y487643D1*
X-102487Y485143D1*
X-100780Y482643D1*
X-118280Y480143D1*
X-33280Y462643D2*
Y460143D1*
Y457643D1*
Y455143D1*
X-28280Y462643D2*
Y460143D1*
Y457643D1*
Y455143D1*
X-88280Y460143D2*
Y457643D1*
Y455143D1*
X-580403Y302593D2*
Y300093D1*
Y297593D1*
Y295093D1*
Y292593D1*
Y290093D1*
Y287593D1*
Y285093D1*
Y282593D1*
Y280093D1*
Y277593D1*
Y275093D1*
Y272593D1*
Y270093D1*
Y267593D1*
Y265093D1*
Y262593D1*
Y260093D1*
Y257593D1*
Y255093D1*
Y252593D1*
Y250093D1*
X-590403D1*
Y247593D1*
Y245093D1*
Y242593D1*
X-580403D1*
Y240093D1*
Y237593D1*
Y235093D1*
Y232593D1*
Y230093D1*
Y227593D1*
Y225093D1*
X-575403Y302593D2*
X-573853Y300093D1*
X-572427Y297593D1*
X-571088Y295093D1*
X-569793Y292593D1*
X-568448Y290093D1*
X-566954Y287593D1*
X-565342Y285093D1*
X-563810Y282593D1*
X-562405Y280093D1*
X-561078Y277593D1*
X-559799Y275093D1*
X-558534Y272593D1*
X-557282Y270093D1*
X-556028Y267593D1*
X-554770Y265093D1*
X-553440Y262593D1*
X-551961Y260093D1*
X-550438Y257593D1*
X-549236Y255093D1*
X-548517Y252593D1*
X-548160Y250093D1*
X-548003Y247593D1*
X-547938Y245093D1*
X-547903Y242593D1*
X-575403D1*
Y240093D1*
Y237593D1*
Y235093D1*
Y232593D1*
Y230093D1*
Y227593D1*
Y225093D1*
X-525403Y302593D2*
X-528661Y300093D1*
X-531172Y297593D1*
X-533059Y295093D1*
X-534586Y292593D1*
X-535862Y290093D1*
X-536829Y287593D1*
X-537406Y285093D1*
X-537704Y282593D1*
X-537919Y280093D1*
X-538289Y277593D1*
X-538908Y275093D1*
X-539556Y272593D1*
X-539994Y270093D1*
X-540227Y267593D1*
X-540333Y265093D1*
X-540367Y262593D1*
X-540296Y260093D1*
X-539984Y257593D1*
X-539387Y255093D1*
X-538747Y252593D1*
X-538311Y250093D1*
X-538070Y247593D1*
X-537876Y245093D1*
X-537504Y242593D1*
X-536800Y240093D1*
X-535825Y237593D1*
X-534680Y235093D1*
X-533296Y232593D1*
X-531359Y230093D1*
X-528615Y227593D1*
X-525403Y225093D1*
X-512903Y302593D2*
X-510499Y300093D1*
X-508329Y297593D1*
X-506526Y295093D1*
X-505073Y292593D1*
X-503936Y290093D1*
X-503006Y287593D1*
X-502105Y285093D1*
X-501332Y282593D1*
X-500842Y280093D1*
X-500590Y277593D1*
X-500477Y275093D1*
X-500431Y272593D1*
X-500413Y270093D1*
X-500407Y267593D1*
X-500404Y265093D1*
Y262593D1*
X-500403Y260093D1*
Y257593D1*
Y255093D1*
Y252593D1*
X-500413Y250093D1*
X-500501Y247593D1*
X-500829Y245093D1*
X-501516Y242593D1*
X-502485Y240093D1*
X-503618Y237593D1*
X-504917Y235093D1*
X-506569Y232593D1*
X-508885Y230093D1*
X-511940Y227593D1*
X-515403Y225093D1*
X-452903Y302593D2*
Y300093D1*
Y297593D1*
Y295093D1*
Y292593D1*
Y290093D1*
Y287593D1*
Y285093D1*
Y282593D1*
Y280093D1*
Y277593D1*
Y275093D1*
Y272593D1*
Y270093D1*
Y267593D1*
Y265093D1*
Y262593D1*
Y260093D1*
Y257593D1*
Y255093D1*
Y252593D1*
Y250093D1*
Y247593D1*
Y245093D1*
Y242593D1*
Y240093D1*
Y237593D1*
Y235093D1*
Y232593D1*
Y230093D1*
Y227593D1*
Y225093D1*
X-447903Y302593D2*
X-446944Y300093D1*
X-445782Y297593D1*
X-444292Y295093D1*
X-442391Y292593D1*
X-440189Y290093D1*
X-437829Y287593D1*
X-435477Y285093D1*
X-433384Y282593D1*
X-431746Y280093D1*
X-430403Y277593D1*
X-522903Y297593D2*
X-525308Y295093D1*
X-527478Y292593D1*
X-529281Y290093D1*
X-530724Y287593D1*
X-531773Y285093D1*
X-532385Y282593D1*
X-532687Y280093D1*
X-532819Y277593D1*
X-532872Y275093D1*
X-532892Y272593D1*
X-532900Y270093D1*
X-532902Y267593D1*
X-532903Y265093D1*
Y262593D1*
Y260093D1*
Y257593D1*
Y255093D1*
Y252593D1*
X-532894Y250093D1*
X-532806Y247593D1*
X-532477Y245093D1*
X-531781Y242593D1*
X-530685Y240093D1*
X-529274Y237593D1*
X-525527Y235093D1*
X-519846Y232593D1*
X-512903Y230093D1*
X-515403Y297593D2*
X-513299Y295093D1*
X-511517Y292593D1*
X-510071Y290093D1*
X-508936Y287593D1*
X-508005Y285093D1*
X-507105Y282593D1*
X-506332Y280093D1*
X-505842Y277593D1*
X-505590Y275093D1*
X-505477Y272593D1*
X-505431Y270093D1*
X-505413Y267593D1*
X-505407Y265093D1*
X-505404Y262593D1*
Y260093D1*
X-505403Y257593D1*
X-505413Y255093D1*
X-505501Y252593D1*
X-505820Y250093D1*
X-506428Y247593D1*
X-507157Y245093D1*
X-507921Y242593D1*
X-508889Y240093D1*
X-510077Y237593D1*
X-512687Y235093D1*
X-518551Y232593D1*
X-525403Y230093D1*
X-575403Y285093D2*
Y282593D1*
Y280093D1*
Y277593D1*
Y275093D1*
Y272593D1*
Y270093D1*
Y267593D1*
Y265093D1*
Y262593D1*
Y260093D1*
Y257593D1*
Y255093D1*
Y252593D1*
X-555403Y250093D1*
X-572903Y285093D2*
X-570799Y282593D1*
X-569007Y280093D1*
X-567483Y277593D1*
X-566107Y275093D1*
X-564809Y272593D1*
X-563538Y270093D1*
X-562273Y267593D1*
X-560941Y265093D1*
X-559451Y262593D1*
X-557833Y260093D1*
X-556236Y257593D1*
X-554610Y255093D1*
X-552903Y252593D1*
X-570403Y250093D1*
X-445403Y285093D2*
Y282593D1*
Y280093D1*
Y277593D1*
Y275093D1*
Y272593D1*
Y270093D1*
Y267593D1*
Y265093D1*
Y262593D1*
Y260093D1*
Y257593D1*
Y255093D1*
Y252593D1*
Y250093D1*
Y247593D1*
Y245093D1*
Y242593D1*
Y240093D1*
Y237593D1*
Y235093D1*
Y232593D1*
Y230093D1*
Y227593D1*
Y225093D1*
X-442903Y285093D2*
X-440403Y282593D1*
X-437903Y280093D1*
X-435403Y277593D1*
X-485403Y232593D2*
Y230093D1*
Y227593D1*
Y225093D1*
X-480403Y232593D2*
Y230093D1*
Y227593D1*
Y225093D1*
X-121957Y295103D2*
X-124447Y292603D1*
X-126849Y290103D1*
X-128943Y287603D1*
X-130516Y285103D1*
X-131678Y282603D1*
X-132685Y280103D1*
X-133492Y277603D1*
X-133911Y275103D1*
X-133850Y272603D1*
X-133357Y270103D1*
X-132675Y267603D1*
X-131929Y265103D1*
X-131007Y262603D1*
X-129856Y260103D1*
X-128449Y257603D1*
X-126864Y255103D1*
X-125258Y252603D1*
X-123529Y250103D1*
X-121518Y247603D1*
X-119270Y245103D1*
X-116883Y242603D1*
X-114429Y240103D1*
X-111957Y237603D1*
X-109551Y235103D1*
X-107372Y232603D1*
X-105472Y230103D1*
X-103619Y227603D1*
X-101593Y225103D1*
X-99457Y222603D1*
X-106957Y295103D2*
X-103398Y292603D1*
X-100510Y290103D1*
X-98344Y287603D1*
X-96740Y285103D1*
X-95625Y282603D1*
X-94987Y280103D1*
X-94660Y277603D1*
X-94457Y275103D1*
X-69457Y295103D2*
X-72715Y292603D1*
X-75225Y290103D1*
X-77113Y287603D1*
X-78639Y285103D1*
X-79915Y282603D1*
X-80883Y280103D1*
X-81460Y277603D1*
X-81758Y275103D1*
X-81973Y272603D1*
X-82343Y270103D1*
X-82961Y267603D1*
X-83609Y265103D1*
X-84047Y262603D1*
X-84280Y260103D1*
X-84386Y257603D1*
X-84421Y255103D1*
X-84350Y252603D1*
X-84037Y250103D1*
X-83441Y247603D1*
X-82800Y245103D1*
X-82365Y242603D1*
X-82123Y240103D1*
X-81929Y237603D1*
X-81557Y235103D1*
X-80853Y232603D1*
X-79878Y230103D1*
X-78734Y227603D1*
X-77349Y225103D1*
X-75412Y222603D1*
X-72669Y220103D1*
X-69457Y217603D1*
X-56957Y295103D2*
X-54552Y292603D1*
X-52382Y290103D1*
X-50579Y287603D1*
X-49127Y285103D1*
X-47990Y282603D1*
X-47059Y280103D1*
X-46158Y277603D1*
X-45385Y275103D1*
X-44896Y272603D1*
X-44644Y270103D1*
X-44531Y267603D1*
X-44484Y265103D1*
X-44466Y262603D1*
X-44460Y260103D1*
X-44458Y257603D1*
X-44457Y255103D1*
Y252603D1*
Y250103D1*
Y247603D1*
Y245103D1*
X-44466Y242603D1*
X-44554Y240103D1*
X-44883Y237603D1*
X-45569Y235103D1*
X-46539Y232603D1*
X-47671Y230103D1*
X-48970Y227603D1*
X-50622Y225103D1*
X-52938Y222603D1*
X-55993Y220103D1*
X-59457Y217603D1*
X3043Y295103D2*
Y292603D1*
Y290103D1*
Y287603D1*
Y285103D1*
Y282603D1*
Y280103D1*
Y277603D1*
Y275103D1*
Y272603D1*
Y270103D1*
Y267603D1*
Y265103D1*
Y262603D1*
Y260103D1*
Y257603D1*
Y255103D1*
Y252603D1*
Y250103D1*
Y247603D1*
Y245103D1*
Y242603D1*
Y240103D1*
Y237603D1*
Y235103D1*
Y232603D1*
Y230103D1*
Y227603D1*
Y225103D1*
Y222603D1*
Y220103D1*
Y217603D1*
X8043Y295103D2*
X9003Y292603D1*
X10165Y290103D1*
X11655Y287603D1*
X13556Y285103D1*
X15758Y282603D1*
X18117Y280103D1*
X20469Y277603D1*
X22563Y275103D1*
X24201Y272603D1*
X25543Y270103D1*
X-114457Y290103D2*
X-118569Y287603D1*
X-121814Y285103D1*
X-124088Y282603D1*
X-125792Y280103D1*
X-126391Y277603D1*
X-126706Y275103D1*
X-126764Y272603D1*
X-126496Y270103D1*
X-125832Y267603D1*
X-124870Y265103D1*
X-123741Y262603D1*
X-122453Y260103D1*
X-120896Y257603D1*
X-118964Y255103D1*
X-116749Y252603D1*
X-114376Y250103D1*
X-111927Y247603D1*
X-109446Y245103D1*
X-106963Y242603D1*
X-104553Y240103D1*
X-102373Y237603D1*
X-100481Y235103D1*
X-98720Y232603D1*
X-97063Y230103D1*
X-95722Y227603D1*
X-94663Y225103D1*
X-93679Y222603D1*
X-92769Y220103D1*
X-91957Y217603D1*
X-109457Y290103D2*
X-106966Y287603D1*
X-104564Y285103D1*
X-102480Y282603D1*
X-100986Y280103D1*
X-100085Y277603D1*
X-99457Y275103D1*
X-66957Y290103D2*
X-69361Y287603D1*
X-71531Y285103D1*
X-73334Y282603D1*
X-74777Y280103D1*
X-75826Y277603D1*
X-76438Y275103D1*
X-76740Y272603D1*
X-76872Y270103D1*
X-76926Y267603D1*
X-76946Y265103D1*
X-76953Y262603D1*
X-76955Y260103D1*
X-76956Y257603D1*
X-76957Y255103D1*
Y252603D1*
Y250103D1*
Y247603D1*
Y245103D1*
X-76947Y242603D1*
X-76859Y240103D1*
X-76531Y237603D1*
X-75834Y235103D1*
X-74738Y232603D1*
X-73328Y230103D1*
X-69580Y227603D1*
X-63900Y225103D1*
X-56957Y222603D1*
X-59457Y290103D2*
X-57353Y287603D1*
X-55570Y285103D1*
X-54124Y282603D1*
X-52989Y280103D1*
X-52059Y277603D1*
X-51158Y275103D1*
X-50385Y272603D1*
X-49896Y270103D1*
X-49644Y267603D1*
X-49531Y265103D1*
X-49484Y262603D1*
X-49466Y260103D1*
X-49460Y257603D1*
X-49458Y255103D1*
X-49457Y252603D1*
Y250103D1*
X-49466Y247603D1*
X-49554Y245103D1*
X-49873Y242603D1*
X-50481Y240103D1*
X-51210Y237603D1*
X-51975Y235103D1*
X-52942Y232603D1*
X-54130Y230103D1*
X-56741Y227603D1*
X-62604Y225103D1*
X-69457Y222603D1*
X10543Y277603D2*
Y275103D1*
Y272603D1*
Y270103D1*
Y267603D1*
Y265103D1*
Y262603D1*
Y260103D1*
Y257603D1*
Y255103D1*
Y252603D1*
Y250103D1*
Y247603D1*
Y245103D1*
Y242603D1*
Y240103D1*
Y237603D1*
Y235103D1*
Y232603D1*
Y230103D1*
Y227603D1*
Y225103D1*
Y222603D1*
Y220103D1*
Y217603D1*
X13043Y277603D2*
X15543Y275103D1*
X18043Y272603D1*
X20543Y270103D1*
X-29457Y225103D2*
Y222603D1*
Y220103D1*
Y217603D1*
X-24457Y225103D2*
Y222603D1*
Y220103D1*
Y217603D1*
X-134457Y222603D2*
Y220103D1*
Y217603D1*
X-597967Y71390D2*
X-600457Y68890D1*
X-602859Y66390D1*
X-604953Y63890D1*
X-606526Y61390D1*
X-607688Y58890D1*
X-608695Y56390D1*
X-609502Y53890D1*
X-609921Y51390D1*
X-609860Y48890D1*
X-609367Y46390D1*
X-608685Y43890D1*
X-607939Y41390D1*
X-607017Y38890D1*
X-605866Y36390D1*
X-604459Y33890D1*
X-602874Y31390D1*
X-601268Y28890D1*
X-599539Y26390D1*
X-597528Y23890D1*
X-595280Y21390D1*
X-592893Y18890D1*
X-590439Y16390D1*
X-587967Y13890D1*
X-585561Y11390D1*
X-583382Y8890D1*
X-581482Y6390D1*
X-579629Y3890D1*
X-577603Y1390D1*
X-575467Y-1110D1*
X-582967Y71390D2*
X-579408Y68890D1*
X-576520Y66390D1*
X-574354Y63890D1*
X-572750Y61390D1*
X-571635Y58890D1*
X-570997Y56390D1*
X-570670Y53890D1*
X-570467Y51390D1*
X-547967Y71390D2*
X-550457Y68890D1*
X-552859Y66390D1*
X-554953Y63890D1*
X-556526Y61390D1*
X-557688Y58890D1*
X-558695Y56390D1*
X-559502Y53890D1*
X-559921Y51390D1*
X-559860Y48890D1*
X-559367Y46390D1*
X-558685Y43890D1*
X-557939Y41390D1*
X-557017Y38890D1*
X-555866Y36390D1*
X-554459Y33890D1*
X-552874Y31390D1*
X-551268Y28890D1*
X-549539Y26390D1*
X-547528Y23890D1*
X-545280Y21390D1*
X-542893Y18890D1*
X-540439Y16390D1*
X-537967Y13890D1*
X-535561Y11390D1*
X-533382Y8890D1*
X-531482Y6390D1*
X-529629Y3890D1*
X-527603Y1390D1*
X-525467Y-1110D1*
X-532967Y71390D2*
X-529408Y68890D1*
X-526520Y66390D1*
X-524354Y63890D1*
X-522750Y61390D1*
X-521635Y58890D1*
X-520997Y56390D1*
X-520670Y53890D1*
X-520467Y51390D1*
X-470467Y71390D2*
X-473725Y68890D1*
X-476235Y66390D1*
X-478123Y63890D1*
X-479649Y61390D1*
X-480925Y58890D1*
X-481893Y56390D1*
X-482470Y53890D1*
X-482768Y51390D1*
X-482983Y48890D1*
X-483353Y46390D1*
X-483971Y43890D1*
X-484619Y41390D1*
X-485057Y38890D1*
X-485290Y36390D1*
X-485396Y33890D1*
X-485431Y31390D1*
X-485360Y28890D1*
X-485047Y26390D1*
X-484451Y23890D1*
X-483810Y21390D1*
X-483375Y18890D1*
X-483133Y16390D1*
X-482939Y13890D1*
X-482567Y11390D1*
X-481863Y8890D1*
X-480888Y6390D1*
X-479744Y3890D1*
X-478359Y1390D1*
X-476422Y-1110D1*
X-473679Y-3610D1*
X-470467Y-6110D1*
X-457967Y71390D2*
X-455562Y68890D1*
X-453392Y66390D1*
X-451589Y63890D1*
X-450137Y61390D1*
X-449000Y58890D1*
X-448069Y56390D1*
X-447168Y53890D1*
X-446395Y51390D1*
X-445906Y48890D1*
X-445654Y46390D1*
X-445541Y43890D1*
X-445494Y41390D1*
X-445476Y38890D1*
X-445470Y36390D1*
X-445468Y33890D1*
X-445467Y31390D1*
Y28890D1*
Y26390D1*
Y23890D1*
Y21390D1*
X-445476Y18890D1*
X-445564Y16390D1*
X-445893Y13890D1*
X-446579Y11390D1*
X-447549Y8890D1*
X-448681Y6390D1*
X-449980Y3890D1*
X-451632Y1390D1*
X-453948Y-1110D1*
X-457003Y-3610D1*
X-460467Y-6110D1*
X-590467Y66390D2*
X-594579Y63890D1*
X-597824Y61390D1*
X-600098Y58890D1*
X-601802Y56390D1*
X-602401Y53890D1*
X-602716Y51390D1*
X-602774Y48890D1*
X-602506Y46390D1*
X-601842Y43890D1*
X-600880Y41390D1*
X-599751Y38890D1*
X-598463Y36390D1*
X-596906Y33890D1*
X-594974Y31390D1*
X-592759Y28890D1*
X-590386Y26390D1*
X-587937Y23890D1*
X-585456Y21390D1*
X-582973Y18890D1*
X-580563Y16390D1*
X-578383Y13890D1*
X-576491Y11390D1*
X-574730Y8890D1*
X-573073Y6390D1*
X-571732Y3890D1*
X-570673Y1390D1*
X-569689Y-1110D1*
X-568779Y-3610D1*
X-567967Y-6110D1*
X-585467Y66390D2*
X-582976Y63890D1*
X-580574Y61390D1*
X-578490Y58890D1*
X-576996Y56390D1*
X-576095Y53890D1*
X-575467Y51390D1*
X-540467Y66390D2*
X-544579Y63890D1*
X-547824Y61390D1*
X-550098Y58890D1*
X-551802Y56390D1*
X-552401Y53890D1*
X-552716Y51390D1*
X-552774Y48890D1*
X-552506Y46390D1*
X-551842Y43890D1*
X-550880Y41390D1*
X-549751Y38890D1*
X-548463Y36390D1*
X-546906Y33890D1*
X-544974Y31390D1*
X-542759Y28890D1*
X-540386Y26390D1*
X-537937Y23890D1*
X-535456Y21390D1*
X-532973Y18890D1*
X-530563Y16390D1*
X-528383Y13890D1*
X-526491Y11390D1*
X-524730Y8890D1*
X-523073Y6390D1*
X-521732Y3890D1*
X-520673Y1390D1*
X-519689Y-1110D1*
X-518779Y-3610D1*
X-517967Y-6110D1*
X-535467Y66390D2*
X-532976Y63890D1*
X-530574Y61390D1*
X-528490Y58890D1*
X-526996Y56390D1*
X-526095Y53890D1*
X-525467Y51390D1*
X-467967Y66390D2*
X-470371Y63890D1*
X-472541Y61390D1*
X-474344Y58890D1*
X-475787Y56390D1*
X-476836Y53890D1*
X-477448Y51390D1*
X-477750Y48890D1*
X-477882Y46390D1*
X-477936Y43890D1*
X-477956Y41390D1*
X-477963Y38890D1*
X-477965Y36390D1*
X-477966Y33890D1*
X-477967Y31390D1*
Y28890D1*
Y26390D1*
Y23890D1*
Y21390D1*
X-477957Y18890D1*
X-477869Y16390D1*
X-477541Y13890D1*
X-476844Y11390D1*
X-475748Y8890D1*
X-474338Y6390D1*
X-470590Y3890D1*
X-464910Y1390D1*
X-457967Y-1110D1*
X-460467Y66390D2*
X-458363Y63890D1*
X-456580Y61390D1*
X-455134Y58890D1*
X-453999Y56390D1*
X-453069Y53890D1*
X-452168Y51390D1*
X-451395Y48890D1*
X-450906Y46390D1*
X-450654Y43890D1*
X-450541Y41390D1*
X-450494Y38890D1*
X-450476Y36390D1*
X-450470Y33890D1*
X-450468Y31390D1*
X-450467Y28890D1*
Y26390D1*
X-450476Y23890D1*
X-450564Y21390D1*
X-450883Y18890D1*
X-451491Y16390D1*
X-452220Y13890D1*
X-452985Y11390D1*
X-453952Y8890D1*
X-455140Y6390D1*
X-457751Y3890D1*
X-463614Y1390D1*
X-470467Y-1110D1*
X-505467Y1390D2*
Y-1110D1*
Y-3610D1*
Y-6110D1*
X-500467Y1390D2*
Y-1110D1*
Y-3610D1*
Y-6110D1*
X-610467Y-1110D2*
Y-3610D1*
Y-6110D1*
X-560467Y-1110D2*
Y-3610D1*
Y-6110D1*
X-122320Y69357D2*
X-125578Y66857D1*
X-128088Y64357D1*
X-129976Y61857D1*
X-131503Y59357D1*
X-132778Y56857D1*
X-133746Y54357D1*
X-134323Y51857D1*
X-134621Y49357D1*
X-134836Y46857D1*
X-135206Y44357D1*
X-135824Y41857D1*
X-136472Y39357D1*
X-136911Y36857D1*
X-137143Y34357D1*
X-137250Y31857D1*
X-137284Y29357D1*
X-137213Y26857D1*
X-136901Y24357D1*
X-136304Y21857D1*
X-135664Y19357D1*
X-135228Y16857D1*
X-134986Y14357D1*
X-134792Y11857D1*
X-134420Y9357D1*
X-133717Y6857D1*
X-132741Y4357D1*
X-131597Y1857D1*
X-130212Y-643D1*
X-128276Y-3143D1*
X-125532Y-5643D1*
X-122320Y-8143D1*
X-109820Y69357D2*
X-107415Y66857D1*
X-105245Y64357D1*
X-103442Y61857D1*
X-101990Y59357D1*
X-100853Y56857D1*
X-99922Y54357D1*
X-99022Y51857D1*
X-98248Y49357D1*
X-97759Y46857D1*
X-97507Y44357D1*
X-97394Y41857D1*
X-97347Y39357D1*
X-97330Y36857D1*
X-97323Y34357D1*
X-97321Y31857D1*
X-97320Y29357D1*
Y26857D1*
Y24357D1*
Y21857D1*
Y19357D1*
X-97330Y16857D1*
X-97418Y14357D1*
X-97746Y11857D1*
X-98433Y9357D1*
X-99402Y6857D1*
X-100534Y4357D1*
X-101833Y1857D1*
X-103485Y-643D1*
X-105802Y-3143D1*
X-108856Y-5643D1*
X-112320Y-8143D1*
X-72320Y69357D2*
X-75578Y66857D1*
X-78088Y64357D1*
X-79976Y61857D1*
X-81503Y59357D1*
X-82778Y56857D1*
X-83746Y54357D1*
X-84323Y51857D1*
X-84621Y49357D1*
X-84836Y46857D1*
X-85206Y44357D1*
X-85824Y41857D1*
X-86472Y39357D1*
X-86911Y36857D1*
X-87143Y34357D1*
X-87250Y31857D1*
X-87284Y29357D1*
X-87213Y26857D1*
X-86901Y24357D1*
X-86304Y21857D1*
X-85664Y19357D1*
X-85228Y16857D1*
X-84986Y14357D1*
X-84792Y11857D1*
X-84420Y9357D1*
X-83717Y6857D1*
X-82741Y4357D1*
X-81597Y1857D1*
X-80212Y-643D1*
X-78276Y-3143D1*
X-75532Y-5643D1*
X-72320Y-8143D1*
X-59820Y69357D2*
X-57415Y66857D1*
X-55245Y64357D1*
X-53442Y61857D1*
X-51990Y59357D1*
X-50853Y56857D1*
X-49922Y54357D1*
X-49022Y51857D1*
X-48248Y49357D1*
X-47759Y46857D1*
X-47507Y44357D1*
X-47394Y41857D1*
X-47347Y39357D1*
X-47330Y36857D1*
X-47323Y34357D1*
X-47321Y31857D1*
X-47320Y29357D1*
Y26857D1*
Y24357D1*
Y21857D1*
Y19357D1*
X-47330Y16857D1*
X-47418Y14357D1*
X-47746Y11857D1*
X-48433Y9357D1*
X-49402Y6857D1*
X-50534Y4357D1*
X-51833Y1857D1*
X-53485Y-643D1*
X-55802Y-3143D1*
X-58856Y-5643D1*
X-62320Y-8143D1*
X180Y69357D2*
Y66857D1*
Y64357D1*
Y61857D1*
Y59357D1*
Y56857D1*
Y54357D1*
Y51857D1*
Y49357D1*
Y46857D1*
Y44357D1*
Y41857D1*
Y39357D1*
Y36857D1*
Y34357D1*
Y31857D1*
Y29357D1*
Y26857D1*
Y24357D1*
Y21857D1*
Y19357D1*
Y16857D1*
Y14357D1*
Y11857D1*
Y9357D1*
Y6857D1*
Y4357D1*
Y1857D1*
Y-643D1*
Y-3143D1*
Y-5643D1*
Y-8143D1*
X5180Y69357D2*
X6140Y66857D1*
X7302Y64357D1*
X8791Y61857D1*
X10692Y59357D1*
X12895Y56857D1*
X15254Y54357D1*
X17606Y51857D1*
X19700Y49357D1*
X21338Y46857D1*
X22680Y44357D1*
X-119820Y64357D2*
X-122225Y61857D1*
X-124395Y59357D1*
X-126198Y56857D1*
X-127640Y54357D1*
X-128689Y51857D1*
X-129301Y49357D1*
X-129603Y46857D1*
X-129736Y44357D1*
X-129789Y41857D1*
X-129809Y39357D1*
X-129816Y36857D1*
X-129819Y34357D1*
X-129820Y31857D1*
Y29357D1*
Y26857D1*
Y24357D1*
Y21857D1*
Y19357D1*
X-129810Y16857D1*
X-129722Y14357D1*
X-129394Y11857D1*
X-128698Y9357D1*
X-127601Y6857D1*
X-126191Y4357D1*
X-122444Y1857D1*
X-116763Y-643D1*
X-109820Y-3143D1*
X-112320Y64357D2*
X-110216Y61857D1*
X-108434Y59357D1*
X-106987Y56857D1*
X-105852Y54357D1*
X-104922Y51857D1*
X-104022Y49357D1*
X-103248Y46857D1*
X-102759Y44357D1*
X-102507Y41857D1*
X-102394Y39357D1*
X-102347Y36857D1*
X-102330Y34357D1*
X-102323Y31857D1*
X-102321Y29357D1*
X-102320Y26857D1*
Y24357D1*
X-102330Y21857D1*
X-102418Y19357D1*
X-102736Y16857D1*
X-103345Y14357D1*
X-104074Y11857D1*
X-104838Y9357D1*
X-105805Y6857D1*
X-106993Y4357D1*
X-109604Y1857D1*
X-115467Y-643D1*
X-122320Y-3143D1*
X-69820Y64357D2*
X-72225Y61857D1*
X-74395Y59357D1*
X-76198Y56857D1*
X-77640Y54357D1*
X-78689Y51857D1*
X-79301Y49357D1*
X-79603Y46857D1*
X-79736Y44357D1*
X-79789Y41857D1*
X-79809Y39357D1*
X-79816Y36857D1*
X-79819Y34357D1*
X-79820Y31857D1*
Y29357D1*
Y26857D1*
Y24357D1*
Y21857D1*
Y19357D1*
X-79810Y16857D1*
X-79722Y14357D1*
X-79394Y11857D1*
X-78698Y9357D1*
X-77601Y6857D1*
X-76191Y4357D1*
X-72444Y1857D1*
X-66763Y-643D1*
X-59820Y-3143D1*
X-62320Y64357D2*
X-60216Y61857D1*
X-58434Y59357D1*
X-56987Y56857D1*
X-55852Y54357D1*
X-54922Y51857D1*
X-54022Y49357D1*
X-53248Y46857D1*
X-52759Y44357D1*
X-52507Y41857D1*
X-52394Y39357D1*
X-52347Y36857D1*
X-52330Y34357D1*
X-52323Y31857D1*
X-52321Y29357D1*
X-52320Y26857D1*
Y24357D1*
X-52330Y21857D1*
X-52418Y19357D1*
X-52736Y16857D1*
X-53345Y14357D1*
X-54074Y11857D1*
X-54838Y9357D1*
X-55805Y6857D1*
X-56993Y4357D1*
X-59604Y1857D1*
X-65467Y-643D1*
X-72320Y-3143D1*
X7680Y51857D2*
Y49357D1*
Y46857D1*
Y44357D1*
Y41857D1*
Y39357D1*
Y36857D1*
Y34357D1*
Y31857D1*
Y29357D1*
Y26857D1*
Y24357D1*
Y21857D1*
Y19357D1*
Y16857D1*
Y14357D1*
Y11857D1*
Y9357D1*
Y6857D1*
Y4357D1*
Y1857D1*
Y-643D1*
Y-3143D1*
Y-5643D1*
Y-8143D1*
X10180Y51857D2*
X12680Y49357D1*
X15180Y46857D1*
X17680Y44357D1*
X-32320Y-643D2*
Y-3143D1*
Y-5643D1*
Y-8143D1*
X-27320Y-643D2*
Y-3143D1*
Y-5643D1*
Y-8143D1*
X-140660Y-395650D2*
X-140264Y-398150D1*
X-139546Y-400650D1*
X-138493Y-403150D1*
X-137128Y-405650D1*
X-135568Y-408150D1*
X-134056Y-410650D1*
X-132658Y-413150D1*
X-131334Y-415650D1*
X-130055Y-418150D1*
X-128801Y-420650D1*
X-127626Y-423150D1*
X-126613Y-425650D1*
X-125723Y-428150D1*
X-124753Y-430650D1*
X-123668Y-433150D1*
X-122573Y-435650D1*
X-121593Y-438150D1*
X-120725Y-440650D1*
X-119849Y-443150D1*
X-119084Y-445650D1*
X-118588Y-448150D1*
X-118249Y-450650D1*
X-117817Y-453150D1*
X-117172Y-455650D1*
X-116514Y-458150D1*
X-116071Y-460650D1*
X-115837Y-463150D1*
X-115730Y-465650D1*
X-115686Y-468150D1*
X-115669Y-470650D1*
X-115660Y-473150D1*
X-100660Y-395650D2*
Y-398150D1*
Y-400650D1*
X-75660Y-395650D2*
X-78918Y-398150D1*
X-81428Y-400650D1*
X-83316Y-403150D1*
X-84843Y-405650D1*
X-86118Y-408150D1*
X-87086Y-410650D1*
X-87663Y-413150D1*
X-87961Y-415650D1*
X-88176Y-418150D1*
X-88546Y-420650D1*
X-89164Y-423150D1*
X-89812Y-425650D1*
X-90251Y-428150D1*
X-90483Y-430650D1*
X-90590Y-433150D1*
X-90624Y-435650D1*
X-90553Y-438150D1*
X-90241Y-440650D1*
X-89644Y-443150D1*
X-89004Y-445650D1*
X-88568Y-448150D1*
X-88326Y-450650D1*
X-88132Y-453150D1*
X-87760Y-455650D1*
X-87057Y-458150D1*
X-86081Y-460650D1*
X-84937Y-463150D1*
X-83552Y-465650D1*
X-81616Y-468150D1*
X-78872Y-470650D1*
X-75660Y-473150D1*
X-63160Y-395650D2*
X-60755Y-398150D1*
X-58585Y-400650D1*
X-56782Y-403150D1*
X-55330Y-405650D1*
X-54193Y-408150D1*
X-53262Y-410650D1*
X-52362Y-413150D1*
X-51588Y-415650D1*
X-51099Y-418150D1*
X-50847Y-420650D1*
X-50734Y-423150D1*
X-50687Y-425650D1*
X-50670Y-428150D1*
X-50663Y-430650D1*
X-50661Y-433150D1*
X-50660Y-435650D1*
Y-438150D1*
Y-440650D1*
Y-443150D1*
Y-445650D1*
X-50670Y-448150D1*
X-50758Y-450650D1*
X-51086Y-453150D1*
X-51773Y-455650D1*
X-52742Y-458150D1*
X-53874Y-460650D1*
X-55173Y-463150D1*
X-56825Y-465650D1*
X-59142Y-468150D1*
X-62196Y-470650D1*
X-65660Y-473150D1*
X-660Y-395650D2*
X-3918Y-398150D1*
X-6428Y-400650D1*
X-8316Y-403150D1*
X-9843Y-405650D1*
X-11118Y-408150D1*
X-12086Y-410650D1*
X-12663Y-413150D1*
X-12961Y-415650D1*
X-13176Y-418150D1*
X-13546Y-420650D1*
X-14164Y-423150D1*
X-14812Y-425650D1*
X-15251Y-428150D1*
X-15483Y-430650D1*
X-15590Y-433150D1*
X-15624Y-435650D1*
X-15553Y-438150D1*
X-15241Y-440650D1*
X-14644Y-443150D1*
X-14004Y-445650D1*
X-13568Y-448150D1*
X-13326Y-450650D1*
X-13132Y-453150D1*
X-12760Y-455650D1*
X-12057Y-458150D1*
X-11081Y-460650D1*
X-9937Y-463150D1*
X-8552Y-465650D1*
X-6616Y-468150D1*
X-3872Y-470650D1*
X-660Y-473150D1*
X11840Y-395650D2*
X14245Y-398150D1*
X16415Y-400650D1*
X18218Y-403150D1*
X19670Y-405650D1*
X20807Y-408150D1*
X21738Y-410650D1*
X22638Y-413150D1*
X23412Y-415650D1*
X23901Y-418150D1*
X24153Y-420650D1*
X24266Y-423150D1*
X24313Y-425650D1*
X24330Y-428150D1*
X24337Y-430650D1*
X24339Y-433150D1*
X24340Y-435650D1*
Y-438150D1*
Y-440650D1*
Y-443150D1*
Y-445650D1*
X24330Y-448150D1*
X24242Y-450650D1*
X23914Y-453150D1*
X23227Y-455650D1*
X22258Y-458150D1*
X21126Y-460650D1*
X19827Y-463150D1*
X18175Y-465650D1*
X15858Y-468150D1*
X12804Y-470650D1*
X9340Y-473150D1*
X-133160Y-400650D2*
X-131056Y-403150D1*
X-129264Y-405650D1*
X-127739Y-408150D1*
X-126364Y-410650D1*
X-125066Y-413150D1*
X-123795Y-415650D1*
X-122540Y-418150D1*
X-121295Y-420650D1*
X-120124Y-423150D1*
X-119112Y-425650D1*
X-118232Y-428150D1*
X-117341Y-430650D1*
X-116487Y-433150D1*
X-115682Y-435650D1*
X-114832Y-438150D1*
X-114068Y-440650D1*
X-113498Y-443150D1*
X-112930Y-445650D1*
X-112218Y-448150D1*
X-111531Y-450650D1*
X-111078Y-453150D1*
X-110830Y-455650D1*
X-110634Y-458150D1*
X-110270Y-460650D1*
X-109654Y-463150D1*
X-109007Y-465650D1*
X-108567Y-468150D1*
X-108321Y-470650D1*
X-108160Y-473150D1*
X-73160Y-400650D2*
X-75565Y-403150D1*
X-77735Y-405650D1*
X-79538Y-408150D1*
X-80980Y-410650D1*
X-82029Y-413150D1*
X-82641Y-415650D1*
X-82943Y-418150D1*
X-83076Y-420650D1*
X-83129Y-423150D1*
X-83149Y-425650D1*
X-83156Y-428150D1*
X-83159Y-430650D1*
X-83160Y-433150D1*
Y-435650D1*
Y-438150D1*
Y-440650D1*
Y-443150D1*
Y-445650D1*
X-83150Y-448150D1*
X-83062Y-450650D1*
X-82734Y-453150D1*
X-82038Y-455650D1*
X-80941Y-458150D1*
X-79531Y-460650D1*
X-75784Y-463150D1*
X-70103Y-465650D1*
X-63160Y-468150D1*
X-65660Y-400650D2*
X-63556Y-403150D1*
X-61774Y-405650D1*
X-60327Y-408150D1*
X-59192Y-410650D1*
X-58262Y-413150D1*
X-57362Y-415650D1*
X-56588Y-418150D1*
X-56099Y-420650D1*
X-55847Y-423150D1*
X-55734Y-425650D1*
X-55687Y-428150D1*
X-55670Y-430650D1*
X-55663Y-433150D1*
X-55661Y-435650D1*
X-55660Y-438150D1*
Y-440650D1*
X-55670Y-443150D1*
X-55758Y-445650D1*
X-56076Y-448150D1*
X-56685Y-450650D1*
X-57414Y-453150D1*
X-58178Y-455650D1*
X-59145Y-458150D1*
X-60333Y-460650D1*
X-62944Y-463150D1*
X-68807Y-465650D1*
X-75660Y-468150D1*
X1840Y-400650D2*
X-565Y-403150D1*
X-2735Y-405650D1*
X-4538Y-408150D1*
X-5980Y-410650D1*
X-7029Y-413150D1*
X-7641Y-415650D1*
X-7943Y-418150D1*
X-8076Y-420650D1*
X-8129Y-423150D1*
X-8149Y-425650D1*
X-8156Y-428150D1*
X-8159Y-430650D1*
X-8160Y-433150D1*
Y-435650D1*
Y-438150D1*
Y-440650D1*
Y-443150D1*
Y-445650D1*
X-8150Y-448150D1*
X-8062Y-450650D1*
X-7734Y-453150D1*
X-7038Y-455650D1*
X-5941Y-458150D1*
X-4531Y-460650D1*
X-784Y-463150D1*
X4897Y-465650D1*
X11840Y-468150D1*
X9340Y-400650D2*
X11444Y-403150D1*
X13226Y-405650D1*
X14673Y-408150D1*
X15808Y-410650D1*
X16738Y-413150D1*
X17638Y-415650D1*
X18412Y-418150D1*
X18901Y-420650D1*
X19153Y-423150D1*
X19266Y-425650D1*
X19313Y-428150D1*
X19330Y-430650D1*
X19337Y-433150D1*
X19339Y-435650D1*
X19340Y-438150D1*
Y-440650D1*
X19330Y-443150D1*
X19242Y-445650D1*
X18924Y-448150D1*
X18315Y-450650D1*
X17586Y-453150D1*
X16822Y-455650D1*
X15855Y-458150D1*
X14667Y-460650D1*
X12056Y-463150D1*
X6193Y-465650D1*
X-660Y-468150D1*
X-35660Y-465650D2*
Y-468150D1*
Y-470650D1*
Y-473150D1*
X-30660Y-465650D2*
Y-468150D1*
Y-470650D1*
Y-473150D1*
X-121330Y-160107D2*
X-124588Y-162607D1*
X-127098Y-165107D1*
X-128986Y-167607D1*
X-130513Y-170107D1*
X-131788Y-172607D1*
X-132756Y-175107D1*
X-133333Y-177607D1*
X-133631Y-180107D1*
X-133846Y-182607D1*
X-134216Y-185107D1*
X-134834Y-187607D1*
X-135482Y-190107D1*
X-135921Y-192607D1*
X-136153Y-195107D1*
X-136260Y-197607D1*
X-136294Y-200107D1*
X-136223Y-202607D1*
X-135911Y-205107D1*
X-135314Y-207607D1*
X-134674Y-210107D1*
X-134238Y-212607D1*
X-133996Y-215107D1*
X-133802Y-217607D1*
X-133430Y-220107D1*
X-132727Y-222607D1*
X-131751Y-225107D1*
X-130607Y-227607D1*
X-129222Y-230107D1*
X-127286Y-232607D1*
X-124542Y-235107D1*
X-121330Y-237607D1*
X-108830Y-160107D2*
X-106425Y-162607D1*
X-104255Y-165107D1*
X-102452Y-167607D1*
X-101000Y-170107D1*
X-99863Y-172607D1*
X-98932Y-175107D1*
X-98032Y-177607D1*
X-97258Y-180107D1*
X-96769Y-182607D1*
X-96517Y-185107D1*
X-96404Y-187607D1*
X-96357Y-190107D1*
X-96340Y-192607D1*
X-96333Y-195107D1*
X-96331Y-197607D1*
X-96330Y-200107D1*
Y-202607D1*
Y-205107D1*
Y-207607D1*
Y-210107D1*
X-96340Y-212607D1*
X-96428Y-215107D1*
X-96756Y-217607D1*
X-97443Y-220107D1*
X-98412Y-222607D1*
X-99544Y-225107D1*
X-100843Y-227607D1*
X-102495Y-230107D1*
X-104812Y-232607D1*
X-107866Y-235107D1*
X-111330Y-237607D1*
X-73830Y-160107D2*
X-76320Y-162607D1*
X-78723Y-165107D1*
X-80816Y-167607D1*
X-82389Y-170107D1*
X-83552Y-172607D1*
X-84558Y-175107D1*
X-85366Y-177607D1*
X-85784Y-180107D1*
X-85723Y-182607D1*
X-85230Y-185107D1*
X-84549Y-187607D1*
X-83802Y-190107D1*
X-82880Y-192607D1*
X-81729Y-195107D1*
X-80323Y-197607D1*
X-78737Y-200107D1*
X-77132Y-202607D1*
X-75403Y-205107D1*
X-73391Y-207607D1*
X-71143Y-210107D1*
X-68756Y-212607D1*
X-66303Y-215107D1*
X-63830Y-217607D1*
X-61424Y-220107D1*
X-59245Y-222607D1*
X-57345Y-225107D1*
X-55493Y-227607D1*
X-53467Y-230107D1*
X-51330Y-232607D1*
X-58830Y-160107D2*
X-55271Y-162607D1*
X-52383Y-165107D1*
X-50217Y-167607D1*
X-48613Y-170107D1*
X-47499Y-172607D1*
X-46860Y-175107D1*
X-46534Y-177607D1*
X-46330Y-180107D1*
X3670Y-160107D2*
X412Y-162607D1*
X-2098Y-165107D1*
X-3986Y-167607D1*
X-5513Y-170107D1*
X-6788Y-172607D1*
X-7756Y-175107D1*
X-8333Y-177607D1*
X-8631Y-180107D1*
X-8846Y-182607D1*
X-9216Y-185107D1*
X-9834Y-187607D1*
X-10482Y-190107D1*
X-10921Y-192607D1*
X-11153Y-195107D1*
X-11260Y-197607D1*
X-11294Y-200107D1*
X-11223Y-202607D1*
X-10911Y-205107D1*
X-10314Y-207607D1*
X-9674Y-210107D1*
X-9238Y-212607D1*
X-8996Y-215107D1*
X-8802Y-217607D1*
X-8430Y-220107D1*
X-7727Y-222607D1*
X-6751Y-225107D1*
X-5607Y-227607D1*
X-4222Y-230107D1*
X-2286Y-232607D1*
X458Y-235107D1*
X3670Y-237607D1*
X16170Y-160107D2*
X18575Y-162607D1*
X20745Y-165107D1*
X22548Y-167607D1*
X24000Y-170107D1*
X25137Y-172607D1*
X26068Y-175107D1*
X26968Y-177607D1*
X27742Y-180107D1*
X28231Y-182607D1*
X28483Y-185107D1*
X28596Y-187607D1*
X28643Y-190107D1*
X28660Y-192607D1*
X28667Y-195107D1*
X28669Y-197607D1*
X28670Y-200107D1*
Y-202607D1*
Y-205107D1*
Y-207607D1*
Y-210107D1*
X28660Y-212607D1*
X28572Y-215107D1*
X28244Y-217607D1*
X27557Y-220107D1*
X26588Y-222607D1*
X25456Y-225107D1*
X24157Y-227607D1*
X22505Y-230107D1*
X20188Y-232607D1*
X17134Y-235107D1*
X13670Y-237607D1*
X-118830Y-165107D2*
X-121235Y-167607D1*
X-123405Y-170107D1*
X-125208Y-172607D1*
X-126650Y-175107D1*
X-127699Y-177607D1*
X-128311Y-180107D1*
X-128613Y-182607D1*
X-128746Y-185107D1*
X-128799Y-187607D1*
X-128819Y-190107D1*
X-128826Y-192607D1*
X-128829Y-195107D1*
X-128830Y-197607D1*
Y-200107D1*
Y-202607D1*
Y-205107D1*
Y-207607D1*
Y-210107D1*
X-128820Y-212607D1*
X-128732Y-215107D1*
X-128404Y-217607D1*
X-127708Y-220107D1*
X-126611Y-222607D1*
X-125201Y-225107D1*
X-121454Y-227607D1*
X-115773Y-230107D1*
X-108830Y-232607D1*
X-111330Y-165107D2*
X-109226Y-167607D1*
X-107444Y-170107D1*
X-105997Y-172607D1*
X-104862Y-175107D1*
X-103932Y-177607D1*
X-103032Y-180107D1*
X-102258Y-182607D1*
X-101769Y-185107D1*
X-101517Y-187607D1*
X-101404Y-190107D1*
X-101357Y-192607D1*
X-101340Y-195107D1*
X-101333Y-197607D1*
X-101331Y-200107D1*
X-101330Y-202607D1*
Y-205107D1*
X-101340Y-207607D1*
X-101428Y-210107D1*
X-101746Y-212607D1*
X-102355Y-215107D1*
X-103084Y-217607D1*
X-103848Y-220107D1*
X-104815Y-222607D1*
X-106003Y-225107D1*
X-108614Y-227607D1*
X-114477Y-230107D1*
X-121330Y-232607D1*
X-66330Y-165107D2*
X-70443Y-167607D1*
X-73687Y-170107D1*
X-75961Y-172607D1*
X-77665Y-175107D1*
X-78264Y-177607D1*
X-78579Y-180107D1*
X-78638Y-182607D1*
X-78369Y-185107D1*
X-77705Y-187607D1*
X-76744Y-190107D1*
X-75614Y-192607D1*
X-74326Y-195107D1*
X-72769Y-197607D1*
X-70838Y-200107D1*
X-68623Y-202607D1*
X-66249Y-205107D1*
X-63800Y-207607D1*
X-61319Y-210107D1*
X-58836Y-212607D1*
X-56426Y-215107D1*
X-54246Y-217607D1*
X-52355Y-220107D1*
X-50593Y-222607D1*
X-48936Y-225107D1*
X-47595Y-227607D1*
X-46536Y-230107D1*
X-45552Y-232607D1*
X-44643Y-235107D1*
X-43830Y-237607D1*
X-61330Y-165107D2*
X-58840Y-167607D1*
X-56437Y-170107D1*
X-54353Y-172607D1*
X-52859Y-175107D1*
X-51958Y-177607D1*
X-51330Y-180107D1*
X6170Y-165107D2*
X3765Y-167607D1*
X1595Y-170107D1*
X-208Y-172607D1*
X-1650Y-175107D1*
X-2699Y-177607D1*
X-3311Y-180107D1*
X-3613Y-182607D1*
X-3746Y-185107D1*
X-3799Y-187607D1*
X-3819Y-190107D1*
X-3826Y-192607D1*
X-3829Y-195107D1*
X-3830Y-197607D1*
Y-200107D1*
Y-202607D1*
Y-205107D1*
Y-207607D1*
Y-210107D1*
X-3820Y-212607D1*
X-3732Y-215107D1*
X-3404Y-217607D1*
X-2708Y-220107D1*
X-1611Y-222607D1*
X-201Y-225107D1*
X3546Y-227607D1*
X9227Y-230107D1*
X16170Y-232607D1*
X13670Y-165107D2*
X15774Y-167607D1*
X17556Y-170107D1*
X19003Y-172607D1*
X20138Y-175107D1*
X21068Y-177607D1*
X21968Y-180107D1*
X22742Y-182607D1*
X23231Y-185107D1*
X23483Y-187607D1*
X23596Y-190107D1*
X23643Y-192607D1*
X23660Y-195107D1*
X23667Y-197607D1*
X23669Y-200107D1*
X23670Y-202607D1*
Y-205107D1*
X23660Y-207607D1*
X23572Y-210107D1*
X23254Y-212607D1*
X22645Y-215107D1*
X21916Y-217607D1*
X21152Y-220107D1*
X20185Y-222607D1*
X18997Y-225107D1*
X16386Y-227607D1*
X10523Y-230107D1*
X3670Y-232607D1*
X-31330Y-230107D2*
Y-232607D1*
Y-235107D1*
Y-237607D1*
X-26330Y-230107D2*
Y-232607D1*
Y-235107D1*
Y-237607D1*
X-86330Y-232607D2*
Y-235107D1*
Y-237607D1*
X-602500Y-382503D2*
Y-385003D1*
Y-387503D1*
Y-390003D1*
Y-392503D1*
Y-395003D1*
Y-397503D1*
Y-400003D1*
Y-402503D1*
Y-405003D1*
Y-407503D1*
Y-410003D1*
Y-412503D1*
Y-415003D1*
Y-417503D1*
Y-420003D1*
Y-422503D1*
Y-425003D1*
Y-427503D1*
Y-430003D1*
Y-432503D1*
Y-435003D1*
X-612500D1*
Y-437503D1*
Y-440003D1*
Y-442503D1*
X-602500D1*
Y-445003D1*
Y-447503D1*
Y-450003D1*
Y-452503D1*
Y-455003D1*
Y-457503D1*
Y-460003D1*
X-597500Y-382503D2*
X-595950Y-385003D1*
X-594524Y-387503D1*
X-593185Y-390003D1*
X-591890Y-392503D1*
X-590545Y-395003D1*
X-589051Y-397503D1*
X-587438Y-400003D1*
X-585907Y-402503D1*
X-584501Y-405003D1*
X-583175Y-407503D1*
X-581895Y-410003D1*
X-580631Y-412503D1*
X-579378Y-415003D1*
X-578125Y-417503D1*
X-576867Y-420003D1*
X-575536Y-422503D1*
X-574057Y-425003D1*
X-572535Y-427503D1*
X-571333Y-430003D1*
X-570614Y-432503D1*
X-570257Y-435003D1*
X-570100Y-437503D1*
X-570035Y-440003D1*
X-570000Y-442503D1*
X-597500D1*
Y-445003D1*
Y-447503D1*
Y-450003D1*
Y-452503D1*
Y-455003D1*
Y-457503D1*
Y-460003D1*
X-547500Y-382503D2*
X-550758Y-385003D1*
X-553268Y-387503D1*
X-555156Y-390003D1*
X-556683Y-392503D1*
X-557958Y-395003D1*
X-558926Y-397503D1*
X-559503Y-400003D1*
X-559801Y-402503D1*
X-560016Y-405003D1*
X-560386Y-407503D1*
X-561004Y-410003D1*
X-561652Y-412503D1*
X-562091Y-415003D1*
X-562323Y-417503D1*
X-562430Y-420003D1*
X-562464Y-422503D1*
X-562393Y-425003D1*
X-562081Y-427503D1*
X-561484Y-430003D1*
X-560844Y-432503D1*
X-560408Y-435003D1*
X-560166Y-437503D1*
X-559972Y-440003D1*
X-559600Y-442503D1*
X-558897Y-445003D1*
X-557921Y-447503D1*
X-556777Y-450003D1*
X-555392Y-452503D1*
X-553456Y-455003D1*
X-550712Y-457503D1*
X-547500Y-460003D1*
X-535000Y-382503D2*
X-532595Y-385003D1*
X-530425Y-387503D1*
X-528622Y-390003D1*
X-527170Y-392503D1*
X-526033Y-395003D1*
X-525102Y-397503D1*
X-524202Y-400003D1*
X-523428Y-402503D1*
X-522939Y-405003D1*
X-522687Y-407503D1*
X-522574Y-410003D1*
X-522527Y-412503D1*
X-522510Y-415003D1*
X-522503Y-417503D1*
X-522501Y-420003D1*
X-522500Y-422503D1*
Y-425003D1*
Y-427503D1*
Y-430003D1*
Y-432503D1*
X-522510Y-435003D1*
X-522598Y-437503D1*
X-522926Y-440003D1*
X-523613Y-442503D1*
X-524582Y-445003D1*
X-525714Y-447503D1*
X-527013Y-450003D1*
X-528665Y-452503D1*
X-530982Y-455003D1*
X-534036Y-457503D1*
X-537500Y-460003D1*
X-472500Y-382503D2*
X-475758Y-385003D1*
X-478268Y-387503D1*
X-480156Y-390003D1*
X-481683Y-392503D1*
X-482958Y-395003D1*
X-483926Y-397503D1*
X-484503Y-400003D1*
X-484801Y-402503D1*
X-485016Y-405003D1*
X-485386Y-407503D1*
X-486004Y-410003D1*
X-486652Y-412503D1*
X-487091Y-415003D1*
X-487323Y-417503D1*
X-487430Y-420003D1*
X-487464Y-422503D1*
X-487393Y-425003D1*
X-487081Y-427503D1*
X-486484Y-430003D1*
X-485844Y-432503D1*
X-485408Y-435003D1*
X-485166Y-437503D1*
X-484972Y-440003D1*
X-484600Y-442503D1*
X-483897Y-445003D1*
X-482921Y-447503D1*
X-481777Y-450003D1*
X-480392Y-452503D1*
X-478456Y-455003D1*
X-475712Y-457503D1*
X-472500Y-460003D1*
X-460000Y-382503D2*
X-457595Y-385003D1*
X-455425Y-387503D1*
X-453622Y-390003D1*
X-452170Y-392503D1*
X-451033Y-395003D1*
X-450102Y-397503D1*
X-449202Y-400003D1*
X-448428Y-402503D1*
X-447939Y-405003D1*
X-447687Y-407503D1*
X-447574Y-410003D1*
X-447527Y-412503D1*
X-447510Y-415003D1*
X-447503Y-417503D1*
X-447501Y-420003D1*
X-447500Y-422503D1*
Y-425003D1*
Y-427503D1*
Y-430003D1*
Y-432503D1*
X-447510Y-435003D1*
X-447598Y-437503D1*
X-447926Y-440003D1*
X-448613Y-442503D1*
X-449582Y-445003D1*
X-450714Y-447503D1*
X-452013Y-450003D1*
X-453665Y-452503D1*
X-455982Y-455003D1*
X-459036Y-457503D1*
X-462500Y-460003D1*
X-545000Y-387503D2*
X-547405Y-390003D1*
X-549575Y-392503D1*
X-551378Y-395003D1*
X-552820Y-397503D1*
X-553869Y-400003D1*
X-554481Y-402503D1*
X-554783Y-405003D1*
X-554916Y-407503D1*
X-554969Y-410003D1*
X-554989Y-412503D1*
X-554996Y-415003D1*
X-554999Y-417503D1*
X-555000Y-420003D1*
Y-422503D1*
Y-425003D1*
Y-427503D1*
Y-430003D1*
Y-432503D1*
X-554990Y-435003D1*
X-554902Y-437503D1*
X-554574Y-440003D1*
X-553878Y-442503D1*
X-552781Y-445003D1*
X-551371Y-447503D1*
X-547624Y-450003D1*
X-541943Y-452503D1*
X-535000Y-455003D1*
X-537500Y-387503D2*
X-535396Y-390003D1*
X-533614Y-392503D1*
X-532167Y-395003D1*
X-531032Y-397503D1*
X-530102Y-400003D1*
X-529202Y-402503D1*
X-528428Y-405003D1*
X-527939Y-407503D1*
X-527687Y-410003D1*
X-527574Y-412503D1*
X-527527Y-415003D1*
X-527510Y-417503D1*
X-527503Y-420003D1*
X-527501Y-422503D1*
X-527500Y-425003D1*
Y-427503D1*
X-527510Y-430003D1*
X-527598Y-432503D1*
X-527916Y-435003D1*
X-528525Y-437503D1*
X-529254Y-440003D1*
X-530018Y-442503D1*
X-530985Y-445003D1*
X-532173Y-447503D1*
X-534784Y-450003D1*
X-540647Y-452503D1*
X-547500Y-455003D1*
X-470000Y-387503D2*
X-472405Y-390003D1*
X-474575Y-392503D1*
X-476378Y-395003D1*
X-477820Y-397503D1*
X-478869Y-400003D1*
X-479481Y-402503D1*
X-479783Y-405003D1*
X-479916Y-407503D1*
X-479969Y-410003D1*
X-479989Y-412503D1*
X-479996Y-415003D1*
X-479999Y-417503D1*
X-480000Y-420003D1*
Y-422503D1*
Y-425003D1*
Y-427503D1*
Y-430003D1*
Y-432503D1*
X-479990Y-435003D1*
X-479902Y-437503D1*
X-479574Y-440003D1*
X-478878Y-442503D1*
X-477781Y-445003D1*
X-476371Y-447503D1*
X-472624Y-450003D1*
X-466943Y-452503D1*
X-460000Y-455003D1*
X-462500Y-387503D2*
X-460396Y-390003D1*
X-458614Y-392503D1*
X-457167Y-395003D1*
X-456032Y-397503D1*
X-455102Y-400003D1*
X-454202Y-402503D1*
X-453428Y-405003D1*
X-452939Y-407503D1*
X-452687Y-410003D1*
X-452574Y-412503D1*
X-452527Y-415003D1*
X-452510Y-417503D1*
X-452503Y-420003D1*
X-452501Y-422503D1*
X-452500Y-425003D1*
Y-427503D1*
X-452510Y-430003D1*
X-452598Y-432503D1*
X-452916Y-435003D1*
X-453525Y-437503D1*
X-454254Y-440003D1*
X-455018Y-442503D1*
X-455985Y-445003D1*
X-457173Y-447503D1*
X-459784Y-450003D1*
X-465647Y-452503D1*
X-472500Y-455003D1*
X-597500Y-400003D2*
Y-402503D1*
Y-405003D1*
Y-407503D1*
Y-410003D1*
Y-412503D1*
Y-415003D1*
Y-417503D1*
Y-420003D1*
Y-422503D1*
Y-425003D1*
Y-427503D1*
Y-430003D1*
Y-432503D1*
X-577500Y-435003D1*
X-595000Y-400003D2*
X-592896Y-402503D1*
X-591104Y-405003D1*
X-589579Y-407503D1*
X-588204Y-410003D1*
X-586906Y-412503D1*
X-585635Y-415003D1*
X-584370Y-417503D1*
X-583037Y-420003D1*
X-581548Y-422503D1*
X-579930Y-425003D1*
X-578333Y-427503D1*
X-576707Y-430003D1*
X-575000Y-432503D1*
X-592500Y-435003D1*
X-507500Y-452503D2*
Y-455003D1*
Y-457503D1*
Y-460003D1*
X-502500Y-452503D2*
Y-455003D1*
Y-457503D1*
Y-460003D1*
X-593280Y532643D2*
X-596239Y530143D1*
X-598765Y527643D1*
X-600676Y525143D1*
X-601968Y522643D1*
X-602690Y520143D1*
X-603037Y517643D1*
X-603186Y515143D1*
X-603236Y512643D1*
X-603161Y510143D1*
X-602762Y507643D1*
X-601857Y505143D1*
X-600716Y502643D1*
X-599733Y500143D1*
X-600041Y497643D1*
X-601525Y495143D1*
X-603127Y492643D1*
X-604480Y490143D1*
X-605553Y487643D1*
X-606526Y485143D1*
X-607322Y482643D1*
X-607736Y480143D1*
X-607674Y477643D1*
X-607180Y475143D1*
X-606499Y472643D1*
X-605752Y470143D1*
X-604830Y467643D1*
X-603660Y465143D1*
X-602070Y462643D1*
X-599782Y460143D1*
X-596738Y457643D1*
X-593280Y455143D1*
X-580780Y532643D2*
X-577522Y530143D1*
X-575012Y527643D1*
X-573124Y525143D1*
X-571595Y522643D1*
X-570296Y520143D1*
X-569210Y517643D1*
X-568280Y515143D1*
X-545780Y532643D2*
Y530143D1*
Y527643D1*
Y525143D1*
Y522643D1*
Y520143D1*
Y517643D1*
Y515143D1*
Y512643D1*
Y510143D1*
Y507643D1*
Y505143D1*
Y502643D1*
Y500143D1*
Y497643D1*
Y495143D1*
Y492643D1*
Y490143D1*
Y487643D1*
Y485143D1*
Y482643D1*
Y480143D1*
Y477643D1*
Y475143D1*
Y472643D1*
Y470143D1*
Y467643D1*
Y465143D1*
Y462643D1*
Y460143D1*
Y457643D1*
Y455143D1*
X-540780Y532643D2*
X-539820Y530143D1*
X-538658Y527643D1*
X-537169Y525143D1*
X-535268Y522643D1*
X-533065Y520143D1*
X-530706Y517643D1*
X-528354Y515143D1*
X-526260Y512643D1*
X-524622Y510143D1*
X-523280Y507643D1*
X-468280Y532643D2*
X-471538Y530143D1*
X-474048Y527643D1*
X-475936Y525143D1*
X-477463Y522643D1*
X-478738Y520143D1*
X-479706Y517643D1*
X-480283Y515143D1*
X-480581Y512643D1*
X-480796Y510143D1*
X-481166Y507643D1*
X-481784Y505143D1*
X-482432Y502643D1*
X-482871Y500143D1*
X-483103Y497643D1*
X-483210Y495143D1*
X-483244Y492643D1*
X-483173Y490143D1*
X-482861Y487643D1*
X-482264Y485143D1*
X-481624Y482643D1*
X-481188Y480143D1*
X-480946Y477643D1*
X-480752Y475143D1*
X-480380Y472643D1*
X-479677Y470143D1*
X-478701Y467643D1*
X-477557Y465143D1*
X-476172Y462643D1*
X-474236Y460143D1*
X-471492Y457643D1*
X-468280Y455143D1*
X-455780Y532643D2*
X-453375Y530143D1*
X-451205Y527643D1*
X-449402Y525143D1*
X-447950Y522643D1*
X-446813Y520143D1*
X-445882Y517643D1*
X-444982Y515143D1*
X-444208Y512643D1*
X-443719Y510143D1*
X-443467Y507643D1*
X-443354Y505143D1*
X-443307Y502643D1*
X-443290Y500143D1*
X-443283Y497643D1*
X-443281Y495143D1*
X-443280Y492643D1*
Y490143D1*
Y487643D1*
Y485143D1*
Y482643D1*
X-443290Y480143D1*
X-443378Y477643D1*
X-443706Y475143D1*
X-444393Y472643D1*
X-445362Y470143D1*
X-446494Y467643D1*
X-447793Y465143D1*
X-449445Y462643D1*
X-451762Y460143D1*
X-454816Y457643D1*
X-458280Y455143D1*
X-590780Y527643D2*
X-593175Y525143D1*
X-595257Y522643D1*
X-596741Y520143D1*
X-597585Y517643D1*
X-597984Y515143D1*
X-598052Y512643D1*
X-597877Y510143D1*
X-596588Y507643D1*
X-593456Y505143D1*
X-589857Y502643D1*
X-586786Y500143D1*
X-584759Y497643D1*
X-583280Y495143D1*
X-589701Y492643D1*
X-594381Y490143D1*
X-597829Y487643D1*
X-599269Y485143D1*
X-600103Y482643D1*
X-600503Y480143D1*
X-600664Y477643D1*
X-600634Y475143D1*
X-600243Y472643D1*
X-599474Y470143D1*
X-597233Y467643D1*
X-593546Y465143D1*
X-587797Y462643D1*
X-580780Y460143D1*
X-583280Y527643D2*
X-580885Y525143D1*
X-578802Y522643D1*
X-577309Y520143D1*
X-576408Y517643D1*
X-575780Y515143D1*
X-465780Y527643D2*
X-468185Y525143D1*
X-470355Y522643D1*
X-472158Y520143D1*
X-473600Y517643D1*
X-474649Y515143D1*
X-475261Y512643D1*
X-475563Y510143D1*
X-475696Y507643D1*
X-475749Y505143D1*
X-475769Y502643D1*
X-475776Y500143D1*
X-475779Y497643D1*
X-475780Y495143D1*
Y492643D1*
Y490143D1*
Y487643D1*
Y485143D1*
Y482643D1*
X-475770Y480143D1*
X-475682Y477643D1*
X-475354Y475143D1*
X-474658Y472643D1*
X-473561Y470143D1*
X-472151Y467643D1*
X-468404Y465143D1*
X-462723Y462643D1*
X-455780Y460143D1*
X-458280Y527643D2*
X-456176Y525143D1*
X-454394Y522643D1*
X-452947Y520143D1*
X-451812Y517643D1*
X-450882Y515143D1*
X-449982Y512643D1*
X-449208Y510143D1*
X-448719Y507643D1*
X-448467Y505143D1*
X-448354Y502643D1*
X-448307Y500143D1*
X-448290Y497643D1*
X-448283Y495143D1*
X-448281Y492643D1*
X-448280Y490143D1*
Y487643D1*
X-448290Y485143D1*
X-448378Y482643D1*
X-448696Y480143D1*
X-449305Y477643D1*
X-450034Y475143D1*
X-450798Y472643D1*
X-451765Y470143D1*
X-452953Y467643D1*
X-455564Y465143D1*
X-461427Y462643D1*
X-468280Y460143D1*
X-538280Y515143D2*
Y512643D1*
Y510143D1*
Y507643D1*
Y505143D1*
Y502643D1*
Y500143D1*
Y497643D1*
Y495143D1*
Y492643D1*
Y490143D1*
Y487643D1*
Y485143D1*
Y482643D1*
Y480143D1*
Y477643D1*
Y475143D1*
Y472643D1*
Y470143D1*
Y467643D1*
Y465143D1*
Y462643D1*
Y460143D1*
Y457643D1*
Y455143D1*
X-535780Y515143D2*
X-533280Y512643D1*
X-530780Y510143D1*
X-528280Y507643D1*
X-573280Y475143D2*
X-574240Y472643D1*
X-575441Y470143D1*
X-576900Y467643D1*
X-580653Y465143D1*
X-586336Y462643D1*
X-593280Y460143D1*
X-568280Y475143D2*
X-568375Y472643D1*
X-568705Y470143D1*
X-569402Y467643D1*
X-570469Y465143D1*
X-572016Y462643D1*
X-574288Y460143D1*
X-577325Y457643D1*
X-580780Y455143D1*
X-503280Y462643D2*
Y460143D1*
Y457643D1*
Y455143D1*
X-498280Y462643D2*
Y460143D1*
Y457643D1*
Y455143D1*
X-610000Y-152503D2*
Y-155003D1*
Y-157503D1*
Y-160003D1*
X-582500D1*
Y-162503D1*
X-582490Y-165003D1*
X-582402Y-167503D1*
X-582103Y-170003D1*
X-581694Y-172503D1*
X-581442Y-175003D1*
X-582961Y-177503D1*
X-585000Y-180003D1*
X-580000Y-152503D2*
X-578846Y-155003D1*
X-578128Y-157503D1*
X-577765Y-160003D1*
X-577594Y-162503D1*
X-577441Y-165003D1*
X-577097Y-167503D1*
X-576490Y-170003D1*
X-575846Y-172503D1*
X-575408Y-175003D1*
X-575167Y-177503D1*
X-574973Y-180003D1*
X-574630Y-182503D1*
X-574204Y-185003D1*
X-573944Y-187503D1*
X-575462Y-190003D1*
X-577500Y-192503D1*
X-547500Y-152503D2*
X-550758Y-155003D1*
X-553268Y-157503D1*
X-555156Y-160003D1*
X-556683Y-162503D1*
X-557958Y-165003D1*
X-558926Y-167503D1*
X-559503Y-170003D1*
X-559801Y-172503D1*
X-560016Y-175003D1*
X-560386Y-177503D1*
X-561004Y-180003D1*
X-561652Y-182503D1*
X-562091Y-185003D1*
X-562323Y-187503D1*
X-562430Y-190003D1*
X-562464Y-192503D1*
X-562393Y-195003D1*
X-562081Y-197503D1*
X-561484Y-200003D1*
X-560844Y-202503D1*
X-560408Y-205003D1*
X-560166Y-207503D1*
X-559972Y-210003D1*
X-559600Y-212503D1*
X-558897Y-215003D1*
X-557921Y-217503D1*
X-556777Y-220003D1*
X-555392Y-222503D1*
X-553456Y-225003D1*
X-550712Y-227503D1*
X-547500Y-230003D1*
X-535000Y-152503D2*
X-532595Y-155003D1*
X-530425Y-157503D1*
X-528622Y-160003D1*
X-527170Y-162503D1*
X-526033Y-165003D1*
X-525102Y-167503D1*
X-524202Y-170003D1*
X-523428Y-172503D1*
X-522939Y-175003D1*
X-522687Y-177503D1*
X-522574Y-180003D1*
X-522527Y-182503D1*
X-522510Y-185003D1*
X-522503Y-187503D1*
X-522501Y-190003D1*
X-522500Y-192503D1*
Y-195003D1*
Y-197503D1*
Y-200003D1*
Y-202503D1*
X-522510Y-205003D1*
X-522598Y-207503D1*
X-522926Y-210003D1*
X-523613Y-212503D1*
X-524582Y-215003D1*
X-525714Y-217503D1*
X-527013Y-220003D1*
X-528665Y-222503D1*
X-530982Y-225003D1*
X-534036Y-227503D1*
X-537500Y-230003D1*
X-472500Y-152503D2*
X-475758Y-155003D1*
X-478268Y-157503D1*
X-480156Y-160003D1*
X-481683Y-162503D1*
X-482958Y-165003D1*
X-483926Y-167503D1*
X-484503Y-170003D1*
X-484801Y-172503D1*
X-485016Y-175003D1*
X-485386Y-177503D1*
X-486004Y-180003D1*
X-486652Y-182503D1*
X-487091Y-185003D1*
X-487323Y-187503D1*
X-487430Y-190003D1*
X-487464Y-192503D1*
X-487393Y-195003D1*
X-487081Y-197503D1*
X-486484Y-200003D1*
X-485844Y-202503D1*
X-485408Y-205003D1*
X-485166Y-207503D1*
X-484972Y-210003D1*
X-484600Y-212503D1*
X-483897Y-215003D1*
X-482921Y-217503D1*
X-481777Y-220003D1*
X-480392Y-222503D1*
X-478456Y-225003D1*
X-475712Y-227503D1*
X-472500Y-230003D1*
X-460000Y-152503D2*
X-457595Y-155003D1*
X-455425Y-157503D1*
X-453622Y-160003D1*
X-452170Y-162503D1*
X-451033Y-165003D1*
X-450102Y-167503D1*
X-449202Y-170003D1*
X-448428Y-172503D1*
X-447939Y-175003D1*
X-447687Y-177503D1*
X-447574Y-180003D1*
X-447527Y-182503D1*
X-447510Y-185003D1*
X-447503Y-187503D1*
X-447501Y-190003D1*
X-447500Y-192503D1*
Y-195003D1*
Y-197503D1*
Y-200003D1*
Y-202503D1*
X-447510Y-205003D1*
X-447598Y-207503D1*
X-447926Y-210003D1*
X-448613Y-212503D1*
X-449582Y-215003D1*
X-450714Y-217503D1*
X-452013Y-220003D1*
X-453665Y-222503D1*
X-455982Y-225003D1*
X-459036Y-227503D1*
X-462500Y-230003D1*
X-545000Y-157503D2*
X-547405Y-160003D1*
X-549575Y-162503D1*
X-551378Y-165003D1*
X-552820Y-167503D1*
X-553869Y-170003D1*
X-554481Y-172503D1*
X-554783Y-175003D1*
X-554916Y-177503D1*
X-554969Y-180003D1*
X-554989Y-182503D1*
X-554996Y-185003D1*
X-554999Y-187503D1*
X-555000Y-190003D1*
Y-192503D1*
Y-195003D1*
Y-197503D1*
Y-200003D1*
Y-202503D1*
X-554990Y-205003D1*
X-554902Y-207503D1*
X-554574Y-210003D1*
X-553878Y-212503D1*
X-552781Y-215003D1*
X-551371Y-217503D1*
X-547624Y-220003D1*
X-541943Y-222503D1*
X-535000Y-225003D1*
X-537500Y-157503D2*
X-535396Y-160003D1*
X-533614Y-162503D1*
X-532167Y-165003D1*
X-531032Y-167503D1*
X-530102Y-170003D1*
X-529202Y-172503D1*
X-528428Y-175003D1*
X-527939Y-177503D1*
X-527687Y-180003D1*
X-527574Y-182503D1*
X-527527Y-185003D1*
X-527510Y-187503D1*
X-527503Y-190003D1*
X-527501Y-192503D1*
X-527500Y-195003D1*
Y-197503D1*
X-527510Y-200003D1*
X-527598Y-202503D1*
X-527916Y-205003D1*
X-528525Y-207503D1*
X-529254Y-210003D1*
X-530018Y-212503D1*
X-530985Y-215003D1*
X-532173Y-217503D1*
X-534784Y-220003D1*
X-540647Y-222503D1*
X-547500Y-225003D1*
X-470000Y-157503D2*
X-472405Y-160003D1*
X-474575Y-162503D1*
X-476378Y-165003D1*
X-477820Y-167503D1*
X-478869Y-170003D1*
X-479481Y-172503D1*
X-479783Y-175003D1*
X-479916Y-177503D1*
X-479969Y-180003D1*
X-479989Y-182503D1*
X-479996Y-185003D1*
X-479999Y-187503D1*
X-480000Y-190003D1*
Y-192503D1*
Y-195003D1*
Y-197503D1*
Y-200003D1*
Y-202503D1*
X-479990Y-205003D1*
X-479902Y-207503D1*
X-479574Y-210003D1*
X-478878Y-212503D1*
X-477781Y-215003D1*
X-476371Y-217503D1*
X-472624Y-220003D1*
X-466943Y-222503D1*
X-460000Y-225003D1*
X-462500Y-157503D2*
X-460396Y-160003D1*
X-458614Y-162503D1*
X-457167Y-165003D1*
X-456032Y-167503D1*
X-455102Y-170003D1*
X-454202Y-172503D1*
X-453428Y-175003D1*
X-452939Y-177503D1*
X-452687Y-180003D1*
X-452574Y-182503D1*
X-452527Y-185003D1*
X-452510Y-187503D1*
X-452503Y-190003D1*
X-452501Y-192503D1*
X-452500Y-195003D1*
Y-197503D1*
X-452510Y-200003D1*
X-452598Y-202503D1*
X-452916Y-205003D1*
X-453525Y-207503D1*
X-454254Y-210003D1*
X-455018Y-212503D1*
X-455985Y-215003D1*
X-457173Y-217503D1*
X-459784Y-220003D1*
X-465647Y-222503D1*
X-472500Y-225003D1*
X-597500Y-177503D2*
X-601059Y-180003D1*
X-603947Y-182503D1*
X-606113Y-185003D1*
X-607727Y-187503D1*
X-608929Y-190003D1*
X-609884Y-192503D1*
X-610794Y-195003D1*
X-611570Y-197503D1*
X-612051Y-200003D1*
X-612215Y-202503D1*
X-612010Y-205003D1*
X-611457Y-207503D1*
X-610824Y-210003D1*
X-610297Y-212503D1*
X-609661Y-215003D1*
X-608629Y-217503D1*
X-607238Y-220003D1*
X-605633Y-222503D1*
X-603564Y-225003D1*
X-600753Y-227503D1*
X-597500Y-230003D1*
X-587500Y-177503D2*
X-585000Y-180003D1*
X-595000Y-182503D2*
X-597490Y-185003D1*
X-599893Y-187503D1*
X-601976Y-190003D1*
X-603461Y-192503D1*
X-604305Y-195003D1*
X-604713Y-197503D1*
X-604889Y-200003D1*
X-604960Y-202503D1*
X-604976Y-205003D1*
X-604898Y-207503D1*
X-604572Y-210003D1*
X-603877Y-212503D1*
X-602781Y-215003D1*
X-601371Y-217503D1*
X-597624Y-220003D1*
X-591943Y-222503D1*
X-585000Y-225003D1*
X-587500Y-182503D2*
X-585103Y-185003D1*
X-582991Y-187503D1*
X-581346Y-190003D1*
X-580000Y-192503D1*
X-577500Y-210003D2*
X-578460Y-212503D1*
X-579661Y-215003D1*
X-581120Y-217503D1*
X-584873Y-220003D1*
X-590556Y-222503D1*
X-597500Y-225003D1*
X-572500Y-210003D2*
X-572595Y-212503D1*
X-572925Y-215003D1*
X-573622Y-217503D1*
X-574689Y-220003D1*
X-576236Y-222503D1*
X-578508Y-225003D1*
X-581545Y-227503D1*
X-585000Y-230003D1*
X-507500Y-222503D2*
Y-225003D1*
Y-227503D1*
Y-230003D1*
X-502500Y-222503D2*
Y-225003D1*
Y-227503D1*
Y-230003D1*
X-22747Y-2643147D2*
X-25237Y-2645647D1*
X-27639Y-2648147D1*
X-29733Y-2650647D1*
X-31306Y-2653147D1*
X-32468Y-2655647D1*
X-33475Y-2658147D1*
X-34282Y-2660647D1*
X-34701Y-2663147D1*
X-34640Y-2665647D1*
X-34147Y-2668147D1*
X-33465Y-2670647D1*
X-32719Y-2673147D1*
X-31797Y-2675647D1*
X-30646Y-2678147D1*
X-29239Y-2680647D1*
X-27654Y-2683147D1*
X-26048Y-2685647D1*
X-24319Y-2688147D1*
X-22308Y-2690647D1*
X-20060Y-2693147D1*
X-17673Y-2695647D1*
X-15219Y-2698147D1*
X-12747Y-2700647D1*
X-10341Y-2703147D1*
X-8162Y-2705647D1*
X-6262Y-2708147D1*
X-4409Y-2710647D1*
X-2383Y-2713147D1*
X-247Y-2715647D1*
X-7747Y-2643147D2*
X-4188Y-2645647D1*
X-1300Y-2648147D1*
X866Y-2650647D1*
X2470Y-2653147D1*
X3585Y-2655647D1*
X4223Y-2658147D1*
X4550Y-2660647D1*
X4753Y-2663147D1*
X29753Y-2643147D2*
X26795Y-2645647D1*
X24268Y-2648147D1*
X22358Y-2650647D1*
X21066Y-2653147D1*
X20344Y-2655647D1*
X19997Y-2658147D1*
X19847Y-2660647D1*
X19797Y-2663147D1*
X19873Y-2665647D1*
X20271Y-2668147D1*
X21176Y-2670647D1*
X22317Y-2673147D1*
X23301Y-2675647D1*
X22993Y-2678147D1*
X21508Y-2680647D1*
X19906Y-2683147D1*
X18554Y-2685647D1*
X17480Y-2688147D1*
X16507Y-2690647D1*
X15712Y-2693147D1*
X15297Y-2695647D1*
X15359Y-2698147D1*
X15853Y-2700647D1*
X16535Y-2703147D1*
X17281Y-2705647D1*
X18203Y-2708147D1*
X19374Y-2710647D1*
X20963Y-2713147D1*
X23252Y-2715647D1*
X26296Y-2718147D1*
X29753Y-2720647D1*
X42253Y-2643147D2*
X45511Y-2645647D1*
X48022Y-2648147D1*
X49909Y-2650647D1*
X51438Y-2653147D1*
X52737Y-2655647D1*
X53823Y-2658147D1*
X54753Y-2660647D1*
X79753Y-2643147D2*
X76495Y-2645647D1*
X73985Y-2648147D1*
X72097Y-2650647D1*
X70571Y-2653147D1*
X69295Y-2655647D1*
X68327Y-2658147D1*
X67750Y-2660647D1*
X67452Y-2663147D1*
X67237Y-2665647D1*
X66867Y-2668147D1*
X66249Y-2670647D1*
X65601Y-2673147D1*
X65163Y-2675647D1*
X64930Y-2678147D1*
X64824Y-2680647D1*
X64789Y-2683147D1*
X64860Y-2685647D1*
X65173Y-2688147D1*
X65769Y-2690647D1*
X66410Y-2693147D1*
X66845Y-2695647D1*
X67087Y-2698147D1*
X67281Y-2700647D1*
X67653Y-2703147D1*
X68357Y-2705647D1*
X69332Y-2708147D1*
X70476Y-2710647D1*
X71861Y-2713147D1*
X73798Y-2715647D1*
X76541Y-2718147D1*
X79753Y-2720647D1*
X92253Y-2643147D2*
X94658Y-2645647D1*
X96828Y-2648147D1*
X98631Y-2650647D1*
X100083Y-2653147D1*
X101220Y-2655647D1*
X102151Y-2658147D1*
X103052Y-2660647D1*
X103825Y-2663147D1*
X104314Y-2665647D1*
X104566Y-2668147D1*
X104679Y-2670647D1*
X104726Y-2673147D1*
X104744Y-2675647D1*
X104750Y-2678147D1*
X104752Y-2680647D1*
X104753Y-2683147D1*
Y-2685647D1*
Y-2688147D1*
Y-2690647D1*
Y-2693147D1*
X104744Y-2695647D1*
X104656Y-2698147D1*
X104327Y-2700647D1*
X103641Y-2703147D1*
X102671Y-2705647D1*
X101539Y-2708147D1*
X100240Y-2710647D1*
X98588Y-2713147D1*
X96272Y-2715647D1*
X93217Y-2718147D1*
X89753Y-2720647D1*
X127253Y-2643147D2*
X124763Y-2645647D1*
X122361Y-2648147D1*
X120267Y-2650647D1*
X118694Y-2653147D1*
X117532Y-2655647D1*
X116525Y-2658147D1*
X115718Y-2660647D1*
X115299Y-2663147D1*
X115360Y-2665647D1*
X115853Y-2668147D1*
X116535Y-2670647D1*
X117281Y-2673147D1*
X118203Y-2675647D1*
X119354Y-2678147D1*
X120761Y-2680647D1*
X122346Y-2683147D1*
X123952Y-2685647D1*
X125681Y-2688147D1*
X127692Y-2690647D1*
X129940Y-2693147D1*
X132327Y-2695647D1*
X134781Y-2698147D1*
X137253Y-2700647D1*
X139659Y-2703147D1*
X141838Y-2705647D1*
X143738Y-2708147D1*
X145591Y-2710647D1*
X147617Y-2713147D1*
X149753Y-2715647D1*
X142253Y-2643147D2*
X145812Y-2645647D1*
X148700Y-2648147D1*
X150866Y-2650647D1*
X152470Y-2653147D1*
X153585Y-2655647D1*
X154223Y-2658147D1*
X154550Y-2660647D1*
X154753Y-2663147D1*
X179753Y-2643147D2*
X176495Y-2645647D1*
X173985Y-2648147D1*
X172097Y-2650647D1*
X170571Y-2653147D1*
X169295Y-2655647D1*
X168327Y-2658147D1*
X167760Y-2660647D1*
X167560Y-2663147D1*
X167751Y-2665647D1*
X168308Y-2668147D1*
X169027Y-2670647D1*
X169873Y-2673147D1*
X171137Y-2675647D1*
X173088Y-2678147D1*
X175996Y-2680647D1*
X180040Y-2683147D1*
X184753Y-2685647D1*
X182349Y-2688147D1*
X180179Y-2690647D1*
X178366Y-2693147D1*
X176835Y-2695647D1*
X175458Y-2698147D1*
X174149Y-2700647D1*
X172800Y-2703147D1*
X171305Y-2705647D1*
X169692Y-2708147D1*
X168160Y-2710647D1*
X166747Y-2713147D1*
X165355Y-2715647D1*
X163864Y-2718147D1*
X162253Y-2720647D1*
X217253Y-2643147D2*
Y-2645647D1*
Y-2648147D1*
Y-2650647D1*
Y-2653147D1*
Y-2655647D1*
Y-2658147D1*
Y-2660647D1*
Y-2663147D1*
Y-2665647D1*
Y-2668147D1*
Y-2670647D1*
Y-2673147D1*
Y-2675647D1*
Y-2678147D1*
Y-2680647D1*
Y-2683147D1*
Y-2685647D1*
Y-2688147D1*
Y-2690647D1*
Y-2693147D1*
Y-2695647D1*
Y-2698147D1*
Y-2700647D1*
Y-2703147D1*
Y-2705647D1*
Y-2708147D1*
Y-2710647D1*
Y-2713147D1*
Y-2715647D1*
Y-2718147D1*
Y-2720647D1*
X247253Y-2643147D2*
X243609Y-2645647D1*
X240479Y-2648147D1*
X237944Y-2650647D1*
X235969Y-2653147D1*
X234366Y-2655647D1*
X232899Y-2658147D1*
X231379Y-2660647D1*
X229753Y-2663147D1*
X234753Y-2665647D1*
X262253Y-2643147D2*
X266752Y-2645647D1*
X270626Y-2648147D1*
X273635Y-2650647D1*
X275855Y-2653147D1*
X277561Y-2655647D1*
X278998Y-2658147D1*
X280236Y-2660647D1*
X281198Y-2663147D1*
X281857Y-2665647D1*
X282462Y-2668147D1*
X283187Y-2670647D1*
X283879Y-2673147D1*
X284335Y-2675647D1*
X284574Y-2678147D1*
X284682Y-2680647D1*
X284717Y-2683147D1*
X284646Y-2685647D1*
X284334Y-2688147D1*
X283737Y-2690647D1*
X283087Y-2693147D1*
X282564Y-2695647D1*
X282003Y-2698147D1*
X281211Y-2700647D1*
X280198Y-2703147D1*
X279048Y-2705647D1*
X277753Y-2708147D1*
X276184Y-2710647D1*
X274156Y-2713147D1*
X271555Y-2715647D1*
X268332Y-2718147D1*
X264753Y-2720647D1*
X-15247Y-2648147D2*
X-19359Y-2650647D1*
X-22604Y-2653147D1*
X-24878Y-2655647D1*
X-26582Y-2658147D1*
X-27181Y-2660647D1*
X-27496Y-2663147D1*
X-27554Y-2665647D1*
X-27286Y-2668147D1*
X-26622Y-2670647D1*
X-25660Y-2673147D1*
X-24531Y-2675647D1*
X-23243Y-2678147D1*
X-21686Y-2680647D1*
X-19754Y-2683147D1*
X-17539Y-2685647D1*
X-15166Y-2688147D1*
X-12717Y-2690647D1*
X-10236Y-2693147D1*
X-7753Y-2695647D1*
X-5343Y-2698147D1*
X-3163Y-2700647D1*
X-1271Y-2703147D1*
X490Y-2705647D1*
X2147Y-2708147D1*
X3488Y-2710647D1*
X4547Y-2713147D1*
X5531Y-2715647D1*
X6441Y-2718147D1*
X7253Y-2720647D1*
X-10247Y-2648147D2*
X-7756Y-2650647D1*
X-5354Y-2653147D1*
X-3270Y-2655647D1*
X-1776Y-2658147D1*
X-875Y-2660647D1*
X-247Y-2663147D1*
X32253Y-2648147D2*
X29858Y-2650647D1*
X27776Y-2653147D1*
X26292Y-2655647D1*
X25448Y-2658147D1*
X25050Y-2660647D1*
X24981Y-2663147D1*
X25156Y-2665647D1*
X26445Y-2668147D1*
X29577Y-2670647D1*
X33177Y-2673147D1*
X36247Y-2675647D1*
X38274Y-2678147D1*
X39753Y-2680647D1*
X33333Y-2683147D1*
X28652Y-2685647D1*
X25204Y-2688147D1*
X23764Y-2690647D1*
X22931Y-2693147D1*
X22530Y-2695647D1*
X22369Y-2698147D1*
X22399Y-2700647D1*
X22790Y-2703147D1*
X23559Y-2705647D1*
X25800Y-2708147D1*
X29488Y-2710647D1*
X35237Y-2713147D1*
X42253Y-2715647D1*
X39753Y-2648147D2*
X42148Y-2650647D1*
X44231Y-2653147D1*
X45724Y-2655647D1*
X46625Y-2658147D1*
X47253Y-2660647D1*
X82253Y-2648147D2*
X79849Y-2650647D1*
X77679Y-2653147D1*
X75876Y-2655647D1*
X74433Y-2658147D1*
X73384Y-2660647D1*
X72772Y-2663147D1*
X72470Y-2665647D1*
X72338Y-2668147D1*
X72284Y-2670647D1*
X72264Y-2673147D1*
X72257Y-2675647D1*
X72255Y-2678147D1*
X72254Y-2680647D1*
X72253Y-2683147D1*
Y-2685647D1*
Y-2688147D1*
Y-2690647D1*
Y-2693147D1*
X72263Y-2695647D1*
X72351Y-2698147D1*
X72679Y-2700647D1*
X73376Y-2703147D1*
X74472Y-2705647D1*
X75882Y-2708147D1*
X79630Y-2710647D1*
X85310Y-2713147D1*
X92253Y-2715647D1*
X89753Y-2648147D2*
X91857Y-2650647D1*
X93640Y-2653147D1*
X95086Y-2655647D1*
X96221Y-2658147D1*
X97151Y-2660647D1*
X98052Y-2663147D1*
X98825Y-2665647D1*
X99314Y-2668147D1*
X99566Y-2670647D1*
X99679Y-2673147D1*
X99726Y-2675647D1*
X99744Y-2678147D1*
X99750Y-2680647D1*
X99752Y-2683147D1*
X99753Y-2685647D1*
Y-2688147D1*
X99744Y-2690647D1*
X99656Y-2693147D1*
X99337Y-2695647D1*
X98729Y-2698147D1*
X98000Y-2700647D1*
X97235Y-2703147D1*
X96268Y-2705647D1*
X95080Y-2708147D1*
X92469Y-2710647D1*
X86606Y-2713147D1*
X79753Y-2715647D1*
X134753Y-2648147D2*
X130641Y-2650647D1*
X127396Y-2653147D1*
X125122Y-2655647D1*
X123418Y-2658147D1*
X122819Y-2660647D1*
X122504Y-2663147D1*
X122446Y-2665647D1*
X122714Y-2668147D1*
X123378Y-2670647D1*
X124340Y-2673147D1*
X125469Y-2675647D1*
X126757Y-2678147D1*
X128314Y-2680647D1*
X130246Y-2683147D1*
X132461Y-2685647D1*
X134834Y-2688147D1*
X137283Y-2690647D1*
X139764Y-2693147D1*
X142247Y-2695647D1*
X144657Y-2698147D1*
X146837Y-2700647D1*
X148729Y-2703147D1*
X150490Y-2705647D1*
X152147Y-2708147D1*
X153488Y-2710647D1*
X154547Y-2713147D1*
X155531Y-2715647D1*
X156441Y-2718147D1*
X157253Y-2720647D1*
X139753Y-2648147D2*
X142244Y-2650647D1*
X144646Y-2653147D1*
X146730Y-2655647D1*
X148224Y-2658147D1*
X149125Y-2660647D1*
X149753Y-2663147D1*
X187253Y-2648147D2*
X183141Y-2650647D1*
X179896Y-2653147D1*
X177622Y-2655647D1*
X175918Y-2658147D1*
X175319Y-2660647D1*
X175004Y-2663147D1*
X174955Y-2665647D1*
X175312Y-2668147D1*
X176063Y-2670647D1*
X178209Y-2673147D1*
X185221Y-2675647D1*
X197107Y-2678147D1*
X212253Y-2680647D1*
Y-2648147D2*
Y-2650647D1*
Y-2653147D1*
Y-2655647D1*
Y-2658147D1*
Y-2660647D1*
Y-2663147D1*
Y-2665647D1*
Y-2668147D1*
Y-2670647D1*
Y-2673147D1*
Y-2675647D1*
Y-2678147D1*
X184753Y-2680647D1*
X252253Y-2648147D2*
X248131Y-2650647D1*
X244798Y-2653147D1*
X242206Y-2655647D1*
X240154Y-2658147D1*
X238717Y-2660647D1*
X237854Y-2663147D1*
X237253Y-2665647D1*
X257253Y-2648147D2*
X261752Y-2650647D1*
X265626Y-2653147D1*
X268635Y-2655647D1*
X270855Y-2658147D1*
X272561Y-2660647D1*
X273998Y-2663147D1*
X275236Y-2665647D1*
X276188Y-2668147D1*
X276759Y-2670647D1*
X277046Y-2673147D1*
X277172Y-2675647D1*
X277223Y-2678147D1*
X277243Y-2680647D1*
X277250Y-2683147D1*
X277252Y-2685647D1*
X277243Y-2688147D1*
X277156Y-2690647D1*
X276827Y-2693147D1*
X276141Y-2695647D1*
X275171Y-2698147D1*
X274039Y-2700647D1*
X272740Y-2703147D1*
X271036Y-2705647D1*
X268834Y-2708147D1*
X263216Y-2710647D1*
X254859Y-2713147D1*
X244753Y-2715647D1*
X194753Y-2685647D2*
X192263Y-2688147D1*
X189851Y-2690647D1*
X187679Y-2693147D1*
X185866Y-2695647D1*
X184326Y-2698147D1*
X182870Y-2700647D1*
X181331Y-2703147D1*
X179701Y-2705647D1*
X178164Y-2708147D1*
X176756Y-2710647D1*
X175436Y-2713147D1*
X174221Y-2715647D1*
X173167Y-2718147D1*
X172253Y-2720647D1*
X212253Y-2685647D2*
Y-2688147D1*
Y-2690647D1*
Y-2693147D1*
Y-2695647D1*
Y-2698147D1*
Y-2700647D1*
Y-2703147D1*
Y-2705647D1*
Y-2708147D1*
Y-2710647D1*
Y-2713147D1*
Y-2715647D1*
Y-2718147D1*
Y-2720647D1*
X232253Y-2693147D2*
X231195Y-2695647D1*
X230547Y-2698147D1*
X231066Y-2700647D1*
X231923Y-2703147D1*
X233002Y-2705647D1*
X234269Y-2708147D1*
X235828Y-2710647D1*
X237852Y-2713147D1*
X240452Y-2715647D1*
X243675Y-2718147D1*
X247253Y-2720647D1*
X234753Y-2693147D2*
X235618Y-2695647D1*
X236459Y-2698147D1*
X237350Y-2700647D1*
X238610Y-2703147D1*
X240425Y-2705647D1*
X243038Y-2708147D1*
X247311Y-2710647D1*
X254018Y-2713147D1*
X262253Y-2715647D1*
X49753Y-2700647D2*
X48794Y-2703147D1*
X47592Y-2705647D1*
X46133Y-2708147D1*
X42381Y-2710647D1*
X36698Y-2713147D1*
X29753Y-2715647D1*
X54753Y-2700647D2*
X54658Y-2703147D1*
X54328Y-2705647D1*
X53631Y-2708147D1*
X52564Y-2710647D1*
X51018Y-2713147D1*
X48746Y-2715647D1*
X45708Y-2718147D1*
X42253Y-2720647D1*
X-35247Y-2715647D2*
Y-2718147D1*
Y-2720647D1*
X114753Y-2715647D2*
Y-2718147D1*
Y-2720647D1*
X-6970Y-4243020D2*
X-10228Y-4245520D1*
X-12728Y-4248020D1*
X-14538Y-4250520D1*
X-15834Y-4253020D1*
X-16830Y-4255520D1*
X-17745Y-4258020D1*
X-18439Y-4260520D1*
X-18818Y-4263020D1*
X-18214Y-4265520D1*
X-17230Y-4268020D1*
X-15815Y-4270520D1*
X-13945Y-4273020D1*
X-11768Y-4275520D1*
X-9470Y-4278020D1*
X-13019Y-4280520D1*
X-15829Y-4283020D1*
X-17764Y-4285520D1*
X-19088Y-4288020D1*
X-20160Y-4290520D1*
X-21002Y-4293020D1*
X-21507Y-4295520D1*
X-21680Y-4298020D1*
X-21478Y-4300520D1*
X-20917Y-4303020D1*
X-20197Y-4305520D1*
X-19351Y-4308020D1*
X-18097Y-4310520D1*
X-16240Y-4313020D1*
X-13719Y-4315520D1*
X-10529Y-4318020D1*
X-6970Y-4320520D1*
X5530Y-4243020D2*
X8020Y-4245520D1*
X10423Y-4248020D1*
X12506Y-4250520D1*
X13991Y-4253020D1*
X14835Y-4255520D1*
X15243Y-4258020D1*
X15419Y-4260520D1*
X15480Y-4263020D1*
X15408Y-4265520D1*
X15002Y-4268020D1*
X13990Y-4270520D1*
X12338Y-4273020D1*
X10265Y-4275520D1*
X8030Y-4278020D1*
X11288Y-4280520D1*
X13788Y-4283020D1*
X15588Y-4285520D1*
X16797Y-4288020D1*
X17473Y-4290520D1*
X17800Y-4293020D1*
X17941Y-4295520D1*
X17997Y-4298020D1*
X18009Y-4300520D1*
X17928Y-4303020D1*
X17603Y-4305520D1*
X16907Y-4308020D1*
X15840Y-4310520D1*
X14294Y-4313020D1*
X12022Y-4315520D1*
X8985Y-4318020D1*
X5530Y-4320520D1*
X33030Y-4243020D2*
Y-4245520D1*
Y-4248020D1*
Y-4250520D1*
Y-4253020D1*
Y-4255520D1*
Y-4258020D1*
Y-4260520D1*
Y-4263020D1*
Y-4265520D1*
Y-4268020D1*
Y-4270520D1*
Y-4273020D1*
Y-4275520D1*
Y-4278020D1*
Y-4280520D1*
Y-4283020D1*
Y-4285520D1*
Y-4288020D1*
Y-4290520D1*
Y-4293020D1*
X33040Y-4295520D1*
X33128Y-4298020D1*
X33446Y-4300520D1*
X34055Y-4303020D1*
X34793Y-4305520D1*
X35646Y-4308020D1*
X36902Y-4310520D1*
X38760Y-4313020D1*
X41281Y-4315520D1*
X44471Y-4318020D1*
X48030Y-4320520D1*
X38030Y-4243020D2*
Y-4245520D1*
Y-4248020D1*
Y-4250520D1*
Y-4253020D1*
Y-4255520D1*
Y-4258020D1*
Y-4260520D1*
Y-4263020D1*
Y-4265520D1*
Y-4268020D1*
Y-4270520D1*
Y-4273020D1*
Y-4275520D1*
Y-4278020D1*
Y-4280520D1*
Y-4283020D1*
Y-4285520D1*
Y-4288020D1*
X38040Y-4290520D1*
X38128Y-4293020D1*
X38446Y-4295520D1*
X39055Y-4298020D1*
X39784Y-4300520D1*
X40558Y-4303020D1*
X41642Y-4305520D1*
X43123Y-4308020D1*
X48437Y-4310520D1*
X57150Y-4313020D1*
X68030Y-4315520D1*
X75530Y-4243020D2*
Y-4245520D1*
Y-4248020D1*
Y-4250520D1*
Y-4253020D1*
Y-4255520D1*
Y-4258020D1*
Y-4260520D1*
Y-4263020D1*
Y-4265520D1*
Y-4268020D1*
Y-4270520D1*
Y-4273020D1*
Y-4275520D1*
Y-4278020D1*
Y-4280520D1*
Y-4283020D1*
Y-4285520D1*
X75520Y-4288020D1*
X75432Y-4290520D1*
X75114Y-4293020D1*
X74515Y-4295520D1*
X73864Y-4298020D1*
X73331Y-4300520D1*
X72682Y-4303020D1*
X71771Y-4305520D1*
X69787Y-4308020D1*
X64944Y-4310520D1*
X57388Y-4313020D1*
X48030Y-4315520D1*
X80530Y-4243020D2*
Y-4245520D1*
Y-4248020D1*
Y-4250520D1*
Y-4253020D1*
Y-4255520D1*
Y-4258020D1*
Y-4260520D1*
Y-4263020D1*
Y-4265520D1*
Y-4268020D1*
Y-4270520D1*
Y-4273020D1*
Y-4275520D1*
Y-4278020D1*
Y-4280520D1*
Y-4283020D1*
Y-4285520D1*
Y-4288020D1*
Y-4290520D1*
X80520Y-4293020D1*
X80432Y-4295520D1*
X80114Y-4298020D1*
X79505Y-4300520D1*
X78776Y-4303020D1*
X78012Y-4305520D1*
X77084Y-4308020D1*
X75911Y-4310520D1*
X74321Y-4313020D1*
X72032Y-4315520D1*
X68988Y-4318020D1*
X65530Y-4320520D1*
X-4470Y-4248020D2*
X-6865Y-4250520D1*
X-8947Y-4253020D1*
X-10431Y-4255520D1*
X-11275Y-4258020D1*
X-11674Y-4260520D1*
X-11752Y-4263020D1*
X-11606Y-4265520D1*
X-10503Y-4268020D1*
X-6934Y-4270520D1*
X-1352Y-4273020D1*
X5530Y-4275520D1*
X3030Y-4248020D2*
X5134Y-4250520D1*
X6916Y-4253020D1*
X8353Y-4255520D1*
X9390Y-4258020D1*
X9914Y-4260520D1*
X9887Y-4263020D1*
X9284Y-4265520D1*
X8295Y-4268020D1*
X5726Y-4270520D1*
X-126Y-4273020D1*
X-6970Y-4275520D1*
X-4470Y-4280520D2*
X-6960Y-4283020D1*
X-9363Y-4285520D1*
X-11446Y-4288020D1*
X-12931Y-4290520D1*
X-13775Y-4293020D1*
X-14183Y-4295520D1*
X-14350Y-4298020D1*
X-14332Y-4300520D1*
X-14020Y-4303020D1*
X-13196Y-4305520D1*
X-11910Y-4308020D1*
X-7493Y-4310520D1*
X-526Y-4313020D1*
X8030Y-4315520D1*
X3030Y-4280520D2*
X5435Y-4283020D1*
X7605Y-4285520D1*
X9408Y-4288020D1*
X10850Y-4290520D1*
X11899Y-4293020D1*
X12502Y-4295520D1*
X12716Y-4298020D1*
X12520Y-4300520D1*
X11876Y-4303020D1*
X10800Y-4305520D1*
X9399Y-4308020D1*
X5653Y-4310520D1*
X-27Y-4313020D1*
X-6970Y-4315520D1*
X-335899Y-822277D2*
D12*
Y-826087D1*
Y-829897D1*
Y-833707D1*
Y-837517D1*
Y-841327D1*
Y-845137D1*
Y-848947D1*
Y-852757D1*
Y-856567D1*
Y-860377D1*
Y-864187D1*
Y-867997D1*
Y-871807D1*
Y-875617D1*
Y-879427D1*
Y-883237D1*
X-335914Y-887047D1*
X-336063Y-890857D1*
X-336420Y-894667D1*
X-338124Y-898477D1*
X-343569Y-902287D1*
X-352080Y-906097D1*
X-362569Y-909907D1*
X-305419Y-822277D2*
Y-826087D1*
Y-829897D1*
Y-833707D1*
Y-837517D1*
Y-841327D1*
Y-845137D1*
Y-848947D1*
Y-852757D1*
Y-856567D1*
Y-860377D1*
Y-864187D1*
Y-867997D1*
Y-871807D1*
Y-875617D1*
Y-879427D1*
Y-883237D1*
Y-887047D1*
X-305434Y-890857D1*
X-305568Y-894667D1*
X-306053Y-898477D1*
X-306981Y-902287D1*
X-308091Y-906097D1*
X-309256Y-909907D1*
X-310671Y-913717D1*
X-312444Y-917527D1*
X-314722Y-921337D1*
X-317655Y-925147D1*
X-321304Y-928957D1*
X-326093Y-932767D1*
X-332426Y-936577D1*
X-339709Y-940387D1*
X-179689Y-822277D2*
Y-826087D1*
Y-829897D1*
Y-833707D1*
Y-837517D1*
Y-841327D1*
Y-845137D1*
Y-848947D1*
Y-852757D1*
Y-856567D1*
Y-860377D1*
Y-864187D1*
Y-867997D1*
Y-871807D1*
Y-875617D1*
Y-879427D1*
Y-883237D1*
Y-887047D1*
Y-890857D1*
Y-894667D1*
Y-898477D1*
Y-902287D1*
Y-906097D1*
Y-909907D1*
Y-913717D1*
Y-917527D1*
Y-921337D1*
Y-925147D1*
Y-928957D1*
Y-932767D1*
Y-936577D1*
Y-940387D1*
X-149209Y-822277D2*
Y-826087D1*
Y-829897D1*
Y-833707D1*
Y-837517D1*
Y-841327D1*
Y-845137D1*
Y-848947D1*
Y-852757D1*
Y-856567D1*
Y-860377D1*
Y-864187D1*
Y-867997D1*
Y-871807D1*
Y-875617D1*
Y-879427D1*
Y-883237D1*
Y-887047D1*
Y-890857D1*
Y-894667D1*
Y-898477D1*
Y-902287D1*
Y-906097D1*
Y-909907D1*
Y-913717D1*
Y-917527D1*
Y-921337D1*
Y-925147D1*
Y-928957D1*
Y-932767D1*
Y-936577D1*
Y-940387D1*
X-8239Y-822277D2*
Y-826087D1*
Y-829897D1*
Y-833707D1*
Y-837517D1*
Y-841327D1*
Y-845137D1*
Y-848947D1*
Y-852757D1*
Y-856567D1*
X-23479D1*
Y-860377D1*
Y-864187D1*
Y-867997D1*
Y-871807D1*
Y-875617D1*
Y-879427D1*
Y-883237D1*
Y-887047D1*
Y-890857D1*
X-8239D1*
X-8429Y-894667D1*
X-8879Y-898477D1*
X-11579Y-902287D1*
X-15376Y-906097D1*
X-18991Y-909907D1*
X-21774Y-913717D1*
X-22674Y-917527D1*
X-23145Y-921337D1*
X-23351Y-925147D1*
X-23433Y-928957D1*
X-23463Y-932767D1*
X-23474Y-936577D1*
X-23479Y-940387D1*
X22241Y-822277D2*
Y-826087D1*
Y-829897D1*
Y-833707D1*
Y-837517D1*
Y-841327D1*
Y-845137D1*
Y-848947D1*
Y-852757D1*
Y-856567D1*
Y-860377D1*
Y-864187D1*
Y-867997D1*
Y-871807D1*
Y-875617D1*
Y-879427D1*
Y-883237D1*
Y-887047D1*
Y-890857D1*
Y-894667D1*
X22226Y-898477D1*
X22092Y-902287D1*
X21592Y-906097D1*
X20545Y-909907D1*
X19068Y-913717D1*
X17342Y-917527D1*
X15363Y-921337D1*
X12841Y-925147D1*
X9264Y-928957D1*
X4356Y-932767D1*
X-1691Y-936577D1*
X-8239Y-940387D1*
X87011Y-822277D2*
Y-826087D1*
Y-829897D1*
Y-833707D1*
Y-837517D1*
Y-841327D1*
Y-845137D1*
Y-848947D1*
Y-852757D1*
Y-856567D1*
Y-860377D1*
Y-864187D1*
X86996Y-867997D1*
X86851Y-871807D1*
X86262Y-875617D1*
X84960Y-879427D1*
X83201Y-883237D1*
X117491Y-822277D2*
Y-826087D1*
Y-829897D1*
Y-833707D1*
Y-837517D1*
Y-841327D1*
Y-845137D1*
Y-848947D1*
Y-852757D1*
Y-856567D1*
Y-860377D1*
Y-864187D1*
Y-867997D1*
Y-871807D1*
Y-875617D1*
Y-879427D1*
Y-883237D1*
Y-887047D1*
Y-890857D1*
Y-894667D1*
Y-898477D1*
Y-902287D1*
Y-906097D1*
Y-909907D1*
Y-913717D1*
Y-917527D1*
Y-921337D1*
Y-925147D1*
Y-928957D1*
Y-932767D1*
Y-936577D1*
Y-940387D1*
X239411Y-822277D2*
Y-826087D1*
Y-829897D1*
Y-833707D1*
Y-837517D1*
X239441Y-841327D1*
X239724Y-845137D1*
X240393Y-848947D1*
X243176Y-852757D1*
X246612Y-856567D1*
X249851Y-860377D1*
X252205Y-864187D1*
X253551Y-867997D1*
X254231Y-871807D1*
X254651Y-875617D1*
X239411D1*
Y-879427D1*
Y-883237D1*
Y-887047D1*
Y-890857D1*
Y-894667D1*
Y-898477D1*
Y-902287D1*
Y-906097D1*
Y-909907D1*
X254651D1*
Y-913717D1*
Y-917527D1*
Y-921337D1*
Y-925147D1*
Y-928957D1*
Y-932767D1*
Y-936577D1*
Y-940387D1*
Y-822277D2*
X260220Y-826087D1*
X265124Y-829897D1*
X269473Y-833707D1*
X273395Y-837517D1*
X276804Y-841327D1*
X279590Y-845137D1*
X281802Y-848947D1*
X283406Y-852757D1*
X284340Y-856567D1*
X284801Y-860377D1*
X285003Y-864187D1*
X285084Y-867997D1*
X285114Y-871807D1*
X285125Y-875617D1*
X285129Y-879427D1*
X285131Y-883237D1*
Y-887047D1*
Y-890857D1*
Y-894667D1*
Y-898477D1*
Y-902287D1*
Y-906097D1*
Y-909907D1*
Y-913717D1*
Y-917527D1*
Y-921337D1*
Y-925147D1*
Y-928957D1*
Y-932767D1*
Y-936577D1*
Y-940387D1*
X-785479Y-856567D2*
X-791033Y-860377D1*
X-795803Y-864187D1*
X-799666Y-867997D1*
X-802660Y-871807D1*
X-804959Y-875617D1*
X-806595Y-879427D1*
X-807542Y-883237D1*
X-808006Y-887047D1*
X-808210Y-890857D1*
X-808291Y-894667D1*
X-808322Y-898477D1*
X-808333Y-902287D1*
X-808337Y-906097D1*
X-808338Y-909907D1*
X-808339Y-913717D1*
Y-917527D1*
Y-921337D1*
Y-925147D1*
Y-928957D1*
Y-932767D1*
Y-936577D1*
Y-940387D1*
X-766429Y-856567D2*
X-751665Y-860377D1*
X-735949Y-864187D1*
X-732139Y-856567D2*
X-746903Y-860377D1*
X-762619Y-864187D1*
X-713089Y-856567D2*
X-706806Y-860377D1*
X-701728Y-864187D1*
X-697777Y-867997D1*
X-694650Y-871807D1*
X-692473Y-875617D1*
X-691242Y-879427D1*
X-690647Y-883237D1*
X-690390Y-887047D1*
X-690288Y-890857D1*
X-690250Y-894667D1*
X-690236Y-898477D1*
X-690231Y-902287D1*
X-690230Y-906097D1*
X-690229Y-909907D1*
Y-913717D1*
Y-917527D1*
Y-921337D1*
Y-925147D1*
Y-928957D1*
Y-932767D1*
Y-936577D1*
Y-940387D1*
X-640699Y-856567D2*
X-647570Y-860377D1*
X-653593Y-864187D1*
X-658545Y-867997D1*
X-662474Y-871807D1*
X-665490Y-875617D1*
X-667795Y-879427D1*
X-669434Y-883237D1*
X-670381Y-887047D1*
X-670846Y-890857D1*
X-671050Y-894667D1*
X-671131Y-898477D1*
X-671147Y-902287D1*
X-671024Y-906097D1*
X-670528Y-909907D1*
X-669468Y-913717D1*
X-667857Y-917527D1*
X-665631Y-921337D1*
X-662605Y-925147D1*
X-658622Y-928957D1*
X-653480Y-932767D1*
X-647317Y-936577D1*
X-640699Y-940387D1*
X-614029Y-856567D2*
X-607158Y-860377D1*
X-601134Y-864187D1*
X-596182Y-867997D1*
X-592254Y-871807D1*
X-589238Y-875617D1*
X-586917Y-879427D1*
X-585145Y-883237D1*
X-583712Y-887047D1*
X-582349Y-890857D1*
X-581303Y-894667D1*
X-580731Y-898477D1*
X-581508Y-902287D1*
X-582504Y-906097D1*
X-583613Y-909907D1*
X-585005Y-913717D1*
X-586769Y-917527D1*
X-589059Y-921337D1*
X-592109Y-925147D1*
X-596101Y-928957D1*
X-601246Y-932767D1*
X-607410Y-936577D1*
X-614029Y-940387D1*
X-537829Y-856567D2*
X-544685Y-860377D1*
X-550589Y-864187D1*
X-555175Y-867997D1*
X-558557Y-871807D1*
X-561170Y-875617D1*
X-563474Y-879427D1*
X-565818Y-883237D1*
X-568309Y-887047D1*
X-511159Y-856567D2*
X-504288Y-860377D1*
X-498264Y-864187D1*
X-493312Y-867997D1*
X-489384Y-871807D1*
X-486368Y-875617D1*
X-484062Y-879427D1*
X-482424Y-883237D1*
X-481476Y-887047D1*
X-481011Y-890857D1*
X-480808Y-894667D1*
X-480726Y-898477D1*
X-480710Y-902287D1*
X-480833Y-906097D1*
X-481330Y-909907D1*
X-482390Y-913717D1*
X-484001Y-917527D1*
X-486227Y-921337D1*
X-489253Y-925147D1*
X-493236Y-928957D1*
X-498378Y-932767D1*
X-504541Y-936577D1*
X-511159Y-940387D1*
X-366379Y-856567D2*
X-372521Y-860377D1*
X-378236Y-864187D1*
X-383086Y-867997D1*
X-386763Y-871807D1*
X-389549Y-875617D1*
X-391832Y-879427D1*
X-393758Y-883237D1*
X-395226Y-887047D1*
X-396103Y-890857D1*
X-396541Y-894667D1*
X-396720Y-898477D1*
X-396664Y-902287D1*
X-396193Y-906097D1*
X-395158Y-909907D1*
X-393684Y-913717D1*
X-391945Y-917527D1*
X-389846Y-921337D1*
X-386973Y-925147D1*
X-382971Y-928957D1*
X-378021Y-932767D1*
X-372386Y-936577D1*
X-366379Y-940387D1*
X-343519Y-856567D2*
Y-860377D1*
Y-864187D1*
Y-867997D1*
Y-871807D1*
Y-875617D1*
Y-879427D1*
Y-883237D1*
Y-887047D1*
X-353600Y-890857D1*
X-361341Y-894667D1*
X-364152Y-898477D1*
X-365307Y-902287D1*
X-354923Y-906097D1*
X-343519Y-909907D1*
X-255889Y-856567D2*
X-262745Y-860377D1*
X-268649Y-864187D1*
X-273235Y-867997D1*
X-276617Y-871807D1*
X-279218Y-875617D1*
X-281408Y-879427D1*
X-283294Y-883237D1*
X-284745Y-887047D1*
X-285616Y-890857D1*
X-286052Y-894667D1*
X-286245Y-898477D1*
X-286323Y-902287D1*
X-286353Y-906097D1*
X-286363Y-909907D1*
X-286367Y-913717D1*
X-286368Y-917527D1*
X-286369Y-921337D1*
Y-925147D1*
Y-928957D1*
Y-932767D1*
Y-936577D1*
Y-940387D1*
X-229219Y-856567D2*
X-222348Y-860377D1*
X-216324Y-864187D1*
X-211372Y-867997D1*
X-207444Y-871807D1*
X-204428Y-875617D1*
X-202122Y-879427D1*
X-200484Y-883237D1*
X-199536Y-887047D1*
X-199071Y-890857D1*
X-198868Y-894667D1*
X-198786Y-898477D1*
X-198770Y-902287D1*
X-198893Y-906097D1*
X-199390Y-909907D1*
X-200450Y-913717D1*
X-202061Y-917527D1*
X-204287Y-921337D1*
X-207313Y-925147D1*
X-211296Y-928957D1*
X-216438Y-932767D1*
X-222601Y-936577D1*
X-229219Y-940387D1*
X-95869Y-856567D2*
X-102725Y-860377D1*
X-108629Y-864187D1*
X-113215Y-867997D1*
X-116597Y-871807D1*
X-119198Y-875617D1*
X-121388Y-879427D1*
X-123274Y-883237D1*
X-124725Y-887047D1*
X-125596Y-890857D1*
X-126032Y-894667D1*
X-126225Y-898477D1*
X-126303Y-902287D1*
X-126333Y-906097D1*
X-126343Y-909907D1*
X-126347Y-913717D1*
X-126348Y-917527D1*
X-126349Y-921337D1*
Y-925147D1*
Y-928957D1*
Y-932767D1*
Y-936577D1*
Y-940387D1*
X-69199Y-856567D2*
X-62328Y-860377D1*
X-56304Y-864187D1*
X-51352Y-867997D1*
X-47424Y-871807D1*
X-44408Y-875617D1*
X-42102Y-879427D1*
X-40464Y-883237D1*
X-39516Y-887047D1*
X-39051Y-890857D1*
X-38848Y-894667D1*
X-38766Y-898477D1*
X-38750Y-902287D1*
X-38873Y-906097D1*
X-39370Y-909907D1*
X-40430Y-913717D1*
X-42041Y-917527D1*
X-44267Y-921337D1*
X-47293Y-925147D1*
X-51276Y-928957D1*
X-56418Y-932767D1*
X-62581Y-936577D1*
X-69199Y-940387D1*
X37481Y-856567D2*
X39844Y-860377D1*
X42016Y-864187D1*
X44057Y-867997D1*
X46016Y-871807D1*
X47932Y-875617D1*
X49694Y-879427D1*
X50971Y-883237D1*
X51679Y-887047D1*
X50799Y-890857D1*
X49447Y-894667D1*
X47797Y-898477D1*
X46007Y-902287D1*
X44263Y-906097D1*
X42735Y-909907D1*
X41384Y-913717D1*
X39909Y-917527D1*
X38241Y-921337D1*
X36453Y-925147D1*
X34605Y-928957D1*
X32820Y-932767D1*
X31240Y-936577D1*
X29861Y-940387D1*
X67961Y-856567D2*
X70324Y-860377D1*
X72496Y-864187D1*
X74537Y-867997D1*
X76508Y-871807D1*
X78538Y-875617D1*
X80770Y-879427D1*
X83201Y-883237D1*
X167021Y-856567D2*
X160165Y-860377D1*
X154261Y-864187D1*
X149675Y-867997D1*
X146293Y-871807D1*
X143692Y-875617D1*
X141502Y-879427D1*
X139616Y-883237D1*
X138165Y-887047D1*
X137294Y-890857D1*
X136857Y-894667D1*
X136657Y-898477D1*
X136541Y-902287D1*
X193691Y-856567D2*
X200562Y-860377D1*
X206586Y-864187D1*
X211538Y-867997D1*
X215466Y-871807D1*
X218482Y-875617D1*
X220788Y-879427D1*
X222426Y-883237D1*
X223374Y-887047D1*
X223839Y-890857D1*
X224042Y-894667D1*
X224124Y-898477D1*
X224140Y-902287D1*
X224017Y-906097D1*
X223520Y-909907D1*
X222460Y-913717D1*
X220849Y-917527D1*
X218623Y-921337D1*
X215597Y-925147D1*
X211614Y-928957D1*
X206472Y-932767D1*
X200309Y-936577D1*
X193691Y-940387D1*
X334661Y-856567D2*
X327805Y-860377D1*
X321901Y-864187D1*
X317315Y-867997D1*
X313933Y-871807D1*
X311332Y-875617D1*
X309142Y-879427D1*
X307256Y-883237D1*
X305805Y-887047D1*
X304934Y-890857D1*
X304497Y-894667D1*
X304297Y-898477D1*
X304181Y-902287D1*
X361331Y-856567D2*
X368202Y-860377D1*
X374226Y-864187D1*
X379178Y-867997D1*
X383106Y-871807D1*
X386122Y-875617D1*
X388428Y-879427D1*
X390066Y-883237D1*
X391014Y-887047D1*
X391479Y-890857D1*
X391682Y-894667D1*
X391764Y-898477D1*
X391780Y-902287D1*
X391657Y-906097D1*
X391160Y-909907D1*
X390100Y-913717D1*
X388489Y-917527D1*
X386263Y-921337D1*
X383237Y-925147D1*
X379254Y-928957D1*
X374112Y-932767D1*
X367949Y-936577D1*
X361331Y-940387D1*
X479441Y-856567D2*
Y-860377D1*
Y-864187D1*
Y-867997D1*
Y-871807D1*
Y-875617D1*
Y-879427D1*
Y-883237D1*
Y-887047D1*
Y-890857D1*
Y-894667D1*
Y-898477D1*
Y-902287D1*
X479456Y-906097D1*
X479590Y-909907D1*
X480076Y-913717D1*
X481003Y-917527D1*
X482129Y-921337D1*
X483428Y-925147D1*
X485343Y-928957D1*
X488173Y-932767D1*
X492016Y-936577D1*
X496877Y-940387D1*
X502301Y-944197D1*
X509921Y-856567D2*
Y-860377D1*
Y-864187D1*
Y-867997D1*
Y-871807D1*
Y-875617D1*
Y-879427D1*
Y-883237D1*
Y-887047D1*
Y-890857D1*
Y-894667D1*
X509951Y-898477D1*
X510241Y-902287D1*
X510933Y-906097D1*
X513902Y-909907D1*
X517541Y-913717D1*
X525161Y-856567D2*
Y-860377D1*
Y-864187D1*
Y-867997D1*
Y-871807D1*
Y-875617D1*
Y-879427D1*
Y-883237D1*
Y-887047D1*
Y-890857D1*
X525146Y-894667D1*
X524968Y-898477D1*
X524521Y-902287D1*
X522166Y-906097D1*
X516500Y-909907D1*
X509921Y-913717D1*
X555641Y-856567D2*
Y-860377D1*
Y-864187D1*
Y-867997D1*
Y-871807D1*
Y-875617D1*
Y-879427D1*
Y-883237D1*
Y-887047D1*
Y-890857D1*
Y-894667D1*
X555671Y-898477D1*
X555961Y-902287D1*
X556653Y-906097D1*
X559622Y-909907D1*
X563261Y-913717D1*
X567071Y-856567D2*
Y-860377D1*
Y-864187D1*
Y-867997D1*
Y-871807D1*
Y-875617D1*
Y-879427D1*
Y-883237D1*
Y-887047D1*
Y-890857D1*
Y-894667D1*
X567041Y-898477D1*
X566751Y-902287D1*
X566059Y-906097D1*
X563090Y-909907D1*
X559451Y-913717D1*
X597551Y-856567D2*
Y-860377D1*
Y-864187D1*
Y-867997D1*
Y-871807D1*
Y-875617D1*
Y-879427D1*
Y-883237D1*
Y-887047D1*
Y-890857D1*
Y-894667D1*
Y-898477D1*
Y-902287D1*
Y-906097D1*
X597536Y-909907D1*
X597402Y-913717D1*
X596902Y-917527D1*
X595841Y-921337D1*
X594229Y-925147D1*
X592003Y-928957D1*
X588981Y-932767D1*
X585043Y-936577D1*
X580140Y-940387D1*
X574691Y-944197D1*
X620411Y-856567D2*
Y-860377D1*
Y-864187D1*
Y-867997D1*
Y-871807D1*
Y-875617D1*
Y-879427D1*
Y-883237D1*
Y-887047D1*
Y-890857D1*
Y-894667D1*
Y-898477D1*
Y-902287D1*
X620426Y-906097D1*
X620560Y-909907D1*
X621046Y-913717D1*
X621973Y-917527D1*
X623099Y-921337D1*
X624398Y-925147D1*
X626313Y-928957D1*
X629143Y-932767D1*
X632986Y-936577D1*
X637847Y-940387D1*
X643271Y-944197D1*
X650891Y-856567D2*
Y-860377D1*
Y-864187D1*
Y-867997D1*
Y-871807D1*
Y-875617D1*
Y-879427D1*
Y-883237D1*
Y-887047D1*
Y-890857D1*
Y-894667D1*
X650921Y-898477D1*
X651211Y-902287D1*
X651903Y-906097D1*
X654872Y-909907D1*
X658511Y-913717D1*
X666131Y-856567D2*
Y-860377D1*
Y-864187D1*
Y-867997D1*
Y-871807D1*
Y-875617D1*
Y-879427D1*
Y-883237D1*
Y-887047D1*
Y-890857D1*
X666116Y-894667D1*
X665938Y-898477D1*
X665491Y-902287D1*
X663136Y-906097D1*
X657470Y-909907D1*
X650891Y-913717D1*
X696611Y-856567D2*
Y-860377D1*
Y-864187D1*
Y-867997D1*
Y-871807D1*
Y-875617D1*
Y-879427D1*
Y-883237D1*
Y-887047D1*
Y-890857D1*
Y-894667D1*
X696641Y-898477D1*
X696931Y-902287D1*
X697623Y-906097D1*
X700592Y-909907D1*
X704231Y-913717D1*
X708041Y-856567D2*
Y-860377D1*
Y-864187D1*
Y-867997D1*
Y-871807D1*
Y-875617D1*
Y-879427D1*
Y-883237D1*
Y-887047D1*
Y-890857D1*
Y-894667D1*
X708011Y-898477D1*
X707721Y-902287D1*
X707029Y-906097D1*
X704060Y-909907D1*
X700421Y-913717D1*
X738521Y-856567D2*
Y-860377D1*
Y-864187D1*
Y-867997D1*
Y-871807D1*
Y-875617D1*
Y-879427D1*
Y-883237D1*
Y-887047D1*
Y-890857D1*
Y-894667D1*
Y-898477D1*
Y-902287D1*
Y-906097D1*
X738506Y-909907D1*
X738372Y-913717D1*
X737872Y-917527D1*
X736811Y-921337D1*
X735199Y-925147D1*
X732973Y-928957D1*
X729951Y-932767D1*
X726013Y-936577D1*
X721110Y-940387D1*
X715661Y-944197D1*
X761381Y-856567D2*
Y-860377D1*
Y-864187D1*
Y-867997D1*
Y-871807D1*
Y-875617D1*
Y-879427D1*
Y-883237D1*
Y-887047D1*
Y-890857D1*
Y-894667D1*
Y-898477D1*
Y-902287D1*
X761396Y-906097D1*
X761530Y-909907D1*
X762016Y-913717D1*
X762943Y-917527D1*
X764069Y-921337D1*
X765368Y-925147D1*
X767283Y-928957D1*
X770113Y-932767D1*
X773956Y-936577D1*
X778817Y-940387D1*
X784241Y-944197D1*
X791861Y-856567D2*
Y-860377D1*
Y-864187D1*
Y-867997D1*
Y-871807D1*
Y-875617D1*
Y-879427D1*
Y-883237D1*
Y-887047D1*
Y-890857D1*
Y-894667D1*
X791891Y-898477D1*
X792181Y-902287D1*
X792873Y-906097D1*
X795842Y-909907D1*
X799481Y-913717D1*
X807101Y-856567D2*
Y-860377D1*
Y-864187D1*
Y-867997D1*
Y-871807D1*
Y-875617D1*
Y-879427D1*
Y-883237D1*
Y-887047D1*
Y-890857D1*
X807086Y-894667D1*
X806908Y-898477D1*
X806461Y-902287D1*
X804106Y-906097D1*
X798440Y-909907D1*
X791861Y-913717D1*
X837581Y-856567D2*
Y-860377D1*
Y-864187D1*
Y-867997D1*
Y-871807D1*
Y-875617D1*
Y-879427D1*
Y-883237D1*
Y-887047D1*
Y-890857D1*
Y-894667D1*
X837611Y-898477D1*
X837901Y-902287D1*
X838593Y-906097D1*
X841562Y-909907D1*
X845201Y-913717D1*
X849011Y-856567D2*
Y-860377D1*
Y-864187D1*
Y-867997D1*
Y-871807D1*
Y-875617D1*
Y-879427D1*
Y-883237D1*
Y-887047D1*
Y-890857D1*
Y-894667D1*
X848981Y-898477D1*
X848691Y-902287D1*
X847999Y-906097D1*
X845030Y-909907D1*
X841391Y-913717D1*
X879491Y-856567D2*
Y-860377D1*
Y-864187D1*
Y-867997D1*
Y-871807D1*
Y-875617D1*
Y-879427D1*
Y-883237D1*
Y-887047D1*
Y-890857D1*
Y-894667D1*
Y-898477D1*
Y-902287D1*
Y-906097D1*
X879476Y-909907D1*
X879342Y-913717D1*
X878842Y-917527D1*
X877781Y-921337D1*
X876169Y-925147D1*
X873943Y-928957D1*
X870921Y-932767D1*
X866983Y-936577D1*
X862080Y-940387D1*
X856631Y-944197D1*
X174641Y-879427D2*
X170831Y-883237D1*
X167021Y-887047D1*
X186071Y-890857D1*
Y-894667D1*
Y-898477D1*
Y-902287D1*
X182261Y-879427D2*
X185911Y-883237D1*
X189084Y-887047D1*
X191346Y-890857D1*
X192633Y-894667D1*
X193239Y-898477D1*
X193285Y-902287D1*
X192839Y-906097D1*
X189387Y-909907D1*
X181389Y-913717D1*
X173105Y-917527D1*
X166349Y-921337D1*
X161428Y-925147D1*
X157547Y-928957D1*
X158753Y-932767D1*
X162558Y-936577D1*
X167021Y-940387D1*
X342281Y-879427D2*
X338471Y-883237D1*
X334661Y-887047D1*
X353711Y-890857D1*
Y-894667D1*
Y-898477D1*
Y-902287D1*
X349901Y-879427D2*
X353551Y-883237D1*
X356724Y-887047D1*
X358986Y-890857D1*
X360273Y-894667D1*
X360879Y-898477D1*
X360939Y-902287D1*
X360539Y-906097D1*
X357313Y-909907D1*
X348684Y-913717D1*
X338471Y-917527D1*
X-777859Y-887047D2*
Y-890857D1*
Y-894667D1*
Y-898477D1*
Y-902287D1*
Y-906097D1*
Y-909907D1*
Y-913717D1*
Y-917527D1*
Y-921337D1*
Y-925147D1*
Y-928957D1*
Y-932767D1*
Y-936577D1*
Y-940387D1*
X-770239Y-887047D2*
X-767178Y-890857D1*
X-764949Y-894667D1*
X-763673Y-898477D1*
X-763055Y-902287D1*
X-762787Y-906097D1*
X-762680Y-909907D1*
X-762640Y-913717D1*
X-762626Y-917527D1*
X-762621Y-921337D1*
X-762620Y-925147D1*
X-762619Y-928957D1*
Y-932767D1*
Y-936577D1*
Y-940387D1*
X-732139Y-887047D2*
Y-890857D1*
Y-894667D1*
Y-898477D1*
Y-902287D1*
Y-906097D1*
Y-909907D1*
Y-913717D1*
Y-917527D1*
Y-921337D1*
Y-925147D1*
Y-928957D1*
Y-932767D1*
Y-936577D1*
Y-940387D1*
X-720709Y-887047D2*
Y-890857D1*
Y-894667D1*
Y-898477D1*
Y-902287D1*
Y-906097D1*
Y-909907D1*
Y-913717D1*
Y-917527D1*
Y-921337D1*
Y-925147D1*
Y-928957D1*
Y-932767D1*
Y-936577D1*
Y-940387D1*
X-633079Y-887047D2*
X-636125Y-890857D1*
X-638656Y-894667D1*
X-639143Y-898477D1*
X-638035Y-902287D1*
X-628548Y-906097D1*
X-617839Y-909907D1*
X-621649Y-887047D2*
X-618602Y-890857D1*
X-616071Y-894667D1*
X-615585Y-898477D1*
X-616693Y-902287D1*
X-626180Y-906097D1*
X-636889Y-909907D1*
X-518779Y-887047D2*
X-515732Y-890857D1*
X-513201Y-894667D1*
X-512715Y-898477D1*
X-513823Y-902287D1*
X-523310Y-906097D1*
X-534019Y-909907D1*
X-248269Y-887047D2*
X-251330Y-890857D1*
X-253558Y-894667D1*
X-254834Y-898477D1*
X-255453Y-902287D1*
X-255721Y-906097D1*
X-255827Y-909907D1*
X-255867Y-913717D1*
X-255881Y-917527D1*
X-255886Y-921337D1*
X-255888Y-925147D1*
X-255889Y-928957D1*
Y-932767D1*
Y-936577D1*
Y-940387D1*
X-236839Y-887047D2*
X-233792Y-890857D1*
X-231261Y-894667D1*
X-230715Y-898477D1*
X-232824Y-902287D1*
X-237869Y-906097D1*
X-242506Y-909907D1*
X-246070Y-913717D1*
X-247229Y-917527D1*
X-247837Y-921337D1*
X-248104Y-925147D1*
X-248209Y-928957D1*
X-248248Y-932767D1*
X-248262Y-936577D1*
X-248269Y-940387D1*
X-88249Y-887047D2*
X-91310Y-890857D1*
X-93538Y-894667D1*
X-94814Y-898477D1*
X-95433Y-902287D1*
X-95701Y-906097D1*
X-95807Y-909907D1*
X-95847Y-913717D1*
X-95861Y-917527D1*
X-95866Y-921337D1*
X-95868Y-925147D1*
X-95869Y-928957D1*
Y-932767D1*
Y-936577D1*
Y-940387D1*
X-76819Y-887047D2*
X-73772Y-890857D1*
X-71241Y-894667D1*
X-70695Y-898477D1*
X-72804Y-902287D1*
X-77849Y-906097D1*
X-82486Y-909907D1*
X-86050Y-913717D1*
X-87209Y-917527D1*
X-87817Y-921337D1*
X-88084Y-925147D1*
X-88189Y-928957D1*
X-88228Y-932767D1*
X-88242Y-936577D1*
X-88249Y-940387D1*
X79391Y-890857D2*
X78802Y-894667D1*
X77843Y-898477D1*
X76723Y-902287D1*
X75570Y-906097D1*
X74288Y-909907D1*
X73016Y-913717D1*
X71799Y-917527D1*
X70492Y-921337D1*
X69210Y-925147D1*
X67987Y-928957D1*
X66662Y-932767D1*
X65350Y-936577D1*
X64151Y-940387D1*
X87011Y-890857D2*
Y-894667D1*
Y-898477D1*
Y-902287D1*
Y-906097D1*
Y-909907D1*
Y-913717D1*
Y-917527D1*
Y-921337D1*
Y-925147D1*
Y-928957D1*
Y-932767D1*
Y-936577D1*
Y-940387D1*
X-568309Y-902287D2*
X-567705Y-906097D1*
X-566627Y-909907D1*
X-565140Y-913717D1*
X-563411Y-917527D1*
X-561431Y-921337D1*
X-558909Y-925147D1*
X-555331Y-928957D1*
X-550423Y-932767D1*
X-544376Y-936577D1*
X-537829Y-940387D1*
Y-902287D2*
X-526875Y-906097D1*
X-514969Y-909907D1*
X-446389Y-902287D2*
X-450039Y-906097D1*
X-453212Y-909907D1*
X-455474Y-913717D1*
X-456745Y-917527D1*
X-457218Y-921337D1*
X-457196Y-925147D1*
X-455498Y-928957D1*
X-452954Y-932767D1*
X-449794Y-936577D1*
X-446389Y-940387D1*
X-431149Y-902287D2*
X-427043Y-906097D1*
X-423909Y-909907D1*
X-421816Y-913717D1*
X-420657Y-917527D1*
X-420119Y-921337D1*
X-420046Y-925147D1*
X-420329Y-928957D1*
X-422217Y-932767D1*
X-426393Y-936577D1*
X-431149Y-940387D1*
X426101Y-902287D2*
X422451Y-906097D1*
X419278Y-909907D1*
X417016Y-913717D1*
X415745Y-917527D1*
X415272Y-921337D1*
X415294Y-925147D1*
X416992Y-928957D1*
X419536Y-932767D1*
X422696Y-936577D1*
X426101Y-940387D1*
X441341Y-902287D2*
X445447Y-906097D1*
X448581Y-909907D1*
X450674Y-913717D1*
X451833Y-917527D1*
X452371Y-921337D1*
X452444Y-925147D1*
X452161Y-928957D1*
X450273Y-932767D1*
X446097Y-936577D1*
X441341Y-940387D1*
X338471Y-913717D2*
X334676Y-917527D1*
X331030Y-921337D1*
X328018Y-925147D1*
X325798Y-928957D1*
X325538Y-932767D1*
X329874Y-936577D1*
X334661Y-940387D1*
X536591Y-932767D2*
X532081Y-936577D1*
X526934Y-940387D1*
X521351Y-944197D1*
X540401Y-932767D2*
X544912Y-936577D1*
X550059Y-940387D1*
X555641Y-944197D1*
X677561Y-932767D2*
X673051Y-936577D1*
X667904Y-940387D1*
X662321Y-944197D1*
X681371Y-932767D2*
X685882Y-936577D1*
X691029Y-940387D1*
X696611Y-944197D1*
X818531Y-932767D2*
X814021Y-936577D1*
X808874Y-940387D1*
X803291Y-944197D1*
X822341Y-932767D2*
X826852Y-936577D1*
X831999Y-940387D1*
X837581Y-944197D1*
X1252330Y-2930574D2*
D84*
X1303374D1*
X1266902D2*
X1255952Y-2941524D1*
X1252330Y-2948853D1*
Y-2959718D1*
X1255952Y-2967046D1*
X1266902Y-2970668D1*
X1303374D1*
X1263280Y-2994198D2*
Y-3026964D1*
X1259574Y-3037914D1*
X1255952Y-3041620D1*
X1248708Y-3045242D1*
X1241380D1*
X1234136Y-3041620D1*
X1230430Y-3037914D1*
X1226808Y-3026964D1*
Y-2994198D1*
X1303374D1*
X1263280Y-3019720D2*
X1303374Y-3045242D1*
X1226808Y-3116193D2*
Y-3068771D1*
X1303374D1*
X1263280D2*
Y-3097915D1*
X1226808Y-3139722D2*
X1303374D1*
Y-3165244D1*
X1299668Y-3176194D1*
X1292424Y-3183522D1*
X1285096Y-3187144D1*
X1274230Y-3190766D1*
X1255952D1*
X1245002Y-3187144D1*
X1237758Y-3183522D1*
X1230430Y-3176194D1*
X1226808Y-3165244D1*
Y-3139722D1*
Y-3214296D2*
X1303374D1*
Y-3247146D1*
X1299668Y-3258096D1*
X1296046Y-3261718D1*
X1288802Y-3265339D1*
X1277852D1*
X1270524Y-3261718D1*
X1266902Y-3258096D1*
X1263280Y-3247146D1*
X1259574Y-3258096D1*
X1255952Y-3261718D1*
X1248708Y-3265339D1*
X1241380D1*
X1234136Y-3261718D1*
X1230430Y-3258096D1*
X1226808Y-3247146D1*
Y-3214296D1*
X1263280D2*
Y-3247146D1*
X1303374Y-3347157D2*
X1226808D1*
X1303374Y-3318013D1*
X1226808Y-3288869D1*
X1303374D1*
X1316009Y-3370686D2*
Y-3439924D1*
X1226808Y-3463453D2*
X1303374Y-3492597D1*
X1226808Y-3521741D1*
X1245087Y-3548976D2*
X1241465D1*
X1234137Y-3552598D1*
X1230515Y-3556220D1*
X1226893Y-3563548D1*
Y-3578120D1*
X1230515Y-3585364D1*
X1234137Y-3588986D1*
X1241465Y-3592692D1*
X1248708D1*
X1256036Y-3588986D1*
X1266902Y-3581742D1*
X1303374Y-3545270D1*
Y-3596314D1*
X1316009Y-3619843D2*
Y-3689081D1*
X1241465Y-3712611D2*
X1237758Y-3719939D1*
X1226893Y-3730889D1*
X1303374D1*
X1226893Y-3776318D2*
X1230515Y-3765368D1*
X1241465Y-3758040D1*
X1259658Y-3754418D1*
X1270608D1*
X1288802Y-3758040D1*
X1299752Y-3765368D1*
X1303374Y-3776318D1*
Y-3783562D1*
X1299752Y-3794512D1*
X1288802Y-3801756D1*
X1270608Y-3805462D1*
X1259658D1*
X1241465Y-3801756D1*
X1230515Y-3794512D1*
X1226893Y-3783562D1*
Y-3776318D1*
X1241465Y-3801756D2*
X1288802Y-3758040D1*
X1316009Y-3828991D2*
Y-3898229D1*
X1245087Y-3925464D2*
X1241465D1*
X1234137Y-3929086D1*
X1230515Y-3932708D1*
X1226893Y-3940036D1*
Y-3954608D1*
X1230515Y-3961852D1*
X1234137Y-3965474D1*
X1241465Y-3969180D1*
X1248709D1*
X1256037Y-3965474D1*
X1266902Y-3958230D1*
X1303374Y-3921758D1*
Y-3972802D1*
X1226893Y-4018232D2*
X1230515Y-4007282D1*
X1241465Y-3999953D1*
X1259659Y-3996332D1*
X1270608D1*
X1288802Y-3999954D1*
X1299752Y-4007282D1*
X1303374Y-4018232D1*
Y-4025475D1*
X1299752Y-4036425D1*
X1288802Y-4043669D1*
X1270609Y-4047375D1*
X1259659D1*
X1241465Y-4043669D1*
X1230515Y-4036425D1*
X1226893Y-4025475D1*
Y-4018232D1*
X1241465Y-4043669D2*
X1288802Y-3999954D1*
X1241465Y-4070905D2*
X1237759Y-4078233D1*
X1226893Y-4089183D1*
X1303374D1*
X1252330Y-4160134D2*
X1263280Y-4156428D1*
X1270608Y-4149184D1*
X1274230Y-4138234D1*
Y-4134612D1*
X1270609Y-4123662D1*
X1263280Y-4116418D1*
X1252330Y-4112712D1*
X1248709D1*
X1237759Y-4116418D1*
X1230515Y-4123662D1*
X1226893Y-4134612D1*
Y-4138234D1*
X1230515Y-4149184D1*
X1237758Y-4156428D1*
X1252330Y-4160134D1*
X1270608D1*
X1288802Y-4156428D1*
X1299752Y-4149184D1*
X1303374Y-4138234D1*
Y-4130990D1*
X1299752Y-4120040D1*
X1292424Y-4116418D1*
X-841323Y449412D2*
X-870467Y372846D1*
X-899611Y449412D1*
X-923141D2*
Y372846D1*
X-948662D1*
X-959612Y376552D1*
X-966941Y383796D1*
X-970562Y391124D1*
X-974184Y401990D1*
Y420268D1*
X-970562Y431218D1*
X-966941Y438462D1*
X-959612Y445790D1*
X-948662Y449412D1*
X-923141D1*
X-997714D2*
Y372846D1*
X-1023236D1*
X-1034186Y376552D1*
X-1041514Y383796D1*
X-1045136Y391124D1*
X-1048758Y401990D1*
Y420268D1*
X-1045136Y431218D1*
X-1041514Y438462D1*
X-1034186Y445790D1*
X-1023236Y449412D1*
X-997714D1*
X-908728Y169048D2*
X-905106Y176292D1*
X-897778Y183620D1*
X-890534Y187242D1*
X-875962D1*
X-868634Y183620D1*
X-861390Y176292D1*
X-857684Y169048D1*
X-854062Y158098D1*
Y139820D1*
X-857684Y128954D1*
X-861390Y121626D1*
X-868634Y114382D1*
X-875962Y110676D1*
X-890534D1*
X-897778Y114382D1*
X-905106Y121626D1*
X-908728Y128954D1*
Y139820D1*
X-890534D1*
X-983301Y187242D2*
Y110676D1*
X-932257Y187242D1*
Y110676D1*
X-1006830Y187242D2*
Y110676D1*
X-1032352D1*
X-1043302Y114382D1*
X-1050630Y121626D1*
X-1054252Y128954D1*
X-1057874Y139820D1*
Y158098D1*
X-1054252Y169048D1*
X-1050630Y176292D1*
X-1043302Y183620D1*
X-1032352Y187242D1*
X-1006830D1*
X-861893Y-63013D2*
X-850943Y-66635D1*
X-843615Y-77585D1*
X-839993Y-95778D1*
Y-106728D1*
X-843615Y-124922D1*
X-850943Y-135872D1*
X-861893Y-139494D1*
X-869137D1*
X-880087Y-135872D1*
X-887331Y-124922D1*
X-891037Y-106728D1*
Y-95778D1*
X-887331Y-77585D1*
X-880087Y-66635D1*
X-869137Y-63013D1*
X-861893D1*
X-887331Y-77585D2*
X-843615Y-124922D1*
X-918188Y-132166D2*
X-914566Y-135872D1*
X-918188Y-139494D1*
X-921894Y-135872D1*
X-918188Y-132166D1*
X-967324Y-63013D2*
X-956374Y-66635D1*
X-949046Y-77585D1*
X-945424Y-95778D1*
Y-106728D1*
X-949046Y-124922D1*
X-956374Y-135872D1*
X-967324Y-139494D1*
X-974568D1*
X-985518Y-135872D1*
X-992762Y-124922D1*
X-996468Y-106728D1*
Y-95778D1*
X-992762Y-77585D1*
X-985518Y-66635D1*
X-974568Y-63013D1*
X-967324D1*
X-992762Y-77585D2*
X-949046Y-124922D1*
X-1027325Y-63013D2*
X-1067335D1*
X-1045519Y-92156D1*
X-1056469D1*
X-1063713Y-95778D1*
X-1067335Y-99400D1*
X-1071041Y-110350D1*
Y-117594D1*
X-1067335Y-128544D1*
X-1060091Y-135872D1*
X-1049141Y-139494D1*
X-1038191D1*
X-1027325Y-135872D1*
X-1023703Y-132166D1*
X-1019997Y-124922D1*
X-861893Y-313186D2*
X-850943Y-316808D1*
X-843615Y-327758D1*
X-839993Y-345952D1*
Y-356902D1*
X-843615Y-375096D1*
X-850943Y-386046D1*
X-861893Y-389667D1*
X-869137D1*
X-880087Y-386046D1*
X-887331Y-375096D1*
X-891037Y-356902D1*
Y-345952D1*
X-887331Y-327758D1*
X-880087Y-316808D1*
X-869137Y-313186D1*
X-861893D1*
X-887331Y-327758D2*
X-843615Y-375096D1*
X-918188Y-382339D2*
X-914566Y-386046D1*
X-918188Y-389667D1*
X-921894Y-386046D1*
X-918188Y-382339D1*
X-967324Y-313186D2*
X-956374Y-316808D1*
X-949046Y-327758D1*
X-945424Y-345952D1*
Y-356902D1*
X-949046Y-375096D1*
X-956374Y-386046D1*
X-967324Y-389667D1*
X-974568D1*
X-985518Y-386046D1*
X-992762Y-375096D1*
X-996468Y-356902D1*
Y-345952D1*
X-992762Y-327758D1*
X-985518Y-316808D1*
X-974568Y-313186D1*
X-967324D1*
X-992762Y-327758D2*
X-949046Y-375096D1*
X-1023703Y-331380D2*
Y-327758D1*
X-1027325Y-320430D1*
X-1030947Y-316808D1*
X-1038275Y-313186D1*
X-1052847D1*
X-1060091Y-316808D1*
X-1063713Y-320430D1*
X-1067419Y-327758D1*
Y-335002D1*
X-1063713Y-342330D1*
X-1056469Y-353196D1*
X-1019997Y-389667D1*
X-1071041D1*
X-856367Y-568626D2*
X-845417Y-572248D1*
X-838089Y-583198D1*
X-834467Y-601392D1*
Y-612342D1*
X-838089Y-630536D1*
X-845417Y-641486D1*
X-856367Y-645107D1*
X-863611D1*
X-874561Y-641486D1*
X-881805Y-630536D1*
X-885511Y-612342D1*
Y-601392D1*
X-881805Y-583198D1*
X-874561Y-572248D1*
X-863611Y-568626D1*
X-856367D1*
X-881805Y-583198D2*
X-838089Y-630536D1*
X-912663Y-637779D2*
X-909041Y-641486D1*
X-912663Y-645107D1*
X-916369Y-641486D1*
X-912663Y-637779D1*
X-943604Y-586820D2*
Y-583198D1*
X-947226Y-575870D1*
X-950848Y-572248D1*
X-958176Y-568626D1*
X-972748D1*
X-979992Y-572248D1*
X-983614Y-575870D1*
X-987320Y-583198D1*
Y-590442D1*
X-983614Y-597770D1*
X-976370Y-608636D1*
X-939898Y-645107D1*
X-990942D1*
X-1032665Y-568626D2*
X-1021799Y-572248D1*
X-1018093Y-579492D1*
Y-586820D1*
X-1021799Y-594064D1*
X-1029043Y-597770D1*
X-1043615Y-601392D1*
X-1054565Y-605014D1*
X-1061809Y-612342D1*
X-1065431Y-619586D1*
Y-630536D1*
X-1061809Y-637779D1*
X-1058187Y-641486D1*
X-1047237Y-645107D1*
X-1032665D1*
X-1021799Y-641486D1*
X-1018093Y-637779D1*
X-1014471Y-630536D1*
Y-619586D1*
X-1018093Y-612342D1*
X-1025421Y-605014D1*
X-1036287Y-601392D1*
X-1050859Y-597770D1*
X-1058187Y-594064D1*
X-1061809Y-586820D1*
Y-579492D1*
X-1058187Y-572248D1*
X-1047237Y-568626D1*
X-1032665D1*
X-1032212Y-773115D2*
X-1035918Y-780443D1*
X-1046784Y-791393D1*
X-970302D1*
X-977631Y-818544D2*
X-973924Y-814922D1*
X-970302Y-818544D1*
X-973924Y-822250D1*
X-977631Y-818544D1*
X-1032212Y-845779D2*
X-1035918Y-853108D1*
X-1046784Y-864058D1*
X-970302D1*
X-1046784Y-894915D2*
Y-934924D1*
X-1017640Y-913109D1*
Y-924059D1*
X-1014018Y-931303D1*
X-1010396Y-934924D1*
X-999446Y-938631D1*
X-992203D1*
X-981252Y-934924D1*
X-973924Y-927681D1*
X-970302Y-916731D1*
Y-905781D1*
X-973924Y-894915D1*
X-977630Y-891293D1*
X-984874Y-887587D1*
X-1049475Y-1034545D2*
X-1053181Y-1041873D1*
X-1064047Y-1052823D1*
X-987566D1*
X-994894Y-1079974D2*
X-991188Y-1076352D1*
X-987566Y-1079974D1*
X-991188Y-1083680D1*
X-994894Y-1079974D1*
X-1049475Y-1107209D2*
X-1053181Y-1114538D1*
X-1064047Y-1125488D1*
X-987566D1*
X-1064047Y-1170917D2*
X-1060425Y-1159967D1*
X-1049475Y-1152639D1*
X-1031281Y-1149017D1*
X-1020331D1*
X-1002138Y-1152639D1*
X-991188Y-1159967D1*
X-987566Y-1170917D1*
Y-1178161D1*
X-991188Y-1189111D1*
X-1002138Y-1196354D1*
X-1020332Y-1200061D1*
X-1031282D1*
X-1049475Y-1196354D1*
X-1060425Y-1189111D1*
X-1064047Y-1178161D1*
Y-1170917D1*
X-1049475Y-1196354D2*
X-1002138Y-1152639D1*
X-895450Y-1345525D2*
X-902779Y-1341818D1*
X-913729Y-1330953D1*
Y-1407434D1*
X-940880Y-1400106D2*
X-937258Y-1403812D1*
X-940880Y-1407434D1*
X-944586Y-1403812D1*
X-940880Y-1400106D1*
X-968115Y-1345525D2*
X-975443Y-1341818D1*
X-986393Y-1330953D1*
Y-1407434D1*
X-1009923Y-1345525D2*
X-1017251Y-1341818D1*
X-1028201Y-1330953D1*
Y-1407434D1*
X-868169Y-1589846D2*
X-857219Y-1593468D1*
X-849891Y-1604418D1*
X-846269Y-1622612D1*
Y-1633562D1*
X-849891Y-1651756D1*
X-857219Y-1662706D1*
X-868169Y-1666327D1*
X-875413D1*
X-886363Y-1662706D1*
X-893607Y-1651756D1*
X-897313Y-1633562D1*
Y-1622612D1*
X-893607Y-1604418D1*
X-886363Y-1593468D1*
X-875413Y-1589846D1*
X-868169D1*
X-893607Y-1604418D2*
X-849891Y-1651756D1*
X-924464Y-1658999D2*
X-920842Y-1662706D1*
X-924464Y-1666327D1*
X-928170Y-1662706D1*
X-924464Y-1658999D1*
X-959028Y-1589846D2*
X-999037D1*
X-977222Y-1618990D1*
X-988172D1*
X-995415Y-1622612D1*
X-999037Y-1626234D1*
X-1002743Y-1637184D1*
Y-1644427D1*
X-999037Y-1655377D1*
X-991793Y-1662706D1*
X-980843Y-1666327D1*
X-969893D1*
X-959028Y-1662706D1*
X-955406Y-1658999D1*
X-951700Y-1651756D1*
X-1026273Y-1604418D2*
X-1033601Y-1600712D1*
X-1044551Y-1589846D1*
Y-1666327D1*
X-857206Y-1832389D2*
X-846256Y-1836011D1*
X-838928Y-1846961D1*
X-835306Y-1865155D1*
Y-1876105D1*
X-838928Y-1894299D1*
X-846256Y-1905249D1*
X-857206Y-1908871D1*
X-864450D1*
X-875400Y-1905249D1*
X-882644Y-1894299D1*
X-886350Y-1876105D1*
Y-1865155D1*
X-882644Y-1846961D1*
X-875400Y-1836011D1*
X-864450Y-1832389D1*
X-857206D1*
X-882644Y-1846961D2*
X-838928Y-1894299D1*
X-913502Y-1901543D2*
X-909880Y-1905249D1*
X-913502Y-1908871D1*
X-917208Y-1905249D1*
X-913502Y-1901543D1*
X-948065Y-1832389D2*
X-988075D1*
X-966259Y-1861533D1*
X-977209D1*
X-984453Y-1865155D1*
X-988075Y-1868777D1*
X-991781Y-1879727D1*
Y-1886971D1*
X-988075Y-1897921D1*
X-980831Y-1905249D1*
X-969881Y-1908871D1*
X-958931D1*
X-948065Y-1905249D1*
X-944443Y-1901543D1*
X-940737Y-1894299D1*
X-1037210Y-1832389D2*
X-1026260Y-1836011D1*
X-1018932Y-1846961D1*
X-1015310Y-1865155D1*
Y-1876105D1*
X-1018932Y-1894299D1*
X-1026260Y-1905249D1*
X-1037210Y-1908871D1*
X-1044454D1*
X-1055404Y-1905249D1*
X-1062648Y-1894299D1*
X-1066354Y-1876105D1*
Y-1865155D1*
X-1062648Y-1846961D1*
X-1055404Y-1836011D1*
X-1044454Y-1832389D1*
X-1037210D1*
X-1062648Y-1846961D2*
X-1018932Y-1894299D1*
X-865578Y-2085853D2*
X-854628Y-2089475D1*
X-847300Y-2100425D1*
X-843678Y-2118618D1*
Y-2129568D1*
X-847300Y-2147762D1*
X-854628Y-2158712D1*
X-865578Y-2162334D1*
X-872822D1*
X-883772Y-2158712D1*
X-891016Y-2147762D1*
X-894722Y-2129568D1*
Y-2118618D1*
X-891016Y-2100425D1*
X-883772Y-2089475D1*
X-872822Y-2085853D1*
X-865578D1*
X-891016Y-2100425D2*
X-847300Y-2147762D1*
X-921874Y-2155006D2*
X-918252Y-2158712D1*
X-921874Y-2162334D1*
X-925580Y-2158712D1*
X-921874Y-2155006D1*
X-952815Y-2104046D2*
Y-2100425D1*
X-956437Y-2093096D1*
X-960059Y-2089475D1*
X-967387Y-2085853D1*
X-981959D1*
X-989203Y-2089475D1*
X-992825Y-2093096D1*
X-996531Y-2100425D1*
Y-2107668D1*
X-992825Y-2114996D1*
X-985581Y-2125862D1*
X-949109Y-2162334D1*
X-1000153D1*
X-1071104Y-2111290D2*
X-1067398Y-2122240D1*
X-1060154Y-2129568D1*
X-1049204Y-2133190D1*
X-1045582D1*
X-1034632Y-2129568D1*
X-1027389Y-2122240D1*
X-1023682Y-2111290D1*
Y-2107668D1*
X-1027389Y-2096718D1*
X-1034632Y-2089475D1*
X-1045582Y-2085853D1*
X-1049204D1*
X-1060154Y-2089475D1*
X-1067398Y-2096718D1*
X-1071104Y-2111290D1*
Y-2129568D1*
X-1067398Y-2147762D1*
X-1060154Y-2158712D1*
X-1049204Y-2162334D1*
X-1041960D1*
X-1031010Y-2158712D1*
X-1027389Y-2151384D1*
X-1115657Y-2296223D2*
X-1112035Y-2285273D1*
X-1101085Y-2277944D1*
X-1082892Y-2274323D1*
X-1071942D1*
X-1053748Y-2277945D1*
X-1042798Y-2285273D1*
X-1039176Y-2296223D1*
Y-2303466D1*
X-1042798Y-2314416D1*
X-1053748Y-2321660D1*
X-1071942Y-2325366D1*
X-1082892D1*
X-1101085Y-2321660D1*
X-1112035Y-2314416D1*
X-1115657Y-2303466D1*
Y-2296223D1*
X-1101085Y-2321660D2*
X-1053748Y-2277945D1*
X-1046504Y-2352518D2*
X-1042798Y-2348896D1*
X-1039176Y-2352518D1*
X-1042798Y-2356224D1*
X-1046504Y-2352518D1*
X-1097463Y-2383459D2*
X-1101085D1*
X-1108413Y-2387081D1*
X-1112035Y-2390703D1*
X-1115657Y-2398031D1*
Y-2412603D1*
X-1112035Y-2419847D1*
X-1108413Y-2423469D1*
X-1101085Y-2427175D1*
X-1093841D1*
X-1086513Y-2423469D1*
X-1075648Y-2416225D1*
X-1039176Y-2379753D1*
Y-2430797D1*
X-1104792Y-2498042D2*
X-1112035Y-2494420D1*
X-1115657Y-2483470D1*
Y-2476226D1*
X-1112035Y-2465276D1*
X-1101085Y-2457948D1*
X-1082891Y-2454326D1*
X-1064698D1*
X-1050126Y-2457948D1*
X-1042798Y-2465276D1*
X-1039176Y-2476226D1*
Y-2479848D1*
X-1042798Y-2490714D1*
X-1050126Y-2498042D1*
X-1061076Y-2501664D1*
X-1064698D1*
X-1075648Y-2498042D1*
X-1082892Y-2490714D1*
X-1086513Y-2479848D1*
Y-2476226D1*
X-1082891Y-2465276D1*
X-1075648Y-2457948D1*
X-1064698Y-2454326D1*
X1048904Y449277D2*
X1059854Y445655D1*
X1067183Y434705D1*
X1070804Y416512D1*
Y405562D1*
X1067183Y387368D1*
X1059854Y376418D1*
X1048904Y372796D1*
X1041661D1*
X1030711Y376418D1*
X1023467Y387368D1*
X1019761Y405562D1*
Y416512D1*
X1023467Y434705D1*
X1030711Y445655D1*
X1041661Y449277D1*
X1048904D1*
X1023467Y434705D2*
X1067183Y387368D1*
X992609Y380124D2*
X996231Y376418D1*
X992609Y372796D1*
X988903Y376418D1*
X992609Y380124D1*
X965374Y434705D2*
X958046Y438412D1*
X947096Y449277D1*
Y372796D1*
X901666Y449277D2*
X912616Y445655D1*
X919944Y434705D1*
X923566Y416512D1*
Y405562D1*
X919944Y387368D1*
X912616Y376418D1*
X901666Y372796D1*
X894422D1*
X883472Y376418D1*
X876229Y387368D1*
X872522Y405562D1*
Y416512D1*
X876229Y434705D1*
X883472Y445655D1*
X894422Y449277D1*
X901666D1*
X876229Y434705D2*
X919944Y387368D1*
X1070345Y193001D2*
X1081295Y189379D1*
X1088623Y178429D1*
X1092245Y160235D1*
Y149285D1*
X1088623Y131091D1*
X1081295Y120141D1*
X1070345Y116519D1*
X1063101D1*
X1052151Y120141D1*
X1044907Y131091D1*
X1041201Y149285D1*
Y160235D1*
X1044907Y178429D1*
X1052151Y189379D1*
X1063101Y193001D1*
X1070345D1*
X1044907Y178429D2*
X1088623Y131091D1*
X1014050Y123847D2*
X1017672Y120141D1*
X1014050Y116519D1*
X1010344Y120141D1*
X1014050Y123847D1*
X964914Y193001D2*
X975864Y189379D1*
X983192Y178429D1*
X986814Y160235D1*
Y149285D1*
X983192Y131091D1*
X975864Y120141D1*
X964914Y116519D1*
X957670D1*
X946720Y120141D1*
X939477Y131091D1*
X935770Y149285D1*
Y160235D1*
X939477Y178429D1*
X946720Y189379D1*
X957670Y193001D1*
X964914D1*
X939477Y178429D2*
X983192Y131091D1*
X864819Y167563D2*
X868525Y156613D1*
X875769Y149285D1*
X886719Y145663D1*
X890341D1*
X901291Y149285D1*
X908535Y156613D1*
X912241Y167563D1*
Y171185D1*
X908535Y182135D1*
X901291Y189379D1*
X890341Y193001D1*
X886719D1*
X875769Y189379D1*
X868525Y182135D1*
X864819Y167563D1*
Y149285D1*
X868525Y131091D1*
X875769Y120141D1*
X886719Y116519D1*
X893963D1*
X904913Y120141D1*
X908535Y127469D1*
X1061151Y-58369D2*
X1072101Y-61991D1*
X1079429Y-72941D1*
X1083051Y-91135D1*
Y-102085D1*
X1079429Y-120279D1*
X1072101Y-131229D1*
X1061151Y-134851D1*
X1053907D1*
X1042957Y-131229D1*
X1035713Y-120279D1*
X1032007Y-102085D1*
Y-91135D1*
X1035713Y-72941D1*
X1042957Y-61991D1*
X1053907Y-58369D1*
X1061151D1*
X1035713Y-72941D2*
X1079429Y-120279D1*
X1004856Y-127523D2*
X1008478Y-131229D1*
X1004856Y-134851D1*
X1001150Y-131229D1*
X1004856Y-127523D1*
X977620Y-72941D2*
X970292Y-69235D1*
X959342Y-58369D1*
Y-134851D1*
X921241D2*
X884769Y-58369D1*
X935813D1*
X1056964Y-313726D2*
X1067914Y-317348D1*
X1075243Y-328298D1*
X1078864Y-346492D1*
Y-357442D1*
X1075243Y-375636D1*
X1067914Y-386586D1*
X1056964Y-390207D1*
X1049721D1*
X1038771Y-386586D1*
X1031527Y-375636D1*
X1027821Y-357442D1*
Y-346492D1*
X1031527Y-328298D1*
X1038771Y-317348D1*
X1049721Y-313726D1*
X1056964D1*
X1031527Y-328298D2*
X1075243Y-375636D1*
X1000669Y-382879D2*
X1004291Y-386586D1*
X1000669Y-390207D1*
X996963Y-386586D1*
X1000669Y-382879D1*
X973434Y-328298D2*
X966106Y-324592D1*
X955156Y-313726D1*
Y-390207D1*
X887910Y-313726D2*
X924298D1*
X927920Y-346492D1*
X924298Y-342870D1*
X913348Y-339164D1*
X902482D1*
X891532Y-342870D1*
X884204Y-350114D1*
X880582Y-361064D1*
Y-368307D1*
X884204Y-379257D1*
X891532Y-386586D1*
X902482Y-390207D1*
X913348D1*
X924298Y-386586D1*
X927920Y-382879D1*
X931626Y-375636D1*
X1027496Y-575962D2*
X1034739Y-568634D1*
X1045689Y-565012D1*
X1060261D1*
X1071211Y-568634D1*
X1078539Y-575962D1*
Y-583206D1*
X1074833Y-590534D1*
X1071211Y-594156D1*
X1063967Y-597777D1*
X1042067Y-605106D1*
X1034739Y-608727D1*
X1031117Y-612434D1*
X1027496Y-619677D1*
Y-630627D1*
X1034739Y-637871D1*
X1045689Y-641577D1*
X1060261D1*
X1071211Y-637871D1*
X1078539Y-630627D1*
X1003966Y-565012D2*
X985688Y-641577D1*
X967494Y-565012D1*
X949300Y-641577D1*
X931022Y-565012D1*
X907493D2*
Y-641577D1*
X856449Y-565012D2*
X907493Y-616056D1*
X889299Y-597777D2*
X856449Y-641577D1*
X1026635Y-800344D2*
X1019307Y-793100D1*
X1015685Y-782150D1*
Y-767578D1*
X1019307Y-756628D1*
X1026635Y-749300D1*
X1033879D1*
X1041207Y-753006D1*
X1044829Y-756628D1*
X1048451Y-763872D1*
X1055779Y-785772D1*
X1059401Y-793100D1*
X1063107Y-796722D1*
X1070351Y-800344D1*
X1081301D1*
X1088545Y-793100D1*
X1092251Y-782150D1*
Y-767578D1*
X1088545Y-756628D1*
X1081301Y-749300D1*
X1015685Y-823873D2*
X1092251Y-842151D1*
X1015685Y-860345D1*
X1092251Y-878539D1*
X1015685Y-896817D1*
Y-942246D2*
X1019307Y-934918D1*
X1026635Y-927674D1*
X1033879Y-923968D1*
X1044829Y-920346D1*
X1063107D1*
X1073973Y-923968D1*
X1081301Y-927675D1*
X1088545Y-934918D1*
X1092251Y-942246D1*
Y-956818D1*
X1088545Y-964062D1*
X1081301Y-971390D1*
X1073973Y-975012D1*
X1063107Y-978634D1*
X1044829D1*
X1033879Y-975012D1*
X1026635Y-971390D1*
X1019307Y-964062D1*
X1015685Y-956818D1*
Y-942246D1*
X1043422Y-1099738D2*
X1036179Y-1096116D1*
X1028850Y-1088788D1*
X1025229Y-1081544D1*
Y-1066972D1*
X1028850Y-1059644D1*
X1036179Y-1052400D1*
X1043422Y-1048694D1*
X1054372Y-1045072D1*
X1072650D1*
X1083516Y-1048694D1*
X1090844Y-1052400D1*
X1098088Y-1059644D1*
X1101794Y-1066972D1*
Y-1081544D1*
X1098088Y-1088788D1*
X1090844Y-1096116D1*
X1083516Y-1099738D1*
X1072650D1*
Y-1081544D1*
X1025229Y-1174311D2*
X1101794D1*
X1025229Y-1123267D1*
X1101794D1*
X1025229Y-1197840D2*
X1101794D1*
Y-1223362D1*
X1098088Y-1234312D1*
X1090844Y-1241640D1*
X1083516Y-1245262D1*
X1072650Y-1248884D1*
X1054372D1*
X1043422Y-1245262D1*
X1036178Y-1241640D1*
X1028850Y-1234312D1*
X1025228Y-1223362D1*
X1025229Y-1197840D1*
X1135680Y-1355538D2*
X1106536Y-1432104D1*
X1077392Y-1355538D1*
X1053863D2*
Y-1432104D1*
X1028341D1*
X1017391Y-1428398D1*
X1010063Y-1421154D1*
X1006441Y-1413826D1*
X1002819Y-1402960D1*
Y-1384682D1*
X1006441Y-1373732D1*
X1010063Y-1366488D1*
X1017391Y-1359160D1*
X1028341Y-1355538D1*
X1053863D1*
X979290D2*
Y-1432104D1*
X953768D1*
X942818Y-1428398D1*
X935490Y-1421154D1*
X931868Y-1413826D1*
X928246Y-1402960D1*
Y-1384682D1*
X931868Y-1373732D1*
X935490Y-1366488D1*
X942818Y-1359160D1*
X953768Y-1355538D1*
X979290D1*
M02*
