G04 DipTrace 3.2.0.1*
G04 BottomMask.gbr*
%MOIN*%
G04 #@! TF.FileFunction,Soldermask,Bot*
G04 #@! TF.Part,Single*
%AMOUTLINE4*
4,1,4,
0.116909,0.062025,
-0.0377,-0.126862,
-0.116909,-0.062025,
0.0377,0.126862,
0.116909,0.062025,
0*%
%AMOUTLINE7*
4,1,4,
0.112194,0.025184,
-0.002518,-0.114958,
-0.112194,-0.025184,
0.002518,0.114958,
0.112194,0.025184,
0*%
%AMOUTLINE10*
4,1,5,
-0.03937,0.017379,
-0.03937,-0.043307,
0.03937,-0.043307,
0.03937,0.043307,
-0.013442,0.043307,
-0.03937,0.017379,
0*%
%AMOUTLINE13*
4,1,5,
-0.03937,-0.043307,
0.03937,-0.043307,
0.03937,0.017379,
0.013442,0.043307,
-0.03937,0.043307,
-0.03937,-0.043307,
0*%
%ADD43C,0.055118*%
%ADD44C,0.027559*%
%ADD46C,0.055118*%
%ADD50R,0.023622X0.061024*%
%ADD54O,0.062992X0.15748*%
%ADD60R,0.037402X0.051181*%
%ADD62R,0.051181X0.037402*%
%ADD72C,0.066929*%
%ADD74C,0.07874*%
%ADD76C,0.07874*%
%ADD78R,0.122047X0.080709*%
%ADD90OUTLINE4*%
%ADD93OUTLINE7*%
%ADD96OUTLINE10*%
%ADD99OUTLINE13*%
%FSLAX26Y26*%
G04*
G70*
G90*
G75*
G01*
G04 BotMask*
%LPD*%
D78*
X-349234Y-1507504D3*
Y-1688606D3*
D76*
X-484252Y-140157D3*
Y-40157D3*
Y59843D3*
Y159843D3*
X500787Y-140157D3*
Y-40157D3*
Y59843D3*
Y159843D3*
X-484252Y-539764D3*
Y-439764D3*
Y-339764D3*
Y-239764D3*
X500787Y-540157D3*
Y-440157D3*
Y-340157D3*
Y-240157D3*
X-485827Y-639370D3*
D74*
X-484252Y-739370D3*
D76*
X-485827Y-839370D3*
D74*
X-484252Y-939370D3*
D76*
X-485827Y-1037402D3*
D74*
X-484252Y-1137402D3*
D76*
X-485827Y-1345236D3*
D74*
X-484252Y-1445236D3*
D72*
X59055Y192913D3*
X-125984Y102362D3*
X59055D3*
X-125984Y11811D3*
X59055D3*
Y-169291D3*
Y-78740D3*
X-125984Y-169291D3*
Y192913D3*
Y-78740D3*
D62*
X197638Y-174409D3*
Y-124016D3*
Y-74409D3*
Y-24016D3*
Y25984D3*
Y75984D3*
Y125984D3*
D60*
X-133465Y-279528D3*
X-83465D3*
X-33465D3*
X16535D3*
X66535D3*
X116142D3*
X166535D3*
D62*
X197638Y175984D3*
D54*
X246850Y-1661417D3*
X-213780D3*
D43*
X-72047D3*
X105118D3*
D90*
X-186442Y-1343933D3*
D93*
X321024Y-723958D3*
D50*
X16311Y-1595785D3*
X-9280D3*
X41902D3*
X67492D3*
X-34870D3*
D96*
X159028Y-1697163D3*
D99*
X-126406D3*
D44*
X-79161Y-1592832D3*
X111783D3*
D46*
X-226690Y-526276D3*
Y-443598D3*
M02*
