M48
INCH
T01C0.0118
T02C0.0157
T03C0.0197
T04C0.0236
T05C0.0276
T06C0.0394
T07C0.0551
%
T06
X-004843Y-001402
X-004843Y-000402
X-004843Y+000598
X-004843Y+001598
X+005008Y-001402
X+005008Y-000402
X+005008Y+000598
X+005008Y+001598
X-004843Y-005398
X-004843Y-004398
X-004843Y-003398
X-004843Y-002398
X+005008Y-005402
X+005008Y-004402
X+005008Y-003402
X+005008Y-002402
X-004858Y-006394
X-004843Y-007394
X-004858Y-008394
X-004843Y-009394
X-004858Y-010374
X-004843Y-011374
X-004858Y-013452
X-004843Y-014452
T01
X+003295Y+001980
X+003296Y+001473
X-003635Y+001263
X-004225Y+000081
X-002959Y-000022
X+003300Y-000028
X-003573Y-000436
X-002989Y-001006
X-003237Y-001661
X-003101Y-002040
X-003003Y-002520
X-002364Y-003862
X+000420Y-004142
X+000015Y-004596
X+000913Y-004354
X-000823Y-004756
X+003982Y-004846
X+003655Y-005139
X+002158Y-004396
X+002536Y-004847
X+003681Y-005856
X-003788Y-006091
X+000921Y-006254
X+000415Y-006965
X+001035Y-006964
X-000788Y-007005
X-002427Y-008429
X-001379Y-010453
X-002364Y-011426
T02
X-002552Y-010012
T01
X+004104Y-012568
X-004115Y-012691
X+001212Y-014450
X+000929Y-014752
X+002606Y-014196
X+000178Y-014758
X-001222Y-014856
X+000163Y-016415
X-001254Y+001019
X+000598Y+001926
X-001253Y+000107
X+000587Y-001693
X-001249Y-001697
X+000595Y-000782
X+000594Y+000112
X+000599Y+001040
X+003317Y-000522
X-001261Y+001934
X-000603Y-004243
X-001254Y-000790
T03
X+001976Y-001744
X+001976Y-001240
X+001976Y-000744
X+001976Y-000240
X+001976Y+000260
X+001976Y+000760
X+001976Y+001260
X-001335Y-002795
X-000835Y-002795
X-000335Y-002795
X+000165Y-002795
X+000665Y-002795
X+001161Y-002795
X+001665Y-002795
X+001976Y+001760
T06
X+002469Y-016909G85X+002469Y-016319
X-002138Y-016909G85X-002138Y-016319
T07
X-000720Y-016614
X+001051Y-016614
T05
X+001590Y-017050G85X+001590Y-016893
X-001264Y-017050G85X-001264Y-016893
X-000792Y-015928
X+001118Y-015928
T04
X-002267Y-005263
X-002267Y-004436
T00
M30
