M48
METRIC,0000.00
T01C0.3
T02C0.5
T03C0.6
T04C0.7
T05C1.0
T06C1.4
%
T05
X-001230Y-000356
X-001230Y-000102
X-001230Y+000152
X-001230Y+000406
X+001272Y-000356
X+001272Y-000102
X+001272Y+000152
X+001272Y+000406
X-001230Y-001371
X-001230Y-001117
X-001230Y-000863
X-001230Y-000609
X+001272Y-001372
X+001272Y-001118
X+001272Y-000864
X+001272Y-000610
X-001234Y-001624
X-001230Y-001878
X-001234Y-002132
X-001230Y-002386
X-001234Y-002635
X-001230Y-002889
X-001234Y-003417
X-001230Y-003671
T01
X+000837Y+000503
X+000837Y+000374
X-000923Y+000321
X-001073Y+000020
X-000752Y-000006
X+000838Y-000007
X-000907Y-000111
X-000759Y-000256
X-000821Y-000414
X-000788Y-000518
X-000763Y-000640
X-000578Y-001006
X+000107Y-001052
X+000004Y-001167
X+000232Y-001106
X-000209Y-001208
X+001033Y-001234
X+000975Y-001324
X+000629Y-001354
X+000713Y-001447
X+000896Y-001496
X-000962Y-001547
X+000234Y-001589
X+000105Y-001769
X+000263Y-001769
X-000200Y-001779
X-000616Y-002141
X-000350Y-002655
X-000595Y-002902
X+000688Y-003047
X+000132Y-003134
X+001042Y-003192
X-001045Y-003224
X+000600Y-003251
X+000599Y-003412
X+000705Y-003612
X+000080Y-003736
X-000310Y-003773
X+000041Y-004170
X-000320Y+000280
X+000152Y+000519
X-000318Y+000027
X-000318Y-000481
X+000154Y-000244
X+000150Y+000009
X+000152Y+000264
X+000843Y-000133
X-000322Y+000538
T02
X+000502Y-000443
X+000502Y-000315
X+000502Y-000189
X+000502Y-000061
X+000502Y+000066
X+000502Y+000193
X+000502Y+000320
X-000339Y-000710
X-000212Y-000710
X-000085Y-000710
X+000042Y-000710
X+000169Y-000710
X+000295Y-000710
X+000423Y-000710
X+000502Y+000447
T05
X+000627Y-004295G85X+000627Y-004145
X-000543Y-004295G85X-000543Y-004145
T06
X-000183Y-004220
X+000267Y-004220
T04
X+000404Y-004331G85X+000404Y-004291
X-000321Y-004331G85X-000321Y-004291
X-000201Y-004046
X+000284Y-004046
T03
X-000578Y-001350
X-000578Y-001140
T01
X-000153Y-001078
X+000146Y-000500
X-000322Y-000229
T00
M30
