M48
METRIC,0000.00
T01C0.3
T02C0.4
T03C0.5
T04C0.6
T05C0.7
T06C1.0
T07C1.4
%
T06
X-001230Y-000356
X-001230Y-000102
X-001230Y+000152
X-001230Y+000406
X+001272Y-000356
X+001272Y-000102
X+001272Y+000152
X+001272Y+000406
X-001230Y-001371
X-001230Y-001117
X-001230Y-000863
X-001230Y-000609
X+001272Y-001372
X+001272Y-001118
X+001272Y-000864
X+001272Y-000610
X-001234Y-001624
X-001230Y-001878
X-001234Y-002132
X-001230Y-002386
X-001234Y-002635
X-001230Y-002889
X-001234Y-003417
X-001230Y-003671
T01
X+000837Y+000503
X+000837Y+000374
X-000923Y+000321
X-001073Y+000020
X-000752Y-000006
X+000838Y-000007
X-000907Y-000111
X-000759Y-000256
X-000822Y-000422
X-000788Y-000518
X-000763Y-000640
X-000601Y-000981
X+000107Y-001052
X+000004Y-001167
X+000232Y-001106
X-000209Y-001208
X+001012Y-001231
X+000928Y-001305
X+000548Y-001117
X+000644Y-001231
X+000935Y-001488
X-000962Y-001547
X+000234Y-001589
X+000105Y-001769
X+000263Y-001769
X-000200Y-001779
X-000616Y-002141
X-000350Y-002655
X-000595Y-002902
T02
X-000648Y-002543
T01
X+001042Y-003192
X-001045Y-003224
X+000308Y-003670
X+000236Y-003747
X+000662Y-003606
X+000045Y-003748
X-000310Y-003773
X+000041Y-004170
X-000318Y+000259
X+000152Y+000489
X-000318Y+000027
X+000149Y-000430
X-000317Y-000431
X+000151Y-000199
X+000151Y+000028
X+000152Y+000264
X+000843Y-000133
X-000320Y+000491
X-000153Y-001078
X-000319Y-000201
T03
X+000502Y-000443
X+000502Y-000315
X+000502Y-000189
X+000502Y-000061
X+000502Y+000066
X+000502Y+000193
X+000502Y+000320
X-000339Y-000710
X-000212Y-000710
X-000085Y-000710
X+000042Y-000710
X+000169Y-000710
X+000295Y-000710
X+000423Y-000710
X+000502Y+000447
T06
X+000627Y-004295G85X+000627Y-004145
X-000543Y-004295G85X-000543Y-004145
T07
X-000183Y-004220
X+000267Y-004220
T05
X+000404Y-004331G85X+000404Y-004291
X-000321Y-004331G85X-000321Y-004291
X-000201Y-004046
X+000284Y-004046
T04
X-000576Y-001337
X-000576Y-001127
T00
M30
