G04 DipTrace 3.2.0.1*
G04 TopMask.gbr*
%MOMM*%
G04 #@! TF.FileFunction,Soldermask,Top*
G04 #@! TF.Part,Single*
%AMOUTLINE1*
4,1,4,
0.64636,0.4552,
-0.65356,0.4448,
-0.64636,-0.4552,
0.65356,-0.4448,
0.64636,0.4552,
0*%
%AMOUTLINE10*
4,1,5,
-1.0,0.44142,
-1.0,-1.1,
1.0,-1.1,
1.0,1.1,
-0.34142,1.1,
-1.0,0.44142,
0*%
%AMOUTLINE13*
4,1,5,
-1.0,-1.1,
1.0,-1.1,
1.0,0.44142,
0.34142,1.1,
-1.0,1.1,
-1.0,-1.1,
0*%
%ADD43C,1.4*%
%ADD44C,0.7*%
%ADD46C,1.4*%
%ADD48R,3.37X1.22*%
%ADD52R,1.2X2.9*%
%ADD54O,1.6X4.0*%
%ADD56R,0.8X1.2*%
%ADD58R,1.2X1.2*%
%ADD60R,0.95X1.3*%
%ADD62R,1.3X0.95*%
%ADD64R,1.0X2.1*%
%ADD66R,2.1X1.0*%
%ADD68R,1.0X2.0*%
%ADD70R,2.0X1.8*%
%ADD74C,2.0*%
%ADD76C,2.0*%
%ADD80R,1.5X1.7*%
%ADD82R,1.7X1.5*%
%ADD87OUTLINE1*%
%ADD96OUTLINE10*%
%ADD99OUTLINE13*%
%FSLAX35Y35*%
G04*
G71*
G90*
G75*
G01*
G04 TopMask*
%LPD*%
D82*
X-839233Y-1301417D3*
Y-1111417D3*
X365620Y-1502000D3*
Y-1312000D3*
X99000Y-1508000D3*
Y-1318000D3*
D80*
X-645000Y-1527000D3*
X-455000D3*
D82*
X185000Y-2731000D3*
Y-2541000D3*
D80*
X-920520Y-2883797D3*
X-730520D3*
X-920637Y-3102870D3*
X-730637D3*
X861000Y-3373407D3*
X1051000D3*
X861000Y-3852000D3*
X1051000D3*
X861000Y-3612000D3*
X1051000D3*
X-753714Y-3812647D3*
X-943714D3*
D76*
X-1230000Y-356000D3*
Y-102000D3*
Y152000D3*
Y406000D3*
X1272000Y-356000D3*
Y-102000D3*
Y152000D3*
Y406000D3*
X-1230000Y-1371000D3*
Y-1117000D3*
Y-863000D3*
Y-609000D3*
X1272000Y-1372000D3*
Y-1118000D3*
Y-864000D3*
Y-610000D3*
X-1234000Y-1624000D3*
D74*
X-1230000Y-1878000D3*
D76*
X-1234000Y-2132000D3*
D74*
X-1230000Y-2386000D3*
D76*
X-1234000Y-2635000D3*
D74*
X-1230000Y-2889000D3*
D76*
X-1234000Y-3416900D3*
D74*
X-1230000Y-3670900D3*
D70*
X-750000Y-2090000D3*
Y-1810000D3*
D82*
X-209000Y-1503000D3*
Y-1313000D3*
X-202000Y-2079000D3*
Y-1889000D3*
X107000Y-2080000D3*
Y-1890000D3*
X365600Y-2089000D3*
Y-1899000D3*
X-118000Y-2728000D3*
Y-2538000D3*
D68*
X825000Y-2120000D3*
Y-1780000D3*
X675000Y-2120000D3*
Y-1780000D3*
D66*
X-628000Y-640000D3*
Y-513000D3*
Y-386000D3*
Y-259000D3*
Y-132000D3*
Y-5000D3*
Y122000D3*
Y249000D3*
Y376000D3*
Y503000D3*
X712000Y-640000D3*
Y-513000D3*
Y-386000D3*
Y-259000D3*
Y-132000D3*
Y-5000D3*
Y122000D3*
Y249000D3*
Y376000D3*
Y503000D3*
D64*
X-21500Y-920000D3*
X105500D3*
X-148500D3*
X232500D3*
X-275500D3*
X359500D3*
X-402500D3*
X486500D3*
D62*
X502000Y-443000D3*
Y-315000D3*
Y-189000D3*
Y-61000D3*
Y66000D3*
Y193000D3*
Y320000D3*
D60*
X-339000Y-710000D3*
X-212000D3*
X-85000D3*
X42000D3*
X169000D3*
X295000D3*
X423000D3*
D62*
X502000Y447000D3*
D87*
X-858353Y-2444163D3*
X-856633Y-2659157D3*
X-443367Y-2440843D3*
X-441647Y-2655837D3*
X483647Y-2444163D3*
X485367Y-2659157D3*
X898633Y-2440843D3*
X900353Y-2655837D3*
D58*
X-847756Y-3559367D3*
D56*
X-677756D3*
Y-3329367D3*
X-867756D3*
D54*
X627000Y-4220000D3*
X-543000D3*
D52*
X-308000Y-3950000D3*
X-58000D3*
X142000D3*
X392000D3*
D43*
X-183000Y-4220000D3*
X267000D3*
D96*
X403930Y-4310793D3*
D99*
X-321070D3*
D44*
X-201070Y-4045793D3*
X283930D3*
D48*
X-158500Y-3186365D3*
X158500Y-2932365D3*
Y-3440365D3*
D46*
X-575793Y-1336740D3*
Y-1126740D3*
M02*
