G04 DipTrace 3.2.0.1*
G04 TopPaste.gbr*
%MOIN*%
G04 #@! TF.FileFunction,Paste,Top*
G04 #@! TF.Part,Single*
%AMOUTLINE2*
4,1,4,
0.017637,0.009984,
-0.017794,0.009701,
-0.017637,-0.009984,
0.017794,-0.009701,
0.017637,0.009984,
0*%
%ADD49R,0.116929X0.032283*%
%ADD53R,0.031496X0.098425*%
%ADD57R,0.015748X0.031496*%
%ADD59R,0.031496X0.031496*%
%ADD65R,0.023622X0.066929*%
%ADD67R,0.066929X0.023622*%
%ADD69R,0.023622X0.062992*%
%ADD71R,0.062992X0.055118*%
%ADD81R,0.043307X0.051181*%
%ADD83R,0.051181X0.043307*%
%ADD88OUTLINE2*%
%FSLAX26Y26*%
G04*
G70*
G90*
G75*
G01*
G04 TopPaste*
%LPD*%
D83*
X-330407Y-512369D3*
Y-437566D3*
X143945Y-591339D3*
Y-516535D3*
X38976Y-593701D3*
Y-518898D3*
D81*
X-253937Y-601181D3*
X-179134D3*
D83*
X72835Y-1075197D3*
Y-1000394D3*
D81*
X-362409Y-1135353D3*
X-287606D3*
X-362455Y-1221602D3*
X-287652D3*
X338976Y-1328113D3*
X413780D3*
X338976Y-1516535D3*
X413780D3*
X338976Y-1422047D3*
X413780D3*
X-296738Y-1501042D3*
X-371541D3*
D71*
X-295276Y-822835D3*
Y-712598D3*
D83*
X-82283Y-591732D3*
Y-516929D3*
X-79528Y-818504D3*
Y-743701D3*
X42126Y-818898D3*
Y-744094D3*
X143937Y-822441D3*
Y-747638D3*
X-46457Y-1074016D3*
Y-999213D3*
D69*
X324803Y-834646D3*
Y-700787D3*
X265748Y-834646D3*
Y-700787D3*
D67*
X-247244Y-251969D3*
Y-201969D3*
Y-151969D3*
Y-101969D3*
Y-51969D3*
Y-1969D3*
Y48031D3*
Y98031D3*
Y148031D3*
Y198031D3*
X280315Y-251969D3*
Y-201969D3*
Y-151969D3*
Y-101969D3*
Y-51969D3*
Y-1969D3*
Y48031D3*
Y98031D3*
Y148031D3*
Y198031D3*
D65*
X-8465Y-362205D3*
X41535D3*
X-58465D3*
X91535D3*
X-108465D3*
X141535D3*
X-158465D3*
X191535D3*
D88*
X-337934Y-962269D3*
X-337257Y-1046912D3*
X-174554Y-960962D3*
X-173877Y-1045605D3*
X190412Y-962269D3*
X191089Y-1046912D3*
X353793Y-960962D3*
X354470Y-1045605D3*
D59*
X-333762Y-1401325D3*
D57*
X-266833D3*
Y-1310774D3*
X-341636D3*
D53*
X-121260Y-1555118D3*
X-22835D3*
X55906D3*
X154331D3*
D49*
X-62402Y-1254474D3*
X62402Y-1154474D3*
Y-1354474D3*
M02*
