G04 DipTrace 3.2.0.1*
G04 TopPaste.gbr*
%MOMM*%
G04 #@! TF.FileFunction,Paste,Top*
G04 #@! TF.Part,Single*
%AMOUTLINE2*
4,1,4,
0.44797,0.2536,
-0.45197,0.2464,
-0.44797,-0.2536,
0.45197,-0.2464,
0.44797,0.2536,
0*%
%ADD52R,0.8X2.5*%
%ADD56R,0.4X0.8*%
%ADD58R,0.8X0.8*%
%ADD60R,1.07X0.56*%
%ADD66R,0.6X1.7*%
%ADD68R,1.7X0.6*%
%ADD70R,0.6X1.6*%
%ADD72R,1.6X1.4*%
%ADD74R,1.25X1.0*%
%ADD84R,1.1X1.3*%
%ADD86R,1.3X1.1*%
%ADD90OUTLINE2*%
%FSLAX35Y35*%
G04*
G71*
G90*
G75*
G01*
G04 TopPaste*
%LPD*%
D86*
X-839233Y-1301417D3*
Y-1111417D3*
X382000Y-1502000D3*
Y-1312000D3*
X99000Y-1508000D3*
Y-1318000D3*
D84*
X-645000Y-1527000D3*
X-455000D3*
D86*
X185000Y-2731000D3*
Y-2541000D3*
D84*
X-920520Y-2883797D3*
X-730520D3*
X-920637Y-3102870D3*
X-730637D3*
X861000Y-3373407D3*
X1051000D3*
X861000Y-3852000D3*
X1051000D3*
X861000Y-3612000D3*
X1051000D3*
X-818823Y-3808553D3*
X-1008823D3*
D74*
X628640Y-1268593D3*
Y-1098593D3*
D72*
X-750000Y-2090000D3*
Y-1810000D3*
D86*
X-209000Y-1503000D3*
Y-1313000D3*
X-202000Y-2079000D3*
Y-1889000D3*
X107000Y-2080000D3*
Y-1890000D3*
X383000Y-2089000D3*
Y-1899000D3*
X-118000Y-2728000D3*
Y-2538000D3*
D70*
X825000Y-2120000D3*
Y-1780000D3*
X675000Y-2120000D3*
Y-1780000D3*
D68*
X-628000Y-640000D3*
Y-513000D3*
Y-386000D3*
Y-259000D3*
Y-132000D3*
Y-5000D3*
Y122000D3*
Y249000D3*
Y376000D3*
Y503000D3*
X712000Y-640000D3*
Y-513000D3*
Y-386000D3*
Y-259000D3*
Y-132000D3*
Y-5000D3*
Y122000D3*
Y249000D3*
Y376000D3*
Y503000D3*
D66*
X-21500Y-920000D3*
X105500D3*
X-148500D3*
X232500D3*
X-275500D3*
X359500D3*
X-402500D3*
X486500D3*
D90*
X-858353Y-2444163D3*
X-856633Y-2659157D3*
X-443367Y-2440843D3*
X-441647Y-2655837D3*
X483647Y-2444163D3*
X485367Y-2659157D3*
X898633Y-2440843D3*
X900353Y-2655837D3*
D60*
X-357747Y-3171443D3*
X404253D3*
X-357747Y-3044443D3*
X404253D3*
X-357747Y-3298443D3*
X404253D3*
D58*
X-869153Y-3556666D3*
D56*
X-699153D3*
Y-3326666D3*
X-889153D3*
D52*
X-308000Y-3950000D3*
X-58000D3*
X142000D3*
X392000D3*
M02*
