G04 DipTrace 3.2.0.1*
G04 Верхний.gbr*
%MOMM*%
G04 #@! TF.FileFunction,Copper,L1,Top*
G04 #@! TF.Part,Single*
%AMOUTLINE0*
4,1,4,
0.54717,0.3544,
-0.55277,0.3456,
-0.54717,-0.3544,
0.55277,-0.3456,
0.54717,0.3544,
0*%
%AMOUTLINE9*
4,1,5,
-0.9,0.4,
-0.9,-1.0,
0.9,-1.0,
0.9,1.0,
-0.3,1.0,
-0.9,0.4,
0*%
%AMOUTLINE12*
4,1,5,
-0.9,-1.0,
0.9,-1.0,
0.9,0.4,
0.3,1.0,
-0.9,1.0,
-0.9,-1.0,
0*%
%ADD14C,0.3*%
%ADD15C,0.5*%
%ADD16C,0.6*%
%ADD44C,0.7*%
%ADD45C,1.0*%
G04 #@! TA.AperFunction,CopperBalancing*
%ADD10C,0.25*%
G04 #@! TA.AperFunction,Conductor*
%ADD17C,0.4*%
%ADD18C,0.45*%
%ADD19C,0.35*%
%ADD21R,1.5X1.3*%
%ADD22R,1.3X1.5*%
G04 #@! TA.AperFunction,ComponentPad*
%ADD24C,1.8*%
%ADD25C,1.8*%
%ADD27R,1.45X1.2*%
%ADD28R,1.8X1.6*%
%ADD30R,0.8X1.8*%
%ADD31R,1.9X0.8*%
%ADD32R,0.8X1.9*%
G04 #@! TA.AperFunction,ComponentPad*
%ADD33R,1.1X0.75*%
%ADD34R,0.75X1.1*%
%ADD35R,1.27X0.76*%
%ADD37R,1.0X1.0*%
%ADD38R,0.6X1.0*%
G04 #@! TA.AperFunction,ComponentPad*
%ADD39O,1.4X3.8*%
%ADD40R,1.0X2.7*%
G04 #@! TA.AperFunction,ComponentPad*
%ADD42C,1.2*%
%ADD88OUTLINE0*%
G04 #@! TA.AperFunction,ComponentPad*
%ADD97OUTLINE9*%
%ADD100OUTLINE12*%
%FSLAX35Y35*%
G04*
G71*
G90*
G75*
G01*
G04 Top*
%LPD*%
X-578127Y-1140000D2*
D14*
X-503000D1*
X-410000Y-1047000D1*
Y-927500D1*
X-402500Y-920000D1*
X-839233Y-1111417D2*
X-816650Y-1134000D1*
X-584127D1*
X-578127Y-1140000D1*
Y-1350000D2*
X-455000D1*
X-426000D1*
X-388000Y-1312000D1*
Y-1160000D1*
X-275500Y-1047500D1*
Y-920000D1*
X-455000Y-1527000D2*
Y-1350000D1*
X-962180Y-1547077D2*
D15*
X-665077D1*
D14*
X-645000Y-1527000D1*
X-962180Y-1547077D2*
D15*
X-835143D1*
Y-1305507D1*
D14*
X-839233Y-1301417D1*
X-628000Y-5000D2*
D16*
X-751700D1*
Y-5550D1*
X-962180Y-1547077D2*
D15*
X-1046000Y-1630897D1*
Y-2444163D1*
X-858353D1*
X-1043413D2*
Y-2889000D1*
Y-2710400D1*
Y-2883797D1*
Y-3102870D1*
Y-3223637D1*
Y-3556666D1*
X-869153D1*
X-1043413Y-2710400D2*
D14*
X-1057510Y-2724497D1*
Y-3794340D1*
X-1043297Y-3808553D1*
X-1008823D1*
X-1230000Y-2889000D2*
D15*
X-1043413D1*
X423000Y-710000D2*
D17*
Y-647380D1*
X277540Y-501920D1*
X124330D1*
X-281123Y-96467D1*
X-342067D1*
X-433533Y-5000D1*
X-628000D1*
X-1045267Y-3223637D2*
D14*
X-1043413D1*
X-920637Y-3102870D2*
D15*
X-1043413D1*
X-920520Y-2883797D2*
X-1043413D1*
X1272000Y-1118000D2*
X1290420D1*
X1093323Y-1315097D1*
Y-1496563D1*
X1296777Y-1700017D1*
Y-2652013D1*
X1268460D1*
X1333000Y-2716553D1*
Y-3771000D1*
X1252000Y-3852000D1*
X1051000D1*
X900353Y-2655837D2*
D14*
X1292953D1*
X1296777Y-2652013D1*
X861000Y-3373407D2*
D15*
Y-3020947D1*
X900353Y-2981593D1*
Y-2655837D1*
X486500Y-920000D2*
D16*
Y-986840D1*
X598253Y-1098593D1*
X628640D1*
X106000Y-1084000D2*
X105500Y-920000D1*
X629063Y-1354240D2*
X628640D1*
Y-1268593D1*
X106000Y-1084000D2*
Y-1311000D1*
D14*
X99000Y-1318000D1*
X629063Y-1354240D2*
Y-1518397D1*
X680580Y-1569913D1*
Y-1780000D1*
X675000D1*
X-616487Y-2141000D2*
D15*
X-750000D1*
Y-2090000D1*
D14*
Y-2061303D1*
X-675007Y-2136297D1*
Y-2518453D1*
X-644387Y-2549073D1*
X-316077D1*
X-265460Y-2599690D1*
Y-2687567D1*
X-225027Y-2728000D1*
X-118000D1*
X359500Y-920000D2*
D15*
Y-1289500D1*
X382000Y-1312000D1*
D18*
X418853D1*
X534220Y-1427367D1*
Y-1635497D1*
X495317Y-1674400D1*
X-235637D1*
X-392877Y-1831640D1*
Y-2253390D1*
X-305660Y-2340607D1*
X613930D1*
X693097Y-2419773D1*
Y-3044443D1*
X404253D1*
X688123Y-3047167D2*
D14*
X693097Y-3044443D1*
X712000Y-513000D2*
D15*
X837423D1*
X896147Y-571723D1*
Y-1495997D1*
X-209000Y-1208000D2*
D14*
Y-1313000D1*
X233990Y-1588557D2*
D15*
Y-1508000D1*
D14*
X99000D1*
X232000Y-1106000D2*
D15*
Y-920000D1*
X232500D1*
X99000Y-1508000D2*
X376000D1*
D14*
X382000Y-1502000D1*
X-41977Y-1084983D2*
Y-920000D1*
X-21500D1*
X-200220Y-1779233D2*
X-202000Y-1781013D1*
Y-1889000D1*
X-750000Y-1810000D2*
Y-1788247D1*
X-736623Y-1774870D1*
X-469647D1*
X-203387Y-1508613D1*
X-209000Y-1503000D1*
X383000Y-1899000D2*
Y-1889040D1*
X262853Y-1768893D1*
X383000Y-2089000D2*
D10*
X486377D1*
X625090Y-1950287D1*
X809363D1*
X829723Y-1929927D1*
Y-1784723D1*
X825000Y-1780000D1*
X107000Y-2080000D2*
Y-2184000D1*
X134617Y-2211617D1*
X632567D1*
X675000Y-2169183D1*
Y-2120000D1*
X-202000Y-2079000D2*
Y-2235000D1*
X-170103Y-2266897D1*
X777730D1*
X825000Y-2219630D1*
Y-2120000D1*
X105357Y-1769187D2*
D14*
X107000Y-1890000D1*
X712000Y122000D2*
D10*
X875277D1*
X959370Y37907D1*
Y-354547D1*
X1088487Y-483663D1*
Y-680487D1*
X1272000Y-864000D1*
X-762807Y-640000D2*
D14*
X-628000D1*
X-1230000Y-356000D2*
X-1159203D1*
X-913947Y-110743D1*
X-907450D1*
X-759317Y-255560D2*
X-631440D1*
X-628000Y-259000D1*
Y503000D2*
X-821407D1*
X-926237Y398170D1*
Y318023D1*
X-923397Y320863D1*
X-820757Y-414323D2*
X-792433Y-386000D1*
X-628000D1*
X-787590Y-518083D2*
X-633083D1*
X-628000Y-513000D1*
X-339000Y-710000D2*
Y-733253D1*
X-449147D1*
X-578467Y-862573D1*
Y-1006473D1*
X-350233Y-2655177D2*
X-441647Y-2655837D1*
X713073Y-1447330D2*
Y-1396640D1*
X758797Y-1350917D1*
Y-942847D1*
X532833Y-716883D1*
Y-650093D1*
X336950Y-454210D1*
Y383873D1*
X395093Y442017D1*
X497017D1*
X502000Y447000D1*
X898633Y-2440843D2*
X932663D1*
Y-1664260D1*
X819367Y-1550963D1*
Y-854510D1*
X785977Y-821120D1*
Y-640000D1*
X712000D1*
X185000Y-2731000D2*
Y-2718000D1*
X334997D1*
X393840Y-2659157D1*
X485367D1*
X185000Y-2541000D2*
X315437D1*
X412273Y-2444163D1*
X483647D1*
X-118000Y-2538000D2*
X185000D1*
Y-2541000D1*
X392000Y-3950000D2*
D15*
Y-3778000D1*
X558000Y-3612000D1*
X717000D1*
X861000D1*
Y-3852000D1*
X705000Y-3612000D2*
X717000D1*
X-595307Y-2902200D2*
D17*
X-712117D1*
D14*
X-730520Y-2883797D1*
D17*
Y-3102753D1*
D14*
X-730637Y-3102870D1*
X-889153Y-3326667D2*
X-905900D1*
D19*
X-761153Y-3181920D1*
Y-3133387D1*
D14*
X-730637Y-3102870D1*
X1042370Y-3192390D2*
D15*
Y-3559490D1*
X1030610Y-3571250D1*
Y-3612000D1*
X1051000D1*
Y-3373407D2*
D17*
Y-3612000D1*
X132433Y-3134207D2*
D15*
X42670Y-3044443D1*
X-357747D1*
X79550Y-3735653D2*
D14*
X78960Y-3736247D1*
X142000Y-3950000D2*
Y-3798103D1*
X79550Y-3735653D1*
X-73397Y-3582707D1*
X-673113D1*
X-699153Y-3556667D1*
X-357747Y-3298443D2*
X-466177D1*
X-643300Y-3475567D1*
X-663383D1*
X-692447Y-3504630D1*
Y-3549960D1*
X-699153Y-3556667D1*
X599577Y-3250830D2*
X592400D1*
X513013Y-3171443D1*
X404253D1*
X1033067Y-1233920D2*
D10*
Y-1124040D1*
X1026183Y-1117157D1*
Y-503423D1*
X884000Y-361240D1*
Y-294293D1*
X845707Y-256000D1*
X715000D1*
X712000Y-259000D1*
X598513Y-3412357D2*
D14*
X481293Y-3295137D1*
X404253D1*
Y-3298443D1*
X974593Y-1323500D2*
D10*
X968627D1*
Y-532523D1*
X826103Y-390000D1*
X716000D1*
X712000Y-386000D1*
X-308000Y-3950000D2*
D16*
Y-3852143D1*
X-545467D1*
X-605400Y-3792210D1*
X-818823D1*
Y-3808553D1*
X-310353Y-3773427D2*
Y-3947647D1*
D14*
X-308000Y-3950000D1*
X842570Y-132553D2*
X712553D1*
X712000Y-132000D1*
X-1230000Y-102000D2*
X-1073497D1*
X-927997Y43500D1*
Y107917D1*
X-784307Y251607D1*
X-630607D1*
X-628000Y249000D1*
Y376000D2*
X-786527D1*
X-816417Y346110D1*
Y342387D1*
X-1069560Y89243D1*
Y24177D1*
X-1073273Y20463D1*
X712000Y249000D2*
D10*
Y242293D1*
X857183D1*
X1016580Y82897D1*
Y-320860D1*
X1153323Y-457603D1*
Y-533117D1*
X1257230Y-637023D1*
Y-610000D1*
X1272000D1*
X712000Y503000D2*
D14*
X836937D1*
X837007Y502930D1*
X712000Y376000D2*
X837087D1*
Y374127D1*
X712000Y-5000D2*
X838183Y-7077D1*
X-1230000Y-609000D2*
X-1101177D1*
X-1057657Y-565480D1*
Y-431187D1*
X-1010443Y-383973D1*
Y-311103D1*
X-835030Y-135690D1*
Y66533D1*
X-778263Y123300D1*
X-629300D1*
X-628000Y122000D1*
Y-132000D2*
Y-145430D1*
X-759467D1*
X-949193Y-335157D1*
Y-399637D1*
X-989747Y-440190D1*
Y-794417D1*
X-1066967Y-871637D1*
X-1221363D1*
X-1230000Y-863000D1*
X-58000Y-3950000D2*
D17*
Y-4118257D1*
X-6737Y-4169520D1*
X41383D1*
X-699153Y-3326667D2*
D14*
Y-3339737D1*
X-773283Y-3413867D1*
Y-3641723D1*
X-746950Y-3668057D1*
X-159867D1*
X-67570Y-3760353D1*
Y-3940430D1*
X-58000Y-3950000D1*
X-357747Y-3171443D2*
X-543930D1*
X-699153Y-3326667D1*
D16*
X837007Y502930D3*
X837087Y374127D3*
X-923397Y320863D3*
X-1073273Y20463D3*
X-751700Y-5550D3*
X838183Y-7077D3*
X-907450Y-110743D3*
X-759317Y-255560D3*
X-820757Y-414323D3*
X-787590Y-518083D3*
X-762807Y-640000D3*
X-578467Y-1006473D3*
X106000Y-1084000D3*
X-41977Y-1084983D3*
X232000Y-1106000D3*
X-209000Y-1208000D3*
X1033067Y-1233920D3*
X974593Y-1323500D3*
X629063Y-1354240D3*
X713073Y-1447330D3*
X896147Y-1495997D3*
X-962180Y-1547077D3*
X233990Y-1588557D3*
X105357Y-1769187D3*
X262853Y-1768893D3*
X-200220Y-1779233D3*
X-616487Y-2141000D3*
X-350233Y-2655177D3*
X-595307Y-2902200D3*
X688123Y-3047167D3*
X132433Y-3134207D3*
X1042370Y-3192390D3*
X-1045267Y-3223637D3*
X599577Y-3250830D3*
X598513Y-3412357D3*
X705000Y-3612000D3*
X79550Y-3735653D3*
X-310353Y-3773427D3*
X41383Y-4169520D3*
X842570Y-132553D3*
X-1260297Y580333D2*
D15*
X-876273D1*
X915903D2*
X1300653D1*
X-1113917Y530667D2*
X-928863D1*
X945343D2*
X1155917D1*
X-1075817Y481000D2*
X-978537D1*
X946710D2*
X1117817D1*
X-1059957Y431333D2*
X-1017093D1*
X932490D2*
X1101957D1*
X-1059773Y381667D2*
X-1023200D1*
X948807D2*
X1101773D1*
X-1075270Y332000D2*
X-1034773D1*
X940420D2*
X1117270D1*
X-1112730Y282333D2*
X-1028213D1*
X948713D2*
X1154730D1*
X-1078733Y232667D2*
X-1061197D1*
X998390D2*
X1120733D1*
X1048063Y183000D2*
X1102870D1*
X1111047Y34000D2*
X1148807D1*
X1111047Y-214333D2*
X1143430D1*
X1111047Y-264000D2*
X1127603D1*
X-892703Y-611667D2*
X-870980D1*
X-892703Y-661333D2*
X-872607D1*
X-892703Y-711000D2*
X-847833D1*
X-892703Y-760667D2*
X-802810D1*
X-894163Y-810333D2*
X-802990D1*
X-920230Y-860000D2*
X-802080D1*
X-969903Y-909667D2*
X-772457D1*
X-1034163Y-959333D2*
X-722783D1*
X-1097600Y-1009000D2*
X-996220D1*
X1120707D2*
X1140513D1*
X-1068523Y-1058667D2*
X-996220D1*
X-1058227Y-1108333D2*
X-996220D1*
X-1063147Y-1158000D2*
X-996220D1*
X-1084750Y-1207667D2*
X-996220D1*
X-1102613Y-1257333D2*
X-996220D1*
X-1070713Y-1307000D2*
X-996220D1*
X-1058590Y-1356667D2*
X-996220D1*
X1081333D2*
X1100637D1*
X-1061780Y-1406333D2*
X-996220D1*
X1047333D2*
X1103597D1*
X-1081287Y-1456000D2*
X-791963D1*
X1003130D2*
X1122647D1*
X-1111180Y-1505667D2*
X-791963D1*
X1007687D2*
X1166853D1*
X-1076727Y-1555333D2*
X-791963D1*
X990187D2*
X1346593D1*
X-1063057Y-1605000D2*
X-791963D1*
X1008050D2*
X1346593D1*
X-1064880Y-1654667D2*
X-922027D1*
X1029197D2*
X1346593D1*
X-1082560Y-1704333D2*
X-922027D1*
X1029653D2*
X1346500D1*
X-1113097Y-1754000D2*
X-922027D1*
X1029653D2*
X1346500D1*
X-1075453Y-1803667D2*
X-922027D1*
X1029653D2*
X1346500D1*
X-1059867Y-1853333D2*
X-922027D1*
X1029653D2*
X1346410D1*
X-1059867Y-1903000D2*
X-922027D1*
X-577977D2*
X-497380D1*
X1029653D2*
X1346410D1*
X-1075633Y-1952667D2*
X-922027D1*
X-577977D2*
X-497380D1*
X1029653D2*
X1346320D1*
X-1113550Y-2002333D2*
X-922027D1*
X-577977D2*
X-497380D1*
X1029653D2*
X1346320D1*
X-1082380Y-2052000D2*
X-922027D1*
X-552093D2*
X-497380D1*
X1029653D2*
X1346320D1*
X-1064787Y-2101667D2*
X-922027D1*
X1029653D2*
X1346227D1*
X-1063147Y-2151333D2*
X-922027D1*
X1029653D2*
X1346227D1*
X-1076910Y-2201000D2*
X-922027D1*
X-522927D2*
X-497403D1*
X1029653D2*
X1346227D1*
X-1111453Y-2250667D2*
X-772000D1*
X-577977D2*
X-497380D1*
X1029653D2*
X1346137D1*
X-1081650Y-2300333D2*
X-772000D1*
X-577977D2*
X-485620D1*
X1029653D2*
X1346137D1*
X-1061963Y-2350000D2*
X-967417D1*
X-577977D2*
X-556110D1*
X1029653D2*
X1346137D1*
X-1058590Y-2399667D2*
X-994943D1*
X1035120D2*
X1346047D1*
X-1070440Y-2449333D2*
X-995310D1*
X-306273D2*
X-274983D1*
X1035667D2*
X1346047D1*
X-1102067Y-2499000D2*
X-992573D1*
X1032203D2*
X1345953D1*
X-1086023Y-2548667D2*
X-952107D1*
X797597D2*
X812683D1*
X988090D2*
X1345953D1*
X-1066063Y-2598333D2*
X-989293D1*
X1033847D2*
X1345953D1*
X-1062510Y-2648000D2*
X-993760D1*
X-719710D2*
X-578680D1*
X1037310D2*
X1345863D1*
X-1074177Y-2697667D2*
X-993303D1*
X-719437D2*
X-578133D1*
X1037310D2*
X1345863D1*
X-1105440Y-2747333D2*
X-1067497D1*
X-583537D2*
X-554163D1*
X1012427D2*
X1345863D1*
X-1085660Y-2797000D2*
X-1067590D1*
X-570777D2*
X-290843D1*
X387167D2*
X588623D1*
X797597D2*
X1345773D1*
X-498863Y-2846667D2*
X-274983D1*
X341957D2*
X588623D1*
X797597D2*
X1345773D1*
X-483460Y-2896333D2*
X588623D1*
X797597D2*
X1345680D1*
X74353Y-2946000D2*
X258767D1*
X797597D2*
X1345680D1*
X-1096507Y-2995667D2*
X-1067680D1*
X-538237D2*
X-503213D1*
X143167D2*
X258767D1*
X797597D2*
X1345680D1*
X-1166233Y-3045333D2*
X-1067680D1*
X-583630D2*
X-503213D1*
X197037D2*
X258767D1*
X800147D2*
X1345590D1*
X-1301677Y-3095000D2*
X-1067680D1*
X236957D2*
X258830D1*
X788847D2*
X993037D1*
X1091723D2*
X1345590D1*
X-1301583Y-3144667D2*
X-1067680D1*
X621320D2*
X639023D1*
X737167D2*
X941630D1*
X1143130D2*
X1345590D1*
X-1301583Y-3194333D2*
X-1067680D1*
X-212210D2*
X38923D1*
X225930D2*
X258767D1*
X695420D2*
X930420D1*
X1154340D2*
X1345500D1*
X-1301493Y-3244000D2*
X-1067680D1*
X-212210D2*
X258767D1*
X1198000D2*
X1345500D1*
X-1116287Y-3293667D2*
X-1001143D1*
X-212210D2*
X258767D1*
X1198000D2*
X1345500D1*
X-1079097Y-3343333D2*
X-1003877D1*
X-212210D2*
X258767D1*
X685303D2*
X714013D1*
X1198000D2*
X1345407D1*
X-1063693Y-3393000D2*
X-1001143D1*
X-212210D2*
X258767D1*
X1198000D2*
X1345407D1*
X-1063967Y-3442667D2*
X-1001143D1*
X-475257D2*
X490917D1*
X1198000D2*
X1345317D1*
X-1080010Y-3492333D2*
X-1001143D1*
X-51153D2*
X522453D1*
X674640D2*
X714040D1*
X1198000D2*
X1345317D1*
X-1118380Y-3542000D2*
X-1001143D1*
X21033D2*
X478793D1*
X1198000D2*
X1345317D1*
X-1078003Y-3591667D2*
X-1001143D1*
X70707D2*
X429120D1*
X1198000D2*
X1345227D1*
X-1060597Y-3641333D2*
X-1001143D1*
X135057D2*
X379443D1*
X1198000D2*
X1345227D1*
X181813Y-3691000D2*
X329770D1*
X1198000D2*
X1345227D1*
X578570Y-3740667D2*
X714040D1*
X1198000D2*
X1345133D1*
X528897Y-3790333D2*
X714040D1*
X1198000D2*
X1345133D1*
X-1301130Y-3840000D2*
X-1155817D1*
X523977D2*
X714040D1*
X1198000D2*
X1345133D1*
X-1301130Y-3889667D2*
X-1155817D1*
X523977D2*
X714040D1*
X1198000D2*
X1345043D1*
X-1301037Y-3939333D2*
X-1155817D1*
X-671857D2*
X-612497D1*
X523977D2*
X714040D1*
X1198000D2*
X1345043D1*
X-1301037Y-3989000D2*
X-654787D1*
X1198000D2*
X1343950D1*
X-1301037Y-4038667D2*
X-685777D1*
X769703D2*
X1340213D1*
X-1294020Y-4088333D2*
X-694983D1*
X779000D2*
X1336477D1*
X-1283447Y-4138000D2*
X-694983D1*
X779000D2*
X1320433D1*
X-1263120Y-4187667D2*
X-694983D1*
X779000D2*
X1304120D1*
X-1240517Y-4237333D2*
X-694983D1*
X779000D2*
X1273583D1*
X-1200413Y-4287000D2*
X-694983D1*
X-52797D2*
X136813D1*
X779000D2*
X1237857D1*
X-1154383Y-4336667D2*
X-694893D1*
X-103380D2*
X187400D1*
X778820D2*
X1195380D1*
X-1089580Y-4386333D2*
X-683773D1*
X-149047D2*
X231970D1*
X767790D2*
X1120370D1*
X-951310Y-4436000D2*
X-649867D1*
X-153330D2*
X236163D1*
X733883D2*
X982557D1*
X-687233Y-1253423D2*
Y-1267133D1*
X-675000Y-1253127D1*
X-666077Y-1245017D1*
X-682303Y-1228973D1*
X-684670Y-1225970D1*
X-687233Y-1226083D1*
X-687323Y-1253417D1*
X-787000Y-1443417D2*
X-991233D1*
Y-969417D1*
X-707680D1*
X-779717Y-897067D1*
X-786820Y-887293D1*
X-792307Y-876527D1*
X-796040Y-865037D1*
X-797930Y-853100D1*
X-797803Y-756973D1*
X-800000Y-757000D1*
Y-740320D1*
X-811383Y-735337D1*
X-825700Y-726563D1*
X-838467Y-715660D1*
X-849370Y-702893D1*
X-858143Y-688577D1*
X-864570Y-673063D1*
X-868490Y-656740D1*
X-869807Y-640000D1*
X-868490Y-623260D1*
X-864570Y-606937D1*
X-860467Y-596460D1*
X-868953Y-587573D1*
X-878823Y-573990D1*
X-886447Y-559030D1*
X-891633Y-543063D1*
X-894260Y-526480D1*
Y-509687D1*
X-891870Y-494297D1*
X-897730Y-488563D1*
X-898030Y-801633D1*
X-900290Y-815893D1*
X-904750Y-829623D1*
X-911303Y-842487D1*
X-919790Y-854167D1*
X-1001913Y-936690D1*
X-1012890Y-946067D1*
X-1025200Y-953610D1*
X-1038537Y-959133D1*
X-1052573Y-962503D1*
X-1066967Y-963637D1*
X-1096770D1*
X-1111913Y-981087D1*
X-1121543Y-990013D1*
X-1103013Y-1008543D1*
X-1087610Y-1029743D1*
X-1075713Y-1053093D1*
X-1067613Y-1078013D1*
X-1063513Y-1103897D1*
Y-1130103D1*
X-1067613Y-1155987D1*
X-1075713Y-1180907D1*
X-1087610Y-1204257D1*
X-1103013Y-1225457D1*
X-1121543Y-1244013D1*
X-1103013Y-1262543D1*
X-1087610Y-1283743D1*
X-1075713Y-1307093D1*
X-1067613Y-1332013D1*
X-1063513Y-1357897D1*
Y-1384103D1*
X-1067613Y-1409987D1*
X-1075713Y-1434907D1*
X-1087610Y-1458257D1*
X-1103013Y-1479457D1*
X-1121543Y-1497987D1*
X-1123030Y-1499160D1*
X-1107013Y-1515543D1*
X-1091610Y-1536743D1*
X-1079713Y-1560093D1*
X-1071613Y-1585013D1*
X-1067513Y-1610897D1*
Y-1637103D1*
X-1071613Y-1662987D1*
X-1079713Y-1687907D1*
X-1091610Y-1711257D1*
X-1107013Y-1732457D1*
X-1123623Y-1749213D1*
X-1111913Y-1759913D1*
X-1094893Y-1779840D1*
X-1081203Y-1802183D1*
X-1071173Y-1826393D1*
X-1065057Y-1851877D1*
X-1063000Y-1878000D1*
X-1065057Y-1904123D1*
X-1071173Y-1929607D1*
X-1081203Y-1953817D1*
X-1094893Y-1976160D1*
X-1111913Y-1996087D1*
X-1123673Y-2006670D1*
X-1107013Y-2023543D1*
X-1091610Y-2044743D1*
X-1079713Y-2068093D1*
X-1071613Y-2093013D1*
X-1067513Y-2118897D1*
Y-2145103D1*
X-1071613Y-2170987D1*
X-1079713Y-2195907D1*
X-1091610Y-2219257D1*
X-1107013Y-2240457D1*
X-1123623Y-2257213D1*
X-1111913Y-2267913D1*
X-1094893Y-2287840D1*
X-1081203Y-2310183D1*
X-1071173Y-2334393D1*
X-1065057Y-2359877D1*
X-1063000Y-2386000D1*
X-1065057Y-2412123D1*
X-1071173Y-2437607D1*
X-1081203Y-2461817D1*
X-1094893Y-2484160D1*
X-1111913Y-2504087D1*
X-1120753Y-2512257D1*
X-1107013Y-2526543D1*
X-1091610Y-2547743D1*
X-1079713Y-2571093D1*
X-1071613Y-2596013D1*
X-1067513Y-2621897D1*
Y-2648103D1*
X-1071613Y-2673987D1*
X-1079713Y-2698907D1*
X-1091610Y-2722257D1*
X-1107013Y-2743457D1*
X-1123623Y-2760213D1*
X-1107837Y-2775137D1*
X-1095897Y-2789473D1*
X-1085633Y-2805053D1*
X-1077170Y-2821680D1*
X-1070613Y-2839147D1*
X-1066050Y-2857237D1*
X-1063530Y-2875723D1*
X-1063067Y-2893667D1*
X-1064627Y-2912257D1*
X-1068253Y-2930560D1*
X-1073900Y-2948340D1*
X-1081493Y-2965383D1*
X-1090940Y-2981470D1*
X-1102120Y-2996407D1*
X-1114900Y-3010000D1*
X-1129113Y-3022083D1*
X-1144590Y-3032507D1*
X-1161130Y-3041137D1*
X-1178530Y-3047870D1*
X-1196570Y-3052620D1*
X-1215030Y-3055327D1*
X-1233677Y-3055960D1*
X-1252277Y-3054507D1*
X-1270600Y-3050990D1*
X-1288417Y-3045450D1*
X-1306680Y-3037340D1*
X-1306520Y-3266387D1*
X-1285607Y-3258073D1*
X-1260123Y-3251957D1*
X-1234000Y-3249900D1*
X-1207877Y-3251957D1*
X-1182393Y-3258073D1*
X-1158183Y-3268103D1*
X-1135840Y-3281793D1*
X-1115913Y-3298813D1*
X-1098893Y-3318740D1*
X-1085203Y-3341083D1*
X-1075173Y-3365293D1*
X-1069057Y-3390777D1*
X-1067000Y-3416900D1*
X-1069057Y-3443023D1*
X-1075173Y-3468507D1*
X-1085203Y-3492717D1*
X-1098893Y-3515060D1*
X-1115913Y-3534987D1*
X-1123623Y-3542113D1*
X-1111913Y-3552813D1*
X-1094893Y-3572740D1*
X-1081203Y-3595083D1*
X-1071173Y-3619293D1*
X-1065057Y-3644777D1*
X-1063667Y-3656527D1*
X-996150Y-3656553D1*
X-996153Y-3354590D1*
X-999237Y-3341450D1*
X-1000400Y-3326667D1*
X-999237Y-3311883D1*
X-996160Y-3298830D1*
X-996153Y-3254877D1*
X-1062637Y-3254870D1*
X-1062520Y-2731797D1*
X-978757D1*
X-984390Y-2718977D1*
X-987303Y-2707250D1*
X-988347Y-2695190D1*
X-988720Y-2619170D1*
X-986923Y-2607220D1*
X-983283Y-2595700D1*
X-977883Y-2584890D1*
X-970860Y-2575060D1*
X-962383Y-2566447D1*
X-952667Y-2559267D1*
X-941923Y-2553687D1*
X-939880Y-2551787D1*
X-952490Y-2545747D1*
X-963800Y-2537530D1*
X-973440Y-2527400D1*
X-981087Y-2515697D1*
X-986490Y-2502803D1*
X-989477Y-2489147D1*
X-990217Y-2461553D1*
X-990137Y-2400903D1*
X-987303Y-2387213D1*
X-982040Y-2374263D1*
X-974523Y-2362473D1*
X-964997Y-2352240D1*
X-953777Y-2343900D1*
X-941237Y-2337723D1*
X-927783Y-2333917D1*
X-918510Y-2332760D1*
X-799207Y-2331850D1*
X-785380Y-2333920D1*
X-772153Y-2338453D1*
X-767940Y-2340497D1*
X-767007Y-2331787D1*
Y-2246930D1*
X-917000Y-2247000D1*
Y-1653000D1*
X-786933D1*
X-787000Y-1443423D1*
X-687233Y-989923D2*
Y-1042060D1*
X-680230Y-1039537D1*
X-684150Y-1023213D1*
X-685467Y-1006473D1*
X-684493Y-992637D1*
X461420Y-1170000D2*
X479103D1*
X479230Y-1131593D1*
X461560Y-1113220D1*
X461500Y-1170013D1*
X-53000Y-1574987D2*
Y-1191393D1*
X-57000Y-1194333D1*
Y-1574920D1*
X-503950Y-1679000D2*
X-583063D1*
X-573290Y-1682870D1*
X-507757D1*
X723667Y-3221407D2*
X939373D1*
X936687Y-3209130D1*
X935370Y-3192390D1*
X936687Y-3175650D1*
X940607Y-3159327D1*
X947033Y-3143813D1*
X955807Y-3129497D1*
X966710Y-3116730D1*
X979477Y-3105827D1*
X993793Y-3097053D1*
X1009307Y-3090627D1*
X1025630Y-3086707D1*
X1042370Y-3085390D1*
X1059110Y-3086707D1*
X1075433Y-3090627D1*
X1090947Y-3097053D1*
X1105263Y-3105827D1*
X1118030Y-3116730D1*
X1128933Y-3129497D1*
X1137707Y-3143813D1*
X1144133Y-3159327D1*
X1148053Y-3175650D1*
X1149370Y-3192390D1*
X1148053Y-3209130D1*
X1145283Y-3221380D1*
X1193000Y-3221407D1*
Y-4004000D1*
X746243D1*
X757977Y-4023263D1*
X766807Y-4044573D1*
X772190Y-4067003D1*
X774000Y-4090000D1*
X773547Y-4341533D1*
X769940Y-4364317D1*
X762810Y-4386253D1*
X752337Y-4406807D1*
X738780Y-4425470D1*
X722470Y-4441780D1*
X718623Y-4445347D1*
X925180Y-4445003D1*
X1017667Y-4431657D1*
X1109603Y-4396590D1*
X1198383Y-4338980D1*
X1259833Y-4267117D1*
X1308233Y-4190237D1*
X1341297Y-4090080D1*
X1350000Y-3975040D1*
X1351650Y-1518783D1*
X1335907Y-1526287D1*
X1310987Y-1534387D1*
X1285103Y-1538487D1*
X1258897D1*
X1233013Y-1534387D1*
X1208093Y-1526287D1*
X1184743Y-1514390D1*
X1163543Y-1498987D1*
X1145013Y-1480457D1*
X1129610Y-1459257D1*
X1117713Y-1435907D1*
X1109613Y-1410987D1*
X1105513Y-1385103D1*
Y-1358897D1*
X1109613Y-1333013D1*
X1117713Y-1308093D1*
X1129610Y-1284743D1*
X1145013Y-1263543D1*
X1163583Y-1244980D1*
X1148497Y-1230410D1*
X1139027Y-1219013D1*
X1140067Y-1233920D1*
X1138750Y-1250660D1*
X1134830Y-1266983D1*
X1128403Y-1282497D1*
X1119630Y-1296813D1*
X1108727Y-1309580D1*
X1095960Y-1320483D1*
X1081437Y-1329353D1*
X1078637Y-1348480D1*
X1073450Y-1364447D1*
X1065827Y-1379407D1*
X1055957Y-1392990D1*
X1044083Y-1404863D1*
X1030500Y-1414733D1*
X1015540Y-1422357D1*
X998123Y-1427833D1*
X998147Y-1463587D1*
X1001830Y-1479257D1*
X1003147Y-1495997D1*
X1001830Y-1512737D1*
X997910Y-1529060D1*
X991483Y-1544573D1*
X982710Y-1558890D1*
X970963Y-1572437D1*
X1002620Y-1604510D1*
X1011107Y-1616190D1*
X1017660Y-1629053D1*
X1022120Y-1642783D1*
X1024380Y-1657043D1*
X1024663Y-1780927D1*
Y-2376383D1*
X1028077Y-2386830D1*
X1030063Y-2398747D1*
X1030907Y-2474787D1*
X1030057Y-2486840D1*
X1027330Y-2498610D1*
X1022797Y-2509810D1*
X1016563Y-2520163D1*
X1008790Y-2529413D1*
X999667Y-2537333D1*
X989417Y-2543730D1*
X983923Y-2546313D1*
X982237Y-2548347D1*
X994817Y-2554447D1*
X1006087Y-2562723D1*
X1015673Y-2572897D1*
X1023263Y-2584640D1*
X1028607Y-2597560D1*
X1031523Y-2611233D1*
X1032180Y-2633780D1*
X1032137Y-2699097D1*
X1029303Y-2712787D1*
X1024040Y-2725737D1*
X1016523Y-2737527D1*
X1006997Y-2747760D1*
X995780Y-2756103D1*
X983237Y-2762277D1*
X969783Y-2766087D1*
X960510Y-2767243D1*
X841587Y-2768170D1*
X827750Y-2766170D1*
X814503Y-2761703D1*
X802283Y-2754913D1*
X794893Y-2749190D1*
X792597Y-2769773D1*
Y-3023980D1*
X794793Y-3038770D1*
Y-3055563D1*
X792167Y-3072147D1*
X786980Y-3088113D1*
X779357Y-3103073D1*
X769487Y-3116657D1*
X757613Y-3128530D1*
X744030Y-3138400D1*
X729070Y-3146023D1*
X713103Y-3151210D1*
X696520Y-3153837D1*
X679727D1*
X663143Y-3151210D1*
X647177Y-3146023D1*
X642677Y-3143947D1*
X615530Y-3143943D1*
X640523Y-3151973D1*
X655483Y-3159597D1*
X669067Y-3169467D1*
X680940Y-3181340D1*
X690810Y-3194923D1*
X698433Y-3209883D1*
X703620Y-3225850D1*
X706247Y-3242433D1*
Y-3259227D1*
X703620Y-3275810D1*
X698433Y-3291777D1*
X690810Y-3306737D1*
X680940Y-3320320D1*
X669237Y-3332037D1*
X679877Y-3342867D1*
X689747Y-3356450D1*
X697370Y-3371410D1*
X702557Y-3387377D1*
X705183Y-3403960D1*
Y-3420753D1*
X702557Y-3437337D1*
X697370Y-3453303D1*
X689747Y-3468263D1*
X679877Y-3481847D1*
X668003Y-3493720D1*
X654420Y-3503590D1*
X642113Y-3509990D1*
X672753Y-3510000D1*
X688260Y-3506317D1*
X705000Y-3505000D1*
X718967Y-3505990D1*
X719000Y-3221407D1*
X723667D1*
X719000Y-3975290D2*
Y-3718077D1*
X705000Y-3719000D1*
X688260Y-3717683D1*
X672787Y-3714003D1*
X600243Y-3714000D1*
X518950Y-3795300D1*
X519000Y-3990227D1*
X531530Y-3978220D1*
X550193Y-3964663D1*
X570747Y-3954190D1*
X592683Y-3947060D1*
X615467Y-3943453D1*
X638533D1*
X661317Y-3947060D1*
X683253Y-3954190D1*
X703807Y-3964663D1*
X719033Y-3975513D1*
X-676823Y-3899273D2*
Y-3960553D1*
X-1150823D1*
Y-3817947D1*
X-1166093Y-3825187D1*
X-1191013Y-3833287D1*
X-1216897Y-3837387D1*
X-1243103D1*
X-1268987Y-3833287D1*
X-1293907Y-3825187D1*
X-1306130Y-3819523D1*
X-1306000Y-4055343D1*
X-1287077Y-4144310D1*
X-1247440Y-4234907D1*
X-1176253Y-4323180D1*
X-1100857Y-4383497D1*
X-996077Y-4430700D1*
X-866433Y-4447987D1*
X-631153Y-4447603D1*
X-646943Y-4433943D1*
X-661927Y-4416403D1*
X-673977Y-4396737D1*
X-682807Y-4375427D1*
X-688190Y-4352997D1*
X-689997Y-4329953D1*
X-689547Y-4078467D1*
X-685940Y-4055683D1*
X-678810Y-4033747D1*
X-668337Y-4013193D1*
X-654780Y-3994530D1*
X-638470Y-3978220D1*
X-619807Y-3964663D1*
X-599253Y-3954190D1*
X-588383Y-3950183D1*
X-601373Y-3943377D1*
X-614957Y-3933507D1*
X-649680Y-3899253D1*
X-676767Y-3899210D1*
X-1121567Y279003D2*
X-1107837Y265863D1*
X-1095897Y251527D1*
X-1085633Y235947D1*
X-1077170Y219320D1*
X-1074943Y213990D1*
X-1018023Y270887D1*
X-1025160Y287800D1*
X-1029080Y304123D1*
X-1030397Y320863D1*
X-1029080Y337603D1*
X-1025160Y353927D1*
X-1018237Y370327D1*
X-1017953Y405387D1*
X-1015693Y419647D1*
X-1011233Y433377D1*
X-1004680Y446240D1*
X-996193Y457920D1*
X-908793Y545720D1*
X-881157Y572957D1*
X-869477Y581443D1*
X-856613Y587997D1*
X-842883Y592457D1*
X-828623Y594717D1*
X-800000Y596000D1*
Y620000D1*
X-792253D1*
X-792223Y629993D1*
X-1173107Y630000D1*
X-1235640Y610023D1*
X-1280497Y565147D1*
X-1256123Y570943D1*
X-1230000Y573000D1*
X-1203877Y570943D1*
X-1178393Y564827D1*
X-1154183Y554797D1*
X-1131840Y541107D1*
X-1111913Y524087D1*
X-1094893Y504160D1*
X-1081203Y481817D1*
X-1071173Y457607D1*
X-1065057Y432123D1*
X-1063000Y406000D1*
X-1065057Y379877D1*
X-1071173Y354393D1*
X-1081203Y330183D1*
X-1094893Y307840D1*
X-1111913Y287913D1*
X-1121583Y278980D1*
X1116807Y-294543D2*
X1123203Y-280183D1*
X1136893Y-257840D1*
X1153913Y-237913D1*
X1163543Y-228987D1*
X1145013Y-210457D1*
X1129610Y-189257D1*
X1117713Y-165907D1*
X1109613Y-140987D1*
X1106073Y-119833D1*
X1106080Y-283783D1*
X1116797Y-294503D1*
X1106073Y-84167D2*
X1109613Y-63013D1*
X1117713Y-38093D1*
X1129610Y-14743D1*
X1145013Y6457D1*
X1163543Y25013D1*
X1145013Y43543D1*
X1129610Y64743D1*
X1117713Y88093D1*
X1109613Y113013D1*
X1105513Y138897D1*
Y165103D1*
X1109613Y190987D1*
X1117713Y215907D1*
X1129610Y239257D1*
X1145013Y260457D1*
X1163543Y279013D1*
X1145013Y297543D1*
X1129610Y318743D1*
X1117713Y342093D1*
X1109613Y367013D1*
X1105513Y392897D1*
Y419103D1*
X1109613Y444987D1*
X1117713Y469907D1*
X1129610Y493257D1*
X1145013Y514457D1*
X1163543Y532987D1*
X1184743Y548390D1*
X1208093Y560287D1*
X1233013Y568387D1*
X1258897Y572487D1*
X1285103D1*
X1310987Y568387D1*
X1322963Y565007D1*
X1271887Y610323D1*
X1196783Y630000D1*
X875613D1*
X884000Y620000D1*
Y599127D1*
X899900Y589493D1*
X912667Y578590D1*
X923570Y565823D1*
X932343Y551507D1*
X938770Y535993D1*
X942690Y519670D1*
X944007Y502930D1*
X942690Y486190D1*
X938770Y469867D1*
X932343Y454353D1*
X922453Y438620D1*
X932423Y422703D1*
X938850Y407190D1*
X942770Y390867D1*
X944087Y374127D1*
X942770Y357387D1*
X938850Y341063D1*
X932423Y325550D1*
X923650Y311233D1*
X919770Y306310D1*
X1084637Y141023D1*
X1092890Y129660D1*
X1099267Y117147D1*
X1103607Y103790D1*
X1105803Y89920D1*
X1106080Y-57103D1*
Y-83080D1*
X-1121583Y-735980D2*
X-1103013Y-754543D1*
X-1093043Y-767607D1*
X-1081687Y-756247D1*
X-1081747Y-698987D1*
X-1086813Y-699870D1*
X-1094893Y-707160D1*
X-1111913Y-727087D1*
X-1121583Y-736020D1*
X1115683Y-1059270D2*
X1122597Y-1043383D1*
X1131853Y-1027183D1*
X1142857Y-1012117D1*
X1155473Y-998373D1*
X1163543Y-990987D1*
X1145013Y-972457D1*
X1129610Y-951257D1*
X1117713Y-927907D1*
X1115683Y-923423D1*
Y-1059140D1*
X-583000Y-1966997D2*
Y-2039367D1*
X-567910Y-2045663D1*
X-553593Y-2054437D1*
X-540827Y-2065340D1*
X-529923Y-2078107D1*
X-521150Y-2092423D1*
X-514723Y-2107937D1*
X-510803Y-2124260D1*
X-509487Y-2141000D1*
X-510803Y-2157740D1*
X-514723Y-2174063D1*
X-521150Y-2189577D1*
X-529923Y-2203893D1*
X-540827Y-2216660D1*
X-553593Y-2227563D1*
X-567910Y-2236337D1*
X-583020Y-2242617D1*
X-583007Y-2457040D1*
X-575267Y-2453567D1*
X-575453Y-2400857D1*
X-573657Y-2388907D1*
X-570017Y-2377387D1*
X-564617Y-2366577D1*
X-557593Y-2356747D1*
X-549117Y-2348133D1*
X-539400Y-2340953D1*
X-528677Y-2335383D1*
X-517217Y-2331557D1*
X-505300Y-2329570D1*
X-457970Y-2328957D1*
X-468537Y-2318010D1*
X-477713Y-2305380D1*
X-484803Y-2291467D1*
X-489627Y-2276617D1*
X-492070Y-2261197D1*
X-492377Y-2136723D1*
Y-1866840D1*
X-582940Y-1866870D1*
X-583090Y-1967000D1*
X-50000Y-2030973D2*
Y-2177353D1*
X-45000Y-2175333D1*
Y-1773967D1*
X-50000Y-1793667D1*
X-50090Y-2031000D1*
X535000Y-1765660D2*
Y-1913863D1*
X557997Y-1890807D1*
X558000Y-1751677D1*
X547307Y-1759237D1*
X540460Y-1763067D1*
X-270000Y-2469363D2*
Y-2440197D1*
X-305690Y-2440107D1*
X-311280Y-2451453D1*
X-311233Y-2457193D1*
X-294600Y-2459613D1*
X-280870Y-2464077D1*
X-274283Y-2467113D1*
X-141047Y-1125347D2*
X-146020Y-1109963D1*
X-148703Y-1091970D1*
X-195050Y-1092000D1*
X-200603Y-1101330D1*
X-184020Y-1103957D1*
X-168053Y-1109143D1*
X-153093Y-1116767D1*
X-141030Y-1125437D1*
X181783Y-3039303D2*
X195327Y-3047643D1*
X208093Y-3058547D1*
X218997Y-3071313D1*
X227770Y-3085630D1*
X234197Y-3101143D1*
X238117Y-3117467D1*
X239433Y-3134207D1*
X238117Y-3150947D1*
X234197Y-3167270D1*
X227770Y-3182783D1*
X218997Y-3197100D1*
X208093Y-3209867D1*
X195327Y-3220770D1*
X181010Y-3229543D1*
X165497Y-3235970D1*
X149173Y-3239890D1*
X132433Y-3241207D1*
X115693Y-3239890D1*
X99370Y-3235970D1*
X83857Y-3229543D1*
X69540Y-3220770D1*
X56773Y-3209867D1*
X45870Y-3197100D1*
X37530Y-3183557D1*
X433Y-3146457D1*
X-217187Y-3146443D1*
X-217247Y-3413443D1*
X-451037D1*
X-528283Y-3490657D1*
X-66180Y-3490990D1*
X-51920Y-3493250D1*
X-38190Y-3497710D1*
X-25327Y-3504263D1*
X-13647Y-3512750D1*
X74153Y-3600150D1*
X105927Y-3631923D1*
X120497Y-3636797D1*
X135457Y-3644420D1*
X149040Y-3654290D1*
X160913Y-3666163D1*
X170783Y-3679747D1*
X178407Y-3694707D1*
X183173Y-3709190D1*
X202047Y-3728040D1*
X303010Y-3728000D1*
X314437Y-3711757D1*
X385870Y-3639877D1*
X491757Y-3534437D1*
X504703Y-3525030D1*
X518967Y-3517763D1*
X534190Y-3512817D1*
X550030Y-3510313D1*
X549937Y-3507693D1*
X535620Y-3498920D1*
X522853Y-3488017D1*
X511950Y-3475250D1*
X503177Y-3460933D1*
X496750Y-3445420D1*
X494890Y-3438820D1*
X469460Y-3413413D1*
X263753Y-3413443D1*
Y-2929443D1*
X544753D1*
Y-2945030D1*
X593563Y-2944943D1*
X593597Y-2749587D1*
X581400Y-2759047D1*
X570677Y-2764617D1*
X559217Y-2768443D1*
X547300Y-2770430D1*
X431267Y-2771593D1*
X419190Y-2770737D1*
X409397Y-2773707D1*
X394747Y-2787957D1*
X383067Y-2796443D1*
X370203Y-2802997D1*
X356473Y-2807457D1*
X342187Y-2809717D1*
X337000Y-2810030D1*
Y-2873000D1*
X33000D1*
Y-2869993D1*
X-270000Y-2870000D1*
Y-2808293D1*
X-284777Y-2797957D1*
X-324153Y-2758980D1*
X-341837Y-2761847D1*
X-357743Y-2761880D1*
X-367797Y-2765123D1*
X-379713Y-2767110D1*
X-495747Y-2768273D1*
X-507800Y-2767423D1*
X-519570Y-2764697D1*
X-530770Y-2760163D1*
X-541123Y-2753930D1*
X-550373Y-2746157D1*
X-558293Y-2737033D1*
X-564690Y-2726783D1*
X-569403Y-2715657D1*
X-572317Y-2703930D1*
X-573360Y-2691870D1*
X-573767Y-2641127D1*
X-651603Y-2640790D1*
X-665863Y-2638533D1*
X-679593Y-2634070D1*
X-692457Y-2627517D1*
X-704137Y-2619030D1*
X-731903Y-2591663D1*
X-727190Y-2605143D1*
X-725203Y-2617060D1*
X-724360Y-2693100D1*
X-725210Y-2705153D1*
X-727937Y-2716923D1*
X-732483Y-2728143D1*
X-732520Y-2731797D1*
X-588520D1*
Y-2795327D1*
X-570327Y-2798157D1*
X-554360Y-2803343D1*
X-539400Y-2810967D1*
X-525817Y-2820837D1*
X-513943Y-2832710D1*
X-504073Y-2846293D1*
X-496450Y-2861253D1*
X-491263Y-2877220D1*
X-488637Y-2893803D1*
Y-2910597D1*
X-491897Y-2929420D1*
X-498247Y-2949443D1*
Y-2947177D1*
X-504073Y-2958107D1*
X-513943Y-2971690D1*
X-525817Y-2983563D1*
X-539400Y-2993433D1*
X-554360Y-3001057D1*
X-570327Y-3006243D1*
X-588520Y-3008933D1*
X-588637Y-3090963D1*
X-572360Y-3083947D1*
X-558323Y-3080577D1*
X-543903Y-3079443D1*
X-498267D1*
X-498247Y-2949443D1*
X-491777Y-2929443D1*
X-217247D1*
Y-2942477D1*
X50673Y-2942757D1*
X66480Y-2945260D1*
X81703Y-2950207D1*
X95967Y-2957473D1*
X108913Y-2966880D1*
X181760Y-3039280D1*
X122850Y-4238883D2*
X110873Y-4250883D1*
X97290Y-4260753D1*
X82330Y-4268377D1*
X66363Y-4273563D1*
X49780Y-4276190D1*
X32987D1*
X16403Y-4273563D1*
X437Y-4268377D1*
X-5283Y-4266520D1*
X-21910Y-4265327D1*
X-36713Y-4261773D1*
X-43883Y-4259127D1*
X-57663Y-4286807D1*
X-71220Y-4305470D1*
X-87530Y-4321780D1*
X-106193Y-4335337D1*
X-126747Y-4345810D1*
X-148683Y-4352940D1*
X-154033Y-4354003D1*
X-154307Y-4416833D1*
X-156197Y-4428770D1*
X-159930Y-4440260D1*
X-162473Y-4445770D1*
X-144710Y-4446790D1*
X245323Y-4445750D1*
X240697Y-4434587D1*
X237877Y-4422840D1*
X236930Y-4410770D1*
Y-4353827D1*
X221573Y-4349807D1*
X200263Y-4340977D1*
X180597Y-4328927D1*
X163057Y-4313943D1*
X148073Y-4296403D1*
X136023Y-4276737D1*
X127193Y-4255427D1*
X122963Y-4238790D1*
X-766967Y-2546730D2*
X-775487Y-2550610D1*
X-762210Y-2557743D1*
X-757137Y-2561077D1*
X-762513Y-2546857D1*
X589413Y-2536857D2*
X579680Y-2544053D1*
X568937Y-2549633D1*
X568980Y-2552343D1*
X579790Y-2557743D1*
X589640Y-2564783D1*
X593597Y-2554443D1*
Y-2533023D1*
X777373Y-2366597D2*
X784750Y-2356120D1*
X777700Y-2356397D1*
X773610Y-2361313D1*
X815043Y-2547663D2*
X804210Y-2542257D1*
X794360Y-2535217D1*
X792597Y-2536440D1*
Y-2564970D1*
X801023Y-2558123D1*
X813167Y-2551200D1*
X817487Y-2549390D1*
X-476067Y-3959133D2*
X-456597Y-3971073D1*
X-439057Y-3986057D1*
X-434983Y-3990460D1*
X-435000Y-3959227D1*
X-475983Y-3959143D1*
X-490177Y-1245017D2*
X-480027Y-1254453D1*
X-480000Y-1235530D1*
X-490177Y-1244983D1*
X-839233Y-1301417D2*
D10*
Y-1443327D1*
X-991143Y-1301417D2*
X-839233D1*
X-786910Y-1527000D2*
X-645000D1*
X-1062430Y-2883797D2*
X-920520D1*
X-1062547Y-3102870D2*
X-920637D1*
X861000Y-3221500D2*
Y-3373407D1*
X719093D2*
X861000D1*
X1051000Y-3852000D2*
Y-4003910D1*
Y-3852000D2*
X1192910D1*
X-1008823Y-3656643D2*
Y-3960463D1*
X-1150733Y-3808553D2*
X-1008823D1*
X-1230000Y-2889000D2*
Y-3055910D1*
Y-2889000D2*
X-1063090D1*
X-858353Y-2332107D2*
Y-2444163D1*
X-990430D2*
X-858353D1*
X900353Y-2655837D2*
Y-2767893D1*
Y-2655837D2*
X1032430D1*
X-996063Y-3556667D2*
X-869153D1*
D21*
X-839233Y-1301417D3*
Y-1111417D3*
X382000Y-1502000D3*
Y-1312000D3*
X99000Y-1508000D3*
Y-1318000D3*
D22*
X-645000Y-1527000D3*
X-455000D3*
D21*
X185000Y-2731000D3*
Y-2541000D3*
D22*
X-920520Y-2883797D3*
X-730520D3*
X-920637Y-3102870D3*
X-730637D3*
X861000Y-3373407D3*
X1051000D3*
X861000Y-3852000D3*
X1051000D3*
X861000Y-3612000D3*
X1051000D3*
X-818823Y-3808553D3*
X-1008823D3*
D24*
X-1230000Y-356000D3*
Y-102000D3*
Y152000D3*
Y406000D3*
X1272000Y-356000D3*
Y-102000D3*
Y152000D3*
Y406000D3*
X-1230000Y-1371000D3*
Y-1117000D3*
Y-863000D3*
Y-609000D3*
X1272000Y-1372000D3*
Y-1118000D3*
Y-864000D3*
Y-610000D3*
X-1234000Y-1624000D3*
D25*
X-1230000Y-1878000D3*
D24*
X-1234000Y-2132000D3*
D25*
X-1230000Y-2386000D3*
D24*
X-1234000Y-2635000D3*
D25*
X-1230000Y-2889000D3*
D24*
X-1234000Y-3416900D3*
D25*
X-1230000Y-3670900D3*
D27*
X628640Y-1268593D3*
Y-1098593D3*
D28*
X-750000Y-2090000D3*
Y-1810000D3*
D21*
X-209000Y-1503000D3*
Y-1313000D3*
X-202000Y-2079000D3*
Y-1889000D3*
X107000Y-2080000D3*
Y-1890000D3*
X383000Y-2089000D3*
Y-1899000D3*
X-118000Y-2728000D3*
Y-2538000D3*
D30*
X825000Y-2120000D3*
Y-1780000D3*
X675000Y-2120000D3*
Y-1780000D3*
D31*
X-628000Y-640000D3*
Y-513000D3*
Y-386000D3*
Y-259000D3*
Y-132000D3*
Y-5000D3*
Y122000D3*
Y249000D3*
Y376000D3*
Y503000D3*
X712000Y-640000D3*
Y-513000D3*
Y-386000D3*
Y-259000D3*
Y-132000D3*
Y-5000D3*
Y122000D3*
Y249000D3*
Y376000D3*
Y503000D3*
D32*
X-21500Y-920000D3*
X105500D3*
X-148500D3*
X232500D3*
X-275500D3*
X359500D3*
X-402500D3*
X486500D3*
D33*
X502000Y-443000D3*
Y-315000D3*
Y-189000D3*
Y-61000D3*
Y66000D3*
Y193000D3*
Y320000D3*
D34*
X-339000Y-710000D3*
X-212000D3*
X-85000D3*
X42000D3*
X169000D3*
X295000D3*
X423000D3*
D33*
X502000Y447000D3*
D88*
X-858353Y-2444163D3*
X-856633Y-2659157D3*
X-443367Y-2440843D3*
X-441647Y-2655837D3*
X483647Y-2444163D3*
X485367Y-2659157D3*
X898633Y-2440843D3*
X900353Y-2655837D3*
D35*
X-357747Y-3171443D3*
X404253D3*
X-357747Y-3044443D3*
X404253D3*
X-357747Y-3298443D3*
X404253D3*
D37*
X-869153Y-3556666D3*
D38*
X-699153D3*
Y-3326666D3*
X-889153D3*
D39*
X627000Y-4220000D3*
X-543000D3*
D40*
X-308000Y-3950000D3*
X-58000D3*
X142000D3*
X392000D3*
D97*
X403930Y-4310793D3*
D100*
X-321070D3*
D42*
X-578127Y-1350000D3*
Y-1140000D3*
G04 Top Clear*
%LPC*%
D14*
X837007Y502930D3*
X837087Y374127D3*
X-923397Y320863D3*
X-1073273Y20463D3*
X-751700Y-5550D3*
X838183Y-7077D3*
X-907450Y-110743D3*
X-759317Y-255560D3*
X-820757Y-414323D3*
X-787590Y-518083D3*
X-762807Y-640000D3*
X-578467Y-1006473D3*
X106000Y-1084000D3*
X-41977Y-1084983D3*
X232000Y-1106000D3*
X-209000Y-1208000D3*
X1033067Y-1233920D3*
X974593Y-1323500D3*
X629063Y-1354240D3*
X713073Y-1447330D3*
X896147Y-1495997D3*
X-962180Y-1547077D3*
X233990Y-1588557D3*
X105357Y-1769187D3*
X262853Y-1768893D3*
X-200220Y-1779233D3*
X-616487Y-2141000D3*
X-350233Y-2655177D3*
X-595307Y-2902200D3*
X688123Y-3047167D3*
X132433Y-3134207D3*
X1042370Y-3192390D3*
X-1045267Y-3223637D3*
X599577Y-3250830D3*
X598513Y-3412357D3*
X705000Y-3612000D3*
X79550Y-3735653D3*
X-310353Y-3773427D3*
X41383Y-4169520D3*
X842570Y-132553D3*
D45*
X-1230000Y-356000D3*
Y-102000D3*
Y152000D3*
Y406000D3*
X1272000Y-356000D3*
Y-102000D3*
Y152000D3*
Y406000D3*
X-1230000Y-1371000D3*
Y-1117000D3*
Y-863000D3*
Y-609000D3*
X1272000Y-1372000D3*
Y-1118000D3*
Y-864000D3*
Y-610000D3*
X-1234000Y-1624000D3*
X-1230000Y-1878000D3*
X-1234000Y-2132000D3*
X-1230000Y-2386000D3*
X-1234000Y-2635000D3*
X-1230000Y-2889000D3*
X-1234000Y-3416900D3*
X-1230000Y-3670900D3*
D15*
X502000Y-443000D3*
Y-315000D3*
Y-189000D3*
Y-61000D3*
Y66000D3*
Y193000D3*
Y320000D3*
X-339000Y-710000D3*
X-212000D3*
X-85000D3*
X42000D3*
X169000D3*
X295000D3*
X423000D3*
X502000Y447000D3*
X627000Y-4295000D2*
D45*
Y-4145000D1*
X-543000Y-4295000D2*
Y-4145000D1*
X403930Y-4330793D2*
D44*
Y-4290793D1*
X-321070Y-4330793D2*
Y-4290793D1*
D16*
X-578127Y-1350000D3*
Y-1140000D3*
M02*
