G04 DipTrace 3.2.0.1*
G04 Верхний.gbr*
%MOMM*%
G04 #@! TF.FileFunction,Copper,L1,Top*
G04 #@! TF.Part,Single*
%AMOUTLINE0*
4,1,4,
0.54717,0.3544,
-0.55277,0.3456,
-0.54717,-0.3544,
0.55277,-0.3456,
0.54717,0.3544,
0*%
%AMOUTLINE9*
4,1,5,
-0.9,0.4,
-0.9,-1.0,
0.9,-1.0,
0.9,1.0,
-0.3,1.0,
-0.9,0.4,
0*%
%AMOUTLINE12*
4,1,5,
-0.9,-1.0,
0.9,-1.0,
0.9,0.4,
0.3,1.0,
-0.9,1.0,
-0.9,-1.0,
0*%
%ADD14C,0.5*%
%ADD15C,0.3*%
%ADD16C,0.6*%
%ADD44C,0.7*%
%ADD45C,1.0*%
G04 #@! TA.AperFunction,CopperBalancing*
%ADD10C,0.25*%
G04 #@! TA.AperFunction,Conductor*
%ADD17C,0.4*%
%ADD18C,0.45*%
%ADD19C,0.35*%
%ADD21R,1.5X1.3*%
%ADD22R,1.3X1.5*%
G04 #@! TA.AperFunction,ComponentPad*
%ADD24C,1.8*%
%ADD25C,1.8*%
%ADD27R,1.45X1.2*%
%ADD28R,1.8X1.6*%
%ADD30R,0.8X1.8*%
%ADD31R,1.9X0.8*%
%ADD32R,0.8X1.9*%
G04 #@! TA.AperFunction,ComponentPad*
%ADD33R,1.1X0.75*%
%ADD34R,0.75X1.1*%
%ADD35R,1.27X0.76*%
%ADD37R,1.0X1.0*%
%ADD38R,0.6X1.0*%
G04 #@! TA.AperFunction,ComponentPad*
%ADD39O,1.4X3.8*%
%ADD40R,1.0X2.7*%
G04 #@! TA.AperFunction,ComponentPad*
%ADD42C,1.2*%
%ADD88OUTLINE0*%
G04 #@! TA.AperFunction,ComponentPad*
%ADD97OUTLINE9*%
%ADD100OUTLINE12*%
%FSLAX35Y35*%
G04*
G71*
G90*
G75*
G01*
G04 Top*
%LPD*%
X233990Y-1588557D2*
D14*
Y-1508000D1*
D15*
X99000D1*
X232000Y-1106000D2*
D14*
Y-920000D1*
X232500D1*
X99000Y-1508000D2*
X359620D1*
D15*
X365620Y-1502000D1*
X-962180Y-1547077D2*
D14*
X-665077D1*
D15*
X-645000Y-1527000D1*
X-962180Y-1547077D2*
D14*
X-835143D1*
Y-1305507D1*
D15*
X-839233Y-1301417D1*
X-628000Y-5000D2*
D16*
X-751700D1*
Y-5550D1*
X-962180Y-1547077D2*
D14*
X-1046000Y-1630897D1*
Y-2444163D1*
X-858353D1*
X-1043413D2*
Y-2889000D1*
Y-2710400D1*
Y-2883797D1*
Y-3102870D1*
Y-3223637D1*
Y-3556666D1*
X-869153D1*
X-1043413Y-2710400D2*
D15*
X-1057510Y-2724497D1*
Y-3679360D1*
X-924223Y-3812647D1*
X-916687D1*
X-1230000Y-2889000D2*
D14*
X-1043413D1*
X423000Y-710000D2*
D17*
Y-647380D1*
X298137Y-522517D1*
X176510Y-400890D1*
X23300D1*
X-278240Y-99350D1*
X-363117D1*
X-457467Y-5000D1*
X-628000D1*
X-1045267Y-3223637D2*
D15*
X-1043413D1*
X-920637Y-3102870D2*
D14*
X-1043413D1*
X-920520Y-2883797D2*
X-1043413D1*
X1272000Y-1118000D2*
X1290420D1*
X1093323Y-1315097D1*
Y-1496563D1*
X1296777Y-1700017D1*
Y-2652013D1*
X1268460D1*
X1333000Y-2716553D1*
Y-3771000D1*
X1252000Y-3852000D1*
X1051000D1*
X900353Y-2655837D2*
D15*
X1292953D1*
X1296777Y-2652013D1*
X861000Y-3373407D2*
D14*
Y-3020947D1*
X900353Y-2981593D1*
Y-2655837D1*
X-153057Y-1077827D2*
D15*
Y-924557D1*
X-148500Y-920000D1*
X-578127Y-1140000D2*
X-503000D1*
X-410000Y-1047000D1*
Y-927500D1*
X-402500Y-920000D1*
X-839233Y-1111417D2*
X-816650Y-1134000D1*
X-584127D1*
X-578127Y-1140000D1*
Y-1350000D2*
X-455000D1*
X-426000D1*
X-388000Y-1312000D1*
Y-1160000D1*
X-275500Y-1047500D1*
Y-920000D1*
X-455000Y-1527000D2*
Y-1350000D1*
X486500Y-920000D2*
D16*
Y-1074981D1*
X540704Y-1129185D1*
X637071D1*
Y-1143658D1*
X106767Y-1052003D2*
X105500Y-920000D1*
X635598Y-1416252D2*
Y-1313658D1*
X637071D1*
X106767Y-1052003D2*
X106763D1*
Y-1310237D1*
D15*
X99000Y-1318000D1*
X635598Y-1416252D2*
Y-1524932D1*
X680580Y-1569913D1*
Y-1780000D1*
X675000D1*
X-616487Y-2141000D2*
D14*
X-750000D1*
Y-2090000D1*
D15*
Y-2061303D1*
X-675007Y-2136297D1*
Y-2518453D1*
X-644387Y-2549073D1*
X-316077D1*
X-265460Y-2599690D1*
Y-2687567D1*
X-225027Y-2728000D1*
X-118000D1*
X359500Y-920000D2*
D14*
Y-1305880D1*
X365620Y-1312000D1*
D18*
X410263D1*
X503699Y-1405436D1*
Y-1649951D1*
X479250Y-1674400D1*
X-235637D1*
X-392877Y-1831640D1*
Y-2253390D1*
X-305660Y-2340607D1*
X613930D1*
X693097Y-2419773D1*
Y-3044443D1*
X404253D1*
X688123Y-3047167D2*
D15*
X693097Y-3044443D1*
X712000Y-513000D2*
D14*
X837423D1*
X896147Y-571723D1*
Y-1495997D1*
X-209000Y-1208000D2*
D15*
Y-1313000D1*
X3903Y-1167337D2*
Y-1114000D1*
X-17093Y-1093003D1*
Y-920000D1*
X-21500D1*
X-200220Y-1779233D2*
X-202000Y-1781013D1*
Y-1889000D1*
X-750000Y-1810000D2*
Y-1788247D1*
X-736623Y-1774870D1*
X-469643D1*
X-203387Y-1508613D1*
X-209000Y-1503000D1*
X365600Y-1899000D2*
Y-1871640D1*
X262853Y-1768893D1*
X365600Y-2089000D2*
D10*
X486377D1*
X625090Y-1950287D1*
X809363D1*
X829723Y-1929927D1*
Y-1784723D1*
X825000Y-1780000D1*
X107000Y-2080000D2*
Y-2184000D1*
X134617Y-2211617D1*
X632567D1*
X675000Y-2169183D1*
Y-2120000D1*
X-202000Y-2079000D2*
Y-2235000D1*
X-170103Y-2266897D1*
X777733D1*
X825000Y-2219630D1*
Y-2120000D1*
X105357Y-1769187D2*
D15*
X107000Y-1890000D1*
X712000Y122000D2*
D10*
X875277D1*
X959370Y37907D1*
Y-354547D1*
X1088487Y-483663D1*
Y-680487D1*
X1272000Y-864000D1*
X-762807Y-640000D2*
D15*
X-628000D1*
X-1230000Y-356000D2*
X-1159203D1*
X-913947Y-110743D1*
X-907450D1*
X-759317Y-255560D2*
X-631440D1*
X-628000Y-259000D1*
Y503000D2*
X-821407D1*
X-926237Y398170D1*
Y318023D1*
X-923397Y320863D1*
X-822293Y-422013D2*
X-786280Y-386000D1*
X-628000D1*
X-787590Y-518083D2*
X-633083D1*
X-628000Y-513000D1*
X-339000Y-710000D2*
Y-733253D1*
X-449147D1*
X-578467Y-862573D1*
Y-1006473D1*
X-350233Y-2655177D2*
X-441647Y-2655837D1*
X739770Y-1471487D2*
Y-1432060D1*
X758797Y-1413033D1*
Y-942847D1*
X532833Y-716883D1*
Y-650093D1*
X336950Y-454210D1*
Y383873D1*
X395093Y442017D1*
X497017D1*
X502000Y447000D1*
X898633Y-2440843D2*
X932663D1*
Y-1664260D1*
X819367Y-1550963D1*
Y-854510D1*
X785977Y-821120D1*
Y-640000D1*
X712000D1*
X185000Y-2731000D2*
Y-2718000D1*
X334997D1*
X393840Y-2659157D1*
X485367D1*
X185000Y-2541000D2*
X315437D1*
X412273Y-2444163D1*
X483647D1*
X-118000Y-2538000D2*
X185000D1*
Y-2541000D1*
X392000Y-3950000D2*
D14*
Y-3778000D1*
X558000Y-3612000D1*
X717000D1*
X861000D1*
Y-3852000D1*
X705000Y-3612000D2*
X717000D1*
X-595307Y-2902200D2*
D17*
X-712117D1*
D15*
X-730520Y-2883797D1*
D17*
Y-3102753D1*
D15*
X-730637Y-3102870D1*
X-889153Y-3326667D2*
X-905900D1*
D19*
X-761153Y-3181920D1*
Y-3133387D1*
D15*
X-730637Y-3102870D1*
X1042370Y-3192390D2*
D14*
Y-3559490D1*
X1030610Y-3571250D1*
Y-3612000D1*
X1051000D1*
Y-3373407D2*
D17*
Y-3612000D1*
X132433Y-3134207D2*
D14*
X42670Y-3044443D1*
X-357747D1*
X79550Y-3735653D2*
D15*
X78960Y-3736247D1*
X142000Y-3950000D2*
Y-3798103D1*
X79550Y-3735653D1*
X-73397Y-3582707D1*
X-673113D1*
X-699153Y-3556667D1*
X-357747Y-3298443D2*
X-466177D1*
X-643300Y-3475567D1*
X-663383D1*
X-692447Y-3504630D1*
Y-3549960D1*
X-699153Y-3556667D1*
X599577Y-3250830D2*
X592400D1*
X513013Y-3171443D1*
X404253D1*
X1033067Y-1233920D2*
D10*
Y-1124040D1*
X1026183Y-1117157D1*
Y-503423D1*
X884000Y-361240D1*
Y-294293D1*
X845707Y-256000D1*
X715000D1*
X712000Y-259000D1*
X598513Y-3412357D2*
D15*
X481293Y-3295137D1*
X404253D1*
Y-3298443D1*
X974593Y-1323500D2*
D10*
X968627D1*
Y-532523D1*
X826103Y-390000D1*
X716000D1*
X712000Y-386000D1*
X-308000Y-3950000D2*
D16*
Y-3852143D1*
X-545467D1*
X-605400Y-3792210D1*
X-726687D1*
Y-3812647D1*
X-310353Y-3773427D2*
Y-3947647D1*
D15*
X-308000Y-3950000D1*
X842570Y-132553D2*
X712553D1*
X712000Y-132000D1*
X-1230000Y-102000D2*
X-1073497D1*
X-927997Y43500D1*
Y107917D1*
X-784307Y251607D1*
X-630607D1*
X-628000Y249000D1*
Y376000D2*
X-786527D1*
X-816417Y346110D1*
Y342387D1*
X-1069560Y89243D1*
Y24177D1*
X-1073273Y20463D1*
X712000Y249000D2*
D10*
Y242293D1*
X857183D1*
X1016580Y82897D1*
Y-320860D1*
X1153323Y-457603D1*
Y-533117D1*
X1257230Y-637023D1*
Y-610000D1*
X1272000D1*
X712000Y503000D2*
D15*
X836937D1*
X837007Y502930D1*
X712000Y376000D2*
X837087D1*
Y374127D1*
X712000Y-5000D2*
X838183Y-7077D1*
X-1230000Y-609000D2*
X-1101177D1*
X-1057657Y-565480D1*
Y-431187D1*
X-1010443Y-383973D1*
Y-311103D1*
X-835030Y-135690D1*
Y66533D1*
X-778263Y123300D1*
X-629300D1*
X-628000Y122000D1*
Y-132000D2*
Y-145430D1*
X-759467D1*
X-949193Y-335157D1*
Y-399637D1*
X-989747Y-440190D1*
Y-794417D1*
X-1066967Y-871637D1*
X-1221363D1*
X-1230000Y-863000D1*
X-58000Y-3950000D2*
D17*
Y-4118257D1*
X-6737Y-4169520D1*
X41383D1*
X-699153Y-3326667D2*
D15*
Y-3339737D1*
X-773283Y-3413867D1*
Y-3641723D1*
X-746950Y-3668057D1*
X-159867D1*
X-67570Y-3760353D1*
Y-3940430D1*
X-58000Y-3950000D1*
X-357747Y-3171443D2*
X-543930D1*
X-699153Y-3326667D1*
D16*
X837007Y502930D3*
X837087Y374127D3*
X-923397Y320863D3*
X-1073273Y20463D3*
X-751700Y-5550D3*
X838183Y-7077D3*
X-907450Y-110743D3*
X-759317Y-255560D3*
X-822293Y-422013D3*
X-787590Y-518083D3*
X-762807Y-640000D3*
X-578467Y-1006473D3*
X106767Y-1052003D3*
X3903Y-1167337D3*
X232000Y-1106000D3*
X-209000Y-1208000D3*
X1033067Y-1233920D3*
X974593Y-1323500D3*
X635598Y-1416252D3*
X739770Y-1471487D3*
X896147Y-1495997D3*
X-962180Y-1547077D3*
X233990Y-1588557D3*
X105357Y-1769187D3*
X262853Y-1768893D3*
X-200220Y-1779233D3*
X-616487Y-2141000D3*
X-350233Y-2655177D3*
X-595307Y-2902200D3*
X688123Y-3047167D3*
X132433Y-3134207D3*
X1042370Y-3192390D3*
X-1045267Y-3223637D3*
X599577Y-3250830D3*
X598513Y-3412357D3*
X705000Y-3612000D3*
X79550Y-3735653D3*
X-310353Y-3773427D3*
X41383Y-4169520D3*
X842570Y-132553D3*
X-153057Y-1077827D3*
X-1260296Y580333D2*
D14*
X-876272D1*
X915902D2*
X1300655D1*
X-1113915Y530667D2*
X-928863D1*
X945342D2*
X1155915D1*
X-1075816Y481000D2*
X-978538D1*
X946710D2*
X1117816D1*
X-1059957Y431333D2*
X-1017092D1*
X932491D2*
X1101957D1*
X-1059775Y381667D2*
X-1023199D1*
X948806D2*
X1101775D1*
X-1075270Y332000D2*
X-1034775D1*
X940421D2*
X1117270D1*
X-1112730Y282333D2*
X-1028212D1*
X948715D2*
X1154730D1*
X-1078733Y232667D2*
X-1061197D1*
X998389D2*
X1120733D1*
X1048064Y183000D2*
X1102868D1*
X1111046Y34000D2*
X1148806D1*
X1111046Y-214333D2*
X1143428D1*
X1111046Y-264000D2*
X1127603D1*
X-892704Y-611667D2*
X-870980D1*
X-892704Y-661333D2*
X-872606D1*
X-892704Y-711000D2*
X-847835D1*
X-892704Y-760667D2*
X-800895D1*
X-894163Y-810333D2*
X-800439D1*
X-920230Y-860000D2*
X-799983D1*
X-969905Y-909667D2*
X-793876D1*
X-1034163Y-959333D2*
X-752405D1*
X-1097600Y-1009000D2*
X-996220D1*
X1120707D2*
X1140512D1*
X-1068525Y-1058667D2*
X-996220D1*
X-1058225Y-1108333D2*
X-996220D1*
X218728D2*
X252478D1*
X-1063147Y-1158000D2*
X-996220D1*
X218728D2*
X252478D1*
X-1084749Y-1207667D2*
X-996220D1*
X-1102613Y-1257333D2*
X-996220D1*
X-1070712Y-1307000D2*
X-996220D1*
X-1058590Y-1356667D2*
X-996220D1*
X1081332D2*
X1100638D1*
X-1061780Y-1406333D2*
X-996220D1*
X1047335D2*
X1103598D1*
X-1081285Y-1456000D2*
X-791962D1*
X1003129D2*
X1122647D1*
X-1111181Y-1505667D2*
X-791962D1*
X1007686D2*
X1166853D1*
X-1076728Y-1555333D2*
X-791962D1*
X990186D2*
X1346592D1*
X-1063056Y-1605000D2*
X-791962D1*
X1008051D2*
X1346592D1*
X-1064879Y-1654667D2*
X-922027D1*
X1029197D2*
X1346592D1*
X-1082561Y-1704333D2*
X-922027D1*
X1029652D2*
X1346501D1*
X-1113095Y-1754000D2*
X-922027D1*
X1029652D2*
X1346501D1*
X-1075452Y-1803667D2*
X-922027D1*
X522608D2*
X552986D1*
X1029652D2*
X1346501D1*
X-1059866Y-1853333D2*
X-922027D1*
X522608D2*
X552986D1*
X1029652D2*
X1346410D1*
X-1059866Y-1903000D2*
X-922027D1*
X-577978D2*
X-497379D1*
X522608D2*
X540853D1*
X1029652D2*
X1346410D1*
X-1075634Y-1952667D2*
X-922027D1*
X-577978D2*
X-497379D1*
X1029652D2*
X1346319D1*
X-1113551Y-2002333D2*
X-922027D1*
X-577978D2*
X-497379D1*
X1029652D2*
X1346319D1*
X-1082379Y-2052000D2*
X-922027D1*
X-552092D2*
X-497379D1*
X1029652D2*
X1346319D1*
X-1064788Y-2101667D2*
X-922027D1*
X1029652D2*
X1346228D1*
X-1063147Y-2151333D2*
X-922027D1*
X1029652D2*
X1346228D1*
X-1076910Y-2201000D2*
X-922027D1*
X-522926D2*
X-497403D1*
X1029652D2*
X1346228D1*
X-1111454Y-2250667D2*
X-772001D1*
X-577978D2*
X-497379D1*
X1029652D2*
X1346137D1*
X-1081650Y-2300333D2*
X-772001D1*
X-577978D2*
X-485621D1*
X1029652D2*
X1346137D1*
X-1061962Y-2350000D2*
X-967418D1*
X-577978D2*
X-556111D1*
X1029652D2*
X1346137D1*
X-1058590Y-2399667D2*
X-994944D1*
X1035121D2*
X1346046D1*
X-1070439Y-2449333D2*
X-995309D1*
X-306272D2*
X-274983D1*
X1035668D2*
X1346046D1*
X-1102066Y-2499000D2*
X-992574D1*
X1032204D2*
X1345954D1*
X-1086025Y-2548667D2*
X-952105D1*
X797595D2*
X812684D1*
X988090D2*
X1345954D1*
X-1066064Y-2598333D2*
X-989293D1*
X1033845D2*
X1345954D1*
X-1062509Y-2648000D2*
X-993759D1*
X-719710D2*
X-578681D1*
X1037309D2*
X1345863D1*
X-1074176Y-2697667D2*
X-993303D1*
X-719436D2*
X-578134D1*
X1037309D2*
X1345863D1*
X-1105439Y-2747333D2*
X-1067496D1*
X-583538D2*
X-554163D1*
X1012426D2*
X1345863D1*
X-1085660Y-2797000D2*
X-1067589D1*
X-570777D2*
X-290842D1*
X387165D2*
X588624D1*
X797595D2*
X1345772D1*
X-498863Y-2846667D2*
X-274983D1*
X341957D2*
X588624D1*
X797595D2*
X1345772D1*
X-483460Y-2896333D2*
X588624D1*
X797595D2*
X1345681D1*
X74353Y-2946000D2*
X258767D1*
X797595D2*
X1345681D1*
X-1096507Y-2995667D2*
X-1067678D1*
X-538238D2*
X-503212D1*
X143168D2*
X258767D1*
X797595D2*
X1345681D1*
X-1166233Y-3045333D2*
X-1067678D1*
X-583629D2*
X-503212D1*
X197035D2*
X258767D1*
X800147D2*
X1345590D1*
X-1301676Y-3095000D2*
X-1067678D1*
X236957D2*
X258829D1*
X788845D2*
X993038D1*
X1091723D2*
X1345590D1*
X-1301585Y-3144667D2*
X-1067678D1*
X621319D2*
X639023D1*
X737165D2*
X941632D1*
X1143129D2*
X1345590D1*
X-1301585Y-3194333D2*
X-1067678D1*
X-212210D2*
X38923D1*
X225928D2*
X258767D1*
X695421D2*
X930421D1*
X1154340D2*
X1345499D1*
X-1301493Y-3244000D2*
X-1067678D1*
X-212210D2*
X258767D1*
X1197999D2*
X1345499D1*
X-1116285Y-3293667D2*
X-1001142D1*
X-212210D2*
X258767D1*
X1197999D2*
X1345499D1*
X-1079098Y-3343333D2*
X-1003876D1*
X-212210D2*
X258767D1*
X685303D2*
X714013D1*
X1197999D2*
X1345408D1*
X-1063694Y-3393000D2*
X-1001142D1*
X-212210D2*
X258767D1*
X1197999D2*
X1345408D1*
X-1063967Y-3442667D2*
X-1001142D1*
X-475257D2*
X490915D1*
X1197999D2*
X1345316D1*
X-1080009Y-3492333D2*
X-1001142D1*
X-51155D2*
X522452D1*
X674639D2*
X714040D1*
X1197999D2*
X1345316D1*
X-1118382Y-3542000D2*
X-1001142D1*
X21033D2*
X478793D1*
X1197999D2*
X1345316D1*
X-1078004Y-3591667D2*
X-1001142D1*
X70707D2*
X429118D1*
X1197999D2*
X1345225D1*
X-1060595Y-3641333D2*
X-1001142D1*
X135056D2*
X379444D1*
X1197999D2*
X1345225D1*
X181814Y-3691000D2*
X329770D1*
X1197999D2*
X1345225D1*
X578572Y-3740667D2*
X714040D1*
X1197999D2*
X1345134D1*
X-1108264Y-3790333D2*
X-1063668D1*
X528897D2*
X714040D1*
X1197999D2*
X1345134D1*
X-1301129Y-3840000D2*
X-1063668D1*
X523975D2*
X714040D1*
X1197999D2*
X1345134D1*
X-1301129Y-3889667D2*
X-1063668D1*
X523975D2*
X714040D1*
X1197999D2*
X1345043D1*
X-1301038Y-3939333D2*
X-1063668D1*
X523975D2*
X714040D1*
X1197999D2*
X1345043D1*
X-1301038Y-3989000D2*
X-644397D1*
X1197999D2*
X1343949D1*
X-1301038Y-4038667D2*
X-681585D1*
X765603D2*
X1340212D1*
X-1294020Y-4088333D2*
X-694527D1*
X778546D2*
X1336475D1*
X-1283447Y-4138000D2*
X-694983D1*
X779001D2*
X1320434D1*
X-1263121Y-4187667D2*
X-694983D1*
X779001D2*
X1304118D1*
X-1240517Y-4237333D2*
X-694983D1*
X779001D2*
X1273585D1*
X-1200413Y-4287000D2*
X-694983D1*
X-47145D2*
X131163D1*
X779001D2*
X1237855D1*
X-1154384Y-4336667D2*
X-694983D1*
X-88525D2*
X172543D1*
X779001D2*
X1195382D1*
X-1089579Y-4386333D2*
X-687509D1*
X-149046D2*
X231970D1*
X771527D2*
X1120368D1*
X-951311Y-4436000D2*
X-659345D1*
X-153329D2*
X236163D1*
X743363D2*
X982556D1*
X-687233Y-1253425D2*
Y-1267133D1*
X-675000Y-1253126D1*
X-666078Y-1245018D1*
X-682302Y-1228974D1*
X-684670Y-1225971D1*
X-687233Y-1226083D1*
X-687324Y-1253417D1*
X-787002Y-1443417D2*
X-991233D1*
Y-969417D1*
X-737210D1*
X-776375Y-929993D1*
X-783477Y-920218D1*
X-788962Y-909452D1*
X-792696Y-897961D1*
X-794587Y-886003D1*
X-795939Y-757003D1*
X-799999Y-757001D1*
Y-740321D1*
X-811384Y-735338D1*
X-825700Y-726565D1*
X-838467Y-715660D1*
X-849371Y-702893D1*
X-858144Y-688577D1*
X-864570Y-673065D1*
X-868489Y-656738D1*
X-869807Y-640000D1*
X-868489Y-623262D1*
X-864570Y-606935D1*
X-860466Y-596460D1*
X-868953Y-587574D1*
X-878822Y-573991D1*
X-886445Y-559030D1*
X-891634Y-543062D1*
X-894260Y-526478D1*
Y-509688D1*
X-893354Y-502029D1*
X-897746Y-510190D1*
X-898030Y-801635D1*
X-900288Y-815894D1*
X-904749Y-829624D1*
X-911303Y-842487D1*
X-919789Y-854166D1*
X-1001913Y-936691D1*
X-1012890Y-946067D1*
X-1025199Y-953610D1*
X-1038537Y-959134D1*
X-1052575Y-962504D1*
X-1066967Y-963637D1*
X-1096771D1*
X-1111913Y-981087D1*
X-1121542Y-990012D1*
X-1103012Y-1008542D1*
X-1087609Y-1029743D1*
X-1075712Y-1053092D1*
X-1067614Y-1078015D1*
X-1063515Y-1103897D1*
Y-1130103D1*
X-1067614Y-1155985D1*
X-1075712Y-1180908D1*
X-1087609Y-1204257D1*
X-1103012Y-1225458D1*
X-1121542Y-1244012D1*
X-1103012Y-1262542D1*
X-1087609Y-1283743D1*
X-1075712Y-1307092D1*
X-1067614Y-1332015D1*
X-1063515Y-1357897D1*
Y-1384103D1*
X-1067614Y-1409985D1*
X-1075712Y-1434908D1*
X-1087609Y-1458257D1*
X-1103012Y-1479458D1*
X-1121542Y-1497988D1*
X-1123031Y-1499161D1*
X-1107012Y-1515542D1*
X-1091609Y-1536743D1*
X-1079712Y-1560092D1*
X-1071614Y-1585015D1*
X-1067515Y-1610897D1*
Y-1637103D1*
X-1071614Y-1662985D1*
X-1079712Y-1687908D1*
X-1091609Y-1711257D1*
X-1107012Y-1732458D1*
X-1123624Y-1749215D1*
X-1111913Y-1759913D1*
X-1094894Y-1779840D1*
X-1081202Y-1802184D1*
X-1071174Y-1826394D1*
X-1065056Y-1851875D1*
X-1063000Y-1878000D1*
X-1065056Y-1904125D1*
X-1071174Y-1929606D1*
X-1081202Y-1953816D1*
X-1094894Y-1976160D1*
X-1111913Y-1996087D1*
X-1123674Y-2006668D1*
X-1107012Y-2023542D1*
X-1091609Y-2044743D1*
X-1079712Y-2068092D1*
X-1071614Y-2093015D1*
X-1067515Y-2118897D1*
Y-2145103D1*
X-1071614Y-2170985D1*
X-1079712Y-2195908D1*
X-1091609Y-2219257D1*
X-1107012Y-2240458D1*
X-1123624Y-2257215D1*
X-1111913Y-2267913D1*
X-1094894Y-2287840D1*
X-1081202Y-2310184D1*
X-1071174Y-2334394D1*
X-1065056Y-2359875D1*
X-1063000Y-2386000D1*
X-1065056Y-2412125D1*
X-1071174Y-2437606D1*
X-1081202Y-2461816D1*
X-1094894Y-2484160D1*
X-1111913Y-2504087D1*
X-1120752Y-2512258D1*
X-1107012Y-2526542D1*
X-1091609Y-2547743D1*
X-1079712Y-2571092D1*
X-1071614Y-2596015D1*
X-1067515Y-2621897D1*
Y-2648103D1*
X-1071614Y-2673985D1*
X-1079712Y-2698908D1*
X-1091609Y-2722257D1*
X-1107012Y-2743458D1*
X-1123624Y-2760215D1*
X-1107837Y-2775136D1*
X-1095898Y-2789473D1*
X-1085633Y-2805052D1*
X-1077170Y-2821679D1*
X-1070615Y-2839147D1*
X-1066049Y-2857236D1*
X-1063529Y-2875722D1*
X-1063065Y-2893666D1*
X-1064627Y-2912257D1*
X-1068254Y-2930559D1*
X-1073899Y-2948341D1*
X-1081492Y-2965383D1*
X-1090939Y-2981471D1*
X-1102121Y-2996406D1*
X-1114900Y-3010000D1*
X-1129115Y-3022083D1*
X-1144589Y-3032506D1*
X-1161129Y-3041137D1*
X-1178529Y-3047870D1*
X-1196571Y-3052620D1*
X-1215030Y-3055328D1*
X-1233677Y-3055960D1*
X-1252277Y-3054507D1*
X-1270599Y-3050990D1*
X-1288415Y-3045450D1*
X-1306680Y-3037340D1*
X-1306522Y-3266386D1*
X-1285606Y-3258074D1*
X-1260125Y-3251956D1*
X-1234000Y-3249900D1*
X-1207875Y-3251956D1*
X-1182394Y-3258074D1*
X-1158184Y-3268102D1*
X-1135840Y-3281794D1*
X-1115913Y-3298813D1*
X-1098894Y-3318740D1*
X-1085202Y-3341084D1*
X-1075174Y-3365294D1*
X-1069056Y-3390775D1*
X-1067000Y-3416900D1*
X-1069056Y-3443025D1*
X-1075174Y-3468506D1*
X-1085202Y-3492716D1*
X-1098894Y-3515060D1*
X-1115913Y-3534987D1*
X-1123624Y-3542115D1*
X-1111913Y-3552813D1*
X-1094894Y-3572740D1*
X-1081202Y-3595084D1*
X-1071174Y-3619294D1*
X-1065056Y-3644775D1*
X-1063000Y-3670900D1*
X-1065056Y-3697025D1*
X-1071174Y-3722506D1*
X-1081202Y-3746716D1*
X-1094894Y-3769060D1*
X-1111913Y-3788987D1*
X-1131840Y-3806006D1*
X-1154184Y-3819698D1*
X-1178394Y-3829726D1*
X-1203875Y-3835844D1*
X-1230000Y-3837900D1*
X-1256125Y-3835844D1*
X-1281606Y-3829726D1*
X-1306129Y-3819523D1*
X-1306002Y-4055345D1*
X-1287077Y-4144309D1*
X-1247441Y-4234906D1*
X-1176254Y-4323181D1*
X-1100857Y-4383498D1*
X-996076Y-4430700D1*
X-866435Y-4447987D1*
X-643185Y-4447624D1*
X-654780Y-4435469D1*
X-668338Y-4416807D1*
X-678810Y-4396254D1*
X-685938Y-4374316D1*
X-689547Y-4351533D1*
X-690000Y-4293334D1*
X-689547Y-4088467D1*
X-685938Y-4065684D1*
X-678810Y-4043746D1*
X-668338Y-4023193D1*
X-654780Y-4004531D1*
X-638469Y-3988220D1*
X-619807Y-3974662D1*
X-600278Y-3964662D1*
X-1058687Y-3964647D1*
Y-3660647D1*
X-996153Y-3660333D1*
Y-3354591D1*
X-999237Y-3341450D1*
X-1000400Y-3326667D1*
X-999237Y-3311884D1*
X-996161Y-3298831D1*
X-996153Y-3254877D1*
X-1062636Y-3254871D1*
X-1062520Y-2731797D1*
X-978757D1*
X-984389Y-2718976D1*
X-987303Y-2707250D1*
X-988347Y-2695189D1*
X-988719Y-2619170D1*
X-986924Y-2607221D1*
X-983282Y-2595700D1*
X-977883Y-2584891D1*
X-970860Y-2575059D1*
X-962384Y-2566447D1*
X-952666Y-2559267D1*
X-941923Y-2553687D1*
X-939880Y-2551785D1*
X-952490Y-2545748D1*
X-963800Y-2537529D1*
X-973438Y-2527402D1*
X-981086Y-2515698D1*
X-986491Y-2502804D1*
X-989476Y-2489146D1*
X-990217Y-2461553D1*
X-990137Y-2400905D1*
X-987303Y-2387214D1*
X-982040Y-2374262D1*
X-974522Y-2362474D1*
X-964997Y-2352241D1*
X-953778Y-2343898D1*
X-941236Y-2337722D1*
X-927783Y-2333915D1*
X-918509Y-2332759D1*
X-799207Y-2331851D1*
X-785380Y-2333919D1*
X-772155Y-2338453D1*
X-767940Y-2340498D1*
X-767007Y-2331787D1*
Y-2246930D1*
X-917000Y-2247000D1*
Y-1653000D1*
X-786935D1*
X-787000Y-1443425D1*
X-687233Y-1019456D2*
Y-1042060D1*
X-680230Y-1039538D1*
X-684238Y-1022462D1*
X213711Y-1170000D2*
X257461D1*
X257500Y-1091961D1*
X213842Y-1092001D1*
X213763Y-1170037D1*
X-53000Y-1574914D2*
Y-1257930D1*
X-57000Y-1264334D1*
Y-1574920D1*
X-503950Y-1679000D2*
X-583065D1*
X-573290Y-1682870D1*
X-507756D1*
X723667Y-3221407D2*
X939373D1*
X936687Y-3209128D1*
X935370Y-3192390D1*
X936687Y-3175652D1*
X940607Y-3159325D1*
X947032Y-3143813D1*
X955805Y-3129497D1*
X966710Y-3116730D1*
X979477Y-3105825D1*
X993793Y-3097052D1*
X1009305Y-3090627D1*
X1025632Y-3086707D1*
X1042370Y-3085390D1*
X1059108Y-3086707D1*
X1075435Y-3090627D1*
X1090947Y-3097052D1*
X1105263Y-3105825D1*
X1118030Y-3116730D1*
X1128935Y-3129497D1*
X1137708Y-3143813D1*
X1144133Y-3159325D1*
X1148053Y-3175652D1*
X1149370Y-3192390D1*
X1148053Y-3209128D1*
X1145282Y-3221380D1*
X1193001Y-3221407D1*
Y-4004001D1*
X738780Y-4004531D1*
X752338Y-4023193D1*
X762810Y-4043746D1*
X769938Y-4065684D1*
X773547Y-4088467D1*
X774000Y-4146667D1*
X773547Y-4351533D1*
X769938Y-4374316D1*
X762810Y-4396254D1*
X752338Y-4416807D1*
X738780Y-4435469D1*
X729455Y-4445322D1*
X925181Y-4445003D1*
X1017665Y-4431655D1*
X1109603Y-4396590D1*
X1198384Y-4338979D1*
X1259832Y-4267117D1*
X1308233Y-4190238D1*
X1341297Y-4090080D1*
X1350001Y-3975041D1*
X1351649Y-1518783D1*
X1335908Y-1526288D1*
X1310985Y-1534386D1*
X1285103Y-1538485D1*
X1258897D1*
X1233015Y-1534386D1*
X1208092Y-1526288D1*
X1184743Y-1514391D1*
X1163542Y-1498988D1*
X1145012Y-1480458D1*
X1129609Y-1459257D1*
X1117712Y-1435908D1*
X1109614Y-1410985D1*
X1105515Y-1385103D1*
Y-1358897D1*
X1109614Y-1333015D1*
X1117712Y-1308092D1*
X1129609Y-1284743D1*
X1145012Y-1263542D1*
X1163582Y-1244980D1*
X1148496Y-1230409D1*
X1139027Y-1219015D1*
X1140067Y-1233920D1*
X1138749Y-1250658D1*
X1134830Y-1266985D1*
X1128404Y-1282497D1*
X1119631Y-1296813D1*
X1108727Y-1309580D1*
X1095960Y-1320485D1*
X1081435Y-1329354D1*
X1078637Y-1348479D1*
X1073448Y-1364447D1*
X1065826Y-1379407D1*
X1055957Y-1392991D1*
X1044084Y-1404863D1*
X1030501Y-1414732D1*
X1015540Y-1422355D1*
X998124Y-1427832D1*
X998147Y-1463585D1*
X1001829Y-1479258D1*
X1003147Y-1495997D1*
X1001829Y-1512735D1*
X997910Y-1529061D1*
X991484Y-1544574D1*
X982711Y-1558890D1*
X970964Y-1572437D1*
X1002621Y-1604511D1*
X1011106Y-1616190D1*
X1017660Y-1629053D1*
X1022121Y-1642783D1*
X1024380Y-1657042D1*
X1024663Y-1780927D1*
Y-2376382D1*
X1028077Y-2386830D1*
X1030062Y-2398748D1*
X1030908Y-2474787D1*
X1030056Y-2486840D1*
X1027330Y-2498611D1*
X1022795Y-2509811D1*
X1016565Y-2520163D1*
X1008791Y-2529413D1*
X999666Y-2537334D1*
X989415Y-2543729D1*
X983923Y-2546313D1*
X982238Y-2548348D1*
X994817Y-2554448D1*
X1006087Y-2562722D1*
X1015675Y-2572898D1*
X1023264Y-2584639D1*
X1028606Y-2597559D1*
X1031523Y-2611232D1*
X1032180Y-2633780D1*
X1032137Y-2699095D1*
X1029303Y-2712786D1*
X1024041Y-2725738D1*
X1016523Y-2737526D1*
X1006997Y-2747759D1*
X995778Y-2756102D1*
X983236Y-2762278D1*
X969784Y-2766085D1*
X960510Y-2767242D1*
X841588Y-2768170D1*
X827751Y-2766171D1*
X814504Y-2761702D1*
X802283Y-2754912D1*
X794893Y-2749191D1*
X792597Y-2769773D1*
Y-3023979D1*
X794793Y-3038772D1*
Y-3055562D1*
X792167Y-3072145D1*
X786978Y-3088114D1*
X779356Y-3103074D1*
X769487Y-3116658D1*
X757614Y-3128530D1*
X744031Y-3138399D1*
X729070Y-3146022D1*
X713102Y-3151210D1*
X696518Y-3153837D1*
X679728D1*
X663145Y-3151210D1*
X647176Y-3146022D1*
X642676Y-3143947D1*
X615532Y-3143944D1*
X640524Y-3151975D1*
X655484Y-3159598D1*
X669068Y-3169467D1*
X680940Y-3181339D1*
X690809Y-3194923D1*
X698432Y-3209883D1*
X703620Y-3225851D1*
X706247Y-3242435D1*
Y-3259225D1*
X703620Y-3275809D1*
X698432Y-3291777D1*
X690809Y-3306737D1*
X680940Y-3320321D1*
X669236Y-3332037D1*
X679877Y-3342866D1*
X689746Y-3356449D1*
X697368Y-3371410D1*
X702557Y-3387378D1*
X705183Y-3403962D1*
Y-3420752D1*
X702557Y-3437335D1*
X697368Y-3453304D1*
X689746Y-3468264D1*
X679877Y-3481848D1*
X668004Y-3493720D1*
X654421Y-3503589D1*
X642113Y-3509989D1*
X672753Y-3510000D1*
X688262Y-3506317D1*
X705000Y-3505000D1*
X718968Y-3505989D1*
X719001Y-3221407D1*
X723667D1*
X719001Y-3985316D2*
Y-3718076D1*
X705000Y-3719000D1*
X688262Y-3717683D1*
X672788Y-3714004D1*
X600242Y-3714000D1*
X518949Y-3795301D1*
X519001Y-4000227D1*
X531531Y-3988220D1*
X550193Y-3974662D1*
X570746Y-3964190D1*
X592684Y-3957062D1*
X615467Y-3953453D1*
X638533D1*
X661316Y-3957062D1*
X683254Y-3964190D1*
X703807Y-3974662D1*
X719034Y-3985513D1*
X-1121566Y279002D2*
X-1107837Y265864D1*
X-1095898Y251527D1*
X-1085633Y235948D1*
X-1077170Y219321D1*
X-1074944Y213989D1*
X-1018024Y270887D1*
X-1025160Y287799D1*
X-1029079Y304125D1*
X-1030397Y320863D1*
X-1029079Y337602D1*
X-1025160Y353928D1*
X-1018237Y370328D1*
X-1017953Y405388D1*
X-1015695Y419647D1*
X-1011234Y433377D1*
X-1004680Y446240D1*
X-996194Y457919D1*
X-908795Y545720D1*
X-881156Y572957D1*
X-869477Y581443D1*
X-856614Y587997D1*
X-842884Y592458D1*
X-828625Y594716D1*
X-821378Y594999D1*
X-808322Y612589D1*
X-808449Y627057D1*
X-830000Y630000D1*
X-1173108D1*
X-1235639Y610023D1*
X-1280497Y565147D1*
X-1256125Y570944D1*
X-1230000Y573000D1*
X-1203875Y570944D1*
X-1178394Y564826D1*
X-1154184Y554798D1*
X-1131840Y541106D1*
X-1111913Y524087D1*
X-1094894Y504160D1*
X-1081202Y481816D1*
X-1071174Y457606D1*
X-1065056Y432125D1*
X-1063000Y406000D1*
X-1065056Y379875D1*
X-1071174Y354394D1*
X-1081202Y330184D1*
X-1094894Y307840D1*
X-1111913Y287913D1*
X-1121582Y278980D1*
X1116808Y-294543D2*
X1123202Y-280184D1*
X1136894Y-257840D1*
X1153913Y-237913D1*
X1163542Y-228988D1*
X1145012Y-210458D1*
X1129609Y-189257D1*
X1117712Y-165908D1*
X1109614Y-140985D1*
X1106075Y-119833D1*
X1106080Y-283783D1*
X1116796Y-294504D1*
X1106075Y-84167D2*
X1109614Y-63015D1*
X1117712Y-38092D1*
X1129609Y-14743D1*
X1145012Y6458D1*
X1163542Y25012D1*
X1145012Y43542D1*
X1129609Y64743D1*
X1117712Y88092D1*
X1109614Y113015D1*
X1105515Y138897D1*
Y165103D1*
X1109614Y190985D1*
X1117712Y215908D1*
X1129609Y239257D1*
X1145012Y260458D1*
X1163542Y279012D1*
X1145012Y297542D1*
X1129609Y318743D1*
X1117712Y342092D1*
X1109614Y367015D1*
X1105515Y392897D1*
Y419103D1*
X1109614Y444985D1*
X1117712Y469908D1*
X1129609Y493257D1*
X1145012Y514458D1*
X1163542Y532988D1*
X1184743Y548391D1*
X1208092Y560288D1*
X1233015Y568386D1*
X1258897Y572485D1*
X1285103D1*
X1310985Y568386D1*
X1322965Y565007D1*
X1271888Y610325D1*
X1196783Y629999D1*
X880352Y630000D1*
X884001Y619999D1*
Y599127D1*
X899900Y589495D1*
X912667Y578590D1*
X923571Y565823D1*
X932344Y551507D1*
X938770Y535995D1*
X942689Y519668D1*
X944007Y502930D1*
X942689Y486192D1*
X938770Y469865D1*
X932344Y454353D1*
X922454Y438619D1*
X932424Y422704D1*
X938850Y407191D1*
X942769Y390865D1*
X944087Y374127D1*
X942769Y357388D1*
X938850Y341062D1*
X932424Y325550D1*
X923651Y311234D1*
X919771Y306311D1*
X1084637Y141022D1*
X1092891Y129660D1*
X1099267Y117147D1*
X1103607Y103790D1*
X1105804Y89919D1*
X1106080Y-57103D1*
Y-83080D1*
X-1121582Y-735980D2*
X-1103012Y-754542D1*
X-1093044Y-767608D1*
X-1081685Y-756247D1*
X-1081747Y-698987D1*
X-1086813Y-699871D1*
X-1094894Y-707160D1*
X-1111913Y-727087D1*
X-1121582Y-736020D1*
X1115682Y-1059270D2*
X1122597Y-1043383D1*
X1131853Y-1027183D1*
X1142857Y-1012117D1*
X1155474Y-998373D1*
X1163542Y-990988D1*
X1145012Y-972458D1*
X1129609Y-951257D1*
X1117712Y-927908D1*
X1115684Y-923423D1*
Y-1059139D1*
X-583000Y-1966998D2*
Y-2039367D1*
X-567910Y-2045662D1*
X-553594Y-2054435D1*
X-540826Y-2065340D1*
X-529922Y-2078107D1*
X-521149Y-2092423D1*
X-514724Y-2107935D1*
X-510804Y-2124262D1*
X-509487Y-2141000D1*
X-510804Y-2157738D1*
X-514724Y-2174065D1*
X-521149Y-2189577D1*
X-529922Y-2203893D1*
X-540826Y-2216660D1*
X-553594Y-2227565D1*
X-567910Y-2236338D1*
X-583022Y-2242615D1*
X-583006Y-2457039D1*
X-575268Y-2453567D1*
X-575452Y-2400856D1*
X-573657Y-2388908D1*
X-570016Y-2377387D1*
X-564617Y-2366577D1*
X-557593Y-2356746D1*
X-549118Y-2348134D1*
X-539400Y-2340954D1*
X-528678Y-2335382D1*
X-517217Y-2331557D1*
X-505299Y-2329571D1*
X-457972Y-2328955D1*
X-468537Y-2318010D1*
X-477715Y-2305379D1*
X-484803Y-2291467D1*
X-489628Y-2276618D1*
X-492070Y-2261197D1*
X-492377Y-2136723D1*
Y-1866841D1*
X-582938Y-1866870D1*
X-583091Y-1967000D1*
X-50000Y-2030972D2*
Y-2177352D1*
X-45000Y-2175334D1*
Y-1773967D1*
X-50000Y-1793667D1*
X-50091Y-2031000D1*
X517601Y-1766206D2*
Y-1931180D1*
X557997Y-1890807D1*
X558001Y-1736363D1*
X543870Y-1750061D1*
X531239Y-1759238D1*
X524394Y-1763068D1*
X-269999Y-2469363D2*
Y-2440196D1*
X-305690Y-2440106D1*
X-311279Y-2451453D1*
X-311233Y-2457195D1*
X-294600Y-2459615D1*
X-280870Y-2464076D1*
X-274285Y-2467114D1*
X181783Y-3039302D2*
X195326Y-3047642D1*
X208094Y-3058546D1*
X218998Y-3071314D1*
X227771Y-3085630D1*
X234196Y-3101142D1*
X238116Y-3117468D1*
X239433Y-3134207D1*
X238116Y-3150945D1*
X234196Y-3167271D1*
X227771Y-3182784D1*
X218998Y-3197100D1*
X208094Y-3209867D1*
X195326Y-3220771D1*
X181010Y-3229544D1*
X165498Y-3235970D1*
X149172Y-3239889D1*
X132433Y-3241207D1*
X115695Y-3239889D1*
X99369Y-3235970D1*
X83856Y-3229544D1*
X69540Y-3220771D1*
X56773Y-3209867D1*
X45869Y-3197100D1*
X37529Y-3183557D1*
X434Y-3146458D1*
X-217187Y-3146444D1*
X-217247Y-3413443D1*
X-451036D1*
X-528282Y-3490657D1*
X-66178Y-3490990D1*
X-51920Y-3493249D1*
X-38190Y-3497710D1*
X-25327Y-3504264D1*
X-13647Y-3512749D1*
X74153Y-3600149D1*
X105927Y-3631922D1*
X120497Y-3636798D1*
X135457Y-3644421D1*
X149041Y-3654290D1*
X160913Y-3666162D1*
X170782Y-3679746D1*
X178405Y-3694706D1*
X183175Y-3709190D1*
X207073Y-3733070D1*
X225001Y-3738001D1*
X298087D1*
X305030Y-3724705D1*
X314438Y-3711756D1*
X385872Y-3639878D1*
X491756Y-3534439D1*
X504705Y-3525031D1*
X518966Y-3517764D1*
X534189Y-3512818D1*
X550028Y-3510313D1*
X549936Y-3507694D1*
X535620Y-3498921D1*
X522853Y-3488017D1*
X511949Y-3475250D1*
X503176Y-3460934D1*
X496750Y-3445421D1*
X494888Y-3438820D1*
X469461Y-3413412D1*
X263753Y-3413443D1*
Y-2929443D1*
X544753D1*
Y-2945029D1*
X593563Y-2944943D1*
X593596Y-2749587D1*
X581400Y-2759046D1*
X570678Y-2764618D1*
X559217Y-2768443D1*
X547299Y-2770429D1*
X431266Y-2771594D1*
X419190Y-2770738D1*
X409397Y-2773708D1*
X394746Y-2787958D1*
X383067Y-2796443D1*
X370204Y-2802997D1*
X356474Y-2807458D1*
X342187Y-2809718D1*
X337000Y-2810029D1*
Y-2873000D1*
X33000D1*
Y-2869993D1*
X-269999Y-2870001D1*
Y-2808295D1*
X-284776Y-2797957D1*
X-324153Y-2758981D1*
X-341838Y-2761847D1*
X-357743Y-2761882D1*
X-367796Y-2765123D1*
X-379715Y-2767109D1*
X-495747Y-2768275D1*
X-507800Y-2767423D1*
X-519571Y-2764696D1*
X-530771Y-2760162D1*
X-541123Y-2753931D1*
X-550373Y-2746158D1*
X-558294Y-2737033D1*
X-564689Y-2726782D1*
X-569402Y-2715656D1*
X-572317Y-2703930D1*
X-573360Y-2691869D1*
X-573767Y-2641126D1*
X-651605Y-2640790D1*
X-665864Y-2638532D1*
X-679594Y-2634071D1*
X-692457Y-2627517D1*
X-704136Y-2619031D1*
X-731903Y-2591665D1*
X-727190Y-2605143D1*
X-725205Y-2617061D1*
X-724359Y-2693101D1*
X-725211Y-2705153D1*
X-727937Y-2716924D1*
X-732483Y-2728145D1*
X-732520Y-2731797D1*
X-588520D1*
Y-2795326D1*
X-570328Y-2798156D1*
X-554360Y-2803345D1*
X-539399Y-2810968D1*
X-525816Y-2820837D1*
X-513943Y-2832709D1*
X-504074Y-2846293D1*
X-496452Y-2861253D1*
X-491263Y-2877221D1*
X-488637Y-2893805D1*
Y-2910595D1*
X-491896Y-2929421D1*
X-498247Y-2949443D1*
Y-2947178D1*
X-504074Y-2958107D1*
X-513943Y-2971691D1*
X-525816Y-2983563D1*
X-539399Y-2993432D1*
X-554360Y-3001055D1*
X-570328Y-3006244D1*
X-588518Y-3008933D1*
X-588636Y-3090962D1*
X-572360Y-3083946D1*
X-558322Y-3080576D1*
X-543902Y-3079444D1*
X-498266Y-3079443D1*
X-498247Y-2949443D1*
X-491775Y-2929443D1*
X-217247D1*
Y-2942477D1*
X50673Y-2942757D1*
X66482Y-2945261D1*
X81704Y-2950207D1*
X95965Y-2957474D1*
X108914Y-2966882D1*
X181759Y-3039282D1*
X121432Y-4240433D2*
X110874Y-4250883D1*
X97291Y-4260752D1*
X82330Y-4268375D1*
X66362Y-4273564D1*
X49778Y-4276190D1*
X32988D1*
X16405Y-4273564D1*
X436Y-4268375D1*
X-5283Y-4266520D1*
X-21911Y-4265326D1*
X-36739Y-4261763D1*
X-43195Y-4265425D1*
X-52022Y-4286737D1*
X-64075Y-4306404D1*
X-79055Y-4323945D1*
X-96596Y-4338925D1*
X-116263Y-4350978D1*
X-137575Y-4359805D1*
X-154070Y-4364127D1*
X-154307Y-4416835D1*
X-156197Y-4428769D1*
X-159931Y-4440260D1*
X-162474Y-4445771D1*
X-144709Y-4446791D1*
X245322Y-4445751D1*
X240698Y-4434588D1*
X237878Y-4422839D1*
X236931Y-4410770D1*
X236930Y-4363853D1*
X221575Y-4359805D1*
X200263Y-4350978D1*
X180596Y-4338925D1*
X163055Y-4323945D1*
X148075Y-4306404D1*
X136022Y-4286737D1*
X127195Y-4265425D1*
X121810Y-4242996D1*
X121508Y-4240444D1*
X-766966Y-2546730D2*
X-775488Y-2550611D1*
X-762211Y-2557743D1*
X-757138Y-2561077D1*
X-762512Y-2546856D1*
X589415Y-2536857D2*
X579680Y-2544053D1*
X568936Y-2549632D1*
X568980Y-2552344D1*
X579789Y-2557744D1*
X589638Y-2564783D1*
X593596Y-2554443D1*
Y-2533024D1*
X777372Y-2366598D2*
X784755Y-2356121D1*
X777706Y-2356396D1*
X773611Y-2361314D1*
X815042Y-2547664D2*
X804211Y-2542257D1*
X794362Y-2535217D1*
X792597Y-2536440D1*
Y-2564969D1*
X801022Y-2558124D1*
X813168Y-2551199D1*
X817488Y-2549389D1*
X-584650Y-3959130D2*
X-571524Y-3955909D1*
X-578562Y-3953895D1*
X-501263Y-3959154D2*
X-486746Y-3964190D1*
X-466193Y-3974662D1*
X-447531Y-3988220D1*
X-434985Y-4000459D1*
X-434999Y-3959201D1*
X-500956Y-3959144D1*
X-490175Y-1245018D2*
X-480027Y-1254453D1*
X-480000Y-1235529D1*
X-490175Y-1244982D1*
X-839233Y-1301417D2*
D10*
Y-1443326D1*
X-991142Y-1301417D2*
X-839233D1*
X-52909Y-1508000D2*
X99000D1*
X-786909Y-1527000D2*
X-645000D1*
X-1062428Y-2883797D2*
X-920520D1*
X-1062545Y-3102870D2*
X-920637D1*
X861000Y-3221498D2*
Y-3373407D1*
X719092D2*
X861000D1*
X1051000Y-3852000D2*
Y-4003910D1*
Y-3852000D2*
X1192910D1*
X-916687Y-3812647D2*
Y-3964556D1*
X-1058595Y-3812647D2*
X-916687D1*
X-1230000Y-2889000D2*
Y-3055909D1*
Y-2889000D2*
X-1063091D1*
X232500Y-920000D2*
Y-1091909D1*
X-858353Y-2332106D2*
Y-2444163D1*
X-990430D2*
X-858353D1*
X900353Y-2655837D2*
Y-2767894D1*
Y-2655837D2*
X1032430D1*
X-996062Y-3556666D2*
X-869153D1*
D21*
X-839233Y-1301417D3*
Y-1111417D3*
X365620Y-1502000D3*
Y-1312000D3*
X99000Y-1508000D3*
Y-1318000D3*
D22*
X-645000Y-1527000D3*
X-455000D3*
D21*
X185000Y-2731000D3*
Y-2541000D3*
D22*
X-920520Y-2883797D3*
X-730520D3*
X-920637Y-3102870D3*
X-730637D3*
X861000Y-3373407D3*
X1051000D3*
X861000Y-3852000D3*
X1051000D3*
X861000Y-3612000D3*
X1051000D3*
X-726687Y-3812647D3*
X-916687D3*
D24*
X-1230000Y-356000D3*
Y-102000D3*
Y152000D3*
Y406000D3*
X1272000Y-356000D3*
Y-102000D3*
Y152000D3*
Y406000D3*
X-1230000Y-1371000D3*
Y-1117000D3*
Y-863000D3*
Y-609000D3*
X1272000Y-1372000D3*
Y-1118000D3*
Y-864000D3*
Y-610000D3*
X-1234000Y-1624000D3*
D25*
X-1230000Y-1878000D3*
D24*
X-1234000Y-2132000D3*
D25*
X-1230000Y-2386000D3*
D24*
X-1234000Y-2635000D3*
D25*
X-1230000Y-2889000D3*
D24*
X-1234000Y-3416900D3*
D25*
X-1230000Y-3670900D3*
D27*
X637071Y-1313658D3*
Y-1143658D3*
D28*
X-750000Y-2090000D3*
Y-1810000D3*
D21*
X-209000Y-1503000D3*
Y-1313000D3*
X-202000Y-2079000D3*
Y-1889000D3*
X107000Y-2080000D3*
Y-1890000D3*
X365600Y-2089000D3*
Y-1899000D3*
X-118000Y-2728000D3*
Y-2538000D3*
D30*
X825000Y-2120000D3*
Y-1780000D3*
X675000Y-2120000D3*
Y-1780000D3*
D31*
X-628000Y-640000D3*
Y-513000D3*
Y-386000D3*
Y-259000D3*
Y-132000D3*
Y-5000D3*
Y122000D3*
Y249000D3*
Y376000D3*
Y503000D3*
X712000Y-640000D3*
Y-513000D3*
Y-386000D3*
Y-259000D3*
Y-132000D3*
Y-5000D3*
Y122000D3*
Y249000D3*
Y376000D3*
Y503000D3*
D32*
X-21500Y-920000D3*
X105500D3*
X-148500D3*
X232500D3*
X-275500D3*
X359500D3*
X-402500D3*
X486500D3*
D33*
X502000Y-443000D3*
Y-315000D3*
Y-189000D3*
Y-61000D3*
Y66000D3*
Y193000D3*
Y320000D3*
D34*
X-339000Y-710000D3*
X-212000D3*
X-85000D3*
X42000D3*
X169000D3*
X295000D3*
X423000D3*
D33*
X502000Y447000D3*
D88*
X-858353Y-2444163D3*
X-856633Y-2659157D3*
X-443367Y-2440843D3*
X-441647Y-2655837D3*
X483647Y-2444163D3*
X485367Y-2659157D3*
X898633Y-2440843D3*
X900353Y-2655837D3*
D35*
X-357747Y-3171443D3*
X404253D3*
X-357747Y-3044443D3*
X404253D3*
X-357747Y-3298443D3*
X404253D3*
D37*
X-869153Y-3556666D3*
D38*
X-699153D3*
Y-3326666D3*
X-889153D3*
D39*
X627000Y-4220000D3*
X-543000D3*
D40*
X-308000Y-3950000D3*
X-58000D3*
X142000D3*
X392000D3*
D97*
X403930Y-4310793D3*
D100*
X-321070D3*
D42*
X-578127Y-1350000D3*
Y-1140000D3*
G04 Top Clear*
%LPC*%
D15*
X837007Y502930D3*
X837087Y374127D3*
X-923397Y320863D3*
X-1073273Y20463D3*
X-751700Y-5550D3*
X838183Y-7077D3*
X-907450Y-110743D3*
X-759317Y-255560D3*
X-822293Y-422013D3*
X-787590Y-518083D3*
X-762807Y-640000D3*
X-578467Y-1006473D3*
X106767Y-1052003D3*
X3903Y-1167337D3*
X232000Y-1106000D3*
X-209000Y-1208000D3*
X1033067Y-1233920D3*
X974593Y-1323500D3*
X635598Y-1416252D3*
X739770Y-1471487D3*
X896147Y-1495997D3*
X-962180Y-1547077D3*
X233990Y-1588557D3*
X105357Y-1769187D3*
X262853Y-1768893D3*
X-200220Y-1779233D3*
X-616487Y-2141000D3*
X-350233Y-2655177D3*
X-595307Y-2902200D3*
X688123Y-3047167D3*
X132433Y-3134207D3*
X1042370Y-3192390D3*
X-1045267Y-3223637D3*
X599577Y-3250830D3*
X598513Y-3412357D3*
X705000Y-3612000D3*
X79550Y-3735653D3*
X-310353Y-3773427D3*
X41383Y-4169520D3*
X842570Y-132553D3*
X-153057Y-1077827D3*
D45*
X-1230000Y-356000D3*
Y-102000D3*
Y152000D3*
Y406000D3*
X1272000Y-356000D3*
Y-102000D3*
Y152000D3*
Y406000D3*
X-1230000Y-1371000D3*
Y-1117000D3*
Y-863000D3*
Y-609000D3*
X1272000Y-1372000D3*
Y-1118000D3*
Y-864000D3*
Y-610000D3*
X-1234000Y-1624000D3*
X-1230000Y-1878000D3*
X-1234000Y-2132000D3*
X-1230000Y-2386000D3*
X-1234000Y-2635000D3*
X-1230000Y-2889000D3*
X-1234000Y-3416900D3*
X-1230000Y-3670900D3*
D14*
X502000Y-443000D3*
Y-315000D3*
Y-189000D3*
Y-61000D3*
Y66000D3*
Y193000D3*
Y320000D3*
X-339000Y-710000D3*
X-212000D3*
X-85000D3*
X42000D3*
X169000D3*
X295000D3*
X423000D3*
X502000Y447000D3*
X627000Y-4295000D2*
D45*
Y-4145000D1*
X-543000Y-4295000D2*
Y-4145000D1*
X403930Y-4330793D2*
D44*
Y-4290793D1*
X-321070Y-4330793D2*
Y-4290793D1*
D16*
X-578127Y-1350000D3*
Y-1140000D3*
M02*
