G04 DipTrace 3.2.0.1*
G04 Нижний.gbr*
%MOIN*%
G04 #@! TF.FileFunction,Copper,L2,Bot*
G04 #@! TF.Part,Single*
%AMOUTLINE3*
4,1,4,
0.111369,0.061472,
-0.038253,-0.121322,
-0.111369,-0.061472,
0.038253,0.121322,
0.111369,0.061472,
0*%
%AMOUTLINE6*
4,1,4,
0.106654,0.024631,
-0.003071,-0.109417,
-0.106654,-0.024631,
0.003071,0.109417,
0.106654,0.024631,
0*%
%AMOUTLINE9*
4,1,5,
-0.035433,0.015748,
-0.035433,-0.03937,
0.035433,-0.03937,
0.035433,0.03937,
-0.011811,0.03937,
-0.035433,0.015748,
0*%
%AMOUTLINE12*
4,1,5,
-0.035433,-0.03937,
0.035433,-0.03937,
0.035433,0.015748,
0.011811,0.03937,
-0.035433,0.03937,
-0.035433,-0.03937,
0*%
%ADD14C,0.019685*%
%ADD15C,0.011811*%
%ADD16C,0.023622*%
%ADD17C,0.015748*%
%ADD44C,0.027559*%
%ADD45C,0.03937*%
G04 #@! TA.AperFunction,CopperBalancing*
%ADD10C,0.009843*%
%ADD23R,0.114173X0.072835*%
G04 #@! TA.AperFunction,ComponentPad*
%ADD24C,0.070866*%
%ADD25C,0.070866*%
%ADD26C,0.059055*%
G04 #@! TA.AperFunction,ComponentPad*
%ADD32R,0.043307X0.029528*%
%ADD33R,0.029528X0.043307*%
%ADD37O,0.055118X0.149606*%
%ADD39R,0.015748X0.05315*%
G04 #@! TA.AperFunction,ComponentPad*
%ADD41C,0.047244*%
G04 #@! TA.AperFunction,ViaPad*
%ADD42C,0.031496*%
%ADD89OUTLINE3*%
%ADD92OUTLINE6*%
G04 #@! TA.AperFunction,ComponentPad*
%ADD95OUTLINE9*%
%ADD98OUTLINE12*%
%FSLAX26Y26*%
G04*
G70*
G90*
G75*
G01*
G04 Bottom*
%LPD*%
X92122Y-625416D2*
D14*
X91339D1*
Y-435433D1*
X-295945Y-2185D2*
X-366843D1*
X-391883Y-27226D1*
Y-63545D1*
X-387320Y-68108D1*
Y-418396D1*
X-378811Y-426906D1*
Y-609085D1*
X-295945Y-2185D2*
D17*
X-363013D1*
X-425041Y59843D1*
X-484252D1*
X500787Y-440157D2*
D14*
X428290Y-367660D1*
X197917D1*
X166535Y-336278D1*
Y-279528D1*
X-411522Y-1269148D2*
D16*
X-282466Y-1398205D1*
X-240714D1*
D15*
X-186442Y-1343933D1*
X-349234Y-1507504D2*
D16*
Y-1520037D1*
X-186442Y-1357245D1*
Y-1343933D1*
X-60259Y-424341D2*
D15*
Y-452245D1*
X-50717Y-461787D1*
Y-490903D1*
X-69354Y-509541D1*
X-93172D1*
X-119387Y-483325D1*
Y-373705D1*
X-190589Y-302503D1*
Y-143345D1*
X-125984Y-78740D1*
X-125429Y-78978D2*
X-125984Y-78740D1*
X42034Y-414175D2*
D16*
X58965Y-397244D1*
X123530D1*
X164440Y-438154D1*
X217235D1*
X215793Y-439596D1*
X-242711Y-842913D2*
X-196722D1*
X17037D1*
X140925Y-719025D1*
Y-628323D1*
X215793Y-553455D1*
Y-439596D1*
X-484252Y159843D2*
D17*
Y171106D1*
X-262147D1*
X-218614Y127573D1*
Y-122341D1*
X-235348Y-139075D1*
Y-302560D1*
X-149455Y-388453D1*
Y-842913D1*
X-242711D1*
X-196722D2*
D14*
Y-945681D1*
X-355900Y-1104860D1*
X-488878Y-1237837D1*
Y-1345236D1*
X-485827D1*
Y-1037402D2*
X-423358D1*
X-355900Y-1104860D1*
X500787Y-540157D2*
D17*
X512793D1*
X412231Y-439596D1*
X215793D1*
X-82283Y-475591D2*
D15*
X-78585D1*
X-91470Y-462706D1*
Y-271522D1*
X-83465Y-279528D1*
X1537Y-459581D2*
Y-620122D1*
X-78827Y-700486D1*
X66535Y-279528D2*
Y-332293D1*
X5180Y-393648D1*
Y-423584D1*
X33256Y-451660D1*
Y-626185D1*
X103486Y-696415D1*
X-33465Y-279528D2*
X-29294D1*
Y-438950D1*
X-26311Y-441932D1*
Y-504992D1*
X-120845Y-599526D1*
Y-732623D1*
X-88000Y-765469D1*
X-27459D1*
X41479Y-696530D1*
X197638Y-174409D2*
X466535D1*
X500787Y-140157D1*
X-300318Y-251969D2*
Y-270012D1*
X-299448Y-270882D1*
Y-673680D1*
X-364154Y-738386D1*
X-483268D1*
X-484252Y-739370D1*
X-357264Y-43600D2*
X-355958D1*
X-298944Y-100614D1*
X-363542Y126324D2*
X-278625D1*
X-251264Y98963D1*
Y-102260D1*
X-282125Y-133121D1*
X-344438D1*
X-357874Y-146556D1*
Y-394203D1*
X-348503Y-403575D1*
Y-629211D1*
X-370699Y-651408D1*
X-397962D1*
X-421331Y-628039D1*
Y-555340D1*
X-435612Y-541059D1*
X-482957D1*
X-484252Y-539764D1*
X-323738Y-166147D2*
X-283681D1*
X-271588Y-178240D1*
Y-684766D1*
X-432598Y-845777D1*
X-479420D1*
X-485827Y-839370D1*
X-310075Y-203970D2*
X-331070Y-224965D1*
Y-281453D1*
X-324278Y-288244D1*
Y-661924D1*
X-345654Y-683299D1*
X-441898D1*
X-485827Y-639370D1*
X-236425Y-386159D2*
X-195354D1*
X-177665Y-403849D1*
Y-629791D1*
X-496102Y-948228D1*
X-475394D1*
X-484252Y-939370D1*
X16535Y-279528D2*
D10*
Y-251741D1*
X-65903Y-169303D1*
X-117630D1*
Y-177646D1*
X-125984Y-169291D1*
X-124934Y-169672D2*
D15*
X-117630Y-169303D1*
X-137887Y-1045345D2*
X-117689D1*
X174348Y-753308D1*
Y-699759D1*
X253646Y-620461D1*
Y-484667D1*
X260601Y-1419625D2*
D16*
X217535D1*
X181719Y-1383808D1*
X-35694D1*
X-88672D1*
X-169328Y-1464465D1*
D14*
Y-1503357D1*
X-140404Y-1532281D1*
X-58587D1*
D17*
X-34870Y-1555997D1*
Y-1595785D1*
X-35694Y-1383808D2*
D14*
Y-1197249D1*
X-90345Y-1142598D1*
X-236441D1*
X410382Y-1256846D2*
D15*
Y-841942D1*
X469318Y-783007D1*
Y-686825D1*
X368136Y-585644D1*
X197638Y-124016D2*
X416929D1*
X500787Y-40157D1*
X-9280Y-1595785D2*
D17*
Y-1502812D1*
X17762Y-1475770D1*
X92864Y-1475175D2*
D10*
X94496D1*
X135264Y-1515942D1*
X319206D1*
X525251Y-1309898D1*
Y-651655D1*
X387488Y-513892D1*
X365469D1*
X121182Y-1445028D2*
X122828D1*
X165388Y-1487588D1*
X293332D1*
X502600Y-1278320D1*
Y-668020D1*
X386253Y-551673D1*
X346600D1*
X333276Y-538349D1*
Y-497165D1*
X347811Y-482630D1*
X398240D1*
Y-484584D1*
X16311Y-1595785D2*
D17*
Y-1641543D1*
X16293D1*
X67492Y-1595785D2*
Y-1523251D1*
X54533Y-1510291D1*
Y-1455735D1*
D14*
X36513Y-1437715D1*
X-16542D1*
X-64428Y-1485601D1*
X-122186D1*
X116142Y-279528D2*
D10*
Y-224180D1*
X64243Y-172281D1*
X59055D1*
Y-169291D1*
X58694Y-169283D2*
X59055Y-169291D1*
X331720Y-52186D2*
X334059D1*
X370228Y-16017D1*
Y42063D1*
X288766Y123525D1*
Y202521D1*
X247454Y243833D1*
X14087D1*
X-35980Y193766D1*
X-119471D1*
Y199427D1*
X-125984Y192913D1*
X-126067Y193445D2*
X-119471Y193766D1*
X197638Y-24016D2*
Y-27110D1*
X158975D1*
X153888Y-32197D1*
X-81976D1*
X-125984Y11811D1*
X-125294Y10739D2*
D15*
X-125984Y11811D1*
X197638Y-74409D2*
D10*
X165482D1*
X162264Y-77627D1*
X57942D1*
X59055Y-78740D1*
X59474Y-78232D2*
D15*
X59055Y-78740D1*
X197638Y25984D2*
D10*
Y28987D1*
X135171D1*
X117995Y11811D1*
X59055D1*
X59413Y11169D2*
D15*
X59055Y11811D1*
X197638Y75984D2*
D10*
X139240D1*
X112298Y102927D1*
X78121D1*
Y93873D1*
X67545D1*
X59055Y102362D1*
X59885Y104025D2*
D15*
X78121Y102927D1*
X197638Y125984D2*
D10*
X142269D1*
X119333Y148920D1*
X-90323D1*
X-125984Y113259D1*
Y102362D1*
X-125381Y101891D2*
D15*
X-125984Y102362D1*
X-484252Y-439764D2*
X-478100D1*
X-422549Y-384213D1*
Y8056D1*
X329530Y198004D2*
X462626D1*
X500787Y159843D1*
X329562Y147294D2*
X413336D1*
X500787Y59843D1*
X329993Y-2786D2*
D10*
X328260D1*
X260636Y64837D1*
Y193308D1*
X232685Y221260D1*
X134572D1*
X106226Y192913D1*
X59055D1*
X59824Y192617D2*
D15*
X59055Y192913D1*
X-484252Y-1445236D2*
D14*
Y-1450865D1*
X-419130Y-1385743D1*
Y-1324493D1*
X-452890Y-1290734D1*
Y-1252959D1*
X-286539Y-1086609D1*
X-41627D1*
X321024Y-723958D1*
X-484252Y-1445236D2*
D16*
Y-1624703D1*
X-433283Y-1675672D1*
X-362168D1*
X-349234Y-1688606D1*
X329530Y198004D3*
X329562Y147294D3*
X-363542Y126324D3*
X-422549Y8056D3*
X-295945Y-2185D3*
X329993Y-2786D3*
X-357264Y-43600D3*
X-298944Y-100614D3*
X-323738Y-166147D3*
X-310075Y-203970D3*
X-300318Y-251969D3*
X-236425Y-386159D3*
X42034Y-414175D3*
X1537Y-459581D3*
X91339Y-435433D3*
X-82283Y-475591D3*
X398240Y-484584D3*
X365469Y-513892D3*
X215793Y-439596D3*
X253646Y-484667D3*
X368136Y-585644D3*
X-378811Y-609085D3*
X92122Y-625416D3*
X41479Y-696530D3*
X103486Y-696415D3*
X-78827Y-700486D3*
X-242711Y-842913D3*
X-137887Y-1045345D3*
X-236441Y-1142598D3*
D42*
X-255184Y-1001177D3*
D16*
X410382Y-1256846D3*
X-411522Y-1269148D3*
X121182Y-1445028D3*
X92864Y-1475175D3*
X260601Y-1419625D3*
X17762Y-1475770D3*
X-122186Y-1485601D3*
X16293Y-1641543D3*
X-125381Y101891D3*
X59824Y192617D3*
X-125294Y10739D3*
X58694Y-169283D3*
X-124934Y-169672D3*
X59474Y-78232D3*
X59413Y11169D3*
X59885Y104025D3*
X331720Y-52186D3*
X-126067Y193445D3*
X-60259Y-424341D3*
X-125429Y-78978D3*
X-492412Y235171D2*
D17*
X-306247D1*
X337619D2*
X506130D1*
X-506130Y219554D2*
X-306185D1*
X485289D2*
X522524D1*
X-442461Y203937D2*
X-306123D1*
X-433602Y125853D2*
X-401165D1*
X-449474Y110236D2*
X-397382D1*
X344879D2*
X406167D1*
X-434156Y94619D2*
X-382311D1*
X-344774D2*
X-305663D1*
X360504D2*
X421791D1*
X-426160Y79003D2*
X-305601D1*
X376129D2*
X437417D1*
X-423084Y63386D2*
X-305539D1*
X391723D2*
X439631D1*
X-424222Y47769D2*
X-305478D1*
X403811D2*
X440769D1*
X-394140Y32152D2*
X-305416D1*
X405780D2*
X446337D1*
X-385928Y16535D2*
X-305354D1*
X405780D2*
X458148D1*
X-385621Y919D2*
X-305294D1*
X405780D2*
X455903D1*
X-390819Y-14698D2*
X-380404D1*
X-334133D2*
X-305232D1*
X405780D2*
X445230D1*
X-322167Y-30315D2*
X-305171D1*
X405748D2*
X440339D1*
X400797Y-45932D2*
X439816D1*
X385941Y-61549D2*
X435172D1*
X-390819Y-77165D2*
X-372038D1*
X369115D2*
X419547D1*
X-390819Y-92782D2*
X-351000D1*
X338512D2*
X403953D1*
X-390819Y-108399D2*
X-363272D1*
X-390819Y-124016D2*
X-379543D1*
X338881Y-217717D2*
X443907D1*
X338912Y-233333D2*
X439908D1*
X338942Y-248950D2*
X440185D1*
X339004Y-264567D2*
X444738D1*
X339035Y-280184D2*
X454949D1*
X339096Y-295801D2*
X459286D1*
X339127Y-311417D2*
X446890D1*
X339189Y-327034D2*
X440984D1*
X339219Y-342651D2*
X439570D1*
X336083Y-358268D2*
X442339D1*
X321441Y-373885D2*
X449966D1*
X305416Y-389501D2*
X465622D1*
X-399247Y-405118D2*
X-387571D1*
X289423D2*
X450888D1*
X-414841Y-420735D2*
X-380219D1*
X-423084Y-436352D2*
X-380219D1*
X72425D2*
X110060D1*
X-424252Y-451969D2*
X-380219D1*
X64982D2*
X125686D1*
X-429882Y-467585D2*
X-380219D1*
X64982D2*
X142018D1*
X-441753Y-483202D2*
X-380219D1*
X64982D2*
X178159D1*
X291268D2*
X306081D1*
X-439262Y-498819D2*
X-380219D1*
X64982D2*
X178159D1*
X288377D2*
X302513D1*
X-419885Y-514436D2*
X-380219D1*
X64982D2*
X178159D1*
X285394D2*
X302513D1*
X430878D2*
X440051D1*
X-402383Y-530052D2*
X-380219D1*
X64982D2*
X178159D1*
X285394D2*
X302513D1*
X-391188Y-545669D2*
X-380219D1*
X64982D2*
X170992D1*
X285394D2*
X303466D1*
X-389588Y-561286D2*
X-380219D1*
X-38395D2*
X-30176D1*
X64982D2*
X155398D1*
X285394D2*
X313370D1*
X-389588Y-576903D2*
X-380219D1*
X-53990D2*
X-30196D1*
X64982D2*
X139773D1*
X285394D2*
X330379D1*
X-389588Y-592520D2*
X-380219D1*
X-239860D2*
X-209390D1*
X-69614D2*
X-30196D1*
X64982D2*
X124148D1*
X285394D2*
X312356D1*
X-389588Y-608136D2*
X-380219D1*
X-239860D2*
X-209390D1*
X-85239D2*
X-30688D1*
X64982D2*
X109476D1*
X213697D2*
X221755D1*
X285394D2*
X296423D1*
X524567D2*
X530367D1*
X-239860Y-623753D2*
X-215849D1*
X-89114D2*
X-46312D1*
X75039D2*
X103571D1*
X198071D2*
X206113D1*
X-239860Y-639370D2*
X-231475D1*
X-89114D2*
X-61937D1*
X90665D2*
X103294D1*
X182446D2*
X190516D1*
X-89114Y-654987D2*
X-77562D1*
X10909D2*
X17848D1*
X-4715Y-670604D2*
X14835D1*
X-189878Y-686220D2*
X-183177D1*
X-20340D2*
X5361D1*
X-205503Y-701837D2*
X-183154D1*
X-35965D2*
X-8050D1*
X-221097Y-717454D2*
X-183154D1*
X-45438D2*
X-23675D1*
X-236722Y-733071D2*
X-183154D1*
X-61802D2*
X-39299D1*
X49173D2*
X74290D1*
X-252346Y-748688D2*
X-183154D1*
X33547D2*
X58696D1*
X420175D2*
X437571D1*
X-267941Y-764304D2*
X-183154D1*
X17923D2*
X43071D1*
X407409D2*
X437571D1*
X-438894Y-779921D2*
X-410978D1*
X-283566D2*
X-183154D1*
X2298D2*
X27445D1*
X191950D2*
X212793D1*
X394614D2*
X428189D1*
X-443753Y-795538D2*
X-426572D1*
X-299192D2*
X-183154D1*
X-115751D2*
X-91865D1*
X-23570D2*
X11850D1*
X176357D2*
X199659D1*
X381850D2*
X412564D1*
X-314816Y-811155D2*
X-261371D1*
X160731D2*
X184034D1*
X369055D2*
X396940D1*
X-330411Y-826772D2*
X-276535D1*
X145106D2*
X168408D1*
X356260D2*
X382730D1*
X-346035Y-842388D2*
X-280349D1*
X129482D2*
X152815D1*
X252390D2*
X289102D1*
X343495D2*
X378639D1*
X454161D2*
X471866D1*
X-361660Y-858005D2*
X-277028D1*
X113887D2*
X137189D1*
X236765D2*
X378639D1*
X442105D2*
X471866D1*
X-377285Y-873622D2*
X-263186D1*
X98262D2*
X121564D1*
X221140D2*
X378639D1*
X442105D2*
X471866D1*
X-392879Y-889239D2*
X-232398D1*
X-161058D2*
X-5804D1*
X82638D2*
X105940D1*
X205546D2*
X378639D1*
X442105D2*
X471866D1*
X-408504Y-904856D2*
X-232398D1*
X-161058D2*
X-21429D1*
X67012D2*
X90345D1*
X189921D2*
X378639D1*
X442105D2*
X471866D1*
X-424130Y-920472D2*
X-232398D1*
X-161058D2*
X-37054D1*
X51417D2*
X74720D1*
X174295D2*
X378639D1*
X442105D2*
X471866D1*
X-423084Y-936089D2*
X-236919D1*
X-161058D2*
X-52648D1*
X35793D2*
X59094D1*
X158671D2*
X378639D1*
X442105D2*
X471866D1*
X-424283Y-951706D2*
X-252543D1*
X-161580D2*
X-68273D1*
X20168D2*
X43470D1*
X143076D2*
X378639D1*
X442105D2*
X471866D1*
X-429942Y-967323D2*
X-278072D1*
X-168808D2*
X-83898D1*
X4543D2*
X27875D1*
X127451D2*
X378639D1*
X442105D2*
X471866D1*
X-441877Y-982940D2*
X-292344D1*
X-184188D2*
X-99492D1*
X-11051D2*
X12251D1*
X111827D2*
X378639D1*
X442105D2*
X471866D1*
X-438924Y-998556D2*
X-299388D1*
X-199812D2*
X-115118D1*
X-26676D2*
X-3374D1*
X96232D2*
X378639D1*
X442105D2*
X471866D1*
X-396786Y-1014173D2*
X-315013D1*
X-215437D2*
X-157594D1*
X-42302D2*
X-18969D1*
X80608D2*
X378639D1*
X442105D2*
X471866D1*
X-381192Y-1029790D2*
X-330608D1*
X-225650D2*
X-171988D1*
X-57895D2*
X-34593D1*
X64982D2*
X378639D1*
X442105D2*
X471866D1*
X-365567Y-1045407D2*
X-346232D1*
X-246656D2*
X-175526D1*
X-73521D2*
X-50218D1*
X49357D2*
X378639D1*
X442105D2*
X471866D1*
X33762Y-1061024D2*
X378639D1*
X442105D2*
X471866D1*
X-439293Y-1076640D2*
X-433894D1*
X18138D2*
X378639D1*
X442105D2*
X471866D1*
X-443630Y-1092257D2*
X-418298D1*
X2513D2*
X378639D1*
X442105D2*
X471866D1*
X-430804Y-1107874D2*
X-408701D1*
X-13112D2*
X378639D1*
X442105D2*
X471866D1*
X-273631Y-1123491D2*
X-266537D1*
X-59648D2*
X378639D1*
X442105D2*
X471866D1*
X-289256Y-1139108D2*
X-271829D1*
X-44055D2*
X378639D1*
X442105D2*
X471866D1*
X-304850Y-1154724D2*
X-269921D1*
X-28429D2*
X378639D1*
X442105D2*
X471866D1*
X-320475Y-1170341D2*
X-259003D1*
X-12804D2*
X378639D1*
X442105D2*
X471866D1*
X-336101Y-1185958D2*
X-96786D1*
X-1948D2*
X378639D1*
X442105D2*
X471866D1*
X-514004Y-1201575D2*
X-502396D1*
X-351726D2*
X-161839D1*
X-134545D2*
X-81161D1*
X-39D2*
X378639D1*
X442105D2*
X471866D1*
X-367320Y-1217192D2*
X-176664D1*
X-114951D2*
X-71349D1*
X-39D2*
X378639D1*
X442105D2*
X471866D1*
X-382945Y-1232808D2*
X-189459D1*
X-95882D2*
X-71349D1*
X-39D2*
X378639D1*
X442105D2*
X471866D1*
X-398570Y-1248425D2*
X-202224D1*
X-76781D2*
X-71383D1*
X-39D2*
X373748D1*
X447026D2*
X471866D1*
X-414194Y-1264042D2*
X-215020D1*
X-39D2*
X373471D1*
X447303D2*
X471866D1*
X-414164Y-1279659D2*
X-227783D1*
X-39D2*
X380885D1*
X439890D2*
X458425D1*
X-398570Y-1295276D2*
X-240579D1*
X-39D2*
X442799D1*
X-386298Y-1310892D2*
X-253374D1*
X-39D2*
X427205D1*
X-383467Y-1326509D2*
X-266139D1*
X-78227D2*
X-71345D1*
X-39D2*
X411580D1*
X-383467Y-1342126D2*
X-278934D1*
X-90991D2*
X-71349D1*
X-39D2*
X395955D1*
X-383467Y-1357743D2*
X-291698D1*
X208222D2*
X380331D1*
X520230D2*
X530029D1*
X-383467Y-1373360D2*
X-304493D1*
X223846D2*
X364736D1*
X504635D2*
X530029D1*
X-383622Y-1388976D2*
X-317289D1*
X281180D2*
X349112D1*
X489010D2*
X529999D1*
X-389157Y-1404593D2*
X-323625D1*
X294959D2*
X333486D1*
X473386D2*
X529999D1*
X-403799Y-1420210D2*
X-318581D1*
X-72505D2*
X-48835D1*
X68797D2*
X93451D1*
X148920D2*
X165549D1*
X298219D2*
X317892D1*
X457760D2*
X529999D1*
X-419424Y-1435827D2*
X-300495D1*
X-88100D2*
X-64459D1*
X157625D2*
X181173D1*
X294406D2*
X302266D1*
X442165D2*
X529999D1*
X-103724Y-1451444D2*
X-80054D1*
X172081D2*
X198982D1*
X279150D2*
X286642D1*
X426541D2*
X529967D1*
X410916Y-1467060D2*
X529967D1*
X-266311Y-1482677D2*
X-243286D1*
X395291D2*
X529967D1*
X-446614Y-1498294D2*
X-432139D1*
X-266311D2*
X-204992D1*
X379697D2*
X529967D1*
X-446614Y-1513911D2*
X-432139D1*
X-266311D2*
X-203331D1*
X364072D2*
X529967D1*
X-446614Y-1529528D2*
X-432139D1*
X-266311D2*
X-192934D1*
X101184D2*
X106028D1*
X348446D2*
X529937D1*
X-446614Y-1545144D2*
X-432139D1*
X-266311D2*
X-177341D1*
X101184D2*
X529937D1*
X-446614Y-1560761D2*
X-432139D1*
X-266311D2*
X-160731D1*
X133787D2*
X529937D1*
X-446614Y-1576378D2*
X-425373D1*
X-271140D2*
X-250790D1*
X-176774D2*
X-115025D1*
X147659D2*
X209840D1*
X283856D2*
X529937D1*
X-446614Y-1591995D2*
X-425311D1*
X-271047D2*
X-262171D1*
X-165394D2*
X-118747D1*
X151381D2*
X198459D1*
X295236D2*
X529814D1*
X-446614Y-1607612D2*
X-425218D1*
X-160811D2*
X-115764D1*
X148398D2*
X193877D1*
X299819D2*
X528768D1*
X-433142Y-1623228D2*
X-425121D1*
X-160381D2*
X-108627D1*
X141693D2*
X193476D1*
X300249D2*
X524801D1*
X300249Y-1638845D2*
X519417D1*
X300249Y-1654462D2*
X512958D1*
X-19387Y-1670079D2*
X-7343D1*
X39915D2*
X52451D1*
X300249D2*
X502717D1*
X-24707Y-1685696D2*
X57773D1*
X300249D2*
X491304D1*
X-37411Y-1701312D2*
X70475D1*
X300249D2*
X475465D1*
X-444399Y-1716929D2*
X-432139D1*
X-65155D2*
X97757D1*
X299572D2*
X457071D1*
X-266311Y-1732546D2*
X-261341D1*
X-65155D2*
X97757D1*
X294406D2*
X432988D1*
X-266311Y-1748163D2*
X-248883D1*
X-68108D2*
X100741D1*
X281949D2*
X386390D1*
X-424587Y-1446835D2*
X-285487D1*
X-315266Y-1422241D1*
X-318196Y-1418545D1*
X-320353Y-1414350D1*
X-321659Y-1409818D1*
X-322062Y-1405118D1*
X-321547Y-1400429D1*
X-320135Y-1395928D1*
X-317878Y-1391786D1*
X-307601Y-1379076D1*
X-165025Y-1205156D1*
X-161328Y-1202227D1*
X-157133Y-1200070D1*
X-152600Y-1198764D1*
X-147900Y-1198361D1*
X-143211Y-1198875D1*
X-138711Y-1200289D1*
X-134570Y-1202545D1*
X-121860Y-1212823D1*
X-69789Y-1255446D1*
Y-1211349D1*
X-104454Y-1176707D1*
X-222635Y-1176693D1*
X-228731Y-1178218D1*
X-234373Y-1178661D1*
X-240014Y-1178218D1*
X-245517Y-1176896D1*
X-250745Y-1174731D1*
X-255570Y-1171774D1*
X-259873Y-1168098D1*
X-263549Y-1163795D1*
X-266505Y-1158971D1*
X-268671Y-1153743D1*
X-269992Y-1148240D1*
X-270436Y-1142598D1*
X-269992Y-1136957D1*
X-268671Y-1131454D1*
X-266505Y-1126226D1*
X-263549Y-1121402D1*
X-262993Y-1120698D1*
X-272404Y-1120703D1*
X-418785Y-1267072D1*
X-418795Y-1276612D1*
X-393205Y-1302350D1*
X-390059Y-1306678D1*
X-387631Y-1311446D1*
X-385978Y-1316534D1*
X-385140Y-1321819D1*
X-385035Y-1355990D1*
X-385140Y-1388417D1*
X-385978Y-1393702D1*
X-387631Y-1398790D1*
X-390059Y-1403558D1*
X-393205Y-1407886D1*
X-417293Y-1432122D1*
X-424840Y-1439669D1*
X-424630Y-1446828D1*
X-267895Y-1461235D2*
Y-1568173D1*
X-272748D1*
X-272451Y-1627946D1*
X-267895Y-1627937D1*
Y-1749276D1*
X-374381Y-1749430D1*
X-371278Y-1750482D1*
X-324154Y-1753543D1*
X-239803Y-1753446D1*
X-244234Y-1750577D1*
X-250416Y-1745298D1*
X-255696Y-1739115D1*
X-259944Y-1732184D1*
X-263055Y-1724672D1*
X-264953Y-1716766D1*
X-265591Y-1708661D1*
Y-1614173D1*
X-264953Y-1606068D1*
X-263055Y-1598163D1*
X-259944Y-1590651D1*
X-255696Y-1583719D1*
X-250416Y-1577537D1*
X-244234Y-1572257D1*
X-237302Y-1568009D1*
X-229790Y-1564898D1*
X-221885Y-1563000D1*
X-213780Y-1562362D1*
X-205675Y-1563000D1*
X-197769Y-1564898D1*
X-190257Y-1568009D1*
X-183325Y-1572257D1*
X-177143Y-1577537D1*
X-171864Y-1583719D1*
X-167615Y-1590651D1*
X-164504Y-1598163D1*
X-162606Y-1606068D1*
X-161969Y-1614173D1*
X-161831Y-1633541D1*
X-115732D1*
X-111445Y-1627769D1*
X-105696Y-1622020D1*
X-104560Y-1621125D1*
X-108081Y-1617531D1*
X-111589Y-1612703D1*
X-114298Y-1607386D1*
X-116142Y-1601710D1*
X-117076Y-1595816D1*
Y-1589848D1*
X-116142Y-1583954D1*
X-114298Y-1578278D1*
X-111589Y-1572961D1*
X-108081Y-1568133D1*
X-106458Y-1566377D1*
X-143079Y-1566270D1*
X-148364Y-1565433D1*
X-153451Y-1563780D1*
X-158219Y-1561352D1*
X-162547Y-1558206D1*
X-186783Y-1534118D1*
X-195253Y-1525500D1*
X-198399Y-1521172D1*
X-200827Y-1516404D1*
X-202480Y-1511316D1*
X-203318Y-1506031D1*
X-203423Y-1477551D1*
X-207860Y-1482710D1*
X-211556Y-1485639D1*
X-215752Y-1487797D1*
X-220285Y-1489102D1*
X-224984Y-1489505D1*
X-229673Y-1488991D1*
X-234173Y-1487577D1*
X-238315Y-1485322D1*
X-251025Y-1475043D1*
X-267899Y-1461231D1*
X-423844Y-1568173D2*
X-430572D1*
Y-1471329D1*
X-433362Y-1476421D1*
X-438867Y-1483999D1*
X-445490Y-1490621D1*
X-448178Y-1492740D1*
X-448189Y-1609760D1*
X-430021Y-1627933D1*
X-423567Y-1623866D1*
X-423840Y-1568164D1*
X-430572Y-1726730D2*
Y-1711720D1*
X-436113Y-1711623D1*
X-441702Y-1710739D1*
X-447084Y-1708990D1*
X-452126Y-1706421D1*
X-456705Y-1703094D1*
X-481055Y-1678902D1*
X-493344Y-1666613D1*
X-488192Y-1679043D1*
X-459961Y-1708021D1*
X-430554Y-1726735D1*
X-424588Y58268D2*
X-425085Y51991D1*
X-426241Y45802D1*
X-426748Y43869D1*
X-422549Y44119D1*
X-416907Y43676D1*
X-411404Y42354D1*
X-406176Y40189D1*
X-401352Y37232D1*
X-397049Y33556D1*
X-393373Y29253D1*
X-390416Y24429D1*
X-388251Y19201D1*
X-386929Y13698D1*
X-386486Y8056D1*
X-386929Y2415D1*
X-388251Y-3088D1*
X-390416Y-8316D1*
X-392396Y-11678D1*
X-392331Y-35181D1*
X-390581Y-29799D1*
X-388013Y-24757D1*
X-384686Y-20178D1*
X-380685Y-16177D1*
X-376106Y-12850D1*
X-371064Y-10282D1*
X-365682Y-8533D1*
X-360093Y-7648D1*
X-354434D1*
X-348845Y-8533D1*
X-343463Y-10282D1*
X-338421Y-12850D1*
X-333843Y-16177D1*
X-329841Y-20178D1*
X-326514Y-24757D1*
X-323946Y-29799D1*
X-322381Y-34531D1*
X-303467Y-53442D1*
X-304104Y96140D1*
X-343739Y96167D1*
X-349741Y93007D1*
X-355123Y91257D1*
X-360713Y90373D1*
X-366371D1*
X-371961Y91257D1*
X-377343Y93007D1*
X-382385Y95575D1*
X-386963Y98902D1*
X-390965Y102903D1*
X-394291Y107482D1*
X-396860Y112524D1*
X-398609Y117906D1*
X-399493Y123495D1*
Y129154D1*
X-398609Y134743D1*
X-397285Y138972D1*
X-428332Y138980D1*
X-431072Y132747D1*
X-435966Y124761D1*
X-442049Y117639D1*
X-449171Y111556D1*
X-451711Y109858D1*
X-445958Y105623D1*
X-441348Y101335D1*
X-437217Y96584D1*
X-433608Y91424D1*
X-430562Y85913D1*
X-428114Y80113D1*
X-426291Y74087D1*
X-425113Y67900D1*
X-424593Y61626D1*
X-424588Y58268D1*
X-509403Y213919D2*
X-502696Y216606D1*
X-493589Y218793D1*
X-484252Y219528D1*
X-474915Y218793D1*
X-465808Y216606D1*
X-457156Y213022D1*
X-449171Y208129D1*
X-443325Y203227D1*
X-304534Y203232D1*
X-304735Y249248D1*
X-405692Y249396D1*
X-464226Y250751D1*
X-490148Y239531D1*
X-507875Y219362D1*
X443075Y-55236D2*
X441837Y-49495D1*
X441102Y-40157D1*
X441837Y-30820D1*
X444024Y-21714D1*
X447608Y-13062D1*
X452501Y-5076D1*
X458584Y2046D1*
X465706Y8129D1*
X468247Y9827D1*
X462025Y14458D1*
X455403Y21080D1*
X449898Y28657D1*
X445646Y37003D1*
X442752Y45909D1*
X441286Y55160D1*
Y64525D1*
X442752Y73776D1*
X443075Y74921D1*
X400840Y117140D1*
X349329Y117136D1*
X345934Y115161D1*
X340589Y112963D1*
X397202Y56219D1*
X399892Y52516D1*
X401971Y48437D1*
X403386Y44084D1*
X404102Y39562D1*
X404192Y-9971D1*
X404102Y-31921D1*
X403386Y-36444D1*
X401971Y-40797D1*
X399892Y-44875D1*
X397202Y-48579D1*
X373093Y-72815D1*
X369613Y-75789D1*
X365709Y-78180D1*
X361479Y-79932D1*
X357029Y-81000D1*
X352917Y-81362D1*
X348093Y-84319D1*
X342865Y-86484D1*
X336933Y-87856D1*
X339370Y-93858D1*
X404423D1*
X443039Y-55256D1*
X441190Y162092D2*
X441680Y167852D1*
X435406Y167846D1*
X441164Y162115D1*
X485709Y217555D2*
X491450Y218793D1*
X500787Y219528D1*
X510125Y218793D1*
X519231Y216606D1*
X526038Y213873D1*
X522479Y224257D1*
X499986Y240870D1*
X470507Y249608D1*
X335984Y249545D1*
X336045Y233453D1*
X340675Y232302D1*
X345903Y230136D1*
X349265Y228156D1*
X464992Y228068D1*
X469667Y227328D1*
X474167Y225866D1*
X478383Y223718D1*
X482211Y220936D1*
X485713Y217567D1*
X-451711Y-489780D2*
X-445490Y-494379D1*
X-438867Y-501001D1*
X-433362Y-508579D1*
X-431940Y-511118D1*
X-426293Y-512378D1*
X-421920Y-514189D1*
X-417886Y-516661D1*
X-414281Y-519741D1*
X-398399Y-535755D1*
X-395617Y-539583D1*
X-393469Y-543799D1*
X-392007Y-548299D1*
X-391266Y-552974D1*
X-391173Y-602584D1*
Y-615533D1*
X-385455Y-621265D1*
X-380888Y-618948D1*
X-378648Y-616707D1*
X-378660Y-416091D1*
X-382272Y-411929D1*
X-384744Y-407895D1*
X-386555Y-403522D1*
X-387660Y-398921D1*
X-388031Y-394194D1*
X-387938Y-144190D1*
X-387198Y-139516D1*
X-385736Y-135016D1*
X-383588Y-130799D1*
X-380806Y-126971D1*
X-365762Y-111797D1*
X-362164Y-108723D1*
X-358130Y-106251D1*
X-353757Y-104440D1*
X-349156Y-103335D1*
X-344429Y-102963D1*
X-342539Y-99668D1*
X-363005Y-79202D1*
X-368408Y-77898D1*
X-373636Y-75732D1*
X-378461Y-72776D1*
X-382764Y-69100D1*
X-386440Y-64797D1*
X-389396Y-59972D1*
X-391562Y-54744D1*
X-392392Y-51703D1*
X-392484Y-386579D1*
X-393224Y-391253D1*
X-394686Y-395753D1*
X-396835Y-399970D1*
X-399617Y-403798D1*
X-425430Y-429744D1*
X-424751Y-435081D1*
Y-444446D1*
X-426217Y-453697D1*
X-429110Y-462604D1*
X-433362Y-470949D1*
X-438867Y-478526D1*
X-445490Y-485148D1*
X-451711Y-489748D1*
X531925Y-591075D2*
X523627Y-595299D1*
X514720Y-598193D1*
X513339Y-598469D1*
X531934Y-617081D1*
X531936Y-591071D1*
X442476Y-527606D2*
X444024Y-521714D1*
X445348Y-518125D1*
X429592Y-502390D1*
X427416Y-505781D1*
X424319Y-509459D1*
X442459Y-527605D1*
X443063Y-424996D2*
X445091Y-418706D1*
X447660Y-412958D1*
X450822Y-407512D1*
X454538Y-402430D1*
X458770Y-397768D1*
X463470Y-393577D1*
X468199Y-390160D1*
X462025Y-385542D1*
X455403Y-378920D1*
X449898Y-371343D1*
X445646Y-362997D1*
X442752Y-354091D1*
X441286Y-344840D1*
Y-335475D1*
X442752Y-326224D1*
X445646Y-317318D1*
X449898Y-308972D1*
X455403Y-301395D1*
X462025Y-294773D1*
X468247Y-290173D1*
X462025Y-285542D1*
X455403Y-278920D1*
X449898Y-271343D1*
X445646Y-262997D1*
X442752Y-254091D1*
X441286Y-244840D1*
Y-235475D1*
X442752Y-226224D1*
X445646Y-217318D1*
X449898Y-208972D1*
X452898Y-204572D1*
X337260Y-204567D1*
X337583Y-348156D1*
X336999Y-351917D1*
X335832Y-355539D1*
X334114Y-358934D1*
X331886Y-362020D1*
X307780Y-385673D1*
X285428Y-407467D1*
X414752Y-407568D1*
X419731Y-408357D1*
X424525Y-409915D1*
X429017Y-412203D1*
X433096Y-415167D1*
X443060Y-424992D1*
X-432244Y-768559D2*
X-435966Y-774451D1*
X-442049Y-781573D1*
X-449171Y-787656D1*
X-452472Y-789864D1*
X-447064Y-793986D1*
X-440442Y-800608D1*
X-436025Y-806556D1*
X-398007Y-768535D1*
X-432159Y-768543D1*
X-424751Y-944052D2*
X-426217Y-953303D1*
X-429110Y-962210D1*
X-433362Y-970555D1*
X-438867Y-978133D1*
X-445490Y-984755D1*
X-451042Y-988907D1*
X-447064Y-992017D1*
X-440442Y-998639D1*
X-436879Y-1003308D1*
X-420684Y-1003412D1*
X-415399Y-1004249D1*
X-410311Y-1005903D1*
X-405543Y-1008331D1*
X-401215Y-1011476D1*
X-376979Y-1035564D1*
X-355904Y-1056639D1*
X-294774Y-995516D1*
X-293226Y-988816D1*
X-290824Y-983017D1*
X-287545Y-977665D1*
X-283469Y-972892D1*
X-278696Y-968816D1*
X-273344Y-965537D1*
X-267545Y-963135D1*
X-260869Y-961602D1*
X-230832Y-931573D1*
X-230816Y-878967D1*
X-245541Y-878865D1*
X-251130Y-877980D1*
X-256512Y-876231D1*
X-261554Y-873663D1*
X-266133Y-870336D1*
X-270134Y-866335D1*
X-273461Y-861756D1*
X-276029Y-856714D1*
X-277778Y-851332D1*
X-278663Y-845743D1*
Y-840084D1*
X-277778Y-834495D1*
X-276029Y-829113D1*
X-273461Y-824071D1*
X-270134Y-819492D1*
X-266133Y-815491D1*
X-261554Y-812164D1*
X-256512Y-809596D1*
X-251130Y-807846D1*
X-245541Y-806962D1*
X-211215Y-806850D1*
X-181558D1*
X-181581Y-676360D1*
X-427182Y-921958D1*
X-425302Y-930033D1*
X-424567Y-939370D1*
X-424751Y-944052D1*
X-437123Y-1071860D2*
X-440442Y-1076164D1*
X-447064Y-1082786D1*
X-452495Y-1086857D1*
X-447180Y-1090626D1*
X-442458Y-1094793D1*
X-438202Y-1099432D1*
X-434458Y-1104495D1*
X-431269Y-1109923D1*
X-428669Y-1115657D1*
X-426688Y-1121634D1*
X-425602Y-1126339D1*
X-404133Y-1104874D1*
X-437100Y-1071877D1*
X-495312Y-1196047D2*
X-502035Y-1194375D1*
X-507938Y-1192185D1*
X-513577Y-1189385D1*
X-515572Y-1188202D1*
X-515584Y-1216668D1*
X-512979Y-1213722D1*
X-495304Y-1196047D1*
X336601Y32640D2*
X338891Y32146D1*
X336577Y34457D1*
X289597Y-487496D2*
X288713Y-493085D1*
X286963Y-498467D1*
X284395Y-503509D1*
X283798Y-504402D1*
X283710Y-622827D1*
X283430Y-625188D1*
X285378Y-623552D1*
X306591Y-597755D1*
X309432Y-595223D1*
X312635Y-593167D1*
X316119Y-591638D1*
X319801Y-590672D1*
X323587Y-590294D1*
X327387Y-590513D1*
X331112Y-591327D1*
X332517Y-591286D1*
X332073Y-585644D1*
X332517Y-580003D1*
X333016Y-577497D1*
X329451Y-575276D1*
X325971Y-572302D1*
X311092Y-557295D1*
X308402Y-553592D1*
X306323Y-549513D1*
X304908Y-545160D1*
X304192Y-540638D1*
X304102Y-497165D1*
X304462Y-492601D1*
X305530Y-488151D1*
X307282Y-483921D1*
X309675Y-480018D1*
X312647Y-476537D1*
X317454Y-471730D1*
X287323Y-471722D1*
X288713Y-476248D1*
X289597Y-481837D1*
Y-487496D1*
X72504Y-714881D2*
X68902Y-719951D1*
X64900Y-723953D1*
X60322Y-727280D1*
X55280Y-729848D1*
X49898Y-731597D1*
X48845Y-731806D1*
X-7874Y-788400D1*
X-11702Y-791182D1*
X-15919Y-793331D1*
X-20419Y-794793D1*
X-25093Y-795533D1*
X-74703Y-795626D1*
X-90366Y-795533D1*
X-95041Y-794793D1*
X-99541Y-793331D1*
X-103757Y-791182D1*
X-107585Y-788400D1*
X-117350Y-778768D1*
X-117329Y-806829D1*
X2127Y-806850D1*
X82904Y-726045D1*
X77986Y-721915D1*
X74310Y-717612D1*
X72526Y-714881D1*
X6203Y-689164D2*
X7181Y-685386D1*
X9346Y-680157D1*
X12303Y-675333D1*
X15979Y-671030D1*
X20282Y-667354D1*
X25106Y-664398D1*
X27648Y-663226D1*
X14374Y-649951D1*
X-43538Y-707846D1*
X-44529Y-711630D1*
X-46694Y-716858D1*
X-49651Y-721682D1*
X-53327Y-725986D1*
X-57630Y-729661D1*
X-62454Y-732618D1*
X-67682Y-734783D1*
X-69546Y-735308D1*
X-39925Y-735311D1*
X6176Y-689184D1*
X-90686Y-666451D2*
X-86193Y-665210D1*
X-28618Y-607629D1*
X-28621Y-549963D1*
X-90699Y-612030D1*
X-90688Y-666425D1*
X-173202Y-1052516D2*
X-173839Y-1048175D1*
Y-1042516D1*
X-172954Y-1036927D1*
X-171205Y-1031545D1*
X-168636Y-1026503D1*
X-165310Y-1021924D1*
X-161308Y-1017923D1*
X-156730Y-1014596D1*
X-151688Y-1012028D1*
X-146306Y-1010278D1*
X-140717Y-1009394D1*
X-135058D1*
X-129469Y-1010278D1*
X-126235Y-1011235D1*
X6031Y-878976D1*
X-162619D1*
X-162732Y-948356D1*
X-163570Y-953640D1*
X-165223Y-958728D1*
X-167651Y-963496D1*
X-170797Y-967824D1*
X-194885Y-992060D1*
X-217568Y-1014745D1*
X-219543Y-1019337D1*
X-222823Y-1024689D1*
X-226899Y-1029462D1*
X-231672Y-1033538D1*
X-237024Y-1036818D1*
X-241592Y-1038765D1*
X-255325Y-1052501D1*
X-173259Y-1052514D1*
X446333Y-1259676D2*
X445449Y-1265265D1*
X443699Y-1270647D1*
X441131Y-1275689D1*
X437804Y-1280268D1*
X433803Y-1284269D1*
X429224Y-1287596D1*
X424182Y-1290164D1*
X418801Y-1291913D1*
X413211Y-1292798D1*
X407552D1*
X401963Y-1291913D1*
X396581Y-1290164D1*
X391539Y-1287596D1*
X386961Y-1284269D1*
X382959Y-1280268D1*
X379633Y-1275689D1*
X377064Y-1270647D1*
X375315Y-1265265D1*
X374430Y-1259676D1*
Y-1254017D1*
X375315Y-1248428D1*
X377064Y-1243046D1*
X379633Y-1238004D1*
X380230Y-1237112D1*
X380318Y-839576D1*
X381058Y-834902D1*
X382520Y-830402D1*
X384668Y-826185D1*
X387450Y-822357D1*
X422463Y-787211D1*
X439146Y-770529D1*
X439160Y-723613D1*
X335457Y-850161D1*
X332615Y-852693D1*
X329412Y-854749D1*
X325928Y-856278D1*
X322247Y-857244D1*
X318461Y-857622D1*
X314660Y-857403D1*
X310942Y-856592D1*
X307396Y-855210D1*
X304112Y-853290D1*
X268770Y-824458D1*
X-19484Y-1112534D1*
X-23812Y-1115680D1*
X-28580Y-1118108D1*
X-33668Y-1119761D1*
X-38953Y-1120598D1*
X-64050Y-1120703D1*
X-9769Y-1175106D1*
X-6623Y-1179434D1*
X-4196Y-1184202D1*
X-2542Y-1189290D1*
X-1705Y-1194575D1*
X-1600Y-1228745D1*
Y-1347748D1*
X184549Y-1347857D1*
X190138Y-1348741D1*
X195520Y-1350491D1*
X200562Y-1353059D1*
X205140Y-1356386D1*
X229491Y-1380579D1*
X232470Y-1383559D1*
X263430Y-1383673D1*
X269020Y-1384558D1*
X274402Y-1386307D1*
X279444Y-1388875D1*
X284022Y-1392202D1*
X288024Y-1396203D1*
X291350Y-1400782D1*
X293919Y-1405824D1*
X295668Y-1411206D1*
X296554Y-1416795D1*
Y-1422454D1*
X295668Y-1428043D1*
X293919Y-1433425D1*
X291350Y-1438467D1*
X288024Y-1443046D1*
X284022Y-1447047D1*
X279444Y-1450374D1*
X274402Y-1452942D1*
X269020Y-1454692D1*
X263430Y-1455576D1*
X229105Y-1455688D1*
X214706Y-1455576D1*
X209117Y-1454692D1*
X203735Y-1452942D1*
X198693Y-1450374D1*
X194114Y-1447047D1*
X169764Y-1422854D1*
X166785Y-1419874D1*
X146993Y-1419871D1*
X150358Y-1423831D1*
X153315Y-1428656D1*
X155480Y-1433883D1*
X156394Y-1437336D1*
X177495Y-1458437D1*
X281253Y-1458415D1*
X473427Y-1266238D1*
Y-821535D1*
X440554Y-854420D1*
X440539Y-1237089D1*
X442514Y-1240474D1*
X444680Y-1245702D1*
X446001Y-1251205D1*
X446445Y-1256846D1*
X446333Y-1259676D1*
X85505Y-1439881D2*
X86885Y-1433883D1*
X89050Y-1428656D1*
X92008Y-1423831D1*
X95360Y-1419877D1*
X66900Y-1419871D1*
X80458Y-1433592D1*
X83602Y-1437920D1*
X84783Y-1440028D1*
X51980Y-1646602D2*
X50591Y-1652688D1*
X48425Y-1657916D1*
X45469Y-1662740D1*
X41793Y-1667043D1*
X37490Y-1670719D1*
X32665Y-1673676D1*
X27437Y-1675841D1*
X21934Y-1677163D1*
X16293Y-1677606D1*
X10651Y-1677163D1*
X5148Y-1675841D1*
X-80Y-1673676D1*
X-4904Y-1670719D1*
X-9207Y-1667043D1*
X-12883Y-1662740D1*
X-15840Y-1657916D1*
X-18005Y-1652688D1*
X-19395Y-1646602D1*
X-21668Y-1649323D1*
X-20396Y-1657352D1*
Y-1665483D1*
X-21668Y-1673512D1*
X-24180Y-1681244D1*
X-27871Y-1688488D1*
X-32650Y-1695066D1*
X-38399Y-1700815D1*
X-44976Y-1705593D1*
X-52220Y-1709285D1*
X-59953Y-1711797D1*
X-66735Y-1712921D1*
X-66795Y-1738436D1*
X-67391Y-1742194D1*
X-68567Y-1745814D1*
X-70294Y-1749205D1*
X-72535Y-1752289D1*
X-72450Y-1753255D1*
X105853Y-1753050D1*
X102916Y-1749205D1*
X101189Y-1745814D1*
X100013Y-1742194D1*
X99417Y-1738436D1*
X99343Y-1712881D1*
X93024Y-1711797D1*
X85291Y-1709285D1*
X78047Y-1705593D1*
X71470Y-1700815D1*
X65720Y-1695066D1*
X60942Y-1688488D1*
X57251Y-1681244D1*
X54739Y-1673512D1*
X53467Y-1665483D1*
Y-1657352D1*
X54739Y-1649323D1*
X55503Y-1646615D1*
X195039Y-1614189D2*
X195677Y-1606068D1*
X197575Y-1598163D1*
X200686Y-1590651D1*
X204934Y-1583719D1*
X210214Y-1577537D1*
X216396Y-1572257D1*
X223328Y-1568009D1*
X230840Y-1564898D1*
X238745Y-1563000D1*
X246850Y-1562362D1*
X254955Y-1563000D1*
X262861Y-1564898D1*
X270373Y-1568009D1*
X277304Y-1572257D1*
X283487Y-1577537D1*
X288766Y-1583719D1*
X293014Y-1590651D1*
X296126Y-1598163D1*
X298024Y-1606068D1*
X298661Y-1614173D1*
X298501Y-1712727D1*
X297230Y-1720756D1*
X294718Y-1728488D1*
X291026Y-1735732D1*
X286248Y-1742310D1*
X280499Y-1748059D1*
X273881Y-1752861D1*
X362291Y-1752757D1*
X409034Y-1744396D1*
X440521Y-1729774D1*
X467756Y-1710483D1*
X496239Y-1682382D1*
X516886Y-1650845D1*
X530007Y-1612609D1*
X531496Y-1590294D1*
X531604Y-1344823D1*
X338152Y-1538126D1*
X334449Y-1540818D1*
X330370Y-1542895D1*
X326017Y-1544310D1*
X321495Y-1545026D1*
X271962Y-1545115D1*
X132975Y-1545026D1*
X128453Y-1544310D1*
X124100Y-1542895D1*
X120021Y-1540818D1*
X116318Y-1538126D1*
X99563Y-1521499D1*
X99618Y-1556807D1*
X105835Y-1555269D1*
X111783Y-1554801D1*
X117732Y-1555269D1*
X123535Y-1556661D1*
X129050Y-1558946D1*
X134138Y-1562064D1*
X138676Y-1565940D1*
X142551Y-1570478D1*
X145669Y-1575566D1*
X147954Y-1581080D1*
X149346Y-1586883D1*
X149815Y-1592832D1*
X149346Y-1598781D1*
X147954Y-1604584D1*
X145669Y-1610098D1*
X142551Y-1615186D1*
X138676Y-1619724D1*
X137399Y-1620904D1*
X141755Y-1624781D1*
X147034Y-1630963D1*
X148756Y-1633541D1*
X194469D1*
X195039Y-1629921D1*
Y-1614327D1*
X219932Y-1752923D2*
X214987Y-1749466D1*
X212898Y-1752289D1*
X219903Y-1752920D1*
X-182215Y-1749702D2*
X-187693Y-1753388D1*
X-179272Y-1753377D1*
X-181463Y-1750782D1*
X-69793Y-1314297D2*
X-98228Y-1349037D1*
X-94314Y-1348189D1*
X-88661Y-1347745D1*
X-69818D1*
X-69789Y-1314265D1*
X215741Y-781052D2*
X200413Y-768505D1*
X197280Y-772894D1*
X162265Y-808039D1*
X-82217Y-1052521D1*
X-55762Y-1052514D1*
X215719Y-781045D1*
X204507Y-722350D2*
X250094Y-666656D1*
X204525Y-712231D1*
X204505Y-722366D1*
X22848Y-1544958D2*
X35336D1*
X35366Y-1536576D1*
X30104Y-1531155D1*
X27140Y-1527077D1*
X24852Y-1522585D1*
X23291Y-1517781D1*
X22846Y-1518560D1*
Y-1544982D1*
X105157Y-1752289D2*
X102916Y-1749205D1*
X101189Y-1745814D1*
X100013Y-1742194D1*
X99417Y-1738436D1*
X99343Y-1736525D1*
X-207835Y-575056D2*
X-212815Y-577028D1*
X-220119Y-578781D1*
X-227609Y-579370D1*
X-235098Y-578781D1*
X-241428Y-577302D1*
X-241430Y-650896D1*
X-207828Y-617306D1*
X-207823Y-575073D1*
X-102482Y-538224D2*
X-106864Y-536411D1*
X-110898Y-533938D1*
X-114496Y-530865D1*
X-117345Y-528016D1*
X-117329Y-553385D1*
X-102260Y-538293D1*
X73917Y-433293D2*
X65455Y-441597D1*
X63222Y-443356D1*
X62580Y-444619D1*
X63320Y-449294D1*
X63413Y-498904D1*
Y-613723D1*
X104843Y-655122D1*
X104974Y-625493D1*
X105858Y-619904D1*
X107608Y-614522D1*
X110176Y-609480D1*
X113503Y-604902D1*
X137696Y-580551D1*
X179736Y-538510D1*
X179730Y-474193D1*
X161610Y-474105D1*
X156021Y-473220D1*
X150639Y-471471D1*
X145597Y-468903D1*
X141018Y-465576D1*
X116668Y-441383D1*
X108600Y-433314D1*
X73917Y-433307D1*
X176988Y-643240D2*
Y-654497D1*
X223469Y-607988D1*
X223488Y-596747D1*
X176982Y-643268D1*
X-46921Y-1419871D2*
X-73741D1*
X-105386Y-1451524D1*
X-78541Y-1451507D1*
X-46930Y-1419887D1*
X-349234Y-1446865D2*
D10*
Y-1507504D1*
X-430542D2*
X-267925D1*
X-484252Y59843D2*
X-424597D1*
X-186442Y-1231041D2*
Y-1343933D1*
X-278864D2*
X-94021D1*
D23*
X-349234Y-1507504D3*
Y-1688606D3*
D24*
X-484252Y-140157D3*
Y-40157D3*
Y59843D3*
Y159843D3*
X500787Y-140157D3*
Y-40157D3*
Y59843D3*
Y159843D3*
X-484252Y-539764D3*
Y-439764D3*
Y-339764D3*
Y-239764D3*
X500787Y-540157D3*
Y-440157D3*
Y-340157D3*
Y-240157D3*
X-485827Y-639370D3*
D25*
X-484252Y-739370D3*
D24*
X-485827Y-839370D3*
D25*
X-484252Y-939370D3*
D24*
X-485827Y-1037402D3*
D25*
X-484252Y-1137402D3*
D24*
X-485827Y-1345236D3*
D25*
X-484252Y-1445236D3*
D26*
X59055Y192913D3*
X-125984Y102362D3*
X59055D3*
X-125984Y11811D3*
X59055D3*
Y-169291D3*
Y-78740D3*
X-125984Y-169291D3*
Y192913D3*
Y-78740D3*
D32*
X197638Y-174409D3*
Y-124016D3*
Y-74409D3*
Y-24016D3*
Y25984D3*
Y75984D3*
Y125984D3*
D33*
X-133465Y-279528D3*
X-83465D3*
X-33465D3*
X16535D3*
X66535D3*
X116142D3*
X166535D3*
D32*
X197638Y175984D3*
D37*
X246850Y-1661417D3*
X-213780D3*
D89*
X-186442Y-1343933D3*
D92*
X321024Y-723958D3*
D39*
X16311Y-1595785D3*
X-9280D3*
X41902D3*
X67492D3*
X-34870D3*
D95*
X159028Y-1697163D3*
D98*
X-126406D3*
D41*
X-226690Y-526276D3*
Y-443598D3*
G04 Bottom Clear*
%LPC*%
D15*
X329530Y198004D3*
X329562Y147294D3*
X-363542Y126324D3*
X-422549Y8056D3*
X-295945Y-2185D3*
X329993Y-2786D3*
X-357264Y-43600D3*
X-298944Y-100614D3*
X-323738Y-166147D3*
X-310075Y-203970D3*
X-300318Y-251969D3*
X-236425Y-386159D3*
X42034Y-414175D3*
X1537Y-459581D3*
X91339Y-435433D3*
X-82283Y-475591D3*
X398240Y-484584D3*
X365469Y-513892D3*
X215793Y-439596D3*
X253646Y-484667D3*
X368136Y-585644D3*
X-378811Y-609085D3*
X92122Y-625416D3*
X41479Y-696530D3*
X103486Y-696415D3*
X-78827Y-700486D3*
X-242711Y-842913D3*
X-137887Y-1045345D3*
X-236441Y-1142598D3*
D17*
X-255184Y-1001177D3*
D15*
X410382Y-1256846D3*
X-411522Y-1269148D3*
X121182Y-1445028D3*
X92864Y-1475175D3*
X260601Y-1419625D3*
X17762Y-1475770D3*
X-122186Y-1485601D3*
X16293Y-1641543D3*
X-125381Y101891D3*
X59824Y192617D3*
X-125294Y10739D3*
X58694Y-169283D3*
X-124934Y-169672D3*
X59474Y-78232D3*
X59413Y11169D3*
X59885Y104025D3*
X331720Y-52186D3*
X-126067Y193445D3*
X-60259Y-424341D3*
X-125429Y-78978D3*
D45*
X-484252Y-140157D3*
Y-40157D3*
Y59843D3*
Y159843D3*
X500787Y-140157D3*
Y-40157D3*
Y59843D3*
Y159843D3*
X-484252Y-539764D3*
Y-439764D3*
Y-339764D3*
Y-239764D3*
X500787Y-540157D3*
Y-440157D3*
Y-340157D3*
Y-240157D3*
X-485827Y-639370D3*
X-484252Y-739370D3*
X-485827Y-839370D3*
X-484252Y-939370D3*
X-485827Y-1037402D3*
X-484252Y-1137402D3*
X-485827Y-1345236D3*
X-484252Y-1445236D3*
D14*
X197638Y-174409D3*
Y-124016D3*
Y-74409D3*
Y-24016D3*
Y25984D3*
Y75984D3*
Y125984D3*
X-133465Y-279528D3*
X-83465D3*
X-33465D3*
X16535D3*
X66535D3*
X116142D3*
X166535D3*
X197638Y175984D3*
X246850Y-1690945D2*
D45*
Y-1631890D1*
X-213780Y-1690945D2*
Y-1631890D1*
X159028Y-1705037D2*
D44*
Y-1689289D1*
X-126406Y-1705037D2*
Y-1689289D1*
D16*
X-226690Y-526276D3*
Y-443598D3*
M02*
