G04 DipTrace 3.2.0.1*
G04 Нижний.gbr*
%MOMM*%
G04 #@! TF.FileFunction,Copper,L2,Bot*
G04 #@! TF.Part,Single*
%AMOUTLINE3*
4,1,4,
2.82877,1.5614,
-0.97163,-3.08157,
-2.82877,-1.5614,
0.97163,3.08157,
2.82877,1.5614,
0*%
%AMOUTLINE6*
4,1,4,
2.709,0.62563,
-0.078,-2.7792,
-2.709,-0.62563,
0.078,2.7792,
2.709,0.62563,
0*%
%AMOUTLINE9*
4,1,5,
-0.9,0.4,
-0.9,-1.0,
0.9,-1.0,
0.9,1.0,
-0.3,1.0,
-0.9,0.4,
0*%
%AMOUTLINE12*
4,1,5,
-0.9,-1.0,
0.9,-1.0,
0.9,0.4,
0.3,1.0,
-0.9,1.0,
-0.9,-1.0,
0*%
%ADD14C,0.3*%
%ADD15C,0.5*%
%ADD16C,0.6*%
%ADD44C,0.7*%
%ADD45C,1.0*%
G04 #@! TA.AperFunction,CopperBalancing*
%ADD10C,0.25*%
%ADD17C,0.4*%
%ADD23R,2.9X1.85*%
G04 #@! TA.AperFunction,ComponentPad*
%ADD24C,1.8*%
%ADD25C,1.8*%
%ADD26C,1.5*%
G04 #@! TA.AperFunction,ComponentPad*
%ADD33R,1.1X0.75*%
%ADD34R,0.75X1.1*%
%ADD39O,1.4X3.8*%
%ADD41R,0.4X1.35*%
G04 #@! TA.AperFunction,ComponentPad*
%ADD42C,1.2*%
%ADD91OUTLINE3*%
%ADD94OUTLINE6*%
G04 #@! TA.AperFunction,ComponentPad*
%ADD97OUTLINE9*%
%ADD100OUTLINE12*%
%FSLAX35Y35*%
G04*
G71*
G90*
G75*
G01*
G04 Bottom*
%LPD*%
X-153057Y-1077827D2*
D14*
Y-1163877D1*
X-128820Y-1188117D1*
Y-1237783D1*
X-185270Y-1294233D1*
X-236657D1*
X-303243Y-1227647D1*
Y-982380D1*
X-484097Y-801527D1*
Y-391097D1*
X-320000Y-227000D1*
X-321853Y-228657D2*
X-321753Y-228753D1*
X-751700Y-5550D2*
D15*
X-931780D1*
X-995383Y-69153D1*
Y-161403D1*
X-983793Y-172993D1*
Y-1062727D1*
X-962180Y-1084340D1*
Y-1547077D1*
X-751700Y-5550D2*
D17*
X-922053D1*
X-1079603Y152000D1*
X-1230000D1*
X1272000Y-1118000D2*
D15*
X1087857Y-933857D1*
X502710D1*
X423000Y-854147D1*
Y-710000D1*
X-1045267Y-3223637D2*
D16*
X-717463Y-3551440D1*
X-595480D1*
D14*
X-473563Y-3429523D1*
X-887053Y-3829060D2*
D16*
Y-3860893D1*
X-473563Y-3447403D1*
Y-3429523D1*
X106767Y-1052003D2*
X149767Y-1009000D1*
X284163D1*
X617243Y-1342080D1*
X616903D1*
X629063Y-1354240D1*
X-616487Y-2141000D2*
X-499673D1*
X43273D1*
X357950Y-1826323D1*
Y-1595940D1*
X614357Y-1339533D1*
X-1230000Y406000D2*
D17*
Y434610D1*
X-665853D1*
X-555280Y324037D1*
Y-310747D1*
X-597783Y-353250D1*
Y-825477D1*
X-379617Y-1043643D1*
Y-2141000D1*
X-616487D1*
X-499673D2*
D15*
Y-2402030D1*
X-903987Y-2806343D1*
X-1241750Y-3144107D1*
Y-3416900D1*
X-1234000D1*
Y-2635000D2*
X-1075330D1*
X-903987Y-2806343D1*
X1272000Y-1372000D2*
D17*
X1290383D1*
X1053317Y-1134933D1*
X824050D1*
X616903Y-1342080D1*
X688123Y-3047167D2*
Y-3052213D1*
X1171823Y-2568513D1*
Y-1767613D1*
X896147Y-1491937D1*
Y-1495997D1*
X-209000Y-1208000D2*
D14*
X-199607D1*
X-232333Y-1175273D1*
Y-689667D1*
X-212000Y-710000D1*
X3903Y-1167337D2*
Y-1575110D1*
X-200220Y-1779233D1*
X169000Y-710000D2*
Y-844023D1*
X13157Y-999867D1*
Y-1075903D1*
X84470Y-1147217D1*
Y-1590510D1*
X262853Y-1768893D1*
X-85000Y-710000D2*
Y-1141577D1*
X-66830Y-1159747D1*
Y-1282677D1*
X-306947Y-1522797D1*
Y-1860863D1*
X-223520Y-1944290D1*
X-69747D1*
X105357Y-1769187D1*
X502000Y-443000D2*
X1185000D1*
X1272000Y-356000D1*
X-762807Y-640000D2*
Y-685830D1*
X-760597Y-688040D1*
Y-1711147D1*
X-924950Y-1875500D1*
X-1227500D1*
X-1230000Y-1878000D1*
X-907450Y-110743D2*
X-904133D1*
X-759317Y-255560D1*
X-923397Y320863D2*
X-707707D1*
X-638210Y251367D1*
Y-259740D1*
X-716597Y-338127D1*
X-874873D1*
X-909000Y-372253D1*
Y-1001277D1*
X-885197Y-1025080D1*
Y-1598197D1*
X-941577Y-1654577D1*
X-1010823D1*
X-1070180Y-1595220D1*
Y-1410563D1*
X-1106453Y-1374290D1*
X-1226710D1*
X-1230000Y-1371000D1*
X-820757Y-414323D2*
X-728240D1*
X-689833Y-452730D1*
Y-1739307D1*
X-1098800Y-2148273D1*
X-1217727D1*
X-1234000Y-2132000D1*
X-787590Y-518083D2*
X-840917Y-571410D1*
Y-714890D1*
X-823667Y-732140D1*
Y-1681287D1*
X-877960Y-1735580D1*
X-1122420D1*
X-1234000Y-1624000D1*
X-578467Y-1006473D2*
X-532270D1*
X-451270Y-1087473D1*
Y-1599670D1*
X-1260100Y-2408500D1*
X-1207500D1*
X-1230000Y-2386000D1*
X42000Y-710000D2*
D10*
Y-639423D1*
X-116097Y-481327D1*
X-298780D1*
Y-502220D1*
X-320000Y-481000D1*
X-317987Y-480550D2*
D14*
X-298780Y-481327D1*
X-350233Y-2655177D2*
X-298930D1*
X442843Y-1913403D1*
Y-1777387D1*
X713073Y-1507157D1*
Y-1447330D1*
X705000Y-3612000D2*
D16*
X558693D1*
X461567Y-3514873D1*
X-17110D1*
X-225227D1*
X-430093Y-3719740D1*
D15*
Y-3818527D1*
X-356627Y-3891993D1*
X-148810D1*
D17*
X-88570Y-3952233D1*
Y-4053293D1*
X-17110Y-3514873D2*
D15*
Y-3114567D1*
X-229477Y-2902200D1*
X-595307D1*
X1042370Y-3192390D2*
X683113D1*
X624930Y-3134207D1*
X132433D1*
X502000Y-315000D2*
D14*
X1059000D1*
X1272000Y-102000D1*
X-23570Y-4053293D2*
D17*
Y-3838773D1*
X79550Y-3735653D1*
X599577Y-3250830D2*
D10*
X668407Y-3319660D1*
X1128213D1*
X1257130Y-3190743D1*
Y-1728457D1*
X905400Y-1376727D1*
Y-1288917D1*
X960397Y-1233920D1*
X1033067D1*
X598513Y-3412357D2*
X1148643D1*
X1322857Y-3238143D1*
Y-1671763D1*
X974593Y-1323500D1*
X171430Y-4053293D2*
D17*
Y-3687260D1*
D15*
X123923Y-3639753D1*
X18953D1*
X-114720Y-3773427D1*
X-310353D1*
X295000Y-710000D2*
D10*
Y-585840D1*
X239853Y-530693D1*
X151743D1*
X145800D1*
Y-518000D1*
X144633Y-516943D2*
X151743D1*
Y-530693D1*
X842570Y-132553D2*
X895260D1*
X952547Y-75267D1*
Y94673D1*
X733467Y313753D1*
Y514403D1*
X612597Y635273D1*
X51717D1*
X-49377Y534180D1*
X-303457D1*
Y518457D1*
X-320000Y535000D1*
X-321513Y537670D2*
X-303457D1*
Y534180D1*
X502000Y-61000D2*
Y-68860D1*
X403797D1*
X331773Y-140883D1*
X-152117D1*
X-320000Y27000D1*
X-318247Y27277D2*
D14*
X-320000Y27000D1*
X502000Y-189000D2*
D10*
X420323D1*
X339283Y-270040D1*
X170173D1*
X165970Y-274243D1*
X149900D1*
Y-264000D1*
X150000D1*
X149900Y-263137D2*
D14*
Y-274243D1*
X502000Y66000D2*
D10*
Y73627D1*
X343333D1*
X259707Y-10000D1*
X152427D1*
X150000D1*
X150850Y-10177D2*
D14*
X152427Y-10000D1*
X502000Y193000D2*
D10*
X353670D1*
X312443Y234227D1*
X198427D1*
Y210990D1*
X183010D1*
X150000Y244000D1*
X149497Y245303D2*
D14*
X198427D1*
Y234227D1*
X502000Y320000D2*
D10*
X327787D1*
X273303Y374480D1*
X-233193D1*
X-320000Y287677D1*
Y281000D1*
X-320423Y280333D2*
D14*
X-320000Y281000D1*
X-1230000Y-1117000D2*
X-1214373D1*
X-1073273Y-975900D1*
Y20463D1*
X837007Y502930D2*
X1175070D1*
X1272000Y406000D1*
X837087Y374127D2*
X1049873D1*
X1272000Y152000D1*
X838183Y-7077D2*
D10*
X750597D1*
X662017Y81503D1*
Y491003D1*
X598733Y554287D1*
X289147D1*
X235860Y501000D1*
X148427D1*
X150000D1*
X150043Y501663D2*
D14*
X148427Y501000D1*
X-1230000Y-3670900D2*
D15*
Y-3685197D1*
X-1064590Y-3519787D1*
Y-3364213D1*
X-1150340Y-3278463D1*
Y-3182517D1*
X-727810Y-2759987D1*
X-89800D1*
X815400Y-1854787D1*
X-1230000Y-3670900D2*
D16*
Y-4126747D1*
X-1100540Y-4256207D1*
X-919907D1*
X-887053Y-4289060D1*
X41430Y-4053293D2*
D17*
Y-4169520D1*
X41383D1*
X233990Y-1588557D2*
D15*
X232000D1*
Y-1106000D1*
D16*
X837007Y502930D3*
X837087Y374127D3*
X-923397Y320863D3*
X-1073273Y20463D3*
X-751700Y-5550D3*
X838183Y-7077D3*
X-907450Y-110743D3*
X-759317Y-255560D3*
X-820757Y-414323D3*
X-787590Y-518083D3*
X-762807Y-640000D3*
X-578467Y-1006473D3*
X106767Y-1052003D3*
X3903Y-1167337D3*
X232000Y-1106000D3*
X-209000Y-1208000D3*
X1033067Y-1233920D3*
X974593Y-1323500D3*
X629063Y-1354240D3*
X713073Y-1447330D3*
X896147Y-1495997D3*
X-962180Y-1547077D3*
X233990Y-1588557D3*
X105357Y-1769187D3*
X262853Y-1768893D3*
X-200220Y-1779233D3*
X-616487Y-2141000D3*
X-350233Y-2655177D3*
X-595307Y-2902200D3*
X688123Y-3047167D3*
X132433Y-3134207D3*
X1042370Y-3192390D3*
X-1045267Y-3223637D3*
X599577Y-3250830D3*
X598513Y-3412357D3*
X705000Y-3612000D3*
X79550Y-3735653D3*
X-310353Y-3773427D3*
X41383Y-4169520D3*
X-320423Y280333D3*
X150043Y501663D3*
X-318247Y27277D3*
X-317987Y-480550D3*
X149900Y-263137D3*
X150850Y-10177D3*
X149497Y245303D3*
X842570Y-132553D3*
X-321513Y537670D3*
X-153057Y-1077827D3*
X144633Y-516943D3*
X-321853Y-228657D3*
X-1250727Y597333D2*
D17*
X-785600D1*
X867320D2*
X1285570D1*
X-1285570Y557667D2*
X-785600D1*
X1232633D2*
X1327210D1*
X-1123850Y518000D2*
X-785600D1*
X-1101350Y319667D2*
X-1018960D1*
X-1141663Y280000D2*
X-1009350D1*
X875993D2*
X1031663D1*
X-1102757Y240333D2*
X-971070D1*
X-875727D2*
X-785600D1*
X915680D2*
X1071350D1*
X-1082447Y200667D2*
X-785600D1*
X955367D2*
X1111040D1*
X-1074633Y161000D2*
X-785600D1*
X994977D2*
X1116663D1*
X-1077523Y121333D2*
X-785600D1*
X1025680D2*
X1119553D1*
X-1001117Y81667D2*
X-785600D1*
X1030680D2*
X1133697D1*
X-980257Y42000D2*
X-785600D1*
X1030680D2*
X1163697D1*
X-979477Y2333D2*
X-785600D1*
X1030680D2*
X1157993D1*
X-992680Y-37333D2*
X-966227D1*
X-848697D2*
X-785600D1*
X1030680D2*
X1130883D1*
X-818303Y-77000D2*
X-785600D1*
X1030600D2*
X1118460D1*
X1018023Y-116667D2*
X1117133D1*
X980290Y-156333D2*
X1105337D1*
X-992680Y-196000D2*
X-944977D1*
X937553D2*
X1065650D1*
X-992680Y-235667D2*
X-891540D1*
X874273D2*
X1026040D1*
X-992680Y-275333D2*
X-922710D1*
X-992680Y-315000D2*
X-964040D1*
X876930Y-553000D2*
X1127523D1*
X877243Y-592667D2*
X1117367D1*
X877553Y-632333D2*
X1118070D1*
X877867Y-672000D2*
X1129633D1*
X878180Y-711667D2*
X1155570D1*
X878570Y-751333D2*
X1166587D1*
X878883Y-791000D2*
X1135100D1*
X879197Y-830667D2*
X1120100D1*
X866150Y-870333D2*
X1116507D1*
X834820Y-910000D2*
X1123540D1*
X803570Y-949667D2*
X1142913D1*
X772243Y-989333D2*
X1182680D1*
X-1014087Y-1029000D2*
X-984430D1*
X740913D2*
X1145257D1*
X-1053697Y-1068667D2*
X-965837D1*
X709350D2*
X772447D1*
X1104900D2*
X1124693D1*
X-1074633Y-1108333D2*
X-965837D1*
X183960D2*
X249947D1*
X517007D2*
X731273D1*
X-1077600Y-1148000D2*
X-965837D1*
X165053D2*
X289633D1*
X556697D2*
X691587D1*
X-1091900Y-1187667D2*
X-965837D1*
X165053D2*
X329320D1*
X596383D2*
X651900D1*
X-1122053Y-1227333D2*
X-965837D1*
X165053D2*
X368930D1*
X-1115727Y-1267000D2*
X-965837D1*
X165053D2*
X408617D1*
X811383D2*
X830650D1*
X-1066507Y-1306667D2*
X-965837D1*
X165053D2*
X448303D1*
X771697D2*
X827290D1*
X1092710D2*
X1105627D1*
X-1022053Y-1346333D2*
X-965837D1*
X165053D2*
X474007D1*
X732087D2*
X827290D1*
X1106227D2*
X1118570D1*
X-993617Y-1386000D2*
X-965837D1*
X165053D2*
X434320D1*
X785133D2*
X827913D1*
X-989553Y-1425667D2*
X-965837D1*
X-97523D2*
X-76647D1*
X165053D2*
X394710D1*
X806070D2*
X833460D1*
X-989553Y-1465333D2*
X-965837D1*
X-137133D2*
X-76697D1*
X165053D2*
X355023D1*
X-989553Y-1505000D2*
X-965837D1*
X-609243D2*
X-531850D1*
X-176820D2*
X-76697D1*
X165053D2*
X315337D1*
X582400D2*
X602853D1*
X-989553Y-1544667D2*
X-965837D1*
X-609243D2*
X-531850D1*
X-216507D2*
X-77947D1*
X165053D2*
X278070D1*
X542790D2*
X563257D1*
X1304587D2*
X1347133D1*
X-609243Y-1584333D2*
X-548257D1*
X-226350D2*
X-117633D1*
X190600D2*
X263070D1*
X503100D2*
X523527D1*
X-609243Y-1624000D2*
X-587947D1*
X-226350D2*
X-157320D1*
X230290D2*
X262367D1*
X463413D2*
X483910D1*
X-226350Y-1663667D2*
X-197007D1*
X27710D2*
X45333D1*
X-11977Y-1703333D2*
X37680D1*
X-482290Y-1743000D2*
X-465270D1*
X-51663D2*
X13617D1*
X589587D2*
X603567D1*
X-521900Y-1782667D2*
X-465210D1*
X-91350D2*
X-20447D1*
X549900D2*
X571117D1*
X-561587Y-1822333D2*
X-465210D1*
X-115413D2*
X-60133D1*
X523413D2*
X538653D1*
X-601273Y-1862000D2*
X-465210D1*
X-156977D2*
X-99820D1*
X124900D2*
X188697D1*
X-640960Y-1901667D2*
X-465210D1*
X85210D2*
X149087D1*
X-680570Y-1941333D2*
X-465210D1*
X45523D2*
X109400D1*
X1047867D2*
X1086197D1*
X-1114790Y-1981000D2*
X-1043883D1*
X-720257D2*
X-465210D1*
X5837D2*
X69710D1*
X487553D2*
X521040D1*
X1015367D2*
X1086197D1*
X-1127133Y-2020667D2*
X-1083493D1*
X-759947D2*
X-465210D1*
X-294007D2*
X-233337D1*
X-59867D2*
X30100D1*
X447947D2*
X523070D1*
X982947D2*
X1086197D1*
X-799633Y-2060333D2*
X-663883D1*
X408257D2*
X483383D1*
X950447D2*
X1086197D1*
X-839243Y-2100000D2*
X-702400D1*
X368570D2*
X443697D1*
X917947D2*
X1086197D1*
X-878930Y-2139667D2*
X-712087D1*
X328883D2*
X404087D1*
X657007D2*
X714867D1*
X885523D2*
X1086197D1*
X-918617Y-2179333D2*
X-703650D1*
X289273D2*
X364400D1*
X617320D2*
X763303D1*
X851850D2*
X1086197D1*
X-958303Y-2219000D2*
X-668493D1*
X249587D2*
X324710D1*
X577633D2*
X1086197D1*
X-997913Y-2258667D2*
X-590290D1*
X-409087D2*
X-14743D1*
X209900D2*
X285023D1*
X538023D2*
X1086197D1*
X-1037600Y-2298333D2*
X-590290D1*
X-409087D2*
X-54430D1*
X170210D2*
X245413D1*
X498337D2*
X1086197D1*
X-1077290Y-2338000D2*
X-590290D1*
X-409087D2*
X-94117D1*
X130600D2*
X205727D1*
X458650D2*
X1086197D1*
X-1074633Y-2377667D2*
X-601773D1*
X-409087D2*
X-133727D1*
X90913D2*
X166040D1*
X418960D2*
X1086197D1*
X-1077680Y-2417333D2*
X-641460D1*
X-410413D2*
X-173413D1*
X51227D2*
X126350D1*
X379350D2*
X1086197D1*
X-1092053Y-2457000D2*
X-681150D1*
X-428773D2*
X-213100D1*
X11540D2*
X86743D1*
X339663D2*
X1086197D1*
X-1122367Y-2496667D2*
X-720757D1*
X-467837D2*
X-252710D1*
X-28070D2*
X47053D1*
X299977D2*
X1086197D1*
X-1114867Y-2536333D2*
X-760447D1*
X-507523D2*
X-292400D1*
X-67757D2*
X7367D1*
X260290D2*
X1084633D1*
X-1007837Y-2576000D2*
X-800133D1*
X-547210D2*
X-400290D1*
X-107447D2*
X-32320D1*
X220680D2*
X1044947D1*
X-968227Y-2615667D2*
X-839743D1*
X-586820D2*
X-436850D1*
X-147053D2*
X-71930D1*
X180993D2*
X1005257D1*
X-928540Y-2655333D2*
X-879430D1*
X-626507D2*
X-445837D1*
X-186743D2*
X-111617D1*
X141303D2*
X965570D1*
X101697Y-2695000D2*
X925960D1*
X1164743D2*
X1179087D1*
X-1115803Y-2734667D2*
X-1102090D1*
X62007D2*
X886273D1*
X1125053D2*
X1179007D1*
X-1126820Y-2774333D2*
X-1062477D1*
X22320D2*
X846587D1*
X1085367D2*
X1179007D1*
X-1094243Y-2814000D2*
X-1038100D1*
X-17367D2*
X806900D1*
X1045757D2*
X1179007D1*
X-695023Y-2853667D2*
X-677003D1*
X-151507D2*
X767290D1*
X1006070D2*
X1179007D1*
X-734710Y-2893333D2*
X-690447D1*
X-111900D2*
X727600D1*
X966383D2*
X1179007D1*
X-774320Y-2933000D2*
X-685600D1*
X-72210D2*
X687913D1*
X926773D2*
X1179007D1*
X-814007Y-2972667D2*
X-657867D1*
X-32523D2*
X630803D1*
X887087D2*
X1179007D1*
X-853697Y-3012333D2*
X-245837D1*
X7163D2*
X599400D1*
X847400D2*
X1179007D1*
X-1305570Y-3052000D2*
X-1276087D1*
X-893383D2*
X-206150D1*
X46773D2*
X87993D1*
X807710D2*
X1179007D1*
X-932993Y-3091667D2*
X-435680D1*
X-311430D2*
X-166460D1*
X772163D2*
X1179007D1*
X-972680Y-3131333D2*
X-468180D1*
X-262993D2*
X-126850D1*
X1114663D2*
X1179007D1*
X-1012367Y-3171000D2*
X-500600D1*
X-214477D2*
X-107710D1*
X1135447D2*
X1168070D1*
X-1052053Y-3210667D2*
X-533100D1*
X-166040D2*
X-107710D1*
X-1051977Y-3250333D2*
X-565600D1*
X-129553D2*
X-107710D1*
X73493D2*
X504007D1*
X-1012367Y-3290000D2*
X-598023D1*
X-127367D2*
X-107710D1*
X73493D2*
X512757D1*
X-981197Y-3329667D2*
X-630523D1*
X-153150D2*
X-107710D1*
X73493D2*
X548930D1*
X-974007Y-3369333D2*
X-662947D1*
X-185650D2*
X-107710D1*
X73493D2*
X513617D1*
X1300447D2*
X1346273D1*
X-974007Y-3409000D2*
X-695447D1*
X-218070D2*
X-107710D1*
X73493D2*
X502993D1*
X1260757D2*
X1346273D1*
X-974007Y-3448667D2*
X-727947D1*
X1221150D2*
X1346273D1*
X-974007Y-3488333D2*
X-760367D1*
X653650D2*
X1346273D1*
X-974400Y-3528000D2*
X-792867D1*
X745523D2*
X1346197D1*
X-988460Y-3567667D2*
X-819350D1*
X789197D2*
X1346197D1*
X-1025650Y-3607333D2*
X-818100D1*
X-184163D2*
X-75133D1*
X217947D2*
X420493D1*
X800447D2*
X1346197D1*
X-1065337Y-3647000D2*
X-782790D1*
X-223773D2*
X-114743D1*
X252087D2*
X460180D1*
X793650D2*
X1346197D1*
X-263460Y-3686667D2*
X-154430D1*
X262007D2*
X501663D1*
X762087D2*
X1346117D1*
X257007Y-3726333D2*
X1346117D1*
X-676430Y-3766000D2*
X-637400D1*
X257007D2*
X1346117D1*
X-1134400Y-3805667D2*
X-1097633D1*
X-676430D2*
X-520680D1*
X257007D2*
X1346117D1*
X-1134400Y-3845333D2*
X-1097633D1*
X-676430D2*
X-516460D1*
X257007D2*
X1346117D1*
X-1134400Y-3885000D2*
X-1097633D1*
X-676430D2*
X-490053D1*
X62007D2*
X85813D1*
X257007D2*
X1346040D1*
X-1134400Y-3924667D2*
X-1097633D1*
X-676430D2*
X-450447D1*
X257007D2*
X1346040D1*
X-1134400Y-3964333D2*
X-1097633D1*
X-676430D2*
X-408257D1*
X339820D2*
X1346040D1*
X-1134400Y-4004000D2*
X-1081227D1*
X-688930D2*
X-637007D1*
X-449007D2*
X-292163D1*
X375053D2*
X532993D1*
X720993D2*
X1346040D1*
X-1134400Y-4043667D2*
X-1080993D1*
X-689087D2*
X-665913D1*
X-420100D2*
X-301617D1*
X384507D2*
X504087D1*
X749900D2*
X1345727D1*
X-1134400Y-4083333D2*
X-1080837D1*
X-408460D2*
X-294040D1*
X376930D2*
X492447D1*
X761540D2*
X1343070D1*
X-1100180Y-4123000D2*
X-1080610D1*
X-407367D2*
X-275913D1*
X359900D2*
X491430D1*
X762633D2*
X1332993D1*
X762633Y-4162667D2*
X1319320D1*
X762633Y-4202333D2*
X1302913D1*
X-49243Y-4242000D2*
X-18650D1*
X101383D2*
X133227D1*
X762633D2*
X1276900D1*
X-62757Y-4281667D2*
X146743D1*
X762633D2*
X1247913D1*
X-95023Y-4321333D2*
X179007D1*
X762633D2*
X1207680D1*
X-1128773Y-4361000D2*
X-1097633D1*
X-165493D2*
X248303D1*
X760913D2*
X1160960D1*
X-676430Y-4400667D2*
X-663807D1*
X-165493D2*
X248303D1*
X747790D2*
X1099790D1*
X-676430Y-4440333D2*
X-632163D1*
X-172993D2*
X255883D1*
X716150D2*
X981430D1*
X-1078450Y-3674960D2*
X-744607D1*
X-800777Y-3628427D1*
X-808217Y-3619037D1*
X-813697Y-3608383D1*
X-817013Y-3596870D1*
X-818037Y-3584933D1*
X-816730Y-3573023D1*
X-813143Y-3561590D1*
X-807410Y-3551070D1*
X-781307Y-3518787D1*
X-419163Y-3077030D1*
X-409773Y-3069590D1*
X-399117Y-3064110D1*
X-387603Y-3060793D1*
X-375667Y-3059770D1*
X-363757Y-3061077D1*
X-352327Y-3064667D1*
X-341807Y-3070397D1*
X-309523Y-3096503D1*
X-148657Y-3228350D1*
X-140733Y-3237337D1*
X-134703Y-3247687D1*
X-130787Y-3259010D1*
X-129137Y-3270877D1*
X-129817Y-3282840D1*
X-132800Y-3294443D1*
X-137970Y-3305250D1*
X-145553Y-3315497D1*
X-234120Y-3423700D1*
X-205227Y-3423273D1*
X-103743D1*
X-103710Y-3150420D1*
X-265343Y-2988807D1*
X-565493Y-2988800D1*
X-580977Y-2992673D1*
X-595307Y-2993800D1*
X-609637Y-2992673D1*
X-623613Y-2989317D1*
X-636893Y-2983817D1*
X-649147Y-2976307D1*
X-660077Y-2966970D1*
X-669413Y-2956040D1*
X-676923Y-2943787D1*
X-682423Y-2930507D1*
X-685780Y-2916530D1*
X-686907Y-2902200D1*
X-685780Y-2887870D1*
X-682423Y-2873893D1*
X-676923Y-2860613D1*
X-669413Y-2848360D1*
X-668003Y-2846573D1*
X-691910Y-2846587D1*
X-1063713Y-3218363D1*
X-1063740Y-3242593D1*
X-998740Y-3307970D1*
X-990750Y-3318963D1*
X-984583Y-3331073D1*
X-980383Y-3343997D1*
X-978257Y-3357420D1*
X-977990Y-3444213D1*
X-978257Y-3526580D1*
X-980383Y-3540003D1*
X-984583Y-3552927D1*
X-990750Y-3565037D1*
X-998740Y-3576030D1*
X-1059923Y-3637590D1*
X-1079093Y-3656760D1*
X-1078560Y-3674943D1*
X-680453Y-3727477D2*
Y-3983160D1*
X-692813D1*
X-693530Y-4134900D1*
X-680453Y-4134960D1*
Y-4443160D1*
X-950927Y-4443553D1*
X-943047Y-4446223D1*
X-823350Y-4454000D1*
X-609100Y-4453753D1*
X-620353Y-4446467D1*
X-636057Y-4433057D1*
X-649467Y-4417353D1*
X-660257Y-4399747D1*
X-668160Y-4380667D1*
X-672980Y-4360587D1*
X-674600Y-4340000D1*
Y-4100000D1*
X-672980Y-4079413D1*
X-668160Y-4059333D1*
X-660257Y-4040253D1*
X-649467Y-4022647D1*
X-636057Y-4006943D1*
X-620353Y-3993533D1*
X-602747Y-3982743D1*
X-583667Y-3974840D1*
X-563587Y-3970020D1*
X-543000Y-3968400D1*
X-522413Y-3970020D1*
X-502333Y-3974840D1*
X-483253Y-3982743D1*
X-465647Y-3993533D1*
X-449943Y-4006943D1*
X-436533Y-4022647D1*
X-425743Y-4040253D1*
X-417840Y-4059333D1*
X-413020Y-4079413D1*
X-411400Y-4100000D1*
X-411050Y-4149193D1*
X-293960D1*
X-283070Y-4134533D1*
X-268467Y-4119930D1*
X-265583Y-4117657D1*
X-274527Y-4108530D1*
X-283437Y-4096267D1*
X-290317Y-4082760D1*
X-295000Y-4068343D1*
X-297373Y-4053373D1*
Y-4038213D1*
X-295000Y-4023243D1*
X-290317Y-4008827D1*
X-283437Y-3995320D1*
X-274527Y-3983057D1*
X-270403Y-3978597D1*
X-363420Y-3978327D1*
X-376843Y-3976200D1*
X-389767Y-3972000D1*
X-401877Y-3965833D1*
X-412870Y-3957843D1*
X-474430Y-3896660D1*
X-495943Y-3874770D1*
X-503933Y-3863777D1*
X-510100Y-3851667D1*
X-514300Y-3838743D1*
X-516427Y-3825320D1*
X-516693Y-3768917D1*
X-527963Y-3782017D1*
X-537353Y-3789457D1*
X-548010Y-3794937D1*
X-559523Y-3798253D1*
X-571460Y-3799277D1*
X-583370Y-3797970D1*
X-594800Y-3794380D1*
X-605320Y-3788650D1*
X-637603Y-3762543D1*
X-680463Y-3727460D1*
X-1077313Y-3983160D2*
X-1093653D1*
Y-3737177D1*
X-1100740Y-3750110D1*
X-1114723Y-3769357D1*
X-1131543Y-3786177D1*
X-1138373Y-3791560D1*
X-1138400Y-4088790D1*
X-1092253Y-4134950D1*
X-1076670Y-4119417D1*
X-1077310Y-3983090D1*
X-1093653Y-4385893D2*
Y-4347770D1*
X-1107727Y-4347523D1*
X-1121923Y-4345277D1*
X-1135593Y-4340833D1*
X-1148400Y-4334310D1*
X-1160030Y-4325860D1*
X-1221880Y-4264410D1*
X-1253093Y-4233197D1*
X-1240007Y-4264770D1*
X-1168300Y-4338373D1*
X-1093607Y-4385907D1*
X-1078453Y148000D2*
X-1079717Y132057D1*
X-1082653Y116337D1*
X-1083940Y111427D1*
X-1073273Y112063D1*
X-1058943Y110937D1*
X-1044967Y107580D1*
X-1031687Y102080D1*
X-1019433Y94570D1*
X-1008503Y85233D1*
X-999167Y74303D1*
X-991657Y62050D1*
X-986157Y48770D1*
X-982800Y34793D1*
X-981673Y20463D1*
X-982800Y6133D1*
X-986157Y-7843D1*
X-991657Y-21123D1*
X-996687Y-29663D1*
X-996520Y-89360D1*
X-992077Y-75690D1*
X-985553Y-62883D1*
X-977103Y-51253D1*
X-966940Y-41090D1*
X-955310Y-32640D1*
X-942503Y-26117D1*
X-928833Y-21673D1*
X-914637Y-19427D1*
X-900263D1*
X-886067Y-21673D1*
X-872397Y-26117D1*
X-859590Y-32640D1*
X-847960Y-41090D1*
X-837797Y-51253D1*
X-829347Y-62883D1*
X-822823Y-75690D1*
X-818847Y-87710D1*
X-781633Y-124913D1*
X-781617Y244253D1*
X-873097Y244263D1*
X-888343Y236237D1*
X-902013Y231793D1*
X-916210Y229547D1*
X-930583D1*
X-944780Y231793D1*
X-958450Y236237D1*
X-971257Y242760D1*
X-982887Y251210D1*
X-993050Y261373D1*
X-1001500Y273003D1*
X-1008023Y285810D1*
X-1012467Y299480D1*
X-1014713Y313677D1*
Y328050D1*
X-1012467Y342247D1*
X-1009103Y352990D1*
X-1087963Y353010D1*
X-1094923Y337177D1*
X-1107353Y316893D1*
X-1122803Y298803D1*
X-1140893Y283353D1*
X-1147347Y279040D1*
X-1132733Y268283D1*
X-1121023Y257390D1*
X-1110530Y245323D1*
X-1101363Y232217D1*
X-1093627Y218220D1*
X-1087410Y203487D1*
X-1082780Y188180D1*
X-1079787Y172467D1*
X-1078467Y156530D1*
X-1078453Y148000D1*
X-1293883Y543353D2*
X-1276847Y550180D1*
X-1253717Y555733D1*
X-1230000Y557600D1*
X-1206283Y555733D1*
X-1183153Y550180D1*
X-1161177Y541077D1*
X-1140893Y528647D1*
X-1126047Y516197D1*
X-781640Y516210D1*
X-781990Y633103D1*
X-1030457Y633467D1*
X-1179133Y636907D1*
X-1244977Y608410D1*
X-1290003Y557180D1*
X1125410Y-140300D2*
X1122267Y-125717D1*
X1120400Y-102000D1*
X1122267Y-78283D1*
X1127820Y-55153D1*
X1136923Y-33177D1*
X1149353Y-12893D1*
X1164803Y5197D1*
X1182893Y20647D1*
X1189347Y24960D1*
X1173543Y36723D1*
X1156723Y53543D1*
X1142740Y72790D1*
X1131940Y93987D1*
X1124590Y116610D1*
X1120867Y140107D1*
Y163893D1*
X1124590Y187390D1*
X1125410Y190300D1*
X1018133Y297537D1*
X887297Y297527D1*
X878673Y292510D1*
X865893Y287193D1*
X870717Y281297D1*
X1008893Y142797D1*
X1015727Y133390D1*
X1021007Y123030D1*
X1024600Y111973D1*
X1026420Y100487D1*
X1026647Y-25327D1*
X1026420Y-81080D1*
X1024600Y-92567D1*
X1021007Y-103623D1*
X1015727Y-113983D1*
X1008893Y-123390D1*
X947657Y-184950D1*
X938817Y-192503D1*
X928900Y-198577D1*
X918157Y-203027D1*
X906853Y-205740D1*
X896410Y-206660D1*
X884157Y-214170D1*
X870147Y-219877D1*
X870273Y-238467D1*
X1027233Y-238400D1*
X1125320Y-140350D1*
X1120623Y411713D2*
X1121867Y426343D1*
X1105930Y426330D1*
X1120557Y411773D1*
X1233700Y552590D2*
X1248283Y555733D1*
X1272000Y557600D1*
X1295717Y555733D1*
X1318847Y550180D1*
X1336053Y543277D1*
X1327097Y569613D1*
X1269963Y611810D1*
X1195087Y634003D1*
X863087Y633847D1*
X863370Y590723D1*
X878593Y584547D1*
X887133Y579517D1*
X1181080Y579293D1*
X1192953Y577413D1*
X1204383Y573700D1*
X1215093Y568243D1*
X1224817Y561177D1*
X1233710Y552620D1*
X-1147347Y-1244040D2*
X-1131543Y-1255723D1*
X-1114723Y-1272543D1*
X-1100740Y-1291790D1*
X-1097127Y-1298240D1*
X-1082783Y-1301440D1*
X-1071677Y-1306040D1*
X-1061430Y-1312320D1*
X-1052273Y-1320143D1*
X-1011933Y-1360817D1*
X-1004867Y-1370540D1*
X-999410Y-1381250D1*
X-995697Y-1392680D1*
X-993817Y-1404553D1*
X-993580Y-1530563D1*
Y-1563453D1*
X-979057Y-1578013D1*
X-967457Y-1572127D1*
X-961767Y-1566437D1*
X-961797Y-1056870D1*
X-970970Y-1046300D1*
X-977250Y-1036053D1*
X-981850Y-1024947D1*
X-984657Y-1013260D1*
X-985600Y-1001253D1*
X-985363Y-366243D1*
X-983483Y-354370D1*
X-979770Y-342940D1*
X-974313Y-332230D1*
X-967247Y-322507D1*
X-929037Y-283963D1*
X-919897Y-276157D1*
X-909650Y-269877D1*
X-898543Y-265277D1*
X-886857Y-262470D1*
X-874850Y-261527D1*
X-870050Y-253157D1*
X-922033Y-201173D1*
X-935757Y-197860D1*
X-949037Y-192360D1*
X-961290Y-184850D1*
X-972220Y-175513D1*
X-981557Y-164583D1*
X-989067Y-152330D1*
X-994567Y-139050D1*
X-996677Y-131327D1*
X-996910Y-981910D1*
X-998790Y-993783D1*
X-1002503Y-1005213D1*
X-1007960Y-1015923D1*
X-1015027Y-1025647D1*
X-1080593Y-1091550D1*
X-1078867Y-1105107D1*
Y-1128893D1*
X-1082590Y-1152390D1*
X-1089940Y-1175013D1*
X-1100740Y-1196210D1*
X-1114723Y-1215457D1*
X-1131543Y-1232277D1*
X-1147347Y-1243960D1*
X1351090Y-1501330D2*
X1330013Y-1512060D1*
X1307390Y-1519410D1*
X1283893Y-1523133D1*
X1279203Y-1523317D1*
X1351100Y-1595213D1*
X1351120Y-1501320D1*
X1120683Y-1364797D2*
X1122267Y-1348283D1*
X1127900Y-1324933D1*
X1099713Y-1296730D1*
X1092557Y-1303573D1*
X1080927Y-1312023D1*
X1072433Y-1316560D1*
X1120627Y-1364740D1*
X1123140Y-1089363D2*
X1127853Y-1071050D1*
X1133600Y-1056127D1*
X1140890Y-1041890D1*
X1149637Y-1028503D1*
X1159747Y-1016110D1*
X1171103Y-1004853D1*
X1183583Y-994853D1*
X1189227Y-991007D1*
X1173543Y-979277D1*
X1156723Y-962457D1*
X1142740Y-943210D1*
X1131940Y-922013D1*
X1124590Y-899390D1*
X1120867Y-875893D1*
Y-852107D1*
X1124590Y-828610D1*
X1131940Y-805987D1*
X1142740Y-784790D1*
X1156723Y-765543D1*
X1173543Y-748723D1*
X1189347Y-737040D1*
X1173543Y-725277D1*
X1156723Y-708457D1*
X1142740Y-689210D1*
X1131940Y-668013D1*
X1124590Y-645390D1*
X1120867Y-621893D1*
Y-598107D1*
X1124590Y-574610D1*
X1131940Y-551987D1*
X1142740Y-530790D1*
X1150360Y-519613D1*
X872577Y-519600D1*
X875063Y-836750D1*
X873630Y-846310D1*
X870720Y-855527D1*
X866403Y-864177D1*
X849570Y-886297D1*
X705257Y-1068783D1*
X698153Y-1075340D1*
X690113Y-1080707D1*
X681333Y-1084747D1*
X672027Y-1087363D1*
X662407Y-1088493D1*
X493507Y-1088793D1*
X624100Y-1219393D1*
X771053Y-1072883D1*
X781413Y-1065357D1*
X792823Y-1059543D1*
X805000Y-1055587D1*
X817647Y-1053583D1*
X924050Y-1053333D1*
X1059720Y-1053583D1*
X1072367Y-1055587D1*
X1084543Y-1059543D1*
X1095953Y-1065357D1*
X1106313Y-1072883D1*
X1111033Y-1077250D1*
X-1097900Y-1952140D2*
X-1107353Y-1967107D1*
X-1122803Y-1985197D1*
X-1140893Y-2000647D1*
X-1149280Y-2006253D1*
X-1135543Y-2016723D1*
X-1118723Y-2033543D1*
X-1107503Y-2048653D1*
X-1010937Y-1952080D1*
X-1097683Y-1952100D1*
X-1078867Y-2397893D2*
X-1082590Y-2421390D1*
X-1089940Y-2444013D1*
X-1100740Y-2465210D1*
X-1114723Y-2484457D1*
X-1131543Y-2501277D1*
X-1145647Y-2511823D1*
X-1135543Y-2519723D1*
X-1118723Y-2536543D1*
X-1109673Y-2548403D1*
X-1068537Y-2548667D1*
X-1055113Y-2550793D1*
X-1042190Y-2554993D1*
X-1030080Y-2561160D1*
X-1019087Y-2569150D1*
X-957527Y-2630333D1*
X-903997Y-2683863D1*
X-586313Y-2366197D1*
X-586273Y-2232577D1*
X-623673Y-2232317D1*
X-637870Y-2230070D1*
X-651540Y-2225627D1*
X-664347Y-2219103D1*
X-675977Y-2210653D1*
X-686140Y-2200490D1*
X-694590Y-2188860D1*
X-701113Y-2176053D1*
X-705557Y-2162383D1*
X-707803Y-2148187D1*
Y-2133813D1*
X-705557Y-2119617D1*
X-701113Y-2105947D1*
X-694590Y-2093140D1*
X-686140Y-2081510D1*
X-675977Y-2071347D1*
X-664347Y-2062897D1*
X-651540Y-2056373D1*
X-637870Y-2051930D1*
X-623673Y-2049683D1*
X-536487Y-2049400D1*
X-461157D1*
X-461217Y-1717953D1*
X-1085043Y-2341773D1*
X-1080267Y-2362283D1*
X-1078400Y-2386000D1*
X-1078867Y-2397893D1*
X-1110293Y-2722523D2*
X-1118723Y-2733457D1*
X-1135543Y-2750277D1*
X-1149337Y-2760617D1*
X-1135837Y-2770190D1*
X-1123843Y-2780773D1*
X-1113033Y-2792557D1*
X-1103523Y-2805417D1*
X-1095423Y-2819203D1*
X-1088820Y-2833770D1*
X-1083787Y-2848950D1*
X-1081030Y-2860900D1*
X-1026497Y-2806380D1*
X-1110233Y-2722567D1*
X-1258093Y-3037960D2*
X-1275170Y-3033713D1*
X-1290163Y-3028150D1*
X-1304487Y-3021037D1*
X-1309553Y-3018033D1*
X-1309583Y-3090337D1*
X-1302967Y-3082853D1*
X-1258073Y-3037960D1*
X804390Y-1454517D2*
X802143Y-1468713D1*
X797700Y-1482383D1*
X791177Y-1495190D1*
X789660Y-1497457D1*
X789437Y-1513167D1*
X787550Y-1525060D1*
X789923Y-1525030D1*
X798440Y-1520460D1*
X807077Y-1517380D1*
X804830Y-1503183D1*
Y-1488810D1*
X807077Y-1474613D1*
X811520Y-1460943D1*
X818043Y-1448137D1*
X826493Y-1436507D1*
X836657Y-1426343D1*
X845227Y-1419940D1*
X839377Y-1410367D1*
X834927Y-1399623D1*
X832213Y-1388320D1*
X831300Y-1376727D1*
X831527Y-1283103D1*
X833347Y-1271617D1*
X836940Y-1260560D1*
X842220Y-1250200D1*
X849053Y-1240793D1*
X872947Y-1216577D1*
X853467Y-1220917D1*
X720663Y-1354267D1*
X727403Y-1356857D1*
X741380Y-1360213D1*
X754660Y-1365713D1*
X766913Y-1373223D1*
X777843Y-1382560D1*
X787180Y-1393490D1*
X794690Y-1405743D1*
X800190Y-1419023D1*
X803547Y-1433000D1*
X804673Y-1447330D1*
X804390Y-1454517D1*
X628787Y-1483123D2*
X624003Y-1468713D1*
X622513Y-1460907D1*
X449593Y-1633837D1*
X449550Y-1662423D1*
X628710Y-1483193D1*
X184160Y-1815797D2*
X175010Y-1828677D1*
X164847Y-1838840D1*
X153217Y-1847290D1*
X140410Y-1853813D1*
X126740Y-1858257D1*
X124067Y-1858787D1*
X-20000Y-2002537D1*
X-29723Y-2009603D1*
X-40433Y-2015060D1*
X-51863Y-2018773D1*
X-63737Y-2020653D1*
X-189747Y-2020890D1*
X-229530Y-2020653D1*
X-241403Y-2018773D1*
X-252833Y-2015060D1*
X-263543Y-2009603D1*
X-273267Y-2002537D1*
X-298070Y-1978070D1*
X-298017Y-2049347D1*
X5403Y-2049400D1*
X210577Y-1844153D1*
X198083Y-1833663D1*
X188747Y-1822733D1*
X184217Y-1815797D1*
X15757Y-1750477D2*
X18240Y-1740880D1*
X23740Y-1727600D1*
X31250Y-1715347D1*
X40587Y-1704417D1*
X51517Y-1695080D1*
X63770Y-1687570D1*
X70227Y-1684593D1*
X36510Y-1650877D1*
X-110590Y-1797930D1*
X-113103Y-1807540D1*
X-118603Y-1820820D1*
X-126113Y-1833073D1*
X-135450Y-1844003D1*
X-146380Y-1853340D1*
X-158633Y-1860850D1*
X-171913Y-1866350D1*
X-176647Y-1867683D1*
X-101410Y-1867690D1*
X15687Y-1750527D1*
X-230343Y-1692787D2*
X-218930Y-1689633D1*
X-72690Y-1543377D1*
X-72697Y-1396907D1*
X-230377Y-1554553D1*
X-230347Y-1692720D1*
X-439933Y-2673390D2*
X-441550Y-2662363D1*
Y-2647990D1*
X-439303Y-2633793D1*
X-434860Y-2620123D1*
X-428337Y-2607317D1*
X-419887Y-2595687D1*
X-409723Y-2585523D1*
X-398093Y-2577073D1*
X-385287Y-2570550D1*
X-371617Y-2566107D1*
X-357420Y-2563860D1*
X-343047D1*
X-328850Y-2566107D1*
X-320637Y-2568537D1*
X15320Y-2232600D1*
X-413053D1*
X-413340Y-2408823D1*
X-415467Y-2422247D1*
X-419667Y-2435170D1*
X-425833Y-2447280D1*
X-433823Y-2458273D1*
X-495007Y-2519833D1*
X-648527Y-2673353D1*
X-440077Y-2673387D1*
X772103Y-3083623D2*
X766227Y-3095027D1*
X758453Y-3105797D1*
X1012567Y-3105790D1*
X1028040Y-3101917D1*
X1042370Y-3100790D1*
X1056700Y-3101917D1*
X1070677Y-3105273D1*
X1083957Y-3110773D1*
X1096210Y-3118283D1*
X1107140Y-3127620D1*
X1116477Y-3138550D1*
X1123987Y-3150803D1*
X1129487Y-3164083D1*
X1132843Y-3178060D1*
X1133970Y-3192390D1*
X1132843Y-3206720D1*
X1132387Y-3210693D1*
X1183043Y-3160037D1*
X1183030Y-2672697D1*
X772170Y-3083567D1*
X596540Y-3047587D2*
X597650Y-3032837D1*
X601007Y-3018860D1*
X606507Y-3005580D1*
X614017Y-2993327D1*
X623353Y-2982397D1*
X634283Y-2973060D1*
X646537Y-2965550D1*
X659817Y-2960050D1*
X666877Y-2958070D1*
X1090210Y-2534727D1*
X1090223Y-1884687D1*
X852060Y-2175343D1*
X844843Y-2181773D1*
X836707Y-2186997D1*
X827857Y-2190880D1*
X818507Y-2193333D1*
X808890Y-2194293D1*
X799237Y-2193737D1*
X789793Y-2191677D1*
X780787Y-2188167D1*
X772443Y-2183290D1*
X682677Y-2110057D1*
X-33557Y-2825837D1*
X-44550Y-2833827D1*
X-56660Y-2839993D1*
X-69583Y-2844193D1*
X-83007Y-2846320D1*
X-162690Y-2846587D1*
X48740Y-3058323D1*
X56730Y-3069317D1*
X60063Y-3075277D1*
X62780Y-3074717D1*
X72943Y-3064553D1*
X84573Y-3056103D1*
X97380Y-3049580D1*
X111050Y-3045137D1*
X125247Y-3042890D1*
X139620D1*
X153817Y-3045137D1*
X162137Y-3047607D1*
X596573D1*
X162137Y-3220807D2*
X146763Y-3224680D1*
X132433Y-3225807D1*
X118103Y-3224680D1*
X104127Y-3221323D1*
X90847Y-3215823D1*
X78593Y-3208313D1*
X69500Y-3200673D1*
X69490Y-3423240D1*
X468753Y-3423557D1*
X482950Y-3425803D1*
X496620Y-3430247D1*
X509450Y-3436787D1*
X508040Y-3426687D1*
X506913Y-3412357D1*
X508040Y-3398027D1*
X511397Y-3384050D1*
X516897Y-3370770D1*
X524407Y-3358517D1*
X533743Y-3347587D1*
X544673Y-3338250D1*
X555873Y-3331330D1*
X545737Y-3324937D1*
X534807Y-3315600D1*
X525470Y-3304670D1*
X517960Y-3292417D1*
X512460Y-3279137D1*
X509103Y-3265160D1*
X507977Y-3250830D1*
X509103Y-3236500D1*
X513093Y-3220810D1*
X162353Y-3220807D1*
X652377Y-3486447D2*
X640100Y-3493973D1*
X626820Y-3499473D1*
X612843Y-3502830D1*
X598513Y-3503957D1*
X584183Y-3502830D1*
X577820Y-3501563D1*
X596663Y-3520427D1*
X712187Y-3520683D1*
X726383Y-3522930D1*
X740053Y-3527373D1*
X752860Y-3533897D1*
X764490Y-3542347D1*
X774653Y-3552510D1*
X783103Y-3564140D1*
X789627Y-3576947D1*
X794070Y-3590617D1*
X796317Y-3604813D1*
Y-3619187D1*
X794070Y-3633383D1*
X789627Y-3647053D1*
X783103Y-3659860D1*
X774653Y-3671490D1*
X764490Y-3681653D1*
X752860Y-3690103D1*
X740053Y-3696627D1*
X726383Y-3701070D1*
X712187Y-3703317D1*
X625000Y-3703600D1*
X551507Y-3703317D1*
X537310Y-3701070D1*
X523640Y-3696627D1*
X510833Y-3690103D1*
X499203Y-3681653D1*
X437353Y-3620203D1*
X423597Y-3606447D1*
X213443Y-3606803D1*
X237280Y-3631017D1*
X245270Y-3642010D1*
X251437Y-3654120D1*
X255637Y-3667043D1*
X257763Y-3680467D1*
Y-3694053D1*
X255637Y-3707477D1*
X253030Y-3716090D1*
Y-3954213D1*
X268820Y-3950383D1*
X283930Y-3949193D1*
X299040Y-3950383D1*
X313780Y-3953920D1*
X327787Y-3959723D1*
X340710Y-3967643D1*
X352237Y-3977487D1*
X362080Y-3989013D1*
X370000Y-4001937D1*
X375803Y-4015943D1*
X379340Y-4030683D1*
X380530Y-4045793D1*
X379340Y-4060903D1*
X375803Y-4075643D1*
X370000Y-4089650D1*
X362080Y-4102573D1*
X352237Y-4114100D1*
X348993Y-4117097D1*
X360057Y-4126943D1*
X373467Y-4142647D1*
X377840Y-4149193D1*
X493950D1*
X495400Y-4140000D1*
X495807Y-4089673D1*
X499037Y-4069280D1*
X505417Y-4049640D1*
X514793Y-4031240D1*
X526930Y-4014533D1*
X541533Y-3999930D1*
X558240Y-3987793D1*
X576640Y-3978417D1*
X596280Y-3972037D1*
X616673Y-3968807D1*
X637327D1*
X657720Y-3972037D1*
X677360Y-3978417D1*
X695760Y-3987793D1*
X712467Y-3999930D1*
X727070Y-4014533D1*
X739207Y-4031240D1*
X748583Y-4049640D1*
X754963Y-4069280D1*
X758193Y-4089673D1*
X758600Y-4140000D1*
X758193Y-4350327D1*
X754963Y-4370720D1*
X748583Y-4390360D1*
X739207Y-4408760D1*
X727070Y-4425467D1*
X712467Y-4440070D1*
X695657Y-4452267D1*
X920220Y-4452003D1*
X1038947Y-4430767D1*
X1118923Y-4393627D1*
X1188100Y-4344627D1*
X1260447Y-4273250D1*
X1312890Y-4193147D1*
X1346217Y-4096027D1*
X1350000Y-4039347D1*
X1350320Y-3315537D1*
X1196767Y-3468703D1*
X1187360Y-3475537D1*
X1177000Y-3480817D1*
X1165943Y-3484410D1*
X1154457Y-3486230D1*
X1028643Y-3486457D1*
X652317D1*
X132030Y-4182370D2*
X128500Y-4197827D1*
X123000Y-4211107D1*
X115490Y-4223360D1*
X106153Y-4234290D1*
X95223Y-4243627D1*
X82970Y-4251137D1*
X69690Y-4256637D1*
X55713Y-4259993D1*
X41383Y-4261120D1*
X27053Y-4259993D1*
X13077Y-4256637D1*
X-203Y-4251137D1*
X-12457Y-4243627D1*
X-23387Y-4234290D1*
X-32723Y-4223360D1*
X-40233Y-4211107D1*
X-45733Y-4197827D1*
X-49263Y-4182370D1*
X-55037Y-4189280D1*
X-51807Y-4209673D1*
Y-4230327D1*
X-55037Y-4250720D1*
X-61417Y-4270360D1*
X-70793Y-4288760D1*
X-82930Y-4305467D1*
X-97533Y-4320070D1*
X-114240Y-4332207D1*
X-132640Y-4341583D1*
X-152280Y-4347963D1*
X-169507Y-4350820D1*
X-169660Y-4415627D1*
X-171173Y-4425173D1*
X-174160Y-4434367D1*
X-178547Y-4442980D1*
X-184240Y-4450813D1*
X-184023Y-4453267D1*
X268867Y-4452747D1*
X261407Y-4442980D1*
X257020Y-4434367D1*
X254033Y-4425173D1*
X252520Y-4415627D1*
X252330Y-4350717D1*
X236280Y-4347963D1*
X216640Y-4341583D1*
X198240Y-4332207D1*
X181533Y-4320070D1*
X166930Y-4305467D1*
X154793Y-4288760D1*
X145417Y-4270360D1*
X139037Y-4250720D1*
X135807Y-4230327D1*
Y-4209673D1*
X139037Y-4189280D1*
X140977Y-4182403D1*
X558627Y-4452423D2*
X546067Y-4443643D1*
X540760Y-4450813D1*
X558553Y-4452417D1*
X-462827Y-4444243D2*
X-476740Y-4453607D1*
X-455350Y-4453577D1*
X-460917Y-4446987D1*
X547983Y-1999807D2*
X505467Y-1965003D1*
X501090Y-1963150D1*
X412153Y-2052420D1*
X-208830Y-2673403D1*
X-125700Y-2673387D1*
X547950Y-1999763D1*
X519447Y-1850703D2*
X707093Y-1621460D1*
X519473Y-1809083D1*
X519443Y-1850747D1*
X58033Y-3924193D2*
X89907D1*
X89830Y-3840717D1*
X57977Y-3872627D1*
X58030Y-3924163D1*
X253017Y-3924193D2*
X253030Y-3954270D1*
X267100Y-4450813D2*
X261407Y-4442980D1*
X257020Y-4434367D1*
X254033Y-4425173D1*
X252520Y-4415627D1*
X252330Y-4410773D1*
X-527900Y-1460643D2*
X-540550Y-1465650D1*
X-559103Y-1470103D1*
X-578127Y-1471600D1*
X-597150Y-1470103D1*
X-613227Y-1466347D1*
X-613233Y-1653277D1*
X-527883Y-1567957D1*
X-527870Y-1460687D1*
X-260303Y-1367090D2*
X-271433Y-1362483D1*
X-281680Y-1356203D1*
X-290820Y-1348397D1*
X-298057Y-1341160D1*
X-298017Y-1405597D1*
X-259743Y-1367260D1*
X187750Y-1100563D2*
X166260Y-1121653D1*
X160587Y-1126123D1*
X158953Y-1129333D1*
X160833Y-1141207D1*
X161070Y-1267217D1*
Y-1558857D1*
X266300Y-1664010D1*
X266633Y-1588753D1*
X268880Y-1574557D1*
X273323Y-1560887D1*
X279847Y-1548080D1*
X288297Y-1536450D1*
X349747Y-1474600D1*
X485037Y-1339310D1*
X246263Y-1100640D1*
X187680Y-1100600D1*
X-70313Y-3606473D2*
X-187343D1*
X-267680Y-3686870D1*
X-150587Y-3686827D1*
X-70277Y-3606513D1*
X-887053Y-3675037D2*
D10*
Y-3829060D1*
X-1093577D2*
X-680530D1*
X-1230000Y152000D2*
X-1078477D1*
X-473563Y-3142777D2*
Y-3429523D1*
X-708313D2*
X-238813D1*
D23*
X-887053Y-3829060D3*
Y-4289060D3*
D24*
X-1230000Y-356000D3*
Y-102000D3*
Y152000D3*
Y406000D3*
X1272000Y-356000D3*
Y-102000D3*
Y152000D3*
Y406000D3*
X-1230000Y-1371000D3*
Y-1117000D3*
Y-863000D3*
Y-609000D3*
X1272000Y-1372000D3*
Y-1118000D3*
Y-864000D3*
Y-610000D3*
X-1234000Y-1624000D3*
D25*
X-1230000Y-1878000D3*
D24*
X-1234000Y-2132000D3*
D25*
X-1230000Y-2386000D3*
D24*
X-1234000Y-2635000D3*
D25*
X-1230000Y-2889000D3*
D24*
X-1234000Y-3416900D3*
D25*
X-1230000Y-3670900D3*
D26*
X150000Y501000D3*
X-320000Y281000D3*
X150000Y244000D3*
X-320000Y27000D3*
X150000Y-10000D3*
X145800Y-518000D3*
X150000Y-264000D3*
X-320000Y-481000D3*
Y535000D3*
D33*
X502000Y-443000D3*
Y-315000D3*
Y-189000D3*
Y-61000D3*
Y66000D3*
Y193000D3*
Y320000D3*
D34*
X-339000Y-710000D3*
X-212000D3*
X-85000D3*
X42000D3*
X169000D3*
X295000D3*
X423000D3*
D33*
X502000Y447000D3*
D39*
X627000Y-4220000D3*
X-543000D3*
D91*
X-473563Y-3429523D3*
D94*
X815400Y-1854787D3*
D41*
X41430Y-4053293D3*
X-23570D3*
X106430D3*
X171430D3*
X-88570D3*
D97*
X403930Y-4310793D3*
D100*
X-321070D3*
D42*
X-578127Y-1350000D3*
Y-1140000D3*
D26*
X-320000Y-227000D3*
G04 Bottom Clear*
%LPC*%
D14*
X837007Y502930D3*
X837087Y374127D3*
X-923397Y320863D3*
X-1073273Y20463D3*
X-751700Y-5550D3*
X838183Y-7077D3*
X-907450Y-110743D3*
X-759317Y-255560D3*
X-820757Y-414323D3*
X-787590Y-518083D3*
X-762807Y-640000D3*
X-578467Y-1006473D3*
X106767Y-1052003D3*
X3903Y-1167337D3*
X232000Y-1106000D3*
X-209000Y-1208000D3*
X1033067Y-1233920D3*
X974593Y-1323500D3*
X629063Y-1354240D3*
X713073Y-1447330D3*
X896147Y-1495997D3*
X-962180Y-1547077D3*
X233990Y-1588557D3*
X105357Y-1769187D3*
X262853Y-1768893D3*
X-200220Y-1779233D3*
X-616487Y-2141000D3*
X-350233Y-2655177D3*
X-595307Y-2902200D3*
X688123Y-3047167D3*
X132433Y-3134207D3*
X1042370Y-3192390D3*
X-1045267Y-3223637D3*
X599577Y-3250830D3*
X598513Y-3412357D3*
X705000Y-3612000D3*
X79550Y-3735653D3*
X-310353Y-3773427D3*
X41383Y-4169520D3*
X-320423Y280333D3*
X150043Y501663D3*
X-318247Y27277D3*
X-317987Y-480550D3*
X149900Y-263137D3*
X150850Y-10177D3*
X149497Y245303D3*
X842570Y-132553D3*
X-321513Y537670D3*
X-153057Y-1077827D3*
X144633Y-516943D3*
X-321853Y-228657D3*
D45*
X-1230000Y-356000D3*
Y-102000D3*
Y152000D3*
Y406000D3*
X1272000Y-356000D3*
Y-102000D3*
Y152000D3*
Y406000D3*
X-1230000Y-1371000D3*
Y-1117000D3*
Y-863000D3*
Y-609000D3*
X1272000Y-1372000D3*
Y-1118000D3*
Y-864000D3*
Y-610000D3*
X-1234000Y-1624000D3*
X-1230000Y-1878000D3*
X-1234000Y-2132000D3*
X-1230000Y-2386000D3*
X-1234000Y-2635000D3*
X-1230000Y-2889000D3*
X-1234000Y-3416900D3*
X-1230000Y-3670900D3*
D15*
X502000Y-443000D3*
Y-315000D3*
Y-189000D3*
Y-61000D3*
Y66000D3*
Y193000D3*
Y320000D3*
X-339000Y-710000D3*
X-212000D3*
X-85000D3*
X42000D3*
X169000D3*
X295000D3*
X423000D3*
X502000Y447000D3*
X627000Y-4295000D2*
D45*
Y-4145000D1*
X-543000Y-4295000D2*
Y-4145000D1*
X403930Y-4330793D2*
D44*
Y-4290793D1*
X-321070Y-4330793D2*
Y-4290793D1*
D16*
X-578127Y-1350000D3*
Y-1140000D3*
M02*
